<svg width="393" height="378" viewBox="0 0 393 378" fill="none" xmlns="http://www.w3.org/2000/svg">
<g clip-path="url(#clip0_4415_12568)">
<g clip-path="url(#clip1_4415_12568)">
<path d="M366.228 140.02C358.051 139.813 343.424 140.02 346.199 109.438C348.985 78.8567 330.063 71.6338 322.835 75.5249C315.607 79.416 295.017 91.6487 282.776 91.6487C270.534 91.6487 268.867 72.1931 268.307 61.067C267.747 49.953 265.52 42.1707 254.508 37.6473C243.495 33.1239 224.354 61.6263 213.219 63.2922C202.097 64.9581 192.082 56.6165 188.188 35.4951C184.294 14.3736 168.718 16.5988 161.478 19.9306C154.25 23.2624 135.887 49.953 120.311 49.3936C104.735 48.8343 98.6146 23.2624 89.1596 11.0297C79.7167 -1.17871 48.5648 -8.96094 38.55 19.3956C28.5351 47.7521 24.0814 44.9675 11.2921 45.5268C6.65582 45.7335 2.92004 45.1985 0.0117188 44.4446V158.162C0.0117188 168.024 0.0123048 295.501 0.0124004 408.001H393C393.463 407.016 392.684 173.473 393 172.366C402.224 139.073 374.418 140.239 366.253 140.032L366.228 140.02Z" fill="black"/>
</g>
</g>
<defs>
<clipPath id="clip0_4415_12568">
<rect width="393" height="378" fill="white"/>
</clipPath>
<clipPath id="clip1_4415_12568">
<rect width="393" height="404" fill="white" transform="translate(0 -26)"/>
</clipPath>
</defs>
</svg>
