<svg width="412" height="416" viewBox="0 0 412 416" fill="none" xmlns="http://www.w3.org/2000/svg">
<path d="M389.822 0.0791532C407.479 -1.36243 411.993 17.3643 412 17.3917V69.7491L412.001 399.911C412.001 399.911 408.879 415.782 392.255 415.782C375.632 415.782 377.53 399.911 365.751 399.911C353.971 399.911 350.045 415.782 340.229 415.782C330.412 415.782 326.486 401.354 313.725 399.911C300.963 398.468 298.018 415.782 286.238 415.782C274.459 415.782 273.477 399.911 259.734 399.911C245.992 399.911 249.918 415.782 235.193 415.782C220.469 415.782 221.451 399.911 207.708 399.911C193.965 399.911 192.002 415.782 182.186 415.782C172.369 415.782 167.46 399.911 154.699 399.911C141.938 399.912 139.975 415.782 128.195 415.782C116.416 415.782 115.434 398.469 102.673 398.469C89.9118 398.469 87.9484 415.782 76.1689 415.782C64.3893 415.782 61.4439 398.469 48.6826 398.469C35.9219 398.469 39.8479 414.34 22.1787 415.782C4.50956 417.225 0.000976562 398.469 0.000976562 398.469L0 97.6934V15.9493C0 15.9493 3.12241 0.0791594 19.7461 0.0791532C36.3696 0.0792075 34.4706 15.9491 46.25 15.9493C58.0296 15.9493 61.9563 0.0793589 71.7725 0.0791532C81.5887 0.0791541 85.5154 14.5063 98.2764 15.9493C111.038 17.392 113.983 0.0791522 125.763 0.0791532C137.542 0.0793111 138.524 15.9492 152.267 15.9493C166.009 15.9493 162.083 0.0791519 176.808 0.0791532C191.532 0.0792251 190.55 15.9491 204.293 15.9493C218.036 15.9493 219.999 0.0795069 229.815 0.0791532C239.632 0.0791541 244.541 15.9493 257.302 15.9493C270.063 15.949 272.026 0.0791522 283.806 0.0791532C295.585 0.0792954 296.567 17.3917 309.328 17.3917C322.089 17.3916 324.053 0.0793549 335.832 0.0791532C347.612 0.0791542 350.557 17.3917 363.318 17.3917C376.079 17.3914 372.153 1.52189 389.822 0.0791532Z" fill="black"/>
<path d="M389.822 0.0791532C407.479 -1.36243 411.993 17.3643 412 17.3917V69.7491L412.001 399.911C412.001 399.911 408.879 415.782 392.255 415.782C375.632 415.782 377.53 399.911 365.751 399.911C353.971 399.911 350.045 415.782 340.229 415.782C330.412 415.782 326.486 401.354 313.725 399.911C300.963 398.468 298.018 415.782 286.238 415.782C274.459 415.782 273.477 399.911 259.734 399.911C245.992 399.911 249.918 415.782 235.193 415.782C220.469 415.782 221.451 399.911 207.708 399.911C193.965 399.911 192.002 415.782 182.186 415.782C172.369 415.782 167.46 399.911 154.699 399.911C141.938 399.912 139.975 415.782 128.195 415.782C116.416 415.782 115.434 398.469 102.673 398.469C89.9118 398.469 87.9484 415.782 76.1689 415.782C64.3893 415.782 61.4439 398.469 48.6826 398.469C35.9219 398.469 39.8479 414.34 22.1787 415.782C4.50956 417.225 0.000976562 398.469 0.000976562 398.469L0 97.6934V15.9493C0 15.9493 3.12241 0.0791594 19.7461 0.0791532C36.3696 0.0792075 34.4706 15.9491 46.25 15.9493C58.0296 15.9493 61.9563 0.0793589 71.7725 0.0791532C81.5887 0.0791541 85.5154 14.5063 98.2764 15.9493C111.038 17.392 113.983 0.0791522 125.763 0.0791532C137.542 0.0793111 138.524 15.9492 152.267 15.9493C166.009 15.9493 162.083 0.0791519 176.808 0.0791532C191.532 0.0792251 190.55 15.9491 204.293 15.9493C218.036 15.9493 219.999 0.0795069 229.815 0.0791532C239.632 0.0791541 244.541 15.9493 257.302 15.9493C270.063 15.949 272.026 0.0791522 283.806 0.0791532C295.585 0.0792954 296.567 17.3917 309.328 17.3917C322.089 17.3916 324.053 0.0793549 335.832 0.0791532C347.612 0.0791542 350.557 17.3917 363.318 17.3917C376.079 17.3914 372.153 1.52189 389.822 0.0791532Z" fill="black" fill-opacity="0.2"/>
<path d="M389.822 0.0791532C407.479 -1.36243 411.993 17.3643 412 17.3917V69.7491L412.001 399.911C412.001 399.911 408.879 415.782 392.255 415.782C375.632 415.782 377.53 399.911 365.751 399.911C353.971 399.911 350.045 415.782 340.229 415.782C330.412 415.782 326.486 401.354 313.725 399.911C300.963 398.468 298.018 415.782 286.238 415.782C274.459 415.782 273.477 399.911 259.734 399.911C245.992 399.911 249.918 415.782 235.193 415.782C220.469 415.782 221.451 399.911 207.708 399.911C193.965 399.911 192.002 415.782 182.186 415.782C172.369 415.782 167.46 399.911 154.699 399.911C141.938 399.912 139.975 415.782 128.195 415.782C116.416 415.782 115.434 398.469 102.673 398.469C89.9118 398.469 87.9484 415.782 76.1689 415.782C64.3893 415.782 61.4439 398.469 48.6826 398.469C35.9219 398.469 39.8479 414.34 22.1787 415.782C4.50956 417.225 0.000976562 398.469 0.000976562 398.469L0 97.6934V15.9493C0 15.9493 3.12241 0.0791594 19.7461 0.0791532C36.3696 0.0792075 34.4706 15.9491 46.25 15.9493C58.0296 15.9493 61.9563 0.0793589 71.7725 0.0791532C81.5887 0.0791541 85.5154 14.5063 98.2764 15.9493C111.038 17.392 113.983 0.0791522 125.763 0.0791532C137.542 0.0793111 138.524 15.9492 152.267 15.9493C166.009 15.9493 162.083 0.0791519 176.808 0.0791532C191.532 0.0792251 190.55 15.9491 204.293 15.9493C218.036 15.9493 219.999 0.0795069 229.815 0.0791532C239.632 0.0791541 244.541 15.9493 257.302 15.9493C270.063 15.949 272.026 0.0791522 283.806 0.0791532C295.585 0.0792954 296.567 17.3917 309.328 17.3917C322.089 17.3916 324.053 0.0793549 335.832 0.0791532C347.612 0.0791542 350.557 17.3917 363.318 17.3917C376.079 17.3914 372.153 1.52189 389.822 0.0791532Z" fill="black" fill-opacity="0.2"/>
<path d="M389.822 0.0791532C407.479 -1.36243 411.993 17.3643 412 17.3917V69.7491L412.001 399.911C412.001 399.911 408.879 415.782 392.255 415.782C375.632 415.782 377.53 399.911 365.751 399.911C353.971 399.911 350.045 415.782 340.229 415.782C330.412 415.782 326.486 401.354 313.725 399.911C300.963 398.468 298.018 415.782 286.238 415.782C274.459 415.782 273.477 399.911 259.734 399.911C245.992 399.911 249.918 415.782 235.193 415.782C220.469 415.782 221.451 399.911 207.708 399.911C193.965 399.911 192.002 415.782 182.186 415.782C172.369 415.782 167.46 399.911 154.699 399.911C141.938 399.912 139.975 415.782 128.195 415.782C116.416 415.782 115.434 398.469 102.673 398.469C89.9118 398.469 87.9484 415.782 76.1689 415.782C64.3893 415.782 61.4439 398.469 48.6826 398.469C35.9219 398.469 39.8479 414.34 22.1787 415.782C4.50956 417.225 0.000976562 398.469 0.000976562 398.469L0 97.6934V15.9493C0 15.9493 3.12241 0.0791594 19.7461 0.0791532C36.3696 0.0792075 34.4706 15.9491 46.25 15.9493C58.0296 15.9493 61.9563 0.0793589 71.7725 0.0791532C81.5887 0.0791541 85.5154 14.5063 98.2764 15.9493C111.038 17.392 113.983 0.0791522 125.763 0.0791532C137.542 0.0793111 138.524 15.9492 152.267 15.9493C166.009 15.9493 162.083 0.0791519 176.808 0.0791532C191.532 0.0792251 190.55 15.9491 204.293 15.9493C218.036 15.9493 219.999 0.0795069 229.815 0.0791532C239.632 0.0791541 244.541 15.9493 257.302 15.9493C270.063 15.949 272.026 0.0791522 283.806 0.0791532C295.585 0.0792954 296.567 17.3917 309.328 17.3917C322.089 17.3916 324.053 0.0793549 335.832 0.0791532C347.612 0.0791542 350.557 17.3917 363.318 17.3917C376.079 17.3914 372.153 1.52189 389.822 0.0791532Z" fill="black" fill-opacity="0.2"/>
<path d="M389.822 0.0791532C407.479 -1.36243 411.993 17.3643 412 17.3917V69.7491L412.001 399.911C412.001 399.911 408.879 415.782 392.255 415.782C375.632 415.782 377.53 399.911 365.751 399.911C353.971 399.911 350.045 415.782 340.229 415.782C330.412 415.782 326.486 401.354 313.725 399.911C300.963 398.468 298.018 415.782 286.238 415.782C274.459 415.782 273.477 399.911 259.734 399.911C245.992 399.911 249.918 415.782 235.193 415.782C220.469 415.782 221.451 399.911 207.708 399.911C193.965 399.911 192.002 415.782 182.186 415.782C172.369 415.782 167.46 399.911 154.699 399.911C141.938 399.912 139.975 415.782 128.195 415.782C116.416 415.782 115.434 398.469 102.673 398.469C89.9118 398.469 87.9484 415.782 76.1689 415.782C64.3893 415.782 61.4439 398.469 48.6826 398.469C35.9219 398.469 39.8479 414.34 22.1787 415.782C4.50956 417.225 0.000976562 398.469 0.000976562 398.469L0 97.6934V15.9493C0 15.9493 3.12241 0.0791594 19.7461 0.0791532C36.3696 0.0792075 34.4706 15.9491 46.25 15.9493C58.0296 15.9493 61.9563 0.0793589 71.7725 0.0791532C81.5887 0.0791541 85.5154 14.5063 98.2764 15.9493C111.038 17.392 113.983 0.0791522 125.763 0.0791532C137.542 0.0793111 138.524 15.9492 152.267 15.9493C166.009 15.9493 162.083 0.0791519 176.808 0.0791532C191.532 0.0792251 190.55 15.9491 204.293 15.9493C218.036 15.9493 219.999 0.0795069 229.815 0.0791532C239.632 0.0791541 244.541 15.9493 257.302 15.9493C270.063 15.949 272.026 0.0791522 283.806 0.0791532C295.585 0.0792954 296.567 17.3917 309.328 17.3917C322.089 17.3916 324.053 0.0793549 335.832 0.0791532C347.612 0.0791542 350.557 17.3917 363.318 17.3917C376.079 17.3914 372.153 1.52189 389.822 0.0791532Z" fill="black" fill-opacity="0.2"/>
<path d="M389.822 0.0791532C407.479 -1.36243 411.993 17.3643 412 17.3917V69.7491L412.001 399.911C412.001 399.911 408.879 415.782 392.255 415.782C375.632 415.782 377.53 399.911 365.751 399.911C353.971 399.911 350.045 415.782 340.229 415.782C330.412 415.782 326.486 401.354 313.725 399.911C300.963 398.468 298.018 415.782 286.238 415.782C274.459 415.782 273.477 399.911 259.734 399.911C245.992 399.911 249.918 415.782 235.193 415.782C220.469 415.782 221.451 399.911 207.708 399.911C193.965 399.911 192.002 415.782 182.186 415.782C172.369 415.782 167.46 399.911 154.699 399.911C141.938 399.912 139.975 415.782 128.195 415.782C116.416 415.782 115.434 398.469 102.673 398.469C89.9118 398.469 87.9484 415.782 76.1689 415.782C64.3893 415.782 61.4439 398.469 48.6826 398.469C35.9219 398.469 39.8479 414.34 22.1787 415.782C4.50956 417.225 0.000976562 398.469 0.000976562 398.469L0 97.6934V15.9493C0 15.9493 3.12241 0.0791594 19.7461 0.0791532C36.3696 0.0792075 34.4706 15.9491 46.25 15.9493C58.0296 15.9493 61.9563 0.0793589 71.7725 0.0791532C81.5887 0.0791541 85.5154 14.5063 98.2764 15.9493C111.038 17.392 113.983 0.0791522 125.763 0.0791532C137.542 0.0793111 138.524 15.9492 152.267 15.9493C166.009 15.9493 162.083 0.0791519 176.808 0.0791532C191.532 0.0792251 190.55 15.9491 204.293 15.9493C218.036 15.9493 219.999 0.0795069 229.815 0.0791532C239.632 0.0791541 244.541 15.9493 257.302 15.9493C270.063 15.949 272.026 0.0791522 283.806 0.0791532C295.585 0.0792954 296.567 17.3917 309.328 17.3917C322.089 17.3916 324.053 0.0793549 335.832 0.0791532C347.612 0.0791542 350.557 17.3917 363.318 17.3917C376.079 17.3914 372.153 1.52189 389.822 0.0791532Z" fill="black" fill-opacity="0.2"/>
</svg>
