<svg width="1321" height="160" viewBox="0 0 1321 160" fill="none" xmlns="http://www.w3.org/2000/svg">
<path d="M19.8044 29.2085C19.8044 16.5137 6.84531e-06 17.9379 7.62939e-06 -1.83588e-06L41.9995 0L42 160L6.35572e-07 160C1.06243e-06 150.235 18.1541 147.368 18.1541 134.673C18.1541 121.979 2.38291e-06 120.026 2.89513e-06 108.307C3.40736e-06 96.5889 19.8044 95.6124 19.8044 82.9175C19.8044 70.2227 4.64523e-06 68.2696 5.15746e-06 56.5513C5.66968e-06 44.833 19.8044 41.9034 19.8044 29.2085Z" fill="#F4A910"/>
<path d="M42 0H1305C1313.84 0 1321 7.16344 1321 16V144C1321 152.837 1313.84 160 1305 160H42V0Z" fill="#F4A910"/>
</svg>
