<svg width="1321" height="160" viewBox="0 0 1321 160" fill="none" xmlns="http://www.w3.org/2000/svg">
<path d="M0 16C0 7.16345 7.16344 0 16 0H1279V160H16C7.16343 160 0 152.837 0 144V16Z" fill="#6A892C"/>
<path d="M1301.2 29.2085C1301.2 16.5137 1321 17.9379 1321 -1.83588e-06L1279 0L1279 160L1321 160C1321 150.235 1302.85 147.368 1302.85 134.673C1302.85 121.979 1321 120.026 1321 108.307C1321 96.5889 1301.2 95.6124 1301.2 82.9175C1301.2 70.2227 1321 68.2696 1321 56.5513C1321 44.833 1301.2 41.9034 1301.2 29.2085Z" fill="#6A892C"/>
</svg>
