<svg width="1439" height="438" viewBox="0 0 1439 438" fill="none" xmlns="http://www.w3.org/2000/svg">
<path d="M93.4849 437.726C33.3875 442.719 23.3712 377.808 0 377.808V0H1439V382.801C1415.63 382.801 1388.92 437.726 1352.19 437.726C1315.47 437.726 1302.11 382.801 1262.05 382.801C1221.98 382.801 1208.63 437.726 1175.24 437.726C1141.85 437.726 1128.5 387.794 1085.09 382.801C1041.69 377.808 1031.67 437.726 991.608 437.726C951.543 437.726 948.204 382.801 901.462 382.801C854.719 382.801 868.074 437.726 817.993 437.726C767.912 437.726 771.251 382.801 724.508 382.801C677.766 382.801 671.088 437.726 637.701 437.726C604.313 437.726 587.619 382.801 544.216 382.801C500.812 382.801 494.135 437.726 454.07 437.726C414.005 437.726 410.666 377.808 367.262 377.808C323.858 377.808 317.181 437.726 277.116 437.726C237.051 437.726 227.035 377.808 183.631 377.808C140.227 377.808 153.582 432.733 93.4849 437.726Z" fill="black"/>
<path d="M93.4849 437.726C33.3875 442.719 23.3712 377.808 0 377.808V0H1439V382.801C1415.63 382.801 1388.92 437.726 1352.19 437.726C1315.47 437.726 1302.11 382.801 1262.05 382.801C1221.98 382.801 1208.63 437.726 1175.24 437.726C1141.85 437.726 1128.5 387.794 1085.09 382.801C1041.69 377.808 1031.67 437.726 991.608 437.726C951.543 437.726 948.204 382.801 901.462 382.801C854.719 382.801 868.074 437.726 817.993 437.726C767.912 437.726 771.251 382.801 724.508 382.801C677.766 382.801 671.088 437.726 637.701 437.726C604.313 437.726 587.619 382.801 544.216 382.801C500.812 382.801 494.135 437.726 454.07 437.726C414.005 437.726 410.666 377.808 367.262 377.808C323.858 377.808 317.181 437.726 277.116 437.726C237.051 437.726 227.035 377.808 183.631 377.808C140.227 377.808 153.582 432.733 93.4849 437.726Z" fill="black" fill-opacity="0.2"/>
<path d="M93.4849 437.726C33.3875 442.719 23.3712 377.808 0 377.808V0H1439V382.801C1415.63 382.801 1388.92 437.726 1352.19 437.726C1315.47 437.726 1302.11 382.801 1262.05 382.801C1221.98 382.801 1208.63 437.726 1175.24 437.726C1141.85 437.726 1128.5 387.794 1085.09 382.801C1041.69 377.808 1031.67 437.726 991.608 437.726C951.543 437.726 948.204 382.801 901.462 382.801C854.719 382.801 868.074 437.726 817.993 437.726C767.912 437.726 771.251 382.801 724.508 382.801C677.766 382.801 671.088 437.726 637.701 437.726C604.313 437.726 587.619 382.801 544.216 382.801C500.812 382.801 494.135 437.726 454.07 437.726C414.005 437.726 410.666 377.808 367.262 377.808C323.858 377.808 317.181 437.726 277.116 437.726C237.051 437.726 227.035 377.808 183.631 377.808C140.227 377.808 153.582 432.733 93.4849 437.726Z" fill="black" fill-opacity="0.2"/>
<path d="M93.4849 437.726C33.3875 442.719 23.3712 377.808 0 377.808V0H1439V382.801C1415.63 382.801 1388.92 437.726 1352.19 437.726C1315.47 437.726 1302.11 382.801 1262.05 382.801C1221.98 382.801 1208.63 437.726 1175.24 437.726C1141.85 437.726 1128.5 387.794 1085.09 382.801C1041.69 377.808 1031.67 437.726 991.608 437.726C951.543 437.726 948.204 382.801 901.462 382.801C854.719 382.801 868.074 437.726 817.993 437.726C767.912 437.726 771.251 382.801 724.508 382.801C677.766 382.801 671.088 437.726 637.701 437.726C604.313 437.726 587.619 382.801 544.216 382.801C500.812 382.801 494.135 437.726 454.07 437.726C414.005 437.726 410.666 377.808 367.262 377.808C323.858 377.808 317.181 437.726 277.116 437.726C237.051 437.726 227.035 377.808 183.631 377.808C140.227 377.808 153.582 432.733 93.4849 437.726Z" fill="black" fill-opacity="0.2"/>
<path d="M93.4849 437.726C33.3875 442.719 23.3712 377.808 0 377.808V0H1439V382.801C1415.63 382.801 1388.92 437.726 1352.19 437.726C1315.47 437.726 1302.11 382.801 1262.05 382.801C1221.98 382.801 1208.63 437.726 1175.24 437.726C1141.85 437.726 1128.5 387.794 1085.09 382.801C1041.69 377.808 1031.67 437.726 991.608 437.726C951.543 437.726 948.204 382.801 901.462 382.801C854.719 382.801 868.074 437.726 817.993 437.726C767.912 437.726 771.251 382.801 724.508 382.801C677.766 382.801 671.088 437.726 637.701 437.726C604.313 437.726 587.619 382.801 544.216 382.801C500.812 382.801 494.135 437.726 454.07 437.726C414.005 437.726 410.666 377.808 367.262 377.808C323.858 377.808 317.181 437.726 277.116 437.726C237.051 437.726 227.035 377.808 183.631 377.808C140.227 377.808 153.582 432.733 93.4849 437.726Z" fill="black" fill-opacity="0.2"/>
<path d="M93.4849 437.726C33.3875 442.719 23.3712 377.808 0 377.808V0H1439V382.801C1415.63 382.801 1388.92 437.726 1352.19 437.726C1315.47 437.726 1302.11 382.801 1262.05 382.801C1221.98 382.801 1208.63 437.726 1175.24 437.726C1141.85 437.726 1128.5 387.794 1085.09 382.801C1041.69 377.808 1031.67 437.726 991.608 437.726C951.543 437.726 948.204 382.801 901.462 382.801C854.719 382.801 868.074 437.726 817.993 437.726C767.912 437.726 771.251 382.801 724.508 382.801C677.766 382.801 671.088 437.726 637.701 437.726C604.313 437.726 587.619 382.801 544.216 382.801C500.812 382.801 494.135 437.726 454.07 437.726C414.005 437.726 410.666 377.808 367.262 377.808C323.858 377.808 317.181 437.726 277.116 437.726C237.051 437.726 227.035 377.808 183.631 377.808C140.227 377.808 153.582 432.733 93.4849 437.726Z" fill="black" fill-opacity="0.2"/>
</svg>
