<svg width="1440" height="438" viewBox="0 0 1440 438" fill="none" xmlns="http://www.w3.org/2000/svg">
<path d="M94.4849 437.726C34.3875 442.719 24.3712 377.808 1 377.808V0H1440V382.801C1416.63 382.801 1389.92 437.726 1353.19 437.726C1316.47 437.726 1303.11 382.801 1263.05 382.801C1222.98 382.801 1209.63 437.726 1176.24 437.726C1142.85 437.726 1129.5 387.794 1086.09 382.801C1042.69 377.808 1032.67 437.726 992.608 437.726C952.543 437.726 949.204 382.801 902.462 382.801C855.719 382.801 869.074 437.726 818.993 437.726C768.912 437.726 772.251 382.801 725.508 382.801C678.766 382.801 672.088 437.726 638.701 437.726C605.313 437.726 588.619 382.801 545.216 382.801C501.812 382.801 495.135 437.726 455.07 437.726C415.005 437.726 411.666 377.808 368.262 377.808C324.858 377.808 318.181 437.726 278.116 437.726C238.051 437.726 228.035 377.808 184.631 377.808C141.227 377.808 154.582 432.733 94.4849 437.726Z" fill="black"/>
<path d="M94.4849 437.726C34.3875 442.719 24.3712 377.808 1 377.808V0H1440V382.801C1416.63 382.801 1389.92 437.726 1353.19 437.726C1316.47 437.726 1303.11 382.801 1263.05 382.801C1222.98 382.801 1209.63 437.726 1176.24 437.726C1142.85 437.726 1129.5 387.794 1086.09 382.801C1042.69 377.808 1032.67 437.726 992.608 437.726C952.543 437.726 949.204 382.801 902.462 382.801C855.719 382.801 869.074 437.726 818.993 437.726C768.912 437.726 772.251 382.801 725.508 382.801C678.766 382.801 672.088 437.726 638.701 437.726C605.313 437.726 588.619 382.801 545.216 382.801C501.812 382.801 495.135 437.726 455.07 437.726C415.005 437.726 411.666 377.808 368.262 377.808C324.858 377.808 318.181 437.726 278.116 437.726C238.051 437.726 228.035 377.808 184.631 377.808C141.227 377.808 154.582 432.733 94.4849 437.726Z" fill="black" fill-opacity="0.2"/>
<path d="M94.4849 437.726C34.3875 442.719 24.3712 377.808 1 377.808V0H1440V382.801C1416.63 382.801 1389.92 437.726 1353.19 437.726C1316.47 437.726 1303.11 382.801 1263.05 382.801C1222.98 382.801 1209.63 437.726 1176.24 437.726C1142.85 437.726 1129.5 387.794 1086.09 382.801C1042.69 377.808 1032.67 437.726 992.608 437.726C952.543 437.726 949.204 382.801 902.462 382.801C855.719 382.801 869.074 437.726 818.993 437.726C768.912 437.726 772.251 382.801 725.508 382.801C678.766 382.801 672.088 437.726 638.701 437.726C605.313 437.726 588.619 382.801 545.216 382.801C501.812 382.801 495.135 437.726 455.07 437.726C415.005 437.726 411.666 377.808 368.262 377.808C324.858 377.808 318.181 437.726 278.116 437.726C238.051 437.726 228.035 377.808 184.631 377.808C141.227 377.808 154.582 432.733 94.4849 437.726Z" fill="black" fill-opacity="0.2"/>
<path d="M94.4849 437.726C34.3875 442.719 24.3712 377.808 1 377.808V0H1440V382.801C1416.63 382.801 1389.92 437.726 1353.19 437.726C1316.47 437.726 1303.11 382.801 1263.05 382.801C1222.98 382.801 1209.63 437.726 1176.24 437.726C1142.85 437.726 1129.5 387.794 1086.09 382.801C1042.69 377.808 1032.67 437.726 992.608 437.726C952.543 437.726 949.204 382.801 902.462 382.801C855.719 382.801 869.074 437.726 818.993 437.726C768.912 437.726 772.251 382.801 725.508 382.801C678.766 382.801 672.088 437.726 638.701 437.726C605.313 437.726 588.619 382.801 545.216 382.801C501.812 382.801 495.135 437.726 455.07 437.726C415.005 437.726 411.666 377.808 368.262 377.808C324.858 377.808 318.181 437.726 278.116 437.726C238.051 437.726 228.035 377.808 184.631 377.808C141.227 377.808 154.582 432.733 94.4849 437.726Z" fill="black" fill-opacity="0.2"/>
<path d="M94.4849 437.726C34.3875 442.719 24.3712 377.808 1 377.808V0H1440V382.801C1416.63 382.801 1389.92 437.726 1353.19 437.726C1316.47 437.726 1303.11 382.801 1263.05 382.801C1222.98 382.801 1209.63 437.726 1176.24 437.726C1142.85 437.726 1129.5 387.794 1086.09 382.801C1042.69 377.808 1032.67 437.726 992.608 437.726C952.543 437.726 949.204 382.801 902.462 382.801C855.719 382.801 869.074 437.726 818.993 437.726C768.912 437.726 772.251 382.801 725.508 382.801C678.766 382.801 672.088 437.726 638.701 437.726C605.313 437.726 588.619 382.801 545.216 382.801C501.812 382.801 495.135 437.726 455.07 437.726C415.005 437.726 411.666 377.808 368.262 377.808C324.858 377.808 318.181 437.726 278.116 437.726C238.051 437.726 228.035 377.808 184.631 377.808C141.227 377.808 154.582 432.733 94.4849 437.726Z" fill="black" fill-opacity="0.2"/>
<path d="M94.4849 437.726C34.3875 442.719 24.3712 377.808 1 377.808V0H1440V382.801C1416.63 382.801 1389.92 437.726 1353.19 437.726C1316.47 437.726 1303.11 382.801 1263.05 382.801C1222.98 382.801 1209.63 437.726 1176.24 437.726C1142.85 437.726 1129.5 387.794 1086.09 382.801C1042.69 377.808 1032.67 437.726 992.608 437.726C952.543 437.726 949.204 382.801 902.462 382.801C855.719 382.801 869.074 437.726 818.993 437.726C768.912 437.726 772.251 382.801 725.508 382.801C678.766 382.801 672.088 437.726 638.701 437.726C605.313 437.726 588.619 382.801 545.216 382.801C501.812 382.801 495.135 437.726 455.07 437.726C415.005 437.726 411.666 377.808 368.262 377.808C324.858 377.808 318.181 437.726 278.116 437.726C238.051 437.726 228.035 377.808 184.631 377.808C141.227 377.808 154.582 432.733 94.4849 437.726Z" fill="black" fill-opacity="0.2"/>
<path d="M270.656 183V138.2H281.024V183H270.656ZM311.88 148.056C320.008 148.056 326.152 152.792 326.152 163.288V183H316.168V164.824C316.168 159.256 313.608 156.696 309.192 156.696C304.392 156.696 300.936 159.64 300.936 165.976V183H290.952V148.568H300.488V152.6C303.176 149.656 307.208 148.056 311.88 148.056ZM346.786 183.512C340.962 183.512 335.074 181.912 331.874 179.8L335.202 172.632C338.274 174.616 342.946 175.96 347.17 175.96C351.778 175.96 353.506 174.744 353.506 172.824C353.506 167.192 332.706 172.952 332.706 159.192C332.706 152.664 338.594 148.056 348.642 148.056C353.378 148.056 358.626 149.144 361.89 151.064L358.562 158.168C355.17 156.248 351.778 155.608 348.642 155.608C344.162 155.608 342.242 157.016 342.242 158.808C342.242 164.696 363.042 159 363.042 172.568C363.042 178.968 357.09 183.512 346.786 183.512ZM389.554 148.056C399.218 148.056 406.706 154.968 406.706 165.784C406.706 176.6 399.218 183.512 389.554 183.512C385.266 183.512 381.746 182.168 379.186 179.352V195.416H369.202V148.568H378.738V152.536C381.234 149.528 384.946 148.056 389.554 148.056ZM387.826 175.32C392.818 175.32 396.594 171.736 396.594 165.784C396.594 159.832 392.818 156.248 387.826 156.248C382.834 156.248 379.058 159.832 379.058 165.784C379.058 171.736 382.834 175.32 387.826 175.32ZM412.557 144.152L421.197 134.936H431.949L420.365 144.152H412.557ZM413.389 183V148.568H423.373V183H413.389ZM442.175 153.112C444.607 149.784 448.703 148.056 454.015 148.056V157.272C453.183 157.208 452.543 157.144 451.775 157.144C446.271 157.144 442.623 160.152 442.623 166.744V183H432.639V148.568H442.175V153.112ZM473.652 148.056C484.148 148.056 490.228 152.92 490.228 163.352V183H480.884V178.712C479.028 181.848 475.444 183.512 470.388 183.512C462.324 183.512 457.524 179.032 457.524 173.08C457.524 167 461.812 162.776 472.308 162.776H480.244C480.244 158.488 477.684 155.992 472.308 155.992C468.66 155.992 464.884 157.208 462.388 159.192L458.804 152.216C462.58 149.528 468.148 148.056 473.652 148.056ZM472.884 176.792C476.212 176.792 479.092 175.256 480.244 172.12V168.6H473.396C468.724 168.6 467.252 170.328 467.252 172.632C467.252 175.128 469.364 176.792 472.884 176.792ZM518.784 174.296L521.472 181.336C519.424 182.808 516.416 183.512 513.344 183.512C505.216 183.512 500.48 179.352 500.48 171.16V157.016H495.168V149.336H500.48V140.952H510.464V149.336H519.04V157.016H510.464V171.032C510.464 173.976 512.064 175.576 514.752 175.576C516.224 175.576 517.696 175.128 518.784 174.296ZM559.742 165.912C559.742 166.68 559.614 167.768 559.55 168.6H533.502C534.462 172.888 538.11 175.512 543.358 175.512C547.006 175.512 549.63 174.424 551.998 172.184L557.31 177.944C554.11 181.592 549.31 183.512 543.102 183.512C531.198 183.512 523.454 176.024 523.454 165.784C523.454 155.48 531.326 148.056 541.822 148.056C551.934 148.056 559.742 154.84 559.742 165.912ZM541.886 155.608C537.342 155.608 534.078 158.36 533.374 162.776H550.334C549.63 158.424 546.366 155.608 541.886 155.608ZM609.09 148.568H618.69L603.138 185.112C599.81 193.432 595.074 195.928 588.866 195.928C585.346 195.928 581.506 194.776 579.266 192.792L582.914 185.688C584.45 187.032 586.562 187.864 588.546 187.864C591.298 187.864 592.834 186.648 594.178 183.576L594.306 183.256L579.394 148.568H589.698L599.362 171.928L609.09 148.568ZM657.529 183.512C646.329 183.512 638.329 176.152 638.329 165.784C638.329 155.416 646.329 148.056 657.529 148.056C664.761 148.056 670.457 151.192 672.953 156.824L665.209 160.984C663.353 157.72 660.601 156.248 657.465 156.248C652.409 156.248 648.441 159.768 648.441 165.784C648.441 171.8 652.409 175.32 657.465 175.32C660.601 175.32 663.353 173.912 665.209 170.584L672.953 174.808C670.457 180.312 664.761 183.512 657.529 183.512ZM694.648 183.512C683.704 183.512 675.704 176.152 675.704 165.784C675.704 155.416 683.704 148.056 694.648 148.056C705.592 148.056 713.528 155.416 713.528 165.784C713.528 176.152 705.592 183.512 694.648 183.512ZM694.648 175.32C699.64 175.32 703.416 171.736 703.416 165.784C703.416 159.832 699.64 156.248 694.648 156.248C689.656 156.248 685.816 159.832 685.816 165.784C685.816 171.736 689.656 175.32 694.648 175.32ZM736.842 183.512C725.642 183.512 717.642 176.152 717.642 165.784C717.642 155.416 725.642 148.056 736.842 148.056C744.074 148.056 749.77 151.192 752.266 156.824L744.522 160.984C742.666 157.72 739.914 156.248 736.778 156.248C731.722 156.248 727.754 159.768 727.754 165.784C727.754 171.8 731.722 175.32 736.778 175.32C739.914 175.32 742.666 173.912 744.522 170.584L752.266 174.808C749.77 180.312 744.074 183.512 736.842 183.512ZM763.006 143.768C759.294 143.768 756.798 141.336 756.798 138.2C756.798 135.064 759.294 132.632 763.006 132.632C766.718 132.632 769.214 134.936 769.214 138.008C769.214 141.336 766.718 143.768 763.006 143.768ZM758.014 183V148.568H767.998V183H758.014ZM798.192 148.056C806.32 148.056 812.464 152.792 812.464 163.288V183H802.48V164.824C802.48 159.256 799.92 156.696 795.504 156.696C790.704 156.696 787.248 159.64 787.248 165.976V183H777.264V148.568H786.8V152.6C789.488 149.656 793.52 148.056 798.192 148.056ZM835.402 148.056C845.898 148.056 851.978 152.92 851.978 163.352V183H842.634V178.712C840.778 181.848 837.194 183.512 832.138 183.512C824.074 183.512 819.274 179.032 819.274 173.08C819.274 167 823.562 162.776 834.058 162.776H841.994C841.994 158.488 839.434 155.992 834.058 155.992C830.41 155.992 826.634 157.208 824.138 159.192L820.554 152.216C824.33 149.528 829.898 148.056 835.402 148.056ZM834.634 176.792C837.962 176.792 840.842 175.256 841.994 172.12V168.6H835.146C830.474 168.6 829.002 170.328 829.002 172.632C829.002 175.128 831.114 176.792 834.634 176.792ZM890.083 147.864V149.336H898.915V157.016H890.339V183H880.355V157.016H875.043V149.336H880.355V147.8C880.355 140.056 885.091 135 893.667 135C896.483 135 899.427 135.576 901.283 136.856L898.659 144.088C897.571 143.32 896.163 142.872 894.627 142.872C891.683 142.872 890.083 144.472 890.083 147.864ZM931.744 134.936L920.16 144.152H912.352L920.992 134.936H931.744ZM917.152 148.056C927.648 148.056 933.728 152.92 933.728 163.352V183H924.384V178.712C922.528 181.848 918.944 183.512 913.888 183.512C905.824 183.512 901.024 179.032 901.024 173.08C901.024 167 905.312 162.776 915.808 162.776H923.744C923.744 158.488 921.184 155.992 915.808 155.992C912.16 155.992 908.384 157.208 905.888 159.192L902.304 152.216C906.08 149.528 911.648 148.056 917.152 148.056ZM916.384 176.792C919.712 176.792 922.592 175.256 923.744 172.12V168.6H916.896C912.224 168.6 910.752 170.328 910.752 172.632C910.752 175.128 912.864 176.792 916.384 176.792ZM959.779 183.512C948.579 183.512 940.579 176.152 940.579 165.784C940.579 155.416 948.579 148.056 959.779 148.056C967.011 148.056 972.707 151.192 975.203 156.824L967.459 160.984C965.603 157.72 962.851 156.248 959.715 156.248C954.659 156.248 950.691 159.768 950.691 165.784C950.691 171.8 954.659 175.32 959.715 175.32C962.851 175.32 965.603 173.912 967.459 170.584L975.203 174.808C972.707 180.312 967.011 183.512 959.779 183.512ZM985.944 143.768C982.232 143.768 979.736 141.336 979.736 138.2C979.736 135.064 982.232 132.632 985.944 132.632C989.656 132.632 992.152 134.936 992.152 138.008C992.152 141.336 989.656 143.768 985.944 143.768ZM980.952 183V148.568H990.936V183H980.952ZM1000.2 183V135.512H1010.19V183H1000.2ZM1054.22 183.512C1043.02 183.512 1035.02 176.152 1035.02 165.784C1035.02 155.416 1043.02 148.056 1054.22 148.056C1061.45 148.056 1067.14 151.192 1069.64 156.824L1061.9 160.984C1060.04 157.72 1057.29 156.248 1054.15 156.248C1049.1 156.248 1045.13 159.768 1045.13 165.784C1045.13 171.8 1049.1 175.32 1054.15 175.32C1057.29 175.32 1060.04 173.912 1061.9 170.584L1069.64 174.808C1067.14 180.312 1061.45 183.512 1054.22 183.512ZM1091.34 183.512C1080.39 183.512 1072.39 176.152 1072.39 165.784C1072.39 155.416 1080.39 148.056 1091.34 148.056C1102.28 148.056 1110.22 155.416 1110.22 165.784C1110.22 176.152 1102.28 183.512 1091.34 183.512ZM1091.34 175.32C1096.33 175.32 1100.1 171.736 1100.1 165.784C1100.1 159.832 1096.33 156.248 1091.34 156.248C1086.34 156.248 1082.5 159.832 1082.5 165.784C1082.5 171.736 1086.34 175.32 1091.34 175.32ZM1137.82 148.056C1145.95 148.056 1152.09 152.792 1152.09 163.288V183H1142.11V164.824C1142.11 159.256 1139.55 156.696 1135.13 156.696C1130.33 156.696 1126.87 159.64 1126.87 165.976V183H1116.89V148.568H1126.43V152.6C1129.11 149.656 1133.15 148.056 1137.82 148.056ZM306.692 225.056C314.82 225.056 320.964 229.792 320.964 240.288V260H310.98V241.824C310.98 236.256 308.42 233.696 304.004 233.696C299.204 233.696 295.748 236.64 295.748 242.976V260H285.764V225.568H295.3V229.6C297.988 226.656 302.02 225.056 306.692 225.056ZM354.718 225.568H364.702V260H355.23V255.904C352.606 258.912 348.766 260.512 344.542 260.512C335.902 260.512 329.822 255.648 329.822 245.024V225.568H339.806V243.552C339.806 249.312 342.366 251.872 346.782 251.872C351.39 251.872 354.718 248.928 354.718 242.592V225.568ZM407.68 242.912C407.68 243.68 407.552 244.768 407.488 245.6H381.44C382.4 249.888 386.048 252.512 391.296 252.512C394.944 252.512 397.568 251.424 399.936 249.184L405.248 254.944C402.048 258.592 397.248 260.512 391.04 260.512C379.136 260.512 371.392 253.024 371.392 242.784C371.392 232.48 379.264 225.056 389.76 225.056C399.872 225.056 407.68 231.84 407.68 242.912ZM389.824 232.608C385.28 232.608 382.016 235.36 381.312 239.776H398.272C397.568 235.424 394.304 232.608 389.824 232.608ZM425.911 260.512C420.087 260.512 414.199 258.912 410.999 256.8L414.327 249.632C417.399 251.616 422.071 252.96 426.295 252.96C430.903 252.96 432.631 251.744 432.631 249.824C432.631 244.192 411.831 249.952 411.831 236.192C411.831 229.664 417.719 225.056 427.767 225.056C432.503 225.056 437.751 226.144 441.015 228.064L437.687 235.168C434.295 233.248 430.903 232.608 427.767 232.608C423.287 232.608 421.367 234.016 421.367 235.808C421.367 241.696 442.167 236 442.167 249.568C442.167 255.968 436.215 260.512 425.911 260.512ZM467.847 251.296L470.535 258.336C468.487 259.808 465.479 260.512 462.407 260.512C454.279 260.512 449.543 256.352 449.543 248.16V234.016H444.231V226.336H449.543V217.952H459.527V226.336H468.103V234.016H459.527V248.032C459.527 250.976 461.127 252.576 463.815 252.576C465.287 252.576 466.759 252.128 467.847 251.296ZM485.675 230.112C488.107 226.784 492.203 225.056 497.515 225.056V234.272C496.683 234.208 496.043 234.144 495.275 234.144C489.771 234.144 486.123 237.152 486.123 243.744V260H476.139V225.568H485.675V230.112ZM517.152 225.056C527.648 225.056 533.728 229.92 533.728 240.352V260H524.384V255.712C522.528 258.848 518.944 260.512 513.888 260.512C505.824 260.512 501.024 256.032 501.024 250.08C501.024 244 505.312 239.776 515.808 239.776H523.744C523.744 235.488 521.184 232.992 515.808 232.992C512.16 232.992 508.384 234.208 505.888 236.192L502.304 229.216C506.08 226.528 511.648 225.056 517.152 225.056ZM516.384 253.792C519.712 253.792 522.592 252.256 523.744 249.12V245.6H516.896C512.224 245.6 510.752 247.328 510.752 249.632C510.752 252.128 512.864 253.792 516.384 253.792ZM554.348 260.512C548.524 260.512 542.636 258.912 539.436 256.8L542.764 249.632C545.836 251.616 550.508 252.96 554.732 252.96C559.34 252.96 561.068 251.744 561.068 249.824C561.068 244.192 540.268 249.952 540.268 236.192C540.268 229.664 546.156 225.056 556.204 225.056C560.94 225.056 566.188 226.144 569.452 228.064L566.124 235.168C562.732 233.248 559.34 232.608 556.204 232.608C551.724 232.608 549.804 234.016 549.804 235.808C549.804 241.696 570.604 236 570.604 249.568C570.604 255.968 564.652 260.512 554.348 260.512ZM615.241 225.056C624.905 225.056 632.393 231.968 632.393 242.784C632.393 253.6 624.905 260.512 615.241 260.512C610.633 260.512 606.921 259.04 604.425 256.032V260H594.889V212.512H604.873V229.216C607.433 226.4 610.953 225.056 615.241 225.056ZM613.513 252.32C618.505 252.32 622.281 248.736 622.281 242.784C622.281 236.832 618.505 233.248 613.513 233.248C608.521 233.248 604.745 236.832 604.745 242.784C604.745 248.736 608.521 252.32 613.513 252.32ZM652.402 225.056C662.898 225.056 668.978 229.92 668.978 240.352V260H659.634V255.712C657.778 258.848 654.194 260.512 649.138 260.512C641.074 260.512 636.274 256.032 636.274 250.08C636.274 244 640.562 239.776 651.058 239.776H658.994C658.994 235.488 656.434 232.992 651.058 232.992C647.41 232.992 643.634 234.208 641.138 236.192L637.554 229.216C641.33 226.528 646.898 225.056 652.402 225.056ZM651.634 253.792C654.962 253.792 657.842 252.256 658.994 249.12V245.6H652.146C647.474 245.6 646.002 247.328 646.002 249.632C646.002 252.128 648.114 253.792 651.634 253.792ZM689.598 260.512C683.774 260.512 677.886 258.912 674.686 256.8L678.014 249.632C681.086 251.616 685.758 252.96 689.982 252.96C694.59 252.96 696.318 251.744 696.318 249.824C696.318 244.192 675.518 249.952 675.518 236.192C675.518 229.664 681.406 225.056 691.454 225.056C696.19 225.056 701.438 226.144 704.702 228.064L701.374 235.168C697.982 233.248 694.59 232.608 691.454 232.608C686.974 232.608 685.054 234.016 685.054 235.808C685.054 241.696 705.854 236 705.854 249.568C705.854 255.968 699.902 260.512 689.598 260.512ZM745.742 242.912C745.742 243.68 745.614 244.768 745.55 245.6H719.502C720.462 249.888 724.11 252.512 729.358 252.512C733.006 252.512 735.63 251.424 737.998 249.184L743.31 254.944C740.11 258.592 735.31 260.512 729.102 260.512C717.198 260.512 709.454 253.024 709.454 242.784C709.454 232.48 717.326 225.056 727.822 225.056C737.934 225.056 745.742 231.84 745.742 242.912ZM727.886 232.608C723.342 232.608 720.078 235.36 719.374 239.776H736.334C735.63 235.424 732.366 232.608 727.886 232.608ZM763.973 260.512C758.149 260.512 752.261 258.912 749.061 256.8L752.389 249.632C755.461 251.616 760.133 252.96 764.357 252.96C768.965 252.96 770.693 251.744 770.693 249.824C770.693 244.192 749.893 249.952 749.893 236.192C749.893 229.664 755.781 225.056 765.829 225.056C770.565 225.056 775.813 226.144 779.077 228.064L775.749 235.168C772.357 233.248 768.965 232.608 765.829 232.608C761.349 232.608 759.429 234.016 759.429 235.808C759.429 241.696 780.229 236 780.229 249.568C780.229 255.968 774.277 260.512 763.973 260.512ZM821.154 260.512C809.954 260.512 801.954 253.152 801.954 242.784C801.954 232.416 809.954 225.056 821.154 225.056C828.386 225.056 834.082 228.192 836.578 233.824L828.834 237.984C826.978 234.72 824.226 233.248 821.09 233.248C816.034 233.248 812.066 236.768 812.066 242.784C812.066 248.8 816.034 252.32 821.09 252.32C824.226 252.32 826.978 250.912 828.834 247.584L836.578 251.808C834.082 257.312 828.386 260.512 821.154 260.512ZM867.031 225.568H877.015V260H867.543V255.904C864.919 258.912 861.079 260.512 856.855 260.512C848.215 260.512 842.135 255.648 842.135 245.024V225.568H852.119V243.552C852.119 249.312 854.679 251.872 859.095 251.872C863.703 251.872 867.031 248.928 867.031 242.592V225.568ZM886.264 260V212.512H896.248V260H886.264ZM910.506 220.768C906.794 220.768 904.298 218.336 904.298 215.2C904.298 212.064 906.794 209.632 910.506 209.632C914.218 209.632 916.714 211.936 916.714 215.008C916.714 218.336 914.218 220.768 910.506 220.768ZM905.514 260V225.568H915.498V260H905.514ZM945.692 225.056C953.82 225.056 959.964 229.792 959.964 240.288V260H949.98V241.824C949.98 236.256 947.42 233.696 943.004 233.696C938.204 233.696 934.748 236.64 934.748 242.976V260H924.764V225.568H934.3V229.6C936.988 226.656 941.02 225.056 945.692 225.056ZM982.902 225.056C993.398 225.056 999.478 229.92 999.478 240.352V260H990.134V255.712C988.278 258.848 984.694 260.512 979.638 260.512C971.574 260.512 966.774 256.032 966.774 250.08C966.774 244 971.062 239.776 981.558 239.776H989.494C989.494 235.488 986.934 232.992 981.558 232.992C977.91 232.992 974.134 234.208 971.638 236.192L968.054 229.216C971.83 226.528 977.398 225.056 982.902 225.056ZM982.134 253.792C985.462 253.792 988.342 252.256 989.494 249.12V245.6H982.646C977.974 245.6 976.502 247.328 976.502 249.632C976.502 252.128 978.614 253.792 982.134 253.792ZM1018.05 230.112C1020.48 226.784 1024.58 225.056 1029.89 225.056V234.272C1029.06 234.208 1028.42 234.144 1027.65 234.144C1022.15 234.144 1018.5 237.152 1018.5 243.744V260H1008.51V225.568H1018.05V230.112ZM1040.82 220.768C1037.11 220.768 1034.61 218.336 1034.61 215.2C1034.61 212.064 1037.11 209.632 1040.82 209.632C1044.53 209.632 1047.03 211.936 1047.03 215.008C1047.03 218.336 1044.53 220.768 1040.82 220.768ZM1035.83 260V225.568H1045.81V260H1035.83ZM1068.96 225.056C1079.46 225.056 1085.54 229.92 1085.54 240.352V260H1076.2V255.712C1074.34 258.848 1070.76 260.512 1065.7 260.512C1057.64 260.512 1052.84 256.032 1052.84 250.08C1052.84 244 1057.12 239.776 1067.62 239.776H1075.56C1075.56 235.488 1073 232.992 1067.62 232.992C1063.97 232.992 1060.2 234.208 1057.7 236.192L1054.12 229.216C1057.89 226.528 1063.46 225.056 1068.96 225.056ZM1068.2 253.792C1071.52 253.792 1074.4 252.256 1075.56 249.12V245.6H1068.71C1064.04 245.6 1062.56 247.328 1062.56 249.632C1062.56 252.128 1064.68 253.792 1068.2 253.792ZM1106.16 260.512C1100.34 260.512 1094.45 258.912 1091.25 256.8L1094.58 249.632C1097.65 251.616 1102.32 252.96 1106.54 252.96C1111.15 252.96 1112.88 251.744 1112.88 249.824C1112.88 244.192 1092.08 249.952 1092.08 236.192C1092.08 229.664 1097.97 225.056 1108.02 225.056C1112.75 225.056 1118 226.144 1121.26 228.064L1117.94 235.168C1114.54 233.248 1111.15 232.608 1108.02 232.608C1103.54 232.608 1101.62 234.016 1101.62 235.808C1101.62 241.696 1122.42 236 1122.42 249.568C1122.42 255.968 1116.46 260.512 1106.16 260.512ZM1132.35 260.512C1128.9 260.512 1126.14 257.888 1126.14 254.24C1126.14 250.528 1128.9 248.096 1132.35 248.096C1135.81 248.096 1138.56 250.528 1138.56 254.24C1138.56 257.888 1135.81 260.512 1132.35 260.512Z" fill="white"/>
</svg>
