<svg width="921" height="105" viewBox="0 0 921 105" fill="none" xmlns="http://www.w3.org/2000/svg">
<path d="M30.0159 46.3879C51.6922 58.6435 59.0854 74.4091 75.7497 87.0777C82.9569 92.563 91.9526 96.5243 101.792 95.988C139.603 95.1671 146.72 32.8746 190.255 32.2417C195.942 31.9697 201.636 32.736 206.788 34.5314C239 46.263 247.594 89.7692 281.031 88.0633C286.148 87.848 291.158 86.659 295.733 84.4982C297.34 83.7383 298.301 83.2322 299.003 82.8256C305.843 79.1966 314.8 69.2984 319.758 63.1C325.079 56.766 331.977 47.4142 341.096 40.1964C350.119 32.7628 361.769 29.5187 369.735 29.383C369.83 29.3789 369.924 29.3751 370.017 29.3716C376.784 29.0298 383.624 30.5042 386.08 31.3308C388.448 31.9973 389.715 32.3909 390.325 32.6019C390.332 32.6045 390.339 32.6071 390.346 32.6097C392.316 33.2451 397.002 35.4862 397.99 36.0558C398.138 36.1409 397.25 35.5722 399.671 36.9192C399.882 37.046 399.678 36.9468 401.68 38.1327C402.248 38.3766 408.738 42.6357 410.446 44.0358C416.464 48.3291 429.072 60.342 435.667 65.8198C436.669 66.6554 437.278 67.1274 438.357 67.988C438.913 68.4316 439.744 69.1048 439.921 69.2395C440.675 69.8512 444.149 72.1871 442.802 71.4886C446.403 73.9424 445.415 73.127 445.509 73.1566C449.497 75.6808 451.563 76.6266 452.703 77.0301C457.245 79.015 462.122 80.0877 467.034 79.8545C485.932 79.0909 495.999 59.8864 507.868 46.1321C507.862 46.1173 507.855 46.1024 507.848 46.0875C512.459 40.7413 514.158 38.9633 517.175 36.2487C519.009 34.5434 520.931 32.9263 522.96 31.4279C531.427 25.1603 541.849 21.626 552.353 21.2394C596.778 16.9276 606.844 78.3256 649.651 71.6919C664.425 71.5258 678.339 63.9406 686.002 51.3377C687.452 49.1531 687.83 48.6192 690.062 44.8896C692.533 40.7785 695.766 34.7793 699.643 29.6561C702.903 25.0901 709.23 19.2556 715.111 16.8659C716.44 16.2746 717.374 15.9376 717.529 15.8791C718.413 15.5637 718.463 15.563 719.351 15.283C720.398 14.9588 721.625 14.6195 722.897 14.3461C726.069 13.648 729.505 13.3449 731.589 13.2586C732.489 13.2179 733.089 13.2087 733.271 13.2052C736.12 13.1757 736.746 13.2748 736.99 13.2747C740.179 13.4707 738.97 13.4054 739.755 13.4678C743.866 13.9428 746.742 14.4328 752.061 16.3148C751.913 16.2706 751.765 16.227 751.616 16.1841C755.641 17.749 752.99 16.6949 753.812 17.0135C754.233 16.9661 762.395 21.3715 762.887 21.9362C764.94 23.3336 764.965 23.4167 765.143 23.5365C765.598 23.8004 770.497 27.6821 772.779 29.921C775.517 32.5248 772.27 29.4869 772.947 30.1357C773.073 30.2339 775.915 32.9818 776.274 33.3717C776.686 33.7875 774.256 31.3862 774.285 31.4315C774.328 31.4425 778.319 35.4707 777.541 34.7113C776.953 34.0651 771.439 28.6931 770.152 27.6785C769.948 27.5024 770.322 27.847 770.141 27.6907C769.779 27.3814 766.261 24.2747 762.339 21.7303C758.455 19.1299 754.132 17.2823 753.767 17.1442C754.613 17.4904 755.478 17.8732 756.313 18.271C755.202 17.73 754.071 17.2301 752.928 16.7759C754.549 17.4119 756.167 18.1517 757.71 18.9548C755.501 17.5154 748.056 14.9742 747.672 15.0492C747.549 15.0024 752.152 16.419 747.841 15.1712C748.504 15.3553 749.157 15.5521 749.8 15.7611C751.117 16.174 752.455 16.66 753.738 17.1902C752.885 16.8296 752.013 16.4898 751.128 16.1748C751.454 16.2848 751.782 16.3996 752.106 16.5167C754.556 17.43 756.924 18.5422 759.208 19.8278C760.371 20.4992 760.12 20.3713 760.908 20.8513C770.389 27.3605 764.301 22.9987 770.146 27.7242C770.952 28.4336 771.745 29.1567 772.528 29.8907C772.266 29.6156 774.711 31.8774 777.527 34.749C777.185 34.4113 776.841 34.0746 776.497 33.7395C780.605 37.8777 788.64 46.4927 786.491 44.1487C787.416 45.1116 788.339 46.0596 789.283 47.0049C790.083 47.7936 790.889 48.5714 791.711 49.3414C792.834 50.4058 793.988 51.4557 795.161 52.461C795.164 52.468 795.167 52.475 795.171 52.4821C794.237 51.6827 793.305 50.8468 792.405 50.0095C793.074 50.6448 793.763 51.2823 794.453 51.8998C795.139 52.4983 795.838 53.0881 796.547 53.6642C793.606 51.1988 797.484 54.4499 798.487 55.1409C801.065 57.0763 802.838 58.1356 803.768 58.6802C804.161 59.0283 809.578 61.5485 807.443 60.5846C810.241 61.8595 813.19 62.8038 816.208 63.3651C817.384 63.5885 818.597 63.7576 819.775 63.8672C817.172 63.6584 824.732 64.2816 819.161 63.8384C815.022 63.3311 814.047 62.9308 812.16 62.402C810.455 61.8659 809.577 61.5534 807.793 60.7775C795.871 55.2269 788.911 46.5856 780.308 37.7151C778.611 35.9335 777.043 34.3381 775.87 33.1726C774.543 31.8606 776.222 33.4891 774.519 31.8285C772.718 30.0963 772.3 29.752 771.815 29.3046C771.512 29.0276 770.553 28.1467 769.642 27.3675C765.975 24.0608 759.834 20.1896 759.189 19.9211C758.851 19.7243 755.618 17.8926 752.18 16.6165C748.751 15.2882 745.157 14.5481 744.821 14.4841C744.478 14.4288 745.181 14.455 742.171 14.0212C741.232 13.883 740.221 13.7654 739.303 13.684C739.456 13.6883 739.609 13.6933 739.762 13.6989C734.491 13.3452 735.852 13.4265 731.602 13.5198C731.27 13.5352 730.909 13.5546 730.514 13.5803C723.989 13.9654 715.72 15.7531 708.963 20.7352C702.148 25.6167 697.501 32.9403 693.871 39.0479C692.241 41.7963 691.664 42.866 689.735 46.1036C688.052 49.1915 682.698 56.553 683.885 54.9686C679.022 60.9917 677.898 61.6919 674.858 64.0469C674.48 64.3377 674.115 64.6079 673.735 64.8788C670.189 67.1348 669.068 67.7704 664.774 69.3949C662.912 70.0055 665.067 69.3451 661.252 70.4754C660.525 70.6609 659.78 70.8323 659.015 70.989C659.191 70.9416 659.365 70.8934 659.538 70.8445C655.214 71.7388 654.874 71.6243 655.4 71.6263C653.436 71.8891 651.682 72.0368 649.672 72.1262C649.426 72.1368 649.182 72.146 648.939 72.1539C648.667 72.1768 648.397 72.1982 648.128 72.2179C648.227 72.2173 648.76 72.2095 649.674 72.1688C653.727 72.0267 666.682 71.0171 676.021 63.2143C685.354 55.6467 690.391 44.6214 692.104 42.1317C695.782 35.0749 705.408 21.6499 711.712 18.9763C713.995 17.6876 715.041 17.1271 718.583 15.8766C722.137 14.6229 726.965 13.8961 728.901 13.7501C729.559 13.6887 730.475 13.6149 731.604 13.5623C741.775 11.7957 764.29 20.8642 745.742 14.7432C746.347 14.8884 746.944 15.0439 747.533 15.2095C755.73 17.7773 752.83 16.7654 759.167 19.9787C761.845 21.352 767.555 25.6317 767.186 25.4548C762.844 21.9805 757.735 18.9072 753.232 17.1213C752.809 16.8794 747.383 14.9967 744.455 14.5249C741.846 14.0938 743.661 14.1523 737.91 13.6875C735.003 13.4813 733.066 13.5587 731.607 13.6312C730.865 13.6714 730.317 13.7155 729.93 13.746C727.957 13.92 727.826 13.9069 725.818 14.1931C723.713 14.514 722.287 14.8901 721.994 14.9586C720.595 15.2731 716.137 16.5259 712.425 18.6706C708.665 20.7437 705.741 23.5335 705.486 23.7611C705.937 23.3345 706.386 22.9283 706.854 22.5261C703.877 25.1534 704.57 24.6855 703.827 25.4128C703.289 25.9739 702.766 26.5507 702.258 27.1383C702.455 26.9017 702.655 26.6668 702.857 26.4338C699.844 30.0205 702.01 27.1754 698.124 32.5652C695.743 36.0509 693.571 39.8152 693.355 40.1646C693.294 40.2688 693.979 39.1339 693.111 40.6145C691.685 43.0705 689.194 47.2921 688.875 47.7384C688.15 48.9213 688.226 48.8295 688.13 48.9865C687.93 49.8259 679.65 60.9515 677.386 62.215C672.282 66.7879 665.143 70.0922 657.812 71.3751C657.076 71.5081 657.546 71.4104 656.8 71.537C655.844 71.7246 651.978 72.2117 649.679 72.2927C649.009 72.3264 648.508 72.3419 648.29 72.3482C645.937 72.5069 639.791 72.0823 638.795 71.8728C638.656 71.8564 640.68 72.1437 638.313 71.8363C635.734 71.4426 637.132 71.6241 636.988 71.6056C631.69 70.6546 628.451 69.4716 625.113 67.9864C624.023 67.4993 622.08 66.4852 620.635 65.6303C620.469 65.5332 620.787 65.7458 620.623 65.6508C618.427 64.3759 616.523 62.9511 615.644 62.2892C613.513 60.6562 614.66 61.5634 614.546 61.4813C613.131 60.3801 611.29 58.8197 609.301 56.9532C600.424 48.6348 594.678 40.2796 584.475 32.12C583.188 31.1066 581.603 29.9853 581.392 29.8477C580.743 29.4223 580.932 29.539 579.022 28.373C574.97 25.9551 570.861 24.2782 566.309 23.2183C565.393 23.0089 564.975 22.8993 564.283 22.7695C561.934 22.1343 553.741 21.9374 553.59 21.9725C553.182 21.9904 552.783 22.0112 552.391 22.0345C548.195 22.3075 545.33 22.6884 541.86 23.5044C532.775 25.2028 520.521 33.292 514.465 40.0465C513.136 41.414 512.516 42.0627 511.803 42.8474C510.44 44.1936 503.639 52.6558 503.319 53.129C502.628 53.9999 502.944 53.4067 499.51 57.982C497.451 60.6166 497.643 60.2761 497.211 60.8156C493.854 65.0418 490.325 68.9065 490.917 68.1212C486.651 72.6865 483.342 75.0885 481.136 76.3239C481.19 76.3294 478.741 77.9881 475.417 79.1447C478.656 77.6333 478.581 78.3461 485.541 73.0944C485.646 73.008 485.467 73.1999 485.573 73.1135C486.539 72.3385 488.466 70.5854 489.96 69.0462C491.437 67.5206 490.635 68.3836 491.222 67.7628C491.756 67.1874 491.722 67.1796 492.474 66.3436C494.93 63.5914 496.941 61.0369 498.255 59.382C499.069 58.3527 500.016 57.184 500.641 56.3809C503.077 53.2422 508.24 46.5389 511.688 42.7907C512.403 42.0083 512.114 42.345 513.708 40.6602C513.898 40.4669 514.547 39.719 515.998 38.2928C517.452 36.8701 518.644 35.8309 519.636 34.9797C520.473 34.2762 520.093 34.5269 521.848 33.1354C522.576 32.5556 527.177 29.0094 532.38 26.6512C537.553 24.1894 543.031 23.0779 543.624 22.967C545.238 22.6486 546.01 22.5721 547.022 22.4221C547.199 22.3969 547.501 22.3186 548.119 22.242C549.333 22.0921 550.76 21.958 552.383 21.8797C563.91 20.2262 581.877 27.9106 588.763 35.5498C605.476 52.0151 620.144 73.1002 645.797 72.2428C646.217 72.2433 646.642 72.2397 647.07 72.2318C644.704 72.252 642.192 72.1341 639.789 71.8529C639.775 71.8388 639.76 71.8247 639.746 71.8106C636.472 71.3833 636.948 71.4172 637.02 71.465C635.815 71.2521 634.602 70.9912 633.447 70.6969C632.364 70.6218 624.653 68.0143 621.113 65.7238C618.75 64.381 616.101 62.4934 614.973 61.6065C612.586 59.7279 612.698 59.7142 612.509 59.5689C612.19 59.323 608.988 56.5288 606.842 54.3326C603.661 51.0951 603.375 50.6914 599.132 46.1282C593.763 40.2456 587.692 33.6023 580.319 28.9243C581.775 29.7378 575.093 25.6487 571.693 24.6021C565.888 22.418 559.192 21.4955 552.381 21.8292C535.356 21.9619 519.371 32.8993 509.811 44.7409C507.998 46.841 506.659 48.4534 505.692 49.6593C505.168 50.3141 504.97 50.624 504.249 51.5302C504.124 51.6881 504 51.7812 502.667 53.4789C499.408 57.7668 491.086 68.1865 488.433 70.2671C482.641 75.9612 475.207 80.2162 467.064 80.4718C457.087 81.0324 447.79 76.0528 439.905 70.0363C439.551 69.7462 439.193 69.4499 438.843 69.1554C435.974 67.229 425.772 57.9736 420.736 53.4885C411.974 45.5501 399.545 36.2921 389.396 33.07C387.24 32.324 385.426 31.7831 383.315 31.3124C382.399 31.1089 381.249 30.9264 380.296 30.7767C377.063 30.263 373.537 30.0236 369.774 30.1948C360.897 30.4462 351.548 33.8223 345.201 38.255C324.389 52.3189 316.088 77.7795 292.687 86.7979C288.972 88.135 285.061 88.8712 281.078 89.0533C240.913 90.6239 233.77 30.5597 190.313 33.4686C146.292 35.0817 142.102 95.0205 101.857 97.3462C97.5032 97.5525 93.1575 97.0108 89.0227 95.7189C88.0036 95.3949 88.0721 95.3451 87.2884 95.0655C82.5272 93.6872 73.2063 87.4791 69.0872 83.5301C65.6788 80.5574 60.6868 75.3124 59.5217 74.2526C70.4026 85.8117 84.2434 98.3993 101.265 97.5235C101.503 97.5166 101.7 97.5112 101.864 97.5079C102.52 97.4928 102.637 97.5194 102.755 97.5132C105.433 97.2767 103.706 97.4733 107.542 96.8095C108.161 96.7008 111.395 96.0262 114.15 94.8769C116.903 93.7765 119.149 92.3724 118.491 92.6605C121.626 92.1627 136.07 77.5458 138.098 73.9976C138.832 73.0383 138.265 73.6812 138.41 73.49C139.037 72.6585 139.385 72.3251 139.95 71.5844C141.459 69.6129 145.196 64.4765 145.931 63.5143C147.58 61.2777 152.78 54.722 155.312 52.0084C157.61 49.499 157.111 49.9155 159.207 47.8363C160.904 46.2539 159.026 47.9455 162.965 44.566C164.82 42.7563 172.492 37.8881 174.634 37.221C176.653 36.3464 178.971 35.5417 181.942 34.8336C183.921 34.356 187.027 33.8134 190.323 33.6636C194.078 33.4609 197.795 33.8073 200.178 34.2378C200.44 34.2829 201.087 34.3455 201.72 34.4844C203.046 34.7853 202.64 34.7636 203.633 35.027C204.116 35.147 208.702 36.3946 213.018 38.8212C217.374 41.1678 221.35 44.5017 222.467 45.4777C224.029 46.8286 225.075 47.7743 225.896 48.5673C226.532 49.188 226.56 49.2937 227.2 49.9367C227.4 50.1352 229.109 51.8037 230.711 53.5719C232.263 55.2079 237.732 61.731 238.354 62.487C238.765 62.9768 238.344 62.4164 239.56 63.863C240.669 65.1807 241.365 66.0768 242 66.8197C243.479 68.5511 245.185 70.4368 246.813 72.1923C251.559 77.2085 251.385 76.8585 251.658 77.1748C252.497 77.9622 252.878 78.2201 253.158 78.468C254.323 79.5347 257.378 81.9218 258.556 82.6769C260.003 83.6462 260.607 84.0876 262.225 84.9835C263.434 85.6437 265.953 86.8629 268.949 87.7678C272.618 88.9024 276.869 89.4377 281.086 89.224C284.654 89.0603 288.071 88.4435 291.105 87.5017C293.09 86.87 293.389 86.7596 293.979 86.5373C297.084 85.2882 298.66 84.255 299.488 83.7871C305.563 80.59 314.221 71.7047 318.252 66.7105C319.981 64.7522 327.061 55.6953 331.467 50.8682C331.968 50.3154 331.523 50.8546 332.078 50.2375C333.413 48.7683 333.247 48.8606 333.944 48.1315C334.283 47.7815 335.08 47.0083 336.1 46.018C341.385 40.878 345.678 38.0366 348.617 36.3716C355.031 32.7071 362.354 30.6803 369.782 30.3668C396.209 28.7838 415.48 49.3938 432.309 64.0889C434.826 66.2573 437.969 68.9101 442.017 71.8404C442.133 71.9438 442.249 72.0468 442.365 72.1493C442.518 72.2363 442.671 72.3225 442.824 72.4081C447.52 75.5269 449.378 76.6581 454.704 78.7395C455.158 78.9111 456.577 79.4576 457.499 79.5989C463.004 80.8796 459.975 80.2467 464.148 80.6505C465.117 80.6969 466.091 80.6987 467.072 80.6539C470.268 80.5101 473.339 79.8704 476.236 78.7357C477.272 78.3206 475.66 79.0888 473.604 79.6917C471.566 80.3193 469.068 80.6361 468.774 80.6556C468.223 80.7125 467.65 80.741 467.077 80.7545C466.638 80.7648 466.207 80.7661 465.793 80.767C462.997 80.794 460.293 80.3393 459.688 80.1712C456.134 79.4358 460.549 80.3932 460.105 80.3127C457.721 79.8627 455.39 79.1368 453.148 78.2067C451.736 78.2841 440.362 70.9651 441.191 71.3891C440.34 70.7448 439.489 70.076 438.647 69.3941C434.843 66.5744 432.802 64.6866 428.098 60.4441C428.428 60.7631 428.759 61.081 429.089 61.3978C428.98 61.3177 424.805 57.6117 426.342 58.8893C422.008 55.1381 422.31 55.158 418.352 51.8653C416.014 49.8895 417.493 50.9968 413.254 47.5181C410.73 45.4735 407.484 43.0602 404.444 41.0596C403.743 40.5981 403.459 40.3655 402.829 39.9665C402.197 39.5702 401.865 39.4124 401.089 38.9488C399.488 37.9865 397.362 36.8178 396.309 36.3063C395.368 35.8467 394.009 35.2102 391.663 34.2731C383.356 31.304 385.797 32.3671 384.487 31.9071C383.036 31.5461 381.964 31.3378 379.01 30.9135C378.711 30.8737 379.491 30.9293 378.517 30.8065C377.715 30.7221 377.357 30.6812 374.74 30.5428C374.372 30.5298 372.439 30.4206 369.791 30.5472C364.492 30.6174 356.946 32.7198 355.457 33.4109C351.842 34.5429 344.543 38.7848 341.605 41.3485C340.433 42.2831 339.247 43.355 338.077 44.429C334.142 47.9391 328.613 54.2848 324.452 59.439C320.713 64.0992 313.93 72.0301 311.636 74.3213C305.761 80.2051 303.832 81.0427 303.383 81.464C302.013 82.4383 301.398 82.9289 299.579 84.0154C294.304 87.149 287.935 89.1954 281.099 89.4848C255.155 91.4489 240.718 62.7915 226.261 49.3166C217.045 39.8086 204.016 32.9153 190.335 33.9213C146.857 35.3151 142.762 95.2081 101.881 97.8587C91.6429 98.4794 81.75 94.3188 73.7047 88.0478C73.5563 87.9731 73.4071 87.8971 73.2609 87.8227C78.8825 92.2934 86.4688 96.3815 93.4558 97.4988C95.9859 97.9497 98.845 98.1638 101.888 98.0114C110.047 97.8126 118.142 93.8872 122.242 90.9702C119.995 92.6845 115.875 94.6842 115.975 94.7059C120.53 92.5774 124.612 89.5225 128.269 86.0405C128.127 86.1113 127.986 86.1814 127.844 86.2507C131.674 82.6325 135.159 78.4748 138.414 74.2747C138.978 73.5447 138.545 74.0366 139.036 73.3994C139.585 72.6846 139.246 73.1947 139.349 73.061C140.736 71.2485 141.106 70.6744 141.276 70.452C141.705 69.8824 141.407 70.3502 142.648 68.7091C144.945 65.6587 146.506 63.4038 146.109 64.229C146.85 63.2422 147.596 62.2561 148.349 61.2768C148.505 60.9938 148.662 60.7116 148.821 60.4287C153.645 54.5465 155.785 51.716 158.953 48.9071C159.915 47.8976 160.901 46.9169 161.926 45.9636C162.549 45.4792 163.176 45.0099 163.818 44.5497C163.912 44.4218 164.006 44.2942 164.101 44.1669C169.946 39.4338 177.431 35.8321 184.56 34.6847C187.23 34.2367 188.724 34.1488 190.342 34.0656C191.79 34.0073 193.124 33.9791 195.243 34.0944C205.078 35.2664 195.377 33.8312 203.398 35.5406C202.995 35.3855 202.588 35.236 202.175 35.0924C203.531 35.3877 204.821 35.7377 206.132 36.1654C207.025 36.5102 207.896 36.8827 208.751 37.2828C212.718 38.7528 214.917 40.4472 215.403 40.7319C215.771 41.0022 217.28 41.6381 221.077 44.8442C219.602 43.3979 223.973 47.2861 224.27 47.6434C224.625 47.9183 228.681 51.883 230.2 53.6095C231.427 54.9357 233.939 57.8555 235.671 59.9051C237.204 61.7116 237.087 61.4952 237.199 61.6266C239.08 63.8532 237.872 62.4838 239.227 64.0944C240.582 65.7057 241.676 66.9164 241.967 67.261C242.115 67.4357 241.579 66.8877 242.258 67.6848C244.07 69.827 247.489 73.5752 249.78 75.8036C250.587 76.602 251.591 77.611 252.535 78.4546C253.973 79.7352 254.72 80.2645 255.594 80.9586C255.898 81.1904 257.794 82.8293 260.45 84.4125C260.96 84.7122 262.505 85.4488 264.489 86.6196C264.664 86.6609 264.839 86.7006 265.014 86.7391C273.722 90.1341 277.193 89.7536 281.106 89.633C281.539 89.5979 281.976 89.5522 282.423 89.4939C289.868 88.6298 284.776 89.3364 285.592 89.2664C286.146 89.2107 288.495 88.7113 288.779 88.6263C289.247 88.5155 289.175 88.5652 289.683 88.4328C298.777 85.4563 294.678 86.5675 297.437 85.3622C300.643 83.6959 303.248 81.7947 303.861 81.3804C304.433 80.8908 303.26 82.2871 297.72 85.2696C297.728 85.2843 297.736 85.2991 297.743 85.3139C300.593 84.0372 306.843 79.2087 304.798 80.8715C304.024 81.5603 299.775 84.5968 296.473 86.0813C293.175 87.5651 291.288 88.288 296.192 86.2883C298.359 85.2618 299.483 84.6882 302.999 82.4304C305.243 80.8145 305.484 80.4782 308.339 78.0549C307.846 78.4281 307.347 78.7944 306.845 79.151C310.709 75.8359 315.01 71.2127 317.525 68.2002C318.39 67.1907 321.263 63.3232 320.735 64.3416C322.147 62.5988 328.861 54.4087 330.188 52.9453C330.523 52.6099 330.707 51.9483 335.534 47.05C335.883 46.7225 336.234 46.398 336.588 46.0768C332.138 50.5181 340.119 42.8047 338.036 44.9911C337.224 45.6182 333.702 49.1362 333.158 49.7275C332.199 50.704 334.903 47.6553 331.419 51.503C329.368 54.056 335.61 47.0933 334.799 48.2968C339.525 43.4001 340.255 43.1751 341.413 42.1661C346.558 38.0797 350.197 35.8913 356.001 33.7207C357.341 32.933 347.039 37.565 346.057 38.6644C350.329 35.7997 342.77 40.4531 340.101 43.1055C339.837 43.2782 339.574 43.453 339.311 43.6296C342.973 40.4306 346.882 37.6674 351.198 35.4951C351.488 35.3684 351.779 35.2444 352.067 35.126C351.1 35.605 350.138 36.1245 349.211 36.6674C352.782 34.8607 350.527 35.7044 355.51 33.7737C355.648 33.6742 355.787 33.5754 355.927 33.4772C360.377 31.8816 365.07 31.0226 369.804 30.816C370.215 30.7977 370.623 30.7843 371.03 30.7756C373.688 30.3373 383.509 31.7896 381.67 31.692C385.574 32.5137 380.782 31.4108 384.422 32.2089C386.005 32.5581 389.027 33.5232 389.751 33.8369C389.409 33.7766 384.88 32.3766 383.462 32.1953C383.875 32.2732 389.474 33.6048 394.325 35.9121C399.208 38.1348 403.371 40.9544 402.518 40.4605C403.984 41.4194 403.359 40.9056 405.98 42.6768C413.372 47.6168 423.392 57.0552 428.823 61.6721C422.619 56.0354 420.762 54.3987 415.861 50.2449C414.298 48.9204 408.686 44.258 403.569 40.9721C398.484 37.6372 394.006 35.6653 396.564 36.8218C395.735 36.4186 394.899 36.0333 394.054 35.6666C393.219 35.2531 392.372 34.8566 391.52 34.4825C393.964 35.4484 396.34 36.5804 398.646 37.8393C399.18 38.1696 399.709 38.5059 400.234 38.8489C400.495 38.974 400.756 39.1008 401.016 39.2292C401.969 39.7924 402.906 40.3741 403.834 40.9741C403.559 40.8277 403.284 40.6829 403.007 40.5398C404.44 41.4579 405.844 42.4186 407.224 43.4121C406.873 43.1156 406.52 42.8213 406.165 42.5294C412.666 47.2181 410.43 45.6796 413.867 48.4896C416.413 50.6129 412.173 46.9537 417.54 51.4684C423.696 56.8114 419.613 53.3661 427.488 60.3764C427.612 60.4641 427.737 60.5517 427.861 60.6392C429.585 62.2016 431.311 63.75 433.054 65.2625C432.836 65.0483 432.619 64.8334 432.402 64.6176C435.988 67.7871 441.24 71.7376 442.531 72.6693C438.61 69.8361 438.609 69.899 439.589 70.703C440.722 71.4191 453.363 82.1908 467.098 81.1915C475.394 80.9174 481.843 76.5688 484.046 74.9051C491.614 69.0986 495.914 63.1427 501.252 56.2961C497.931 61.1746 483.938 76.7105 479.693 77.5908C479.341 77.7554 479.418 77.6634 477.206 78.8033C474.228 80.0744 470.788 80.9346 467.094 81.1064C461.647 81.4079 455.808 80.072 450.433 77.437C450.726 77.5369 451.02 77.6334 451.313 77.7265C456.879 80.4894 462.702 80.8142 461.858 80.8668C463.072 81.0159 464.302 81.0935 465.52 81.0975C465.52 81.073 465.52 81.0485 465.52 81.024C466.039 81.0259 466.562 81.0146 467.088 80.9898C468.452 80.9239 469.709 80.7826 471.04 80.5406C471.044 80.5644 471.048 80.5883 471.053 80.6121C472.557 80.337 474.039 79.9399 475.474 79.4298C475.616 79.3541 475.754 79.2782 475.896 79.1997C480.704 78.3741 492.193 67.4673 487.159 72.2194C488.776 70.7855 490.298 69.2586 491.766 67.669C491.749 67.6628 491.731 67.6565 491.714 67.6503C492.351 66.9571 492.954 66.2797 493.567 65.5724C493.377 65.8138 493.186 66.0538 492.995 66.2924C495.795 63.0882 498.345 59.9381 500.029 57.7045C498.881 59.1561 497.728 60.6019 496.559 62.0219C498.816 59.2938 502.759 54.0864 503.123 53.6339C504.219 52.2287 504.823 51.5087 506.029 49.9997C507.124 48.6364 506.953 48.8144 507.159 48.5613C513.208 41.3533 511.028 44.2132 513.875 40.8601C514.213 40.5362 514.554 40.2146 514.897 39.8956C515.32 39.4386 515.75 38.9847 516.183 38.5377C518.175 36.5976 520.273 34.7525 522.481 33.0642C521.727 33.6088 520.99 34.1662 520.258 34.7449C523.466 32.0674 525.173 31.0933 525.499 30.856C526.456 30.2222 526.888 29.9225 527.186 29.7367C534.535 25.4324 536.402 25.3838 536.913 25.099C537.495 24.9499 537.037 25.0035 541.146 23.9288C544.07 23.1671 541.079 23.8347 540.664 23.9105C544.573 22.9517 545.846 22.7142 550.051 22.2921C550.849 22.2231 551.708 22.1818 552.397 22.1572C552.659 22.1476 552.893 22.1401 553.089 22.1332C553.718 22.1061 555.594 22.0445 557.029 22.0997C559.498 22.1783 562.676 22.488 565.926 23.2159C568.641 23.6416 576.709 26.4996 581.488 30.0197C583.551 31.4538 583.045 31.1539 583.571 31.535C583.79 31.6934 585.36 32.8639 586.583 33.911C596.607 42.4311 604.331 53.7013 614.768 61.7344C622.018 67.453 630.994 71.2111 640.211 72.1111C642.177 72.305 641.125 72.2156 641.976 72.2876C642.266 72.2959 642.616 72.3594 645.678 72.4339C646.757 72.447 645.513 72.4573 646.579 72.4618C647.061 72.4538 647.257 72.4682 649.683 72.361C649.923 72.3489 650.183 72.3349 650.464 72.318C656.013 71.9693 658.96 71.2224 659.479 71.1322C660.405 70.9207 660.139 70.971 661.332 70.6665C667.188 69.1177 671.863 66.7412 676.105 63.3671C678.716 62.3884 689.175 48.2096 689.334 47.1622C690.452 45.315 689.451 47.0587 690.862 44.6746C691.249 44.0014 691.633 43.3285 692.017 42.6532C691.39 43.7155 690.763 44.7758 690.127 45.8319C691.869 42.9218 693.771 39.5696 695.083 37.4238C695.316 37.0195 697.583 33.3905 698.867 31.6183C698.335 32.3813 697.819 33.1525 697.315 33.9313C697.499 33.6595 697.685 33.3888 697.872 33.1195C700.291 29.493 703.195 25.8374 706.592 22.9031C707.824 21.8614 707.415 22.2035 708.708 21.2132C716.725 16.1047 714.671 17.1133 723.529 14.7572C720.335 14.9183 710.025 19.7208 708.941 21.094C707.978 21.706 704.634 24.6349 705.896 23.5983C699.54 30.161 704.769 24.2131 699.453 30.8842C699.561 30.7521 699.67 30.6205 699.779 30.4893C698.019 32.8928 696.852 34.765 695.881 36.2877C695.526 36.787 690.538 45.5863 687.536 50.2463C683.315 57.0127 677.102 63.997 669.944 67.5323C667.516 68.7792 666.028 69.2622 665.706 69.395C665.254 69.5701 663.952 70.0513 662.972 70.3414C660.524 71.1709 654.289 72.3468 649.689 72.4869C647.66 72.5879 646.062 72.5808 645.233 72.5818C646.674 72.6103 648.158 72.5897 649.69 72.5168C660.073 72.099 670.539 68.9544 678.2 61.7756C685.928 54.7331 690.483 45.1322 695.92 36.3369C695.205 37.5432 697.629 33.2318 700.984 28.9627C704.261 24.6098 709.027 20.9766 709.51 20.7111C710.38 20.1069 709.656 20.6275 709.915 20.449C711.841 19.1287 713.65 18.1925 714.291 17.8813C714.779 17.6467 715.871 17.1141 717.714 16.4329C718.059 16.3071 718.152 16.2631 718.529 16.1333C721.035 15.2791 723.56 14.7003 726.16 14.3144C726.312 14.2913 727.018 14.2042 727.659 14.1299C728.299 14.0536 728.949 13.9788 729.116 13.964C729.803 13.9016 730.669 13.8384 731.615 13.795C733.537 13.7029 735.502 13.7231 736.893 13.7875C737.595 13.8212 737.111 13.785 737.892 13.8307C740.266 14.0159 739.48 13.9312 742.426 14.3291C743.406 14.4869 743.317 14.4338 745.208 14.821C746.527 15.1101 746.372 15.1137 746.579 15.1617C746.858 15.1791 751.33 16.4653 752.729 17.1059C749.623 15.9334 756.086 18.4642 755.758 18.3996C757.414 19.1875 759.041 20.0751 760.603 21.0303C761.143 21.3536 761.677 21.6853 762.204 22.0248C768.355 26.1814 771.683 29.3182 776.85 34.4646C777.111 34.7027 781.371 39.1417 781.162 38.9417C778.621 36.2791 776.046 33.6566 774.36 32.0107C771.512 29.3824 771.565 29.2148 766.691 25.2843C765.032 24.0038 764.891 23.9447 764.699 23.7988C758.3 18.5892 745.745 14.2511 740.172 14.0614C738.632 13.8727 744.158 14.5955 742.017 14.311C741.538 14.2306 736.71 13.5658 731.618 13.8552C723.998 14.0713 716.605 16.7969 721.704 15.2325C720.787 15.4656 719.944 15.7081 719.015 16.0124C718.095 16.2658 713.837 18.1218 714.319 17.9011C713.929 18.1009 713.553 18.3021 713.157 18.5237C712.379 18.9517 711.503 19.4506 710.293 20.2585C703.631 21.6381 687.662 51.0539 686.361 52.1943C686.348 52.2335 686.335 52.2726 686.322 52.3118C694.499 40.5276 699.346 25.6392 713.93 18.1841C713.531 18.3758 713.098 18.595 712.692 18.811C718.258 15.7143 724.542 14.3113 730.873 13.9458C724.134 14.0984 713.638 17.1631 708.238 21.8335C707.253 22.6122 707.966 22.0297 707.739 22.2083C707.16 22.6909 706.521 23.1712 704.608 25.0742C702.612 26.903 698.573 32.3528 698.278 32.9064C697.597 33.8876 695.886 36.6301 694.848 38.386C693.479 40.6878 694.382 39.1363 694.107 39.5984C692.974 41.515 691.986 43.2485 691.101 44.7509C689.81 46.9964 686.936 51.5469 685.904 53.038C686.964 51.5196 687.969 49.9639 688.942 48.3888C683.702 56.8744 678.503 63.2995 669.66 67.9032C667.679 69.008 674.963 65.1748 668.805 68.409C669.94 67.8712 671.076 67.2617 672.13 66.6268C672.38 66.4618 672.628 66.2939 672.873 66.1243C674.709 64.9727 676.444 63.6615 678.064 62.2195C677.593 62.627 677.116 63.0208 676.634 63.4008C682.644 58.5332 686.772 51.8166 688.253 49.6228C688.326 49.4821 688.399 49.3414 688.471 49.2005C692.185 43.1301 697.504 33.8958 696.587 35.6707C696.761 35.3855 696.939 35.0985 697.117 34.8137C699.482 31.2413 698.465 32.759 699.378 31.4331C699.53 30.9685 704.918 24.6243 702.537 27.4404C708.073 21.5156 706.478 23.4624 708.134 21.9568C712.074 18.4395 721.014 15.3905 717.332 16.7781C718.043 16.5076 718.776 16.2542 719.531 16.0189C721.921 15.234 724.368 14.7429 727.155 14.3928C728.077 14.2747 728.966 14.1845 729.91 14.1118C730.471 14.0579 731.042 14.0116 731.623 13.9733C731.691 13.9688 731.759 13.9644 731.827 13.9601C740.64 13.9234 737.824 13.9298 741.841 14.4302C741.221 14.3507 740.588 14.2816 739.957 14.2246C738.523 14.0817 737.009 13.9955 735.526 13.9726C741.475 14.071 747.487 15.2009 753.017 17.4389C759.966 20.4263 763.667 22.8618 770.078 28.3282C770.675 28.8455 771.266 29.3706 771.852 29.9022C771.235 29.3828 768.986 27.2981 773.18 31.1768C773.527 31.5173 770.707 28.8843 769.365 27.7499C769.046 27.4711 771.79 29.8101 768.71 27.1755C766.554 25.4644 770.545 28.4711 763.953 23.5185C764.2 23.6981 764.446 23.8795 764.691 24.0624C763.968 23.537 763.233 23.025 762.49 22.5321C761.835 22.0851 761.169 21.6501 760.493 21.2283C758.726 20.2227 757.773 19.5492 753.494 17.7006C754.647 18.1915 753.12 17.4603 750.92 16.6925C750.918 16.6996 750.915 16.7067 750.913 16.7138C745.592 15.0567 747.45 15.5611 742.89 14.6919C742.437 14.6124 741.98 14.5386 741.518 14.4708C739.521 14.1273 733.447 13.9511 731.63 14.1117C731.132 14.1329 730.983 14.1367 731.36 14.1069C728.655 14.2191 723.373 15.0191 721.332 15.6063C721.184 15.6544 721.037 15.7032 720.891 15.7526C719.892 16.0302 718.797 16.382 717.8 16.7535C717.234 16.9577 716.698 17.1644 716.12 17.4053C715.405 17.716 714.714 18.0447 714.044 18.3904C713.642 18.5836 713.208 18.8043 712.8 19.022C711.723 19.6361 710.701 20.2949 709.693 21.0225C709.073 21.4537 708.479 21.8953 707.881 22.3702C707.725 22.3153 702.354 27.5245 701.187 29.2916C700.807 29.7856 700.433 30.2882 700.069 30.7935C699.881 31.0332 699.695 31.2745 699.51 31.5172C699.246 31.8999 698.986 32.2857 698.73 32.6744C698.118 33.554 697.526 34.4444 696.943 35.3489C694.669 39.0858 694.604 39.2138 694.087 40.071C693.15 41.6691 689.999 47.1614 689.424 48.0544C688.871 48.9568 688.584 49.3813 688.124 50.102C680.093 61.7026 683.192 56.7963 681.495 59.057C680.47 60.1937 679.688 60.9571 678.702 61.8809C677.299 63.8678 667.157 69.8238 666.327 69.6975C665.405 70.0399 667.511 69.1793 664.573 70.267C664.509 70.459 657.917 72.1027 661.013 71.3901C658.257 72.0802 655.475 72.5156 652.729 72.7683C652.924 72.783 651.691 72.9207 649.714 73.0137C648.536 73.0689 647.157 73.0995 645.779 73.087C640.428 73.4745 628.583 70.5274 629.156 70.3668C627.917 69.9602 626.725 69.5138 625.551 69.0207C617.464 65.5147 610.776 59.8346 604.772 53.6522C591.352 38.6807 574.564 20.4514 552.437 23.0031C547.403 23.2438 542.484 24.1256 537.876 25.6933C536.743 26.0855 536.905 26.0022 536.08 26.3122C531.641 27.6319 521.548 34.1165 517.119 38.8497C515.641 40.2834 514.934 41.0011 514.481 41.4718C512.957 43.0878 513.348 42.7372 512.659 43.4931C511.527 44.6433 506.066 51.2364 504.281 53.5985C503.383 54.7487 502.344 56.1468 501.289 57.4916C501.198 57.6073 501.339 57.3729 501.263 57.471C499.335 59.9439 500.514 58.4726 499.862 59.3071C495.185 65.2063 490.09 71.6815 483.196 76.4187C481.505 77.6069 478.689 79.0926 477.027 79.7331C476.393 79.9755 477.546 79.5949 475.342 80.3885C474.579 80.6419 474.307 80.6925 473.423 80.9308C470.589 81.6441 469.136 81.8296 467.134 81.9464C466.468 81.9763 465.751 81.9826 464.915 81.9431C458.279 82.261 447.703 77.5994 443.005 74.1284C441.865 73.3635 441.311 72.947 440.25 72.1788C439.504 71.6386 438.147 70.6594 437.02 69.768C435.874 68.8666 434.114 67.3972 431.991 65.5775C429.755 63.667 427.019 61.2464 426.53 60.8114C425.935 60.2812 425.685 60.0025 425.089 59.47C423.292 57.861 418.452 53.5945 416.077 51.6081C413.537 49.4607 411.983 48.2081 411.092 47.5065C410.267 46.8571 409.269 46.143 408.885 45.8562C408.288 45.4096 408.173 45.2703 407.407 44.7125C406.151 43.8049 404.837 42.906 402.89 41.6501C393.044 35.204 381.518 31.2492 369.857 31.9341C337.482 32.4765 326.277 67.7842 301.973 84.358C298.015 86.7622 295.707 88.2276 289.033 89.9706C286.314 90.5614 287.468 90.2684 285.308 90.6301C284.341 90.7665 284.61 90.7805 283.398 90.9109C282.681 90.983 281.936 91.0388 281.174 91.0756C276.344 91.3785 271.343 90.3917 269.409 89.8164C268.504 89.5639 267.481 89.33 265.682 88.6356C252.007 83.4304 241.853 69.315 232.161 58.2438C227.052 52.2819 218.63 43.6688 210.546 39.8857C204.436 36.8182 197.467 35.4289 190.425 35.8057C171.601 36.1192 157.824 51.1151 148.358 64.1009C136.869 79.4345 123.954 99.3563 101.983 99.9934C86.5593 101.091 73.0144 91.5947 62.8169 81.4608C71.4526 90.2268 85.8913 101.4 101.988 100.107C106.427 99.9002 110.729 98.9568 114.57 97.4221C146.38 83.4578 153.276 37.1804 190.43 35.9265C210.696 34.1352 225.845 50.338 237.861 65.1359C247.276 76.548 262.019 92.9456 281.182 91.2326C284.829 91.0574 288.329 90.4531 291.66 89.4214C292.567 89.1449 294.403 88.4826 296.265 87.6416C296.694 87.534 301.467 85.0844 302.915 83.9942C301.466 84.8942 307.283 80.9088 308.821 79.3631C310.884 77.5713 314.886 73.5052 318.966 68.6712C322.67 64.2847 321.668 65.5193 321.878 65.2798C323.176 63.7198 323.562 63.1294 324.533 61.9215C326.567 59.5118 332.407 51.688 339.769 45.0146C347.029 38.1342 356.655 34.1662 361.005 33.3217C363.276 32.7953 363.31 32.8782 363.826 32.776C365.191 32.5355 367.082 32.2293 369.313 32.0972C369.495 32.0863 369.678 32.0764 369.863 32.0675C373.737 31.8484 377.947 32.2852 380.02 32.6343C385.213 33.2283 394.674 36.6145 400.469 40.2948C402.118 41.2884 401.988 41.2714 402.724 41.7368C406.021 43.7012 413.976 49.8327 417.561 53.0344C423.465 58.1171 429.304 63.6866 435.513 68.717C435.899 69.0514 436.285 69.3826 436.672 69.7104C437.31 70.1935 437.945 70.6646 438.602 71.1408C446.629 77.3029 456.498 82.6905 467.139 82.0535C470.535 81.8884 473.864 81.1614 476.964 79.9029C478.55 79.5349 485.188 75.4131 486.075 74.4386C486.907 73.7614 487.688 73.0486 488.854 71.9669C490.451 70.436 489.042 71.9637 491.558 69.3586C492.222 68.6447 491.558 69.3246 492.881 67.8679C493.43 67.4861 501.244 57.7565 501.602 57.1972C502.284 56.3217 502.943 55.5715 503.121 55.344C504.039 54.1708 503.961 54.1926 504.573 53.3995C506.37 51.0557 508.818 48.0895 509.129 47.7247C512.71 43.187 520.227 35.378 525.321 32.1179C526.008 31.6479 525.947 31.7349 526.068 31.6534C526.857 31.1344 527.332 30.7871 528.093 30.3216C532.154 27.7046 539.272 24.9336 544.065 24.0937C544.607 23.9824 545.742 23.7522 546.739 23.6066C552.334 22.9051 550.533 23.2455 550.847 23.183C551.226 23.1558 551.749 23.1122 552.44 23.0706C553.148 23.0284 554.011 22.9894 555.025 22.9834C560.245 22.7008 570.187 24.605 575.117 27.3241C578.837 29.2056 578.707 29.3447 578.953 29.4561C579.448 29.7647 580.869 30.5766 583.083 32.2221C587.284 35.4782 586.725 35.213 588.369 36.6545C588.502 36.7833 588.296 36.5288 590.061 38.2085C593.508 41.4057 600.544 49.3675 604.093 53.0128C605.454 54.4156 605.79 54.7283 607.222 56.1295C609.433 58.4159 614.998 62.9884 615.509 63.2546C615.638 63.3476 615.939 63.5432 616.708 64.079C617.549 64.6642 618.393 65.2271 619.049 65.634C622.701 68.1131 629.812 70.6878 627.823 70.0146C629.172 70.4952 630.472 70.8934 631.848 71.2527C637.738 72.8816 643.753 73.3335 649.715 73.0378C652.814 72.8831 655.797 72.5364 658.734 71.9401C660.804 71.5141 662.35 71.1095 664.046 70.5589C665.71 70.2225 672.603 66.8506 673.566 65.9752C675.829 65.1477 684.754 55.7994 685.378 54.2629C687.207 51.7399 688.808 49.1801 689.463 48.0983C689.984 47.229 689.49 48.0252 690.478 46.3635C692.178 43.48 695.026 38.5765 695.569 37.7187C695.803 37.3527 695.332 38.0144 697.51 34.5815C698.7 32.7452 699.4 31.7979 699.862 31.1554C700.029 30.9742 699.696 31.1792 702.432 27.8348C704.372 25.5651 705.343 24.7416 705.56 24.5155C705.905 24.1912 706.693 23.391 708.171 22.2097C711.494 19.2601 718.96 15.9617 723.116 15.2648C723.953 15.104 723.564 15.0808 726.816 14.5926C729.111 14.3018 728.687 14.3901 729.554 14.3059C730.114 14.2589 730.794 14.2063 731.632 14.1619C732.835 14.099 734.292 14.0534 736.051 14.1006C737.987 14.1082 746.095 14.5825 753.291 17.6649C760.513 20.5624 766.357 25.3962 766.927 25.8227C767.703 26.4362 768.586 27.1691 768.956 27.4906C768.631 27.2241 768.304 26.9602 767.975 26.6989C764.586 23.9714 765.931 25.1033 765.014 24.4025C763.713 23.3369 758.38 20.0038 756.969 19.404C756.48 19.1718 757.606 19.6993 754.967 18.4666C752.125 17.2056 750.776 16.7758 749.602 16.427C745.391 15.0686 741.118 14.4945 746.177 15.5015C747.546 15.7725 755.153 17.7793 761.916 22.3355C768.745 26.7348 774.721 32.8742 776.757 34.8977C780.07 38.1963 786.012 44.6677 790.177 48.6609C792.532 51.1153 799.068 56.3613 798.841 56.0825C801.3 57.8301 798.701 55.9766 799.219 56.34C800.171 57.2999 808.438 61.9093 810.244 62.2394C814.715 63.8683 820.193 64.7015 825.531 64.4032C830.087 64.1916 834.495 63.1407 838.14 61.6725C837.771 61.8224 837.4 61.967 837.026 62.1063C835.333 63.007 826.96 64.5815 825.532 64.4266C825.497 64.4287 825.466 64.4305 825.44 64.432C825.471 64.4305 825.502 64.429 825.532 64.4275C838.832 64.0186 850.235 55.7578 858.837 46.2661C858.794 46.5496 869.194 34.2607 869.636 33.6433C869.458 33.8626 869.28 34.0821 869.103 34.3016C863.295 41.2922 863.844 40.6985 859.771 45.2523C858.091 47.0816 858.599 46.5307 857.757 47.4248C849.049 55.9798 857.772 47.7179 850.806 53.9565C852.982 52.1592 847.115 57.1311 844.068 58.7692C843.533 59.448 834.059 63.4782 832.732 63.4264C830.738 63.9045 828.264 64.3135 825.533 64.4483C819.231 64.8854 812.079 63.3124 807.73 61.2925C802.829 59.0669 800.356 57.3595 796.512 54.3733C793.639 52.0268 794.489 52.6847 793.173 51.5381C790.466 49.0921 789.613 48.2493 787.979 46.5762C786.235 44.8339 784.522 43.0534 782.814 41.2724C782.818 41.2682 782.823 41.2641 782.827 41.2599C781.76 40.1421 780.689 39.0181 779.617 37.9056C779.297 37.5821 778.976 37.259 778.654 36.9365C775.229 33.4253 776.665 34.8845 776.035 34.2189C775.286 33.4704 774.53 32.7284 773.766 31.9957C773.164 31.4395 772.558 30.8893 771.945 30.3464C768.47 27.1535 764.784 24.1845 760.781 21.7151C760.526 21.5492 760.268 21.3849 760.012 21.2243C760 21.2254 759.988 21.2265 759.976 21.2276C753.156 17.1279 745.329 14.7514 737.412 14.3866C735.334 14.0331 747.946 15.6226 748.786 16.3249C754.182 17.2937 766.237 25.1535 766.052 25.4152C768.816 27.3174 776.154 34.277 778.28 36.6059C774.947 33.1836 771.527 29.8459 767.841 26.8363C767.955 26.9398 768.068 27.0435 768.182 27.1475C763.565 23.4473 762.865 22.8822 757.551 19.9547C757.552 19.9418 757.552 19.9289 757.553 19.9161C753.851 17.8124 746.666 15.6335 746.44 15.7353C744.245 15.2046 742.056 14.8372 739.781 14.6109C735.905 14.396 740.037 14.3415 731.647 14.4769C729.614 14.5887 726.983 14.7787 723.517 15.503C722.213 15.7957 722.457 15.7009 720.593 16.22C720.109 16.4321 716.772 17.0612 711.52 20.2767C710.717 20.7905 710.634 20.8281 709.819 21.4021C707.893 22.6775 704.607 25.9355 706.09 24.4507C699.732 31.0695 702.505 28.4548 700.691 30.6508C699.574 32.1931 699.778 31.8673 698.847 33.2367C697.75 34.9662 698.465 33.6191 694.257 40.709C694.722 39.9067 695.19 39.1082 695.662 38.3158C695.417 38.7099 695.173 39.1055 694.929 39.5024C692.567 43.5781 692.777 43.1911 691.692 45.138C689.925 48.0903 688.438 50.6851 685.686 54.5556C679.906 61.7352 683.381 58.5902 675.208 65.3642C673.841 66.3703 672.355 67.3176 670.859 68.1356C668.282 69.4098 670.422 68.4343 666.502 70.0971C669.634 68.9717 661.255 72.0944 659.749 72.2384C659.59 72.2618 659.431 72.2846 659.271 72.3067C658.302 72.5128 657.461 72.6678 656.518 72.8189C656.517 72.8288 656.516 72.8387 656.514 72.8486C655.272 73.04 653.995 73.1915 652.792 73.2995C651.868 73.3978 650.922 73.4781 649.952 73.5397C649.881 73.5426 649.81 73.5454 649.739 73.548C648.217 73.6055 646.74 73.6118 645.306 73.5701C644.336 73.5539 643.332 73.5134 642.375 73.4509C642.678 73.4851 642.984 73.517 643.292 73.5466C642.026 73.4799 640.862 73.3843 639.568 73.2337C641.054 73.3899 640.047 73.436 636.256 72.8087C633.069 72.1305 636.617 73.0691 629.926 71.2301C629.509 71.0191 628.523 71.125 622.618 68.2937C615.747 64.5061 619.129 66.2564 617.916 65.5653C617.684 65.4205 615.668 64.1237 613.899 62.7544C612.891 61.9845 611.961 61.1898 611.833 61.0833C611.233 60.5827 611.044 60.4555 610.227 59.7437C608.153 57.9413 605.534 55.3602 603.683 53.4369C602.838 52.5646 602.046 51.7452 601.675 51.352C601.101 50.7422 600.391 49.9496 599.817 49.3298C597.694 47.0335 594.441 43.6288 593.51 42.5292C591.418 40.4032 586.969 36.0975 587.24 36.4767C584.349 33.8128 578.589 29.3707 572.954 27.0931C567.358 24.6992 562.272 24.1915 562.609 24.1482C558.187 23.6871 558.642 23.7767 556.738 23.6815C554.707 23.6533 555.768 23.6796 554.122 23.6995C553.576 23.7116 553.027 23.7314 552.473 23.759C549.141 23.9291 546.041 24.3381 542.828 25.0852C543.406 24.9327 544.016 24.7848 544.588 24.6556C540.636 25.5248 542.026 25.1874 538.109 26.4306C531.108 29.1252 534.098 28.0637 533.041 28.4259C533.242 28.1878 525.558 32.5984 524.925 33.2915C524.504 33.6305 526.306 32.0851 522.031 35.47C522.272 35.2949 522.515 35.1214 522.758 34.9497C520.739 36.4037 515.884 41.1442 515.129 42.0248C514.762 42.4019 512.721 44.3841 511.125 46.4552C510.907 46.6831 510.691 46.9117 510.475 47.1411C508.627 49.3771 506.845 51.6698 505.073 53.9895C504.761 54.3372 504.449 54.6849 504.138 55.0323C503.576 55.7594 503.002 56.5043 502.437 57.237C502.836 56.7679 503.237 56.2975 503.638 55.8262C500.161 60.3774 495.75 65.9067 494.847 66.721C494.045 67.6768 493.233 68.6123 492.386 69.5432C491.802 70.1141 491.219 70.6672 490.609 71.2256C486.405 75.2521 486.265 75.2751 482.975 77.6096C483.092 77.5002 483.209 77.3902 483.325 77.2795C480.927 79.02 475.943 81.5524 471.619 82.2959C470.329 82.5566 468.554 82.7593 467.175 82.8105C466.34 82.8462 465.709 82.8403 465.523 82.842C465.04 82.9381 460.186 82.6608 459.7 82.344C452.695 80.9768 450.023 79.1598 447.5 77.9147C445.878 77.0282 445.146 76.6371 443.389 75.5232C440.895 73.9295 438.532 72.139 437.184 71.0976C436.422 70.5088 436.261 70.421 435.737 70.0065C433.268 68.0187 434.736 69.1806 432.18 67.0472C431.946 66.8514 430.071 65.3142 428.042 63.5184C426.896 62.5104 424.008 59.8743 423.748 59.6422C422.608 58.6311 423.459 59.4977 419.623 55.9661C419.725 56.0794 419.827 56.1926 419.928 56.3059C415.052 52.0892 414.299 51.4303 413.308 50.5925C413.181 50.4862 411.952 49.5235 411.224 48.9428C409.995 47.9598 409.516 47.5449 409.241 47.3309C408.276 46.5697 404.945 44.1436 402.705 42.6689C403.156 42.9845 395.079 38.2702 393.18 37.4688C391.662 36.8208 390.13 36.2409 388.568 35.7308C387.872 35.4653 387.181 35.2174 386.477 34.9819C386.038 34.8756 385.597 34.7749 385.155 34.6801C382.875 34.01 380.545 33.5013 378.174 33.1678C378.015 33.2025 377.857 33.2379 377.699 33.2742C377.041 33.1968 376.388 33.1335 375.723 33.0829C375.207 33.006 374.686 32.9371 374.16 32.8764C373.319 32.8554 372.507 32.8561 371.667 32.8773C371.461 32.9113 371.254 32.9467 371.047 32.9834C370.611 32.9992 370.237 33.0155 369.909 33.0302C366.876 33.3113 367.906 32.5581 360.459 34.4683C359.194 34.7757 357.906 35.1527 356.665 35.5798C355.313 36.1862 352.714 37.2214 350.742 38.3354C349.367 39.1187 349.448 39.107 347.622 40.2733C345.814 41.4754 345.867 41.425 345.725 41.5164C344.281 42.5521 343.258 43.4276 342.248 44.2629C342.097 44.3919 341.674 44.6546 340.424 45.772C339.18 46.9021 338.482 47.632 336.714 49.4203C335.815 50.3411 335.525 50.5814 334.741 51.4216C331.019 55.4313 327.738 59.9464 324.879 63.0048C324.323 63.755 320.112 69.1704 318.137 71.3947C315.078 74.8464 316.197 73.471 314.95 74.8165C314.758 74.9972 313.861 76.0895 311.021 78.7931C310.509 79.2725 310.649 79.1848 310.576 79.254C307.341 82.4684 299.867 87.7289 294.958 89.4354C294.534 89.5818 292.339 90.67 288.304 91.421C286.432 91.8556 284.005 92.2331 281.236 92.3606C275.382 92.7405 268.293 91.3119 263.32 89.0612C262.3 88.6101 261.122 87.9596 260.693 87.7255C257.115 85.5684 257.999 86.8047 250.893 80.709C251.432 81.2468 249.71 79.8658 247.536 77.7135C244.306 74.4419 246.658 76.7048 244.123 74.0365C244.101 74.0568 244.079 74.0771 244.057 74.0974C238.447 67.8179 237.402 66.5233 231.989 60.2541C230.056 57.9951 227.16 54.7445 226.669 54.2498C226.492 54.0461 224.19 51.8112 223.967 51.6128C222.738 50.4204 222.05 49.7376 220.953 48.7659C217.348 45.4705 212.422 42.61 213.39 43.0069C212.254 42.354 211.089 41.7505 209.909 41.21C205.572 38.8436 201.876 38.3629 200.921 37.9598C200.067 37.8203 199.2 37.7084 198.317 37.6254C195.757 37.2684 193.171 37.167 190.496 37.2996C171.196 37.6446 157.669 53.565 146.468 69.208C146.018 69.9599 140.088 77.8211 139.709 78.2011C138.204 79.9998 139.686 77.9892 136.643 81.7068C136.348 82.154 136.055 82.5943 135.749 83.0434C131.709 87.5789 133.593 85.3624 131.905 87.0741C131.197 87.7939 131.473 87.5987 130.483 88.5599C125.629 94.1934 111.08 102.019 102.425 101.638C102.293 101.646 102.172 101.653 102.062 101.658C100.739 101.71 100.925 101.652 100.437 101.663C99.0067 101.691 96.1285 101.679 93.2575 101.204C74.229 98.8108 57.8436 78.5225 46.3294 67.2209C45.5299 66.4282 45.473 66.2886 44.9317 65.7593C44.1831 65.0238 42.4464 63.4533 41.64 62.7178C40.8779 62.018 40.4169 61.5427 39.5926 60.8173C35.8314 57.4666 30.3936 53.5469 25.7754 51.1329C25.4232 50.8511 20.4931 48.5107 20.352 48.5287C19.6749 48.2528 24.4191 49.4602 16.7786 47.0545C23.6411 49.1168 21.7944 47.5663 12.5409 45.7765C17.2193 46.3789 21.7809 47.8132 26.0538 49.9086C26.0717 49.8881 26.0896 49.8675 26.1075 49.847C22.2736 47.8515 18.2176 46.1343 11.6768 45.3113C11.8821 45.3099 12.0811 45.3091 12.2941 45.3117C18.1441 45.8383 24.7908 48.4707 28.7513 50.6042C23.0816 47.2443 16.7269 45.0079 10.1426 44.3961C10.4741 44.4021 10.8042 44.4118 11.1328 44.4251C14.3278 44.5399 21.072 46.322 23.4901 47.4209C28.1408 49.407 26.1646 48.4286 23.3198 47.192C20.4781 45.9572 16.6085 44.9982 18.137 45.3376C28.5668 48.1295 37.4114 54.8834 45.1859 62.2735C45.3118 62.4568 38.1602 54.8832 29.2224 49.7328C20.3587 44.2717 9.73484 43.4676 10.03 43.4148C13.4016 43.6439 16.8209 44.2834 20.0628 45.2957C18.6339 44.7789 17.1707 44.3324 15.6832 43.9633C16.0914 44.0272 16.5167 44.101 16.9328 44.1791C22.595 45.4571 27.9444 47.9025 32.8141 51.0257C17.7201 41.5559 8.39878 43.0318 4.34553 42.4255C4.83899 42.3899 5.32915 42.3619 5.81606 42.3412C9.73327 41.6793 27.8926 45.8011 35.3425 52.3145C33.8892 50.981 26.4872 46.7774 24.7727 46.1786C24.3106 45.9598 25.9673 46.6186 24.8956 46.1139C22.2639 44.2651 9.13646 41.8178 11.0483 42.2141C11.62 42.2241 17.3972 42.7358 23.0321 44.9345C28.7209 47.0216 34.0362 50.6109 35.6947 51.8189C27.9503 46.0409 18.1604 41.9514 8.19504 41.5883C14.3613 41.7551 20.3935 42.1032 30.4598 47.5977C31.9765 48.4632 27.6396 45.5797 22.2175 43.6182C16.8278 41.5388 10.4856 40.9605 10.2216 40.9393C14.4517 41.1959 18.6922 42.0547 22.7132 43.4619C19.308 42.2366 15.7956 41.4064 12.186 40.9956C12.178 40.9742 12.17 40.9527 12.162 40.9312C21.4892 41.9585 29.7588 45.4797 38.1026 51.7658C37.9349 51.4517 32.7842 47.7993 30.0159 46.3879ZM811.556 62.7565C811.735 62.8497 808.208 61.6549 806.336 60.6975C806.619 60.8351 806.903 60.9697 807.189 61.1011C803.001 59.4264 796.34 54.3698 796.146 54.1451C793.684 52.1193 794.795 52.9973 794.014 52.3314C793.703 52.0805 790.6 49.3124 788.287 46.9522C787.726 46.393 787.178 45.8394 786.626 45.2772C786.514 45.1742 786.402 45.0711 786.29 44.9678C785.528 44.1739 784.778 43.3821 784.027 42.5841C791.881 50.7582 800.374 59.2543 811.539 62.7513C811.545 62.753 811.55 62.7548 811.556 62.7565ZM715.029 18.3054C711.238 19.9166 706.449 24.0321 707.456 23.2483C709.429 21.5613 711.539 20.1182 713.852 18.9047C714.239 18.698 714.629 18.4993 715.029 18.3054ZM378.653 33.14C375.99 32.7392 373.492 32.6065 369.897 32.7808C368.981 32.8292 368.015 32.9025 366.99 33.0114C366.999 33.0301 367.008 33.0487 367.016 33.0674C367.67 32.9812 368.673 32.8784 369.899 32.8138C372.549 32.656 376.003 32.7909 378.653 33.14ZM894.013 10.4138C894.677 10.0319 895.349 9.66636 896.032 9.31827C893.284 10.7835 892.798 11.0619 889.905 13.0694C889.733 13.1929 889.794 13.1509 889.734 13.1941C889.036 13.6976 888.4 14.1786 887.787 14.6615C886.618 15.5931 885.656 16.3704 883.702 18.1623C882.197 19.5663 882.192 19.5925 881.676 20.0943C881.212 20.4993 876.988 24.91 874.453 27.9165C872.055 30.7801 875.806 26.0592 880.887 20.8798C885.868 15.5948 892.974 10.8706 894.013 10.4138ZM915.155 4.88103C914.411 4.87326 913.722 4.88171 912.951 4.9109C915.198 4.86295 910.683 4.86422 907.426 5.49013C907.521 5.35928 914.418 4.60091 917.589 4.97157C916.765 4.9196 915.953 4.88968 915.155 4.88103ZM842.746 59.4815C845.271 58.0457 844.833 58.2543 844.74 58.3339C843.952 58.8204 843.151 59.2838 842.336 59.7212C842.473 59.6421 842.61 59.5621 842.746 59.4815ZM859.437 45.5872C858.862 46.2709 854.501 50.8241 852.209 52.7447C852.109 52.8268 852.732 52.3002 851.13 53.665C850.695 54.1439 845.666 57.8358 846.757 57.0019C851.459 53.7625 855.59 49.7798 859.431 45.5934C859.433 45.5913 859.435 45.5893 859.437 45.5872ZM863.638 40.8242C862.872 41.7254 862.095 42.6272 861.315 43.5135C860.91 43.9675 860.496 44.4265 860.083 44.8786C860.992 43.8732 861.875 42.8676 862.757 41.8437C863.052 41.5045 863.347 41.1633 863.638 40.8242ZM137.884 78.8825C138.091 78.6926 138.297 78.502 138.504 78.3105C139.218 77.4887 142.25 73.23 141.216 74.5225C140.129 75.9848 139.018 77.4463 137.884 78.8825ZM121.586 94.2197C120.629 94.8052 119.643 95.3579 118.644 95.8656C117.539 96.5357 116.383 97.1629 115.214 97.7242C120.53 95.6572 125.277 91.9063 124.38 92.3435C125.413 91.5759 126.398 90.783 127.367 89.9492C126.592 90.7032 126.779 90.6745 129.268 88.4751C129.723 87.8961 132.267 85.5631 134.797 82.6152C132.923 84.739 130.961 86.7897 128.838 88.7266C128.824 88.7109 128.81 88.6951 128.795 88.6794C133.377 84.2532 127.744 89.8068 124.369 92.2981C124.087 92.4721 123.804 92.6431 123.519 92.8109C122.888 93.2958 122.245 93.7652 121.586 94.2197ZM486.151 74.6377C485.53 75.1248 484.9 75.5933 484.259 76.0414C481.842 77.9149 486.944 74.3276 490.074 71.2474C489.01 72.2296 493.668 67.43 493.849 67.112C493.323 67.6616 492.789 68.2069 492.243 68.7499C490.362 70.8174 488.333 72.834 486.151 74.6377ZM465.534 82.2199C466.909 82.214 464.21 82.4505 460.652 81.9126C457.074 81.4267 452.837 79.8662 450.819 78.8988C449.824 78.4525 448.116 77.5245 447.434 77.1465C447.01 76.9318 446.586 76.7107 446.164 76.4835C445.648 76.2625 438.394 71.4507 435.803 69.2489C435.566 69.0306 435.329 68.8111 435.092 68.5904C434.135 67.821 433.176 67.0307 432.225 66.2326C432.356 66.3158 432.49 66.401 432.623 66.4857C431.892 65.8999 431.172 65.3156 430.446 64.7199C427.661 62.3262 429.447 63.7331 427.355 61.934C425.041 59.9333 428.744 63.3173 428.646 63.2859C430.512 64.9316 434.825 68.5734 436.852 70.1318C438.013 70.998 436.581 70.1651 441.761 73.75C442.881 74.5486 444.04 75.3301 445.212 76.0657C447.41 77.3582 449.701 78.5264 452.074 79.4806C452.506 79.6926 452.942 79.8971 453.38 80.0936C453.593 80.3036 459.363 81.8546 459.079 81.6645C460.742 82.0447 463.687 82.5155 467.153 82.3433C468.642 82.2713 470.103 82.1039 471.662 81.796C472.157 81.6821 472.645 81.5565 473.125 81.4197C468.167 82.4908 471.532 81.7414 470.05 81.979C469.516 82.0484 468.273 82.1784 467.147 82.2114C466.49 82.2338 465.895 82.2301 465.534 82.2199ZM158.879 52.094C153.549 58.1872 156.74 54.2997 151.222 61.1686C151.649 60.7194 152.078 60.2732 152.508 59.8303C155.058 56.3095 159.928 51.1876 158.885 52.0879C158.883 52.09 158.881 52.092 158.879 52.094ZM90.3379 99.5998C95.1902 100.524 92.7606 100.195 99.001 100.554C99.0039 100.554 99.0068 100.555 99.0098 100.555C95.7741 100.479 92.5519 100.012 89.432 99.1607C89.7307 99.3104 90.0326 99.4568 90.3379 99.5998ZM316.131 72.502C319.165 69.0966 318.538 69.7409 321.235 66.6195C325.042 61.8215 321.772 65.8455 321.708 65.792C320.842 66.8864 319.961 67.9874 319.075 69.0722C316.801 71.616 318.877 69.129 318.867 69.1258C318.865 69.128 318.863 69.1302 318.862 69.1323C318.841 69.1165 318.915 69.0276 318.05 70.0134C317.417 70.8505 316.784 71.6749 316.131 72.502ZM328.447 57.5269C327.508 58.7537 327.112 59.3196 329.731 56.2334C329.733 56.2313 329.735 56.2291 329.737 56.227C329.85 55.8948 332.44 53.0097 333.626 51.7125C333.927 51.3624 334.229 51.0141 334.534 50.6668C332.441 52.8766 330.427 55.1832 328.447 57.5269ZM386.267 34.1025C386.245 34.2264 383.041 33.2981 387.513 34.7358C388.377 35.0091 389.245 35.3089 390.099 35.6278C390.669 35.8142 391.236 36.0097 391.8 36.2143C397.114 38.5543 400.304 40.627 400.225 40.4858C400.089 40.504 396.849 37.7515 387.544 34.6407C387.541 34.64 387.538 34.6392 387.536 34.6385C387.116 34.4548 386.694 34.2761 386.267 34.1025ZM366.042 32.5261C365.91 32.6086 365.763 32.6937 365.626 32.7783C363.056 32.9953 359.848 33.6786 355.158 35.4025C354.743 35.5902 354.333 35.7837 353.927 35.9826C353.064 36.2915 348.477 38.4835 345.002 41.0947C341.492 43.6479 338.906 46.2143 340.415 44.8922C341.729 43.7403 344.688 41.3673 344.968 41.1986C345.866 40.5533 347.076 39.7762 348.664 38.8119C349.581 38.2494 351.521 37.0725 353.516 36.1867C357.206 34.4327 363.919 32.6649 369.88 32.4126C371.082 32.3416 372.226 32.3092 373.288 32.3004C373.741 32.3278 374.214 32.362 374.681 32.4028C379.439 32.7386 377.895 32.5037 382.255 33.3451C384.521 33.4711 374.136 31.745 369.874 32.281C368.24 32.3618 367.543 32.415 368.742 32.2481C368.739 32.2483 368.736 32.2485 368.733 32.2487C367.818 32.3178 366.921 32.4107 366.042 32.5261ZM253.616 81.941C253.372 81.7406 248.978 77.9363 250.107 78.7256C248.691 77.4851 247.306 76.1804 245.968 74.8586C245.967 74.8794 245.966 74.9002 245.965 74.921C247.264 76.265 248.611 77.594 249.992 78.8615C249.981 78.8839 249.971 78.9062 249.96 78.9285C251.84 81.0428 261.656 87.7369 261.481 87.3667C262.063 87.6326 262.651 87.8851 263.245 88.1235C268.407 90.5917 273.381 91.6481 279.591 91.7061C280.074 91.6724 280.562 91.6302 281.052 91.5794C281.101 91.5806 281.15 91.5817 281.199 91.5828C281.471 91.5887 281.741 91.5922 282.011 91.5934C284.271 91.4454 286.529 91.1245 288.707 90.6304C295.008 88.9038 284.959 91.6149 281.192 91.4532C280.672 91.4769 280.281 91.4865 280.072 91.493C279.842 91.4955 279.869 91.5738 278.438 91.5678C277.201 91.5681 272.883 91.3827 268.601 90.0823C264.284 88.8569 260.166 86.5284 258.317 85.3407C258.307 85.2863 258.297 85.2319 258.286 85.1775C256.671 84.1874 255.109 83.0939 253.616 81.941ZM409.039 46.4022C409.266 46.6142 409.493 46.8271 409.719 47.0408C413.963 50.2807 416.473 52.5548 415.501 51.5736C415.498 51.5718 415.496 51.57 415.494 51.5682C413.381 49.7911 411.236 48.0585 409.039 46.4022ZM734.649 14.1881C734.555 14.1754 733.419 14.1502 731.636 14.2376C730.723 14.2828 729.681 14.3584 728.596 14.4759C728.752 14.4666 728.91 14.4579 729.067 14.4497C729.768 14.3762 730.551 14.3135 731.637 14.2627C733.197 14.2003 735.128 14.1265 738.305 14.3296C738.306 14.3184 738.306 14.3073 738.307 14.2962C737.1 14.2187 735.83 14.1829 734.649 14.1881ZM405.322 43.6904C404.023 42.7086 400.108 40.3949 402.632 41.9958C404.555 43.2353 406.022 44.2081 405.322 43.6904ZM73.1218 91.1353C74.1265 91.8794 75.1555 92.6002 76.2108 93.2907C76.7878 93.6079 77.3644 93.9122 77.9532 94.2106C77.9507 94.2091 77.9482 94.2076 77.9456 94.2061C76.2906 93.2606 74.6732 92.2216 73.1218 91.1353ZM304.631 83.2106C308.06 80.7035 311.155 77.8081 314.031 74.7691C314.044 74.7242 314.058 74.6793 314.072 74.6344C311.231 77.7288 309.87 78.7761 309.145 79.4332C309.148 79.4303 309.151 79.4274 309.155 79.4245C306.784 81.5191 304.377 83.3616 301.814 84.9523C302.772 84.4037 303.712 83.8207 304.631 83.2106ZM291.609 89.6987C292.293 89.5569 293.399 89.6602 299.195 86.5722C298.957 86.6794 298.719 86.7845 298.479 86.8875C295.472 88.4468 293.572 89.0765 294.113 88.8095C293.296 89.1305 292.441 89.4337 291.609 89.6987ZM339 46.0852C338.386 46.5194 334.255 50.8225 334.517 50.6275C334.563 50.4799 340.088 45.1106 339 46.0852ZM774.792 32.8959C773.8 31.9236 772.795 30.9654 771.771 30.0273C773.137 31.2697 774.473 32.5483 775.787 33.8481C775.457 33.5293 775.125 33.2118 774.792 32.8959ZM785.466 43.8219C786.157 44.5322 783.872 42.2563 788.028 46.4967C784.977 43.4322 782.034 40.2685 779.034 37.1675C780.444 38.6183 781.844 40.0857 783.243 41.5446C783.006 41.2836 782.768 41.0224 782.531 40.7609C783.503 41.7794 784.487 42.8093 785.466 43.8219ZM788.707 47.1482C787.014 45.5498 795.904 53.9998 796.955 54.5502C797.152 54.7098 798.103 55.461 798.464 55.728C796.972 54.6224 795.527 53.4453 794.134 52.2327C794.6 52.6441 795.064 53.0456 795.542 53.4491C793.872 52.0647 792.261 50.6076 790.69 49.1095C791.366 49.7485 792.046 50.3766 792.734 50.9942C791.365 49.7497 790.021 48.4558 788.707 47.1482ZM750.878 16.8141C752.348 17.3255 753.748 17.8908 755.159 18.5381C754.883 18.4003 754.605 18.2647 754.325 18.1314C753.487 17.7658 752.638 17.4231 751.769 17.1021C751.474 17.0034 751.173 16.9062 750.878 16.8141ZM776.473 34.5145C774.865 32.9399 770.496 28.6384 775.624 33.6446C776.134 34.155 776.626 34.6628 776.473 34.5145ZM800.671 57.2682C804.776 59.8194 803.784 59.3524 799.985 56.8179C799.797 56.687 800.367 57.068 800.671 57.2682ZM835.308 62.6276C835.663 62.4854 836.385 62.4177 839.797 60.9131C840.361 60.6593 840.918 60.3932 841.468 60.1155C840.836 60.4562 837.713 61.9629 834.775 62.8015C831.824 63.689 829.192 64.005 830.033 63.8797C831.909 63.5662 833.438 63.2058 835.308 62.6276ZM823.487 64.3513C821.679 64.3579 819.766 64.2394 817.963 63.9939C818.58 64.0821 819.16 64.1513 819.77 64.2102C818.868 64.1319 817.974 64.024 817.06 63.8797C815.525 63.6264 814 63.2769 812.511 62.8357C816.376 63.9611 820.443 64.4333 824.439 64.3296C824.119 64.3403 823.802 64.3475 823.487 64.3513ZM782.338 40.4219C784.792 42.9903 787.751 46.1934 791.967 50.1442C791.969 50.1461 791.971 50.148 791.973 50.15C792.186 50.3466 792.547 50.6958 793.242 51.3206C793.539 51.5854 796.579 54.3393 799.748 56.5435C802.888 58.7867 806.147 60.3589 805.595 60.0931C800.24 57.2667 798.585 55.653 797.39 54.8377C797.162 54.6526 796.935 54.4658 796.709 54.2773C792.224 50.5885 791.084 49.353 788.747 47.0959C788.76 47.1013 788.773 47.1067 788.786 47.1121C787.24 45.575 785.728 44.0098 784.227 42.4397C784.437 42.6639 784.646 42.8878 784.856 43.1112C784.324 42.5567 783.791 41.9993 783.259 41.4412C781.982 40.0766 780.343 38.3504 782.338 40.4219ZM831.865 63.4858C832.673 63.3059 837.246 62.3138 841.961 59.7942C846.721 57.3525 851.432 53.4555 854.18 50.8346C851.314 53.6149 846.421 57.4628 842.545 59.4879C834.963 63.1603 840.209 60.6329 838.922 61.2552C838.303 61.5934 833.767 63.1607 831.865 63.4858ZM773.226 31.1961C776.257 34.0858 777.884 35.7741 780.387 38.3996C780.175 38.1826 779.962 37.9657 779.75 37.7489C778.936 36.803 771.724 29.7125 773.226 31.1961ZM861.868 42.7759C856.451 48.7981 859.134 45.8475 856.207 48.8692C858.161 46.9097 860.041 44.8562 861.864 42.7728C861.865 42.7739 861.866 42.7749 861.868 42.7759ZM397.831 38.3684C394.86 36.7409 391.382 35.2468 389.453 34.6415C391.611 35.4237 393.719 36.3409 395.773 37.3678C396.464 37.6892 397.15 38.023 397.831 38.3684ZM480.557 77.2576C479.895 77.6732 477.136 79.0304 476.818 79.1196C476.258 79.3459 476.403 79.2653 476.394 79.2649C472.682 80.5754 476.155 79.4815 473.351 80.3407C473.038 80.4398 470.024 81.1929 467.103 81.2872C465.603 81.3569 464.222 81.3013 463.265 81.228C458.963 80.9456 454.856 79.4998 453.384 78.9069C450.843 77.9665 446.332 75.6803 442.677 73.1242C441.161 72.0771 440.669 71.6738 439.192 70.5625C429.68 63.4737 413.072 46.9429 403.996 41.5062C401.836 40.0705 399.718 38.7833 398.51 38.1312C397.552 37.6272 396.583 37.1455 395.602 36.6887C392.668 35.1127 391.575 34.8016 388.179 33.6605C386.017 32.9703 384.975 32.684 384.687 32.6051C382.728 32.1211 381.713 31.9566 380.158 31.707C378.386 31.4146 375.84 31.1829 375.195 31.1621C374.813 31.2031 375.97 31.0632 369.823 31.2113C369.589 31.2226 369.347 31.2358 369.095 31.2513C362.031 31.6696 355.165 33.6165 348.938 37.194C351.12 36.2099 352.891 35.1592 355.636 34.1096C356.367 33.838 355.913 34.0389 356.555 33.8097C358.371 33.1272 361.98 32.1888 363.525 31.9592C365.218 31.6878 364.695 31.8303 366.825 31.5483C366.934 31.5354 366.586 31.5395 367.093 31.4813C368.098 31.3688 368.991 31.3012 369.825 31.2578C373.175 31.1399 375.286 31.1018 380.493 31.8875C382.634 32.1593 390.185 33.8866 396.614 37.3002C403.092 40.5771 408.508 44.8018 408.87 45.0571C410.702 46.5566 406.207 42.9013 400.378 39.4755C394.596 35.9325 387.214 33.4555 385.633 33.1076C384.535 32.8104 385.694 33.0807 384.699 32.8157C384.285 32.7002 380.432 31.8053 376.551 31.5162C374.802 31.3696 372.431 31.2704 369.831 31.3916C365.471 31.5483 360.762 32.5187 358.101 33.3813C325.388 43.1875 317.932 88.6989 281.143 90.4204C275.324 90.7204 269.443 89.6666 264.148 87.2373C263.396 86.8824 262.357 86.5012 260.024 85.1204C235.635 69.7341 223.571 32.6827 190.387 35.0223C167.884 35.3989 153.614 55.3333 141.466 71.9426C134.814 80.7134 127.745 89.722 117.593 94.9473C116.364 95.6288 115.102 96.2433 113.801 96.7875C117.227 95.6113 122.833 92.0822 123.266 91.6656C123.439 91.5358 124.527 90.7116 126.204 89.3017C128.55 87.304 129.507 86.3428 129.695 86.1746C130.249 85.6269 129.856 85.9558 130.382 85.4281C134.283 81.4517 136.954 78.0703 140.059 74.0454C143.542 69.4775 145.298 67.1636 147.74 63.7835C148.052 63.4273 148.364 63.0718 148.677 62.7173C150.277 60.0531 162.151 45.6359 168.874 42.0733C170.859 40.8147 170.551 41.1095 171.23 40.7081C171.7 40.5294 171.339 40.24 177.013 37.8957C179.934 36.8212 180.713 36.7331 182.234 36.3426C183.07 36.1481 182.899 36.1232 184.083 35.8883C186.285 35.4691 188.301 35.2496 190.393 35.1489C194.816 34.9535 198.992 35.311 203.504 36.5366C205.345 37.0599 205.343 37.1435 205.755 37.2736C207.254 37.7882 209.886 38.6556 213.388 40.6853C219.374 43.7467 228.827 53.2992 232.285 57.5448C232.811 58.1541 233.208 58.6924 233.596 59.1412C234.182 59.8209 234.45 60.0553 234.553 60.1749C236.499 62.4617 235.292 61.1169 236.6 62.6445C237.307 63.4704 238.077 64.2959 239.718 66.2182C241.886 68.7467 241.413 68.2933 242.332 69.342C242.43 69.4514 242.495 69.4559 243.401 70.4784C246.82 74.3939 252.17 79.769 256.209 82.653C257.36 83.4937 258.198 84.1295 259.897 85.1659C262.065 86.9184 273.378 91.5069 281.15 90.5574C284.508 90.3981 286.937 89.8912 287.493 89.7899C287.685 89.7445 285.728 90.2418 288.868 89.5587C289.785 89.3125 290.68 89.037 291.555 88.7342C293.077 88.305 294.537 87.7985 296.002 87.1923C296.002 87.2752 303.919 82.6243 303.826 82.629C304.647 82.0471 305.452 81.4406 306.241 80.8122C307.786 79.4019 308.904 78.5522 311.728 75.6671C312.194 75.246 312.657 74.8186 313.117 74.3854C313.211 74.2557 313.305 74.1258 313.399 73.9956C314.972 72.5273 317.206 69.7873 317.48 69.4597C318.554 68.2086 319.363 67.2826 319.858 66.6868C321.704 64.477 325.57 59.5939 327.731 57.0303C327.832 56.9099 327.77 57.0593 328.386 56.3312C329.5 55.0226 329.552 54.8414 331.116 53.168C331.405 52.8059 331.696 52.4444 331.988 52.0851C332.323 51.7256 332.659 51.3682 332.997 51.0132C334.945 48.8687 336.965 46.7961 339.101 44.8495C337.232 46.7025 339.437 44.6265 341.599 42.7677C342.332 42.1395 341.638 42.6438 341.883 42.4345C342.008 41.8457 353.001 34.9693 353.996 35.07C354.551 34.8181 355.129 34.5713 355.685 34.3468C355.982 34.2672 356.281 34.1903 356.582 34.1164C356.895 33.995 357.211 33.8767 357.53 33.7616C360.226 32.7907 366.851 31.5359 369.836 31.4948C370.356 31.4665 370.754 31.4534 370.991 31.4485C371.845 31.4607 371.077 31.4823 375.126 31.6241C375.269 31.5978 375.412 31.5721 375.555 31.5471C376.489 31.6021 377.386 31.6793 378.324 31.7869C380.073 31.982 382.532 32.5313 382.609 32.5963C383.148 32.685 383.684 32.7821 384.217 32.8876C385.657 33.1747 393.049 35.6827 395.833 37.1792C396.647 37.6075 397.452 38.0528 398.248 38.5137C399.345 39.0811 400.427 39.6775 401.498 40.3005C403.934 41.8081 401.343 40.2443 401.858 40.5714C402.986 41.1993 408.432 44.9204 408.003 44.773C408.727 45.3047 409.445 45.8457 410.158 46.3947C410.542 46.6553 410.924 46.918 411.304 47.1825C412.457 48.215 414.582 49.838 418.703 53.4679C419.063 53.7539 419.424 54.0415 419.785 54.3302C421.043 55.475 422.289 56.6257 423.538 57.7819C423.821 57.9884 424.104 58.1949 424.387 58.4012C424.938 58.8878 425.498 59.3826 426.052 59.8711C427.115 60.9267 429.197 62.6669 430.205 63.5883C431.695 64.9455 430.473 63.9752 427.681 61.5098C427.83 61.7638 436.226 69.0294 438.335 70.5098C438.206 70.3971 438.077 70.2838 437.951 70.1728C435.883 68.5791 433.852 66.901 431.864 65.2027C430.294 63.665 435.643 68.3513 438.265 70.2972C438.517 70.4784 439.846 71.4929 442.571 73.376C443.581 74.1307 447.83 76.7927 448.694 77.1841C455.659 80.4457 450.446 78.3094 457.597 80.6994C456.091 80.1857 460.259 81.6248 464.809 81.684C465.068 81.6894 465.984 81.7048 467.119 81.6401C469.353 81.5542 472.226 80.9376 472.504 80.8509C475.144 80.1318 472.325 81.0774 476.081 79.8064C476.526 79.6233 476.964 79.4302 477.397 79.2274C478.246 78.8629 479.077 78.4605 479.891 78.0227C484.832 75.3607 485.64 74.1744 487.157 72.9353C487.754 72.3972 487.019 73.1246 488.549 71.7093C489.109 71.1765 489.743 70.5521 491.189 69.0414C495.667 64.2163 497.075 62.4771 500.708 57.6534C501.289 56.9362 501.869 56.2183 502.452 55.4956C502.82 54.985 503.182 54.4816 503.548 53.9756C506.539 50.2477 505.425 51.5754 506.498 50.2218C509.263 46.5949 515.548 39.742 516.237 39.2782C518.919 36.4071 522.662 33.5752 523.922 32.6856C524.652 32.1346 525.393 31.6017 526.152 31.0842C527.066 30.4978 527.976 29.9517 528.92 29.4241C528.385 29.5358 533.383 27.0431 533.9 26.9085C534.4 26.5143 542.519 23.6987 545.724 23.3848C547.646 23.052 550.345 22.7733 552.422 22.6913C553.797 22.6303 554.784 22.6343 554.978 22.6326C555.489 22.6017 561.001 22.6422 565.127 23.5641C566.956 23.8749 573.212 25.5485 578.198 28.5653C583.222 31.4651 587.027 35.0176 586.53 34.5172C585.446 33.5696 583.85 32.2738 582.411 31.2392C579.771 28.717 565.23 21.1706 552.418 22.5988C546.263 22.8583 541.029 24.2096 538.44 25.0633C522.246 29.9767 510.739 44.3389 500.753 57.4501C500.146 58.2289 500.028 58.3286 499.508 58.992C498.726 59.9961 496.724 62.5563 495.906 63.5323C492.931 67.2008 488.912 71.3235 486.954 72.9419C482.661 76.6179 479.172 78.5556 475.127 79.9536C474.25 80.2672 470.803 81.3328 467.112 81.4754C465.49 81.5573 463.905 81.5021 462.484 81.3532C461.644 81.2594 460.817 81.1331 459.985 80.9729C461.437 81.245 464.359 81.5791 467.109 81.4139C468.858 81.3258 470.411 81.0889 471.535 80.8621C475.782 79.9611 477.825 78.8708 479.256 78.178C480.538 77.7054 486.198 73.8061 488.375 71.5542C489.076 70.8965 489.241 70.781 489.831 70.1966C493.041 67.0366 496.765 62.4535 499.137 59.3707C498.176 60.6361 504.266 52.8198 504.593 52.4134C505.144 51.712 505.71 50.9376 506.852 49.5163C509.056 46.8111 508.8 47.1708 511.622 43.8401C512.351 43.0445 513.093 42.2571 513.846 41.4833C513.675 41.2268 523.721 31.9404 527.229 30.1524C526.95 29.6022 513.38 41.0525 512.74 42.5061C506.722 48.9333 499.252 59.6287 493.58 66.0252C491.982 68.0478 486.088 73.5966 485.525 73.8606C484.754 74.477 485.471 73.9465 485.138 74.212C481.695 76.867 480.63 77.2386 480.518 77.3313C480.384 77.3919 481.062 76.9761 480.557 77.2576ZM788.788 47.0547C786.915 45.1884 785.092 43.2838 783.269 41.3679C783.405 41.5021 783.542 41.6376 783.679 41.7723C784.515 42.6523 785.343 43.5215 786.187 44.3952C786.839 45.0622 787.49 45.7222 788.147 46.3789C788.361 46.605 788.574 46.8303 788.788 47.0547ZM793.533 51.5148C795.253 53.0305 795.344 53.0896 795.749 53.4341C796.968 54.4437 798.046 55.276 799.292 56.1732C797.822 55.1836 794.91 52.8011 793.533 51.5148ZM758.543 20.011C758.995 20.2577 761.985 21.9583 765.144 24.2705C767.491 26.0173 769.725 27.9151 771.878 29.8991C768.27 26.4611 762.685 22.4194 760.56 21.2242C759.771 20.7478 759.625 20.6512 758.983 20.2865C755.287 18.1616 751.368 16.8063 750.96 16.63C754.778 17.9564 757.962 19.6889 758.543 20.011ZM778.371 36.2215C778.841 36.7151 779.311 37.2125 779.779 37.7094C778.069 35.9296 776.347 34.168 774.58 32.4507C775.063 32.9097 775.543 33.3721 776.02 33.8373C776.81 34.6254 777.594 35.4217 778.371 36.2215ZM621.229 66.5398C622.572 67.2946 623.916 67.9717 625.325 68.5987C625.248 68.5596 623.658 67.8221 623.099 67.519C623.101 67.5203 623.104 67.5216 623.106 67.5229C622.48 67.19 622.748 67.3246 621.603 66.6946C621.478 66.6434 621.354 66.5918 621.229 66.5398ZM111.996 97.2881C111.043 97.6149 106.759 98.9167 101.941 99.1092C94.6129 99.6818 86.807 96.928 87.9786 97.3806C88.8787 97.9484 96.9383 99.4805 99.3693 99.265C100.026 99.2751 100.918 99.2765 101.947 99.2328C105.918 99.1889 111.474 97.732 111.996 97.2881ZM72.5335 88.7533C71.9194 88.8966 84.5458 96.7817 86.2008 96.7388C85.9164 96.6156 85.4854 96.4103 85.1079 96.2475C83.1533 95.6784 74.9208 90.9013 72.5335 88.7533ZM551.844 22.539C552.033 22.5321 552.223 22.526 552.414 22.5208C553.445 22.4925 554.452 22.4913 555.436 22.5157C555.129 22.4822 554.819 22.4512 554.506 22.4226C553.819 22.4372 553.121 22.4643 552.413 22.5042C552.223 22.5149 552.033 22.5265 551.844 22.539ZM459.04 80.8072C439.246 75.8567 426.679 58.5481 411.07 46.7996C412.449 47.8532 413.809 48.9347 415.154 50.0343C428.216 60.6999 440.544 75.2895 456.678 80.1567C457.457 80.4012 458.244 80.6187 459.04 80.8072ZM753.57 17.5395C748.894 15.6341 744.741 14.5847 739.27 14.0478C744.492 14.5751 747.049 15.1765 751.856 16.8424C751.859 16.8434 751.862 16.8444 751.864 16.8454C752.441 17.0671 753.009 17.2987 753.57 17.5395ZM665.363 69.7144C666.806 69.1696 668.222 68.5422 669.587 67.8367C667.957 68.6605 666.175 69.3992 664.474 69.9772C664.773 69.8922 665.07 69.8046 665.363 69.7144ZM316.86 69.6123C313.658 73.8563 303.534 83.014 299.566 84.87C299.319 85.0037 301.603 83.8099 297.993 85.8797C300.779 84.4129 302.567 83.0967 302.727 82.9197C303.508 82.411 304.271 81.8823 305.024 81.3318C306.242 80.3739 307.408 79.3752 308.55 78.3277C308.465 78.481 308.572 78.4238 310.264 76.7602C311.06 76.0194 311.829 75.2745 312.594 74.5062C312.893 74.1584 313.193 73.8043 313.485 73.4554C314.151 72.8027 314.81 72.1381 315.465 71.4638C317.846 68.71 316.321 70.322 316.86 69.6123ZM328.696 55.3369C328.114 55.9683 312.535 74.9639 319.764 66.4532C321.615 64.2201 323.434 61.9556 325.264 59.7066C323.583 61.4348 328.734 55.4363 329.176 54.9623C331.19 52.6025 333.813 49.6375 335.398 48.0429C336.758 46.6626 337.613 45.8987 338.613 44.975C341.941 41.7248 348.045 37.6766 348.938 37.194C345.805 38.9817 342.839 41.1467 340.012 43.6076C337.046 46.2317 334.45 48.5958 329.669 54.3141C328.464 55.7095 328.843 55.1699 328.696 55.3369ZM673.601 65.5017C673.606 65.853 680.77 59.7508 680.632 59.5171C680.654 59.5151 678.497 61.6741 678.15 61.9444C678.148 61.9463 678.146 61.9482 678.143 61.9501C678.006 62.0703 678.689 61.4445 677.611 62.4C676.351 63.5128 674.988 64.5695 673.601 65.5017ZM139.678 73.9082C139.248 74.3596 134.762 80.4974 129.408 85.7706C124.137 91.195 117.462 94.775 117.073 94.9082C116.869 95.0197 117.172 94.9006 117.097 94.9564C123.248 91.9849 130.416 85.3559 134.515 80.4212C135.673 79.0615 135.29 79.4352 135.356 79.3587C135.359 79.3554 135.361 79.3521 135.364 79.3488C136.036 78.5765 138.975 75.0628 139.678 73.9082ZM291.076 88.5902C292.249 88.2528 293.444 87.8459 294.579 87.399C294.855 87.257 295.138 87.1079 295.414 86.9575C295.411 86.9587 295.409 86.9598 295.406 86.9609C293.998 87.5868 292.546 88.1338 291.076 88.5902ZM251.697 78.4448C251.905 78.6622 252.115 78.8781 252.325 79.0923C254.643 81.1497 257.109 83.0574 259.752 84.6864C259.48 84.5322 259.208 84.375 258.938 84.2149C262.907 86.744 264.787 87.3615 267.127 88.25C267.124 88.249 267.121 88.248 267.119 88.2471C267.377 88.3378 267.66 88.4914 268.616 88.7883C270.79 89.6455 277.346 90.4543 278.15 90.2985C279 90.253 276.08 90.3012 272.731 89.694C269.376 89.1463 265.668 87.7192 264.564 87.1968C263.543 86.7477 262.363 86.1035 261.771 85.777C261.121 85.4192 260.208 84.9797 258.688 83.988C258.207 83.7651 253.512 80.2054 251.697 78.4448ZM213.076 40.1001C213.885 40.6029 215.595 41.6165 216.193 42.0396C216.337 42.1385 215.187 41.4165 216.545 42.3458C216.945 42.585 217.343 42.8305 217.737 43.08C216.238 42.0034 214.683 41.0021 213.076 40.1001ZM684.754 54.4898C684.633 54.7366 681.465 58.652 681.26 58.7927C680.248 59.9082 681.536 58.5809 682.805 57.0328C684.078 55.4949 685.313 53.7419 684.754 54.4898ZM783.722 41.6373C781.897 40.1539 801.618 59.4283 804.848 59.5333C804.674 59.5667 799.162 56.0598 802.038 57.9144C799.17 56.3147 792.29 50.4215 790.835 48.8778C789.905 47.9803 789.689 47.7433 789.549 47.6063C788.981 47.0873 784.27 42.2477 783.722 41.6373ZM826.775 64.1004C826.361 64.1327 825.942 64.1588 825.52 64.1786C823.272 64.2832 821.108 64.2214 818.927 63.9772C821.108 64.2186 823.272 64.2777 825.52 64.1706C826.421 64.1273 827.306 64.0553 828.176 63.9559C827.713 64.0118 827.247 64.0601 826.775 64.1004ZM830.027 63.705C829.995 63.9166 838.573 61.6644 840.574 60.3751C838.235 61.5458 834.073 63.0836 830.027 63.705ZM703.005 26.5899C700.325 29.6716 699.342 31.1302 702.447 27.2622C702.543 27.1458 703.118 26.4628 703.005 26.5899ZM315.809 70.365C315.407 70.9454 309.375 77.1146 308.953 77.3968C307.879 78.5607 311.977 74.6561 313.272 73.2551C315.385 71.0411 312.448 74.4598 317.363 68.8067C317.179 69.0539 316.995 69.3004 316.81 69.5463C319.672 66.2205 318.612 67.2072 319.108 66.5953C319.263 66.4065 321.015 64.305 321.321 63.913C325.146 59.0588 316.312 69.9451 315.809 70.365ZM623.764 67.5725C616.697 63.6308 619.572 65.5342 612.955 60.4904C612.57 60.5448 622.617 67.4438 623.764 67.5725ZM379.802 31.4482C376.28 30.9309 373.041 30.8021 369.81 30.9485C365.382 31.1595 361.16 31.8844 356.857 33.3808C357.124 33.3126 363.58 31.2171 369.813 31.0215C375.601 30.6777 380.855 31.6494 379.802 31.4482ZM59.4347 75.6197C70.0426 86.7753 84.0235 99.677 101.912 98.508C121.272 98.1395 134.151 81.0664 144.438 67.027C146.705 63.9841 146.981 63.7355 147.804 62.6359C148.346 61.9174 148.208 62.0098 148.936 61.0622C158.983 47.4366 172.982 34.7661 190.361 34.4747C218.027 32.3591 232.723 59.0623 249.462 76.0052C251.091 78.0731 261.101 85.9217 263.861 86.5277C265.685 87.4221 257.673 83.2201 256.59 82.095C255.678 81.4122 255.68 81.3412 255.087 80.8721C254.462 80.3687 254.954 80.8155 254.232 80.2232C251.18 77.7112 248.152 74.6195 245.733 71.9756C230.816 55.1453 215.413 32.3169 190.356 34.3735C178.584 34.7269 167.51 40.5252 159.294 48.8672C156.294 51.8875 156.913 51.2671 156.754 51.4121C156.752 51.4143 156.75 51.4165 156.748 51.4186C141.388 67.312 129.837 95.7688 104.115 98.1919C103.39 98.265 102.654 98.3189 101.905 98.3528C85.2725 99.4645 71.508 88.0594 60.4953 76.6412C60.1404 76.3009 59.7863 75.9597 59.4347 75.6197ZM327.371 56.6485C325.911 58.1868 325.724 58.6468 320.882 64.4892C320.509 64.9815 320.135 65.4723 319.76 65.9617C322.317 62.872 324.815 59.7289 327.379 56.6387C327.377 56.6419 327.374 56.6452 327.371 56.6485ZM290.029 88.5797C289.443 88.6414 285.797 89.6498 281.116 89.8523C275.441 90.2606 268.564 88.725 264.816 86.9178C264.16 86.6677 266.342 87.7537 269.129 88.5641C271.927 89.4205 275.309 89.8177 276.621 89.8903C277.241 89.9331 278.863 90.0645 281.122 89.9763C283.891 89.8823 287.259 89.4111 290.104 88.5805C290.079 88.5803 290.054 88.58 290.029 88.5797ZM762.601 22.2356C761.572 21.5537 760.516 20.8995 759.447 20.2872C762.125 21.8323 764.669 23.6078 767.089 25.5295C763.228 22.4662 759.038 19.7838 754.515 17.7956C755.367 18.1583 756.204 18.5428 757.025 18.9475C758.949 19.9314 760.806 21.0344 762.601 22.2356ZM748.143 15.5096C756.359 18.1926 747.814 15.2445 745.688 14.9065C744.434 14.6197 747.292 15.2457 748.143 15.5096ZM725.806 14.3109C727.472 14.0406 729.556 13.8175 731.611 13.7229C734.652 13.5816 736.811 13.7169 735.113 13.6943C733.886 13.6743 732.756 13.6953 731.612 13.7477C728.756 13.9093 726.097 14.0911 721.691 15.1454C722.581 14.9121 723.529 14.6991 724.395 14.5303C724.399 14.5295 724.404 14.5287 724.408 14.528C724.867 14.4498 725.333 14.3774 725.806 14.3109ZM751.906 16.7076C754.548 17.7634 752.048 16.6907 749.447 15.8841C746.792 15.053 744.078 14.5276 746.578 15.076C746.811 15.0621 751.711 16.5614 751.906 16.7076ZM88.3282 96.2975C87.655 96.1806 91.778 97.4055 93.1877 97.5916C95.8304 98.0843 98.7871 98.3143 101.896 98.1625C105.95 97.9836 110.025 97.0988 113.429 95.7884C112.97 95.9418 112.498 96.0892 112.038 96.2223C108.767 97.3213 105.383 97.9307 101.892 98.0943C97.2976 98.3174 92.689 97.7171 88.3282 96.2975ZM129.89 84.4114C133.008 81.2344 135.85 77.7827 138.591 74.251C138.846 73.9242 139.996 72.3401 139.101 73.4865C136.204 77.2834 133.206 81.0017 129.89 84.4114ZM347.893 37.2607C344.86 38.9463 353.531 33.9791 353.267 34.4836C351.428 35.2862 349.62 36.2245 347.893 37.2607ZM378.911 31.0679C376.759 30.7963 374.561 30.6656 372.422 30.6726C372.42 30.658 372.417 30.6434 372.414 30.6287C374.557 30.6361 376.758 30.7816 378.911 31.0679ZM73.1851 87.9074C74.9095 89.3912 79.3771 92.4336 82.4063 93.8803C80.3418 92.8508 75.6544 89.9352 73.1851 87.9074ZM312.12 74.0711C312.527 74.1039 302.251 82.9741 305.783 79.8731C308.01 78.0849 310.118 76.1189 312.12 74.0711ZM289.146 88.448C291.942 87.7448 294.03 86.8723 293.496 87.1567C292.054 87.6997 290.597 88.1515 289.098 88.5206C289.114 88.4964 289.13 88.4722 289.146 88.448ZM711.408 19.3475C707.171 21.9151 703.556 25.4509 700.542 29.3651C700.65 29.2164 700.758 29.0682 700.867 28.9206C703.814 25.1733 707.325 21.8012 711.414 19.3249C711.412 19.3325 711.41 19.34 711.408 19.3475ZM71.1535 86.0201C68.5627 83.8953 66.067 81.6004 63.6504 79.2569C66.0478 81.6242 68.5255 83.9437 71.1022 86.0954C71.1216 86.072 71.1409 86.0486 71.1602 86.0252C71.158 86.0235 71.1557 86.0218 71.1535 86.0201ZM773.441 30.9252C762.192 20.8313 776.685 33.5721 779.215 36.6788C779.219 36.6819 779.221 36.6849 779.224 36.688C779.465 36.941 778.945 36.4169 779.345 36.8385C778.283 35.7272 777.214 34.6244 776.13 33.5342C775.133 32.5483 774.124 31.5736 773.098 30.6174C772.764 30.2991 772.427 29.9827 772.089 29.6684C772.543 30.0837 772.994 30.5028 773.441 30.9252ZM822.298 64.0974C823.587 64.133 824.66 64.1054 825.515 64.0662C829.485 63.7747 828.389 63.8825 825.515 64.0748C822.674 64.2551 818.247 63.9662 815.291 63.2793C815.308 63.3774 821.017 64.1832 822.298 64.0974ZM790.973 48.802C789.419 47.3137 787.902 45.7818 786.403 44.2341C786.213 44.0338 786.024 43.8326 785.835 43.632C786.988 44.8278 788.137 46.0017 789.317 47.1697C789.866 47.7201 790.411 48.258 790.973 48.802ZM732.308 13.5411C732.077 13.5488 731.841 13.5584 731.604 13.5695C728.737 13.7355 726.043 13.9995 731.605 13.6011C732.65 13.5533 733.966 13.5152 735.56 13.5457C735.554 13.5407 735.549 13.5358 735.543 13.5308C735.11 13.5183 733.811 13.524 733.737 13.5276C733.53 13.5318 733.782 13.4988 732.308 13.5411ZM846.123 57.0372C846.428 56.8015 846.669 56.7581 849.867 54.2969C850.828 53.5296 851.751 52.7466 852.667 51.9292C852.906 51.7219 853.145 51.512 853.381 51.3015C849.851 54.4612 849.373 54.6702 849.12 54.9015C847.871 55.8517 848.796 55.1483 847.983 55.7512C845.922 57.3939 840.698 60.2455 843.051 58.9254C843.903 58.4595 845.808 57.2624 846.123 57.0372ZM837.973 61.3331C838.508 61.1287 836.789 61.797 837.192 61.6432C837.589 61.6077 842.737 59.1874 841.348 59.8505C840.515 60.2703 839.66 60.6661 838.802 61.0265C838.51 61.1461 838.217 61.2623 837.921 61.3751C837.084 61.7076 836.214 62.0181 835.365 62.2878C833.924 62.7481 830.735 63.5054 834.484 62.5268C833.114 62.9217 831.75 63.2334 830.348 63.4733C829.618 63.6019 828.89 63.7083 828.174 63.7933C828.553 63.7441 828.923 63.6907 829.302 63.6305C832.297 63.2034 835.17 62.4393 837.973 61.3331ZM870.433 32.3398C870.323 32.4738 870.213 32.6079 870.103 32.7419C873.411 28.6961 878.87 22.66 875.791 26.1044C871.087 31.4019 866.72 36.9653 862.059 42.2925C861.748 42.6449 861.437 42.9957 861.124 43.3445C864.608 39.3796 863.51 40.5913 866.476 37.0855C866.972 36.4915 865.542 38.224 868.652 34.4812C868.54 34.6131 868.428 34.7451 868.316 34.877C869.021 34.0308 869.725 33.1849 870.433 32.3398ZM905.597 5.80699C896.966 8.173 906.448 5.3775 908.104 5.3414C908.101 5.34183 908.099 5.34226 908.096 5.34269C912.594 4.65786 902.94 6.1888 902.458 6.63206C901.705 6.89324 899.901 7.32389 896.044 9.21893C899.068 7.69361 902.282 6.53039 905.597 5.80699ZM880.909 20.637C881.441 20.1069 881.148 20.4016 881.378 20.1735C881.38 20.1715 881.382 20.1695 881.385 20.1675C884.595 16.5715 893.947 9.9692 895.197 9.65998C891.688 10.8046 879.747 21.3533 879.312 22.2721C879.834 21.7259 880.372 21.1745 880.909 20.637ZM858.723 45.9739C856.715 48.1106 861.227 43.2845 862.337 41.9531C862.549 41.7046 860.805 43.7575 858.723 45.9739ZM677.586 61.6615C672.717 65.7697 679.146 60.4067 676.945 62.3013C677.879 61.4998 678.76 60.6709 679.617 59.7951C678.955 60.4445 678.287 61.0591 677.586 61.6615ZM430.864 62.1111C429.747 61.1149 430.257 61.6077 430.159 61.5222C429.422 60.8677 428.742 60.2241 428.456 59.9719C423.202 55.3229 426.655 58.461 426.706 58.5155C426.795 58.638 425.397 57.4314 427.275 59.1679C428.43 60.1896 429.606 61.2256 430.766 62.2348C431.328 62.7537 431.902 63.2793 432.469 63.7942C434.811 65.7667 431.785 63.1447 431.472 62.7961C431.354 62.6662 433.546 64.5581 430.864 62.1111ZM668.054 67.8428C667.153 68.3018 664.764 69.2806 667.11 68.3613C667.113 68.3602 667.115 68.3592 667.118 68.3581C667.556 68.1904 669.224 67.4175 669.754 67.1377C673.289 65.0933 672.007 65.9689 668.054 67.8428ZM453.379 77.5923C455.621 78.5218 457.945 79.2413 460.319 79.6804C460.274 79.7037 460.228 79.7268 460.182 79.7498C458.907 79.5069 457.652 79.1857 456.413 78.7936C455.974 78.6727 455.532 78.5417 455.099 78.4046C456.615 78.9753 458.163 79.4434 459.741 79.7915C461.652 80.1577 463.606 80.3442 465.53 80.3398C464.639 80.3194 463.757 80.26 462.865 80.1601C465.297 80.3561 466.196 80.2899 467.055 80.2866C467.873 80.2585 468.613 80.2675 470.494 79.9849C471.831 79.7341 473.108 79.3972 474.386 78.9608C476.233 78.4019 478.042 77.6384 479.762 76.7138C482.592 75.0465 482.777 74.7967 480.905 75.9713C482.278 75.0915 483.773 74.1074 485.304 72.833C485.429 72.7292 485.171 72.897 485.282 72.8058C492.928 65.9576 492.204 65.9543 493.393 64.808C494.174 63.9435 497.088 60.2816 497.111 60.2026C497.134 60.1029 491.002 67.678 500.481 55.708C495.635 61.982 489.732 68.6414 493.629 64.3771C492.152 66.426 484.293 73.9476 483.555 74.1224C482.745 74.7035 483.01 74.4731 481.971 75.1744C481.326 75.4933 479.881 77.0657 474.364 78.8921C473.667 79.1313 472.937 79.3484 472.234 79.5282C471.559 79.6714 470.873 79.7909 470.173 79.8856C471.603 79.6159 472.954 79.25 474.308 78.7713C471.735 79.6135 469.31 79.9642 467.044 80.0609C464.583 80.1638 462.464 79.9554 460.683 79.7004C457.745 79.1684 456.383 78.6315 457.622 78.9645C456.76 78.7305 455.899 78.4594 455.055 78.1591C454.495 77.9842 453.936 77.7951 453.379 77.5923ZM649.845 71.9473C649.784 71.9498 649.723 71.9521 649.663 71.9544C646.667 72.0525 645.697 72.0427 646.142 72.0624C647.49 72.0836 648.866 72.0341 649.665 71.986C650.423 71.9396 650.641 71.913 649.845 71.9473ZM435.036 65.7919C437.597 67.9803 440.221 70.0969 442.96 72.0345C442.979 72.0066 442.998 71.9787 443.018 71.9508C440.264 70.0431 437.619 67.9538 435.036 65.7919ZM678.248 61.0028C678.482 60.8024 678.713 60.5996 678.942 60.3945C681.547 57.8014 683.81 54.9148 684.86 53.4233C685.088 53.0996 684.607 53.7384 684.152 54.3394C683.971 54.8027 678.835 60.6817 678.248 61.0028ZM797.313 54.1996C796.232 53.3475 795.171 52.4569 794.137 51.5465C794.199 51.5917 794.261 51.6368 794.323 51.6818C794.836 52.1325 795.347 52.5701 795.874 53.0103C796.35 53.4141 796.83 53.8108 797.313 54.1996ZM785.854 43.4485C784.149 41.6694 782.456 39.8651 780.752 38.0738C787.241 44.9055 781.922 39.3015 785.871 43.4326C785.865 43.4379 785.86 43.4432 785.854 43.4485ZM768.017 25.8862C768.257 26.0745 768.496 26.2642 768.734 26.4552C770.641 28.0437 772.474 29.7157 774.257 31.4351C773.142 30.3346 772.007 29.2525 770.845 28.1973C770.165 27.5939 769.476 26.9997 768.777 26.417C768.525 26.2385 768.271 26.0616 768.017 25.8862ZM373.332 29.6044C372.643 29.5866 371.164 29.5916 369.749 29.675C368.042 29.768 366.55 29.9609 366.673 29.9587C367.68 29.8658 368.707 29.8011 369.754 29.7656C370.967 29.7245 372.161 29.725 373.337 29.7647C373.348 29.7261 373.359 29.6874 373.37 29.6488C373.678 29.6751 373.986 29.7039 374.305 29.7359C375.58 29.7726 376.831 29.8546 378.075 29.9816C378.71 30.0876 379.338 30.205 379.96 30.3332C380.596 30.3907 381.226 30.4595 381.856 30.54C375.857 29.4709 376.039 29.828 374.771 29.6979C374.121 29.6661 373.713 29.6323 373.491 29.6144C373.438 29.611 373.385 29.6077 373.332 29.6044ZM436.966 67.1054C431.561 62.635 428.555 59.9286 424.787 56.4572C427.098 58.7947 442.909 72.9649 449.646 75.9308C450.329 76.2585 451.027 76.5738 451.721 76.8651C448.114 75.2081 445.829 73.6266 444.201 72.5432C442.927 71.6752 443.047 71.7763 442.949 71.711C442.944 71.7078 442.94 71.7046 442.935 71.7014C439.975 69.5841 439.121 68.8447 436.966 67.1054ZM681.775 57.2025C680.567 58.6446 678.224 60.9398 678.206 60.9699C679.539 59.7367 680.802 58.4036 681.989 57.0082C681.74 57.2905 681.986 56.9601 681.775 57.2025ZM765.776 24.0638C764.603 23.1384 761.659 21.1891 762.915 22.0487C763.151 22.1843 766.016 24.2244 764.323 23.0472C767.089 25.0617 766.443 24.587 765.776 24.0638ZM531.657 26.5388C532.821 25.9802 533.96 25.4852 535.155 25.0178C535.426 24.892 535.699 24.7682 535.974 24.6465C534.482 25.2193 533.086 25.8324 531.657 26.5388ZM690.701 44.0177C691.593 42.6211 692.962 40.1313 694.618 37.4823C695.219 36.4925 695.826 35.5143 696.454 34.54C696.455 34.5376 696.457 34.5352 696.458 34.5328C696.463 34.4984 696.468 34.4641 696.472 34.4298C694.442 37.5752 692.59 40.8158 690.701 44.0177ZM475.162 78.5287C475.859 78.2973 476.559 78.0333 477.239 77.7461C478.436 77.1978 479.601 76.5649 480.725 75.8653C480.108 76.2258 479.476 76.568 478.838 76.8855C477.65 77.5168 476.423 78.0683 475.162 78.5287ZM701.875 27.0635C699.279 30.1972 698.404 31.4505 701.647 27.3898C703.074 25.7247 704.742 23.8985 701.875 27.0635ZM311.971 72.6166C312.911 71.646 313.844 70.6426 314.756 69.6323C315.044 69.2678 315.33 68.9011 315.616 68.5325C314.427 69.9205 313.21 71.2931 311.971 72.6166ZM779.843 37.034C779.726 36.9212 779.609 36.8086 779.493 36.6959C778.64 35.8052 777.784 34.9217 776.917 34.0434C777.14 34.2595 777.362 34.476 777.583 34.693C778.342 35.4689 779.093 36.249 779.843 37.034ZM318.071 65.7565C318.782 64.9164 319.482 64.0789 320.186 63.2314C320.646 62.6518 321.104 62.0716 321.562 61.4911C320.901 62.2793 320.237 63.0698 319.573 63.8536C319.074 64.4901 318.575 65.1229 318.071 65.7565ZM736.485 13.3255C734.962 13.1939 728.656 13.4343 734.32 13.3131C737.845 13.3659 736.742 13.3517 736.485 13.3255ZM744.847 14.3089C738.973 13.3838 743.473 13.6903 750.27 15.7656C743.412 13.7551 745.168 14.4575 744.847 14.3089ZM786.552 44.0245C786.655 44.1308 786.732 44.2284 787.557 45.0764C790.509 48.1496 794.609 51.9887 797.002 53.8635C799.549 55.9365 804.779 59.7533 810.687 61.7872C816.593 63.9464 822.736 64.0604 825.508 63.909C826.098 63.8834 826.53 63.8534 826.78 63.8362C827.327 63.799 826.069 63.9051 826.291 63.8884C826.965 63.8957 830.633 63.3938 829.961 63.4839C828.472 63.7206 827.038 63.8656 825.509 63.9364C823.278 64.0372 821.133 63.9735 818.971 63.7297C819.854 63.8226 820.753 63.8869 821.671 63.9209C812.559 63.0425 815.635 63.065 813.056 62.5743C811.59 62.158 810.106 61.6338 808.697 61.0381C805.588 59.7494 802.662 58.0595 799.912 56.1145C800.535 56.5506 801.172 56.9775 801.816 57.3875C797.63 54.5313 798.81 55.2843 796.618 53.5911C796.617 53.5834 796.616 53.5757 796.615 53.568C792.841 50.4367 792.229 49.68 791.436 48.9577C789.85 47.4319 787.785 45.5254 782.066 39.3466C779.597 36.793 779.7 36.8018 778.223 35.3265C774.05 30.9834 782.021 39.2147 785.708 43.1533C785.71 43.1554 785.712 43.1574 785.714 43.1595C785.996 43.454 785.549 42.9804 786.552 44.0245ZM764.084 22.8205C765.579 23.8779 763.422 22.2509 761.238 20.9009C759.067 19.5471 756.885 18.4555 758.99 19.6195C759.613 19.97 760.226 20.3312 760.832 20.7037C761.945 21.3773 763.027 22.0842 764.091 22.8254C764.088 22.8238 764.086 22.8221 764.084 22.8205ZM655.324 71.2675C652.646 71.6323 650.893 71.7232 649.655 71.7902C646.868 71.8982 647.727 71.8874 649.657 71.8152C650.982 71.7588 652.727 71.6211 654.091 71.4494C654.993 71.3377 655.482 71.2545 655.324 71.2675ZM429.407 60.4814C429.253 60.3622 429.099 60.2427 428.945 60.123C432.24 63.1335 438.8 68.6366 438.789 68.4422C435.574 65.917 432.482 63.2209 429.407 60.4814ZM458.276 78.9984C457.372 78.8284 453.817 77.5685 454.241 77.7324C455.754 78.3377 457.32 78.849 458.9 79.2342C459.643 79.3897 460.391 79.5188 461.144 79.62C460.093 79.4657 458.516 79.067 458.276 78.9984Z" fill="#E89497"/>
<path d="M4.76195 42.8948C2.00366 43.0264 -0.125742 45.369 0.00579792 48.1273C0.137337 50.8856 2.48001 53.015 5.2383 52.8835L5.00012 47.8892L4.76195 42.8948ZM166.091 48.8818C166.609 46.1693 164.83 43.5508 162.117 43.0333L117.915 34.5993C115.202 34.0818 112.584 35.8611 112.066 38.5736C111.549 41.2861 113.328 43.9046 116.04 44.4221L155.332 51.919L147.835 91.2101C147.317 93.9226 149.097 96.5411 151.809 97.0587C154.522 97.5762 157.14 95.7968 157.658 93.0844L166.091 48.8818ZM5.00012 47.8892L5.2383 52.8835C24.9545 51.9432 39.4434 63.6966 54.187 77.1129C61.3437 83.6254 68.6919 90.6356 76.3642 95.8034C84.1401 101.041 92.78 104.772 102.723 104.298L102.485 99.3039L102.247 94.3096C95.2582 94.6428 88.7494 92.0887 81.9507 87.5094C75.0485 82.8603 68.3961 76.5223 60.9173 69.7168C46.3898 56.4971 29.068 41.7357 4.76195 42.8948L5.00012 47.8892ZM102.485 99.3039L102.723 104.298C118.19 103.561 128.059 93.0802 136.475 82.4167C145.271 71.2713 152.735 59.7285 163.99 52.0802L161.18 47.9447L158.37 43.8091C145.447 52.591 136.609 66.1057 128.625 76.2213C120.261 86.8188 112.871 93.8029 102.247 94.3096L102.485 99.3039Z" fill="url(#paint0_linear_3552_7414)"/>
<defs>
<linearGradient id="paint0_linear_3552_7414" x1="4.87903" y1="47.8949" x2="165.632" y2="47.4613" gradientUnits="userSpaceOnUse">
<stop stop-color="white" stop-opacity="0"/>
<stop offset="1" stop-color="white"/>
</linearGradient>
</defs>
</svg>
