<svg width="1001" height="116" viewBox="0 0 1001 116" fill="none" xmlns="http://www.w3.org/2000/svg">
<path d="M23.0447 16.6129C37.8855 37.4941 47.9087 52.8068 69.9351 59.9534C76.5407 61.9785 83.8547 62.865 91.4105 62.6493C109.002 62.588 127.022 55.4636 138.54 40.2138C144.609 32.958 149.698 24.3929 157.387 17.3935C164.969 10.1702 176.146 6.98713 186.033 7.73095C200.709 8.20621 213.43 16.5474 222.042 25.6343C239.973 43.8911 252.242 71.2086 277.589 72.3295C292.156 73.4877 304.536 63.8092 314.585 52.9433C315.998 51.4532 316.883 50.588 317.518 49.9008C323.446 43.4264 333.534 31.9919 341.291 26.7933C348.227 21.6443 359.878 16.6116 371.959 17.5081C387.011 17.7605 399.934 27.803 405.916 35.1005C410.86 40.7291 414.999 46.9618 416.485 49.353C417.98 51.5369 418.907 52.6422 419.303 53.2026C419.307 53.2091 419.311 53.2157 419.316 53.2222C420.582 55.0468 423.676 59.6276 424.416 60.5896C424.526 60.7308 423.942 59.7879 425.671 62.1499C425.828 62.3533 425.617 62.2267 427.133 64.1615C427.474 64.7294 432.893 70.8226 434.67 72.222C438.494 76.0273 447.698 81.7252 456.75 81.8313C460.421 82.0388 463.725 81.6991 466.255 81.1876C467.585 80.9148 468.352 80.6822 469.716 80.2746C470.434 80.0609 471.502 79.7339 471.716 79.6523C472.681 79.3702 476.59 77.3027 475.33 78.3419C479.464 76.2143 478.142 76.6475 478.205 76.5502C482.55 73.9807 484.56 72.4696 485.507 71.5003C503.94 56.4742 521.406 29.4145 550.866 31.9146C551.519 31.9491 552.167 31.9948 552.809 32.0515C552.82 32.0194 552.831 31.9874 552.842 31.9553C560.944 32.963 563.699 33.8815 567.985 35.6634C570.666 36.6867 573.262 37.9179 575.757 39.3123C602.408 54.2473 614.681 88.3434 642.686 91.431C676.586 90.6053 690.636 36.0484 733.425 41.2536C738.346 41.5069 743.249 42.3323 747.956 43.9372C750.841 44.9985 751.643 45.2453 756.14 47.7311C761.118 50.4977 767.202 55.737 771.808 61.2911C775.955 66.1039 781.141 73.6335 785.343 78.8688C786.291 80.0552 787.029 80.8605 787.137 80.9909C787.78 81.7548 787.759 81.8385 788.392 82.5683C789.15 83.4386 790.123 84.4338 791.038 85.3859C794.415 89.0083 798.696 92.1404 799.208 92.4594C801.645 94.1421 802.197 94.4548 802.403 94.5945C805.26 96.2033 804.222 95.5215 804.942 95.908C808.725 97.7448 811.532 99.0197 817.299 100.02C817.135 100.048 816.971 100.075 816.807 100.101C821.175 100.904 818.312 100.242 819.214 100.368C819.45 100.403 822.335 100.831 825.235 100.971C827.661 101.105 829.676 101.057 830.066 101.047C832.713 100.964 832.73 100.985 832.96 100.979C833.519 101.016 839.931 100.082 843.016 98.9447C846.672 97.6959 842.448 99.4113 843.36 99.1047C843.52 99.112 847.279 97.5392 847.778 97.269C848.35 97.0711 845.164 98.5621 845.202 98.5267C845.288 98.6333 850.557 96.0406 849.579 96.5993C848.939 97.3135 841.472 100.294 839.747 100.491C839.476 100.561 840.01 100.526 839.77 100.587C839.164 100.87 831.176 102.245 825.195 101.74C821.876 101.569 819.443 101.176 819.11 101.123C820.099 101.232 821.098 101.314 822.054 101.369C820.804 101.24 819.439 101.056 818.172 100.837C820.017 101.114 821.846 101.296 823.711 101.403C821.027 101.05 812.801 99.7011 812.502 99.6358C812.338 99.7003 817.153 101.133 812.595 100.072C813.275 100.284 813.952 100.479 814.652 100.666C816.133 100.981 817.572 101.222 819.056 101.414C818.064 101.242 817.138 101.057 816.158 100.834C816.535 100.888 816.882 100.932 817.238 100.974C819.845 101.419 822.451 101.678 825.192 101.786C825.321 101.791 825.448 101.795 825.575 101.799C827.045 101.877 826.735 101.931 827.722 101.963C839.855 101.614 832.043 101.998 839.827 100.712C840.899 100.494 842.042 100.209 843.112 99.8911C842.672 99.8528 846.079 98.9837 849.712 96.7945C849.306 97.0858 848.891 97.3708 848.465 97.6491C854.186 95.2189 862.861 85.7438 860.326 88.1023C861.305 87.0561 862.254 85.972 863.181 84.8607C863.914 83.8823 864.63 82.886 865.336 81.8786C866.365 80.5267 867.378 79.1491 868.39 77.7634C868.414 77.7713 868.438 77.7791 868.462 77.787C867.659 78.8946 866.854 79.9978 866.042 81.0864C866.711 80.3134 867.376 79.5314 868.04 78.7453C868.624 77.923 869.207 77.0951 869.793 76.2672C867.244 79.6663 870.43 75.0668 871.17 73.9041C873.278 70.9739 874.847 69.2265 875.631 68.2881C875.927 67.8024 880.43 62.6226 878.772 64.757C881.169 62.1766 883.849 59.7711 886.844 57.7837C888.037 57.0273 889.255 56.3467 890.532 55.7273C887.863 57.1653 895.815 53.4674 890.026 56.3235C885.822 58.6859 884.909 59.4877 883.128 60.9012C881.565 62.2303 880.822 63.0268 879.283 64.6143C869.168 75.4777 864.278 86.755 853.519 94.7649C851.412 96.3219 849.373 97.5243 847.787 98.2944C845.992 99.1347 848.202 98.027 845.929 99.063C843.457 100.104 842.961 100.264 842.28 100.491C841.854 100.626 840.513 100.943 839.278 101.213C834.164 102.499 826.399 102.405 825.585 102.313C825.52 102.31 825.378 102.304 825.166 102.292C822.468 102.54 809.886 99.8197 809.396 99.219C809.056 99.0711 809.839 99.1804 806.714 98.1768C805.793 97.787 804.843 97.3469 803.935 96.8877C804.104 96.9194 804.274 96.9502 804.443 96.9801C799.063 94.2563 800.858 95.2463 796.148 91.8067C784.62 83.4973 774.831 63.7846 762.017 53.4026C759.176 51.1431 758.015 50.3349 754.252 48.2343C750.845 45.9862 740.698 43.1896 742.84 44.0439C738.123 42.8844 735.509 42.8328 733.349 42.7301C731.553 42.674 730.216 42.6679 728.192 42.6285C727.648 42.6799 727.11 42.739 726.578 42.8054C721.786 43.0602 720.274 43.3897 715.21 44.7787C713.048 45.4696 715.483 44.4436 711.211 46.1536C710.391 46.4553 709.588 46.7731 708.776 47.1188C708.947 47.0032 709.12 46.8885 709.295 46.7745C704.661 48.8841 704.452 49.1984 705.007 49.004C702.844 50.1371 700.751 51.4114 698.735 52.7894C698.512 52.9995 698.291 53.2106 698.072 53.4229C698.289 53.0966 715.282 41.0173 733.342 42.8501C745.829 43.1341 756.227 49.1724 758.694 51.083C766.624 56.0375 777.307 70.7588 781.542 76.37C783.273 78.6272 783.941 79.7044 786.591 82.8531C789.23 86.0178 792.993 89.5225 794.676 90.8798C797.294 93.3846 806.074 98.9233 812.532 100.429C815.618 101.304 817.967 101.658 817.989 101.691C818.058 101.667 815.776 101.583 810.24 99.8494C810.853 100.106 811.48 100.352 812.122 100.588C820.995 102.545 817.968 101.961 825.148 102.641C825.288 102.648 825.432 102.656 825.578 102.663C828.877 102.983 836.495 102.158 836.097 102.334C832.46 102.881 828.818 102.96 825.142 102.755C822.688 102.615 820.536 102.372 818.419 102.034C817.932 102.022 811.771 100.869 808.853 99.6486C806.162 98.523 808.029 99.3273 802.357 96.6878C798.421 94.2128 796.262 92.637 795.271 91.8944C793.611 90.5763 793.505 90.3272 791.961 88.873C790.289 87.268 789.153 86.141 788.933 85.9109C786.538 83.7948 776.473 70.3667 776.036 69.6998C776.463 70.2288 776.887 70.7589 777.31 71.2876C774.7 67.7686 775.15 68.577 774.437 67.6684C773.912 66.9868 773.382 66.3086 772.847 65.6353C773.078 65.8869 773.309 66.1394 773.539 66.3926C770.261 62.3538 772.817 65.4168 767.92 59.8597C764.769 56.3555 760.999 53.1876 760.618 52.9307C760.51 52.8495 761.647 53.8139 760.118 52.637C757.611 50.6168 752.735 47.961 752.169 47.6699C750.752 47.0178 750.826 47.1645 750.637 47.0793C750.019 46.4247 738.252 43.0586 733.321 43.2555C732.625 43.2207 732.083 43.2049 731.737 43.1964C724.014 42.9494 715.275 44.4828 707.685 48.1747C706.909 48.5488 707.379 48.26 706.608 48.644C705.293 49.1728 699.281 52.9828 698.478 53.6867C696.275 55.1718 690.969 59.6621 690.218 60.4548C690.106 60.5614 691.838 59.0778 689.887 60.893C687.744 62.9326 688.842 61.7757 688.722 61.8834C684.346 66.0197 681.831 68.856 679.019 71.818C678.113 72.7782 676.375 74.5035 675.1 75.8484C674.952 76.0049 675.298 75.7451 675.153 75.8996C673.218 77.9536 671.257 79.6976 670.371 80.5224C668.192 82.5392 669.434 81.4971 669.322 81.6066C667.879 82.9398 665.86 84.691 663.475 86.4618C657.054 91.2803 650.066 93.9285 642.579 93.4937C637.725 93.2529 632.817 91.7857 627.992 89.0426C626.453 88.1839 624.741 86.9441 624.523 86.7896C623.843 86.3093 623.955 86.5247 622.033 85.0694C617.975 81.9322 614.531 78.5892 610.976 74.9056C610.261 74.1621 610.015 73.798 609.474 73.2243C607.655 71.3189 601.445 64.7677 601.507 64.5029C597.796 60.7683 595.523 58.0988 592.496 55.1096C585.546 47.8689 572.473 38.2151 562.435 35.7836C560.402 35.1992 559.397 34.932 558.244 34.6928C557.261 34.4843 554.041 33.9193 550.769 33.7742C547.138 33.5669 543.632 33.9061 543.308 33.9389C542.096 34.122 542.702 33.446 536.439 35.0822C532.787 36.0911 533.207 35.9584 532.46 36.1843C526.622 38.1482 521.789 41.7105 522.61 40.904C516.619 44.7237 513.359 47.9516 511.064 49.6798C511.158 49.7284 508.735 51.9754 505.882 54.7276C508.729 51.8263 508.068 51.8772 515.72 45.5773C515.843 45.4807 515.655 45.7225 515.777 45.626C516.882 44.7475 519.227 42.936 521.273 41.6278C523.324 40.3295 522.213 41.0951 523.039 40.5854C523.803 40.1302 523.739 40.0799 524.866 39.4497C528.524 37.415 532.032 36.0863 534.315 35.4009C535.78 34.9511 537.394 34.6229 538.562 34.3895C541.314 33.7985 546.151 33.2299 550.784 33.4966C553.552 33.6296 556.173 33.9925 558.261 34.4121C559.411 34.6584 558.945 34.5859 561.468 35.2337C561.757 35.3179 562.861 35.5073 565.036 36.2332C567.195 36.9635 568.826 37.7069 570.155 38.3123C571.266 38.8361 570.849 38.5291 573.079 39.6859C575.524 39.8873 593.691 54.9925 594.166 56.2883C595.442 57.5993 595.975 58.2868 596.754 59.0847C596.891 59.225 597.183 59.4056 597.654 59.8946C605.445 67.782 621.256 87.5194 633.485 91.1625C636.44 92.2663 639.498 92.916 642.6 93.0735C666.309 93.6162 677.201 68.9306 695.963 55.0381C696.339 54.7285 696.719 54.422 697.102 54.1189C694.881 55.7683 692.762 57.532 690.717 59.3696C690.677 59.3512 690.637 59.3329 690.597 59.3145C687.847 61.813 688.299 61.5744 688.408 61.5376C687.395 62.4637 686.399 63.4028 685.413 64.3537C684.642 65.2553 678.308 71.7946 675.101 75.1375C672.997 77.3299 670.502 79.8554 669.321 80.9352C666.868 83.1815 666.835 83.027 666.646 83.202C666.332 83.4878 662.811 86.5546 659.977 88.2442C655.743 90.6036 655.286 91.0394 648.911 92.587C646.886 92.9233 644.795 93.0434 642.608 92.9235C635.901 92.622 629.227 89.6858 623.571 85.5119C625.041 86.5116 618.333 81.5411 615.669 78.7882C599.444 63.0198 581.177 36.4294 555.288 33.6418C553.589 33.4055 552.112 33.2608 550.8 33.1721C549.717 33.0994 548.795 33.0688 548.008 33.0703C547.065 33.077 546.666 33.1637 545.324 33.2192C545.093 33.2405 544.91 33.1199 542.48 33.3625C536.094 33.3287 522.121 40.0099 519.192 42.5017C502.163 54.4011 491.221 73.3088 472.608 80.6331C472.139 80.7762 471.668 80.9108 471.193 81.0366C469.127 81.9062 462.966 83.5148 456.685 83.0745C452.65 82.8822 448.795 81.9235 446.202 80.9398C434.01 76.8824 424.15 62.646 417.79 53.2996C416.378 51.2431 415.264 49.5277 413.901 47.584C413.315 46.7481 412.53 45.748 411.904 44.8841C405.288 35.1448 393.062 22.5455 380.446 20.1171C377.636 19.4264 374.802 19.0286 371.888 18.8765C345.161 16.9543 329.041 40.1405 312.672 56.9409C303.245 66.7099 291.124 74.8294 277.513 73.7861C236.915 70.8619 230.569 11.4875 185.953 9.2695C164.497 6.41296 150.818 26.4772 140.065 40.7307C128.687 55.9793 110.37 64.1193 91.4558 64.1812C89.9708 64.2247 88.5197 64.2278 87.1013 64.1927C85.9184 64.1592 85.98 64.0883 85.0278 64.0423C79.4741 64.0284 67.3895 61.4971 61.8187 58.5813C57.252 56.6393 50.8375 52.0566 49.4832 51.0243C60.7781 60.3012 76.141 64.9481 91.4604 64.3364C94.7905 64.2422 97.9473 63.9943 101.115 63.5542C102.36 63.3775 102.587 63.4001 102.738 63.3783C105.724 62.8612 103.804 63.1936 108.04 62.2205C109.511 62.2757 121.961 57.4365 120.33 57.6872C121.737 57.0566 127.429 53.9598 132.253 49.4773C137.128 45.0954 141.287 39.6694 142.624 37.9399C143.436 36.8754 142.806 37.5866 142.966 37.3744C143.658 36.4515 144.036 36.0978 144.665 35.2691C146.312 33.0805 150.505 27.3996 151.394 26.3694C153.224 23.8884 159.779 17.033 163.5 14.9459C166.793 12.9387 166.129 13.2169 169.189 11.8767C171.673 11.0084 168.926 11.7747 174.622 10.3255C176.523 9.84162 181.941 9.20978 185.941 9.48883C187.768 9.57576 189.233 9.75304 189.972 9.85418C192.43 10.1959 195.085 10.783 198.282 11.8493C203.043 13.1208 212.132 18.6862 215.697 22.0666C215.919 22.2561 216.508 22.675 217.039 23.1578C218.137 24.1649 217.747 23.9271 218.559 24.7067C219.689 25.2286 232.278 39.9394 234.13 42.5977C235.524 44.3635 236.524 45.5436 237.297 46.5143C237.902 47.2744 237.909 47.401 238.528 48.1719C238.725 48.4153 240.398 50.4023 242.079 52.3944C243.589 54.3431 249.917 61.1306 250.78 61.7575C251.295 62.227 250.758 61.6899 252.292 63.0516C253.695 64.276 254.628 65.0916 255.469 65.7308C257.437 67.227 259.773 68.68 262.078 69.8669C268.81 73.0553 268.624 72.4863 269.008 72.7311C270.203 73.0781 270.715 73.1062 271.102 73.195C272.48 73.5295 275.551 73.9815 277.5 74.0465C277.906 74.0665 278.254 74.0775 278.52 74.084C280.436 74.1119 281.225 74.1655 283.254 73.9806C284.723 73.8398 287.778 73.3354 291.016 72.2245C298.447 69.8372 305.951 63.9433 311.471 58.4734C313.137 56.8382 313.418 56.6259 313.921 56.1182C316.541 53.435 317.901 51.8187 318.631 51.0346C323.788 45.3916 333.142 35.1907 338.943 30.7836C341.046 28.7664 352.053 21.4139 359.522 20.2324C360.352 20.0498 359.595 20.2656 360.502 20.0673C362.686 19.6284 362.481 19.5864 363.624 19.4284C364.172 19.361 365.393 19.2717 367.015 19.1958C368.754 19.1157 370.319 19.1331 371.871 19.2135C377.596 19.518 381.747 20.6783 384.554 21.6895C417.876 34.464 422.042 82.3318 456.665 83.4695C458.719 83.5758 460.668 83.5398 462.653 83.3552C466.21 83.0215 470.58 82.0622 475.515 79.8311C475.679 79.7908 475.844 79.7494 476.008 79.7071C476.165 79.5961 476.322 79.4836 476.478 79.3705C481.911 76.5058 483.778 75.0446 488.699 71.0483C489.124 70.6965 490.479 69.7161 491.125 68.8772C495.852 64.6834 493.223 66.9523 496.592 63.6647C499.936 60.3474 503.166 57.0703 506.483 53.8668C508.319 52.1392 500.903 59.6907 500.439 60.1894C499.659 60.9736 498.782 61.7229 498.024 62.4709C495.787 64.6888 493.639 66.8378 493.065 67.2562C490.16 70.0707 493.822 66.6175 493.504 67.0119C491.517 68.8429 489.477 70.6295 487.372 72.3023C486.931 72.8386 483.748 75.3948 480.542 77.3174C477.356 79.2834 474.172 80.5531 474.685 80.4481C473.592 80.8806 472.492 81.2634 471.373 81.5981C466.579 83.355 463.497 83.8636 456.66 83.5689C456.654 83.5686 456.649 83.5682 456.643 83.5679C456.649 83.5685 456.654 83.5692 456.66 83.5698C457.158 83.6281 457.652 83.6777 458.142 83.7188C458.097 83.722 457.457 83.7215 456.654 83.6842C454.915 83.6198 452.657 83.2836 454.101 83.3769C447.989 82.5785 448.305 82.2812 443.152 80.3377C440.235 78.8219 441.905 79.8631 437.055 76.5343C434.235 74.4761 431.022 71.4898 428.432 68.4996C427.837 67.816 427.638 67.4653 427.119 66.8409C426.602 66.2135 426.295 65.952 425.684 65.1845C424.413 63.5918 422.89 61.438 422.139 60.4002C421.471 59.4801 420.464 58.18 418.887 55.9135C413.384 47.9613 415.106 50.3147 414.263 49.0387C413.346 47.669 412.583 46.7606 410.652 44.0951C410.457 43.8286 411.025 44.4707 410.385 43.6095C409.863 42.9187 409.554 42.6003 407.77 40.3524C407.429 39.1719 394.807 26.4008 391.919 25.6078C388.464 23.1694 379.497 19.9928 375.122 19.7444C374.094 19.6196 372.995 19.5484 371.855 19.5085C371.181 19.4848 370.509 19.4729 369.847 19.4658C363.97 19.2017 354.473 21.1817 347.99 24.9785C341.922 28.0009 333.123 35.8693 330.743 38.6027C324.258 45.2914 322.781 46.9717 322.281 47.4666C321.004 48.8601 320.475 49.5553 318.866 51.3086C309.007 62.2005 295.164 75.8215 277.481 74.3971C259.18 73.7978 246.535 58.6588 237.544 47.4164C224.57 30.8827 209.457 10.5004 185.923 9.83742C164.798 7.03766 151.394 26.6438 140.541 41.0466C129.123 56.402 110.509 64.7122 91.4728 64.7549C83.5906 64.9938 75.6418 64.0908 68.1889 61.6832C68.0092 61.66 67.8299 61.6361 67.6509 61.6115C74.8257 64.0826 83.8147 65.2055 91.4781 64.9354C91.8125 64.9261 92.1423 64.9153 92.4675 64.9029C103.063 64.9207 118.171 60.4171 124.589 56.0641C121.962 57.8125 117.329 59.815 117.451 59.8553C122.574 57.6662 127.316 54.6629 131.538 51.0079C131.377 51.0767 131.212 51.1478 131.054 51.2123C135.486 47.4334 139.403 42.9165 142.994 38.2628C143.619 37.4525 143.139 37.9962 143.681 37.291C144.284 36.5019 143.914 37.0668 144.027 36.9192C145.552 34.9175 145.966 34.2708 146.151 34.0287C146.623 33.4028 146.296 33.9163 147.676 32.1016C150.23 28.7279 152.062 26.2875 151.597 27.1963C152.447 26.1366 153.338 25.0636 154.237 24.0395C154.428 23.7351 154.625 23.4272 154.823 23.1237C160.722 17.0509 164.074 14.6308 168.506 12.9341C169.884 12.2779 171.397 11.6939 172.858 11.2432C173.713 11.0669 174.635 10.912 175.469 10.8091C175.624 10.7288 175.781 10.6494 175.94 10.5709C179.241 9.99628 182.478 9.8553 185.914 10.0243C191.14 10.2727 196.311 11.43 200.827 13.304C205.938 15.5487 207.065 16.3283 211.113 19.1249C219.669 25.9304 211.29 19.059 217.992 25.1492C217.692 24.7803 217.389 24.414 217.082 24.0505C218.202 25.0501 219.297 26.0848 220.361 27.1391C221.058 27.9202 221.742 28.7124 222.412 29.5091C225.732 32.745 227.449 35.2148 227.856 35.6904C228.176 36.083 229.426 37.3178 232.707 41.6683C231.471 39.7672 235.284 44.9266 235.599 45.326C235.9 45.7148 239.811 50.5557 241.447 52.4737C242.708 53.991 245.463 57.2183 247.525 59.3021C249.358 61.1554 249.234 60.8934 249.366 61.0302C251.685 63.2097 250.191 61.897 251.902 63.4345C253.63 64.9534 255.097 65.976 255.488 66.2742C255.687 66.4253 254.975 65.9818 255.892 66.6667C258.318 68.5458 263.184 71.2588 266.494 72.3662C267.66 72.7925 269.118 73.2987 270.476 73.6232C272.5 74.0998 273.559 74.1645 274.735 74.3186C274.978 74.3469 275.967 74.5159 277.47 74.6243C278.568 74.703 279.878 74.7407 281.285 74.6681C281.966 74.6284 283.766 74.3101 286.333 74.1839C286.515 74.1003 286.696 74.0153 286.875 73.929C297.841 71.0386 300.4 68.5121 304.339 65.4118C310.812 60.184 306.476 63.898 307.201 63.3452C307.674 62.9757 309.669 61.1385 309.888 60.9259C310.28 60.5672 310.244 60.6611 310.668 60.2612C318.261 52.7721 314.793 55.9921 317.111 53.5322C322.495 47.5303 326.942 43.0607 317.387 53.3391C317.405 53.3558 317.422 53.3725 317.44 53.3893C319.782 50.859 325.696 44.358 323.813 46.6124C322.414 48.4778 307.987 63.4472 316.254 55.0611C318.114 53.1419 318.99 52.0614 322.243 48.752C324.321 46.4929 324.441 46.0065 327.344 43.0253C326.82 43.4706 326.297 43.9184 325.775 44.3677C329.532 40.1136 334.596 35.237 337.946 32.4134C339.033 31.3988 343.14 27.8955 342.353 28.949C344.188 27.1638 354.806 21.8201 357.074 21.5537C357.59 21.5189 358.119 20.5697 365.778 19.81C366.312 19.7927 366.851 19.7847 367.394 19.7863C360.38 20.2716 372.743 19.7374 369.387 20.0776C368.296 19.8975 362.726 20.3278 361.847 20.534C360.337 20.7542 364.777 19.7541 359.105 20.9578C357.365 21.5697 359.029 21.1363 360.94 20.8012C362.846 20.4548 365.062 20.2792 364.287 20.5117C368.366 19.9995 370.446 20.1707 371.817 20.2397C372.958 20.3195 373.533 20.4022 374.303 20.4832C381.492 21.3745 386.035 22.9494 391.891 26.5134C392.615 26.9497 390.382 25.3899 387.585 24.0596C384.795 22.6835 381.417 21.6953 380.656 21.5288C386.218 22.9088 376.733 19.9737 372.532 20.1355C372.3 20.0765 372.067 20.0192 371.832 19.9634C371.712 19.9352 371.593 19.9073 371.474 19.8799C371.594 19.8861 371.715 19.8926 371.835 19.8996C377.124 20.2051 382.246 21.3615 387.074 23.4699C387.386 23.6363 387.694 23.8061 387.998 23.9793C386.889 23.4887 385.779 23.0569 384.641 22.6711C388.691 24.4333 386.454 23.0404 391.54 26.0662C391.735 26.0982 391.93 26.1316 392.125 26.1665C396.958 29.2104 401.118 33.1829 404.797 37.4843C406.954 39.5387 413.294 48.4032 411.954 46.9052C414.467 50.4959 411.441 46.0076 413.834 49.3485C414.873 50.8044 416.848 53.6841 417.293 54.4223C416.933 54.2212 413.964 49.9214 412.949 48.7007C413.404 49.5611 427.517 69.3042 426.324 67.4995C427.56 68.9972 427.024 68.2724 429.4 70.84C435.282 77.9861 448.213 84.916 456.615 84.4233C457.144 84.4378 457.643 84.44 458.111 84.4322C457.599 84.4146 457.102 84.3891 456.619 84.3575C448.592 83.5672 445.838 82.6121 439.999 79.4518C437.979 78.4421 431.542 73.5615 427.331 68.3273C423.027 63.2037 420.096 58.6908 421.942 61.1624C421.327 60.357 420.721 59.5482 420.115 58.7302C419.57 57.8546 419.036 56.9859 418.499 56.1072C420.146 58.4779 421.816 60.8393 423.552 63.1383C423.917 63.7186 424.293 64.3063 424.671 64.8849C424.898 65.1109 425.126 65.3353 425.355 65.5581C426.108 66.4961 426.893 67.4402 427.683 68.3484C427.425 68.1232 427.168 67.8956 426.911 67.6658C428.1 69.0986 429.348 70.5063 430.644 71.8423C430.336 71.4338 430.041 71.03 429.747 70.619C435.954 76.7929 433.863 74.6999 437.627 77.7609C440.664 79.7249 435.49 76.5104 442.116 80.2939C446.108 82.2181 446.911 82.2978 447.919 82.6943C448.969 82.9759 450.291 83.7285 456.047 84.1976C456.218 84.1761 456.39 84.1536 456.561 84.13C456.584 84.1315 456.607 84.133 456.63 84.1345C459.185 84.2994 461.684 84.2436 464.169 83.9507C463.822 83.9551 463.495 83.9526 463.161 83.9468C468.406 83.5875 475.145 80.7849 476.712 80.0757C471.866 82.2408 471.918 82.2532 473.252 81.8683C474.67 81.6279 485.057 76.6094 493.616 68.0555C502.262 59.706 511.088 50.5355 514.399 48.0289C522.499 41.2873 529.754 37.2528 539.236 35.2182C535.986 35.6878 528.768 37.8676 522.75 41.7554C516.672 45.5235 511.659 50.2547 510.029 51.6871C509.71 51.9779 509.611 51.6971 507.802 53.8236C501.279 59.9296 494.295 68.1018 485.422 74.8262C485.649 74.5642 485.874 74.3007 486.097 74.0357C491.592 69.9759 495.784 65.164 495.361 66.021C496.339 65.0773 497.313 64.1168 498.277 63.1579C498.242 63.123 498.207 63.088 498.173 63.0531C499.63 61.6026 501.074 60.143 502.527 58.6842C502.562 58.719 502.597 58.7537 502.632 58.7885C503.834 57.5815 505.042 56.3758 506.261 55.1826C506.353 55.0232 506.446 54.8639 506.539 54.7046C509.983 50.9004 523.797 40.1049 517.824 44.9779C519.75 43.5301 521.748 42.1725 523.826 40.9458C523.801 40.9188 523.776 40.8918 523.751 40.8648C524.642 40.3325 525.554 39.8211 526.474 39.3412C526.185 39.5272 525.899 39.7152 525.612 39.9071C529.775 37.5638 534.14 36.2589 537.146 35.4422C535.156 35.8932 533.151 36.4963 531.218 37.2225C534.889 35.6543 542.072 34.3067 542.772 34.3393C544.706 34.1386 545.845 34.1433 547.948 34.1308C549.885 34.145 549.632 34.1078 549.997 34.1169C550.255 34.128 550.506 34.1409 550.749 34.1552C560.307 35.1388 556.514 35.1375 561.284 35.7957C561.776 35.9772 562.253 36.1625 562.743 36.3601C563.424 36.5208 564.099 36.6947 564.768 36.8814C567.694 37.8901 570.536 39.1688 573.247 40.6538C572.37 40.1051 571.48 39.5801 570.57 39.0767C574.771 41.0947 576.483 42.4733 576.871 42.6929C577.94 43.3823 578.462 43.6498 578.788 43.8701C593.747 55.3971 584.662 48.4253 591.456 54.9075C593.923 57.1747 591.592 54.7139 591.325 54.3027C594.477 57.4595 595.459 58.4473 598.67 61.8755C599.505 62.7719 600.348 63.7789 600.868 64.3452C601.322 64.84 602.776 66.33 603.858 67.5135C605.658 69.4798 608.021 72.1339 610.538 74.7583C612.62 76.9561 619.171 83.5471 624.545 87.0941C626.808 88.6007 626.28 88.281 626.875 88.6552C627.123 88.8103 628.993 89.8333 630.574 90.5619C634.316 92.3307 638.397 93.4488 642.57 93.6609C652.94 94.4388 662.396 88.4829 669.721 81.5013C677.174 74.5295 683.799 66.4202 691.544 59.5518C693.196 58.0972 692.353 58.9054 693.081 58.2784C693.339 58.074 693.552 57.7067 696.251 55.6272C697.234 54.8863 696.146 55.794 697.111 55.0632C697.593 54.7209 697.703 54.4598 700.557 52.511C705.792 49.0363 709.041 47.9398 709.538 47.6844C710.516 47.2645 710.194 47.3235 711.499 46.8109C717.918 44.3674 723.7 43.4783 729.794 43.4089C730.362 43.4053 731.61 43.4002 733.309 43.4871C740.027 43.3145 752.149 47.6296 752.752 48.3636C754.899 49.5188 752.864 48.5361 755.551 50.0714C756.319 50.4934 757.07 50.9351 757.804 51.395C756.685 50.6035 755.494 49.8403 754.309 49.1576C757.648 51.0165 761.114 53.6214 763.198 55.5188C763.614 55.8383 767.015 59.2042 768.6 61.0472C767.896 60.294 767.174 59.5485 766.439 58.8222C766.678 59.0996 766.915 59.3788 767.149 59.6595C770.499 63.1814 773.637 67.2484 776.605 71.2048C777.675 72.6315 777.272 72.18 778.354 73.626C784.74 81.9616 783.075 79.8943 789.597 87.5677C787.086 85.2576 779.398 75.4708 778.371 73.9725C777.624 72.9562 774.94 68.8438 775.751 70.484C769.559 62.4875 775.209 69.23 769.133 61.9672C769.226 62.1372 769.319 62.3074 769.411 62.4779C767.235 59.9925 765.504 58.264 764.092 56.8292C763.605 56.3886 754.961 49.021 748.927 47.1185C744.153 45.2479 738.708 44.2041 733.285 43.9526C729.204 43.7526 725.272 43.9702 721.535 44.5828C718.521 45.0863 716.885 45.4968 716.494 45.5921C715.947 45.7357 714.464 46.2409 713.423 46.6028C709.302 47.5629 698.335 54.0056 696.169 56.346C706.507 47.9323 719.863 43.134 733.28 44.0515C744.614 44.46 755.797 49.0387 763.907 56.9914C762.262 54.2884 778.289 73.4094 778.749 74.6362C779.448 75.5716 778.804 74.8263 779.009 75.1059C780.541 77.1905 781.97 78.872 782.479 79.5144C782.868 80.0035 783.608 81.0287 785.035 82.7322C785.298 83.0441 785.407 83.0998 785.692 83.4328C787.574 85.6339 789.524 87.7291 791.644 89.7126C791.772 89.8336 792.26 90.3835 792.811 90.8707C793.363 91.3615 793.962 91.7745 794.104 91.8925C795.861 93.4089 799.089 95.7476 801.011 96.8277C801.678 97.2127 801.239 96.9051 801.992 97.3279C804.288 98.5445 803.503 98.3013 806.466 99.5829C807.472 99.9842 807.46 99.9252 809.403 100.627C810.789 101.106 810.61 101.174 810.831 101.253C811.14 101.416 816.152 102.597 817.756 102.885C814.112 102.505 821.774 103.54 821.377 103.299C822.58 103.445 823.82 103.559 825.096 103.641C825.918 103.693 826.725 103.73 827.516 103.753C828.207 103.739 828.886 103.713 829.552 103.677C837.776 103.497 842.801 102.441 849.98 98.7374C850.387 98.6872 856.019 94.8595 855.716 94.9933C852.592 97.6153 848.97 99.5758 846.537 100.46C842.606 102.173 842.521 102.284 835.703 103.428C833.356 103.728 833.234 103.751 832.967 103.782C830.635 103.971 828 104.025 825.084 103.877C816.888 103.623 808.105 100.891 804.156 98.6715C802.587 98.0101 808.15 100.539 805.967 99.6088C805.357 99.4515 797.895 95.91 792.933 91.2975C787.893 86.8129 784.628 82.58 787.99 86.2712C787.282 85.5154 786.589 84.7472 785.907 83.9671C785.065 83.3245 781.862 79.2779 782.381 79.6157C782.049 79.2559 781.719 78.8943 781.39 78.5315C780.773 77.7885 780.066 76.8939 779.092 75.6213C777.143 73.2683 771.22 64.3219 763.908 57.3014C756.689 50.0579 747.306 46.809 746.444 46.6206C746.388 46.6483 746.333 46.6761 746.277 46.704C762.027 51.5545 771.348 65.5737 781.762 79.4253C781.479 78.9977 781.197 78.5692 780.918 78.14C785.147 83.723 789.703 89.1553 795.248 93.5371C789.137 89.1546 781.647 79.8182 777.109 73.5174C776.287 72.403 776.941 73.1809 776.756 72.9222C776.271 72.2486 775.662 71.5856 773.847 69.2231C772.075 66.8189 767.306 61.0629 766.785 60.6118C765.897 59.6333 763.315 57.1823 761.607 55.7435C759.355 53.8515 760.909 55.0646 760.456 54.6854C758.566 53.1424 756.741 51.936 755.099 50.9443C752.732 49.3804 747.327 46.9907 745.313 46.6782C747.282 47.2786 749.147 47.9923 750.983 48.8486C744.953 46.1267 739.16 44.9834 733.249 44.6379C729.326 44.4256 725.417 44.5803 721.207 45.3693C718.844 45.9693 727.577 44.5516 720.194 45.8422C721.56 45.5743 722.856 45.3747 724.241 45.2171C724.556 45.1359 724.885 45.0566 725.188 44.9827C727.509 44.8012 729.884 44.7743 732.247 44.8915C731.567 44.8265 730.893 44.7734 730.226 44.732C731.215 44.7291 732.223 44.7518 733.241 44.8012C740.646 45.0646 747.227 47.2626 749.47 48.4784C749.649 48.4958 749.829 48.5144 750.007 48.5339C757.331 51.3509 765.833 59.6605 764.026 58.3303C764.3 58.5757 764.572 58.8237 764.843 59.074C768.057 62.5062 766.742 60.9901 767.945 62.2888C768.35 62.6083 774.037 69.8244 771.431 66.6961C776.883 73.819 775.374 71.5037 776.887 73.4655C780.146 78.2276 786.979 86.1231 784.013 82.8856C784.559 83.5549 785.113 84.2187 785.676 84.8756C787.674 86.8987 789.466 89.0688 791.718 91.1963C792.496 91.9048 793.289 92.5907 794.103 93.255C794.684 93.653 795.281 94.0454 795.875 94.4177C803.898 100.201 801.76 97.6291 805.511 100.222C804.863 99.9797 804.195 99.7121 803.54 99.4327C802.027 98.7108 800.551 97.9081 799.122 97.0332C804.837 100.661 811.36 102.984 818.001 104.06C820.642 104.537 822.783 104.75 825.032 104.876C829.995 105.088 834.409 105.029 840.914 103.597C841.749 103.373 842.655 103.101 843.501 102.814C842.647 103.197 839.33 104.3 845.531 102.306C846.106 102.233 841.889 103.722 839.943 104.002C839.472 104.093 843.446 103.102 838.943 104.113C835.806 104.591 841.538 104.121 832.201 105.05C832.547 105.053 832.89 105.054 833.231 105.051C832.239 105.13 831.222 105.184 830.177 105.211C829.24 105.179 828.412 105.125 827.504 105.054C826.639 105.071 825.9 105.081 825.022 105.067C823.542 105.029 821.889 104.997 818.557 104.495C820 104.658 818.049 104.321 815.516 103.802C815.508 103.842 815.5 103.882 815.492 103.922C809.311 102.469 811.428 102.924 806.43 101.189C805.95 100.959 805.477 100.722 805.013 100.48C802.142 99.7222 793.334 93.6915 795.092 94.5969C792.542 93.0086 788.091 88.6035 786.706 86.7646C786.556 86.6618 786.407 86.5584 786.258 86.4545C785.43 85.5514 784.621 84.6319 783.829 83.7012C783.41 83.1632 782.996 82.6223 782.587 82.0786C782.024 81.4233 781.467 80.7632 780.916 80.1C780.627 79.6651 780.34 79.2294 780.056 78.7932C779.173 77.7284 778.3 76.6562 777.433 75.5846C776.953 74.8917 776.473 74.1975 775.995 73.5049C775.878 73.4755 770.864 66.8593 769.402 65.0923C768.946 64.5807 768.486 64.0733 768.02 63.5709C767.832 63.2912 767.643 63.0126 767.453 62.7351C767.092 62.3747 766.729 62.0193 766.362 61.6661C765.596 60.7803 764.813 59.9146 764.007 59.0709C760.449 55.9178 760.358 55.8151 759.532 55.111C758.041 53.7388 752.197 50.3135 751.105 49.9379C750.1 49.4542 749.626 49.1733 748.774 48.8181C741.732 46.1036 739.38 46.2665 738.69 46.0922C737.968 46.0251 738.757 46.1849 737.23 45.999C735.724 45.8305 734.599 45.6785 733.199 45.6035C733.129 45.5999 733.058 45.5965 732.987 45.5934C730.456 45.0734 718.04 46.6599 717.449 47.1949C716.429 47.4608 718.731 46.4816 715.464 47.4977C715.377 47.574 708.544 50.0569 711.783 49.0299C708.998 50.1083 706.306 51.4465 703.729 52.9888C704.125 52.9853 700.87 54.7586 697.676 57.2698C693.014 60.6347 683.977 70.1473 684.181 69.6826C683.244 70.7231 682.314 71.7696 681.383 72.8184C674.707 79.6733 668.321 86.9826 659.59 91.8521C654.519 94.671 648.505 96.2627 642.454 95.9015C616.352 93.2891 603.88 67.5657 587.267 53.4784C586.281 52.5786 586.467 52.6587 585.748 52.0195C582.109 48.4943 571.319 40.9437 564.574 38.946C562.475 38.2051 561.427 37.8752 560.753 37.6873C558.43 37.088 558.936 37.323 557.869 37.0906C556.953 36.8961 553.876 36.3108 550.646 36.1368C547.9 35.9637 545.208 36.0836 543.766 36.2206C542.208 36.3577 540.374 36.688 538.572 37.0567C538.416 37.0885 538.688 36.9577 538.556 36.9848C535.29 37.7423 537.27 37.3428 536.178 37.6185C528.331 39.7002 520.817 44.4491 514.102 50.3199C512.418 51.7645 509.894 54.0544 508.515 55.3897C507.989 55.8987 508.964 55.0185 507.153 56.7835C506.534 57.3904 506.274 57.5495 505.575 58.2377C502.57 61.2095 501.742 62.3882 499.022 64.8372C494.132 69.8855 484.776 78.2031 478.744 81.0737C477.359 81.7967 476.655 82.0863 475.289 82.6804C474.313 83.1035 472.611 83.8327 471.011 84.3157C469.437 84.7968 466.891 85.4115 463.711 85.775C461.197 86.0824 458.203 86.1084 456.533 86.0173C456.002 85.9928 455.619 85.9655 455.435 85.9512C454.517 85.876 454.103 85.755 453.214 85.6402C450.43 85.4569 443.265 83.3682 440.206 81.4578C436.853 79.5946 435.109 78.0899 434.087 77.2885C433.151 76.539 432.061 75.6552 431.656 75.2812C431.028 74.7024 430.935 74.5145 430.163 73.7589C428.905 72.5131 427.623 71.2323 425.92 69.233C410.072 49.7853 398.299 22.2704 371.735 21.8227C350.856 20.0627 335.15 36.4865 321.941 51.3397C318.495 55.0454 316.685 57.2723 311.184 62.4322C308.912 64.4832 309.827 63.5605 308.021 65.1284C307.207 65.8145 307.459 65.6916 306.407 66.5363C301.799 70.3609 295.434 73.5062 292.94 74.3099C291.957 74.6664 290.876 75.1358 288.788 75.6613C285.2 76.5513 281.335 76.9266 277.361 76.7159C263.976 76.4173 251.611 67.4373 243.291 57.8773C237.275 51.3557 229.474 40.5873 222.882 33.1466C213.509 22.1356 200.583 12.5946 185.801 12.2009C172.681 10.978 161.248 17.9228 154.191 27.2424C140.599 48.0121 118.569 68.4144 91.5434 67.1413C78.7241 67.5837 65.6191 64.8141 54.5758 58.0941C64.0973 64.1204 77.9095 67.8204 91.5469 67.2585C100.023 67.0359 108.527 65.638 115.823 62.8699C146.759 54.1773 151.895 8.53442 185.792 12.3674C216.263 13.4697 229.122 46.0451 250.306 65.1125C257.026 71.1593 266.627 76.4914 277.352 76.8964C291.469 78.0658 304.638 69.5435 313.475 60.589C314.219 59.869 315.683 58.3344 317.22 56.7309C317.556 56.4064 321.593 52.2096 322.897 50.7649C321.526 52.0146 326.777 46.466 328.379 44.7599C330.406 42.6099 334.526 37.9859 339.804 33.65C344.66 29.8207 343.423 31.0238 343.678 30.7936C345.464 29.5593 346.048 29.064 347.46 28.1896C350.316 26.3048 360.451 21.1396 371.724 22.0318C382.357 22.2925 391.756 28.0042 395.276 31.0671C397.221 32.661 397.198 32.7972 397.624 33.1696C398.737 34.1793 400.321 35.6272 401.952 37.4309C404.906 40.6629 407.899 44.7971 409.322 46.7745C412.782 51.4656 418.883 60.8468 423.754 66.9348C425.116 68.6362 424.996 68.5794 425.631 69.339C428.249 72.8138 436.91 80.6895 442.223 82.731C446.647 84.8288 451.565 86.0163 456.519 86.2704C460.736 86.5009 464.991 86.1322 469.068 85.0935C469.639 84.9829 470.206 84.8607 470.768 84.7273C471.637 84.4351 472.503 84.1117 473.345 83.7655C488.094 78.2589 498.096 65.7227 508.611 55.6783C509.792 54.4493 516.018 48.9251 517.147 48.1379C518.043 47.4229 518.884 46.6644 520.267 45.6817C522.221 44.3411 520.447 45.6847 523.659 43.5483C524.537 42.9969 523.636 43.45 525.421 42.3792C525.714 42.2048 528.763 40.4348 532.022 39.1862C535.267 37.8886 538.691 37.1702 539.051 37.1064C540.222 36.8738 541.271 36.8588 541.579 36.8178C543.167 36.6186 543.091 36.5343 544.142 36.4268C546.353 36.2085 548.993 36.2458 550.635 36.3595C551.334 36.404 551.818 36.4489 551.974 36.4604C558.233 36.583 569.451 40.2963 574.895 44.0759C575.665 44.5599 575.528 44.5722 575.662 44.6589C576.521 45.2258 577.103 45.5067 577.913 46.0626C582.316 48.9955 588.502 54.6298 592.241 58.5114C592.676 58.9533 593.623 59.8601 594.388 60.6648C598.691 65.2385 597.23 63.8256 597.476 64.0813C598.048 64.7085 599.114 65.7491 600.648 67.4186C604.569 71.7035 612.165 80.073 617.06 84.2027C620.694 87.3013 620.69 87.2504 620.917 87.4575C621.452 87.8515 622.977 88.9714 625.72 90.6248C631.102 93.6372 630.578 93.1766 632.942 94.1338C633.152 94.1876 632.79 94.0824 635.53 94.868C637.238 95.33 639.672 95.8357 642.449 95.9829C648.32 96.4756 655.232 94.3838 658.698 92.4622C660.7 91.4066 661.106 91.0847 663.024 89.8252C666.131 87.9026 672.121 82.5256 672.544 82.0475C672.671 81.9254 672.904 81.6023 673.645 80.8756C674.462 80.0731 675.278 79.3044 675.87 78.7009C679.255 75.2395 684.796 69.1612 683.419 71.0086C684.434 69.8522 685.439 68.7162 686.467 67.5805C693.439 60.5113 700.749 54.0956 709.555 50.0925C711.539 49.1922 713.247 48.6088 714.978 48.0529C716.681 47.3122 724.584 45.7745 725.963 45.8337C726.961 45.7494 729.888 45.5634 733.192 45.7441C737.8 45.9183 742.733 47.0455 743.682 47.3399C746.885 48.1844 749.8 49.5703 750.993 50.1302C751.961 50.589 751.115 50.0723 752.944 51.0178C756.154 52.5943 760.858 56.4898 761.631 57.2695C761.962 57.6017 761.417 56.8889 764.545 59.9912C766.205 61.6939 767.002 62.7061 767.574 63.3559C767.74 63.5721 767.593 63.1509 770.583 66.853C772.624 69.4304 773.41 70.6143 773.623 70.8864C773.938 71.3016 774.753 72.262 776.012 73.9455C778.918 77.8915 784.404 85.15 787.796 88.5357C788.449 89.1868 788.238 88.9561 790.921 91.4805C792.884 93.2533 792.511 92.9776 793.265 93.619C794.483 94.6154 796.368 96.0315 799.329 97.8524C801.463 99.6207 814.538 105.371 825.004 105.404C831.05 105.772 835.892 105.077 836.509 104.992C837.616 104.852 838.917 104.605 839.489 104.519C839.02 104.654 838.533 104.784 838.059 104.904C833.155 105.531 835.077 105.331 833.786 105.498C832.378 105.672 827.916 105.83 824.992 105.645C824.053 105.599 823.305 105.547 822.881 105.519C822.271 105.469 823.639 105.708 820.378 105.393C816.733 104.976 815.281 104.471 813.802 104.328C808.864 102.948 804.255 101.228 809.813 103.298C811.171 103.769 817.401 105.651 824.973 106.002C835.546 107.066 848.15 102.997 851.381 100.696C856.381 98.2329 863.755 91.0041 867.569 85.7889C869.953 82.7693 875.291 75.2888 875.161 75.6967C877.137 73.078 874.976 75.7983 875.379 75.2391C876.143 73.9606 882.645 66.2484 884.162 65.1775C890.682 58.5147 902.206 54.98 911.259 55.7565C910.83 55.7683 910.406 55.7852 909.988 55.8071C907.962 55.5637 898.702 56.7737 897.873 57.4538C902.46 56.1022 907.364 55.7273 912.315 55.9855C921.195 56.4057 929.721 59.0618 936.965 64.0387C937.132 63.3198 949.826 74.9293 950.045 75.9403C949.805 75.744 949.564 75.5489 949.323 75.3551C942.798 68.0588 943.136 68.965 938.144 64.8922C936.002 63.3841 936.589 63.9168 935.509 63.2335C924.203 57.3491 935.591 62.5721 926.609 58.7771C929.323 59.8736 921.809 57.1786 918.201 56.8167C917.792 56.7496 915.21 56.3305 912.305 56.1834C909.139 55.989 905.977 56.1971 905.329 56.2662C898.022 56.3595 887.122 61.8569 882.421 67.4109C878.542 71.5074 876.769 74.1851 873.634 78.4868C871.257 81.7886 871.891 80.8125 870.75 82.37C868.335 85.641 867.634 86.8373 865.743 88.7181C863.968 90.9007 862.064 93.0235 859.965 94.9993C859.938 94.9691 859.91 94.9389 859.882 94.9087C858.557 96.1281 857.157 97.2877 855.68 98.3597C855.268 98.7096 854.849 99.0516 854.429 99.3828C849.456 102.425 851.447 100.974 850.458 101.43C849.334 102.009 848.21 102.522 847.049 102.989C846.178 103.442 845.297 103.861 844.415 104.245C839.087 105.996 833.515 106.632 828.056 106.584C827.706 106.541 827.355 106.495 827.002 106.446C826.989 106.486 826.977 106.527 826.964 106.568C826.302 106.553 825.63 106.528 824.948 106.493C816.349 106.076 807.686 104.008 800.092 99.6726C798.999 99.0619 801.651 100.749 804.958 102.182C808.276 103.669 812.184 104.719 812.707 104.841C815.506 105.59 820.315 106.427 824.94 106.639C830.535 106.977 835.526 106.35 835.592 106.417C839.565 106.27 851.061 102.303 854.073 99.9124C849.304 103.03 843.791 105.091 838.242 106.047C838.42 106.065 838.624 106.077 838.815 106.091C832.245 106.958 831.021 106.899 824.928 106.877C824.532 106.866 824.119 106.852 823.687 106.834C823.685 106.768 823.683 106.702 823.681 106.636C818.713 106.718 810.225 104.198 809.897 104.255C807.372 103.446 804.877 102.434 802.478 101.221C799.9 99.923 800.601 100.33 799.424 99.7248C798.387 99.0059 794.844 97.7849 786.97 89.8703C785.917 88.7648 786.175 88.9525 784.638 87.2629C784.21 86.7775 781.556 84.0287 777.317 78.402C776.655 77.5262 776.655 77.4224 775.98 76.5117C774.422 74.3965 771.225 70.3725 772.794 72.1138C766.62 64.021 769.045 67.502 767.022 65.1246C765.64 63.5897 766.004 63.8256 764.786 62.5308C763.201 61.0469 764.498 61.8845 757.963 56.3127C758.722 56.8935 759.474 57.5075 760.204 58.1386C759.86 57.7932 759.511 57.4527 759.158 57.1172C755.275 54.1346 755.64 54.4341 753.613 53.3503C750.632 51.5096 747.872 50.1567 743.209 48.8945C736.061 47.306 737.301 47.8866 733.104 47.4411C731.864 47.3613 730.278 47.258 727.835 47.3008C726.073 47.4159 724.34 47.6192 722.617 47.9172C719.814 48.3292 722.003 47.7412 717.854 48.6893C721.132 47.9959 712.38 50.3234 711.13 51.3064C710.966 51.3324 710.802 51.3592 710.638 51.3869C709.757 51.777 708.9 52.187 708.042 52.6275C708.054 52.6582 708.067 52.6888 708.079 52.7194C706.924 53.2851 705.805 53.8849 704.685 54.5362C703.873 55.0679 703.079 55.6167 702.29 56.1894C700.927 57.0284 699.591 57.9223 698.276 58.8659C697.475 59.4874 696.683 60.1282 695.9 60.7835C696.178 60.6124 696.457 60.443 696.737 60.2756C695.718 61.0964 694.717 61.9421 693.725 62.8123C694.929 61.8639 694.239 62.5177 691.247 65.3483C688.807 67.7317 691.404 64.8579 686.267 70.1737C685.907 70.5558 685.374 71.2588 680.496 76.427C674.556 82.6358 677.37 79.5613 676.303 80.6588C676.089 80.8728 674.278 82.7916 672.426 84.5182C671.393 85.4877 670.307 86.372 670.165 86.4948C669.491 87.0798 669.355 87.2914 668.388 88.0885C665.979 90.0935 662.384 92.5456 659.504 93.9838C658.211 94.651 656.944 95.2319 656.331 95.4739C655.379 95.8567 654.13 96.2215 653.126 96.5073C649.795 97.5743 644.628 98.097 642.359 97.7148C642.126 97.6839 641.925 97.6486 641.761 97.6103C637.988 97.8691 630.733 95.0671 631.264 95.3434C621.221 92.502 604.451 74.5095 605.301 74.9153C601.676 71.3822 602.137 71.5871 600.707 70.0346C599.119 68.3039 599.906 69.2359 598.648 67.8601C595.717 64.6554 592.928 61.6258 589.915 58.6299C590.417 59.0711 590.917 59.5162 591.415 59.9649C588.265 56.796 589.306 57.9229 585.988 54.8488C579.764 49.3981 582.391 51.7037 581.54 50.8145C581.793 50.987 573.998 45.3218 573.082 44.9817C572.571 44.7145 574.897 45.7401 569.727 43.0406C569.994 43.2197 570.258 43.4009 570.52 43.5842C568.245 42.1629 561.495 39.7739 560.302 39.5774C559.776 39.4212 556.956 38.3736 554.179 38.3027C553.862 38.2212 553.544 38.1426 553.222 38.0672C552.346 37.988 551.457 37.9316 550.555 37.8991C548.35 37.8205 546.249 37.8871 544.122 38.1077C543.641 38.0761 543.171 38.051 542.67 38.0376C541.708 38.1547 540.766 38.3026 539.842 38.4796C540.467 38.4264 541.098 38.3865 541.734 38.3602C535.857 39.0286 529.296 42.2025 528.14 42.6283C527.028 43.2491 525.932 43.9181 524.863 44.6237C524.113 44.9985 523.369 45.3922 522.63 45.8033C517.727 49.2795 517.743 49.5005 514.626 52.2644C514.711 52.1132 514.796 51.9622 514.881 51.8114C512.599 53.8808 508.557 57.8759 505.354 61.1287C503.831 62.666 501.127 65.272 500.762 65.6409C500.412 66.0163 496.926 69.8518 496.31 70.0403C490.798 75.3777 487.873 77.3403 485.265 79.176C483.549 80.344 482.776 80.9244 480.714 82.1054C477.751 83.7978 474.508 85.0786 472.618 85.6977C471.532 86.058 471.342 86.174 470.59 86.3911C466.975 87.309 469.094 86.8022 465.228 87.475C464.859 87.5311 462.016 88.025 458.807 87.9946C458.237 87.9923 457.374 87.9683 456.434 87.9062C454.385 87.7851 452.236 87.4206 451.917 87.3643C450.096 86.9707 451.469 87.7611 445.459 85.7318C445.619 85.8215 445.781 85.9102 445.944 85.998C438.548 83.401 437.822 82.0512 436.471 81.3115C436.301 81.2069 434.717 80.1906 433.84 79.4928C432.348 78.3205 431.849 77.7558 431.533 77.4835C430.395 76.5388 426.881 73.1499 424.927 70.6825C425.083 71.3949 418.272 62.8094 417.227 60.6867C416.094 59.1619 414.98 57.6282 413.878 56.1076C413.431 55.3832 412.984 54.658 412.539 53.9374C412.214 53.5361 411.889 53.1356 411.564 52.7361C410.093 50.4459 408.616 48.1805 407.092 45.9743C406.918 45.8912 406.744 45.808 406.57 45.7251C406.129 45.1177 405.685 44.5161 405.237 43.9212C404.938 43.4182 404.635 42.9171 404.328 42.4174C403.734 41.6981 403.137 40.9934 402.528 40.2982C402.34 40.157 402.152 40.0169 401.963 39.8782C398.577 36.3437 400.903 37.4171 393.586 31.7938C392.486 30.8918 391.343 30.041 390.167 29.2596C388.72 28.5692 386.152 27.0479 383.911 26.2211C382.324 25.6456 382.385 25.7228 380.191 25.0925C377.932 24.5062 378.055 24.5127 377.874 24.4621C376.033 24.0821 374.602 23.973 373.226 23.8351C373.058 23.8207 372.704 23.7236 371.641 23.6394C371.367 23.6184 371.048 23.5995 370.679 23.5871C368.886 23.5451 367.834 23.6215 365.215 23.8447C363.91 23.9756 363.47 23.9645 362.303 24.1575C356.663 25.0892 351.568 27.8702 347.663 29.7856C346.803 30.259 341.111 34.6193 338.836 36.7755C335.235 40.0289 336.563 38.7256 335.147 40.0519C334.95 40.2507 333.884 41.285 331.018 44.2847C330.504 44.824 330.66 44.7338 330.587 44.8117C327.252 48.3065 320.889 55.4429 316.998 59.3693C316.646 59.7108 314.987 61.691 311.582 64.5344C307.011 69.1342 296.128 76.4467 286.968 77.9403C285.721 78.1828 284.2 78.3159 283.651 78.368C280.479 78.6374 280.227 78.6933 277.264 78.5749C275.712 78.4696 273.501 78.3217 269.889 77.427C270.738 77.676 268.191 77.3056 264.835 76.058C259.871 74.0121 263.407 75.4082 259.554 73.5235C259.535 73.5595 259.516 73.5956 259.497 73.6317C251.084 68.5681 249.615 67.1474 242.95 60.3663C240.603 57.8744 237.484 53.981 236.983 53.3616C236.782 53.128 234.396 50.3351 234.185 50.0651C232.958 48.5325 232.309 47.6358 231.265 46.3149C227.833 41.9221 223.583 36.9727 224.509 37.7395C223.51 36.6164 222.496 35.5024 221.475 34.4165C217.939 30.0009 214.639 27.4347 213.946 26.4902C213.18 25.8653 212.399 25.2548 211.612 24.6702C204.199 18.4293 195.256 14.479 185.704 14.0606C171.633 12.6486 160.353 21.0251 152.09 32.8421C151.591 33.6188 145.019 42.3265 144.582 42.7414C142.878 44.7332 144.562 42.5128 141.101 46.6083C140.767 47.1007 140.425 47.5928 140.076 48.084C135.4 53.0232 137.571 50.6075 135.616 52.4366C134.788 53.2047 135.105 53.006 133.944 54.0244C127.998 60.089 111.917 67.2045 102.817 67.9977C101.052 68.2648 101.313 68.1615 100.761 68.237C99.2246 68.4422 96.2073 68.8296 93.1058 68.9598C92.6131 68.9816 92.1108 69.0002 91.5989 69.0153C72.2297 71.0148 45.9732 58.5694 34.7109 43.4257C33.8656 42.4471 33.808 42.275 33.2463 41.6026C32.4642 40.6739 30.7322 38.5983 29.9664 37.587C29.2447 36.6429 28.8187 35.9991 28.0625 34.9712C24.5951 30.2903 20.2387 23.8291 16.9013 18.8407C16.6184 18.3583 13.1215 13.2209 13.0023 13.1265C12.5388 12.4742 16.2409 16.468 10.4941 9.60484C13.2348 12.4884 14.0998 13.6547 13.5936 12.8319C13.0406 12.0936 11.1871 9.21332 7.28919 6.04293C11.2978 9.10807 14.5501 13.4583 17.7178 17.8377C17.7443 17.8286 17.7709 17.8195 17.7974 17.8104C14.9896 13.8148 12.3748 9.42847 6.70758 5.1806C6.90302 5.28496 7.09982 5.39482 7.29548 5.50832C12.4386 9.17099 16.9686 15.9343 20.0136 19.9653C15.8603 13.8947 11.7815 7.364 5.64762 3.6158C5.97501 3.7753 6.27592 3.93243 6.58947 4.1086C9.67774 5.7438 14.7413 11.6695 16.4799 14.0476C23.3469 22.9899 10.597 6.16918 12.6399 8.94074C20.4462 17.9327 26.2263 28.5624 33.8219 37.8676C33.4618 38.6783 8.45048 -0.331819 5.93457 2.66145C9.30887 4.48628 11.9812 7.22805 14.4254 10.0944C13.3904 8.76448 12.318 7.4868 11.1173 6.25346C11.4672 6.55988 11.816 6.87822 12.164 7.20778C16.6279 11.7984 20.1684 17.1335 23.8148 22.3354C13.4471 6.1024 5.29978 0.201181 2.31118e-05 -1.8252e-05C0.575094 0.0173015 1.14322 0.0694762 1.70396 0.155062C7.74928 -0.47798 20.3173 16.0092 25.8573 24.6654C24.7308 22.8615 19.4531 15.2481 18.2891 13.6746C17.973 13.2193 19.1642 14.7317 18.4355 13.6873C17.4438 12.2781 14.8356 8.68745 12.0932 5.9468C9.40588 3.15998 6.47407 1.54452 7.47545 2.06177C10.1643 1.72872 24.1603 20.5602 26.3736 24.3108C20.2919 15.9045 15.5639 5.38013 4.64623 0.167453C11.7169 2.94235 15.9566 8.01147 22.9318 17.9604C24.0009 19.4764 21.0711 14.8322 17.2606 9.91198C13.6496 4.86618 7.56168 0.476773 7.12902 0.470385C11.6735 2.91499 14.872 6.52387 17.7954 10.0709C15.3667 7.04976 12.7123 4.01671 9.1982 1.58389C9.19948 1.55986 9.20072 1.53582 9.20193 1.51177C18.0395 8.06332 22.3573 16.1515 28.7742 25.1282C28.6623 24.799 24.9147 19.3046 23.0447 16.6129ZM885.663 64.6829C885.865 64.5937 883.022 67.1277 881.572 68.7853C881.806 68.5533 882.041 68.3239 882.278 68.0973C879.021 71.3699 873.749 78.712 873.676 79.0974C871.64 81.9425 872.424 80.6024 871.744 81.5082C871.476 81.8555 868.855 85.6611 866.358 88.5139C865.788 89.2076 865.206 89.8956 864.609 90.5753C864.536 90.7445 864.463 90.9138 864.388 91.0831C863.493 91.9817 862.57 92.8613 861.616 93.7107C871.066 84.2478 876.631 72.4451 885.65 64.6943C885.654 64.6905 885.659 64.6867 885.663 64.6829ZM780.278 81.9521C777.373 78.2431 773.247 72.547 773.964 73.789C775.713 76.1036 777.467 78.4494 779.292 80.7768C779.619 81.1695 779.947 81.5612 780.278 81.9521ZM407.522 46.3104C405.386 43.1958 403.218 40.4672 399.283 36.3419C399.265 36.3701 399.246 36.3983 399.228 36.4265C400.952 37.991 404.948 42.7625 407.522 46.3104ZM974.701 104.547C975.361 105.13 976.042 105.704 976.735 106.258C973.809 104.133 973.4 103.602 970.532 100.774C970.36 100.601 970.391 100.689 970.331 100.629C969.641 99.9248 969.058 99.2327 968.459 98.5782C967.311 97.3164 966.343 96.3065 964.441 94.005C962.971 92.2106 963.034 92.1486 962.525 91.5177C962.07 90.9854 957.748 85.7355 955.157 82.2998C950.211 75.5818 971.564 103.501 974.701 104.547ZM997.921 115.168C997.083 115.073 996.206 114.949 995.345 114.799C997.961 115.083 992.696 114.42 989.058 113.074C989.158 113.158 997.076 115.294 1000.76 115.208C999.799 115.223 998.853 115.209 997.921 115.168ZM916.687 56.1356C919.77 56.566 919.191 56.6727 919.072 56.679C918.128 56.5095 917.135 56.3609 916.17 56.244C916.338 56.2066 916.507 56.17 916.687 56.1356ZM937.922 64.3436C937.127 63.7847 931.446 60.3555 928.487 59.3115C928.357 59.2663 929.189 59.5145 927.107 58.7243C926.535 58.3833 920.153 56.8713 921.591 57.0474C927.451 58.3767 932.974 60.8647 937.915 64.3384C937.917 64.3401 937.92 64.3418 937.922 64.3436ZM943.153 68.6109C942.191 67.7865 941.21 66.9944 940.206 66.2377C939.725 65.7993 939.232 65.3658 938.739 64.947C939.896 65.7843 941.027 66.6737 942.124 67.6016C942.471 67.9342 942.814 68.2707 943.153 68.6109ZM142.498 43.4564C142.731 43.2503 142.967 43.0385 143.2 42.8277C144.012 41.92 147.365 37.1983 146.217 38.6271C145.011 40.2493 143.782 41.8611 142.498 43.4564ZM123.684 59.6825C122.607 60.257 121.504 60.8001 120.359 61.3178C119.108 62.0021 117.865 62.6266 116.534 63.2302C122.391 61.1202 127.937 57.3987 126.894 57.8006C128.097 57.0176 129.244 56.2056 130.365 55.3505C129.459 56.1347 129.67 56.128 132.578 53.8335C133.108 53.2189 136.087 50.7741 138.993 47.5518C136.848 49.8636 134.551 52.069 132.084 54.0829C132.069 54.064 132.053 54.045 132.038 54.0261C137.377 49.364 130.797 55.248 126.883 57.7485C126.565 57.9173 126.243 58.0836 125.919 58.2475C125.195 58.7378 124.45 59.2165 123.684 59.6825ZM517.359 48.5128C516.697 49.0126 516.04 49.524 515.391 50.0428C513.162 52.4095 517.877 47.7625 521.86 45.4043C520.465 46.0576 526.374 42.2584 526.772 42.1559C526.033 42.4826 525.301 42.8275 524.574 43.1893C522.058 44.7817 519.66 46.5828 517.359 48.5128ZM499.885 64.7464C502.114 62.7655 491.812 73.1026 487.654 75.9832C486.697 76.7228 484.886 77.9182 484.162 78.4125C483.739 78.7381 483.314 79.0574 482.879 79.3742C482.398 79.7667 473.73 84.5806 469.798 85.3587C469.431 85.4146 469.063 85.4658 468.692 85.5122C467.28 85.8653 465.924 86.1317 464.482 86.3381C464.657 86.2741 464.831 86.209 465.004 86.1428C463.916 86.349 462.892 86.505 461.805 86.6273C457.551 86.8535 460.203 86.57 456.998 86.5861C456.808 86.5823 456.644 86.5786 456.504 86.5757C455.448 86.5467 455.771 86.6081 456.498 86.6915C457.499 86.8116 459.214 86.8767 459.153 86.9199C462.043 87.0129 468.573 85.9912 471.333 84.9936C472.902 84.3961 471.309 85.5069 477.823 82.377C479.258 81.7175 480.658 80.9882 482.019 80.2044C484.449 78.6411 486.724 76.9129 488.902 75.0794C489.349 74.7937 489.794 74.5032 490.237 74.2082C490.518 74.0511 495.289 69.6003 494.976 69.7878C496.99 68.0817 500.821 64.3019 504.762 60.3331C505.12 59.9299 505.479 59.5273 505.837 59.1256C502.063 63.0014 504.598 60.32 503.416 61.4221C502.734 62.0599 500.669 64.0412 499.885 64.7464ZM167.367 16.4087C160.259 21.1673 164.355 17.7776 157.545 24.3001C158.052 23.8654 158.563 23.4411 159.083 23.0263C162.138 19.4248 168.719 15.8199 167.375 16.4046C167.372 16.406 167.369 16.4073 167.367 16.4087ZM89.5951 67.9522C90.4113 67.9398 91.0504 67.9163 91.5657 67.8917C94.4569 67.706 93.3261 67.7849 99.0637 67.2044C99.0669 67.2041 99.0701 67.2037 99.0734 67.2034C96.4633 67.4829 94.1815 67.6275 91.5601 67.7025C90.5351 67.7305 89.5245 67.7401 88.5279 67.7319C88.8809 67.8076 89.2367 67.8811 89.5951 67.9522ZM336.352 37.453C339.993 34.1972 339.232 34.7669 342.755 32.1471C347.968 28.2339 343.487 31.4396 343.415 31.3502C342.225 32.2667 341.078 33.2174 339.944 34.2138C337.096 36.4892 339.682 34.1932 339.678 34.1896C339.676 34.1916 339.674 34.1935 339.671 34.1955C339.648 34.1683 339.729 34.0775 338.651 34.9757C337.87 35.7866 337.102 36.6157 336.352 37.453ZM353.209 25.6652C351.752 26.4301 351.101 26.7217 355.084 25.1742C355.086 25.1731 355.089 25.1721 355.092 25.1711C355.334 24.8354 359.277 23.7019 361.125 23.377C361.595 23.2601 362.07 23.1512 362.55 23.0507C359.367 23.5318 356.212 24.4211 353.209 25.6652ZM413.362 52.7508C413.202 52.884 411.05 49.7872 413.899 54.2704C414.486 55.1206 415.073 55.9715 415.663 56.8221C416.087 57.3581 416.512 57.8936 416.937 58.4276C424.412 69.3875 427.007 72.2827 414.041 54.1731C414.039 54.1706 414.037 54.1681 414.035 54.1656C413.81 53.6928 413.587 53.2219 413.362 52.7508ZM399.288 34.9431C399.097 34.9071 398.906 34.8719 398.715 34.8374C396.873 32.7225 394.078 30.4032 389.512 27.5207C389.071 27.3059 388.62 27.0959 388.179 26.9014C387.014 25.6823 375.363 22.0773 371.701 22.4845C370.628 22.4542 370.345 22.4791 371.346 22.5544C371.455 22.5634 371.572 22.5725 371.696 22.5821C373.75 22.6945 377.317 23.1685 377.649 23.2651C378.788 23.4954 380.321 23.9338 382.19 24.5333C383.302 24.8814 385.616 25.6147 387.726 26.7038C392.577 28.9082 399.816 35.5538 404.429 41.0591C404.73 41.4796 405.029 41.9033 405.325 42.33C408.602 46.5413 407.604 45.0622 410.42 49.2032C411.618 50.4833 408.766 46.3018 405.778 42.5279C402.813 38.7286 399.57 35.4844 401.388 37.0949C401.386 37.0926 401.384 37.0903 401.382 37.0881C400.696 36.354 399.999 35.6382 399.288 34.9431ZM273.342 76.9326C272.964 76.9214 266.516 75.4637 268.087 75.612C266.008 75.0901 263.94 74.3853 261.956 73.5335C261.962 73.5592 261.969 73.585 261.975 73.6107C263.924 74.511 265.965 75.2701 268.028 75.8503C268.027 75.884 268.026 75.9178 268.025 75.9516C269.604 76.3767 273.593 77.2721 277.323 77.437C281.078 77.6656 284.337 77.2569 284.137 77.346C284.833 77.2168 285.55 77.0652 286.252 76.8947C292.618 75.8932 297.777 73.4694 303.527 69.7112C303.944 69.375 304.359 69.0312 304.761 68.6883C305.059 68.5119 305.356 68.3327 305.651 68.1507C307.656 66.645 309.553 65.0404 311.372 63.3815C317.173 57.815 305.625 68.3291 303.797 69.1651C303.587 69.3104 303.678 69.3724 302.355 70.2651C301.189 71.0455 297.185 73.595 292.427 75.2102C287.69 76.9142 282.371 77.3744 279.905 77.3818C279.862 77.3259 279.819 77.27 279.776 77.214C278.975 77.2404 278.161 77.2434 277.335 77.2221C275.974 77.187 274.65 77.0903 273.342 76.9326ZM431.629 76.0884C431.858 76.3715 432.091 76.6526 432.327 76.9315C437.097 80.9644 440.796 82.6466 439.431 81.7461C439.429 81.7445 439.426 81.7428 439.423 81.7412C436.603 80.1479 434.005 78.2138 431.629 76.0884ZM797.659 97.4391C797.581 97.2452 795.098 95.6219 792.155 93.1997C792.273 93.3436 792.391 93.4873 792.51 93.6306C794.12 94.7834 795.852 96.6832 801.274 99.6813C801.301 99.6309 801.328 99.5806 801.356 99.5302C800.1 98.8897 798.847 98.1788 797.659 97.4391ZM427.857 72.3386C426.593 70.947 423.125 67.0545 425.316 69.7007C427.008 71.7117 428.525 73.0927 427.857 72.3386ZM68.7416 65.0546C70.0967 65.4659 71.419 65.8203 72.7719 66.1386C73.4898 66.2509 74.2149 66.3527 74.9473 66.4436C74.944 66.443 74.9408 66.4424 74.9376 66.4417C72.8069 66.0683 70.8344 65.6308 68.7416 65.0546ZM324.625 49.6297C327.696 46.2529 330.755 42.9045 333.951 39.7409C333.961 39.6868 333.97 39.6328 333.98 39.5787C330.861 42.8381 329.551 44.1195 328.816 44.8797C328.819 44.8763 328.822 44.8729 328.826 44.8694C326.483 47.3378 324.285 49.7467 322.062 52.1172C322.92 51.2871 323.771 50.4589 324.625 49.6297ZM313.626 60.9501C314.325 60.5539 315.169 59.9077 319.889 54.6312C319.678 54.8179 319.467 55.0042 319.255 55.19C316.769 57.8731 315.266 59.4326 315.643 58.8904C314.983 59.5782 314.307 60.2704 313.626 60.9501ZM369.345 22.3996C368.575 22.1965 362.186 22.9038 362.558 22.9862C362.7 22.7747 370.899 22.4152 369.345 22.3996ZM848.345 101.973C846.885 102.623 845.325 103.205 843.805 103.671C845.811 103.008 847.834 102.161 849.742 101.165C849.284 101.443 848.801 101.72 848.345 101.973ZM862.24 91.2848C863.003 90.4561 860.769 93.3778 865.227 88.3203C862.108 92.0773 858.571 95.6454 854.429 98.4926C856.357 97.1274 858.146 95.6141 859.816 93.9989C859.479 94.236 859.144 94.4653 858.803 94.6926C860.002 93.6074 861.148 92.4628 862.24 91.2848ZM865.797 87.417C864.143 89.4119 872.406 78.4765 873.075 77.4605C873.243 77.2367 874.123 76.23 874.433 75.8537C873.227 77.4872 872.036 79.1449 870.827 80.805C871.261 80.2711 871.693 79.7376 872.125 79.2043C870.73 81.1502 869.324 83.1109 867.854 85.0468C868.458 84.2 869.049 83.3492 869.633 82.4973C868.394 84.1525 867.126 85.8023 865.797 87.417ZM815.374 104.489C817.097 104.849 818.835 105.129 820.612 105.341C820.287 105.245 819.923 105.142 819.577 105.038C818.51 104.896 817.469 104.728 816.452 104.538C816.101 104.526 815.748 104.511 815.374 104.489ZM850.688 100.572C848.506 102.146 841.684 104.215 849.386 101.131C850.153 100.777 850.891 100.43 850.688 100.572ZM876.106 73.4389C879.194 69.2011 878.778 70.3765 875.655 74.2177C875.499 74.4129 875.877 73.7604 876.106 73.4389ZM908.118 55.193C908.519 55.201 909.047 55.2319 912.351 55.2897C912.641 55.2972 912.95 55.3061 913.278 55.3173C913.946 55.3789 914.603 55.4514 915.249 55.5343C914.872 55.5126 913.793 55.4172 912.348 55.3532C908.018 54.9945 901.038 55.9894 902.372 55.7236C904.388 55.4136 905.958 55.2523 908.118 55.193ZM895.55 56.8826C893.714 57.5478 891.92 58.3804 890.204 59.3724C890.787 59.0891 891.392 58.8153 891.986 58.5685C891.128 59.011 890.281 59.4966 889.474 60.006C888.021 60.805 886.633 61.7052 885.289 62.7039C888.611 59.9589 892.395 57.8115 896.478 56.4724C896.164 56.6055 895.855 56.7423 895.55 56.8826ZM858.057 94.5023C861.121 91.893 864.397 88.1906 868.237 83.0445C868.239 83.042 868.241 83.0396 868.243 83.0371C868.436 82.781 868.826 82.3633 869.437 81.5351C869.92 80.7426 880.154 67.0421 879.584 68.3319C875.381 73.3617 873.936 75.4106 873.153 76.8082C872.922 77.0415 872.692 77.2737 872.461 77.507C868.633 82.6461 867.669 84.2463 865.428 87.1292C865.408 87.0947 865.388 87.0602 865.369 87.0257C863.828 88.9156 862.204 90.7565 860.457 92.489C860.72 92.2615 860.981 92.0318 861.24 91.7998C860.634 92.4244 860.013 93.0372 859.375 93.636C857.754 95.0125 855.636 96.6931 858.057 94.5023ZM904.306 54.9719C904.974 54.7899 908.153 54.4053 912.385 54.628C918.877 54.8006 927.183 57.1086 931.636 59.3976C927.73 57.5885 921.331 55.5726 916.627 55.0639C914.472 54.7937 913.125 54.7342 912.382 54.7016C910.778 54.6498 911.921 54.7367 912.377 54.7938C912.556 54.8165 912.626 54.8326 912.375 54.8293C912.345 54.8289 912.311 54.8283 912.272 54.8274C911.455 54.7548 906.287 54.5692 904.306 54.9719ZM845.543 102.183C849.99 100.459 852.3 98.977 855.664 96.6106C855.402 96.8364 855.136 97.0598 854.866 97.2806C854.292 97.7045 851.608 99.5322 849.099 100.714C846.628 101.917 844.393 102.615 845.543 102.183ZM941.683 65.9764C934.756 60.5981 938.069 63.42 934.311 60.8419C936.93 62.3117 939.391 64.0169 941.73 65.9196C941.714 65.9385 941.699 65.9575 941.683 65.9764ZM422.045 63.6257C419.773 60.5718 417.432 57.0571 416.064 55.2543C417.503 57.3802 418.954 59.5107 420.447 61.609C420.973 62.2835 421.508 62.96 422.045 63.6257ZM510.96 51.1938C510.297 51.7496 507.875 54.1485 507.621 54.4038C507.141 54.8682 507.247 54.7151 507.233 54.7147C504.117 57.7758 507.071 55.0323 504.791 57.3224C504.393 57.7053 499.019 63.0709 496.809 65.2289C493.433 68.5777 489.868 71.7051 488.482 72.8245C486.189 74.744 481.774 78.1962 477.337 80.3928C475.513 81.293 474.831 81.5207 472.927 82.2519C468.793 83.8313 462.942 85.0902 456.599 84.7352C443.78 84.7093 432.196 75.0295 427.51 69.1161C425.633 66.9416 424.033 64.705 423.116 63.4958C422.373 62.5625 421.632 61.6039 420.911 60.6545C419.012 57.4809 418.109 56.6102 415.839 53.3521C414.398 51.28 413.799 50.2619 413.605 49.9834C412.321 48.1372 411.65 47.2599 410.611 45.8309C409.453 44.2286 407.756 41.9397 407.311 41.3946C407.002 41.0919 407.936 42.0967 402.894 36.3302C397.666 30.5624 391.429 25.6334 383.939 22.9759C386.293 24.2085 388.441 24.91 391.234 26.5694C391.973 27.0196 391.478 26.7775 392.114 27.1776C393.937 28.2842 397.177 30.7762 398.454 31.9999C399.844 33.3039 399.296 32.9438 401.033 34.615C401.12 34.7009 400.888 34.3864 401.292 34.7877C405.274 38.8976 406.39 40.4325 410.673 46.2799C413.331 50.2501 430.36 74.1458 432.016 74.0749C433.924 75.906 428.923 71.7536 424.32 65.7773C419.659 59.849 414.968 52.6355 413.918 51.1753C413.206 50.1357 414.006 51.1887 413.362 50.2381C413.084 49.8385 410.524 46.2869 407.899 42.8681C404.853 38.638 397.726 30.9041 393.506 28.2636C387.149 23.7603 379.575 21.2484 371.784 20.8871C332.926 18.2023 322.152 66.8463 286.454 75.1683C285.533 75.3211 284.381 75.657 281.338 75.8225C280.048 75.8816 278.751 75.8778 277.408 75.8081C235.017 72.343 228.814 12.9367 185.852 11.2121C168.565 9.1198 155.411 22.4532 146.421 35.7191C139.198 45.5416 130.771 55.0831 119.221 60.2208C117.877 60.8984 116.414 61.5566 114.991 62.1298C118.779 60.855 125.187 57.366 125.692 56.9368C125.874 56.8158 127.167 55.9555 129.091 54.5222C131.83 52.4514 132.917 51.4461 133.141 51.2658C133.785 50.6841 133.331 51.0286 133.939 50.4694C138.44 46.2558 141.444 42.5025 144.875 38.0521C148.721 33.0015 150.65 30.442 153.481 26.8265C153.845 26.4493 154.21 26.0771 154.577 25.7103C155.632 24.3969 159.415 19.6562 164.938 16.2006C170.415 12.6001 177.633 11.3707 181.711 11.3236C184.253 11.2691 183.817 11.3815 184.693 11.3924C184.965 11.4016 185.051 11.3787 185.842 11.3973C186.708 11.439 188.303 11.4295 191.819 12.0653C195.138 12.7314 195.989 13.1311 197.604 13.6415C198.486 13.9436 198.371 13.8217 199.615 14.2976C206.791 17.1695 211.965 21.0552 217.456 26.2888C218.991 27.7822 218.95 27.8508 219.29 28.1893C220.53 29.4507 222.712 31.6043 225.617 35.046C230.424 40.6717 239.349 52.5127 243.506 57.0139C244.097 57.6818 244.555 58.28 245.007 58.7628C245.694 59.4933 246.018 59.7232 246.14 59.8496C248.488 62.2372 247.025 60.8576 248.641 62.4097C249.526 63.2299 250.488 64.0599 252.666 65.8451C255.582 68.1459 254.985 67.7393 256.256 68.638C256.395 68.7268 256.462 68.7146 257.75 69.5419C262.569 72.8271 270.736 75.5948 276.266 75.8343C276.66 75.8656 277.031 75.8924 277.402 75.9159C278.532 75.9835 279.616 76.039 281.247 75.9733C283.475 75.971 291.026 75.0548 297.34 71.5969C303.699 68.3212 308.711 63.6176 309.492 62.9756C309.654 62.8289 308.067 64.4025 310.699 62.0122C311.435 61.2766 312.147 60.5419 312.856 59.7916C314.142 58.6277 315.384 57.4557 316.629 56.2502C316.451 56.1685 323.271 48.7122 323.361 48.9365C324.113 48.1262 324.862 47.3194 325.615 46.5136C327.055 44.7205 328.115 43.6161 331.132 40.3796C331.651 39.9207 332.173 39.4651 332.696 39.0151C332.796 38.8698 332.896 38.7248 332.996 38.5799C334.786 37.0365 337.533 34.3263 337.899 34.0295C339.254 32.8506 340.348 32.0378 341.01 31.5201C343.438 29.5079 349.168 25.7759 352.598 24.4553C352.758 24.3903 352.628 24.5186 353.597 24.1319C355.337 23.474 355.486 23.2744 357.908 22.6925C358.382 22.5246 358.861 22.3646 359.346 22.2129C359.871 22.1025 360.413 21.9996 360.928 21.9129C364.009 21.2786 367.222 21.0081 370.347 21.0702C368.153 21.1579 369.537 21.1819 371.764 21.2659C372.457 21.2955 373.214 21.337 373.949 21.3862C374.998 21.4618 374.079 21.2859 374.429 21.3115C374.652 21.3273 378.316 21.7086 381.898 22.8328C385.479 23.8904 388.823 25.6975 389.207 25.9444C389.812 26.2434 390.408 26.5567 390.995 26.8834C391.26 27.1015 391.521 27.3223 391.779 27.5456C392.098 27.7287 392.419 27.9193 392.735 28.1123C395.898 30.0428 402.876 36.7351 403.903 38.176C404.497 38.9053 403.843 38.3467 406.663 41.8433C406.805 41.9299 406.946 42.017 407.087 42.1045C407.725 42.9105 408.356 43.7292 408.977 44.5536C410.128 46.106 411.675 48.4736 411.669 48.5865C412.052 49.0582 412.432 49.5318 412.812 50.0067C413.643 51.4076 418.559 58.5893 420.705 61.3819C421.273 62.2387 421.852 63.0967 422.436 63.9414C423.303 65.0143 424.198 66.0892 425.101 67.127C427.157 69.6066 424.931 67.032 425.363 67.5656C426.193 68.7654 431.365 74.0569 430.96 73.7809C431.684 74.4825 432.434 75.1717 433.202 75.8353C433.629 76.1393 434.059 76.4354 434.494 76.7239C435.772 77.8905 438.072 79.9716 443.733 82.567C444.227 82.7361 444.726 82.8951 445.229 83.0436C446.994 83.7702 448.875 84.3659 450.713 84.7961C451.112 84.8119 451.513 84.8217 451.916 84.8255C452.764 84.961 453.558 85.06 454.385 85.1387C454.97 85.2521 455.737 85.332 456.566 85.3735C458.087 85.4541 459.672 85.3884 460.673 85.3819C462.954 85.302 461.205 85.7022 456.995 85.5888C457.324 86.1183 469.88 84.9024 472.495 83.3808C472.308 83.4248 472.12 83.4675 471.932 83.5089C469.135 84.4654 466.24 85.1139 463.29 85.4382C460.804 85.4631 468.811 84.6908 472.221 83.222C472.528 83.0938 474.33 82.4605 477.624 80.825C478.939 80.2603 483.739 77.4535 484.572 76.7913C491.42 71.6714 486.398 75.4479 492.818 70.1273C491.434 71.1881 495.087 68.0842 498.572 64.5571C499.176 63.9658 504.127 58.8147 504.467 58.4778C506.583 56.3484 504.346 58.7295 507.416 55.6651C507.766 55.2783 508.119 54.8918 508.472 54.5071C509.2 53.8072 509.931 53.1158 510.672 52.4295C515.375 48.5155 516.401 47.5529 518.089 46.1933C518.782 45.6596 517.918 46.3819 519.737 45.0323C520.428 44.5354 521.152 43.917 523.088 42.6875C529.246 39.0133 531.622 38.3073 537.887 36.4022C538.888 36.2161 539.882 36.0676 540.875 35.9532C541.537 35.8001 542.209 35.661 542.894 35.5367C548.057 35.246 546.228 35.3126 548.079 35.2565C548.832 35.2575 549.716 35.2769 550.688 35.3296C556.011 35.4602 563.186 37.5318 563.849 37.9433C568.037 38.9951 572.487 41.6838 573.932 42.5443C574.818 43.02 575.694 43.5179 576.559 44.0367C577.538 44.7062 578.499 45.4021 579.442 46.1198C579.156 45.531 583.889 49.4752 584.302 49.9019C584.88 50.2643 591.92 56.6252 594.317 59.2431C596.786 61.7742 600.897 66.3789 601.266 66.7828C601.689 67.2326 605.792 71.6756 609.056 75.1046C610.494 76.5984 615.396 81.853 620.541 85.8851C625.612 90.0066 631.067 92.3434 630.357 91.9551C628.889 91.2572 626.864 90.1334 625.187 89.0367C618.79 86.8417 595.499 59.177 588.557 53.2777C578.417 43.6022 565.183 35.7001 550.697 35.1693C546.404 34.9406 542.147 35.2546 538.045 36.1658C536.993 36.4043 536.82 36.3805 535.935 36.6169C534.554 36.9555 531.227 38.2079 529.972 38.7882C525.193 40.7723 519.966 44.3702 517.787 46.0831C512.882 49.8827 509.792 52.8489 506.412 56.1299C505.34 57.1443 500.177 62.5385 496.475 66.0956C495.796 66.7292 495.113 67.3585 494.422 67.9846C496.349 66.1722 501.191 61.2199 503.449 58.9378C506.815 55.5453 508.658 53.8678 509.941 52.6647C510.987 51.6225 516.594 46.5825 519.432 44.6489C520.297 44.0299 520.517 43.966 521.27 43.4565C525.324 40.6396 531.223 37.828 535.34 36.6533C533.613 36.938 544.319 34.7625 544.892 35.0576C545.874 34.9981 546.937 34.8674 548.926 34.8959C549.643 34.9086 550.218 34.9375 550.707 34.9697C552.838 35.1504 553.167 35.1612 557.087 35.6895C558.239 35.9376 559.403 36.2312 560.544 36.5639C560.803 35.9455 574.723 41.7562 578.12 44.4918C578.173 44.5234 574.184 41.6862 569.559 39.5496C564.96 37.3299 559.795 36.0806 558.988 35.9263C556.535 35.381 553.735 34.9672 550.715 34.8126C542.15 34.1893 532.563 36.7255 526.451 40.0956C523.835 41.2383 516.505 46.3695 516.05 46.8818C515.206 47.5675 516.011 47.0003 515.648 47.2978C508.368 53.5663 511.962 50.3966 510.96 51.1938ZM865.104 86.8657C863.235 89.1503 861.249 91.3568 859.068 93.3867C859.198 93.2089 859.327 93.0305 859.454 92.8517C860.446 91.9213 861.399 90.9559 862.322 89.962C863.004 89.1736 863.666 88.3709 864.312 87.5575C864.577 87.3287 864.841 87.098 865.104 86.8657ZM869.369 81.0098C870.849 78.9483 870.986 78.8977 871.334 78.427C872.368 77.0238 873.225 75.7827 874.232 74.4352C873.233 76.1039 870.735 79.4195 869.369 81.0098ZM824.882 104.52C824.923 104.523 824.979 104.527 825.05 104.533C826.049 104.616 829.668 104.984 833.717 104.418C837.062 104.178 840.265 103.645 843.483 102.691C838.095 104.458 830.251 104.958 827.57 104.835C826.529 104.815 826.328 104.738 825.476 104.7C825.331 104.694 825.187 104.687 825.042 104.679C820.346 104.47 816.041 103.741 815.615 103.422C820.016 104.409 824.107 104.463 824.882 104.52ZM852.682 98.215C853.357 97.8376 854.011 97.4482 854.671 97.0276C852.417 98.6639 849.978 100.078 847.421 101.203C848.082 100.859 848.75 100.489 849.404 100.101C850.529 99.5246 851.614 98.8997 852.682 98.215ZM676.938 76.1345C678.106 74.9215 679.267 73.6987 680.427 72.4777C680.337 72.5225 679.013 73.9175 678.508 74.4141C678.51 74.4118 678.512 74.4096 678.514 74.4073C677.947 74.9639 678.149 74.6902 677.14 75.7149C677.073 75.8549 677.006 75.9947 676.938 76.1345ZM113.01 62.6618C111.261 63.5136 98.848 66.2373 91.5151 66.1836C87.9535 66.3023 85.8064 66.1924 86.5012 66.2677C86.9963 66.3115 89.0532 66.3779 91.5185 66.2985C94.5604 66.2144 97.7634 65.9109 99.2804 65.7285C102.802 65.5205 112.26 63.3671 113.01 62.6618ZM67.2403 62.8216C66.622 63.2423 82.7904 66.5913 84.4129 66.1504C84.0697 66.1128 83.5454 66.039 83.0949 65.9954C80.9169 65.9842 70.5511 64.2141 67.2403 62.8216ZM599.306 63.936C600.147 64.939 600.992 65.9539 601.829 66.9627C601.657 66.653 601.484 66.3431 601.311 66.033C600.643 65.332 599.974 64.6315 599.306 63.936ZM493.677 68.7356C483.847 78.239 470.806 86.1502 456.584 85.0332C448.403 84.6917 440.516 81.4449 434.308 76.2074C435.826 77.4162 437.416 78.5295 439.082 79.5193C444.245 82.7528 450.324 84.641 456.588 84.9417C470.066 86.0061 482.639 78.8347 491.597 70.4711C492.296 69.9004 492.992 69.3184 493.677 68.7356ZM818.713 103.525C813.167 102.644 808.524 101.403 803.079 98.5613C808.356 101.04 811.132 102.057 816.719 103.063C816.722 103.063 816.725 103.064 816.728 103.064C817.378 103.228 818.039 103.381 818.713 103.525ZM716.189 46.3383C717.826 45.8201 719.424 45.4006 721.114 45.0497C719.074 45.4028 717.121 45.8654 715.15 46.463C715.495 46.418 715.841 46.3764 716.189 46.3383ZM337.098 33.9817C332.637 37.7913 322.449 48.7982 319.33 52.4018C319.126 52.6339 321.103 50.6007 318.075 54.041C320.418 51.4938 322.035 49.6626 322.139 49.4097C322.855 48.6734 323.572 47.9351 324.289 47.2004C325.419 45.9273 326.554 44.6565 327.7 43.398C327.647 43.5996 327.723 43.4922 329.483 41.5532C330.325 40.7096 331.173 39.8755 332.035 39.0495C332.363 38.6639 332.693 38.2804 333.025 37.8991C333.8 37.2212 334.59 36.5463 335.383 35.8905C338.312 33.1476 336.432 34.7092 337.098 33.9817ZM354.348 23.166C353.881 23.2416 347.384 26.0283 343.105 29.29C338.793 32.468 336.092 35.0036 340.905 31.1725C343.423 29.2089 346.076 27.4192 348.88 25.9037C346.362 26.8124 354.292 23.1502 355.029 23.1227C358.242 21.9545 362.507 21.0406 364.981 20.8377C367.096 20.6396 368.38 20.6772 369.863 20.6849C370.462 20.691 371.11 20.7094 371.791 20.7441C376.818 20.8644 383.011 22.6822 383.939 22.9759C380.207 21.6355 376.198 20.852 372.053 20.6208C371.968 20.616 371.883 20.6114 371.798 20.6069C367.53 20.4938 363.513 20.1817 355.851 22.762C353.927 23.4106 354.581 23.0914 354.348 23.166ZM726.171 44.4469C726.052 44.5243 730.159 44.2818 733.258 44.4738C735.04 44.5587 736.369 44.6964 736.396 44.6785C736.419 44.6521 734.443 44.4546 733.262 44.3972C732.918 44.3775 732.654 44.3647 732.543 44.3576C732.54 44.3574 732.537 44.3573 732.533 44.3572C732.331 44.3457 733.363 44.3291 731.761 44.2617C729.893 44.2322 728.031 44.2909 726.171 44.4469ZM144.432 37.8853C143.938 38.3862 139.039 45.2299 132.83 50.7879C126.704 56.4878 119.076 59.965 118.654 60.1433C118.428 60.2564 118.763 60.1409 118.68 60.199C125.611 57.2012 134.065 50.5026 138.67 45.0568C139.98 43.5733 139.547 43.9753 139.62 43.8926C139.624 43.889 139.627 43.8854 139.63 43.8818C140.388 43.0473 143.66 39.1807 144.432 37.8853ZM312.242 59.824C313.236 58.8888 314.213 57.9378 315.178 56.9757C315.39 56.6991 315.601 56.4216 315.812 56.1432C315.81 56.1455 315.808 56.1478 315.806 56.15C314.635 57.3972 313.456 58.6185 312.242 59.824ZM269.617 74.1966C269.933 74.3085 270.253 74.4166 270.564 74.5183C272.806 75.0406 275.076 75.3583 277.425 75.4835C278.581 75.5449 279.713 75.5566 280.821 75.5214C280.482 75.5488 280.14 75.5718 279.795 75.5904C285.013 75.5193 287.099 74.8192 289.784 74.1318C289.781 74.1326 289.778 74.1335 289.775 74.1343C290.062 74.0519 290.429 74.0191 291.479 73.6721C293.981 73.037 300.431 69.5759 301.07 68.9408C301.807 68.3598 299.176 70.2046 295.763 71.8147C292.379 73.4821 288.12 74.5892 286.795 74.8065C285.584 75.0484 284.094 75.1908 283.359 75.2586C282.553 75.3339 281.401 75.5176 279.427 75.5159C279.244 75.5145 278.491 75.5077 277.427 75.4417C275.083 75.335 271.477 74.7101 269.617 74.1966ZM225.56 34.2745C226.198 35.1183 227.652 36.7736 228.157 37.411C228.277 37.5624 227.282 36.4313 228.424 37.8544C228.778 38.2309 229.132 38.6088 229.485 38.9876C228.196 37.4018 226.89 35.8239 225.56 34.2745ZM743.465 45.8125C743.178 45.6447 737.752 44.6447 737.435 44.6873C735.808 44.5645 737.814 44.773 739.998 45.1576C742.102 45.5119 744.466 46.1294 743.465 45.8125ZM858.811 92.291C857.776 94.7617 875.919 70.4071 877.986 68.2773C877.921 68.4209 873.372 74.0261 875.823 71.1434C873.483 73.8955 867.765 82.0901 866.266 83.9057C865.384 85.0278 865.082 85.2475 864.947 85.4149C864.482 86.1252 859.597 91.7942 858.811 92.291ZM898.58 54.7396C895.802 55.4156 893.053 56.4405 890.514 57.7806C893.498 56.1639 896.757 54.9962 900.089 54.2913C899.576 54.4321 899.073 54.5816 898.58 54.7396ZM902.12 53.9709C902.04 53.8142 908.588 53.124 912.446 53.4626C913.287 53.5069 913.976 53.5594 914.434 53.5941C913.85 53.5801 913.182 53.5538 912.442 53.5278C909.476 53.4178 905.752 53.364 902.12 53.9709ZM772.793 66.954C770.032 63.3721 768.531 62.0976 772.108 66.2656C772.215 66.3925 772.907 67.1041 772.793 66.954ZM335.755 34.5767C335.115 35.0177 328.246 41.7379 327.948 42.2218C326.857 43.6074 331.139 38.9895 332.716 37.5831C335.262 35.3212 331.592 38.7178 337.736 33.1354C337.5 33.3809 337.265 33.628 337.031 33.8764C340.724 30.7325 339.406 31.6162 340.056 31.0345C340.249 30.8499 342.699 29.0337 343.152 28.7231C348.663 24.6051 336.046 33.8034 335.755 34.5767ZM678.418 73.3805C672.094 79.7681 675.016 77.225 668.251 83.4824C668.194 83.8764 677.723 74.3416 678.418 73.3805ZM410.635 45.2782C405.132 37.8095 400.126 31.7605 392.783 27.0096C392.995 27.1965 398.811 31.2136 403.222 36.2217C407.71 41.1254 411.298 46.2944 410.635 45.2782ZM49.6167 52.4907C60.7812 61.3815 76.004 66.0736 91.4939 65.4681C115.964 66.3466 137.356 49.9028 149.698 30.2729C152.262 26.9439 152.604 26.7094 153.572 25.5277C154.215 24.7645 154.046 24.8582 154.926 23.8625C162.421 14.7129 174.224 9.52689 185.887 10.5436C225.377 12.664 233.742 59.7408 266.234 72.8085C267.718 73.4017 272.703 74.9468 277.444 75.1167C281.128 75.3294 284.437 74.8657 285.717 74.5511C287.602 74.1479 280.59 75.3125 277.452 74.9654C276.942 74.9423 276.545 74.9144 276.312 74.8956C275.059 74.7859 275.02 74.7 274.205 74.5961C273.347 74.4737 274.051 74.6305 273.03 74.4694C268.735 73.7917 264.241 72.1005 260.804 70.1903C232.573 53.6716 222.501 12.1873 185.894 10.3966C180.147 10.0849 174.214 10.7647 168.881 13.0507C164.567 15.0447 165.504 14.7224 165.269 14.794C165.267 14.7958 165.264 14.7975 165.261 14.7992C154.022 21.3375 147.604 33.9747 138.66 44.1073C129.946 54.5781 117.424 61.8526 104.326 64.0007C100.054 64.7768 95.8947 65.1613 91.4885 65.2865C77.1517 65.8064 62.4932 61.977 50.9458 53.4204C50.498 53.1151 50.055 52.8051 49.6167 52.4907ZM352.342 23.6832C350.159 24.525 349.519 24.5372 342.519 29.2206C341.985 29.6504 341.453 30.092 340.935 30.5359C344.458 27.8218 348.263 25.4431 352.355 23.6776C352.351 23.6795 352.346 23.6813 352.342 23.6832ZM311.137 60.2811C310.213 61.2422 295.638 73.6813 286.826 74.2878C286.08 74.4921 288.731 74.1025 291.762 73.0338C294.815 72.005 298.135 70.1852 299.363 69.4369C300.651 68.8083 307.092 64.4722 311.216 60.2479C311.19 60.259 311.164 60.27 311.137 60.2811ZM830.048 103.421C828.692 103.463 827.392 103.461 825.992 103.416C829.418 103.579 832.736 103.498 836.166 103.043C832.456 103.554 828.895 103.636 825.107 103.43C823.301 103.328 821.635 103.171 819.901 102.935C820.952 103.012 821.885 103.051 822.908 103.077C823.631 103.151 824.367 103.214 825.116 103.265C826.827 103.382 828.419 103.433 830.048 103.421ZM812.629 101.451C821.883 103.525 812.149 101.688 809.935 100.705C808.611 100.215 811.674 101.223 812.629 101.451ZM791.556 89.2538C794.698 92.4033 802.23 97.1534 799.461 95.6196C795.55 92.9019 793.032 91.0687 788.302 85.9942C789.022 86.7101 789.751 87.4077 790.497 88.091C790.501 88.0943 790.504 88.0976 790.507 88.1009C790.852 88.489 791.203 88.8751 791.556 89.2538ZM816.864 102.289C819.854 102.852 817.048 102.492 814.057 101.764C811.172 101.069 808.248 99.966 810.941 100.823C811.196 100.978 816.611 102.309 816.864 102.289ZM86.5403 65.0157C85.8883 65.0633 89.4476 65.1695 91.4827 65.0889C91.7563 65.0813 91.9969 65.0736 92.1907 65.067C99.0654 64.8966 107.936 63.5142 114.585 60.9959C114.082 61.1561 113.572 61.3111 113.054 61.4606C106.141 63.7835 98.7803 64.8042 91.4806 65.0182C89.7919 65.068 88.1457 65.0662 86.5403 65.0157ZM133.407 49.2878C136.988 45.9276 140.173 42.1486 143.197 38.241C143.482 37.876 144.743 36.1266 143.758 37.3914C140.57 41.5935 137.213 45.6839 133.407 49.2878ZM383.197 21.9159C381.385 21.3379 383.12 21.7459 385.238 22.5321C387.323 23.2862 389.701 24.5495 389.418 24.5251C387.424 23.4874 385.36 22.6175 383.197 21.9159ZM410.374 44.1939C408.938 42.2781 407.458 40.3911 405.907 38.5631C405.924 38.5449 405.941 38.5267 405.958 38.5085C407.493 40.3559 408.956 42.261 410.374 44.1939ZM67.6036 61.725C69.9119 62.6474 75.7579 64.0689 79.4355 64.4757C76.891 64.1361 70.9147 62.9402 67.6036 61.725ZM331.335 38.3762C331.5 38.1222 321.18 49.2072 324.672 45.2953C326.85 42.9542 329.052 40.6309 331.335 38.3762ZM310.125 60.5338C312.463 58.3298 314.209 56.5289 313.811 57.0717C312.611 58.2836 311.382 59.4844 310.133 60.6447C310.13 60.6077 310.128 60.5708 310.125 60.5338ZM780.654 76.4221C777.344 72.0924 774.141 67.6458 770.611 63.4336C770.76 63.5739 770.909 63.7147 771.058 63.856C774.441 67.9367 777.533 72.2198 780.724 76.3925C780.7 76.4024 780.677 76.4122 780.654 76.4221ZM64.806 60.4836C61.3809 59.1716 58.0234 57.5067 54.89 55.5808C58.0088 57.536 61.3573 59.2331 64.7792 60.5782C64.7911 60.5476 64.803 60.5171 64.8148 60.4866C64.8119 60.4856 64.809 60.4846 64.806 60.4836ZM844.748 100.171C829.073 104.374 849.297 99.4646 852.479 96.0821C852.483 96.0794 852.486 96.0767 852.49 96.0741C852.807 95.8765 852.195 96.3804 852.725 96.0544C851.35 96.9599 849.903 97.7851 848.418 98.5012C847.067 99.2312 845.742 99.8476 844.307 100.411C843.843 100.562 843.372 100.705 842.893 100.841C843.526 100.631 844.123 100.415 844.748 100.171ZM893.504 55.2142C908.515 51.0585 892.658 54.2276 886.439 59.0965C886.402 58.9281 892.066 55.6063 893.504 55.2142ZM865.43 83.1984C864.002 85.0855 862.528 86.9275 860.963 88.6794C860.747 88.8879 860.529 89.0947 860.309 89.2997C861.522 87.9691 862.677 86.5825 863.796 85.1595C864.347 84.5139 864.891 83.8594 865.43 83.1984ZM797.485 93.1333C795.982 92.0319 794.324 90.6824 794.177 90.6143C794.057 90.4904 795.237 91.9693 800.294 95.2153C800.302 95.1912 800.31 95.1671 800.318 95.143C799.913 94.9014 798.728 94.1398 798.667 94.0906C798.492 93.9578 798.738 94.0498 797.485 93.1333ZM921.882 53.03C922.318 53.1554 922.65 52.7857 927.02 54.4469C928.345 54.8715 929.674 55.3608 930.969 55.9026C931.279 56.0986 931.584 56.2973 931.886 56.4985C926.919 54.2829 926.276 54.4625 925.908 54.296C924.161 53.7847 925.464 54.1066 924.358 53.7926C921.491 52.8776 914.706 52.0635 917.816 52.3103C918.963 52.3947 921.408 52.9211 921.882 53.03ZM911.364 51.5913C912.027 51.631 909.889 51.6513 910.39 51.6864C910.543 51.6955 911.457 51.7241 912.532 51.8018C914.485 51.932 916.725 52.2629 915.604 52.2225C914.598 52.1136 913.572 52.0288 912.523 51.9692C912.479 51.9667 912.435 51.9642 912.39 51.9618C912.019 51.908 911.649 51.8577 911.283 51.8109C910.231 51.8101 909.208 51.8377 908.213 51.8924C906.404 51.832 902.71 52.02 907.129 51.6575C905.463 51.7377 903.915 51.8838 902.245 52.1349C901.4 52.3017 900.625 52.4801 899.776 52.6989C900.22 52.5419 900.621 52.4008 901.045 52.2621C904.498 51.6549 907.947 51.4818 911.364 51.5913ZM954.367 74.4172C954.217 74.2905 954.066 74.1642 953.914 74.0382C957.793 78.445 963.243 85.6106 959.956 81.6822C955.118 75.5142 950.055 69.3235 943.872 64.1823C943.48 63.8226 943.082 63.467 942.678 63.1159C947.213 67.0204 946.089 65.5262 949.703 69.2621C950.281 69.9166 948.486 68.1366 952.257 72.1097C952.151 71.9428 952.045 71.776 951.939 71.6094C952.765 72.5341 953.573 73.4713 954.367 74.4172ZM988.589 108.431C980.131 104.309 989.417 108.901 991.145 109.295C991.142 109.294 991.139 109.293 991.136 109.292C995.573 111.016 985.878 107.66 985.454 107.053C984.735 106.646 982.818 106.002 979.347 102.996C982.195 105.214 985.283 107.076 988.589 108.431ZM965.214 88.0667C965.733 88.711 965.41 88.3828 965.633 88.6618C965.634 88.6642 965.636 88.6667 965.638 88.6691C968.763 92.9557 977.372 101.74 978.48 102.45C975.177 100.5 964.06 87.1666 963.595 86.1445C964.135 86.7892 964.67 87.4248 965.214 88.0667ZM939.455 60.6452C936.728 58.6628 943.012 62.9174 944.395 64.3335C944.667 64.5902 942.265 62.683 939.455 60.6452ZM732.364 42.1656C724.99 42.1365 734.667 42.3108 731.31 42.3582C731.987 42.367 732.672 42.3872 733.365 42.4192C734.118 42.454 734.859 42.5017 735.588 42.5619C734.863 42.4525 734.125 42.3554 733.372 42.2711C733.035 42.2332 732.699 42.198 732.364 42.1656ZM460.047 82.5043C458.492 82.5237 459.226 82.5642 459.092 82.5692C458.113 82.574 457.162 82.4916 456.717 82.4676C456.693 82.4664 456.671 82.4653 456.651 82.4645C449.336 81.8283 454.182 82.3712 454.236 82.4181C454.387 82.4916 452.458 82.345 455.112 82.7059C455.634 82.7479 456.163 82.7797 456.7 82.801C457.85 82.8465 458.971 82.8447 460.065 82.7988C460.88 82.8078 461.713 82.7904 462.52 82.7489C465.712 82.3296 461.532 82.7866 461.02 82.6752C460.837 82.6481 463.888 82.4352 460.047 82.5043ZM719.113 43.026C717.93 43.359 715.148 44.2048 717.954 43.6225C717.957 43.6218 717.961 43.621 717.964 43.6203C718.471 43.5099 720.662 43.087 721.296 43.0244C725.998 42.2737 724.159 42.2043 719.113 43.026ZM486.542 71.3128C488.644 69.633 490.685 67.8319 492.681 65.9778C492.69 66.0547 492.698 66.1315 492.707 66.2084C491.633 67.1993 490.546 68.1745 489.445 69.1217C489.082 69.4792 488.72 69.8318 488.349 70.1858C489.761 69.0716 491.157 67.9037 492.527 66.716C494.111 65.1962 495.662 63.6422 497.207 62.0699C496.467 62.7611 495.723 63.45 494.976 64.1324C498.786 60.333 498.047 61.2505 501.254 58.1149C502.298 56.9853 503.347 55.8534 504.408 54.7273C506.042 53.1971 507.698 51.6794 509.397 50.1964C512.181 47.6316 512.432 47.395 510.469 49.0384C511.826 47.7215 513.47 46.4568 515.247 45.0098C515.393 44.8906 515.07 45.0563 515.201 44.9518C524.688 37.7826 524.737 38.9021 526.326 37.8951C527.494 37.2164 532.499 35.0863 532.582 35.0839C532.623 35.0212 529.959 35.9271 529.39 36.1214C528.858 36.4424 530.078 35.072 538.827 33.1306C529.548 34.5799 520.709 40.5382 526.723 37.4523C523.895 38.4016 513.683 45.8407 513.225 46.5027C512.332 47.243 512.583 46.9106 511.483 47.8619C510.847 48.437 509.212 50.0377 504.304 54.622C503.717 55.2472 503.133 55.8739 502.552 56.5011C501.966 57.0482 501.383 57.5956 500.801 58.1425C501.892 56.9098 502.989 55.6736 504.101 54.4428C499.518 59.1338 495.646 62.8374 492.92 65.6345C490.458 67.9407 489.208 68.982 490.229 67.9625C489.479 68.6399 488.733 69.2966 487.966 69.9503C487.494 70.4113 487.02 70.8656 486.542 71.3128ZM699.251 51.7471C696.301 53.654 695.478 54.6435 695.907 54.3094C698.367 52.4953 700.806 50.7814 699.251 51.7471ZM465.88 82.0004C469.389 81.409 472.802 80.2979 476.053 78.7553C476.024 78.6966 475.995 78.638 475.966 78.5793C472.759 80.1734 469.377 81.3445 465.88 82.0004ZM733.473 42.068C733.839 42.1366 734.2 42.2082 734.559 42.2827C738.767 42.3704 742.989 43.5293 745.004 44.0579C745.443 44.1692 744.591 43.8343 743.738 43.6067C743.162 43.2549 734.331 41.9218 733.473 42.068ZM870.015 75.1446C869.137 76.4065 868.267 77.6698 867.395 78.9191C867.4 78.8185 867.405 78.7179 867.41 78.6173C867.846 78.0031 868.28 77.3869 868.716 76.7675C869.148 76.2271 869.581 75.6857 870.015 75.1446ZM859.504 88.7234C857.697 90.6485 855.769 92.4387 853.702 94.0108C861.209 87.484 855.109 92.9202 859.387 88.6139C859.426 88.6504 859.465 88.6869 859.504 88.7234ZM836.881 101.093C837.185 101.009 837.48 100.923 837.802 100.829C840.389 100.341 842.839 99.6362 845.237 98.6584C843.647 99.1825 842.13 99.562 840.502 99.8722C839.615 100.105 838.697 100.311 837.747 100.49C837.446 100.697 837.169 100.895 836.881 101.093ZM407.945 38.1758C406.931 36.8315 402.835 32.5226 402.952 32.7629C404.649 34.562 406.237 36.4392 407.742 38.3541C407.8 38.3213 407.858 38.2886 407.916 38.2559C408.109 38.5442 408.301 38.8334 408.491 39.1235C409.379 40.1954 410.237 41.2705 411.085 42.3653C411.455 42.9576 411.819 43.5485 412.18 44.1429C412.642 44.6673 413.102 45.1959 413.558 45.7237C409.776 40.2693 409.722 40.5608 408.884 39.4578C408.444 38.9021 408.193 38.5289 408.05 38.3209C408.015 38.2725 407.98 38.2241 407.945 38.1758ZM468.177 81.0702C463.54 82.2079 460.077 82.3654 456.73 82.226C454.905 82.1331 453.262 81.9258 451.434 81.5076C452.243 81.7452 454.091 82.1442 456.726 82.2999C464.955 83.5229 478.304 77.987 483.056 74.1511C483.706 73.626 484.337 73.0953 484.966 72.5474C481.537 75.2457 478.903 76.666 477.062 77.6333C475.591 78.389 475.76 78.3379 475.648 78.3973C475.642 78.3999 475.637 78.4025 475.632 78.4051C472.128 80.0184 470.953 80.317 468.177 81.0702ZM739.54 42.4588C737.317 41.9918 733.572 41.746 733.474 41.8704C735.681 42.0234 737.68 42.2644 739.849 42.6529C739.419 42.5534 739.911 42.5317 739.54 42.4588ZM833.824 101.175C832.345 101.324 828.522 101.443 830.171 101.498C830.5 101.534 834.144 101.218 832.015 101.54C835.539 101.264 834.755 101.083 833.824 101.175ZM584.613 46.2204C585.723 47.1031 586.808 48.0093 587.874 48.9353C588.151 49.1171 588.429 49.3003 588.705 49.4849C587.37 48.3634 586.01 47.2739 584.613 46.2204ZM757.011 48.743C758.543 49.9385 761.393 51.6335 763.96 54.1686C764.95 55.0463 765.909 55.9577 766.836 56.8908C766.839 56.8931 766.841 56.8954 766.843 56.8977C766.912 56.8798 766.98 56.8619 767.049 56.8442C764.049 53.813 760.711 51.0212 757.011 48.743ZM504.9 53.7782C505.533 53.1982 506.171 52.6194 506.813 52.0448C507.898 50.9619 509.003 49.8866 510.128 48.8304C509.491 49.3707 508.86 49.9171 508.234 50.4683C507.105 51.5595 505.994 52.6668 504.9 53.7782ZM773.863 64.5522C771.023 61.0068 769.766 59.8348 773.457 64.3127C774.976 66.2163 776.761 68.2918 773.863 64.5522ZM330.906 36.4295C332.02 35.3563 333.169 34.2869 334.332 33.2546C334.698 32.8663 335.07 32.4795 335.444 32.0966C333.876 33.5051 332.373 34.9519 330.906 36.4295ZM852.304 94.5506C852.189 94.682 852.074 94.812 851.96 94.9402C850.912 95.6506 849.789 96.3298 848.681 96.9195C848.943 96.7314 849.201 96.5407 849.454 96.3474C850.436 95.79 851.383 95.1914 852.304 94.5506ZM338.772 29.4478C339.763 28.6753 340.78 27.9218 341.818 27.1998C342.501 26.6944 343.195 26.2014 343.903 25.7217C342.891 26.3504 341.905 27.0045 340.935 27.6863C340.198 28.2617 339.479 28.8488 338.772 29.4478ZM801.774 94.651C800.382 93.8617 794.999 90.123 799.779 93.5613C802.906 95.5939 801.992 94.7667 801.774 94.651ZM809.703 98.3357C804.009 95.8479 807.957 98.5928 815.289 100.031C808.041 98.1864 810.077 98.3828 809.703 98.3357ZM859.618 87.5279C859.723 87.4099 859.866 87.3676 860.698 86.4168C863.696 83.0062 867.286 77.9869 869.291 75.2433C871.709 72.0098 876.489 64.9542 882.783 59.7949C889.002 54.4797 896.525 52.4204 897.972 52.2048C898.605 52.0881 897.205 52.5727 897.461 52.5154C898.188 52.2715 902.514 51.4187 901.725 51.6687C897.475 52.3297 893.272 53.6611 889.434 55.721C890.365 55.1504 891.268 54.6451 892.245 54.1563C882.564 59.1145 885.97 57.8276 883.47 59.6373C882.014 60.7278 880.631 61.9095 879.32 63.1463C876.584 65.9658 874.205 69.0169 871.969 72.0847C872.454 71.3701 872.946 70.6581 873.447 69.9504C869.895 74.4693 870.932 73.2423 869.172 75.8043C869.135 75.7854 869.098 75.7665 869.061 75.7476C865.946 80.2234 865.223 80.9527 864.513 81.8889C862.994 83.6814 861.803 86.8874 854.871 92.4129C852.136 94.9227 851.883 94.4186 850.206 95.7859C844.71 98.6405 855.114 93.0902 858.775 88.4967C858.777 88.4945 858.779 88.4923 858.781 88.4902C859.075 88.1749 858.581 88.6523 859.618 87.5279ZM831.658 101.284C834.283 100.987 827.898 101.324 825.225 101.163C824.074 101.134 823.696 101.172 825.215 101.352C825.235 101.355 825.255 101.357 825.275 101.359C826.059 101.409 826.827 101.445 827.579 101.466C828.931 101.453 830.294 101.395 831.667 101.283C831.664 101.284 831.661 101.284 831.658 101.284ZM704.387 47.9125C691.406 56.0892 698.791 51.4525 703.182 48.682C704.072 48.1499 704.565 47.8572 704.387 47.9125ZM457.784 82.0356C457.58 82.0556 457.373 82.074 457.166 82.0909C461.881 82.5938 470.612 80.5352 470.389 80.2405C466.335 81.5641 462.069 82.15 457.784 82.0356ZM490.59 67.28C489.825 67.9983 486.616 70.7162 487.037 70.4275C488.47 69.2934 489.866 68.1163 491.252 66.897C491.862 66.2953 492.468 65.6849 493.073 65.0673C492.194 65.8985 490.802 67.0935 490.59 67.28Z" fill="#F8C55F"/>
</svg>
