<svg width="166" height="71" viewBox="0 0 166 71" fill="none" xmlns="http://www.w3.org/2000/svg">
<path d="M160.143 0.00673383C162.901 -0.136535 165.252 1.98288 165.396 4.74059C165.539 7.49829 163.419 9.85 160.662 9.99327L160.402 5L160.143 0.00673383ZM0.207372 21.9992C-0.577229 19.3516 0.933053 16.5692 3.58068 15.7846L46.7261 2.99899C49.3737 2.2144 52.1561 3.72468 52.9407 6.3723C53.7252 9.01992 52.215 11.8023 49.5674 12.5869L11.2159 23.9519L22.5809 62.3034C23.3655 64.951 21.8552 67.7333 19.2076 68.5179C16.5599 69.3025 13.7776 67.7922 12.993 65.1446L0.207372 21.9992ZM160.402 5L160.662 9.99327C140.95 11.0174 127.701 24.1527 114.364 38.9679C107.89 46.1595 101.275 53.8653 94.154 59.7701C86.9372 65.7546 78.711 70.3263 68.77 70.8428L68.5106 65.8495L68.2512 60.8563C75.2382 60.4933 81.4609 57.3049 87.7708 52.0725C94.1767 46.7604 100.166 39.7925 106.932 32.2774C120.073 17.6792 135.842 1.26922 160.143 0.00673383L160.402 5ZM68.5106 65.8495L68.77 70.8428C53.306 71.6462 42.4448 62.1985 33.0105 52.4243C23.1499 42.2084 14.5756 31.4647 2.61601 24.9729L5.0013 20.5786L7.3866 16.1842C21.1187 23.6381 31.256 36.2075 40.2056 45.4794C49.5815 55.1931 57.6291 61.4081 68.2512 60.8563L68.5106 65.8495Z" fill="url(#paint0_linear_3552_7379)"/>
<defs>
<linearGradient id="paint0_linear_3552_7379" x1="160.523" y1="4.99371" x2="0.523232" y2="20.5401" gradientUnits="userSpaceOnUse">
<stop stop-color="white" stop-opacity="0"/>
<stop offset="1" stop-color="white"/>
</linearGradient>
</defs>
</svg>
