<svg width="329" height="122" viewBox="0 0 329 122" fill="none" xmlns="http://www.w3.org/2000/svg">
<mask id="mask0_4593_12598" style="mask-type:alpha" maskUnits="userSpaceOnUse" x="0" y="0" width="329" height="122">
<rect width="329" height="121.369" fill="#BB1519"/>
</mask>
<g mask="url(#mask0_4593_12598)">
<rect x="-33.4102" y="-169.401" width="383.867" height="309.548" fill="#DE9A0F"/>
<path d="M-264.489 49.709C-305.692 53.0817 -312.56 9.23633 -328.583 9.23633V123.783H658.019V12.6091C641.995 12.6091 623.682 49.709 598.502 49.709C573.322 49.709 564.166 12.6091 536.696 12.6091C509.227 12.6091 500.071 49.709 477.18 49.709C454.289 49.709 445.132 15.9818 415.374 12.6091C385.616 9.23633 378.748 49.709 351.279 49.709C323.81 49.709 321.521 12.6091 289.474 12.6091C257.426 12.6091 266.583 49.709 232.246 49.709C197.909 49.709 200.199 12.6091 168.151 12.6091C136.104 12.6091 131.526 49.709 108.635 49.709C85.7436 49.709 74.2981 12.6091 44.5398 12.6091C14.7815 12.6091 10.2033 49.709 -17.2659 49.709C-44.7351 49.709 -47.0242 9.23633 -76.7825 9.23633C-106.541 9.23633 -111.119 49.709 -138.588 49.709C-166.057 49.709 -172.925 9.23633 -202.683 9.23633C-232.441 9.23633 -223.285 46.3363 -264.489 49.709Z" fill="#F6BA40"/>
<path d="M-307.387 25.5872C-295.303 41.472 -281.531 49.2592 -264.668 47.779C-260.578 47.4716 -256.436 46.7902 -252.328 45.3845C-243.27 42.5186 -236.087 35.2951 -230.346 26.2081C-225.123 17.3858 -215.548 6.21046 -202.683 7.19684C-171.233 7.584 -164.245 48.3033 -138.588 47.8788C-129.07 48.0872 -121.47 41.6815 -115.614 34.8355C-105.886 23.5707 -95.2445 6.73203 -76.7825 7.16822C-46.9675 7.12983 -43.335 45.3043 -19.9243 47.7917C-18.816 47.9127 -17.9788 47.9508 -17.2659 47.9657C-16.7851 47.9746 -16.3904 47.9707 -16.0439 47.9558C-7.51483 48.5338 3.58701 39.2026 8.97513 32.5473C15.8568 24.7887 27.9547 9.88314 44.5398 10.6397C54.6096 10.5234 63.2185 15.248 68.4864 19.2213C74.348 23.5676 79.4041 28.8608 81.2961 30.8408C83.123 32.6647 84.182 33.577 84.6662 34.0452C84.6716 34.0506 84.677 34.0561 84.6823 34.0615C86.2146 35.5848 90.1082 39.3154 91.0215 40.0355C91.157 40.1397 90.3727 39.4222 92.5463 41.2352C92.7445 41.3846 92.5231 41.3238 94.4186 42.7358C94.8405 43.2703 101.622 47.1776 103.8 47.3824C105.094 47.7168 106.729 48.0052 108.635 48.0061C117.447 48.9073 126.909 38.0245 131.656 32.2274C132.586 31.1322 133.103 30.4771 134.1 29.3227C134.616 28.7245 135.427 27.8519 135.589 27.6707C136.273 26.8537 139.429 23.346 138.459 24.7609C141.914 21.2467 140.877 22.2465 140.898 22.1116C144.85 18.4206 147.236 17.1541 148.351 16.2643C154.206 12.5434 161.23 10.6307 168.151 10.6855C190.907 9.26911 199.631 33.8083 214.26 43.1668C214.278 43.1517 214.297 43.1367 214.315 43.1216C220.404 46.838 223.07 46.9259 227.04 47.7288C228.754 47.9311 230.453 48.0131 232.246 47.9945C233.092 47.9854 233.908 47.9526 234.694 47.8977C260.188 49.9993 259.62 8.63113 289.474 10.6723C319.798 8.94576 326.072 48.618 351.279 47.9702C371.419 47.9666 379.497 24.3992 397.737 14.0721C400.453 12.7242 401.121 12.228 406.042 11.0553C408.746 10.4898 412.103 10.2586 415.599 10.6551C419.118 11.0339 422.814 11.9237 426.198 13.2639C432.19 15.4358 439.729 20.9745 444.62 25.697C445.745 26.7472 446.56 27.5005 446.684 27.6193C447.411 28.3269 447.415 28.3986 448.111 29.0873C448.945 29.913 449.965 30.8853 450.916 31.845C454.428 35.4473 458.349 39.1134 458.832 39.4918C461.073 41.4565 461.58 41.8374 461.771 41.9999C464.38 43.9583 463.443 43.171 464.1 43.6406C467.576 45.8583 470.199 47.5232 475.704 47.9666C475.553 47.9951 475.401 48.022 475.25 48.0472C476.199 48.1384 476.812 48.1379 477.18 48.134C478.408 48.0986 476.887 48.0563 477.556 48.0316C477.736 48.0289 480.081 47.9888 482.382 47.2979C484.689 46.6584 486.876 45.4273 487.184 45.2504C489.336 43.9921 489.394 43.9119 489.579 43.8061C490.069 43.6067 495.014 39.4626 497.36 36.9757C500.184 34.1317 496.983 37.5998 497.688 36.8965C497.811 36.7969 500.705 33.7153 501.111 33.3087C501.567 32.8734 499.07 35.557 499.117 35.5183C499.156 35.5177 503.347 31.0796 502.59 31.971C501.997 32.7272 496.32 38.6987 495.03 39.8168C494.826 40.0131 495.258 39.6927 495.076 39.8659C494.702 40.1879 491.152 43.7245 486.929 45.9839C482.741 48.3906 477.967 48.5912 477.575 48.5509C478.512 48.5039 479.421 48.3911 480.332 48.2107C479.286 48.3828 478.254 48.466 477.18 48.4641C477 48.4637 476.821 48.4611 476.643 48.4562C476.821 48.4584 477 48.4584 477.18 48.4562C478.772 48.4359 480.313 48.2225 481.834 47.8189C480.817 47.9892 479.051 48.297 477.18 48.3043C474.291 48.377 471.388 47.6418 471.183 47.644C471.005 47.7134 475.731 48.9244 471.296 47.9566C471.955 48.1594 472.625 48.3316 473.307 48.4711C474.581 48.6853 475.866 48.7822 477.18 48.762C477.311 48.76 477.441 48.7567 477.571 48.7521C477.441 48.7527 477.31 48.7521 477.18 48.7502C476.342 48.7375 475.548 48.68 474.73 48.5738C475.082 48.5983 475.425 48.6132 475.77 48.6199C476.234 48.6459 476.703 48.6569 477.18 48.6524C479.361 48.6335 481.502 48.2402 483.545 47.5097C484.824 47.0579 484.575 47.1914 485.439 46.8275C490.731 44.2439 491.35 43.1283 491.791 42.8881C492.175 42.5274 492.228 42.5908 495.159 39.9146C496.005 39.1563 496.834 38.3755 497.657 37.5752C497.309 37.7876 499.829 35.3133 502.721 32.0659C502.395 32.4712 502.068 32.8771 501.743 33.2801C505.809 28.5192 515.277 19.6697 512.645 21.9663C513.746 20.9918 514.877 20.051 516.049 19.156C517.013 18.3649 518.006 17.6077 519.041 16.8896C520.49 15.9387 522.009 15.0712 523.59 14.3256C523.604 14.3371 523.619 14.3486 523.633 14.3601C522.374 14.9558 521.157 15.6281 519.981 16.3591C520.89 15.8535 521.82 15.3822 522.768 14.9544C523.673 14.4824 524.604 14.0479 525.552 13.661C521.585 15.328 526.737 12.9291 528.089 12.5743C531.594 11.5185 534.012 11.4971 535.194 11.429C535.347 11.4222 535.941 11.3825 536.696 11.3703C538.756 11.2965 541.852 11.6956 539.899 11.5762C543.371 11.9147 546.78 12.8997 549.919 14.3819C551.14 14.9784 552.32 15.6454 553.46 16.3664C550.951 14.8816 558.03 19.4872 552.763 16.1816C548.715 13.8936 547.565 13.5578 545.468 12.8488C543.538 12.2802 542.475 12.0908 540.328 11.8108C539.082 11.6628 537.919 11.5979 536.696 11.5977C523.234 11.6236 514.153 20.187 505.9 29.0104C504.081 30.961 502.472 32.7726 501.262 34.071C499.889 35.5424 501.56 33.6619 499.827 35.5357C497.994 37.4967 497.614 37.9253 497.117 38.4275C496.812 38.7337 495.783 39.6865 494.853 40.5378C491.144 44.3204 484.444 47.8264 483.688 47.8303C483.356 47.9455 480.49 48.965 477.18 48.9213C472.951 49.0215 468.594 47.152 468.266 46.9725C467.941 46.7924 468.664 47.074 465.768 45.7242C464.9 45.2373 464.047 44.7028 463.217 44.1365C463.371 44.2016 463.524 44.2653 463.678 44.3277C458.767 40.9238 460.457 42.1102 456.118 38.2161C446.659 29.0308 432.107 12.5009 415.496 11.557C414.985 11.499 414.485 11.4541 413.996 11.4214C410.438 11.2763 409.036 11.319 404.906 12.2686C400.84 12.8189 392.286 18.5561 394.261 17.4716C387.34 22.6375 386.878 24.1331 383.788 27.0524C383.454 27.445 383.123 27.837 382.793 28.2301C379.616 31.5542 378.778 32.7082 375.353 36.3077C373.853 37.8308 375.544 36.0461 372.535 39.1231C371.934 39.6792 371.321 40.226 370.699 40.7574C370.826 40.614 370.952 40.4697 371.078 40.3247C367.502 43.4466 367.137 43.4523 367.651 43.2439C365.807 44.5794 363.849 45.7574 361.793 46.672C361.55 46.8152 361.306 46.955 361.058 47.0911C364.911 51.5138 397.692 5.84174 410.039 11.5207C411.593 11.4319 413.439 11.4533 415.481 11.6913C425.095 12.2905 436.54 19.5954 440.73 23.5555C442.869 25.4117 443.752 26.2994 446.681 29.1601C449.596 32.0337 453.213 35.652 454.774 37.1329C457.285 39.6343 465.006 46.7473 471.261 48.2029C474.294 49.0708 476.546 49.0158 476.59 49.0499C476.662 48.9538 474.391 49.4787 469.091 47.5525C469.68 47.82 470.28 48.0643 470.891 48.2829C474.392 49.231 476.026 49.1079 477.18 49.1452C478.862 49.0451 479.545 49.3542 483.774 48.0522C486.864 47.2899 492.893 42.6607 492.592 42.9797C488.128 46.7798 482.248 49.3862 477.18 49.2412C477.139 49.2412 477.098 49.2411 477.057 49.2409C476.544 49.4035 470.54 48.7446 467.772 47.1911C465.301 45.8814 466.931 46.93 461.793 43.593C458.241 40.7132 456.286 38.9016 455.376 38.0928C453.834 36.6521 453.732 36.435 452.241 34.9393C450.619 33.3029 449.469 32.2138 449.244 31.9899C447.23 29.5519 434.683 18.666 433.73 18.6247C434.301 18.9763 434.864 19.3376 435.423 19.7107C431.842 17.2719 432.509 17.9056 431.536 17.3174C430.799 16.8935 430.053 16.4906 429.295 16.1085C429.603 16.2451 429.909 16.385 430.214 16.528C425.589 14.3278 429.218 15.7446 422.356 13.3598C419.895 12.624 417.363 12.1524 415.455 11.924C413.88 11.7322 412.84 11.7101 412.638 11.7045C412.503 11.7037 413.966 11.7785 412.061 11.7458C408.894 11.5764 403.568 12.9093 403.011 13.1449C401.557 13.6627 401.711 13.6976 401.519 13.7681C401.108 13.9112 397.322 15.5235 393.93 18.1261C390.498 20.6654 387.379 23.8812 386.435 24.8437C381.187 30.1939 376.033 36.7677 369.897 41.8918C369.262 42.4139 369.646 42.0563 369.005 42.5691C368.063 43.5239 362.339 47.0914 361.33 47.3103C359.091 48.5466 352.562 49.5346 351.501 49.3592C351.359 49.3678 353.368 49.3707 351.279 49.425C351.186 49.4257 351.084 49.426 350.974 49.4255C348.137 49.3476 349.677 49.3208 349.516 49.3234C343.798 48.8805 340.395 47.2885 337.081 45.2414C336.001 44.5708 334.145 43.1261 332.791 41.9351C332.634 41.7997 332.912 42.1053 332.758 41.9728C330.689 40.1893 329.003 38.2483 328.202 37.3739C326.257 35.2152 327.275 36.4246 327.172 36.3154C325.876 34.8787 324.197 32.8723 322.265 30.625C313.957 20.7435 304.706 12.1872 290.145 12.0813C289.926 12.0777 289.701 12.0751 289.474 12.074C287.786 12.059 286.216 12.1626 285.931 12.1916C285.068 12.2943 285.344 12.2467 282.909 12.6731C277.85 13.6194 273.358 16.0163 269.745 19.6289C269.016 20.3558 268.685 20.6484 268.162 21.2323C266.254 23.1093 261.552 30.6477 261.361 30.68C258.705 35.0694 256.712 37.8283 253.926 40.785C249.584 45.8955 240.617 49.6882 232.246 49.3665C228.503 49.3761 224.997 48.8823 222.132 48.0786C220.208 47.5319 219.333 47.1312 218.298 46.7044C216.163 46.4056 206.954 39.409 206.755 38.6968C205.946 37.8163 206.465 38.3323 202.308 33.7967C199.964 31.0437 200.307 31.3094 199.829 30.7332C196.191 26.1532 192.075 22.0944 192.917 22.7819C188.071 17.835 183.948 15.7073 181.41 14.4517C181.421 14.5428 178.409 13.1655 174.512 12.4788C178.365 13.3948 178.445 12.2457 186.812 17.3869C186.938 17.4752 186.668 17.3479 186.795 17.4361C187.951 18.2188 190.244 20.0243 191.921 21.6901C193.596 23.3563 192.64 22.4564 193.301 23.1304C193.896 23.7552 193.915 23.7006 194.755 24.6206C197.463 27.6256 199.673 30.3983 201.138 32.1314C202.054 33.2296 203.059 34.4692 203.793 35.2941C206.505 38.5923 213.252 44.6917 218.338 46.5152C219.391 46.9335 218.875 46.8456 221.218 47.619C221.478 47.6913 222.49 47.9936 224.569 48.4035C226.69 48.8079 228.317 48.9753 229.699 49.0543C230.748 49.0996 230.404 49.0689 232.246 49.078C232.402 49.0773 232.573 49.0761 232.76 49.0738C233.731 49.0533 239.943 49.0709 245.345 46.6209C250.832 44.3136 254.657 39.6222 255.038 39.204C256.17 37.8851 256.71 37.2493 257.34 36.3854C257.45 36.2322 257.591 35.9414 257.964 35.4057C260.653 31.7484 263.787 25.4297 269.069 19.8495C274.289 14.0606 282.837 11.5772 289.474 11.7872C291.974 11.79 294.196 12.0153 296.159 12.3681C321.653 16.4048 326.348 49.1343 351.279 49.0773C353.811 49.077 356.32 48.7105 358.75 47.9548C359.181 47.8107 359.605 47.6557 360.024 47.4902C357.614 48.3814 355.091 48.8919 352.535 49.0111C352.517 48.9844 352.499 48.9576 352.482 48.9308C352.019 48.9513 351.62 48.9581 351.279 48.9599C349.086 48.9364 349.472 48.9535 349.545 49.0058C348.275 48.9113 347.007 48.7276 345.748 48.4412C344.562 48.6317 336.576 45.2834 333.383 42.0038C331.168 40.1234 328.755 37.579 327.723 36.425C325.538 33.9726 325.654 33.974 325.483 33.7836C325.189 33.4607 322.18 29.9647 319.944 27.4597C316.563 23.8334 316.414 23.185 311.008 18.9264C305.329 14.4083 297.373 11.5516 289.474 11.69C287.71 11.6932 286.051 11.7991 284.361 12.0383C286.202 11.5977 277.527 13.0688 274.317 15.5263C266.304 20.2948 262.232 29.6445 256.546 37.1539C251.064 45.051 241.666 49.2835 232.246 48.9655C226.305 48.9792 220.636 47.7235 215.867 45.1343C213.318 43.7601 211.599 42.3739 210.341 41.3549C209.662 40.795 209.33 40.5942 208.427 39.7608C208.274 39.6069 208.177 39.4969 206.565 37.868C202.531 33.8938 193.622 22.3263 190.542 19.9997C184.577 14.4615 176.287 11.3688 168.151 11.5319C155.587 11.1304 144.243 18.7394 136.559 27.8443C136.206 28.2044 135.857 28.5645 135.509 28.9279C132.986 31.7244 123.867 43.8698 117.376 46.7194C114.812 48.064 111.808 48.8962 108.635 48.8867C98.1114 49.0072 89.472 39.8963 83.5021 34.1439C81.7762 32.438 80.3819 30.9912 78.7297 29.3746C78.0153 28.6755 77.0966 27.8454 76.3395 27.1296C69.0021 19.7834 56.5044 11.0253 44.5398 11.569C43.286 11.5695 42.1627 11.6276 40.991 11.7468C13.8977 14.4379 8.43777 48.9303 -17.2659 48.8952C-19.542 48.895 -21.7564 48.6056 -23.9246 47.9751C-45.2252 41.1383 -49.8471 7.81885 -76.7825 8.18539C-106.904 8.02872 -111.404 48.599 -138.588 48.9317C-166.188 48.3223 -172.365 8.24066 -202.683 8.22152C-221.054 6.87679 -227.428 26.887 -237.45 37.1331C-238.269 37.9698 -238.274 37.8999 -238.927 38.52C-242.511 42.6361 -253.641 47.8199 -259.761 48.3429C-261.253 48.5862 -262.787 48.7733 -264.575 48.9141C-268.676 49.2712 -272.826 48.9378 -274.004 48.8399C-270.869 49.1989 -267.806 49.2275 -264.57 48.9774C-249.798 48.5294 -236.474 39.399 -229.029 26.3134C-228.305 25.2312 -228.174 25.1185 -228.085 24.9862C-226.399 22.5288 -227.56 24.0346 -225.03 20.4911C-224.596 19.9084 -222.362 16.8831 -219.803 14.6154C-217.281 12.2978 -214.495 10.9704 -215.269 11.2831C-214.014 10.52 -208.761 8.23182 -202.683 8.39409C-195.251 8.15991 -187.774 11.9915 -185.829 13.3426C-184.693 14.0589 -185.471 13.5118 -185.246 13.6535C-184.273 14.2797 -183.877 14.6343 -183.051 15.2465C-180.764 16.8046 -175.734 21.6196 -174.878 22.6103C-172.739 24.7692 -166.937 31.6789 -164.274 34.5681C-161.816 37.2138 -162.24 36.6851 -160.033 38.8682C-158.243 40.5169 -160.307 38.862 -156.172 42.3813C-154.265 44.3817 -145.881 48.5962 -143.528 48.5978C-142.059 48.8875 -140.46 49.0906 -138.588 49.1024C-137.651 49.1066 -136.721 49.0653 -135.694 48.9484C-131.072 48.9585 -122.394 43.9523 -119.285 40.4501C-119.084 40.2592 -118.63 39.7551 -118.153 39.2741C-117.163 38.2684 -117.411 38.606 -116.676 37.8366C-115.75 37.2807 -104.15 22.5227 -101.68 20.3352C-100.136 18.7356 -99.0215 17.6652 -98.0915 16.8505C-97.3596 16.2178 -97.2452 16.1857 -96.4739 15.5647C-96.2372 15.3754 -94.2171 13.6973 -91.9277 12.3908C-89.9365 10.7392 -80.7524 8.22924 -79.5865 8.50632C-78.8847 8.45898 -79.6774 8.441 -77.5689 8.36012C-77.2959 8.35375 -77.034 8.35195 -76.7825 8.35361C-75.2355 8.36828 -74.2543 8.48431 -73.2813 8.58986C-70.7884 8.85829 -67.9497 9.51723 -65.4726 10.5757C-58.489 13.9668 -59.2489 14.4251 -58.7932 14.5629C-57.7806 15.3478 -57.3665 15.6472 -57.0442 15.918C-55.6574 17.0318 -52.6362 20.1317 -51.6344 21.3324C-50.3576 22.802 -49.8736 23.4728 -48.5906 25.0848C-47.6328 26.2831 -45.7232 28.7213 -43.6209 31.4848C-38.9486 37.6768 -32.8163 45.0164 -25.7112 47.5507C-23.6293 48.3078 -23.2994 48.3553 -22.6394 48.5265C-20.1911 49.0715 -18.4588 49.0797 -17.2659 49.0748C-16.7639 49.0687 -16.3739 49.0523 -16.0719 49.0401C-8.43451 49.6139 2.75226 41.6869 7.14075 36.3317C9.16623 34.3939 16.9945 24.6629 22.5962 20.1616C23.2265 19.6433 22.6569 20.1533 23.3593 19.5785C25.061 18.2283 24.8758 18.3106 25.7794 17.6722C26.2192 17.3715 27.2526 16.7138 28.6086 15.9507C35.2642 12.2224 40.9032 11.8146 44.5398 11.7831C44.7946 11.783 45.0402 11.7857 45.277 11.7906C73.756 11.8853 83.7177 46.9513 108.635 49.1515C117.633 49.3248 124.409 42.3825 129.911 35.9816C132.266 33.2843 135.022 29.7467 138.824 25.7847C138.957 25.6777 139.09 25.571 139.223 25.4653C139.341 25.3119 139.459 25.1587 139.577 25.0059C144 20.6427 145.787 18.9532 151.402 15.8317C151.897 15.5653 153.446 14.9257 154.38 14.4165C160.416 12.3786 157.082 13.3441 161.687 12.318C163.843 11.9473 165.974 11.7869 168.151 11.792C170.697 11.802 173.089 12.0271 175.55 12.5417C177.551 12.9633 171.081 11.737 168.151 11.9526C167.456 11.9591 166.975 11.9795 166.846 11.9832C165.75 12.017 164.605 12.0384 163.541 12.1614C160.403 12.4969 157.48 13.4432 156.802 13.6155C152.966 15.031 157.753 13.2991 157.294 13.5467C154.682 14.3315 152.181 15.4344 149.831 16.7966C148.339 17.1614 137.203 27.0797 138.233 26.632C137.411 27.4742 136.6 28.3356 135.805 29.2C132.524 33.1773 130.646 35.5717 125.933 40.4528C126.288 40.1208 126.643 39.7818 126.997 39.4366C126.949 39.6033 122.674 43.761 124.154 42.2172C119.618 46.2707 119.701 46.0726 114.827 48.2863C111.897 49.0963 113.497 48.9535 108.635 49.2436C108.416 49.2433 108.186 49.2397 107.944 49.2315C104.556 49.1754 100.438 47.9181 97.1282 45.9522C96.3698 45.5105 96.0713 45.2625 95.4068 44.8291C94.7542 44.3961 94.4116 44.2221 93.6295 43.655C92.0341 42.5044 90.0746 40.7933 89.1561 39.9745C88.3153 39.231 87.1049 38.195 85.1625 36.3223C78.4161 29.7132 80.4989 31.6534 79.4482 30.5927C78.3165 29.4519 77.4465 28.6857 75.1047 26.4826C74.8686 26.2625 75.5164 26.7919 74.7447 26.0809C74.1155 25.5139 73.7843 25.2461 71.6476 23.4246C71.2169 23.076 67.7229 20.0168 63.5603 17.5309C59.4391 14.964 54.5702 13.4103 53.2765 13.1246C51.2772 12.5873 47.9254 11.9817 44.5398 11.9919C41.2499 11.9577 37.9796 12.5161 35.9716 13.0848C34.3887 13.5155 32.7546 14.1532 31.1751 14.8831C25.79 17.1185 18.8892 23.3794 14.1899 28.782C9.93878 33.6737 2.21118 41.8686 -0.746399 43.7365C-8.11581 48.7939 -10.7279 48.2659 -11.2572 48.6011C-13.0275 48.9734 -13.8498 49.1645 -16.1023 49.286C-16.4838 49.3016 -16.8716 49.3099 -17.2659 49.3102C-42.8757 50.5145 -47.8015 7.6705 -76.7825 8.58802C-84.8055 8.46339 -92.1059 11.9944 -97.2784 16.4843C-111.121 28.0169 -119.01 49.3001 -138.588 49.3199C-166.592 48.5817 -172.712 8.53622 -202.683 8.60973C-229.045 7.85986 -229.782 42.8483 -252.927 47.1415C-253.087 47.216 -253.25 47.2898 -253.413 47.3629C-245.883 45.3189 -238.26 39.7487 -233.673 33.5605C-227.656 25.5607 -219.494 11.0406 -210.828 9.92218C-213.92 10.6865 -218.183 13.6318 -218.006 13.6887C-213.69 10.2565 -208.146 8.8033 -202.683 8.85405C-202.545 8.85419 -202.407 8.85519 -202.27 8.85706C-202.407 8.82573 -202.544 8.79525 -202.683 8.76565C-202.715 8.75884 -202.748 8.75208 -202.78 8.74535C-202.748 8.74521 -202.715 8.74511 -202.683 8.74506C-196.835 8.68605 -190.946 10.4922 -186.03 13.6113C-185.172 14.1547 -185.759 13.7376 -185.02 14.2228C-184.201 14.7765 -184.775 14.4288 -184.622 14.5329C-182.572 15.962 -181.999 16.45 -181.754 16.6338C-181.155 17.1327 -181.626 16.7477 -179.933 18.2313C-176.834 21.017 -174.799 23.1845 -175.561 22.5639C-174.633 23.5319 -173.727 24.514 -172.83 25.5093C-172.57 25.7402 -172.31 25.972 -172.05 26.2045C-166.736 32.4819 -164.11 35.1876 -161.079 38.5213C-159.997 39.5521 -158.894 40.5431 -157.754 41.4836C-157.15 42.0569 -156.524 42.6216 -155.893 43.16C-155.745 43.2322 -155.594 43.3053 -155.444 43.3768C-150.705 47.0817 -144.611 49.5369 -138.588 49.4355C-136.634 49.4324 -134.782 49.2228 -132.987 48.8145C-127.933 47.4458 -126.79 46.6952 -122.957 44.0516C-115.012 37.2778 -122.662 44.2992 -116.39 38.2409C-116.729 38.5422 -117.076 38.8469 -117.422 39.1435C-116.423 38.0953 -115.458 37.0143 -114.52 35.9188C-113.83 35.181 -113.151 34.435 -112.476 33.6807C-109.745 30.1183 -107.816 27.9288 -107.419 27.4611C-107.087 27.093 -106.165 25.6457 -102.504 21.7447C-104.13 23.2674 -99.6998 18.7654 -99.2794 18.474C-98.9813 18.092 -94.3011 14.0498 -92.0445 12.8813C-90.3729 11.8257 -86.4839 10.0856 -83.5846 9.49189C-81.0107 8.94649 -81.2996 9.03098 -81.1064 8.98284C-77.8835 8.62048 -79.9274 8.85147 -77.6026 8.73275C-77.3234 8.72596 -77.0495 8.72233 -76.7825 8.72146C-74.8177 8.71519 -73.4233 8.85973 -72.9659 8.91744C-72.7162 8.95225 -73.5557 8.88579 -72.4151 9.04316C-69.3316 9.36378 -63.9703 11.2718 -61.0609 13.3218C-60.0072 14.0008 -58.756 14.9732 -57.6944 15.8667C-56.0656 17.2464 -55.3319 17.9201 -54.4597 18.7938C-54.1561 19.0966 -52.2915 21.1185 -50.1434 23.7434C-49.7334 24.2377 -48.4075 25.6134 -47.0697 27.7539C-46.9256 27.8875 -46.7816 28.0213 -46.6377 28.1551C-39.7668 37.1542 -37.8773 39.693 -34.0057 42.8431C-30.9091 45.4526 -30.2627 45.6416 -30.529 45.5588C-30.7706 45.4444 -31.7468 44.7992 -31.3851 45.059C-30.9357 45.4262 -28.6568 46.757 -28.3833 46.8627C-27.9287 47.0982 -28.022 47.0864 -27.5145 47.328C-22.7693 49.3937 -21.2117 49.155 -20.6929 49.2983C-20.1489 49.3412 -20.4343 49.3186 -18.8442 49.4171C-18.3177 49.4428 -17.7895 49.4534 -17.2659 49.45C-13.9096 49.4462 -11.1996 48.7932 -10.6825 48.6912C-10.1671 48.4852 -11.703 49.4117 -17.2659 49.5157C-17.6737 49.5144 -18.096 49.5037 -18.5318 49.4811C-18.5326 49.4978 -18.5334 49.5145 -18.5342 49.5312C-18.1714 49.5467 -17.743 49.5579 -17.2659 49.5568C-13.3939 49.7766 -7.22565 47.7557 -9.62268 48.5669C-10.4222 48.8575 -13.8941 49.7254 -17.2659 49.6796C-22.6596 49.6278 -27.3431 47.9964 -20.5045 49.555C-19.2848 49.7133 -18.407 49.7512 -17.2659 49.7559C-15.9545 49.7449 -14.4553 49.7266 -12.0635 49.3524C-9.15964 48.707 -8.73407 48.5231 -5.06641 46.8812C-5.68369 47.1313 -6.30597 47.3584 -6.93323 47.5616C-1.84485 45.4857 3.3486 40.9534 6.24854 37.8776C7.26474 36.8627 10.5591 32.8333 9.93347 33.9007C11.5176 32.0736 19.2133 23.5545 20.9217 22.2223C21.3683 21.9602 21.4485 20.9966 27.7314 16.8896C28.1844 16.6318 28.6413 16.3848 29.1056 16.1472C26.1655 17.9021 27.3104 17.2514 28.8363 16.3942C30.3796 15.5424 32.4069 14.7149 30.9478 15.4526C29.8675 15.7749 25.2641 18.6364 24.6082 19.2177C23.4095 20.0981 26.8322 17.281 22.443 20.8347C21.1738 22.0833 22.4151 20.9916 23.9203 19.8343C25.4205 18.6661 27.2404 17.5214 26.6501 18.0326C32.8579 14.0364 33.9167 14.4272 35.4301 13.8256C38.8138 12.8348 41.6996 12.5495 44.5398 12.5383C47.4454 12.5469 50.2819 12.8542 53.5663 13.7561C54.7616 14.0156 48.6009 12.3017 44.5398 12.4664C43.0875 12.462 42.0117 12.5519 41.6108 12.5903C47.166 12.1579 37.4742 12.3835 33.7337 14.2466C33.3972 14.3212 33.0628 14.4013 32.7303 14.4866C36.5128 12.9808 40.527 12.2898 44.5398 12.2836C45.7764 12.2808 46.9369 12.3338 48.1691 12.4529C48.5086 12.5051 48.8452 12.5622 49.1789 12.624C48.0142 12.4923 46.8375 12.421 45.6703 12.4091C49.9792 12.7831 47.4533 12.1894 53.0943 13.492C53.2811 13.4882 53.468 13.4859 53.655 13.485C59.0315 14.9668 63.9444 17.7903 68.328 21.1561C70.8018 22.6953 78.5051 30.0537 76.9836 28.8181C80.048 31.8148 76.3129 28.0676 79.2012 30.8561C80.4583 32.0769 82.8707 34.478 83.4514 35.095C83.0994 34.9311 79.4753 31.3372 78.309 30.3185C78.7946 31.1814 96.297 47.1873 95.0198 45.4173C96.6273 46.4361 95.8698 46.0089 98.9104 47.5477C101.593 48.8287 104.993 49.8737 108.635 49.863C116.959 50.1599 123.966 43.6512 127.34 39.783C120.974 46.0913 118.615 47.969 111.935 49.5171C111.278 49.6273 110.146 49.7905 108.635 49.7915C99.3231 51.0837 85.2423 37.042 89.2495 40.6084C88.4952 39.9693 87.7482 39.3127 87.0133 38.6506C86.3008 37.933 85.6127 37.2212 84.9156 36.4907C86.9442 38.4493 89.0161 40.3739 91.1988 42.1503C91.6854 42.5983 92.2023 43.0565 92.71 43.4905C92.9741 43.6559 93.2326 43.8137 93.5029 43.9763C94.4688 44.6737 95.4473 45.3252 96.4616 45.9288C96.1617 45.7875 95.862 45.6409 95.5626 45.4892C97.0909 46.4738 98.7019 47.353 100.381 48.0474C99.947 47.821 99.5186 47.5818 99.0954 47.3307C102.85 49.0441 104.362 49.1148 105.257 49.3283C106.183 49.4754 106.575 49.6157 108.635 49.687C108.783 49.6897 108.939 49.6909 109.103 49.6901C110.875 49.6189 110.253 49.6061 110.142 49.6012C110.01 49.5227 110.445 49.769 114.039 48.8365C118.14 47.4695 118.664 46.7837 119.614 46.3047C120.486 45.7108 121.837 45.1543 125.879 41.1524C125.979 41.0199 126.075 40.8902 126.173 40.7582C127.937 38.9869 129.597 37.1183 131.242 35.2281C131.006 35.4623 130.769 35.6955 130.533 35.9272C133.876 31.9836 138.527 26.5398 139.865 25.4296C136.198 29.2092 136.45 29.3646 137.369 28.3542C138.303 27.2645 152.105 11.3233 168.151 12.5232C175.812 12.3814 182.014 15.2146 184.288 16.6333C193.201 22.0963 197.269 29.2136 203.63 36.0777C201.462 33.7414 197.159 27.9403 192.304 22.9347C187.513 17.8008 181.304 14.7989 179.27 14.1858C178.853 14.0578 179.075 13.8447 176.349 13.34C173.821 12.719 171.073 12.4029 168.151 12.4058C161.331 12.3355 153.809 14.4102 147.529 18.9194C147.775 18.6861 148.024 18.4552 148.277 18.2268C153.942 14.4419 160.172 13.007 159.339 13.3801C160.632 13.0613 161.992 12.8125 163.297 12.6482C163.293 12.6149 163.289 12.5816 163.284 12.5482C164.908 12.3438 166.488 12.2493 168.151 12.2484C168.574 12.2484 168.991 12.2548 169.402 12.2675C169.401 12.3011 169.4 12.3347 169.399 12.3682C171.05 12.4184 172.752 12.5795 174.396 12.8672C174.577 12.8647 174.757 12.8635 174.936 12.8638C177.424 13.2673 182.751 15.0796 186.031 17.4141C189.321 19.6709 191.034 21.3702 188.09 19.0189C189.949 20.4735 191.664 22.1042 193.279 23.812C193.292 23.7895 193.304 23.767 193.317 23.7445C194.016 24.479 194.695 25.2251 195.366 25.984C195.13 25.749 194.892 25.5135 194.653 25.2807C197.766 28.715 200.369 32.2378 202.416 34.466C201.126 32.9445 199.873 31.3916 198.61 29.8402C200.988 32.8581 205.696 38.0832 206.196 38.4681C207.549 39.8191 208.25 40.5525 209.837 41.8769C211.294 43.0525 211.126 42.8374 211.401 43.0523C215.484 45.9968 217.021 46.4645 217.792 46.8905C218.615 47.2566 218.773 47.377 221.07 47.9944C221.526 48.1711 221.993 48.3393 222.471 48.4985C223.128 48.6412 223.792 48.7643 224.436 48.864C227.041 49.3814 229.566 49.5967 232.246 49.6021C232.622 49.6024 232.992 49.5982 233.357 49.5896C232.992 49.5833 232.621 49.5727 232.246 49.5575C231.594 49.5309 230.956 49.4908 230.333 49.4376C231.012 49.4637 231.651 49.4744 232.246 49.4758C235.462 49.4691 236.965 49.2708 237.326 49.2412C238.485 49.0979 239.089 48.9246 239.444 48.8587C248.263 46.8062 249.277 44.6499 249.919 44.5447C250.427 44.1509 250.235 44.7101 253.616 41.67C255.805 39.2775 253.495 41.6099 253.098 41.8503C256.136 38.8318 256.895 37.6865 259.481 33.935C260.143 32.9488 260.873 31.895 261.281 31.2634C261.636 30.7168 262.694 28.9724 263.562 27.6646C265.01 25.4902 267.017 22.5988 269.56 20.0195C271.375 17.6137 279.536 12.4026 286.141 12.336C288.846 12.1419 288.229 12.2628 288.944 12.2349C289.018 12.234 289.204 12.2288 289.474 12.2247C290.312 12.2087 291.808 12.2244 293.152 12.3557C308.204 13.2163 318.313 26.2138 327.314 36.6706C333.38 43.7051 341.712 49.8221 351.279 49.509C351.871 49.5089 352.453 49.4898 353.025 49.4525C355.104 49.2765 354.015 49.4004 354.924 49.2929C355.228 49.2136 355.632 49.2679 358.758 48.41C359.882 48.062 358.608 48.5189 359.706 48.1554C360.222 47.9412 360.493 47.9511 363.43 46.4764C368.68 43.5917 370.967 41.1772 371.405 40.8848C372.161 40.2025 371.914 40.3753 372.894 39.4567C377.654 34.9062 381.16 30.6138 385.24 26.3149C386.201 25.3246 389.918 21.2727 394.196 18.1368C398.419 14.8944 403.359 13.2375 403.856 13.1353C406.163 12.5203 404.023 13.1116 406.999 12.4788C407.847 12.3042 408.661 12.1751 409.525 12.0797C408.164 12.1772 406.823 12.3742 405.5 12.672C408.829 11.8685 412.688 11.7872 415.432 12.1242C415.695 12.1538 415.946 12.1848 416.185 12.2166C416.7 12.2316 421.303 13.1167 423.544 13.9417C422.582 13.6403 421.601 13.3728 420.61 13.1433C420.948 13.2418 421.302 13.3494 421.643 13.4588C426.244 14.6958 430.823 16.9581 434.825 19.7235C436.266 20.7308 435.763 20.4098 437.186 21.4742C445.182 28.007 443.211 26.3435 450.077 33.471C447.817 31.005 438.891 22.6652 437.33 21.7511C436.387 20.9479 432.5 18.098 433.843 19.2682C425.263 14.3165 432.978 18.0882 424.469 14.4118C424.634 14.5013 424.798 14.5918 424.961 14.6832C421.914 13.5666 419.576 13.0724 417.64 12.6847C417.47 12.6926 416.658 12.5671 415.396 12.4341C411.734 11.8301 404.34 12.6443 400.313 14.8015C392.28 18.5009 385.758 26.2019 380.015 32.509C378.029 34.7012 376.834 35.8752 376.578 36.1445C376.206 36.5373 375.181 37.6668 374.412 38.4246C371.813 41.5989 361.593 48.5486 358.388 48.8859C380.94 41.8683 388.824 9.30236 415.385 12.5333C416.133 12.6185 416.867 12.723 417.59 12.8457C416.074 12.6122 421.475 13.1533 426.883 15.5596C432.333 17.8458 437.404 21.8831 437.877 22.2588C438.772 22.9706 437.99 22.4083 438.254 22.6216C440.224 24.2156 441.865 25.6201 442.462 26.1608C442.915 26.5746 443.81 27.4298 445.376 28.9435C445.662 29.2203 445.766 29.2761 446.073 29.5765C448.105 31.5641 450.062 33.5666 452.082 35.5788C452.201 35.6984 452.683 36.2451 453.194 36.748C453.706 37.2515 454.252 37.7143 454.384 37.8409C456.008 39.4305 458.888 42.0686 460.612 43.3708C461.209 43.8297 460.815 43.488 461.487 43.9912C463.588 45.4797 462.821 45.1111 465.58 46.7056C466.533 47.2022 466.47 47.1637 468.34 47.9882C469.676 48.5346 469.51 48.5403 469.724 48.626C469.991 48.8494 474.89 49.9402 476.538 49.8784C474.723 49.8635 475.741 49.957 477.18 49.9418C478.578 49.9337 480.262 49.6333 480.086 49.622C482.039 49.361 483.963 48.8017 485.779 48.0142C486.389 47.7254 486.993 47.4083 487.574 47.0743C494.556 43.1 497.734 39.1574 503.141 33.447C503.396 33.1636 507.936 28.2958 507.754 28.5518C505.051 31.4795 502.404 34.4398 500.592 36.2382C497.769 39.3318 497.795 39.4854 492.619 43.8579C490.83 45.2599 490.697 45.3364 490.486 45.4958C487.186 47.8381 482.256 50.1049 477.18 50.0207C471.227 50.0967 466.047 47.3211 463.456 45.5252C462.015 44.6928 467.138 47.7761 465.124 46.6212C463.048 47.1892 441.535 25.333 448.53 32.1764C447.813 31.4634 447.09 30.7471 446.367 30.0411C445.569 29.3996 441.92 25.9386 442.411 26.2437C442.04 25.9403 441.668 25.6411 441.294 25.3443C440.572 24.7368 439.724 24.0132 438.502 23.034C436.119 20.9979 426.12 13.5579 415.368 12.6841C406.256 11.4177 398.883 15.7686 398.237 16.1516C398.214 16.1985 398.192 16.2455 398.169 16.2925C403.353 13.2936 409.39 12.0509 415.357 12.7775C425.096 13.7689 434.114 18.8886 441.856 26.0806C441.505 25.7271 441.152 25.3759 440.794 25.0271C445.937 29.5575 450.501 34.6815 455.482 39.4121C450.134 34.4948 442.328 25.9369 436.152 21.4925C435.07 20.6921 435.889 21.2427 435.642 21.0567C434.986 20.5843 434.267 20.0872 431.785 18.5825C429.377 16.927 422.573 14.2193 421.895 14.1795C420.691 13.8062 417.552 13.1641 415.338 12.9492C415.24 12.9383 415.145 12.9281 415.053 12.9183C412.171 12.6778 414.106 12.7912 413.529 12.7456C411.151 12.6078 409.001 12.8047 407.176 13.1266C404.4 13.4367 399.019 15.673 397.487 16.9007C399.184 15.8793 400.968 15.0091 402.831 14.3426C392.761 18.3144 387.186 25.3286 380.075 33.174C378.551 35.0729 384.481 28.5194 379.5 34.0901C380.415 33.0888 381.324 32.0791 382.232 31.0744C382.422 30.8181 382.613 30.5619 382.803 30.306C384.39 28.5943 385.984 26.8964 387.632 25.2581C387.148 25.7092 386.666 26.167 386.186 26.63C391.72 20.4625 398.735 15.8299 401.501 15.0628C401.64 14.9643 401.781 14.8669 401.923 14.7706C406.001 13.0184 411.76 12.5138 415.329 13.0261C417.923 13.3325 419.341 13.7251 418.453 13.6164C418.811 13.6756 419.166 13.7393 419.518 13.8074C423.957 14.9761 422.057 14.4424 423.718 14.9462C424.272 14.892 432.278 18.8739 428.708 17.1632C436.286 21.4389 433.938 20.1712 435.956 21.4723C440.494 24.7761 447.714 31.8937 444.581 29.013C445.178 29.5953 445.777 30.1883 446.368 30.7798C448.41 32.6335 450.216 34.6723 452.316 36.8116C453.036 37.5273 453.762 38.2397 454.497 38.9433C455.013 39.3809 455.543 39.8243 456.071 40.2551C463.211 46.6696 461.284 44.2043 464.723 46.9757C464.115 46.6548 463.506 46.3069 462.922 45.9532C461.549 45.0636 460.232 44.0857 458.973 43.07C463.958 47.2366 470.173 50.657 476.958 50.6486C477.032 50.6504 477.106 50.6517 477.18 50.6527C485.634 50.4398 490.116 47.1908 496.86 41.1795C497.482 40.5746 498.091 39.962 498.69 39.3426C498.131 40.0243 495.775 42.4041 500.184 37.9938C500.608 37.6592 497.682 40.7012 496.207 41.9486C495.856 42.2575 498.721 39.5315 495.449 42.545C493.1 44.4556 497.617 41.2536 490.241 46.6543C490.535 46.4824 490.829 46.3048 491.119 46.1235C490.292 46.6966 489.463 47.2231 488.583 47.7214C487.79 48.1264 486.978 48.4959 486.147 48.8219C484.056 49.6781 482.883 50.6085 477.579 50.8805C478.418 50.8396 478.109 50.8305 477.18 50.8138C476.506 50.7967 475.552 50.7537 474.464 50.6268C474.461 50.6545 474.457 50.6823 474.454 50.7101C468.264 49.5576 470.352 49.9457 465.597 47.876C465.144 47.6116 464.707 47.3405 464.272 47.0577C461.588 45.9183 453.906 39.0948 455.419 40.2238C453.201 38.3862 449.054 34.081 447.565 32.4445C447.425 32.3439 447.285 32.2432 447.145 32.1427C446.304 31.311 445.469 30.4932 444.619 29.6788C444.161 29.2122 443.7 28.7475 443.234 28.2857C442.618 27.7287 441.998 27.1783 441.369 26.6347C441.017 26.2795 440.661 25.9269 440.303 25.5769C439.276 24.7253 438.233 23.9007 437.169 23.1091C436.545 22.5917 435.909 22.0835 435.267 21.5919C435.228 21.4833 428.456 17.2087 426.33 16.479C425.713 16.2313 425.089 15.9986 424.466 15.7844C424.174 15.6455 423.878 15.5098 423.579 15.3774C423.1 15.2355 422.628 15.1057 422.152 14.9846C421.071 14.6339 419.975 14.3311 418.867 14.0769C417.124 13.77 416.045 13.6574 415.268 13.5639C414 13.4253 413.709 13.3765 413.063 13.3451C411.077 13.0312 404.57 14.199 403.575 14.7574C402.534 15.1102 402.018 15.2703 401.202 15.6229C394.549 18.8354 393.168 20.8491 392.585 21.1969C392.064 21.6762 392.681 21.1858 391.559 22.1835C390.361 23.2663 389.5 24.0324 388.482 25.0519C386.685 26.7091 378.379 36.126 377.812 36.6207C377.074 37.381 378.646 35.4377 376.3 37.9532C376.354 38.1668 370.874 43.1411 373.516 40.9029C371.269 42.9724 368.867 44.9156 366.226 46.5331C366.595 46.4359 363.347 48.5571 359.308 49.7899C357.317 50.428 354.311 51.0284 351.279 51.018C345.66 51.1692 340.468 48.9 340.822 48.9392C339.496 48.4284 338.204 47.8063 336.97 47.1011C328.621 41.9113 323.355 33.9398 317.06 27.2555C310.157 19.4171 300.413 13.4014 289.474 13.7142C280.728 13.4349 272.508 17.5261 267.518 24.6423C262.322 31.475 258.582 39.8839 251.414 45.2472C250.312 46.0574 250.427 45.9078 249.607 46.4429C246.622 48.6134 239.058 51.1878 232.246 50.9677C229.37 50.9723 226.796 50.7044 224.664 50.3052C222.435 49.8805 221.315 49.4678 220.645 49.2651C218.254 48.4679 218.838 48.696 217.754 48.2693C215.905 47.8812 207.912 42.5194 205.817 39.9886C204.669 38.8586 203.336 37.5005 202.113 36.0822C202.007 35.9603 202.24 36.1522 202.15 36.0491C199.925 33.4684 201.235 35.0446 200.489 34.1679C195.23 27.9507 190.042 20.7018 182.322 16.7601C180.438 15.7463 177.377 14.6603 175.568 14.2945C174.883 14.1572 176.131 14.4084 173.726 13.9771C172.919 13.8524 172.656 13.7681 171.712 13.6691C170.239 13.5261 169.182 13.5176 168.151 13.5325C166.363 13.5755 165.034 13.6674 162.833 13.8922C155.967 14.336 145.795 20.7219 141.663 25.3726C140.625 26.4057 140.112 26.9036 139.158 27.9295C138.482 28.6574 137.346 29.9895 136.326 31.1709C135.305 32.3448 133.689 34.2066 131.726 36.5036C129.678 38.9329 126.948 41.853 126.412 42.3474C125.781 42.9678 125.462 43.2003 124.805 43.8021C122.98 45.7155 116.892 49.8754 113.282 50.3881C111.4 50.8202 109.869 50.9025 108.635 50.9C107.453 50.8925 106.614 50.8026 105.978 50.7265C104.789 50.5902 103.426 50.3181 102.9 50.1713C102.083 49.9446 101.906 49.8427 100.897 49.4848C99.2594 48.8803 97.5963 48.1607 95.3858 46.8024C77.8929 34.9571 66.3017 13.2716 44.5398 13.5852C18.3399 12.4547 12.0913 47.0328 -13.9787 50.6882C-15.1819 50.8194 -16.2001 50.8664 -17.2659 50.8703C-20.6307 50.7962 -23.8917 50.6332 -29.0705 48.0317C-31.7306 46.5322 -30.592 47.1339 -32.5517 45.8121C-33.4 45.1912 -33.2167 45.3927 -34.2545 44.5587C-38.8319 40.8373 -42.8418 35.3765 -44.3684 33.4328C-44.9698 32.6519 -45.6899 31.7825 -46.908 30.1769C-53.668 20.9125 -63.4188 9.60953 -76.7825 10.1751C-80.2532 10.169 -83.6721 10.7726 -86.8039 11.9721C-94.8895 14.5885 -103.435 24.6381 -109.495 32.3044C-116.447 40.9867 -125.792 51.2756 -138.588 50.9361C-156.441 50.8567 -165.991 34.381 -175.492 24.6626C-182.642 16.7556 -191.92 9.96305 -202.683 10.2243C-216.332 9.20477 -223.817 21.8818 -230.918 32.405C-238.181 43.499 -251.25 50.2874 -264.409 50.9331C-264.963 50.9781 -265.513 51.0147 -266.056 51.0429C-265.518 51.0177 -264.969 50.984 -264.408 50.941C-255.726 50.3574 -245.146 47.4951 -237.464 40.0851C-229.649 32.9049 -225.532 22.7365 -218.93 16.451C-214.674 12.255 -208.786 10.2524 -202.683 10.337C-174.785 9.51293 -168.791 49.4046 -138.588 51.0454C-109.113 49.7281 -104.793 10.1939 -77.6529 10.3123C-77.3665 10.3043 -77.0764 10.3002 -76.7825 10.3002C-54.4289 8.49011 -47.3768 40.0745 -26.459 49.3917C-25.4995 49.7702 -23.4177 50.4163 -21.2112 50.7324C-20.9528 50.7729 -19.2165 51.0459 -17.2659 51.054C-15.5528 51.0781 -13.7977 50.9076 -12.8753 50.7627C-14.7418 51.0371 -7.0607 49.67 -4.98462 48.3149C-2.20776 47.0977 3.01074 43.466 7.73001 38.4461C12.0201 33.9185 10.8376 35.1792 11.085 34.9361C12.5659 33.3129 13.011 32.6919 14.1187 31.4382C17.052 28.1562 29.8608 12.5929 44.5398 13.7318C50.5629 13.7036 55.5152 15.4759 58.144 16.6562C60.3852 17.6811 60.4027 17.8116 60.8973 18.0624C62.1938 18.76 64.0259 19.8026 65.963 21.1879C69.4714 23.663 73.1225 27.0804 74.8528 28.7267C79.0502 32.5841 86.4739 40.7028 92.7247 45.1886C94.4865 46.4431 94.3631 46.3812 95.1935 46.9145C97.5562 48.4653 103.18 51.2276 108.635 51.0711C111.347 51.0764 113.85 50.4969 115.574 49.8747C124.136 46.7282 129.615 39.1481 135.168 32.759C135.538 32.3593 135.909 31.9594 136.278 31.5649C136.819 30.904 137.366 30.2432 137.914 29.5936C145.555 20.5618 156.158 13.3465 168.151 13.7116C170.66 13.7127 173.007 13.9309 175.408 14.451C177.085 14.5017 184.347 17.7494 185.312 18.7492C186.222 19.3678 187.139 19.9687 188.395 21.0392C190.119 22.5847 188.469 21.1522 191.212 23.7719C191.931 24.4983 191.28 23.7427 192.705 25.2353C193.265 25.5963 201.77 35.9786 202.345 36.4974C203.147 37.4123 203.824 38.272 204.041 38.5031C205.168 39.6991 205.176 39.5936 205.969 40.364C208.28 42.6711 211.767 45.2274 212.237 45.4829C216.54 48.6137 225.405 51.3041 232.246 51.048C233.894 51.047 235.231 50.9759 236.566 50.8501C237.504 50.7563 237.392 50.8153 237.555 50.7984C238.566 50.6789 239.282 50.4988 240.254 50.2979C245.738 49.5167 253.398 44.7411 256.703 40.3322C257.115 39.8542 257.925 38.8043 258.589 37.9102C262.244 32.8006 261.039 34.4607 261.266 34.1784C261.734 33.4812 262.49 32.2117 263.683 30.3529C266.534 25.4249 273.407 16.9326 279.306 15.4211C283.484 14.0461 283.48 14.4182 283.763 14.3022C284.37 14.2076 286.059 13.8387 288.987 13.7911C289.153 13.7888 289.315 13.7876 289.474 13.7874C294.617 13.9218 294.032 14.1134 296.269 14.4542C296.461 14.5096 296.132 14.3179 298.626 14.9552C303.628 15.7771 312.835 22.3968 316.32 26.5901C317.746 28.1038 318.103 28.4406 319.519 30.0474C321.737 32.6045 326.767 38.5359 327.241 38.9486C327.36 39.0749 327.66 39.3289 328.367 40.0603C329.143 40.8621 329.922 41.6595 330.534 42.2296C333.839 45.7854 341.504 49.4754 339.337 48.5531C340.77 49.1895 342.254 49.7026 343.789 50.0813C346.239 50.7628 348.749 51.0716 351.279 51.0705C358.966 51.1816 366.129 47.5226 371.678 42.6438C373.37 41.1874 374.725 39.9216 376.037 38.5967C377.398 37.2982 382.834 31.1978 383.741 30.2017C385.233 28.2383 395.05 18.7815 396.717 18.2598C399.432 16.4407 402.368 15.3174 403.607 14.9062C404.6 14.58 403.648 14.7933 405.585 14.2564C408.469 13.4023 413.272 13.392 415.25 13.7131C415.577 13.752 415.824 13.7851 415.974 13.8049C416.427 13.9042 415.6 13.5847 419.808 14.4729C422.062 15.0144 423.211 15.4796 424.008 15.7586C424.238 15.8888 423.961 15.5097 428.124 17.4524C430.96 18.8758 432.05 19.7097 432.34 19.8736C432.763 20.1436 433.816 20.7425 435.448 21.9352C439.33 24.6408 445.554 30.7587 448.743 34.0308C449.367 34.6563 449.187 34.4064 451.684 36.9027C453.482 38.6837 453.141 38.4026 453.823 39.0653C454.91 40.0974 456.568 41.6369 459.178 43.752C460.7 44.919 468.059 51.2108 477.18 51.0498C486.48 51.1418 493.196 44.6793 493.77 44.3856C494.637 43.6972 495.581 42.8627 496.002 42.5133C495.672 42.8446 495.34 43.171 495.005 43.4921C491.225 46.5061 492.747 45.3136 491.733 46.1026C490.346 47.3849 483.845 50.5627 482.019 50.6972C481.398 50.8065 482.853 50.6985 479.504 51.202C478.631 51.3012 477.864 51.3307 477.18 51.3285C475.094 51.3075 473.937 51.0863 472.857 50.9947C467.825 49.8782 463.511 47.5024 468.878 49.9581C469.735 50.2592 472.822 51.451 477.18 51.4579C489.611 52.2729 501.64 37.2241 504.521 34.3566C507.948 30.613 514.266 23.5956 519.244 20.1841C521.982 17.794 530.02 14.7418 529.755 15.133C532.729 14.4355 529.564 15.1066 530.187 14.9534C530.855 14.7639 533.757 14.1397 536.696 14.1814C539.403 14.1673 542.003 14.6866 542.849 14.8935C551.803 16.6615 560.604 25.0764 566.753 31.7806C566.445 31.4836 566.137 31.1871 565.83 30.8916C564.432 29.3522 557.656 22.7749 556.701 22.3071C567.349 30.7898 574.825 43.9094 588.861 49.833C588.713 49.735 593.479 51.6975 598.502 51.5951C603.015 51.6404 607.206 50.2259 607.587 50.1184C607.292 50.2519 606.994 50.3813 606.695 50.5064C602.684 51.5999 600.282 51.6388 598.502 51.6731C595.815 51.6103 594.399 51.6511 590.35 50.3809C587.653 49.4323 588.454 49.7458 587.157 49.2009C580.923 46.068 581.207 45.5748 581.445 45.8425C581.783 45.981 582.28 46.5185 578.213 43.2698C580.545 45.3635 574.009 39.8722 571.497 37.1246C570.855 36.5205 563.29 28.4584 562.343 27.6129C557.378 22.2585 547.181 14.9975 540.135 14.6721C538.866 14.5122 537.778 14.4606 536.696 14.4635C533.219 14.5173 530.593 14.9843 527.061 16.301C523.616 17.7462 524.603 17.347 523.031 18.1592C519.8 20.0336 518.92 20.9653 516.91 22.3334C514.93 23.9879 513.051 25.7966 511.224 27.6799C511.204 27.6603 511.185 27.6406 511.165 27.621C510.007 28.7944 508.868 29.9992 507.736 31.2192C507.423 31.5973 507.111 31.9763 506.799 32.3559C503.183 36.2387 504.625 34.5679 503.896 35.2443C503.115 36.084 502.318 36.9348 501.52 37.7694C500.942 38.4683 500.37 39.1504 499.773 39.842C496.114 43.523 492.093 47.169 487.099 49.5291C486.765 49.6553 486.429 49.7747 486.09 49.8869C486.091 49.917 486.091 49.9472 486.091 49.9773C483.308 51.1564 480.238 51.8183 477.18 51.8111C470.749 51.8922 464.669 49.0093 459.878 45.3199C458.927 44.5878 461.214 46.5488 464.272 48.3032C467.296 50.1301 471.261 51.2315 471.819 51.3109C473.181 51.6227 475.049 51.9105 477.18 51.9073C485.225 52.3384 493.585 45.604 493.492 45.7299C496.654 43.4711 504.244 35.3094 506.558 32.8646C503.055 36.6572 499.573 40.5838 495.506 44.1014C495.658 44.0139 495.81 43.9256 495.962 43.8363C490.675 47.946 489.938 48.8753 483.109 51.3043C483.091 51.2629 483.073 51.2215 483.055 51.1801C481.422 51.6802 479.305 52.0215 477.18 52.0044C472.987 52.044 469.203 50.5815 469.019 50.6511C466.498 49.7583 464.162 48.4929 462.012 47.0463C457.753 43.642 463.294 49.7635 448.264 35.0203C447.254 34 447.502 34.1753 445.98 32.6609C445.521 32.258 443.064 29.658 438.014 25.3619C437.219 24.7032 437.184 24.6192 436.348 23.9545C434.441 22.3666 430.272 19.8532 432.211 20.9245C423.871 16.0567 427.214 18.3151 424.511 17.092C422.659 16.4333 423.043 16.4869 421.415 16.007C419.591 15.5868 420.599 15.6267 415.124 14.8225C414.371 14.7355 413.519 14.6627 412.554 14.6349C413.391 14.6498 414.244 14.7033 415.127 14.7987C415.203 14.807 415.279 14.8154 415.354 14.8241C415.279 14.8115 415.204 14.7992 415.128 14.7871C414.724 14.7222 414.325 14.6662 413.93 14.6187C409.198 14.4928 409.641 14.6287 407.48 15.031C404.134 15.6191 401.281 16.604 397.28 19.215C389.825 24.9113 393.601 21.8304 385.756 29.598C384.55 30.9397 383.351 32.3077 382.141 33.6791C380.069 35.8687 381.689 34.0318 378.592 37.3325C381.143 34.8406 374.499 41.775 373.215 42.8849C373.066 42.9794 372.917 43.0732 372.768 43.1662C371.989 43.8446 371.178 44.5148 370.352 45.1522C370.363 45.1719 370.374 45.1916 370.385 45.2114C369.266 46.053 368.107 46.8468 366.891 47.58C365.999 48.1584 365.073 48.7036 364.118 49.2019C362.51 49.9471 360.838 50.5591 359.103 51.0093C358.045 51.3116 356.918 51.5602 355.834 51.7309C356.189 51.7074 356.53 51.6798 356.894 51.6411C355.492 51.9119 354.028 52.076 352.613 52.1277C353.892 52.0822 353.598 52.214 351.279 52.2669C350.593 52.2722 349.745 52.2549 348.751 52.1741C345.08 51.6131 349.119 52.665 341.444 50.5266C341.01 50.2143 339.63 50.5467 333.519 46.2936C326.728 40.7168 330.144 43.3219 328.957 42.3125C328.735 42.1073 326.829 40.2714 325.215 38.4686C324.289 37.4468 323.456 36.4329 323.337 36.2956C322.786 35.6632 322.591 35.5085 321.834 34.6287C319.919 32.3958 317.414 29.4276 315.485 27.415C314.611 26.4943 313.75 25.6823 313.346 25.2946C312.722 24.6901 311.944 23.9156 311.286 23.346C308.892 21.1554 304.764 18.7667 303.508 18.0204C300.8 16.6655 294.685 15.154 295.08 15.4335C293.629 15.1876 291.711 14.9837 289.474 14.9867C284.515 14.9001 278.764 16.2948 275.054 18.9991C271.316 21.6069 269.279 24.5647 269.347 24.2617C266.618 28.0482 266.846 27.7402 265.711 29.3925C264.472 31.2893 265.144 30.3236 264.157 31.8488C261.848 35.4228 259.577 38.9902 256.517 42.326C256.977 41.7847 257.419 41.2349 257.846 40.6769C254.703 44.1842 255.942 43.1445 252.168 46.2792C248.488 48.9566 247.121 49.2545 246.825 49.4321C246.496 49.558 247.061 49.2737 246.423 49.5155C246.609 49.4703 244.252 50.56 241.566 51.1941C238.928 51.8596 236.056 52.0828 235.492 52.1129C234.885 52.1157 237.365 52.0109 232.246 52.1542C231.94 52.1551 231.61 52.1536 231.255 52.148C231.582 52.1807 231.912 52.2101 232.246 52.2361C232.27 52.2379 232.294 52.2397 232.317 52.2416C232.294 52.2413 232.27 52.241 232.246 52.2407C229.294 52.4194 221.528 51.1516 220.303 50.5458C219.678 50.3636 216.617 49.1062 213.882 47.754C213.574 47.5516 213.276 47.3488 212.973 47.1359C210.057 45.4425 207.425 43.3358 205.048 41.0589C204.706 40.6555 204.372 40.2489 204.044 39.8398C203.321 39.0961 202.619 38.3384 201.933 37.5731C202.355 38.1108 202.785 38.6456 203.224 39.1765C198.863 34.457 194.23 28.5917 193.46 27.6212C192.58 26.6615 191.69 25.7293 190.776 24.834C190.232 24.2055 189.673 23.5875 189.102 22.9903C184.69 19.1604 184.486 19.2708 181.029 17.4974C181.183 17.5272 181.337 17.5584 181.491 17.5908C178.928 16.2713 173.8 14.8647 169.567 14.8162C169.153 14.8012 168.669 14.7887 168.151 14.7856C166.188 14.7567 163.979 14.9637 163.606 15.0232C163.133 15.0013 158.582 16.1902 158.095 16.2455C151.601 18.5156 149.201 20.625 146.932 22.2906C145.493 23.4487 144.881 24.0376 143.35 25.4893C141.168 27.5784 139.093 29.8738 137.921 31.215C137.25 31.9856 137.159 32.1589 136.701 32.6933C134.528 35.2454 135.776 33.7202 133.474 36.4318C133.254 36.6831 131.629 38.7148 129.59 40.9226C128.488 42.181 125.26 45.1957 124.924 45.4243C123.53 46.4869 124.962 45.9869 119.705 49.1507C119.871 49.0821 120.037 49.0117 120.202 48.9396C113.422 52.6434 111.695 51.7738 110.245 52.0843C110.129 52.0922 109.438 52.1553 108.635 52.1637C108.075 52.1714 107.478 52.1524 107.015 52.117C105.119 51.9588 104.377 51.7079 103.969 51.6326C102.488 51.4344 97.7718 49.7917 95.1719 48.0265C95.4668 48.7008 86.7454 42.2195 85.3471 40.3489C83.9544 39.0953 82.6072 37.8272 81.267 36.5502C80.6924 35.9431 80.1245 35.3391 79.5524 34.7309C79.1735 34.3934 78.7986 34.06 78.421 33.7245C76.5699 31.8007 74.7228 29.9006 72.8286 28.0741C72.6637 28.0058 72.4988 27.9381 72.3339 27.8708C71.7957 27.3704 71.2538 26.8761 70.7078 26.3897C70.3104 25.9776 69.908 25.5683 69.5029 25.1646C68.7983 24.5856 68.0844 24.019 67.3624 23.4702C67.1634 23.3605 66.9642 23.252 66.7648 23.1449C62.7738 20.4653 65.2175 21.0039 56.9161 17.3294C55.6325 16.7668 54.3105 16.2807 52.9737 15.8862C51.4173 15.577 48.5402 14.9438 46.1482 14.869C45.3795 14.838 44.974 14.8501 44.5398 14.8626C44.026 14.8822 43.4669 14.8937 42.2576 14.9762C39.9713 15.1737 40.0735 15.1775 39.8945 15.1888C38.0519 15.472 36.7196 15.8759 35.4351 16.2814C35.2526 16.3483 34.7142 16.4193 33.1249 17.0787C31.5289 17.7797 30.6121 18.2774 28.4022 19.665C27.2801 20.3966 26.9355 20.5852 25.9736 21.3039C21.397 24.7716 17.6526 29.4584 14.4206 32.6048C13.7844 33.3755 8.97034 39.0588 6.56393 41.3021C2.83771 44.7742 4.20239 43.3712 2.64459 44.6831C2.38641 44.8344 1.30792 45.9966 -2.49228 48.2373C-3.18146 48.6241 -3.00687 48.5608 -3.1058 48.6166C-6.19113 50.401 -12.0288 52.3014 -17.2659 52.1674C-19.6166 52.1662 -21.754 51.8695 -23.493 51.4594C-23.9615 51.3152 -26.7672 50.9395 -30.6645 48.5723C-36.9244 45.5193 -44.2697 35.6376 -49.168 29.2857C-49.8544 28.3925 -50.6627 27.3026 -50.9715 26.9163C-53.7212 23.7214 -52.4673 24.5211 -59.1617 18.0512C-58.6386 18.5984 -60.2499 17.1159 -62.7713 15.4948C-66.6523 13.254 -63.809 14.6455 -67.078 13.1673C-67.0884 13.1932 -67.0987 13.219 -67.1091 13.2449C-71.3592 11.5798 -73.9793 11.4816 -76.7825 11.4522C-79.0686 11.4985 -81.4651 11.6454 -85.0079 12.7406C-87.8808 13.5547 -91.7439 15.8355 -92.3197 16.286C-92.5721 16.4097 -95.1913 18.4915 -95.4192 18.7315C-96.7955 19.9066 -97.5654 20.5993 -98.6917 21.7201C-102.397 25.4274 -106.321 30.5924 -105.724 29.5684C-106.64 30.7382 -107.555 31.9213 -108.48 33.1045C-112.176 37.4138 -114.993 40.7558 -115.996 41.5013C-116.703 42.2599 -117.451 43.0236 -118.209 43.7496C-123.533 48.6895 -130.938 52.3656 -138.588 52.2116C-159.046 51.9196 -168.35 32.3813 -180.277 21.5821C-180.855 20.7551 -188.882 14.7258 -189.475 14.7843C-191.542 13.7485 -189.222 14.5249 -193.629 12.835C-194.136 12.7143 -194.648 12.6078 -195.164 12.5156C-200.906 11.2414 -198.138 11.8612 -200.451 11.5188C-201.417 11.4633 -201.097 11.5071 -202.438 11.4841C-202.519 11.4836 -202.6 11.4835 -202.683 11.4836C-206.367 11.4487 -211.806 12.2459 -216.056 15.5479C-220.355 18.7531 -223.504 23.7954 -225.831 27.2273C-226.777 28.6475 -226.664 28.4109 -226.961 28.8539C-227.777 30.0675 -229.352 32.5233 -231.202 34.9152C-237.458 44.1092 -250.98 51.6869 -264.304 52.2052C-273.574 53.0524 -282.924 51.1508 -289.851 47.4195C-290.989 46.8172 -291.115 46.687 -291.869 46.2476C-292.918 45.6511 -295.194 44.183 -296.198 43.4083C-297.157 42.6866 -297.726 42.1949 -298.705 41.3702C-303.201 37.6549 -308.274 31.7527 -311.821 26.8799C-312.134 26.4674 -315.763 21.3643 -315.851 21.2543C-316.316 20.5833 -312.789 24.7857 -318.35 17.695C-313.327 24.0387 -314.388 21.4743 -321.423 13.9715C-317.68 17.4506 -314.638 21.8694 -311.353 26.0935C-311.334 26.0884 -311.314 26.0834 -311.295 26.0784C-314.246 22.2311 -316.748 17.9362 -321.998 13.1425C-321.823 13.2678 -321.646 13.398 -321.469 13.5329C-316.759 17.7302 -312.379 24.4267 -309.146 28.2101C-313.659 22.5026 -317.386 15.9837 -323.053 11.679C-322.761 11.8624 -322.469 12.0601 -322.177 12.2711C-319.363 14.2249 -314.702 20.3155 -312.943 22.6086C-306.133 31.3723 -318.754 14.843 -316.662 17.5614C-309.438 26.6374 -302.898 36.7713 -292.974 43.2959C-292.848 43.5362 -302.049 36.8611 -308.615 27.7675C-315.06 18.6782 -322.656 10.492 -322.842 11.0188C-319.777 13.0905 -317.4 15.9968 -315.102 18.8619C-316.087 17.5431 -317.076 16.265 -318.17 14.9961C-317.858 15.3192 -317.535 15.6653 -317.232 15.9961C-313.175 20.7197 -309.674 25.8612 -305.667 30.5686C-317.002 15.8184 -322.947 8.17707 -328.583 8.47723C-328.02 8.46867 -327.465 8.51034 -326.919 8.59906C-320.931 8.21243 -310.353 25.3417 -303.523 32.6703C-304.928 31.1511 -310.48 24.0976 -311.576 22.5248C-311.891 22.0896 -310.73 23.555 -311.46 22.5534C-312.448 21.2211 -314.938 17.7558 -317.399 14.9373C-319.793 12.1044 -322.418 10.2717 -321.524 10.8769C-319.336 11.0349 -306.283 29.4226 -303.204 32.3861C-310.185 25.0127 -314.364 14.8651 -324.134 8.93723C-317.631 12.202 -314.469 17.5328 -307.242 26.7269C-305.038 29.6906 -319.864 9.23918 -321.891 9.60844C-317.873 12.3399 -315.176 15.945 -312.447 19.3572C-314.728 16.4344 -317.029 13.4471 -320.074 10.8635C-320.074 10.8454 -320.074 10.8273 -320.073 10.8091C-312.455 17.6833 -308.439 25.4193 -301.116 33.1435C-301.334 32.8803 -305.512 28.1014 -307.387 25.5872ZM544.107 15.6621C544.287 15.7423 540.711 14.8115 538.603 14.7432C538.909 14.7756 539.222 14.8138 539.536 14.8579C538.692 14.7676 537.754 14.7067 536.696 14.7045C532.165 14.545 526.931 16.4762 526.758 16.7073C523.841 17.9758 525.096 17.3496 524.159 17.7817C523.781 17.9257 520.139 20.0393 517.448 22.1982C516.81 22.7119 516.186 23.2398 515.568 23.7831C515.474 23.9175 515.381 24.0524 515.288 24.1876C514.402 24.9144 513.527 25.6715 512.667 26.4451C519.326 19.7903 527.511 14.4788 536.696 14.6331C539.215 14.6301 541.694 14.9706 544.09 15.6574C544.096 15.659 544.101 15.6605 544.107 15.6621ZM441.36 28.1449C438.175 25.043 432.76 21.1564 433.786 22.0417C436.037 23.6045 438.185 25.3486 440.267 27.1995C440.631 27.5104 440.997 27.827 441.36 28.1449ZM73.2759 28.3514C70.6122 25.7847 68.0492 23.5102 63.3755 20.4217C63.3698 20.4444 63.364 20.4671 63.3582 20.4897C65.3483 21.6125 70.1595 25.3907 73.2759 28.3514ZM637.363 28.0236C637.96 27.4567 638.563 26.8848 639.164 26.3199C636.825 28.7353 636.347 29.104 633.604 31.7707C633.438 31.9316 633.515 31.8957 633.457 31.9517C632.78 32.6067 632.134 33.1782 631.517 33.7636C630.325 34.8877 629.383 35.835 627.203 37.7718C625.504 39.2629 625.446 39.2231 624.839 39.7402C624.345 40.1872 619.196 44.5848 615.293 46.6843C611.542 48.6205 617.76 45.6483 623.872 40.498C630.045 35.4186 636.445 28.8369 637.363 28.0236ZM655.821 14.5867C655.136 14.7458 654.465 14.9669 653.794 15.2392C655.808 14.3981 651.626 15.8349 648.879 17.9507C648.84 17.757 655.073 13.7852 658.019 14.1916C657.286 14.2355 656.548 14.3731 655.821 14.5867ZM570.583 35.7384C572.785 37.9988 572.36 37.679 572.244 37.6084C571.539 36.8963 570.834 36.1699 570.143 35.45C570.29 35.5463 570.437 35.6424 570.583 35.7384ZM589.905 50.0032C588.827 49.914 582.398 46.6789 579.893 44.4751C579.784 44.3823 580.502 44.931 578.68 43.4629C578.065 43.0697 572.983 38.4786 574.19 39.396C578.663 43.6937 583.706 47.8643 589.896 50C589.899 50.001 589.902 50.0021 589.905 50.0032ZM597.011 51.4517C595.674 51.3981 594.297 51.2348 592.962 50.9662C592.276 50.7861 591.613 50.5823 590.946 50.3491C592.423 50.787 593.944 51.0969 595.481 51.2665C596 51.3444 596.499 51.4049 597.011 51.4517ZM-190.631 13.3221C-190.386 13.4717 -190.144 13.6244 -189.905 13.7802C-188.883 14.1782 -184.305 17.0444 -185.714 16.0797C-187.285 15.0258 -188.924 14.093 -190.631 13.3221ZM-212.515 12.4666C-213.513 12.8818 -214.497 13.3907 -215.42 13.9677C-216.452 14.7003 -217.409 15.5232 -218.306 16.4199C-214.289 12.5064 -208.406 11.3694 -209.399 11.4359C-208.195 11.1259 -206.956 10.9147 -205.677 10.789C-206.758 11.0077 -206.558 10.8629 -203.278 10.7867C-203.154 10.7688 -202.954 10.754 -202.683 10.7451C-201.341 10.6968 -198.427 10.8267 -195.249 11.6744C-197.658 11.0223 -200.142 10.7039 -202.683 10.6996C-203.054 10.6989 -203.418 10.7042 -203.775 10.7154C-203.775 10.6987 -203.776 10.6821 -203.776 10.6654C-203.36 10.6519 -202.995 10.6477 -202.683 10.6472C-200.627 10.6822 -201.138 10.6441 -202.683 10.6076C-204.476 10.5654 -207.401 10.8197 -209.391 11.3989C-209.697 11.4545 -210.027 11.5236 -210.346 11.5977C-211.097 11.8504 -211.799 12.1314 -212.515 12.4666ZM185.095 18.9525C184.442 18.4939 183.78 18.0654 183.096 17.6619C180.263 16.4139 186.023 19.0027 189.157 22.3351C188.184 21.1737 193.123 26.0242 193.336 26.395C192.831 25.7665 192.319 25.1474 191.795 24.5381C189.722 22.4427 187.511 20.5201 185.095 18.9525ZM163.508 14.1748C164.898 14.1016 162.163 14.2571 158.681 15.2462C155.179 16.1763 151.141 18.3232 149.251 19.6204C148.31 20.2224 146.679 21.3708 146.059 21.8946C145.691 22.2199 145.327 22.5522 144.968 22.8895C144.376 23.0834 138.029 29.6097 135.785 32.4996C135.54 32.7422 135.296 32.985 135.053 33.2278C134.203 34.2432 133.353 35.2676 132.491 36.2945C132.579 36.1485 132.667 36.0023 132.755 35.8559C132.122 36.6506 131.494 37.4343 130.845 38.2253C128.208 41.2376 129.765 39.2993 127.727 41.539C125.415 43.9822 129.334 40.088 129.273 40.1856C131.128 38.1767 135.007 33.4541 136.775 31.4264C137.812 30.2819 136.648 31.5614 141.1 26.6591C142.131 25.6419 143.186 24.6585 144.274 23.7224C146.207 21.9321 148.261 20.2946 150.464 18.8992C150.899 18.6791 151.342 18.4664 151.78 18.2676C151.967 18.016 157.43 15.5762 157.168 15.7594C159.247 15.1035 163.417 14.0776 168.151 14.1197C168.684 14.1203 169.21 14.1315 169.729 14.1533C170.241 14.1534 170.714 14.1611 171.238 14.1836C166.235 13.9772 169.519 14.0782 168.151 13.9966C168.13 13.9959 168.107 13.9953 168.083 13.9947C167.165 13.9483 164.498 14.0584 163.508 14.1748ZM-164.142 37.9467C-170.285 31.3853 -166.49 35.4126 -172.841 28.1911C-172.436 28.726 -172.032 29.2624 -171.629 29.8005C-168.506 33.3241 -163.21 39.1866 -164.135 37.9535C-164.137 37.9512 -164.14 37.949 -164.142 37.9467ZM-233.896 37.0252C-230.606 32.9666 -232.222 34.9872 -228.487 29.6219C-228.486 29.6193 -228.484 29.6168 -228.482 29.6142C-230.376 32.3951 -232.386 35.1612 -234.701 37.7053C-234.43 37.4807 -234.162 37.2539 -233.896 37.0252ZM4.28342 42.343C7.94525 38.9412 7.18665 39.5682 10.3069 36.3456C14.6808 31.344 10.9337 35.5371 10.8697 35.4765C9.86945 36.6215 8.85449 37.7599 7.80865 38.8777C5.13757 41.4721 7.595 38.9335 7.58325 38.9253C7.58112 38.9275 7.57895 38.9297 7.57678 38.932C7.55667 38.9127 7.64426 38.8278 6.62637 39.8293C5.87231 40.6798 5.0878 41.526 4.28342 42.343ZM18.5898 26.9533C17.4978 28.201 17.0132 28.7497 20.0698 25.6814C20.0719 25.6793 20.0741 25.6772 20.0762 25.675C20.2199 25.3204 23.2795 22.5377 24.7548 21.4025C25.1273 21.0862 25.5051 20.7758 25.8877 20.4725C23.288 22.3767 20.8889 24.6012 18.5898 26.9533ZM79.8457 33.7241C79.7613 33.839 77.1289 31.2423 80.7281 35.0024C81.4452 35.711 82.1718 36.4269 82.8978 37.1337C83.392 37.574 83.8994 38.0235 84.4023 38.4629C88.9498 43.0652 92.5215 45.5394 92.4178 45.3949C92.3582 45.2562 88.4999 42.586 80.8108 34.9191C80.8086 34.917 80.8063 34.9149 80.804 34.9128C80.4851 34.5173 80.1628 34.118 79.8457 33.7241ZM62.9112 19.3339C62.7374 19.3143 62.5638 19.2958 62.3905 19.2785C60.1172 17.7526 56.9238 16.1158 51.7684 14.7733C51.2967 14.6897 50.821 14.6161 50.3413 14.5528C49.7154 14.4244 47.397 14.0052 44.5398 14.0075C38.2657 13.6735 30.6926 17.2549 33.4022 16.184C35.1111 15.461 38.9553 14.5052 39.3305 14.4993C40.4649 14.3153 41.9951 14.1833 43.97 14.1451C44.1343 14.142 44.3252 14.1382 44.5398 14.1354C45.8279 14.1122 47.8843 14.1608 49.8514 14.4914C55.1142 15.0476 63.737 19.5458 69.1602 24.0545C69.5374 24.3918 69.9117 24.7334 70.2834 25.0788C74.2276 28.5176 72.9677 27.3056 76.4551 30.7552C77.7837 31.8308 74.2984 28.3008 70.7111 25.2353C67.1435 22.1327 63.3358 19.7383 65.3839 20.9381C65.3814 20.9364 65.379 20.9347 65.3765 20.933C64.5679 20.3751 63.7469 19.841 62.9112 19.3339ZM-56.4999 19.4354C-56.6174 19.0806 -61.2711 15.3759 -60.1069 16.1537C-61.6856 15.0215 -63.3464 14.0387 -65.0919 13.249C-65.0849 13.2681 -65.0779 13.2871 -65.071 13.3062C-63.3587 14.1296 -61.7371 15.1394 -60.201 16.2922C-60.2086 16.3145 -60.2162 16.3367 -60.2239 16.359C-57.6385 17.6918 -49.7373 27.0789 -50.1229 26.9308C-49.6903 27.4273 -49.2596 27.9283 -48.83 28.4323C-45.2773 33.1662 -42.287 37.3867 -37.6736 42.2142C-37.2873 42.5616 -36.8989 42.8997 -36.5014 43.234C-36.2688 43.4824 -36.0334 43.7279 -35.7951 43.9705C-33.9717 45.6017 -31.9732 47.0901 -29.7828 48.2895C-26.1037 50.0351 -27.879 49.2579 -30.6025 47.666C-33.3414 46.0663 -36.522 43.0931 -37.1652 42.4351C-37.3396 42.261 -37.3676 42.3401 -38.4466 41.233C-40.6385 39.4236 -49.449 27.1941 -52.4462 23.8263C-52.4423 23.7716 -52.4384 23.7168 -52.4345 23.662C-53.7349 22.1865 -55.084 20.7604 -56.4999 19.4354ZM103.298 50.7071C103.637 50.8302 103.983 50.9464 104.329 51.0536C105.915 51.3536 107.369 51.4561 108.635 51.4515C112.235 51.3999 114.031 50.7051 112.852 50.9204C112.848 50.9211 112.845 50.9217 112.842 50.9224C111.463 51.2033 110.067 51.3419 108.635 51.3446C106.823 51.348 105.041 51.1302 103.298 50.7071ZM457.721 43.0305C457.655 42.8774 455.497 41.0115 452.863 38.5098C452.974 38.6487 453.085 38.7874 453.195 38.9257C454.636 40.1562 456.119 42.0279 460.911 45.6056C460.934 45.574 460.957 45.5423 460.979 45.5107C459.858 44.7263 458.779 43.8967 457.721 43.0305ZM98.3157 48.889C96.6096 48.1274 92.2173 45.3606 95.0836 47.2269C97.2981 48.6155 99.2235 49.3246 98.3157 48.889ZM-250.87 48.6516C-249.546 48.1892 -248.338 47.7035 -247.062 47.111C-246.424 46.7727 -245.82 46.4297 -245.21 46.0616C-245.212 46.0632 -245.215 46.0647 -245.218 46.0663C-247.014 47.0666 -248.898 47.9253 -250.87 48.6516ZM-10.7942 50.7255C-6.1925 49.6995 -1.93317 47.3862 1.67578 44.5303C1.6987 44.4849 1.7215 44.4394 1.7442 44.3939C-1.87033 47.2959 -3.71295 47.9682 -4.67084 48.4669C-4.6665 48.4648 -4.66217 48.4627 -4.65781 48.4606C-7.81891 49.988 -11.1314 50.8771 -14.4381 51.1563C-13.2 51.0887 -12.0146 50.9512 -10.7942 50.7255ZM-26.6831 49.5715C-25.9928 49.8228 -25.0732 51.0388 -17.8342 51.3543C-18.1239 51.3297 -18.4106 51.3008 -18.6943 51.2677C-22.4339 51.0721 -24.5477 50.3129 -23.8907 50.4471C-24.8231 50.2149 -25.7791 49.915 -26.6831 49.5715ZM31.5952 16.898C30.7922 17.0497 25.5292 20.5232 25.8765 20.4278C25.9327 20.3894 27.6112 19.1559 29.2172 18.2279C30.8154 17.2833 32.3113 16.6207 31.5952 16.898ZM502.331 36.4901C501.292 37.5873 500.237 38.6815 499.15 39.7598C500.571 38.3055 501.937 36.8241 503.291 35.3333C502.975 35.7163 502.652 36.1056 502.331 36.4901ZM513.535 24.4474C514.342 23.7712 511.836 26.0852 516.611 22.0048C513.09 24.9042 509.898 28.2545 506.744 31.6752C508.208 30.0552 509.68 28.4541 511.191 26.9054C510.896 27.1455 510.603 27.3864 510.31 27.6297C511.365 26.5427 512.435 25.4788 513.535 24.4474ZM517.323 21.3127C516.34 22.0548 518.315 20.3055 520.888 18.6482C523.44 16.9453 526.68 15.6328 527.249 15.4633C527.501 15.3677 528.705 15.0524 529.158 14.9496C527.323 15.4719 525.535 16.1916 523.823 17.0687C524.407 16.7977 524.998 16.5447 525.596 16.3111C523.544 17.2154 521.592 18.3514 519.732 19.65C520.516 19.0766 521.315 18.5342 522.136 18.0237C520.464 18.9939 518.862 20.1065 517.323 21.3127ZM474.408 51.1018C475.338 51.2111 476.236 51.2642 477.18 51.2661C478.048 51.267 478.885 51.2193 479.734 51.1215C479.368 51.1249 479.022 51.1174 478.667 51.1025C478.177 51.1358 477.681 51.1527 477.18 51.1527C476.606 51.1527 476.041 51.1325 475.482 51.0928C475.129 51.1043 474.771 51.1075 474.408 51.1018ZM503.951 34.5299C502.448 36.4649 497.538 41.044 503.005 35.452C503.548 34.8879 504.094 34.347 503.951 34.5299ZM531.846 14.251C536.787 13.5217 535.661 13.8056 531.025 14.488C530.793 14.5319 531.473 14.3244 531.846 14.251ZM564.802 29.2095C565.093 29.5135 565.535 30.0944 568.374 32.9508C568.824 33.4408 569.273 33.9297 569.727 34.4209C568.641 33.2554 559.365 23.87 560.674 25.1524C562.138 26.5263 563.342 27.707 564.802 29.2095ZM555.637 20.377C554.064 19.1959 552.432 18.1158 550.719 17.1772C551.267 17.5135 551.809 17.8667 552.337 18.2306C551.519 17.7327 550.681 17.265 549.829 16.8362C548.401 16.0425 546.915 15.3546 545.38 14.7992C549.402 16.0935 553.108 18.3119 556.47 20.9431C556.193 20.7512 555.918 20.5639 555.637 20.377ZM509.715 27.6178C512.422 24.9386 515.667 21.5009 520.83 18.1854C520.832 18.1839 520.835 18.1824 520.838 18.1808C521.096 18.02 521.575 17.7641 522.428 17.2836C522.72 17.1256 525.223 15.6618 528.297 14.7049C531.36 13.6929 534.93 13.3898 536.696 13.433C537.553 13.4412 537.964 13.4779 537.716 13.4803C537.367 13.4716 537.027 13.469 536.696 13.4716C531.083 13.6252 529.001 14.5512 527.687 15.0764C527.387 15.1432 527.082 15.2173 526.782 15.295C521.119 17.5773 519.849 18.9942 517.118 21.0681C517.113 21.0399 517.108 21.0117 517.103 20.9835C515.284 22.4169 513.562 23.972 511.891 25.5982C512.138 25.3806 512.384 25.166 512.634 24.9507C512.039 25.5189 511.452 26.0953 510.869 26.6815C509.4 28.0527 507.628 29.9049 509.715 27.6178ZM562.347 26.2899C563.987 27.1846 575.593 41.0956 582.835 45.5957C579.051 43.2787 574.21 38.5196 570.967 35.0996C564.683 28.5055 568.977 33.1112 567.888 32.014C567.354 31.4683 563.887 27.6595 562.347 26.2899ZM500.164 37.9048C503.324 34.6144 504.961 32.6692 507.684 29.8616C507.471 30.11 507.257 30.3595 507.045 30.6092C506.143 31.581 498.636 39.6143 500.164 37.9048ZM594.135 50.4097C589.701 49.4893 588.723 48.7672 588.146 48.6086C587.595 48.3709 587.503 48.4136 585.474 47.2464C588.16 48.7334 591.092 49.8425 594.144 50.3604C594.141 50.3768 594.138 50.3933 594.135 50.4097ZM90.1619 42.6207C87.2898 40.2387 84.3586 37.3047 82.7345 35.8093C84.5135 37.5775 86.324 39.3419 88.2081 41.0291C88.8487 41.5679 89.4997 42.1 90.1619 42.6207ZM180.145 14.7057C179.38 14.3278 176.143 13.4476 175.805 13.4182C175.175 13.2803 175.35 13.2954 175.343 13.2862C171.111 12.5642 175.012 13.2457 171.879 12.8618C171.616 12.8387 170.138 12.6756 168.151 12.6698C165.628 12.6371 162.621 12.9776 160.923 13.3373C156.355 14.188 152.141 16.3066 150.666 17.1853C148.085 18.584 143.758 21.9286 140.426 25.405C139.041 26.8241 138.54 27.3012 137.204 28.7876C131.129 34.9671 122.103 50.3982 108.635 50.0488C103.629 50.071 99.434 48.1808 96.6339 46.5323C94.1962 45.1045 92.1308 43.3997 90.9733 42.4626C90.0537 41.7411 89.1503 40.9906 88.2617 40.2236C85.7304 37.6513 84.7597 36.9278 81.9814 34.2107C80.2188 32.4757 79.4482 31.6264 79.2095 31.3913C77.6473 29.8504 76.8492 29.1138 75.595 27.9295C74.1927 26.5957 72.1325 24.7262 71.5993 24.285C71.2357 24.0613 72.3883 24.7782 66.3858 20.2862C60.2008 15.8478 52.9211 12.8324 45.1184 12.7553C47.6819 13.0545 49.9252 13.12 52.9942 13.8808C53.8168 14.0964 53.2874 13.9918 53.997 14.191C56.0172 14.7134 59.7097 16.2601 61.2095 17.1279C62.8368 18.0402 62.2495 17.7835 64.2724 19.0053C64.374 19.0687 64.0757 18.8328 64.5468 19.1295C69.2113 22.2234 70.5952 23.4705 75.7791 28.3042C77.5398 29.8634 83.2451 35.9335 89.1443 41.1563C94.9573 46.5814 102.083 49.2975 102.581 49.2814C105.127 49.9631 98.63 48.8486 92.7509 44.2252C86.834 39.8009 81.1035 33.5804 79.8133 32.3935C78.94 31.5225 79.8874 32.4046 79.0933 31.6073C78.7531 31.2781 75.6848 28.2877 72.5276 25.4924C68.8427 21.9599 60.3397 16.0869 55.6115 14.7952C52.0563 13.5627 48.2975 12.9352 44.5398 12.941C16.6556 11.8058 10.633 50.0278 -17.2659 50.2472C-31.2549 50.6475 -40.1053 38.1294 -47.642 28.1167C-48.1887 27.4117 -48.9238 26.4926 -50.753 24.2426C-57.0289 16.1971 -66.1108 9.21454 -76.7825 9.5554C-105.338 8.83063 -109.763 49.2795 -138.588 50.2613C-159.78 49.9002 -168.416 27.5843 -183.192 16.5692C-188.742 12.2124 -195.607 9.47998 -202.683 9.56854C-207.539 9.5505 -212.392 10.6556 -216.406 13.4139C-217.607 14.2712 -218.724 15.2545 -219.754 16.3143C-217.243 13.3312 -210.801 10.6135 -210.125 10.6588C-209.922 10.6095 -208.518 10.1323 -206.262 9.87144C-204.625 9.68871 -203.533 9.68708 -202.683 9.69146C-201.848 9.70157 -201.42 9.73463 -201.284 9.7394C-200.463 9.78247 -200.997 9.7148 -200.219 9.77058C-194.328 10.2892 -189.971 12.1064 -185.456 15.0888C-180.417 18.6077 -178.337 21.0022 -175.174 24.1911C-174.847 24.5819 -174.523 24.9747 -174.2 25.37C-171.725 27.5621 -159.213 43.7318 -151.323 47.1292C-149.008 48.3146 -149.412 48.1078 -148.61 48.4614C-148.05 48.5218 -148.411 49.0681 -141.68 50.1892C-140.326 50.3437 -139.384 50.3726 -138.588 50.3849C-137.374 50.3937 -136.663 50.3648 -135.617 50.2536C-134.678 50.1361 -134.832 50.1258 -133.522 49.8851C-125.821 48.2955 -120.636 43.9385 -115.529 38.5098C-114.092 36.9479 -114.066 36.9464 -113.75 36.5924C-112.595 35.2799 -110.708 32.9106 -107.928 29.4854C-103.599 23.6814 -93.3377 13.201 -87.4282 11.6752C-86.6195 11.3578 -85.9441 11.177 -85.3391 10.9878C-84.4203 10.705 -84.0693 10.5776 -83.9088 10.5345C-80.7806 9.84579 -82.6575 10.2765 -80.5515 9.93938C-79.5823 9.82085 -78.6552 9.67498 -76.7825 9.64821C-76.3834 9.64468 -75.9503 9.64935 -75.4788 9.66782C-71.9458 9.89724 -72.653 9.99172 -71.1954 10.2163C-71.0441 10.2519 -70.9696 10.1879 -69.5676 10.5375C-64.08 11.6973 -57.4504 16.6536 -53.987 20.6233C-52.961 21.7331 -52.2358 22.5991 -50.8884 24.2351C-48.3442 27.5655 -33.1871 46.9785 -30.2258 46.8081C-30.0341 46.9076 -31.9918 45.8824 -28.9316 47.6134C-28.0187 48.0621 -27.0667 48.4618 -26.1099 48.7931C-24.533 49.4381 -22.8644 49.916 -21.1957 50.211C-21.2054 50.1395 -19.3997 50.3996 -17.2659 50.3759C-14.4659 50.4055 -11.3055 49.7823 -11.3356 49.8669C-10.2629 49.6449 -9.1925 49.3532 -8.15527 49.0012C-6.05457 48.0997 -4.55948 47.6348 -0.933441 45.1426C-0.350555 44.782 0.223572 44.404 0.785767 44.0139C0.908752 43.8911 1.03098 43.7676 1.1524 43.6434C3.09363 42.3125 5.76852 39.5435 6.08047 39.2106C7.34192 37.943 8.27353 36.9819 8.84012 36.3698C10.9729 34.0885 15.3341 28.954 17.8668 26.3743C17.9858 26.2529 17.905 26.406 18.6271 25.6738C19.9391 24.3693 20.0052 24.1693 21.8837 22.57C22.2387 22.2203 22.5971 21.8762 22.9615 21.5364C23.3714 21.2022 23.7857 20.8751 24.2047 20.5556C26.6303 18.6108 29.259 16.9181 32.0911 15.6636C29.5893 16.9666 32.468 15.459 35.371 14.5093C36.3528 14.191 35.4599 14.4013 35.7882 14.2957C36.04 14.1839 40.4261 13.0008 44.5398 13.0972C47.7256 13.0872 50.5562 13.6511 50.9532 13.7461C51.6051 13.8556 52.2361 13.9803 52.8876 14.1298C53.2035 14.2454 53.5161 14.3654 53.8255 14.4895C54.1769 14.5785 54.5231 14.672 54.873 14.7726C58.4341 15.6446 66.5595 20.5267 67.8148 21.7327C68.5261 22.3099 67.8435 21.8468 71.2148 24.6618C71.3562 24.7314 71.4977 24.8016 71.6386 24.8719C72.4031 25.528 73.1582 26.198 73.9049 26.8774C75.3006 28.1584 77.2309 30.1336 77.2616 30.2302C77.7061 30.6246 78.1488 31.0203 78.59 31.4164C79.6675 32.5902 85.6769 38.6182 88.3389 40.8329C89.0697 41.5186 89.8231 42.2011 90.5844 42.8588C91.6571 43.6922 92.7506 44.4878 93.893 45.2405C96.5123 46.9832 93.7136 45.1847 94.2705 45.5601C95.3313 46.5699 101.977 49.5597 101.566 49.3286C102.51 49.6487 103.478 49.9109 104.462 50.1057C104.971 50.1723 105.483 50.2212 105.998 50.2518C106.657 50.3765 107.476 50.4785 108.635 50.4925C110.464 50.4931 113.099 50.35 116.59 48.9179C117.051 48.6936 117.503 48.4532 117.945 48.1984C119.635 47.3825 121.226 46.3543 122.707 45.2201C122.979 44.9467 123.252 44.6645 123.513 44.3849C124.118 43.8622 124.726 43.3031 125.3 42.7489C126.576 41.6941 128.498 39.4855 129.518 38.3851C130.982 36.7875 129.994 38.1415 127.209 41.0977C127.606 41.0246 135.354 31.821 137.164 29.7713C137.034 29.898 136.903 30.0253 136.772 30.1534C134.925 32.2763 133.13 34.4576 131.289 36.6138C129.62 38.3054 134.614 32.4625 136.911 29.8107C137.128 29.5778 138.244 28.1285 140.718 25.6093C141.639 24.5886 145.675 21.123 146.526 20.5747C153.292 16.0659 148.063 18.8923 155.285 15.5685C153.724 16.1445 157.915 14.2253 162.668 13.5606C163.145 13.4718 165.916 13.1079 168.151 13.1121C169.562 13.0964 170.649 13.1656 170.823 13.1762C173.737 13.4537 170.588 13.1071 174.729 13.7267C175.23 13.7992 175.721 13.8826 176.205 13.9765C177.179 14.2122 178.086 14.48 179.017 14.8062C184.458 17.1193 185.473 18.1524 187.216 19.3167C187.891 19.8368 187.015 19.1771 188.725 20.572C189.358 21.1118 190.098 21.6685 191.692 23.2562C196.586 28.3282 197.74 30.5111 202.169 35.3312C202.807 36.1077 203.457 36.877 204.123 37.6341C204.61 38.1095 205.105 38.5785 205.606 39.0385C209.279 42.7319 208.034 41.3177 209.451 42.5528C213.075 46.1487 222.81 49.6824 223.753 49.6279C226.646 50.136 229.833 50.4218 232.246 50.4576C233.429 50.4798 234.338 50.4561 234.878 50.4221C235.853 50.3432 236.923 50.2182 237.881 50.0621C239.063 49.9209 240.235 49.7213 241.396 49.4524C240.845 49.5356 246.709 47.7504 247.196 47.2988C248.025 47.3285 255.598 41.4513 257.434 38.3767C259.617 35.6259 262.847 30.4983 263.149 30.0679C263.503 29.5737 266.529 24.4813 269.677 21.1861C270.638 20.1684 273.388 17.3401 277.363 15.5377C281.251 13.6785 286.179 13.1152 289.474 13.1473C292.223 13.1495 293.862 13.3962 293.443 13.3134C292.311 13.1777 290.951 13.0791 289.474 13.0692C288.877 13.0648 288.298 13.0745 287.756 13.0956C285.017 12.9879 273.862 14.4825 267.551 23.4832C261.356 31.989 255.649 41.7097 251.634 44.1939C246.298 48.5749 239.198 50.3412 232.246 50.2835C220.506 50.7459 209.432 44.2089 202.404 35.3967C201.705 34.5915 201.636 34.4368 201.047 33.7394C200.148 32.6818 197.882 29.996 197.006 28.9519C193.803 24.9906 189.423 20.6166 187.193 19.0676C182.329 15.4587 178.285 14.0653 173.762 13.3025C173.067 13.1903 170.866 12.888 168.151 12.9074C165.526 12.9063 162.572 13.229 160.181 13.763C159.304 13.9449 158.414 14.1682 157.564 14.4179C159.602 13.6824 164.706 12.7381 168.151 12.8199C168.795 12.8177 169.365 12.8315 169.842 12.8513C174.485 13.0776 176.833 13.8868 178.447 14.3789C179.9 14.611 186.501 17.9189 188.923 20.3026C189.714 20.9774 189.838 21.1592 190.49 21.7618C194.048 25.0336 197.996 30.0617 200.744 33.2467C199.57 31.9854 206.642 40.0684 207.209 40.3135C207.919 40.9713 208.711 41.6566 210.265 42.8814C213.327 45.1116 212.834 45.0474 217.123 47.0793C218.189 47.595 219.261 48.0429 220.384 48.4408C220.428 48.4324 226.571 50.329 232.246 50.1724C235.266 50.1811 237.887 49.8265 239.362 49.4912C239.395 49.4746 236.209 50.1092 232.246 50.0711C226.522 50.2471 219.736 48.1763 218.906 47.7247C209.473 44.7168 200.722 32.9076 194.791 26.0109C193.108 23.7758 186.592 17.94 185.89 17.7689C185 17.184 185.779 17.7497 185.394 17.4994C181.387 15.036 180.161 14.8688 180.052 14.7368C179.912 14.6583 180.719 14.9469 180.145 14.7057ZM516.941 20.8449C514.727 22.5903 512.648 24.5203 510.644 26.529C510.77 26.363 510.896 26.1973 511.022 26.032C511.952 25.123 512.9 24.2305 513.866 23.37C514.596 22.6864 515.335 22.0235 516.095 21.3771C516.376 21.1965 516.658 21.0191 516.941 20.8449ZM522.627 16.8877C524.769 15.7296 524.935 15.7966 525.442 15.563C526.981 14.9148 528.345 14.4289 529.92 14.0361C528.119 14.5552 524.415 15.9589 522.627 16.8877ZM483.643 49.4538C484.178 49.3199 487.929 48.1712 491.327 45.4862C493.967 43.6487 496.362 41.501 498.644 39.2705C494.893 43.1845 488.748 47.7446 486.142 48.6595C485.201 49.0693 484.996 49.0935 484.222 49.3694C481.705 50.2599 479.074 50.6132 477.18 50.5999C475.696 50.599 474.727 50.4521 474.514 50.3633C475.432 50.4785 476.306 50.528 477.18 50.5272C480.531 50.5353 483.102 49.6129 483.643 49.4538ZM505.308 32.0284C505.832 31.5051 506.353 30.9866 506.879 30.4677C505.068 32.4184 503.28 34.4001 501.449 36.3548C501.918 35.8062 502.392 35.2481 502.854 34.6985C503.674 33.81 504.491 32.9179 505.308 32.0284ZM332.911 43.4046C334.187 44.4726 335.529 45.4666 336.949 46.3472C336.876 46.289 335.283 45.2405 334.737 44.7964C334.74 44.7982 334.742 44.8001 334.745 44.8019C334.131 44.3156 334.407 44.5065 333.312 43.6074C333.178 43.5407 333.044 43.473 332.911 43.4046ZM-221.187 17.6697C-223.273 19.4366 -237.476 40.7278 -236.808 38.5153C-235.849 37.89 -230.418 30.9725 -229.097 28.7686C-227.21 25.8315 -221.8 18.2862 -221.187 17.6697ZM-253.169 48.1993C-253.366 48.2905 -249.595 47.2852 -245.915 45.3128C-242.184 43.4035 -238.849 40.4647 -238.287 39.9142C-238.54 40.1301 -238.942 40.4527 -239.288 40.7393C-240.741 42.4346 -249.686 47.5778 -253.169 48.1993ZM261.057 32.7033C261.793 31.65 262.52 30.5896 263.253 29.5381C263.022 29.7916 262.793 30.0437 262.563 30.2974C262.062 31.0993 261.562 31.9027 261.057 32.7033ZM156.595 14.7622C136.305 20.6898 131.086 48.4098 108.635 50.2227C107.591 50.222 106.589 50.1483 105.564 49.9982C106.591 50.1358 107.593 50.1968 108.635 50.1848C109.538 50.1733 110.38 50.1094 111.262 49.9845C130.651 45.9885 136.958 22.1092 154.124 15.6357C154.946 15.3084 155.757 15.0219 156.595 14.7622ZM477.576 50.2105C477.444 50.2129 477.312 50.2142 477.18 50.2142C471.798 50.1845 467.277 48.5309 462.492 45.1929C467.273 48.2399 470.003 49.5909 475.545 50.0726C475.548 50.0728 475.552 50.073 475.555 50.0732C476.087 50.1336 476.629 50.1755 477.18 50.198C477.312 50.2034 477.444 50.2075 477.576 50.2105ZM376.562 36.7914C377.69 35.5589 378.791 34.3071 379.884 33.0495C378.535 34.5302 377.171 36.006 375.773 37.438C376.038 37.2227 376.299 37.0085 376.562 36.7914ZM5.41068 39.3354C3.41098 41.3674 -0.400513 44.8838 -4.8772 47.0975C-9.32178 49.4076 -14.2514 49.9773 -16.5558 50.0386C-16.8262 50.0503 -14.6754 50.0347 -17.2659 50.1524C-17.6234 50.1611 -18.0666 50.1644 -18.6054 50.1481C-18.1462 50.1683 -17.6982 50.1761 -17.2659 50.1736C-14.5442 50.1558 -12.7534 49.7758 -12.5553 49.6943C-11.5492 49.5473 -10.5685 49.3473 -9.58676 49.0874C-7.97757 48.6057 -6.42456 47.9724 -4.93387 47.2074C-5.07697 47.3304 -4.91446 47.3455 -2.72092 46.0019C-1.70959 45.4071 -0.732574 44.7591 0.215607 44.0684C0.595428 43.7487 0.969666 43.4217 1.33896 43.0881C2.15112 42.4827 2.94467 41.8479 3.71967 41.1937C6.57156 38.4538 4.76031 40.0484 5.41068 39.3354ZM19.0528 24.6362C18.2569 25.1551 0.480011 44.9185 8.75806 36.1183C10.887 33.8056 12.9377 31.4284 15.0386 29.1015C13.1214 30.8693 19.0422 24.7003 19.6038 24.2775C21.9863 21.9188 25.2757 19.1832 27.3411 17.9027C29.101 16.7805 30.2252 16.246 31.5482 15.6262C35.5545 13.5517 42.3554 12.6972 44.5398 12.7764C44.8044 12.7687 45.0007 12.763 45.1184 12.7553C44.9264 12.752 44.7336 12.7504 44.5398 12.7503C40.8332 12.7429 37.0465 13.352 33.4525 14.7247C29.5186 16.3117 25.9823 18.0198 20.2002 23.6315C18.7617 25.0092 19.2281 24.472 19.0528 24.6362ZM383.263 29.3422C383.145 29.5024 390.151 22.1977 390.273 22.2267C390.261 22.186 387.882 24.4639 387.555 24.8081C387.553 24.8103 387.55 24.8124 387.548 24.8146C387.408 24.9521 388.082 24.2188 386.989 25.3145C385.72 26.6336 384.486 27.9834 383.263 29.3422ZM-185.394 14.7587C-185.87 14.343 -193.89 9.01184 -202.683 9.3249C-210.45 9.01712 -216.691 13.2178 -216.914 13.5134C-217.113 13.6635 -216.818 13.4799 -216.89 13.5474C-213.379 10.8628 -207.936 9.27142 -202.683 9.3796C-199.256 9.3802 -195.999 9.99953 -193.405 10.8616C-191.597 11.4829 -192.125 11.2857 -192.022 11.3146C-192.018 11.3162 -192.014 11.3179 -192.009 11.3195C-190.944 11.6179 -186.608 13.9588 -185.394 14.7587ZM-26.4323 48.3712C-25.2018 48.8782 -23.922 49.2841 -22.6086 49.5795C-22.2635 49.6249 -21.9297 49.6603 -21.5953 49.6891C-21.5983 49.6886 -21.6013 49.6881 -21.6043 49.6875C-23.2525 49.421 -24.8801 48.9774 -26.4323 48.3712ZM-58.5546 15.8354C-58.3153 16.0534 -58.0788 16.2744 -57.845 16.4984C-55.2961 18.6642 -53.0279 21.1434 -50.8967 23.7232C-51.1207 23.4698 -51.3457 23.2179 -51.5719 22.9678C-48.3564 26.8759 -47.0984 28.5578 -45.4613 30.7047C-45.4632 30.7022 -45.4651 30.6998 -45.4669 30.6973C-45.2916 30.93 -45.1144 31.2327 -44.4585 32.0952C-43.0033 34.1054 -38.4812 39.5895 -37.7873 40.1343C-36.6797 41.5691 -45.7441 30.5118 -47.2465 28.3068C-47.9751 27.3482 -48.8355 26.1832 -49.2905 25.6091C-49.7907 24.98 -50.5009 24.1509 -51.7649 22.6615C-52.0941 22.1946 -56.3311 17.4609 -58.5546 15.8354ZM-108.556 29.7637C-107.87 28.9899 -106.535 27.2947 -106.02 26.6924C-105.897 26.5483 -106.812 27.7018 -105.66 26.3397C-105.356 25.9374 -105.048 25.5349 -104.739 25.1348C-106.035 26.6584 -107.297 28.2097 -108.556 29.7637ZM395.69 17.7795C395.39 17.8703 391.141 21.2448 390.989 21.4796C389.812 22.6023 391.281 21.2401 392.952 19.8908C394.622 18.5226 396.547 17.2515 395.69 17.7795ZM510.562 25.6734C509.687 26.5875 514.175 21.434 520.488 17.4403C526.749 13.1663 535.18 12.4566 536.696 12.6166C536.712 12.6166 536.726 12.6166 536.74 12.6166C536.735 12.6193 536.72 12.6218 536.696 12.6241C536.049 12.5214 529.711 13.2915 533.239 12.9206C529.597 12.8236 520.636 17.0059 518.925 18.5885C517.781 19.3783 517.469 19.5551 517.298 19.6782C516.558 20.0796 511.154 25.0202 510.562 25.6734ZM558.851 21.9408C556.715 20.0983 554.456 18.3893 552.028 16.9476C554.907 18.6279 557.555 20.6838 560.044 22.8943C559.65 22.5724 559.251 22.2532 558.851 21.9408ZM561.516 24.2875C561.56 24.1075 568.246 30.9856 569.958 32.8298C567.907 30.863 564.77 27.3033 561.516 24.2875ZM429.899 17.0811C425.965 15.0483 424.109 14.5658 429.026 16.7144C429.175 16.7826 430.061 17.1683 429.899 17.0811ZM4.2189 40.0611C3.81586 40.7534 -3.6264 46.3433 -4.24408 46.3665C-5.66202 47.3237 -0.383026 44.2436 1.14981 42.8537C3.68756 40.7392 0.204376 44.1347 6.02072 38.5126C5.80325 38.7643 5.58463 39.0144 5.36469 39.2626C8.70288 35.8934 7.47656 36.8663 8.05463 36.2433C8.23077 36.0559 10.2358 33.8708 10.5813 33.4619C14.9461 28.4011 4.89066 39.7519 4.2189 40.0611ZM335.596 44.7636C328.831 39.2177 331.594 41.7318 325.495 35.1124C325.119 35.0406 334.331 44.5027 335.596 44.7636ZM75.4476 27.4683C68.8259 21.299 62.7279 16.4706 54.5345 13.9916C54.7878 14.0658 61.3787 16.2809 66.6227 20.1904C71.9299 23.9545 76.2682 28.3272 75.4476 27.4683ZM-273.102 49.6685C-270.271 49.9324 -267.456 49.9386 -264.509 49.7127C-252.232 49.1072 -239.591 43.196 -232.212 32.2439C-225.142 21.9993 -217.165 7.95302 -202.683 9.10254C-193.211 8.91349 -184.613 13.963 -178.235 20.268C-175.296 23.143 -175.116 23.5179 -174.094 24.5931C-173.434 25.3083 -173.515 25.1544 -172.651 26.1162C-163.256 36.6071 -153.588 50.0268 -138.588 49.7993C-110.128 48.8517 -105.841 8.48251 -76.7825 9.04986C-71.3028 9.015 -65.8858 10.57 -61.3259 13.5601C-58.5204 14.6437 -49.2895 24.9298 -47.6114 27.3324C-46.1511 29.0116 -52.3005 21.2828 -53.5371 20.1665C-54.3875 19.2605 -54.3928 19.193 -54.9749 18.6075C-55.6008 17.9918 -55.1036 18.5202 -55.8401 17.8144C-58.9474 14.8202 -62.9213 12.1181 -66.6223 10.7645C-69.868 9.52888 -73.3298 8.96337 -76.7825 8.96999C-106.24 8.67318 -110.47 49.0263 -138.588 49.7048C-147.251 49.8708 -155.013 44.9205 -160.995 38.8493C-164.207 35.5947 -163.48 36.2041 -163.65 36.0471C-163.652 36.0449 -163.654 36.0427 -163.656 36.0406C-173.763 25.2535 -184.568 8.67315 -202.683 8.98724C-213.134 8.33861 -221.86 15.9406 -226.789 24.1403C-234.585 38.0477 -248.111 49.2547 -264.515 49.643C-266.891 49.8348 -269.204 49.875 -271.509 49.7505C-272.02 49.7334 -272.577 49.7046 -273.102 49.6685ZM17.5157 25.942C15.8332 27.5005 15.576 27.9711 10.079 34.0625C9.65271 34.5743 9.2218 35.0874 8.78906 35.596C11.7203 32.3944 14.5201 29.0728 17.5253 25.932C17.5221 25.9353 17.5189 25.9387 17.5157 25.942ZM-27.3214 47.6701C-27.9056 47.3403 -32.3745 45.1459 -36.4028 40.9798C-40.4922 36.9087 -44.3847 31.4799 -46.8957 28.2012C-47.8759 27.0419 -40.6497 36.6552 -38.6789 38.6753C-37.7899 39.7176 -32.657 45.5404 -27.2588 47.7207C-27.2797 47.7038 -27.3006 47.687 -27.3214 47.6701ZM487.914 46.6963C486.769 47.3474 485.572 47.921 484.337 48.3827C487.447 47.2593 490.28 45.4505 492.873 43.3766C488.781 46.7083 483.903 49.3363 478.609 49.6521C479.57 49.5441 480.552 49.3613 481.488 49.1139C483.731 48.6548 485.893 47.8037 487.914 46.6963ZM471.433 48.9282C480.541 50.4028 470.912 49.3647 468.847 48.1219C467.575 47.5857 470.505 48.7422 471.433 48.9282ZM451.951 35.1844C454.995 38.3133 461.678 43.9536 459.213 42.0519C455.679 38.9775 453.525 36.8475 448.738 31.982C449.46 32.6665 450.185 33.3581 450.904 34.0415C450.908 34.0447 450.911 34.048 450.914 34.0513C451.261 34.4309 451.606 34.8087 451.951 35.1844ZM475.584 49.5374C478.597 49.6518 475.722 49.7997 472.844 49.2202C469.964 48.6525 467.24 47.3475 469.802 48.3335C470.005 48.5712 475.325 49.6807 475.584 49.5374ZM-237.414 37.9141C-237.868 38.4911 -234.676 35.1004 -233.757 33.836C-229.488 28.6218 -225.47 20.7556 -220.323 15.722C-220.719 16.0891 -221.103 16.4644 -221.479 16.8491C-227.462 23.5119 -231.172 31.7348 -237.414 37.9141ZM-199.74 8.97214C-194.826 9.40856 -190.099 11.146 -185.965 13.7703C-185.572 14.0022 -183.781 15.1759 -185.094 14.274C-189.444 11.3673 -194.487 9.41713 -199.74 8.97214ZM44.0892 12.2337C42.7098 12.2589 43.2657 12.2057 44.5398 12.1771C46.7564 12.0616 50.971 12.6773 50.6552 12.7529C48.6378 12.3967 46.6117 12.2248 44.5398 12.2297C44.3889 12.2301 44.2388 12.2314 44.0892 12.2337ZM74.9127 26.5671C73.1886 24.9866 71.4196 23.4497 69.5771 22.0004C69.5851 21.9854 69.5931 21.9703 69.6012 21.9552C71.4372 23.4204 73.1978 24.9722 74.9127 26.5671ZM-253.398 47.4455C-251.046 46.8896 -245.613 44.5656 -242.699 42.3951C-244.715 43.8791 -250.06 46.5856 -253.398 47.4455ZM-0.196136 43.5499C-0.0585327 43.4752 -2.92142 45.666 -5.62976 46.9089C-8.32108 48.1824 -10.6388 48.7249 -8.26074 47.9407C-5.36902 46.9283 -2.6684 45.3902 -0.196136 43.5499ZM-27.9669 46.9785C-25.1783 48.365 -22.796 48.8194 -23.4398 48.7458C-25.0268 48.3329 -26.5826 47.7411 -28.0534 47.0007C-28.0245 46.9933 -27.9957 46.9859 -27.9669 46.9785ZM440.029 23.6213C435.923 20.1654 431.402 17.1078 426.408 15.0382C426.6 15.1 426.791 15.1631 426.981 15.2274C431.767 17.2918 436.116 20.2613 440.076 23.5949C440.06 23.6037 440.045 23.6125 440.029 23.6213ZM-256.316 48.0697C-259.023 48.7082 -261.702 49.1092 -264.539 49.3532C-265.421 49.4285 -266.287 49.4817 -267.137 49.5138C-266.287 49.4869 -265.42 49.439 -264.537 49.3689C-261.696 49.1415 -259.01 48.7567 -256.291 48.1326C-256.296 48.1108 -256.302 48.0891 -256.307 48.0673C-256.31 48.0681 -256.313 48.0689 -256.316 48.0697ZM499.079 36.9067C487.453 48.1538 502.214 33.7644 505.029 30.4258C505.032 30.4224 505.035 30.4189 505.039 30.4155C505.302 30.1449 504.797 30.7649 505.237 30.3167C504.093 31.5243 502.957 32.7383 501.816 33.9408C500.81 35.0719 499.8 36.1938 498.771 37.2965C498.421 37.6427 498.063 37.9929 497.705 38.3372C498.169 37.8627 498.625 37.3866 499.079 36.9067ZM555.508 18.348C567.008 27.9786 555.781 17.3652 548.733 14.4858C548.853 14.3703 554.46 17.4231 555.508 18.348ZM518.542 17.9465C516.6 19.3048 514.778 20.8119 513.039 22.4009C512.807 22.5917 512.576 22.7841 512.346 22.9781C513.66 21.7409 515.025 20.5427 516.45 19.4195C517.133 18.911 517.833 18.4168 518.542 17.9465ZM457.371 39.6037C454.69 37.0248 450.99 34.051 459.929 41.9468C459.935 41.93 459.941 41.9132 459.947 41.8963C459.573 41.5996 458.51 40.7102 458.454 40.6564C458.295 40.5082 458.517 40.6427 457.371 39.6037ZM575.663 37.0395C575.975 37.3077 576.205 37.4184 579.301 40.4105C580.297 41.2588 581.306 42.0646 582.348 42.8264C582.591 43.0558 582.836 43.2827 583.088 43.5087C579.082 40.5091 578.744 40.0422 578.446 39.837C577.194 38.7137 578.141 39.5198 577.344 38.7849C575.273 36.9072 570.816 32.2662 572.921 34.2884C573.677 35.0176 575.359 36.7587 575.663 37.0395ZM568.787 29.798C569.207 30.2593 567.783 28.8418 568.097 29.1926C568.379 29.5017 572.593 34.0133 571.379 32.8626C570.68 32.1255 569.988 31.3905 569.29 30.6502C569.07 30.3841 568.85 30.1184 568.63 29.8523C567.935 29.155 567.237 28.4577 566.533 27.7648C565.421 26.5275 562.955 23.9623 565.966 26.9204C564.877 25.8172 563.77 24.7251 562.636 23.6598C562.03 23.1252 561.415 22.5971 560.795 22.0813C561.139 22.3306 561.481 22.5833 561.822 22.8389C564.253 25.0779 566.536 27.4375 568.787 29.798ZM608.164 46.8266C608.004 46.9119 607.843 46.9958 607.681 47.0783C612.878 45.3165 619.862 40.083 615.895 42.9922C610.646 46.4076 604.686 48.8983 598.502 48.8846C597.294 48.8858 596.136 48.8014 594.957 48.6249C594.481 48.5357 594.011 48.4323 593.536 48.3125C596.705 48.9697 597.449 48.7565 598.502 48.7409C599.223 48.6923 600.073 48.6852 601.991 48.4588C602.774 48.2967 600.534 48.9911 605.432 47.7829C605.254 47.8094 605.075 47.834 604.895 47.8571C605.997 47.5789 607.095 47.2297 608.164 46.8266ZM645.573 16.8524C637.979 23.1291 646.154 16.003 647.844 15.1471C647.841 15.1488 647.838 15.1506 647.836 15.1523C652.137 12.4697 643.143 18.5542 642.833 19.1623C642.191 19.7228 640.726 21.1424 637.235 24.2222C639.897 21.681 642.599 19.1537 645.573 16.8524ZM622.213 38.1508C622.829 37.6374 622.508 37.9457 622.775 37.7239C622.777 37.7219 622.779 37.72 622.782 37.718C626.768 34.5234 635.472 25.842 636.539 24.9957C633.838 27.7726 621.391 39.4121 620.347 39.7145C620.975 39.2033 621.6 38.6795 622.213 38.1508ZM590.031 47.2102C587.224 46.0503 593.6 48.5359 595.425 48.5393C595.766 48.5785 592.958 48.435 590.031 47.2102ZM386.321 23.9382C381.445 29.059 387.919 22.3971 385.732 24.756C386.665 23.7854 387.624 22.8216 388.606 21.8881C387.831 22.5572 387.07 23.243 386.321 23.9382ZM127.698 37.4564C126.612 38.6454 127.153 38.1042 127.06 38.2092C126.356 38.9776 125.634 39.6795 125.361 39.9626C120.072 45.1091 123.641 41.7533 123.721 41.7192C123.86 41.6402 122.476 43.0074 124.465 41.1943C125.64 40.0364 126.753 38.8309 127.853 37.5839C128.423 36.9823 128.978 36.3837 129.542 35.7661C131.665 33.223 128.829 36.5093 128.452 36.8249C128.308 36.9502 130.338 34.6034 127.698 37.4564ZM377.676 33.0784C376.967 33.9592 375.143 36.0236 377.046 34.0977C377.048 34.0954 377.05 34.0932 377.052 34.091C377.404 33.7357 378.793 32.2311 379.229 31.7758C382.183 28.3753 380.953 29.6055 377.676 33.0784ZM149.367 16.0483C151.806 14.6247 154.414 13.4708 157.138 12.6555C157.105 12.7097 157.072 12.764 157.039 12.8183C155.579 13.2605 154.174 13.789 152.791 14.4121C152.321 14.6497 151.854 14.8985 151.39 15.1587C153.078 14.3444 154.819 13.6652 156.618 13.1286C158.738 12.4175 160.958 11.9109 163.176 11.615C162.177 11.7181 161.11 11.875 160.109 12.0674C165.202 11.1319 164.473 11.4313 168.151 11.3516C168.392 11.3544 168.649 11.359 168.925 11.3664C170.48 11.3559 172.044 11.4352 173.579 11.6166C175.834 11.9803 178.017 12.5617 180.138 13.3952C183.672 14.8044 183.95 15.0532 181.635 13.899C183.413 14.616 185.197 15.6763 187.084 16.9623C187.239 17.068 186.976 16.8267 187.112 16.9209C196.324 24.1969 195.015 24.5364 196.394 25.7565C197.258 26.7275 200.571 30.6065 200.641 30.6453C200.745 30.6614 194.073 22.5625 204.704 35.103C199.346 28.6497 192.769 21.1022 196.852 26.0565C195.372 23.7491 186.04 15.5498 185.021 15.5425C184.018 14.9605 184.396 15.089 183.105 14.4264C182.302 14.1489 180.318 12.7494 173.594 11.5169C172.751 11.418 171.866 11.3463 170.996 11.3072C170.211 11.2332 169.406 11.1822 168.578 11.1555C170.268 11.1073 171.935 11.1595 173.601 11.3316C171.699 11.0813 169.912 10.9821 168.151 10.9783C163.922 10.9647 160.278 11.5829 157.524 12.4792C154.156 13.4864 152.638 14.3087 153.999 13.6303C153.013 14.0373 152.073 14.4756 151.128 14.966C150.526 15.313 149.948 15.6694 149.367 16.0483ZM362.464 45.9259C359.581 47.2381 358.493 47.5556 358.974 47.4458C361.636 46.6382 363.945 45.1777 362.464 45.9259ZM131.68 32.9668C134.082 30.1909 136.506 27.3807 139.138 24.7335C139.106 24.7024 139.074 24.6712 139.042 24.6401C136.437 27.323 134.048 30.1621 131.68 32.9668ZM386.984 23.1322C387.251 22.9138 387.52 22.6973 387.789 22.4828C390.622 19.5248 394.027 17.1442 395.752 16.0288C396.124 15.7826 395.33 16.2114 394.622 16.6885C394.047 16.8361 387.377 22.5272 386.984 23.1322ZM526.424 12.9795C524.951 13.5341 523.532 14.1963 522.166 14.9456C522.225 14.8721 522.284 14.7986 522.343 14.7254C523.024 14.3628 523.719 14.0215 524.428 13.7039C525.083 13.4415 525.748 13.1995 526.424 12.9795ZM511.795 22.5765C509.8 24.4282 507.915 26.37 506.075 28.331C513.207 20.9057 507.254 26.9191 511.72 22.4966C511.745 22.5232 511.77 22.5499 511.795 22.5765ZM492.858 41.7784C493.09 41.5525 493.312 41.3315 493.538 41.1035C495.492 39.3868 497.351 37.5142 499.171 35.595C497.959 36.7603 496.742 37.8945 495.495 38.9847C494.804 39.6482 494.104 40.2948 493.39 40.9217C493.215 41.2094 493.042 41.491 492.858 41.7784ZM71.1158 21.6487C69.8891 20.5433 65.1094 17.2804 65.2693 17.4845C67.281 18.8111 69.1824 20.2657 71.0065 21.7972C71.0432 21.7695 71.08 21.7419 71.1168 21.7143C71.3632 21.9447 71.6079 22.1766 71.8511 22.4099C72.8985 23.2676 73.9211 24.1471 74.9271 25.0424C75.402 25.5286 75.8718 26.0181 76.3372 26.5098C76.8621 26.9426 77.3847 27.3798 77.9033 27.818C73.2665 23.2944 73.2818 23.577 72.2711 22.6762C71.7457 22.2295 71.426 21.931 71.2457 21.7646C71.2024 21.7259 71.1591 21.6873 71.1158 21.6487ZM133.11 30.8448C128.134 36.6783 125.477 40.1182 121.313 43.3961C124.637 42.2278 138.134 23.3459 145.509 18.7519C146.182 18.202 146.871 17.6708 147.583 17.1575C143.794 19.7439 141.504 21.9084 139.918 23.428C138.674 24.6548 138.84 24.5574 138.744 24.6507C138.739 24.6551 138.735 24.6597 138.73 24.6641C135.91 27.597 135.097 28.5471 133.11 30.8448ZM391.162 19.0794C389.473 20.3837 386.849 22.9535 386.882 23.0432C388.344 21.6254 389.865 20.2443 391.471 18.9484C391.133 19.2028 391.445 18.8553 391.162 19.0794ZM490.37 43.4698C489.145 44.413 486.037 46.1787 487.412 45.4763C487.684 45.3898 490.653 43.3564 488.958 44.6299C491.859 42.6322 491.071 42.9397 490.37 43.4698ZM244.522 46.244C245.701 45.7539 246.822 45.1822 247.91 44.5123C248.146 44.3312 248.372 44.1493 248.601 43.9598C247.331 44.8453 245.962 45.6128 244.522 46.244ZM407.327 11.1142C409.122 10.9626 412.201 10.5835 415.55 11.0827C415.699 11.104 415.847 11.1266 415.995 11.1505C417.293 11.3138 418.543 11.5293 419.819 11.8117C419.823 11.8124 419.826 11.8131 419.829 11.8138C419.872 11.7806 419.915 11.7474 419.959 11.7143C418.495 11.3866 417.064 11.1457 415.563 10.973C412.812 10.6571 410.054 10.6811 407.327 11.1142ZM174.635 11.5551C175.512 11.7287 176.321 11.9227 177.184 12.1655C178.704 12.5354 180.199 13.0219 181.63 13.6128C180.868 13.2675 180.085 12.9511 179.273 12.6624C177.773 12.181 176.206 11.8094 174.635 11.5551ZM429.553 15.1171C425.458 13.1864 423.815 12.6997 429.107 15.0253C431.282 16.1038 433.718 17.3596 429.553 15.1171ZM-0.0996704 42.0269C1.03604 41.145 2.13226 40.1987 3.19714 39.211C3.53915 38.8504 3.87787 38.4845 4.21051 38.1175C2.82889 39.5022 1.40179 40.8206 -0.0996704 42.0269ZM504.856 29.2475C504.757 29.3956 504.659 29.5436 504.56 29.6917C503.65 30.6702 502.749 31.6475 501.844 32.624C502.049 32.3594 502.256 32.0931 502.461 31.8281C503.254 30.9718 504.054 30.1065 504.856 29.2475ZM7.02072 35.3117C7.82501 34.456 8.62598 33.5798 9.42062 32.7006C9.94342 32.0965 10.4634 31.4911 10.9856 30.8829C10.2349 31.7075 9.48447 32.5312 8.73325 33.3438C8.16653 34.0046 7.59354 34.6648 7.02072 35.3117ZM461.213 41.8828C459.929 40.8999 455.004 36.5668 459.395 40.5128C462.265 42.9233 461.405 42.0195 461.213 41.8828ZM468.515 46.3856C463.247 43.3752 466.818 46.835 473.839 48.0362C470.345 47.4154 469.167 46.6756 468.736 46.5225C468.313 46.3221 468.675 46.4576 468.515 46.3856ZM512.19 21.5409C512.313 21.4329 512.44 21.3674 513.436 20.5033C516.964 17.3285 522.478 13.9521 525.811 12.8228C528.14 11.9246 532.128 10.802 536.696 10.8218C547.92 10.2429 558.792 19.3033 560.026 20.6078C560.47 21.0234 559.352 20.1826 559.536 20.3467C560.107 20.7994 563.194 23.5723 562.581 23.1035C559.619 20.3281 556.436 17.7017 552.847 15.59C553.75 16.0695 554.63 16.5816 555.495 17.1236C546.632 11.7332 549.364 13.8214 546.615 12.6758C544.955 12.065 543.229 11.5931 541.47 11.2802C539.89 11.0484 538.313 10.9433 536.696 10.9583C534.39 10.9811 532.151 11.2482 529.916 11.7805C530.762 11.5583 531.633 11.3713 532.491 11.2254C526.743 12.2308 528.346 12.0766 525.365 13.1666C525.349 13.1431 525.333 13.1196 525.316 13.0962C520.182 15.3814 519.408 16.1991 518.362 16.8108C516.344 18.2448 513.815 20.2188 507.189 26.6414C504.637 29.5644 504.484 29.2916 503.068 31.0676C498.586 35.7674 506.788 26.5626 511.221 22.472C511.223 22.4699 511.226 22.4677 511.228 22.4656C511.56 22.1588 511.008 22.6196 512.19 21.5409ZM488.576 44.6517C490.087 43.5428 487.819 45.1572 485.504 46.2299C483.198 47.3234 480.868 47.8741 483.175 47.3284C483.85 47.1132 484.517 46.8609 485.171 46.578C486.35 46.0286 487.489 45.3741 488.584 44.6471C488.581 44.6486 488.579 44.6502 488.576 44.6517ZM367.123 42.5703C361.507 46.5373 359.895 46.5221 360.703 46.3588C361.462 46.0986 364.236 44.746 366.118 43.3581C366.872 42.8208 367.267 42.4902 367.123 42.5703ZM125.894 38.9423C125.765 39.1038 125.636 39.2643 125.506 39.4237C128.755 36.0611 134.758 28.8207 134.639 28.8782C131.674 32.2818 128.888 35.7681 125.894 38.9423ZM154.639 13.1816C153.576 13.4986 149.592 15.5203 150.108 15.3338C151.807 14.4232 153.595 13.6369 155.412 13.013C156.254 12.6877 157.111 12.3942 157.968 12.1367C156.767 12.4462 154.902 13.0712 154.639 13.1816Z" fill="#FAD791"/>
</g>
<path d="M159.556 106.016L164.358 101.214L169.16 106.016" stroke="white" stroke-width="1.37201" stroke-linecap="round" stroke-linejoin="round"/>
</svg>
