<svg width="329" height="123" viewBox="0 0 329 123" fill="none" xmlns="http://www.w3.org/2000/svg">
<mask id="mask0_4593_12590" style="mask-type:alpha" maskUnits="userSpaceOnUse" x="0" y="0" width="329" height="123">
<rect width="329" height="122.113" fill="#BB1519"/>
</mask>
<g mask="url(#mask0_4593_12590)">
<rect x="-33.8979" y="-171.131" width="386.222" height="311.447" fill="#6A892C"/>
<path d="M63.9934 49.324C22.7088 52.7174 15.8281 8.60303 -0.227051 8.60303V123.852H988.309V11.9964C972.254 11.9964 953.905 49.324 928.676 49.324C903.446 49.324 894.272 11.9964 866.749 11.9964C839.226 11.9964 830.051 49.324 807.116 49.324C784.18 49.324 775.005 15.3899 745.189 11.9964C715.372 8.60303 708.491 49.324 680.968 49.324C653.445 49.324 651.152 11.9964 619.041 11.9964C586.931 11.9964 596.106 49.324 561.702 49.324C527.298 49.324 529.592 11.9964 497.481 11.9964C465.371 11.9964 460.784 49.324 437.848 49.324C414.912 49.324 403.444 11.9964 373.628 11.9964C343.811 11.9964 339.224 49.324 311.701 49.324C284.178 49.324 281.884 8.60303 252.068 8.60303C222.251 8.60303 217.664 49.324 190.141 49.324C162.618 49.324 155.737 8.60303 125.92 8.60303C96.1036 8.60303 105.278 45.9306 63.9934 49.324Z" fill="#607D28"/>
<path d="M21.0109 25.0443C33.1022 41.0058 46.8929 48.8754 63.812 47.3823C67.9125 47.0728 72.0644 46.3864 76.1795 44.9713C85.2621 42.0828 92.4481 34.8113 98.1939 25.6825C103.42 16.827 112.994 5.56185 125.92 6.55103C157.492 6.97816 164.411 47.8847 190.141 47.4825C199.679 47.6911 207.284 41.2456 213.143 34.3714C222.889 23.0535 233.517 6.09596 252.068 6.52225C281.988 6.52396 285.555 44.8266 309.002 47.391C310.133 47.5166 310.98 47.5554 311.701 47.5706C312.168 47.5793 312.553 47.5757 312.893 47.5614C321.448 48.1527 332.571 38.7706 337.963 32.0838C344.859 24.2886 356.96 9.26032 373.628 10.0151C383.724 9.89865 392.345 14.6522 397.618 18.643C403.491 23.0146 408.554 28.3356 410.448 30.3264C412.277 32.1601 413.337 33.0774 413.822 33.5483C413.828 33.5538 413.833 33.5592 413.839 33.5647C415.373 35.096 419.27 38.8486 420.185 39.5731C420.32 39.678 419.535 38.9558 421.712 40.7808C421.909 40.9303 421.689 40.87 423.586 42.2911C424.009 42.829 430.8 46.7672 432.983 46.977C434.284 47.3164 435.929 47.6098 437.848 47.6107C446.682 48.5117 456.142 37.5755 460.89 31.7576C461.821 30.6566 462.337 29.9989 463.335 28.8382C463.851 28.2372 464.663 27.3597 464.825 27.1777C465.509 26.3567 468.667 22.8292 467.698 24.2517C471.155 20.7172 470.117 21.7226 470.137 21.5872C474.092 17.8731 476.482 16.5954 477.599 15.6988C483.469 11.943 490.527 10.0051 497.481 10.0611C520.321 8.65754 529.018 33.3044 543.66 42.726C543.679 42.7109 543.697 42.6958 543.715 42.6807C549.812 46.426 552.486 46.5185 556.466 47.329C558.189 47.5342 559.898 47.6176 561.702 47.5988C562.545 47.5897 563.358 47.557 564.142 47.5023C589.728 49.5974 589.057 8.03819 619.041 10.0478C649.486 8.34472 655.69 48.2035 680.968 47.5745C701.155 47.554 709.217 23.8932 727.479 13.4872C730.2 12.1273 730.87 11.6262 735.807 10.4393C738.525 9.86559 741.901 9.63011 745.416 10.0305C748.943 10.4119 752.647 11.3072 756.035 12.6547C762.047 14.8423 769.6 20.4164 774.497 25.1644C775.624 26.2204 776.44 26.9778 776.564 27.0972C777.292 27.8086 777.296 27.8807 777.993 28.5731C778.828 29.4032 779.849 30.3809 780.801 31.3457C784.317 34.9668 788.244 38.6542 788.727 39.0348C790.97 41.0109 791.479 41.395 791.669 41.558C794.283 43.5295 793.344 42.7368 794.002 43.2096C797.483 45.4422 800.11 47.1211 805.629 47.5703C805.477 47.5989 805.326 47.6259 805.173 47.6511C806.131 47.744 806.747 47.7432 807.116 47.7392C808.333 47.7038 806.816 47.6611 807.486 47.6364C807.666 47.6339 810.016 47.5942 812.322 46.899C814.635 46.2555 816.826 45.0166 817.134 44.8386C819.29 43.5726 819.348 43.4919 819.534 43.3854C820.025 43.1846 824.977 39.0169 827.325 36.5171C830.153 33.6582 826.949 37.1443 827.655 36.4373C827.778 36.3372 830.675 33.2396 831.082 32.8309C831.538 32.3933 829.038 35.0907 829.085 35.0519C829.124 35.0512 833.32 30.5902 832.563 31.4861C831.97 32.2461 826.286 38.2486 824.995 39.3731C824.79 39.5705 825.223 39.2482 825.041 39.4224C824.666 39.7461 821.113 43.3021 816.881 45.5762C812.684 47.9987 807.897 48.1999 807.505 48.159C808.444 48.112 809.355 47.9987 810.268 47.8172C809.222 47.9899 808.19 48.0734 807.116 48.0715C806.933 48.0711 806.751 48.0683 806.57 48.0633C806.751 48.0656 806.933 48.0657 807.116 48.0634C808.709 48.043 810.252 47.8286 811.774 47.4231C810.756 47.5942 808.989 47.9033 807.116 47.9106C804.216 47.9839 801.301 47.2405 801.096 47.2424C800.917 47.3122 805.655 48.5344 801.208 47.557C801.87 47.7617 802.541 47.9354 803.225 48.0764C804.504 48.2932 805.796 48.3915 807.116 48.3711C807.244 48.3691 807.372 48.3658 807.5 48.3614C807.372 48.3619 807.244 48.3613 807.116 48.3594C806.273 48.3466 805.475 48.2883 804.651 48.1806C805.004 48.2055 805.349 48.2207 805.694 48.2276C806.162 48.2541 806.635 48.2654 807.116 48.2608C809.3 48.2418 811.444 47.8463 813.489 47.1119C814.771 46.6572 814.523 46.7915 815.388 46.4251C820.692 43.8248 821.311 42.703 821.752 42.4614C822.136 42.0988 822.189 42.1622 825.124 39.4713C825.972 38.7087 826.802 37.9238 827.626 37.1192C827.277 37.3328 829.8 34.8455 832.695 31.5814C832.369 31.9888 832.042 32.3967 831.716 32.8018C835.786 28.0175 845.265 19.1171 842.63 21.427C843.732 20.4467 844.864 19.5001 846.038 18.5992C847.003 17.8032 847.998 17.0408 849.034 16.3177C850.486 15.36 852.008 14.4858 853.593 13.7339C853.607 13.7455 853.622 13.757 853.636 13.7686C852.374 14.3693 851.154 15.0468 849.976 15.7831C850.887 15.2738 851.819 14.7986 852.769 14.3674C853.676 13.8915 854.61 13.4534 855.56 13.0632C851.583 14.7445 856.747 12.3257 858.104 11.9672C861.619 10.9014 864.047 10.8786 865.233 10.8096C865.388 10.8028 865.987 10.7623 866.749 10.75C868.816 10.676 871.912 11.0771 869.955 10.9569C873.439 11.2976 876.859 12.2907 880.007 13.7837C881.231 14.3846 882.414 15.0562 883.557 15.782C881.042 14.2873 888.135 18.9233 882.857 15.5957C878.8 13.2918 877.646 12.9532 875.543 12.2388C873.606 11.6658 872.54 11.4749 870.385 11.1929C869.138 11.0443 867.974 10.9791 866.749 10.9789C853.231 11.0085 844.141 19.642 835.879 28.5097C834.058 30.4706 832.447 32.2915 831.236 33.5966C829.862 35.0757 831.534 33.1854 829.799 35.0689C827.964 37.0402 827.584 37.471 827.087 37.9758C826.781 38.2836 825.75 39.2416 824.82 40.0976C821.107 43.9006 814.393 47.4304 813.634 47.4343C813.301 47.55 810.432 48.5753 807.116 48.5315C802.872 48.6327 798.5 46.745 798.171 46.5641C797.846 46.3827 798.571 46.6666 795.669 45.3061C794.799 44.8155 793.945 44.2775 793.114 43.7071C793.268 43.7727 793.421 43.837 793.575 43.8999C788.657 40.4735 790.349 41.6672 786.005 37.7507C776.537 28.5216 761.983 11.8981 745.312 10.938C744.794 10.8789 744.287 10.8334 743.791 10.8003C740.219 10.6563 738.814 10.7002 734.67 11.6616C730.59 12.2219 722.023 18.0041 724.002 16.9105C717.073 22.1118 716.612 23.6132 713.519 26.5489C713.184 26.9436 712.853 27.3375 712.523 27.7327C709.342 31.0742 708.505 32.2339 705.076 35.8517C703.574 37.3829 705.267 35.5887 702.254 38.6819C701.652 39.2407 701.038 39.7906 700.415 40.3249C700.542 40.1807 700.669 40.0357 700.795 39.8899C697.212 43.0287 696.846 43.0347 697.362 42.8251C695.515 44.168 693.552 45.353 691.491 46.2728C691.248 46.4169 691.003 46.5575 690.755 46.6944C694.635 51.1359 727.414 5.22972 739.821 10.9029C741.383 10.8119 743.242 10.8327 745.297 11.0732C754.945 11.6789 766.404 19.0316 770.597 23.0099C772.739 24.8766 773.623 25.7692 776.556 28.6453C779.474 31.5344 783.096 35.172 784.659 36.6612C787.173 39.1758 794.901 46.3327 801.173 47.8047C804.213 48.6808 806.472 48.6262 806.516 48.6606C806.588 48.5639 804.31 49.0916 798.997 47.1484C799.587 47.418 800.189 47.6644 800.802 47.8849C804.32 48.844 805.958 48.7188 807.116 48.7568C808.797 48.6565 809.487 48.9666 813.721 47.6574C816.819 46.8894 822.858 42.2317 822.557 42.5529C818.089 46.3726 812.198 48.9993 807.116 48.8533C807.072 48.8533 807.028 48.8532 806.984 48.853C806.47 49.0169 800.448 48.3494 797.675 46.7834C795.199 45.4638 796.832 46.5192 791.685 43.1594C788.129 40.261 786.171 38.4396 785.261 37.6262C783.717 36.1772 783.615 35.9592 782.122 34.4554C780.498 32.8101 779.347 31.7152 779.121 31.4901C777.106 29.0399 764.54 18.0924 763.583 18.0493C764.156 18.4032 764.719 18.7668 765.28 19.1421C761.691 16.6882 762.359 17.3257 761.384 16.7338C760.645 16.3071 759.897 15.9016 759.137 15.5169C759.446 15.6545 759.754 15.7953 760.059 15.9393C755.422 13.7245 759.062 15.1506 752.179 12.7498C749.717 12.0113 747.183 11.5373 745.27 11.3074C743.682 11.1131 742.633 11.0915 742.428 11.0858C742.294 11.0852 743.762 11.1595 741.849 11.1278C738.67 10.9591 733.328 12.3081 732.77 12.5458C731.312 13.0691 731.467 13.1038 731.275 13.1751C730.863 13.3195 727.068 14.9481 723.673 17.5687C720.236 20.126 717.115 23.3599 716.17 24.3277C710.918 29.7077 705.759 36.3128 699.614 41.4652C698.977 41.9902 699.362 41.6307 698.72 42.1463C697.777 43.1062 692.041 46.6945 691.028 46.9148C688.783 48.1589 682.235 49.1499 681.169 48.9722C681.027 48.981 683.028 48.9845 680.968 49.0381C680.868 49.0389 680.759 49.0392 680.641 49.0385C677.796 48.9579 679.34 48.9321 679.179 48.9346C673.443 48.4833 670.034 46.8741 666.715 44.8108C665.634 44.1348 663.776 42.6795 662.421 41.4811C662.264 41.3447 662.542 41.6523 662.388 41.5189C660.317 39.7238 658.63 37.7718 657.829 36.8928C655.882 34.7222 656.901 35.9383 656.798 35.8284C655.501 34.3841 653.821 32.3675 651.887 30.1088C643.571 20.1814 634.305 11.5646 619.69 11.4651C619.478 11.4617 619.261 11.4593 619.041 11.4582C617.341 11.4431 615.747 11.5497 615.461 11.5794C614.595 11.6837 614.875 11.6347 612.43 12.0674C607.357 13.0256 602.855 15.4516 599.245 19.0875C598.515 19.8191 598.184 20.1138 597.661 20.7011C595.754 22.5908 591.053 30.1632 590.861 30.1957C588.204 34.6045 586.209 37.3757 583.421 40.3476C579.078 45.4802 570.096 49.3036 561.702 48.9794C557.942 48.9892 554.419 48.4893 551.542 47.6763C549.611 47.1234 548.738 46.7203 547.698 46.2888C545.558 45.9846 536.339 38.9375 536.142 38.2231C535.332 37.3377 535.852 37.8558 531.691 33.296C529.346 30.5287 529.689 30.7961 529.211 30.2168C525.571 25.6143 521.448 21.5347 522.292 22.2257C517.439 17.2531 513.306 15.1108 510.761 13.8476C510.772 13.9394 507.751 12.5529 503.841 11.8628C507.706 12.7836 507.79 11.6282 516.177 16.801C516.303 16.8898 516.033 16.7617 516.159 16.8504C517.319 17.6378 519.616 19.4537 521.295 21.1283C522.973 22.8033 522.015 21.8985 522.676 22.576C523.273 23.2041 523.292 23.1493 524.133 24.0739C526.844 27.094 529.056 29.8803 530.522 31.6223C531.438 32.7261 532.444 33.9721 533.179 34.8014C535.893 38.1162 542.642 44.2564 547.74 46.0987C548.797 46.5215 548.277 46.4316 550.627 47.213C550.887 47.286 551.9 47.5909 553.986 48.0057C556.111 48.4143 557.744 48.584 559.131 48.6642C560.187 48.7103 559.836 48.6794 561.702 48.689C561.854 48.6884 562.02 48.6872 562.202 48.6851C563.177 48.6648 569.408 48.6842 574.823 46.2178C580.323 43.8946 584.15 39.1788 584.532 38.7588C585.666 37.4334 586.206 36.7946 586.837 35.9268C586.946 35.7728 587.087 35.4807 587.461 34.9426C590.154 31.2658 593.289 24.9172 598.576 19.2999C603.799 13.4711 612.382 10.9557 619.041 11.1695C621.541 11.1723 623.762 11.398 625.725 11.7511C651.316 15.8263 655.951 48.7183 680.968 48.6884C683.501 48.6881 686.01 48.3204 688.44 47.5628C688.872 47.418 689.298 47.2621 689.718 47.0957C687.302 47.9918 684.771 48.5047 682.207 48.6228C682.189 48.5958 682.171 48.5689 682.154 48.5419C681.699 48.5618 681.305 48.5685 680.968 48.5702C678.745 48.5455 679.135 48.562 679.208 48.6151C677.933 48.5186 676.665 48.3328 675.4 48.0427C674.21 48.2333 666.21 44.8507 663.015 41.5509C660.799 39.6579 658.385 37.0995 657.351 35.9391C655.165 33.4736 655.281 33.4753 655.11 33.2838C654.815 32.9591 651.804 29.4455 649.565 26.9279C646.18 23.2831 646.033 22.6319 640.616 18.3491C634.933 13.8101 626.961 10.9322 619.041 11.0718C617.264 11.0749 615.589 11.1831 613.886 11.4267C615.734 10.9803 607.029 12.4737 603.816 14.9543C595.8 19.7683 591.735 29.1492 586.046 36.6925C580.564 44.6239 571.15 48.8975 561.702 48.576C555.737 48.59 550.046 47.32 545.265 44.7064C542.712 43.3207 540.992 41.925 539.732 40.8989C539.053 40.3354 538.72 40.1329 537.817 39.2943C537.664 39.1395 537.566 39.0286 535.954 37.3902C531.918 33.3915 523.001 21.7697 519.915 19.429C513.947 13.8661 505.639 10.7479 497.481 10.9127C484.86 10.508 473.491 18.1959 465.801 27.3512C465.448 27.7132 465.098 28.0751 464.749 28.4406C462.225 31.2523 453.1 43.456 446.592 46.3223C444.028 47.6709 441.023 48.5061 437.848 48.4966C427.286 48.6142 418.634 39.4321 412.652 33.6465C410.925 31.9315 409.529 30.4767 407.874 28.8516C407.159 28.1487 406.239 27.3142 405.48 26.5946C398.14 19.2193 385.632 10.4057 373.628 10.95C372.357 10.9506 371.222 11.0101 370.033 11.1329C342.873 13.9016 337.472 48.5155 311.701 48.5052C309.407 48.5052 307.173 48.2097 304.991 47.5681C283.664 40.6393 279.092 7.21237 252.068 7.54563C221.834 7.42503 217.41 48.1773 190.141 48.5419C162.455 47.9008 156.349 7.63591 125.92 7.58199C107.469 6.24675 101.127 26.3678 91.0873 36.6658C90.267 37.5071 90.2622 37.4365 89.6083 38.0604C86.0227 42.1993 74.8696 47.4231 68.7287 47.9497C67.2342 48.1945 65.6972 48.3826 63.9064 48.5243C59.7905 48.8843 55.6236 48.5469 54.4417 48.4476C57.5892 48.8107 60.6629 48.8401 63.9117 48.5879C78.7329 48.1367 92.0686 38.9303 99.5135 25.7935C100.238 24.7065 100.369 24.593 100.458 24.4602C102.145 21.9914 100.983 23.5047 103.514 19.9441C103.948 19.3583 106.182 16.3183 108.742 14.0352C111.265 11.702 114.056 10.3611 113.281 10.6772C114.538 9.90661 119.815 7.59135 125.92 7.75566C133.375 7.52066 140.863 11.3778 142.811 12.7356C143.949 13.4565 143.169 12.906 143.396 13.0486C144.371 13.6786 144.767 14.0354 145.595 14.6513C147.886 16.2192 152.923 21.0605 153.78 22.0561C155.921 24.2265 161.728 31.1705 164.394 34.0754C166.854 36.7353 166.43 36.2038 168.639 38.3993C170.431 40.0582 168.364 38.3922 172.503 41.9341C174.411 43.9463 182.81 48.1975 185.171 48.2016C186.648 48.4957 188.256 48.7018 190.141 48.7137C191.076 48.718 192.004 48.6766 193.028 48.5602C197.665 48.5725 206.362 43.5336 209.474 40.0137C209.675 39.8218 210.129 39.315 210.607 38.8315C211.598 37.8207 211.35 38.16 212.086 37.3866C213.014 36.8274 224.622 21.9983 227.093 19.7962C228.639 18.1875 229.753 17.1104 230.684 16.2903C231.417 15.6533 231.531 15.6211 232.304 14.9957C232.541 14.8051 234.562 13.1154 236.855 11.7975C238.848 10.1329 248.06 7.59222 249.229 7.87109C249.935 7.82258 249.138 7.80529 251.254 7.72207C251.537 7.71522 251.808 7.71329 252.068 7.71506C253.606 7.7299 254.587 7.84536 255.556 7.95041C258.059 8.21932 260.907 8.88168 263.392 9.94655C270.395 13.3584 269.63 13.8187 270.088 13.9574C271.103 14.7469 271.517 15.0477 271.84 15.3201C273.23 16.4401 276.255 19.556 277.258 20.7624C278.537 22.2393 279.021 22.9133 280.305 24.533C281.264 25.7371 283.175 28.1868 285.279 30.9638C289.955 37.1854 296.083 44.5691 303.2 47.1371C305.285 47.9029 305.617 47.9519 306.278 48.1252C308.757 48.6839 310.504 48.69 311.701 48.6855C312.188 48.6795 312.568 48.6641 312.864 48.6524C320.526 49.2391 331.741 41.2665 336.133 35.8862C338.162 33.9385 345.995 24.1607 351.601 19.6272C352.232 19.1053 351.662 19.6187 352.365 19.0399C354.068 17.6801 353.882 17.763 354.787 17.1197C355.227 16.8165 356.261 16.1537 357.62 15.3834C364.306 11.6095 369.978 11.1968 373.628 11.1654C373.872 11.1653 374.107 11.1678 374.334 11.1724C402.933 11.2673 412.851 46.5283 437.848 48.763C446.866 48.9352 453.646 41.9547 459.148 35.5297C461.507 32.8186 464.264 29.2641 468.069 25.2799C468.202 25.1724 468.335 25.0649 468.469 24.9586C468.586 24.8043 468.704 24.6504 468.822 24.4967C473.248 20.1078 475.035 18.4069 480.66 15.2586C481.156 14.9901 482.709 14.3438 483.644 13.8304C489.699 11.7706 486.352 12.7475 490.971 11.7091C493.144 11.3322 495.289 11.1693 497.481 11.1745C500.027 11.1845 502.421 11.4102 504.883 11.926C506.885 12.3499 500.432 11.1203 497.481 11.3357C496.772 11.3424 496.28 11.3637 496.148 11.3676C495.05 11.4022 493.899 11.4249 492.833 11.5495C489.683 11.8903 486.754 12.8461 486.073 13.0209C482.229 14.4501 487.024 12.7017 486.568 12.9507C483.947 13.7441 481.44 14.8579 479.087 16.2315C477.592 16.6029 466.447 26.5841 467.478 26.1318C466.655 26.9787 465.844 27.8445 465.048 28.7137C461.766 32.7114 459.885 35.1173 455.166 40.0228C455.523 39.6892 455.878 39.3485 456.232 39.0016C456.185 39.1688 451.903 43.3483 453.386 41.7961C448.841 45.8708 448.925 45.6725 444.038 47.8973C441.104 48.7104 442.699 48.5664 437.848 48.8557C437.623 48.8555 437.385 48.8516 437.134 48.8428C433.736 48.7826 429.609 47.5101 426.293 45.5283C425.534 45.0835 425.235 44.8332 424.569 44.3965C423.917 43.9611 423.573 43.7851 422.789 43.2139C421.192 42.0553 419.231 40.3341 418.311 39.51C417.469 38.7614 416.258 37.7204 414.313 35.8365C407.558 29.1912 409.644 31.1423 408.592 30.076C407.459 28.929 406.587 28.1587 404.242 25.9438C404.006 25.7225 404.655 26.2548 403.882 25.5399C403.252 24.9699 402.92 24.7006 400.779 22.869C400.348 22.5186 396.848 19.4425 392.675 16.9417C388.544 14.3594 383.66 12.7968 382.362 12.5098C380.362 11.9718 377.014 11.3656 373.628 11.3757C370.316 11.3408 367.02 11.9087 364.999 12.4868C363.413 12.9227 361.775 13.5674 360.192 14.3047C354.796 16.5649 347.893 22.8682 343.19 28.298C338.936 33.2155 331.197 41.4503 328.233 43.3282C320.846 48.412 318.225 47.8785 317.693 48.2155C315.917 48.5887 315.092 48.7801 312.833 48.8997C312.462 48.9146 312.084 48.9224 311.701 48.9227C286.006 50.1042 281.16 7.06795 252.068 7.95075C244.006 7.82463 236.68 11.3973 231.499 15.9212C217.648 27.5212 209.775 48.8953 190.141 48.9325C162.047 48.1607 155.999 7.9324 125.92 7.97258C99.4579 7.25637 98.7987 42.3885 75.5835 46.7388C75.4224 46.8138 75.2598 46.8881 75.0958 46.9617C82.6484 44.9018 90.2802 39.2915 94.8696 33.074C100.894 25.0381 109.043 10.4482 117.734 9.3007C114.633 10.0744 110.365 13.0442 110.543 13.1008C114.866 9.63947 120.434 8.16622 125.92 8.21842C126.054 8.21855 126.187 8.2195 126.319 8.22125C126.187 8.19096 126.054 8.16147 125.92 8.13279C125.882 8.12483 125.845 8.11693 125.807 8.10909C125.845 8.1089 125.882 8.10878 125.92 8.10871C131.783 8.04915 137.687 9.86939 142.608 13.0056C143.468 13.5525 142.88 13.1327 143.62 13.621C144.441 14.1781 143.866 13.8282 144.019 13.933C146.073 15.3709 146.647 15.8616 146.892 16.0465C147.493 16.5483 147.02 16.161 148.716 17.6531C151.819 20.4544 153.857 22.633 153.093 22.0091C154.023 22.9821 154.929 23.9693 155.827 24.9697C156.088 25.2019 156.349 25.4348 156.609 25.6685C161.927 31.9776 164.556 34.6974 167.589 38.0498C168.673 39.0864 169.776 40.0833 170.918 41.03C171.522 41.6064 172.149 42.1753 172.781 42.7172C172.929 42.79 173.079 42.8633 173.23 42.9354C177.978 46.669 184.094 49.1515 190.141 49.0488C192.095 49.0457 193.948 48.8355 195.743 48.4262C200.812 47.0498 201.957 46.2936 205.797 43.6348C213.755 36.8236 206.094 43.8829 212.374 37.7927C212.035 38.0954 211.688 38.4018 211.341 38.7C212.342 37.6462 213.306 36.56 214.246 35.459C214.937 34.7175 215.617 33.9677 216.292 33.2097C219.025 29.6301 220.956 27.4295 221.353 26.9595C221.685 26.5894 222.607 25.1354 226.271 21.2132C224.644 22.7443 229.077 18.2172 229.498 17.9233C229.796 17.5395 234.48 13.4701 236.74 12.2908C238.414 11.2266 242.311 9.4692 245.219 8.86763C247.802 8.31511 247.511 8.40094 247.705 8.35218C250.939 7.98397 248.889 8.21855 251.22 8.09701C251.509 8.08973 251.792 8.08585 252.068 8.08492C254.027 8.07849 255.415 8.2222 255.873 8.27984C256.124 8.31475 255.281 8.24824 256.426 8.40609C259.52 8.72704 264.898 10.6469 267.814 12.709C268.87 13.392 270.124 14.3699 271.187 15.2682C272.819 16.6556 273.554 17.3326 274.428 18.2109C274.732 18.5152 276.599 20.5475 278.749 23.1849C279.159 23.6815 280.487 25.064 281.825 27.2145C281.969 27.3488 282.114 27.4832 282.258 27.6177C289.134 36.66 291.02 39.2132 294.895 42.386C297.993 45.0146 298.641 45.2069 298.374 45.1229C298.132 45.0073 297.154 44.3565 297.516 44.6185C297.966 44.9886 300.248 46.3319 300.521 46.4388C300.977 46.6769 300.883 46.6647 301.391 46.9088C306.143 48.9974 307.71 48.7606 308.228 48.9054C308.774 48.9496 308.485 48.9262 310.083 49.0281C310.623 49.0553 311.164 49.0666 311.701 49.0631C315.054 49.0593 317.756 48.4075 318.271 48.3063C318.784 48.1014 317.249 49.026 311.701 49.1297C311.281 49.1283 310.846 49.117 310.396 49.093C310.395 49.1097 310.394 49.1265 310.393 49.1433C310.766 49.1599 311.208 49.1719 311.701 49.1708C315.589 49.3887 321.73 47.3689 319.333 48.1824C318.535 48.4725 315.072 49.3397 311.701 49.2944C306.275 49.244 301.546 47.5771 308.416 49.164C309.655 49.3273 310.54 49.3661 311.701 49.3712C313.009 49.3606 314.507 49.3418 316.884 48.9707C319.799 48.3234 320.225 48.1392 323.903 46.4891C323.284 46.7405 322.66 46.9685 322.031 47.1727C327.134 45.0869 332.337 40.5305 335.241 37.4396C336.259 36.4196 339.556 32.3702 338.931 33.4428C340.517 31.6073 348.218 23.0426 349.928 21.7006C350.375 21.436 350.453 20.4698 356.743 16.3292C357.197 16.069 357.655 15.8198 358.12 15.58C355.175 17.3503 356.322 16.6939 357.85 15.8289C359.396 14.9693 361.427 14.1332 359.966 14.8779C358.883 15.2046 354.274 18.0901 353.617 18.6752C352.417 19.5621 355.843 16.7251 351.45 20.304C350.18 21.5604 351.422 20.4619 352.929 19.296C354.431 18.1195 356.253 16.9652 355.663 17.4802C361.878 13.4504 362.941 13.841 364.459 13.2329C367.864 12.2264 370.768 11.9366 373.628 11.9252C376.532 11.9338 379.369 12.2419 382.652 13.145C383.848 13.4061 377.704 11.6894 373.628 11.853C372.155 11.8485 371.065 11.941 370.656 11.9808C376.231 11.5394 366.506 11.7767 362.757 13.6596C362.42 13.7352 362.085 13.8164 361.752 13.9028C365.552 12.3768 369.59 11.6752 373.628 11.6688C374.857 11.666 376.013 11.7186 377.237 11.8364C377.578 11.8888 377.915 11.946 378.25 12.008C377.081 11.8761 375.902 11.8053 374.73 11.7942C379.053 12.1674 376.519 11.5714 382.178 12.8795C382.366 12.8756 382.554 12.8732 382.741 12.8723C388.135 14.3616 393.06 17.2029 397.453 20.5877C399.932 22.136 407.646 29.5338 406.122 28.2915C409.19 31.3042 405.451 27.5369 408.343 30.3404C409.602 31.5676 412.017 33.9821 412.598 34.6021C412.245 34.4374 408.616 30.8237 407.448 29.7997C407.935 30.6647 425.458 46.7654 424.178 44.9873C425.789 46.0144 425.03 45.5831 428.076 47.1354C430.769 48.4308 434.186 49.4899 437.848 49.479C446.195 49.7751 453.204 43.2314 456.578 39.3494C450.203 45.6888 447.839 47.5806 441.137 49.1338C440.481 49.2438 439.354 49.406 437.848 49.407C428.509 50.7092 414.387 36.5552 418.403 40.1471C417.647 39.5038 416.9 38.8438 416.164 38.1776C415.45 37.4555 414.762 36.7404 414.064 36.0056C416.095 37.9747 418.17 39.9113 420.355 41.6988C420.842 42.1499 421.358 42.6105 421.867 43.0476C422.131 43.2141 422.391 43.3736 422.661 43.5367C423.629 44.2394 424.608 44.8951 425.624 45.5039C425.324 45.3614 425.023 45.2135 424.723 45.0605C426.255 46.053 427.867 46.939 429.551 47.6406C429.116 47.4121 428.686 47.1708 428.263 46.9175C432.031 48.6498 433.546 48.7215 434.444 48.9376C435.372 49.0865 435.767 49.2298 437.848 49.3023C437.99 49.3049 438.139 49.3061 438.296 49.3054C440.075 49.2355 439.45 49.222 439.339 49.217C439.206 49.1378 439.643 49.3865 443.248 48.4504C447.361 47.0769 447.886 46.3869 448.838 45.9054C449.712 45.3084 451.067 44.748 455.114 40.7258C455.215 40.5923 455.311 40.4622 455.409 40.3295C457.176 38.5491 458.837 36.6717 460.484 34.7719C460.247 35.0073 460.01 35.2416 459.774 35.4744C463.121 31.5116 467.773 26.0393 469.113 24.922C465.443 28.7232 465.697 28.8783 466.617 27.8627C467.552 26.7723 481.37 10.706 497.481 11.91C505.159 11.7678 511.368 14.6169 513.645 16.0423C522.578 21.5392 526.646 28.6874 533.012 35.5885C530.843 33.2391 526.537 27.4102 521.676 22.379C516.879 17.2186 510.654 14.1963 508.613 13.5797C508.195 13.451 508.418 13.2365 505.684 12.7291C503.153 12.106 500.405 11.7891 497.481 11.7919C490.633 11.7198 483.077 13.8211 476.785 18.3693C477.03 18.1345 477.279 17.902 477.532 17.672C483.204 13.8573 489.454 12.4034 488.618 12.7805C489.917 12.4576 491.277 12.2065 492.589 12.0395C492.584 12.006 492.58 11.9725 492.576 11.9389C494.211 11.7308 495.805 11.6345 497.481 11.6335C497.898 11.6335 498.308 11.6398 498.713 11.6521C498.712 11.6859 498.711 11.7197 498.71 11.7535C500.368 11.8032 502.075 11.9647 503.724 12.2536C503.905 12.251 504.086 12.2499 504.266 12.2501C506.762 12.6553 512.106 14.4796 515.393 16.828C518.689 19.0981 520.404 20.8065 517.455 18.442C519.318 19.9049 521.035 21.5443 522.652 23.2608C522.665 23.2382 522.678 23.2156 522.69 23.1931C523.391 23.9314 524.071 24.6811 524.742 25.4438C524.506 25.2076 524.267 24.971 524.028 24.7369C527.145 28.1886 529.749 31.7283 531.797 33.9684C530.508 32.439 529.254 30.8782 527.989 29.3191C530.369 32.3515 535.08 37.605 535.581 37.9926C536.935 39.3516 537.635 40.0893 539.224 41.4228C540.683 42.6065 540.515 42.3901 540.79 42.6065C544.877 45.5722 546.419 46.0463 547.19 46.4753C548.015 46.8443 548.174 46.9665 550.476 47.5901C550.935 47.7689 551.402 47.9382 551.881 48.099C552.538 48.2431 553.207 48.3681 553.852 48.4688C556.471 48.993 559.007 49.2109 561.702 49.2164C562.073 49.2168 562.439 49.2127 562.801 49.2043C562.439 49.1979 562.073 49.1873 561.702 49.1722C561.042 49.1453 560.397 49.1044 559.767 49.0502C560.455 49.0769 561.101 49.088 561.702 49.0894C564.917 49.0829 566.42 48.8843 566.782 48.8545C567.945 48.7104 568.55 48.5362 568.906 48.4698C577.752 46.4039 578.765 44.2336 579.409 44.1281C579.917 43.7321 579.726 44.2937 583.112 41.2369C585.303 38.832 582.99 41.1765 582.592 41.4184C585.634 38.3839 586.393 37.2334 588.981 33.4651C589.643 32.4744 590.374 31.4159 590.782 30.7815C591.137 30.2324 592.195 28.4803 593.063 27.1663C594.512 24.9818 596.518 22.0765 599.061 19.4803C600.873 17.0617 609.042 11.7979 615.672 11.7244C618.389 11.5265 617.767 11.649 618.484 11.6203C618.561 11.6193 618.757 11.6137 619.041 11.6093C619.889 11.5931 621.373 11.6097 622.707 11.7396C637.815 12.604 647.931 25.6778 656.939 36.1854C663.013 43.2602 671.361 49.438 680.968 49.1228C681.555 49.1227 682.132 49.1039 682.698 49.0672C684.783 48.8914 683.691 49.0154 684.604 48.9077C684.909 48.828 685.313 48.8831 688.449 48.0208C689.576 47.6708 688.299 48.1303 689.4 47.7648C689.917 47.5492 690.19 47.5594 693.133 46.076C698.397 43.174 700.686 40.7465 701.125 40.4525C701.881 39.7666 701.635 39.9402 702.616 39.0168C707.382 34.4422 710.892 30.129 714.975 25.8068C715.937 24.811 719.656 20.7376 723.94 17.579C728.168 14.3138 733.119 12.6383 733.618 12.5349C735.931 11.9132 733.787 12.5104 736.771 11.8702C737.623 11.6933 738.438 11.5627 739.304 11.4658C737.94 11.5651 736.593 11.7652 735.267 12.0664C738.612 11.2516 742.493 11.1686 745.247 11.5086C745.505 11.5378 745.752 11.5683 745.987 11.5997C746.505 11.6146 751.122 12.5048 753.37 13.3355C752.405 13.0321 751.421 12.7626 750.427 12.5318C750.766 12.6309 751.121 12.7393 751.463 12.8493C756.078 14.0944 760.669 16.3723 764.679 19.1547C766.123 20.1681 765.618 19.8452 767.044 20.9158C775.053 27.4864 773.08 25.8131 779.953 32.9787C777.691 30.4998 768.752 22.1145 767.188 21.1942C766.244 20.3865 762.349 17.5191 763.695 18.6964C755.095 13.7132 762.829 17.5093 754.297 13.8085C754.463 13.8986 754.628 13.9897 754.791 14.0817C751.735 12.9577 749.389 12.4603 747.447 12.0705C747.277 12.0784 746.469 11.9533 745.211 11.8203C741.542 11.211 734.108 12.0355 730.068 14.2164C722.02 17.9509 715.497 25.6941 709.747 32.033C707.758 34.2364 706.562 35.4165 706.306 35.6872C705.934 36.0819 704.908 37.2173 704.137 37.979C701.537 41.1691 691.295 48.1606 688.079 48.4993C710.704 41.4347 718.535 8.69497 745.2 11.9202C745.945 12.0055 746.677 12.1099 747.396 12.2325C745.876 11.9977 751.295 12.5414 756.718 14.9638C762.182 17.2655 767.261 21.3272 767.736 21.7049C768.632 22.4209 767.848 21.8552 768.113 22.0698C770.086 23.6729 771.73 25.0853 772.328 25.629C772.781 26.0451 773.678 26.905 775.245 28.4268C775.532 28.7052 775.636 28.7613 775.944 29.0633C777.978 31.0615 779.938 33.0747 781.96 35.0979C782.079 35.2182 782.561 35.7676 783.073 36.2733C783.586 36.7797 784.133 37.2449 784.265 37.3723C785.89 38.9705 788.774 41.624 790.5 42.9346C791.098 43.3966 790.703 43.0527 791.377 43.5593C793.481 45.0577 792.711 44.6861 795.476 46.2927C796.43 46.793 796.368 46.7543 798.242 47.5856C799.582 48.1367 799.415 48.1423 799.629 48.2287C799.896 48.4539 804.81 49.556 806.464 49.4942C804.639 49.4781 805.668 49.5736 807.116 49.5581C808.517 49.5497 810.199 49.2484 810.023 49.2371C811.982 48.9746 813.912 48.4113 815.733 47.6183C816.344 47.3277 816.949 47.0083 817.532 46.6722C824.529 42.6714 827.709 38.7085 833.122 32.9685C833.377 32.6837 837.922 27.7905 837.739 28.0477C835.034 30.9909 832.384 33.9663 830.571 35.7742C827.745 38.884 827.771 39.0378 822.587 43.4356C820.795 44.8459 820.662 44.923 820.451 45.0833C817.146 47.4386 812.207 49.7223 807.116 49.6376C801.139 49.7141 795.944 46.912 793.349 45.1035C791.905 44.2649 797.036 47.3708 795.018 46.2072C792.936 46.7701 771.399 24.7966 778.403 31.6771C777.685 30.9602 776.961 30.2401 776.237 29.5303C775.438 28.8854 771.784 25.4054 772.277 25.7123C771.904 25.4072 771.532 25.1064 771.157 24.8078C770.434 24.1969 769.584 23.4692 768.361 22.4844C765.975 20.4392 755.967 12.954 745.182 12.0719C736.033 10.7951 728.635 15.1921 727.989 15.5772C727.967 15.6244 727.944 15.6717 727.922 15.719C733.118 12.6926 739.18 11.4326 745.172 12.1659C754.937 13.1644 763.971 18.3211 771.72 25.5481C771.368 25.1926 771.014 24.8394 770.656 24.4888C775.806 29.0446 780.375 34.1947 785.362 38.9518C780.008 34.0066 772.192 25.405 766.006 20.9337C764.922 20.1284 765.743 20.6824 765.495 20.4953C764.837 20.02 764.118 19.5199 761.63 18.0058C759.217 16.34 752.395 13.6142 751.714 13.5743C750.51 13.1997 747.373 12.555 745.152 12.3386C745.049 12.3271 744.949 12.3162 744.851 12.3059C741.96 12.0653 743.901 12.1785 743.323 12.1329C740.937 11.9954 738.781 12.1955 736.95 12.5217C734.165 12.8369 728.773 15.0951 727.239 16.3315C728.939 15.3021 730.727 14.4239 732.594 13.7509C722.503 17.7627 716.929 24.8158 709.81 32.701C708.284 34.6095 714.221 28.0222 709.235 33.6216C710.151 32.6151 711.061 31.6003 711.97 30.5904C712.16 30.3328 712.35 30.0753 712.541 29.8181C714.129 28.0973 715.725 26.3907 717.374 24.7428C716.89 25.1965 716.407 25.657 715.927 26.1226C721.465 19.9223 728.488 15.2533 731.261 14.4772C731.401 14.3779 731.542 14.2797 731.684 14.1826C735.775 12.4108 741.564 11.8991 745.143 12.416C747.736 12.7237 749.151 13.1168 748.262 13.0077C748.621 13.0672 748.977 13.1313 749.331 13.1998C753.782 14.3757 751.877 13.8389 753.543 14.3459C754.099 14.2915 762.124 18.2991 758.545 16.5772C766.14 20.8801 763.786 19.6041 765.809 20.9132C770.355 24.237 777.584 31.3925 774.447 28.4963C775.045 29.0817 775.644 29.6778 776.236 30.2725C778.281 32.1362 780.089 34.1857 782.19 36.3366C782.911 37.0563 783.638 37.7724 784.374 38.4801C784.891 38.9203 785.422 39.366 785.951 39.7994C793.099 46.2522 791.172 43.7732 794.614 46.5632C794.006 46.2397 793.396 45.8894 792.811 45.5331C791.434 44.6368 790.116 43.6531 788.855 42.6308C793.846 46.8222 800.074 50.2748 806.884 50.2693C806.961 50.2711 807.039 50.2726 807.116 50.2736C815.596 50.0588 820.086 46.7829 826.838 40.7411C827.461 40.1329 828.07 39.5169 828.67 38.8942C828.111 39.5796 825.752 41.972 830.166 37.5382C830.592 37.2017 827.661 40.2598 826.185 41.5143C825.833 41.8249 828.702 39.0839 825.426 42.1142C823.072 44.036 827.598 40.8141 820.208 46.2481C820.503 46.075 820.798 45.8962 821.089 45.7138C820.26 46.2906 819.429 46.8204 818.547 47.3221C817.752 47.7299 816.937 48.1021 816.104 48.4304C814.008 49.2925 812.831 50.2304 807.507 50.5029C808.347 50.4622 808.041 50.4526 807.116 50.4358C806.439 50.4185 805.478 50.375 804.381 50.2459C804.378 50.2739 804.375 50.3018 804.372 50.3297C798.161 49.1649 800.255 49.5566 795.489 47.4694C795.035 47.2029 794.597 46.93 794.162 46.6451C791.471 45.4947 783.78 38.6316 785.295 39.7674C783.075 37.9189 778.923 33.5909 777.433 31.9457C777.293 31.8446 777.153 31.7434 777.012 31.6423C776.17 30.8062 775.333 29.984 774.483 29.1652C774.024 28.6961 773.562 28.2289 773.096 27.7647C772.479 27.2046 771.858 26.6511 771.229 26.1046C770.876 25.7475 770.52 25.3928 770.161 25.0409C769.132 24.1846 768.088 23.3553 767.022 22.5591C766.397 22.0386 765.76 21.5276 765.116 21.033C765.078 20.924 758.292 16.6228 756.161 15.8883C755.542 15.6389 754.916 15.4047 754.292 15.1891C753.998 15.0494 753.702 14.9128 753.402 14.7795C752.922 14.6367 752.448 14.5061 751.971 14.3842C750.887 14.0312 749.789 13.7267 748.676 13.4709C746.94 13.1642 745.86 13.051 745.081 12.9571C743.797 12.8166 743.505 12.7677 742.855 12.7363C740.863 12.4208 734.337 13.6036 733.342 14.1669C732.298 14.5235 731.781 14.685 730.963 15.0409C724.298 18.2818 722.919 20.3061 722.334 20.6567C721.813 21.139 722.43 20.6457 721.307 21.6493C720.109 22.7391 719.247 23.5095 718.227 24.535C716.429 26.2023 708.115 35.6676 707.547 36.1649C706.808 36.9292 708.382 34.9759 706.033 37.5044C706.087 37.7188 700.599 42.7201 703.245 40.4697C700.995 42.5503 698.588 44.5046 695.941 46.1321C696.311 46.034 693.056 48.1686 689.003 49.4088C687.01 50.0489 684.004 50.6513 680.968 50.6409C675.32 50.7945 670.099 48.4953 670.456 48.5358C669.127 48.0198 667.832 47.3916 666.596 46.6803C658.236 41.4465 652.971 33.4395 646.668 26.7212C639.763 18.8513 630.008 12.794 619.041 13.1084C610.263 12.8253 602.026 16.9626 597.036 24.1175C591.836 30.9885 588.096 39.4333 580.912 44.8331C579.808 45.6485 579.923 45.4979 579.102 46.0365C576.113 48.2185 568.534 50.812 561.702 50.5904C558.809 50.5951 556.221 50.3237 554.077 49.9189C551.839 49.4888 550.721 49.0732 550.046 48.8677C547.649 48.0627 548.236 48.2933 547.148 47.8619C545.293 47.4682 537.289 42.0642 535.194 39.5198C534.045 38.3831 532.711 37.0173 531.487 35.5915C531.382 35.469 531.614 35.6619 531.525 35.5584C529.299 32.9642 530.609 34.5486 529.863 33.6674C524.6 27.419 519.408 20.1355 511.671 16.1692C509.782 15.1493 506.713 14.0569 504.899 13.6894C504.212 13.5514 505.464 13.8038 503.051 13.3704C502.242 13.2454 501.978 13.1604 501.031 13.0613C499.566 12.9191 498.509 12.9102 497.481 12.9251C495.677 12.9687 494.341 13.0625 492.126 13.2914C485.236 13.7455 475.054 20.1867 470.919 24.8627C469.881 25.9018 469.367 26.4027 468.413 27.4343C467.736 28.1663 466.599 29.5056 465.579 30.693C464.557 31.8732 462.939 33.7443 460.974 36.0529C458.925 38.4942 456.191 41.4291 455.654 41.9263C455.022 42.5499 454.703 42.7832 454.044 43.3886C452.217 45.3116 446.115 49.4968 442.49 50.011C440.613 50.442 439.083 50.5249 437.848 50.5224C436.651 50.5147 435.802 50.4225 435.159 50.3445C433.966 50.2057 432.599 49.9297 432.071 49.7811C431.252 49.5516 431.075 49.4489 430.063 49.0871C428.422 48.4764 426.754 47.7494 424.541 46.3805C407.031 34.4608 395.448 12.6775 373.628 12.9786C347.329 11.8661 341.146 46.6392 314.962 50.3128C313.771 50.4419 312.758 50.4886 311.701 50.4923C308.311 50.4169 305.032 50.2506 299.826 47.6125C297.162 46.0984 298.303 46.7062 296.341 45.3728C295.493 44.7473 295.676 44.95 294.637 44.1095C290.058 40.36 286.048 34.8732 284.521 32.9198C283.919 32.1349 283.198 31.2614 281.979 29.6481C275.218 20.35 265.467 8.98301 252.068 9.54756C248.579 9.54119 245.141 10.1533 241.997 11.3675C233.895 14.0152 225.35 24.1235 219.284 31.8256C212.329 40.5422 202.981 50.8957 190.141 50.5587C172.211 50.4652 162.674 33.8841 153.156 24.1175C146.002 16.1758 136.713 9.33514 125.92 9.59709C112.223 8.57744 104.748 21.3359 97.6409 31.9029C90.3801 43.0486 77.282 49.9072 64.0744 50.5556C63.5153 50.6012 62.9621 50.6381 62.4149 50.6666C62.9564 50.6411 63.5098 50.607 64.0751 50.5636C72.7855 49.9771 83.3998 47.0836 91.0873 39.629C98.9082 32.4057 103.025 22.2042 109.627 15.8782C113.887 11.6517 119.794 9.62404 125.92 9.71045C153.908 8.91093 159.831 48.9841 190.141 50.6686C219.715 49.3084 223.96 9.62228 251.171 9.68629C251.466 9.67777 251.765 9.67342 252.068 9.67343C274.486 7.88283 281.504 39.57 302.442 48.987C303.403 49.3698 305.49 50.0248 307.705 50.3473C307.965 50.3889 309.729 50.6698 311.701 50.6776C313.409 50.7014 315.15 50.5326 316.07 50.3887C314.197 50.6633 321.906 49.2942 323.988 47.9309C326.774 46.7074 332.006 43.0552 336.732 38.0101C341.028 33.4597 339.844 34.7265 340.091 34.4823C341.574 32.8509 342.019 32.2267 343.128 30.9665C346.068 27.67 358.893 11.9829 373.628 13.1261C379.656 13.098 384.61 14.8765 387.241 16.0613C389.488 17.092 389.505 17.2232 390.001 17.4755C391.3 18.177 393.136 19.2257 395.077 20.6187C398.592 23.1077 402.249 26.5435 403.982 28.1985C408.185 32.0765 415.616 40.2368 421.875 44.7542C423.64 46.0183 423.515 45.9551 424.347 46.4929C426.716 48.0576 432.366 50.8526 437.848 50.6944C440.562 50.6996 443.065 50.1189 444.79 49.4952C453.381 46.3292 458.862 38.7103 464.421 32.2891C464.791 31.8876 465.163 31.4852 465.532 31.0888C466.073 30.4246 466.62 29.7602 467.169 29.1071C474.818 20.0243 485.44 12.7377 497.481 13.1057C499.991 13.1068 502.337 13.3256 504.738 13.8468C506.421 13.8972 513.701 17.1643 514.666 18.1698C515.578 18.792 516.497 19.3962 517.755 20.4725C519.482 22.0262 517.829 20.5862 520.576 23.2196C521.296 23.9497 520.644 23.1902 522.071 24.6904C522.632 25.0534 531.144 35.4863 531.719 36.0089C532.521 36.9285 533.198 37.793 533.415 38.0254C534.543 39.2281 534.552 39.1223 535.345 39.8972C537.657 42.2179 541.148 44.7931 541.619 45.0511C545.931 48.2094 554.834 50.9307 561.702 50.6712C563.349 50.6702 564.685 50.5991 566.021 50.4732C566.961 50.3788 566.849 50.4382 567.013 50.4212C568.028 50.301 568.745 50.1199 569.721 49.9176C575.225 49.1314 582.903 44.3205 586.209 39.8911C586.621 39.4108 587.432 38.3557 588.097 37.4575C591.755 32.3243 590.549 33.9921 590.776 33.7085C591.244 33.0082 592.001 31.7331 593.194 29.8657C596.047 24.9182 602.914 16.3712 608.823 14.8378C613.009 13.4477 613.008 13.8223 613.29 13.7054C613.901 13.6089 615.594 13.2359 618.529 13.1861C618.704 13.1835 618.875 13.1822 619.041 13.182C624.174 13.3163 623.593 13.5076 625.833 13.8498C626.026 13.9055 625.697 13.7128 628.197 14.3532C633.215 15.1796 642.438 21.8388 645.927 26.0524C647.354 27.5738 647.712 27.9122 649.13 29.527C651.35 32.0967 656.383 38.0581 656.857 38.4739C656.976 38.6004 657.277 38.8563 657.984 39.5919C658.76 40.3976 659.541 41.2007 660.153 41.7738C663.458 45.3504 671.138 49.0762 668.966 48.1446C670.403 48.7874 671.891 49.3064 673.43 49.6896C675.895 50.3814 678.422 50.695 680.968 50.6938C688.676 50.8056 695.853 47.1203 701.405 42.22C703.1 40.7557 704.457 39.4828 705.77 38.1511C707.134 36.8457 712.575 30.7141 713.483 29.7126C714.977 27.7403 724.802 18.2278 726.472 17.6989C729.19 15.8663 732.133 14.7319 733.374 14.3165C734.369 13.987 733.414 14.203 735.357 13.6601C738.255 12.794 743.089 12.7844 745.064 13.1072C745.384 13.1456 745.626 13.178 745.775 13.1976C746.229 13.2976 745.4 12.976 749.62 13.8693C751.88 14.414 753.033 14.8822 753.832 15.163C754.062 15.2941 753.785 14.9126 757.959 16.8678C760.801 18.3002 761.893 19.1392 762.184 19.3041C762.607 19.5758 763.663 20.1784 765.297 21.3782C769.186 24.1001 775.418 30.2509 778.611 33.5402C779.235 34.1692 779.056 33.9179 781.555 36.4276C783.356 38.2185 783.013 37.9356 783.697 38.6021C784.784 39.6397 786.445 41.1882 789.058 43.3165C790.583 44.4894 797.955 50.8331 807.116 50.6731C816.449 50.7627 823.17 44.2587 823.745 43.9651C824.614 43.2725 825.558 42.4334 825.98 42.0819C825.65 42.415 825.318 42.7432 824.982 43.0662C821.196 46.098 822.721 44.8986 821.705 45.6923C820.316 46.9822 813.798 50.1831 811.964 50.3186C811.341 50.4287 812.801 50.3201 809.439 50.8267C808.567 50.926 807.8 50.9557 807.116 50.9535C805.017 50.9323 803.853 50.708 802.768 50.6148C797.719 49.4863 793.396 47.0908 798.776 49.5676C799.636 49.8715 802.736 51.0766 807.116 51.0837C819.602 51.8936 831.626 36.7593 834.512 33.8814C837.943 30.1185 844.265 23.064 849.251 19.6291C851.991 17.2238 860.047 14.1454 859.782 14.5395C862.763 13.8355 859.59 14.5131 860.215 14.3585C860.885 14.1672 863.799 13.5363 866.749 13.5784C869.461 13.5643 872.064 14.0866 872.911 14.2947C881.889 16.0769 890.7 24.5434 896.855 31.2811C896.547 30.9825 896.239 30.6845 895.931 30.3874C894.532 28.8402 887.748 22.227 886.791 21.7558C897.456 30.2887 904.926 43.4661 918.998 49.4428C918.849 49.3439 923.632 51.3248 928.676 51.2216C933.205 51.2672 937.408 49.841 937.79 49.7328C937.494 49.8673 937.196 49.9977 936.895 50.1237C932.873 51.2259 930.462 51.2656 928.676 51.3001C925.977 51.2366 924.555 51.2774 920.492 49.9955C917.786 49.0385 918.59 49.3548 917.289 48.8052C911.04 45.6477 911.327 45.153 911.564 45.4222C911.904 45.5619 912.401 46.1023 908.328 42.8332C910.663 44.9395 904.117 39.4147 901.604 36.6531C900.96 36.0456 893.388 27.9414 892.44 27.0911C887.469 21.7095 877.256 14.3995 870.189 14.0717C868.92 13.9112 867.831 13.8593 866.749 13.8623C863.258 13.9165 860.625 14.3884 857.082 15.7168C853.631 17.1734 854.62 16.7711 853.045 17.5894C849.808 19.4774 848.929 20.4146 846.915 21.7917C844.933 23.4564 843.052 25.2754 841.223 27.169C841.203 27.1493 841.183 27.1296 841.163 27.1099C840.004 28.2898 838.865 29.501 837.731 30.7274C837.418 31.1074 837.105 31.4884 836.794 31.87C833.173 35.7732 834.617 34.0936 833.886 34.7736C833.105 35.6175 832.307 36.4729 831.508 37.3119C830.929 38.0144 830.357 38.7 829.76 39.3953C826.096 43.0958 822.07 46.7635 817.062 49.141C816.727 49.2682 816.389 49.3885 816.05 49.5015C816.05 49.5318 816.051 49.5622 816.051 49.5925C813.262 50.7791 810.183 51.4463 807.116 51.439C800.655 51.5207 794.555 48.6076 789.755 44.893C788.803 44.1561 791.093 46.1294 794.157 47.8974C797.186 49.7381 801.166 50.8516 801.726 50.9319C803.095 51.2475 804.972 51.539 807.116 51.5358C815.195 51.967 823.563 45.1878 823.471 45.3163C826.638 43.0429 834.237 34.8387 836.554 32.3812C833.046 36.1936 829.561 40.1401 825.487 43.6781C825.64 43.5902 825.793 43.5012 825.945 43.4114C820.648 47.5453 819.911 48.4819 813.06 50.929C813.041 50.8873 813.023 50.8457 813.005 50.8041C811.368 51.3071 809.247 51.6507 807.116 51.6335C802.903 51.6737 799.101 50.1949 798.916 50.2649C796.387 49.3635 794.046 48.0877 791.892 46.6308C787.627 43.2054 793.173 49.358 778.126 34.5341C777.115 33.5083 777.363 33.6847 775.84 32.1622C775.379 31.7571 772.919 29.1436 767.863 24.8235C767.066 24.1611 767.032 24.0767 766.194 23.4082C764.284 21.8113 760.107 19.2826 762.05 20.3605C753.694 15.4629 757.043 17.7349 754.334 16.5043C752.477 15.8413 752.862 15.8954 751.23 15.4125C749.403 14.9899 750.41 15.0303 744.936 14.2234C744.177 14.1354 743.32 14.0619 742.345 14.0343C743.19 14.0489 744.049 14.1027 744.939 14.1994C745.01 14.2071 745.082 14.2151 745.153 14.2232C745.082 14.2114 745.011 14.1998 744.94 14.1884C744.531 14.1223 744.126 14.0654 743.725 14.0172C738.98 13.8933 739.425 14.0303 737.258 14.4372C733.905 15.0324 731.047 16.0279 727.041 18.6583C719.578 24.3933 723.359 21.2934 715.506 29.1046C714.299 30.4534 713.099 31.8286 711.887 33.2071C709.812 35.408 711.435 33.5617 708.333 36.8795C710.889 34.3746 704.236 41.3451 702.949 42.4615C702.8 42.5566 702.651 42.6509 702.501 42.7445C701.721 43.4265 700.909 44.1008 700.081 44.7418C700.092 44.7616 700.103 44.7814 700.114 44.8012C698.992 45.6479 697.831 46.4465 696.612 47.1842C695.718 47.7662 694.789 48.315 693.831 48.8164C692.218 49.5665 690.54 50.1826 688.799 50.6355C687.737 50.9395 686.606 51.1897 685.518 51.3608C685.874 51.3373 686.216 51.3098 686.582 51.2708C685.175 51.5429 683.705 51.7074 682.284 51.7585C683.565 51.714 683.275 51.8444 680.968 51.8974C680.275 51.9029 679.416 51.8852 678.408 51.802C676.539 51.6245 676.674 51.5688 676.266 51.4928C675.885 51.3603 674.875 51.4139 671.075 50.1337C670.639 49.8187 669.253 50.149 663.134 45.8624C656.336 40.2474 659.756 42.8714 658.568 41.8552C658.345 41.6487 656.439 39.8018 654.823 37.9897C653.898 36.9627 653.064 35.9433 652.944 35.8056C652.393 35.1699 652.197 35.0143 651.44 34.1301C649.523 31.8861 647.017 28.9034 645.085 26.8807C644.21 25.9554 643.348 25.1392 642.944 24.7495C642.319 24.1419 641.54 23.3634 640.88 22.7908C638.483 20.5887 634.347 18.1863 633.089 17.4359C630.375 16.073 624.245 14.5543 624.64 14.8354C623.191 14.5895 621.275 14.3857 619.041 14.3887C614.068 14.301 608.3 15.7091 604.583 18.4372C600.838 21.0679 598.798 24.0471 598.865 23.7422C596.138 27.5495 596.364 27.2393 595.229 28.8997C593.99 30.8056 594.662 29.8352 593.675 31.3675C591.365 34.9581 589.092 38.5408 586.029 41.8941C586.49 41.35 586.932 40.7974 587.359 40.2367C584.213 43.762 585.454 42.7163 581.673 45.87C577.985 48.5645 576.613 48.8655 576.316 49.0442C575.986 49.171 576.553 48.8848 575.913 49.1283C576.099 49.0827 573.735 50.1803 571.039 50.819C568.392 51.4893 565.508 51.7134 564.943 51.7434C564.335 51.7464 566.818 51.6409 561.702 51.7842C561.39 51.7851 561.053 51.7835 560.69 51.7776C561.024 51.8112 561.361 51.8413 561.702 51.8679C561.72 51.8693 561.738 51.8707 561.756 51.8721C561.738 51.8719 561.72 51.8717 561.702 51.8715C558.752 52.053 550.929 50.7696 549.7 50.1558C549.071 49.971 546.004 48.7022 543.262 47.3373C542.953 47.1332 542.656 46.9293 542.351 46.7141C539.43 45.0064 536.795 42.8848 534.416 40.5942C534.075 40.1885 533.741 39.7797 533.413 39.3683C532.69 38.6202 531.987 37.8584 531.301 37.089C531.723 37.6295 532.153 38.1672 532.592 38.701C528.229 33.9552 523.591 28.0628 522.821 27.0874C521.94 26.1229 521.049 25.1862 520.134 24.2864C519.59 23.6547 519.03 23.0336 518.459 22.4333C514.041 18.5832 513.836 18.6936 510.371 16.9103C510.526 16.9404 510.68 16.9717 510.834 17.0043C508.266 15.6772 503.125 14.263 498.88 14.2164C498.47 14.2017 497.993 14.1895 497.481 14.1865C495.508 14.1572 493.278 14.3681 492.903 14.4287C492.427 14.4071 487.867 15.608 487.379 15.6643C480.873 17.9565 478.47 20.0815 476.199 21.7586C474.759 22.9247 474.147 23.5173 472.615 24.9778C470.431 27.0798 468.354 29.3876 467.182 30.736C466.51 31.5106 466.419 31.6848 465.961 32.2219C463.786 34.7872 465.035 33.2543 462.731 35.9798C462.51 36.2323 460.884 38.274 458.843 40.4931C457.74 41.758 454.506 44.7888 454.168 45.0187C452.772 46.0875 454.209 45.584 448.936 48.7668C449.103 48.6978 449.27 48.6269 449.436 48.5544C442.633 52.2811 440.895 51.4041 439.441 51.7154C439.326 51.7232 438.644 51.7849 437.848 51.7935C437.279 51.8014 436.669 51.7817 436.198 51.7449C434.293 51.5831 433.55 51.3294 433.14 51.2529C431.654 51.0512 426.925 49.3897 424.321 47.6109C424.614 48.2876 415.882 41.7625 414.483 39.8826C413.089 38.6219 411.74 37.3467 410.398 36.0626C409.823 35.4525 409.255 34.8451 408.682 34.2336C408.303 33.8946 407.927 33.5591 407.549 33.2218C405.696 31.288 403.847 29.3778 401.95 27.5417C401.785 27.4731 401.619 27.4049 401.454 27.3373C400.915 26.8341 400.372 26.3372 399.826 25.8483C399.428 25.434 399.025 25.0225 398.619 24.6167C397.914 24.0345 397.198 23.4649 396.475 22.9131C396.276 22.8027 396.076 22.6937 395.876 22.586C391.878 19.8917 394.328 20.433 386.007 16.7383C384.72 16.1728 383.395 15.6843 382.055 15.2879C380.495 14.9776 377.609 14.342 375.211 14.2689C374.458 14.2389 374.052 14.2505 373.628 14.2629C373.104 14.2831 372.546 14.2946 371.31 14.3804C369.017 14.5819 369.121 14.5855 368.941 14.5972C367.093 14.8846 365.759 15.2932 364.473 15.703C364.29 15.7704 363.75 15.843 362.158 16.509C360.56 17.2168 359.642 17.719 357.429 19.118C356.306 19.8555 355.961 20.0456 354.998 20.7697C350.417 24.2629 346.672 28.9749 343.435 32.1382C342.799 32.913 337.98 38.6252 335.569 40.8801C331.835 44.3708 333.203 42.96 331.641 44.2792C331.382 44.4312 330.302 45.5997 326.491 47.853C325.8 48.2419 325.975 48.1783 325.875 48.2344C322.788 50.0237 316.949 51.9316 311.701 51.7975C309.326 51.7964 307.167 51.4931 305.411 51.0739C304.943 50.9283 302.125 50.5424 298.223 48.1522C291.954 45.0643 284.615 35.1327 279.711 28.7518C279.024 27.8544 278.215 26.7596 277.906 26.3714C275.154 23.1611 276.41 23.9656 269.707 17.4629C270.23 18.013 268.616 16.5228 266.09 14.893C262.202 12.64 265.052 14.0393 261.775 12.553C261.764 12.579 261.754 12.605 261.744 12.631C257.495 10.9614 254.87 10.8615 252.068 10.8323C249.769 10.8792 247.362 11.0277 243.801 12.1377C240.923 12.9607 237.055 15.2604 236.479 15.714C236.226 15.8389 233.605 17.9352 233.376 18.1768C231.999 19.3595 231.229 20.0565 230.101 21.1842C226.393 24.9135 222.467 30.1038 223.064 29.0749C222.147 30.2505 221.231 31.4395 220.307 32.6286C216.607 36.9591 213.786 40.3184 212.781 41.068C212.074 41.8305 211.325 42.5985 210.565 43.3285C205.239 48.2912 197.816 51.9971 190.141 51.842C169.59 51.5286 160.311 31.8754 148.359 21.0199C147.781 20.1889 139.741 14.1247 139.146 14.1831C137.075 13.141 139.401 13.9223 134.984 12.2218C134.475 12.1004 133.962 11.9932 133.445 11.9005C127.689 10.6193 130.462 11.2424 128.145 10.8986C127.176 10.8431 127.496 10.887 126.152 10.8645C126.076 10.8641 125.998 10.8639 125.92 10.8641C122.228 10.8285 116.774 11.6332 112.518 14.9597C108.213 18.1885 105.061 23.2592 102.731 26.7092C101.785 28.1358 101.898 27.8983 101.601 28.3433C100.784 29.5624 99.2088 32.0293 97.3578 34.4329C91.1045 43.6666 77.552 51.3145 64.1802 51.8354C54.8752 52.6903 45.4859 50.7662 38.5427 47.0024C37.4025 46.3954 37.2759 46.2638 36.5202 45.8211C35.4691 45.2199 33.19 43.7407 32.1842 42.9604C31.2243 42.234 30.6537 41.7384 29.6737 40.9086C25.1726 37.1682 20.0979 31.2356 16.5496 26.3395C16.2363 25.9246 12.6059 20.7975 12.5186 20.687C12.0529 20.0127 15.5831 24.2358 10.0193 17.1107C15.0461 23.4849 13.9863 20.9102 6.9451 13.368C10.6915 16.8665 13.7354 21.3052 17.0229 25.55C17.0422 25.5449 17.0616 25.5399 17.0809 25.5348C14.1287 21.6684 11.6266 17.3555 6.36967 12.5345C6.54578 12.6605 6.72251 12.7915 6.89981 12.9272C11.6156 17.1485 15.9983 23.8745 19.2333 27.6773C14.7186 21.9415 10.9912 15.3946 5.31632 11.0627C5.60854 11.2473 5.90096 11.4463 6.19363 11.6587C9.01202 13.6251 13.6764 19.745 15.4362 22.0489C22.2512 30.8544 9.62216 14.2463 11.7154 16.9775C18.9461 26.0972 25.4844 36.2783 35.4227 42.8519C35.5481 43.0939 26.3363 36.37 19.7691 27.2332C13.3217 18.1011 5.71779 9.87161 5.52984 10.3993C8.60064 12.4849 10.9796 15.4057 13.2796 18.2847C12.2937 16.9596 11.3045 15.6752 10.2087 14.3997C10.5213 14.7245 10.8452 15.0725 11.1482 15.4049C15.2089 20.1522 18.7118 25.3174 22.721 30.0488C11.3788 15.228 5.43426 7.54286 -0.227051 7.83927C0.338363 7.83066 0.895565 7.87275 1.4443 7.96232C7.45607 7.58663 18.0319 24.7936 24.8685 32.1621C23.4624 30.6342 17.9077 23.5462 16.811 21.9656C16.4951 21.5282 17.6577 23.001 16.9275 21.9945C15.9387 20.6557 13.4478 17.1743 10.9845 14.3412C8.58844 11.4938 5.95827 9.64866 6.8543 10.2579C9.04842 10.4231 22.1089 28.8948 25.19 31.877C18.2034 24.4623 14.0304 14.2766 4.23935 8.30495C10.7591 11.5963 13.9198 16.9496 21.1528 26.1891C23.3579 29.1662 8.52458 8.61872 6.49058 8.98235C10.5168 11.7332 13.2146 15.3549 15.9459 18.7838C13.6631 15.8468 11.3604 12.8453 8.31107 10.2458C8.31132 10.2276 8.31156 10.2094 8.31177 10.1912C15.9401 17.1057 19.957 24.8719 27.285 32.6397C27.0672 32.3751 22.8867 27.5706 21.0109 25.0443ZM874.171 15.0681C874.352 15.1488 870.767 14.2117 868.653 14.1433C868.961 14.1759 869.274 14.2142 869.589 14.2586C868.745 14.1681 867.807 14.107 866.749 14.1048C862.204 13.9437 856.952 15.8929 856.78 16.1256C853.857 17.4042 855.114 16.7732 854.176 17.2086C853.797 17.3538 850.149 19.4829 847.454 21.6553C846.816 22.1722 846.191 22.7032 845.573 23.2498C845.479 23.385 845.386 23.5206 845.293 23.6566C844.406 24.3876 843.53 25.1494 842.669 25.9272C849.335 19.2347 857.536 13.8777 866.749 14.0329C869.272 14.0299 871.754 14.3726 874.155 15.0634C874.16 15.065 874.166 15.0666 874.171 15.0681ZM771.213 27.622C768.025 24.5035 762.601 20.5939 763.628 21.4842C765.883 23.0563 768.034 24.8104 770.119 26.6714C770.484 26.9841 770.851 27.3023 771.213 27.622ZM402.399 27.8206C399.732 25.2404 397.164 22.9536 392.482 19.8478C392.476 19.8706 392.47 19.8934 392.464 19.9162C394.459 21.0453 399.278 24.8444 402.399 27.8206ZM967.621 27.5028C968.218 26.9329 968.822 26.3578 969.424 25.7898C967.082 28.2183 966.603 28.5889 963.857 31.2702C963.691 31.432 963.768 31.3958 963.71 31.4522C963.032 32.1106 962.386 32.6855 961.768 33.274C960.574 34.4043 959.631 35.3568 957.447 37.3046C955.746 38.8044 955.688 38.7644 955.08 39.2846C954.586 39.7341 949.429 44.1579 945.517 46.2727C941.757 48.2231 947.991 45.2279 954.112 40.0469C960.293 34.9371 966.701 28.3207 967.621 27.5028ZM986.108 13.9865C985.421 14.1467 984.748 14.3695 984.076 14.6436C986.094 13.7967 981.904 15.244 979.152 17.373C979.112 17.179 985.358 13.1798 988.309 13.5887C987.575 13.6329 986.836 13.7714 986.108 13.9865ZM900.69 35.2598C902.895 37.5324 902.468 37.2106 902.352 37.1398C901.646 36.4238 900.941 35.6934 900.249 34.9697C900.396 35.0666 900.543 35.1633 900.69 35.2598ZM920.046 49.6151C918.964 49.5243 912.519 46.2634 910.011 44.0462C909.902 43.9529 910.621 44.5048 908.796 43.0278C908.18 42.6315 903.092 38.0144 904.301 38.9371C908.779 43.2583 913.828 47.4568 920.036 49.6119C920.039 49.6129 920.042 49.614 920.046 49.6151ZM927.177 51.0771C925.834 51.0228 924.452 50.8578 923.112 50.5865C922.424 50.4048 921.759 50.1993 921.09 49.964C922.572 50.4059 924.098 50.7188 925.641 50.8902C926.161 50.9688 926.663 51.0298 927.177 51.0771ZM137.99 12.7125C138.235 12.8629 138.478 13.0166 138.718 13.1734C139.742 13.574 144.329 16.4576 142.917 15.4871C141.344 14.427 139.701 13.4882 137.99 12.7125ZM116.05 11.8624C115.051 12.2811 114.066 12.7946 113.141 13.3765C112.109 14.1145 111.152 14.9435 110.254 15.8459C114.273 11.9057 120.166 10.7532 119.173 10.8212C120.378 10.5082 121.622 10.2942 122.903 10.167C121.819 10.3879 122.022 10.2415 125.309 10.1632C125.435 10.1448 125.641 10.1295 125.92 10.1206C127.273 10.0726 130.186 10.2047 133.361 11.0543C130.95 10.3995 128.464 10.0796 125.92 10.0753C125.543 10.0746 125.174 10.0801 124.811 10.0917C124.81 10.0749 124.81 10.0581 124.809 10.0414C125.233 10.0274 125.604 10.0231 125.92 10.0226C127.959 10.0569 127.455 10.0191 125.92 9.98289C124.125 9.93986 121.178 10.1974 119.181 10.784C118.874 10.8401 118.541 10.9106 118.223 10.9854C117.472 11.2402 116.766 11.5245 116.05 11.8624ZM514.448 18.3741C513.794 17.9128 513.13 17.4819 512.445 17.0761C509.605 15.8206 515.379 18.4252 518.516 21.7751C517.543 20.6078 522.488 25.4833 522.701 25.8557C522.195 25.2241 521.683 24.6019 521.159 23.9895C519.083 21.8835 516.868 19.9506 514.448 18.3741ZM492.803 13.5752C494.197 13.5004 491.454 13.6589 487.963 14.6584C484.454 15.5985 480.408 17.7646 478.517 19.0713C477.574 19.6777 475.942 20.8347 475.321 21.3619C474.953 21.6894 474.588 22.0239 474.23 22.3633C473.636 22.5598 467.285 29.1241 465.039 32.0282C464.795 32.2721 464.551 32.5161 464.307 32.7602C463.456 33.7811 462.606 34.8099 461.742 35.8424C461.83 35.6957 461.919 35.5488 462.007 35.4017C461.373 36.2002 460.744 36.9882 460.095 37.7829C457.455 40.8105 459.014 38.862 456.973 41.1134C454.657 43.5695 458.583 39.6544 458.521 39.7529C460.38 37.7339 464.262 32.9877 466.031 30.9493C467.068 29.7987 465.905 31.0857 470.358 26.1558C471.39 25.1328 472.447 24.1434 473.536 23.2012C475.47 21.3996 477.525 19.7507 479.731 18.3442C480.167 18.1225 480.611 17.9075 481.05 17.7071C481.236 17.4542 486.71 14.9918 486.447 15.1768C488.534 14.5129 492.724 13.4737 497.481 13.5163C498.008 13.5169 498.529 13.5279 499.042 13.5493C499.556 13.5492 500.031 13.5569 500.555 13.5791C495.565 13.374 498.793 13.4744 497.481 13.3931C497.453 13.3923 497.423 13.3914 497.391 13.3907C496.471 13.3444 493.795 13.4572 492.803 13.5752ZM164.514 37.4697C158.365 30.8731 162.165 34.9219 155.807 27.6636C156.213 28.2012 156.616 28.7403 157.02 29.2811C160.146 32.822 165.445 38.7159 164.521 37.4764C164.518 37.4742 164.516 37.4719 164.514 37.4697ZM94.6574 36.5543C97.9504 32.4752 96.3327 34.5057 100.069 29.1154C100.071 29.1128 100.072 29.1103 100.074 29.1077C98.1795 31.9014 96.1683 34.6804 93.8511 37.2381C94.1229 37.0123 94.3916 36.7843 94.6574 36.5543ZM333.281 41.9268C336.949 38.5074 336.189 39.1378 339.314 35.8987C343.693 30.8717 339.941 35.0861 339.877 35.0253C338.875 36.1762 337.859 37.3203 336.812 38.4436C334.136 41.0514 336.597 38.5001 336.586 38.4915C336.584 38.4938 336.581 38.496 336.579 38.4982C336.559 38.4788 336.646 38.3938 335.627 39.4003C334.872 40.2549 334.086 41.1057 333.281 41.9268ZM347.604 26.4568C346.512 27.7113 346.027 28.2635 349.086 25.1772C349.088 25.175 349.09 25.1729 349.092 25.1708C349.235 24.8146 352.298 22.0142 353.774 20.8707C354.147 20.5522 354.525 20.2397 354.908 19.9342C352.306 21.8526 349.905 24.0913 347.604 26.4568ZM408.98 33.2223C408.895 33.3377 406.26 30.7271 409.862 34.5072C410.581 35.2198 411.308 35.9392 412.035 36.6502C412.53 37.0931 413.037 37.5447 413.541 37.9868C418.092 42.6142 421.67 45.1073 421.566 44.9611C421.507 44.8225 417.643 42.1312 409.946 34.4236C409.944 34.4215 409.941 34.4194 409.939 34.4173C409.62 34.0197 409.297 33.6181 408.98 33.2223ZM392.019 18.7542C391.844 18.7344 391.67 18.7158 391.496 18.6984C389.218 17.164 386.017 15.5172 380.847 14.169C380.374 14.0851 379.897 14.0112 379.416 13.9478C378.791 13.8196 376.48 13.4014 373.628 13.4036C367.33 13.064 359.713 16.6918 362.433 15.6087C364.145 14.878 367.997 13.9107 368.373 13.9044C369.512 13.7174 371.046 13.5828 373.025 13.5425C373.198 13.5391 373.4 13.5348 373.628 13.5318C374.922 13.508 376.967 13.5577 378.924 13.8863C384.204 14.4426 392.846 18.9677 398.279 23.501C398.657 23.8401 399.031 24.1836 399.404 24.5308C403.354 27.9881 402.093 26.7697 405.584 30.2375C406.915 31.3189 403.426 27.7703 399.833 24.6882C396.26 21.5688 392.444 19.1607 394.497 20.3675C394.494 20.3657 394.492 20.364 394.489 20.3623C393.679 19.8012 392.856 19.2642 392.019 18.7542ZM272.376 18.8546C272.259 18.4982 267.597 14.7739 268.763 15.5558C267.182 14.4175 265.517 13.4291 263.768 12.635C263.775 12.6542 263.781 12.6733 263.788 12.6925C265.505 13.5205 267.13 14.536 268.669 15.695C268.661 15.7174 268.653 15.7397 268.645 15.762C271.236 17.1031 279.146 26.5354 278.759 26.3863C279.192 26.8851 279.623 27.3885 280.053 27.8949C283.608 32.6513 286.6 36.8906 291.213 41.7477C291.6 42.0972 291.989 42.4382 292.386 42.774C292.619 43.0241 292.854 43.2713 293.092 43.5155C294.916 45.1577 296.916 46.6587 299.11 47.8701C302.795 49.6347 301.017 48.8487 298.29 47.2412C295.547 45.6258 292.366 42.632 291.723 41.9705C291.549 41.7954 291.52 41.8741 290.441 40.7609C288.249 38.9375 279.436 26.651 276.434 23.2672C276.438 23.2122 276.443 23.1572 276.447 23.1022C275.145 21.6194 273.794 20.1864 272.376 18.8546ZM432.469 50.3207C432.81 50.4452 433.156 50.5625 433.504 50.6711C435.105 50.9773 436.573 51.0818 437.848 51.0771C441.447 51.0252 443.239 50.331 442.058 50.5462C442.055 50.5468 442.052 50.5475 442.049 50.5481C440.671 50.8286 439.278 50.9669 437.848 50.9695C436.022 50.9731 434.225 50.7512 432.469 50.3207ZM787.597 42.59C787.532 42.436 785.371 40.5586 782.734 38.0431C782.845 38.1828 782.956 38.3222 783.066 38.4613C784.51 39.6993 785.992 41.5796 790.792 45.1813C790.815 45.1496 790.838 45.1178 790.861 45.0861C789.738 44.2962 788.657 43.4613 787.597 42.59ZM427.474 48.4833C425.764 47.714 421.365 44.9267 424.235 46.8068C426.453 48.2061 428.384 48.923 427.474 48.4833ZM77.6512 48.2565C78.9793 47.7902 80.1893 47.3013 81.47 46.704C82.1097 46.3631 82.7144 46.018 83.3267 45.6469C83.3239 45.6484 83.321 45.65 83.3181 45.6515C81.5177 46.6595 79.6291 47.5244 77.6512 48.2565ZM318.159 50.353C322.778 49.3242 327.051 46.9967 330.668 44.1258C330.691 44.0801 330.713 44.0344 330.736 43.9887C327.114 46.9063 325.264 47.5824 324.304 48.0838C324.308 48.0817 324.312 48.0796 324.317 48.0774C321.145 49.6131 317.82 50.5058 314.501 50.7834C315.745 50.7164 316.933 50.5794 318.159 50.353ZM302.216 49.1672C302.907 49.4207 303.829 50.65 311.092 50.9786C310.802 50.9535 310.514 50.924 310.23 50.8902C306.476 50.6875 304.357 49.918 305.016 50.0547C304.082 49.8192 303.122 49.5147 302.216 49.1672ZM360.622 16.3301C359.817 16.4846 354.549 19.986 354.897 19.8892C354.953 19.8506 356.633 18.6079 358.241 17.6717C359.841 16.7193 361.34 16.0498 360.622 16.3301ZM832.319 36.0261C831.279 37.129 830.222 38.229 829.133 39.3131C830.557 37.851 831.924 36.362 833.279 34.8634C832.963 35.2483 832.64 35.6397 832.319 36.0261ZM843.533 23.9192C844.34 23.239 841.833 25.5667 846.613 21.4618C843.088 24.3791 839.893 27.7476 836.736 31.1862C838.202 29.5577 839.675 27.9481 841.187 26.391C840.892 26.6324 840.598 26.8746 840.305 27.1193C841.36 26.0265 842.431 24.9567 843.533 23.9192ZM847.326 20.7654C846.342 21.5122 848.318 19.7524 850.895 18.0833C853.452 16.3686 856.699 15.0449 857.268 14.8741C857.521 14.7776 858.729 14.4593 859.182 14.3556C857.343 14.8825 855.551 15.6083 853.836 16.4921C854.422 16.2189 855.014 15.9639 855.613 15.7283C853.557 16.6399 851.602 17.7844 849.739 19.0917C850.524 18.5145 851.324 17.9682 852.146 17.4541C850.471 18.4313 848.866 19.5517 847.326 20.7654ZM804.325 50.7239C805.262 50.8349 806.165 50.8887 807.116 50.8906C807.984 50.8916 808.822 50.8438 809.67 50.7457C809.303 50.7492 808.956 50.7416 808.599 50.7265C808.11 50.7597 807.616 50.7766 807.116 50.7766C806.537 50.7766 805.966 50.7559 805.403 50.7155C805.049 50.7269 804.689 50.7298 804.325 50.7239ZM833.94 34.0558C832.436 36.0007 827.518 40.6042 832.992 34.9828C833.536 34.4158 834.083 33.872 833.94 34.0558ZM861.877 13.6507C866.833 12.9142 865.703 13.2002 861.055 13.8897C860.821 13.9341 861.504 13.7248 861.877 13.6507ZM894.904 28.6968C895.196 29.0024 895.638 29.5863 898.48 32.4578C898.93 32.9503 899.38 33.4418 899.834 33.9356C898.747 32.7641 889.46 23.3287 890.771 24.6178C892.237 25.9993 893.443 27.1863 894.904 28.6968ZM885.729 19.8154C884.153 18.627 882.518 17.5402 880.802 16.5951C881.351 16.9336 881.894 17.2892 882.423 17.6554C881.603 17.1543 880.763 16.6833 879.909 16.2516C878.479 15.4526 876.99 14.7599 875.45 14.2007C879.483 15.5043 883.196 17.7381 886.563 20.3848C886.286 20.1918 886.01 20.0034 885.729 19.8154ZM839.707 27.1078C842.416 24.414 845.664 20.9572 850.835 17.6182C850.838 17.6167 850.841 17.6151 850.843 17.6136C851.102 17.4516 851.581 17.1939 852.437 16.7097C852.729 16.5505 855.24 15.0736 858.325 14.108C861.398 13.0869 864.981 12.7819 866.749 12.8255C867.603 12.8337 868.012 12.8704 867.765 12.8728C867.417 12.8642 867.079 12.8617 866.749 12.8643C861.113 13.0194 859.025 13.9551 857.707 14.4845C857.406 14.5521 857.101 14.6268 856.8 14.7053C851.124 17.0067 849.854 18.4326 847.119 20.5198C847.114 20.4915 847.109 20.4632 847.104 20.4348C845.283 21.8773 843.558 23.4417 841.886 25.077C842.133 24.8582 842.38 24.6423 842.63 24.4258C842.034 24.9971 841.446 25.5768 840.863 26.1662C839.392 27.545 837.618 29.4071 839.707 27.1078ZM892.448 25.7619C894.092 26.6628 905.707 40.6427 912.962 45.1756C909.17 42.8418 904.324 38.0563 901.078 34.6183C894.787 27.9894 899.085 32.6194 897.995 31.5163C897.461 30.9678 893.991 27.1391 892.448 25.7619ZM830.146 37.4488C833.31 34.1411 834.948 32.1861 837.674 29.3636C837.461 29.6133 837.247 29.8641 837.034 30.115C836.132 31.0921 828.616 39.1671 830.146 37.4488ZM924.291 50.0275C919.841 49.0985 918.862 48.3707 918.284 48.2106C917.731 47.971 917.639 48.0139 915.605 46.838C918.297 48.336 921.238 49.455 924.3 49.9778C924.297 49.9944 924.294 50.0109 924.291 50.0275ZM419.311 42.1703C416.436 39.773 413.501 36.8228 411.875 35.3193C413.656 37.0969 415.469 38.8717 417.355 40.5688C417.997 41.1112 418.648 41.6459 419.311 42.1703ZM509.491 14.1028C508.724 13.7225 505.476 12.8371 505.138 12.8077C504.505 12.6691 504.681 12.6842 504.674 12.675C500.429 11.9497 504.343 12.6343 501.199 12.249C500.935 12.2259 499.464 12.0636 497.481 12.0577C494.947 12.0243 491.915 12.3704 490.208 12.7353C485.627 13.5963 481.404 15.7355 479.927 16.6207C477.341 18.0319 473.011 21.4003 469.677 24.8967C468.291 26.324 467.789 26.8037 466.452 28.2982C460.375 34.5044 451.36 50.006 437.848 49.6659C432.816 49.6883 428.603 47.7744 425.795 46.111C423.354 44.6719 421.285 42.9551 420.127 42.0124C419.206 41.2858 418.302 40.5314 417.412 39.7593C414.879 37.1721 413.906 36.4446 411.124 33.7127C409.36 31.9685 408.588 31.1144 408.349 30.8781C406.785 29.329 405.986 28.5885 404.73 27.3978C403.326 26.057 401.262 24.1773 400.728 23.7337C400.364 23.5086 401.519 24.2299 395.505 19.7125C389.308 15.2489 382.005 12.2134 374.176 12.1431C376.75 12.442 378.998 12.5063 382.078 13.2706C382.903 13.4873 382.372 13.3822 383.084 13.5824C385.11 14.1072 388.813 15.663 390.316 16.5359C391.948 17.4535 391.359 17.1952 393.386 18.4242C393.488 18.488 393.189 18.2507 393.661 18.5491C398.336 21.6609 399.722 22.9149 404.913 27.7744C406.677 29.3423 412.389 35.4429 418.295 40.6977C424.113 46.1545 431.254 48.9012 431.753 48.8853C434.307 49.5761 427.79 48.4409 421.905 43.7862C415.981 39.3311 410.245 33.079 408.952 31.8855C408.078 31.0097 409.027 31.8967 408.232 31.0951C407.891 30.7642 404.819 27.7578 401.657 24.9474C397.967 21.3963 389.446 15.4885 384.703 14.1898C381.147 12.9541 377.387 12.3246 373.628 12.3305C345.648 11.217 339.695 49.6158 311.701 49.8655C297.645 50.2609 288.8 37.6413 281.249 27.5786C280.701 26.8703 279.965 25.9467 278.135 23.6861C271.858 15.6109 262.768 8.58234 252.068 8.92406C223.414 8.22829 219.066 48.8582 190.141 49.8797C168.868 49.4956 160.257 27.0599 145.448 15.9806C139.893 11.6016 133.014 8.84787 125.92 8.93727C121.043 8.91858 116.171 10.0379 112.149 12.8216C110.947 13.6855 109.829 14.6758 108.799 15.7422C111.309 12.7413 117.764 9.9949 118.442 10.0408C118.648 9.9901 120.051 9.50904 122.315 9.24427C123.969 9.05791 125.066 9.05676 125.92 9.06111C126.748 9.07119 127.173 9.10387 127.308 9.10861C128.133 9.15166 127.597 9.08375 128.377 9.13964C134.287 9.65968 138.656 11.4906 143.18 14.4912C148.228 18.0316 150.31 20.4384 153.477 23.644C153.804 24.0369 154.128 24.4317 154.451 24.8289C156.931 27.0328 169.448 43.2808 177.353 46.7138C179.672 47.9094 179.268 47.7009 180.072 48.0577C180.633 48.1188 180.27 48.6694 187.021 49.8047C188.391 49.9626 189.339 49.9917 190.141 50.0043C191.349 50.0132 192.061 49.9843 193.105 49.8734C194.047 49.7555 193.893 49.745 195.207 49.5032C202.934 47.9043 208.128 43.5179 213.241 38.0623C214.679 36.4926 214.706 36.4909 215.022 36.1351C216.179 34.8159 218.066 32.4354 220.848 28.993C225.181 23.1627 235.445 12.6176 241.369 11.0699C242.179 10.7496 242.857 10.5662 243.463 10.3751C244.383 10.0894 244.737 9.96039 244.897 9.91689C248.032 9.22011 246.153 9.6554 248.264 9.31391C249.239 9.19328 250.174 9.04423 252.068 9.01722C252.461 9.01378 252.888 9.01835 253.352 9.03626C256.895 9.26479 256.188 9.36072 257.649 9.58577C257.801 9.62153 257.875 9.55707 259.282 9.90849C264.787 11.074 271.429 16.0603 274.897 20.049C275.924 21.1644 276.65 22.0345 277.999 23.6785C280.548 27.022 295.706 46.5355 298.672 46.3795C298.864 46.4801 296.903 45.4446 299.967 47.1924C300.883 47.6461 301.835 48.0497 302.795 48.3857C304.374 49.038 306.046 49.5226 307.722 49.8228C307.711 49.7504 309.545 50.0189 311.701 49.9947C314.502 50.024 317.645 49.4037 317.615 49.4889C318.692 49.2661 319.765 48.9737 320.807 48.62C322.914 47.7144 324.414 47.247 328.049 44.7416C328.633 44.3792 329.209 43.9989 329.772 43.6069C329.896 43.4835 330.018 43.3594 330.14 43.2345C332.085 41.8965 334.764 39.1132 335.077 38.7789C336.34 37.5046 337.273 36.5392 337.84 35.9237C339.976 33.6311 344.341 28.4704 346.875 25.8759C346.994 25.7539 346.914 25.9078 347.637 25.1713C348.95 23.859 349.015 23.6581 350.895 22.0485C351.251 21.6966 351.609 21.3501 351.974 21.0083C352.384 20.6718 352.799 20.3423 353.218 20.0205C355.646 18.062 358.277 16.355 361.114 15.088C358.609 16.4028 361.492 14.8813 364.402 13.9207C365.385 13.5989 364.491 13.8119 364.819 13.7052C365.071 13.5917 369.492 12.3893 373.628 12.4877C376.812 12.478 379.633 13.0409 380.03 13.1359C380.684 13.2459 381.317 13.3709 381.97 13.5211C382.287 13.6373 382.601 13.7579 382.911 13.8827C383.264 13.9722 383.611 14.0662 383.962 14.1672C387.534 15.0435 395.678 19.9545 396.935 21.167C397.648 21.7474 396.964 21.2818 400.341 24.1121C400.482 24.1821 400.624 24.2528 400.766 24.3235C401.531 24.9832 402.288 25.6569 403.035 26.3398C404.433 27.6277 406.366 29.6134 406.396 29.7104C406.841 30.107 407.285 30.5048 407.727 30.9031C408.806 32.0831 414.821 38.1427 417.487 40.3717C418.219 41.0619 418.972 41.7479 419.735 42.4101C420.808 43.2486 421.903 44.0496 423.048 44.8081C425.67 46.5633 422.868 44.7521 423.426 45.1301C424.487 46.146 431.146 49.164 430.735 48.9312C431.682 49.2547 432.652 49.5201 433.639 49.7176C434.15 49.7854 434.664 49.8354 435.18 49.8668C435.846 49.9942 436.674 50.0984 437.848 50.1125C439.682 50.1132 442.321 49.9674 445.808 48.533C446.27 48.3074 446.724 48.0658 447.168 47.8095C448.862 46.9889 450.457 45.9548 451.941 44.8144C452.214 44.5395 452.487 44.256 452.748 43.9747C453.354 43.4492 453.963 42.8874 454.538 42.33C455.816 41.2699 457.741 39.05 458.762 37.944C460.227 36.3386 459.239 37.6991 456.451 40.6702C456.849 40.5964 464.605 31.3475 466.416 29.2864C466.286 29.4137 466.155 29.5419 466.024 29.6706C464.175 31.8049 462.379 33.9967 460.535 36.1638C458.865 37.8638 463.863 31.9923 466.162 29.3261C466.379 29.0919 467.495 27.6354 469.971 25.1016C470.893 24.0753 474.932 20.5873 475.784 20.0347C482.56 15.4915 477.321 18.3414 484.557 14.9874C482.991 15.5699 487.191 13.6319 491.96 12.9581C492.439 12.8677 495.236 12.4976 497.481 12.5024C498.886 12.4867 499.966 12.5553 500.14 12.5658C503.061 12.8438 499.904 12.4962 504.058 13.1183C504.56 13.1911 505.053 13.275 505.538 13.3693C506.514 13.6061 507.426 13.8758 508.358 14.2037C513.814 16.5309 514.83 17.57 516.577 18.7409C517.252 19.264 516.375 18.6006 518.089 20.0031C518.723 20.5459 519.464 21.1057 521.06 22.7017C525.96 27.7997 527.113 29.9918 531.547 34.8372C532.185 35.6178 532.835 36.3912 533.501 37.1525C533.989 37.6306 534.484 38.1022 534.986 38.5651C538.661 42.2805 537.415 40.8584 538.833 42.1015C542.458 45.7207 552.218 49.2915 553.165 49.2367C556.072 49.7519 559.28 50.0416 561.702 50.0775C562.881 50.0997 563.787 50.0762 564.326 50.0422C565.303 49.9632 566.378 49.8375 567.34 49.6804C568.525 49.5386 569.702 49.3375 570.866 49.067C570.313 49.1509 576.195 47.3532 576.683 46.8986C577.515 46.9275 585.101 41.0145 586.937 37.9265C589.123 35.1627 592.354 30.0125 592.656 29.5799C593.01 29.0833 596.036 23.9684 599.184 20.652C600.145 19.6269 602.9 16.7729 606.889 14.9521C610.791 13.0733 615.74 12.5054 619.041 12.538C621.785 12.5402 623.417 12.7858 622.999 12.703C621.869 12.5678 620.515 12.4696 619.041 12.4596C618.435 12.4551 617.845 12.4652 617.294 12.4872C614.547 12.376 603.359 13.9115 597.057 22.9629C590.864 31.513 585.151 41.2724 581.129 43.7744C575.79 48.1782 568.672 49.9608 561.702 49.9021C549.914 50.3696 538.813 43.7623 531.782 34.9033C531.083 34.0938 531.015 33.9384 530.424 33.2374C529.525 32.1742 527.257 29.4752 526.38 28.4259C523.175 24.4454 518.789 20.0486 516.554 18.4906C511.681 14.8609 507.626 13.4577 503.087 12.6916C502.393 12.5796 500.195 12.2771 497.481 12.2965C494.843 12.2952 491.867 12.6229 489.465 13.1644C488.583 13.349 487.693 13.5743 486.841 13.8267C488.886 13.082 494.026 12.1249 497.481 12.2085C498.118 12.2063 498.682 12.2198 499.156 12.2393C503.814 12.4649 506.168 13.2789 507.787 13.774C509.245 14.0073 515.862 17.3361 518.288 19.7325C519.08 20.411 519.205 20.5938 519.857 21.1996C523.42 24.4889 527.372 29.5409 530.122 32.7422C528.948 31.474 536.024 39.6 536.591 39.8481C537.301 40.5099 538.095 41.1998 539.65 42.4328C542.715 44.679 542.221 44.6144 546.519 46.6642C547.586 47.1841 548.662 47.6369 549.786 48.0382C549.832 48.0307 556.003 49.9489 561.702 49.7902C564.726 49.7989 567.349 49.4428 568.825 49.1062C568.858 49.0895 565.671 49.7265 561.702 49.6884C555.956 49.867 549.136 47.772 548.306 47.3162C538.85 44.2719 530.104 32.3997 524.164 25.4705C522.481 23.2249 515.954 17.3573 515.25 17.1846C514.358 16.5962 515.139 17.1652 514.752 16.9135C510.737 14.4354 509.506 14.2668 509.397 14.134C509.257 14.0551 510.066 14.3455 509.491 14.1028ZM846.941 20.2957C844.724 22.0522 842.643 23.9934 840.636 26.0133C840.762 25.8463 840.888 25.6797 841.015 25.5136C841.945 24.5995 842.894 23.7019 843.862 22.8363C844.592 22.1489 845.332 21.4818 846.093 20.8315C846.374 20.6497 846.657 20.471 846.941 20.2957ZM852.634 16.3114C854.781 15.1444 854.947 15.2118 855.456 14.9762C856.998 14.3226 858.365 13.8326 859.945 13.4359C858.139 13.9596 854.426 15.3755 852.634 16.3114ZM813.592 49.0673C814.129 48.9326 817.891 47.7746 821.295 45.0731C823.94 43.2241 826.338 41.0643 828.624 38.8218C824.868 42.7562 818.712 47.3451 816.099 48.2671C815.155 48.6798 814.949 48.7043 814.173 48.9821C811.652 49.8776 809.016 50.2336 807.116 50.2204C805.622 50.2195 804.646 50.0705 804.432 49.9809C805.357 50.0979 806.236 50.148 807.116 50.1472C810.474 50.1552 813.05 49.2273 813.592 49.0673ZM835.294 31.542C835.819 31.0159 836.341 30.4947 836.867 29.973C835.054 31.9341 833.265 33.9258 831.431 35.8907C831.901 35.3394 832.375 34.7784 832.838 34.226C833.659 33.3329 834.476 32.4361 835.294 31.542ZM662.536 42.9578C663.813 44.0332 665.156 45.0344 666.578 45.9223C666.505 45.8636 664.91 44.8068 664.364 44.3595C664.366 44.3613 664.369 44.3632 664.371 44.3651C663.756 43.8751 664.034 44.0677 662.937 43.1623C662.803 43.095 662.669 43.0268 662.536 42.9578ZM107.365 17.106C105.28 18.8862 91.07 40.2732 91.7375 38.0538C92.6977 37.424 98.1318 30.4723 99.4532 28.2589C101.342 25.309 106.753 17.7273 107.365 17.106ZM75.3423 47.803C75.1445 47.8948 78.9275 46.8815 82.6158 44.8947C86.3556 42.971 89.6944 40.0141 90.2569 39.4608C90.0031 39.678 89.6003 40.0025 89.2547 40.2907C87.8007 41.9957 78.8367 47.176 75.3423 47.803ZM590.561 32.2274C591.298 31.1694 592.026 30.1042 592.759 29.0479C592.528 29.3025 592.298 29.5559 592.068 29.8108C591.566 30.6163 591.067 31.4233 590.561 32.2274ZM485.869 14.1745C465.542 20.1749 460.366 47.993 437.848 49.8409C436.794 49.8402 435.78 49.7647 434.745 49.6111C435.782 49.752 436.796 49.8146 437.848 49.8025C438.747 49.791 439.585 49.7274 440.462 49.6036C459.918 45.5816 466.193 21.6004 483.393 15.0569C484.215 14.7268 485.03 14.4368 485.869 14.1745ZM807.505 49.8287C807.375 49.8311 807.245 49.8323 807.116 49.8323C801.712 49.8025 797.176 48.1306 792.381 44.7683C797.17 47.8364 799.907 49.201 805.468 49.6891C805.471 49.6893 805.474 49.6895 805.477 49.6897C806.014 49.751 806.56 49.7936 807.116 49.8163C807.246 49.8216 807.375 49.8258 807.505 49.8287ZM706.292 36.3371C707.421 35.0983 708.523 33.8401 709.617 32.576C708.267 34.0644 706.902 35.5477 705.501 36.9871C705.767 36.7705 706.028 36.5554 706.292 36.3371ZM334.404 38.9044C332.402 40.9464 328.583 44.4815 324.094 46.7067C319.637 49.0287 314.688 49.5977 312.377 49.6564C312.107 49.6683 314.244 49.6536 311.701 49.7692C311.336 49.7782 310.88 49.7816 310.321 49.7638C310.794 49.7855 311.256 49.7938 311.701 49.7912C314.412 49.7733 316.193 49.3957 316.392 49.3141C317.399 49.1675 318.386 48.9664 319.37 48.706C320.985 48.2223 322.542 47.586 324.037 46.8172C323.894 46.9409 324.057 46.956 326.256 45.6055C327.27 45.0074 328.249 44.3561 329.2 43.6617C329.58 43.3404 329.955 43.0117 330.325 42.6764C331.14 42.0676 331.934 41.4299 332.711 40.7721C335.568 38.0181 333.753 39.621 334.404 38.9044ZM348.06 24.1283C347.266 24.6536 329.468 44.5153 337.757 35.671C339.889 33.3467 341.941 30.9577 344.044 28.6184C342.124 30.3961 348.05 24.1932 348.612 23.7673C350.996 21.3946 354.288 18.6397 356.356 17.3484C358.118 16.217 359.244 15.677 360.569 15.0514C364.602 12.9435 371.471 12.0833 373.628 12.1638C373.877 12.1564 374.063 12.1506 374.176 12.1431C373.994 12.1402 373.811 12.1386 373.628 12.1386C369.898 12.131 366.089 12.7495 362.477 14.141C358.535 15.7442 354.994 17.4711 349.209 23.1174C347.769 24.5036 348.236 23.963 348.06 24.1283ZM713 28.8495C712.882 29.0111 719.894 21.6658 720.016 21.6943C720.004 21.6536 717.623 23.945 717.295 24.2908C717.293 24.293 717.291 24.2952 717.289 24.2974C717.149 24.4356 717.822 23.6982 716.729 24.8002C715.459 26.1268 714.223 27.4834 713 28.8495ZM143.243 14.1594C142.767 13.7429 134.739 8.37848 125.92 8.69214C118.119 8.38155 111.861 12.6254 111.639 12.9225C111.44 13.0737 111.736 12.8887 111.663 12.9566C115.181 10.2481 120.646 8.63746 125.92 8.74723C129.353 8.74785 132.615 9.37056 135.213 10.237C137.026 10.8625 136.496 10.664 136.599 10.6931C136.603 10.6947 136.608 10.6964 136.612 10.698C137.68 10.9985 142.027 13.3546 143.243 14.1594ZM302.473 47.9606C303.705 48.4732 304.989 48.885 306.305 49.1846C306.65 49.2307 306.988 49.2676 307.322 49.297C307.319 49.2965 307.316 49.2959 307.313 49.2954C305.659 49.0238 304.028 48.5738 302.473 47.9606ZM270.323 15.2365C270.563 15.4556 270.8 15.6778 271.034 15.903C273.587 18.0805 275.858 20.5721 277.992 23.1643C277.767 22.9097 277.542 22.6566 277.316 22.4052C280.534 26.3321 281.793 28.0219 283.432 30.1791C283.43 30.1766 283.428 30.1741 283.426 30.1717C283.601 30.4054 283.779 30.7097 284.435 31.5762C285.891 33.5956 290.414 39.1095 291.108 39.658C292.216 41.099 283.15 29.9841 281.645 27.7697C280.916 26.8065 280.055 25.6362 279.6 25.0593C279.099 24.4271 278.388 23.594 277.123 22.0974C276.793 21.6283 272.551 16.8713 270.323 15.2365ZM220.219 29.2731C220.905 28.4953 222.241 26.7918 222.756 26.1863C222.879 26.0415 221.964 27.2009 223.117 25.8317C223.421 25.4274 223.729 25.0229 224.038 24.6207C222.741 26.1523 221.478 27.7114 220.219 29.2731ZM725.439 17.2177C725.137 17.31 720.884 20.707 720.732 20.9427C719.555 22.0722 721.025 20.702 722.698 19.3437C724.369 17.9664 726.296 16.6856 725.439 17.2177ZM840.55 25.1537C839.674 26.0735 844.173 20.8832 850.505 16.8597C856.785 12.5527 865.249 11.843 866.749 12.0041C866.761 12.004 866.773 12.004 866.785 12.004C866.78 12.0064 866.768 12.0086 866.749 12.0107C866.149 11.9059 859.718 12.6866 863.272 12.3114C859.618 12.2154 850.637 16.4334 848.924 18.0256C847.778 18.8208 847.466 18.9988 847.294 19.1227C846.553 19.5274 841.144 24.4971 840.55 25.1537ZM888.951 21.3894C886.812 19.5362 884.55 17.8166 882.117 16.3652C885.001 18.0569 887.654 20.1254 890.147 22.3484C889.752 22.0247 889.352 21.7036 888.951 21.3894ZM891.62 23.7494C891.665 23.5687 898.358 30.4835 900.072 32.3373C898.018 30.36 894.878 26.7819 891.62 23.7494ZM759.741 16.4953C755.798 14.4492 753.935 13.9632 758.866 16.1261C759.015 16.1947 759.903 16.583 759.741 16.4953ZM333.209 39.634C332.806 40.3297 325.348 45.9486 324.728 45.9718C323.307 46.934 328.599 43.838 330.135 42.4408C332.677 40.3154 329.189 43.7282 335.014 38.0777C334.797 38.3306 334.578 38.5819 334.358 38.8313C337.701 35.4451 336.472 36.4233 337.051 35.7969C337.227 35.6087 339.235 33.4125 339.58 33.0017C343.949 27.9153 333.883 39.3233 333.209 39.634ZM665.226 44.328C658.456 38.7441 661.22 41.274 655.117 34.6186C654.741 34.5449 663.959 44.0615 665.226 44.328ZM404.583 26.9343C397.952 20.7325 391.842 15.8743 383.623 13.3817C383.877 13.4559 390.489 15.6842 395.743 19.6163C401.061 23.402 405.405 27.7978 404.583 26.9343ZM55.3459 49.2817C58.1887 49.5489 61.0141 49.5555 63.9728 49.3278C76.2932 48.72 88.9621 42.7469 96.3404 31.7421C103.417 21.4547 111.381 7.31986 125.92 8.46842C135.421 8.27836 144.032 13.3665 150.415 19.7008C153.358 22.5912 153.538 22.9678 154.561 24.0485C155.221 24.7674 155.14 24.6128 156.006 25.5794C165.416 36.1225 175.081 49.6358 190.141 49.4149C218.696 48.4291 222.905 7.87937 252.068 8.41542C257.558 8.38015 262.984 9.94544 267.547 12.9485C270.361 14.04 279.603 24.3776 281.282 26.7909C282.744 28.4781 276.589 20.7128 275.35 19.5903C274.499 18.6798 274.493 18.612 273.911 18.0236C273.284 17.4045 273.782 17.9357 273.044 17.2262C269.932 14.2165 265.949 11.4979 262.237 10.1364C258.99 8.89658 255.524 8.32833 252.068 8.33504C222.504 8.07165 218.353 48.605 190.141 49.3197C181.442 49.4868 173.663 44.4878 167.672 38.3792C164.457 35.1063 165.185 35.7197 165.015 35.5617C165.013 35.5595 165.011 35.5573 165.009 35.5551C154.894 24.719 144.095 8.04675 125.92 8.35239C115.422 7.69953 106.69 15.374 101.758 23.61C93.9625 37.5701 80.427 48.8651 63.967 49.2576C61.5807 49.451 59.2575 49.4912 56.9441 49.3649C56.4299 49.3475 55.8722 49.3183 55.3459 49.2817ZM346.521 25.442C344.836 27.0092 344.58 27.483 339.078 33.6052C338.651 34.1195 338.219 34.6354 337.786 35.1464C340.721 31.9289 343.523 28.5903 346.53 25.432C346.527 25.4353 346.524 25.4387 346.521 25.442ZM301.584 47.2533C300.998 46.9204 296.524 44.7015 292.496 40.5095C288.405 36.4126 284.511 30.9584 281.998 27.6639C281.017 26.4989 288.248 36.158 290.219 38.1913C291.108 39.2389 296.239 45.0971 301.646 47.3043C301.625 47.2873 301.604 47.2703 301.584 47.2533ZM817.871 46.2919C816.725 46.9472 815.524 47.5248 814.286 47.9897C817.405 46.8584 820.244 45.0377 822.84 42.9517C818.742 46.3024 813.853 48.9506 808.541 49.2672C809.505 49.1588 810.49 48.9748 811.429 48.7259C813.679 48.2638 815.847 47.4066 817.871 46.2919ZM801.344 48.5345C810.479 50.0252 800.819 48.9739 798.751 47.7208C797.476 47.18 800.413 48.3465 801.344 48.5345ZM781.829 34.7014C784.878 37.8466 791.569 43.5213 789.1 41.6077C785.562 38.5151 783.405 36.3733 778.612 31.4819C779.335 32.1699 780.062 32.8655 780.782 33.5524C780.785 33.5557 780.789 33.559 780.792 33.5623C781.139 33.9439 781.484 34.3238 781.829 34.7014ZM805.506 49.1506C808.529 49.267 805.644 49.415 802.758 48.8296C799.87 48.2558 797.141 46.94 799.708 47.9346C799.912 48.1741 805.246 49.295 805.506 49.1506ZM91.1258 37.4503C90.6717 38.0304 93.8672 34.6211 94.7862 33.3508C99.0577 28.1103 103.077 20.2133 108.225 15.148C107.828 15.5176 107.444 15.8949 107.069 16.282C101.085 22.983 97.373 31.2357 91.1258 37.4503ZM128.857 8.33616C133.789 8.77398 138.531 10.5245 142.673 13.1655C143.067 13.3989 144.861 14.5798 143.546 13.6724C139.187 10.7475 134.13 8.7825 128.857 8.33616ZM373.143 11.6192C371.748 11.6465 372.326 11.5903 373.628 11.5614C375.861 11.447 380.046 12.062 379.731 12.1368C377.718 11.7814 375.696 11.6098 373.628 11.6147C373.465 11.6151 373.304 11.6166 373.143 11.6192ZM404.049 26.0286C402.322 24.4395 400.55 22.8943 398.704 21.4368C398.712 21.4217 398.721 21.4065 398.729 21.3914C400.568 22.8648 402.331 24.4251 404.049 26.0286ZM75.1114 47.0448C77.4702 46.4845 82.9166 44.143 85.8343 41.9583C83.8155 43.452 78.4596 46.1782 75.1114 47.0448ZM328.785 43.1406C328.923 43.0656 326.054 45.2678 323.338 46.5168C320.639 47.7966 318.314 48.3407 320.699 47.5533C323.6 46.5365 326.307 44.9904 328.785 43.1406ZM300.939 46.5563C303.732 47.9575 306.12 48.4196 305.475 48.3443C303.883 47.9252 302.325 47.3264 300.852 46.5785C300.881 46.5711 300.91 46.5637 300.939 46.5563ZM769.893 23.0755C765.78 19.6001 761.251 16.5228 756.242 14.4392C756.434 14.5015 756.626 14.565 756.817 14.6298C761.616 16.7081 765.974 19.6965 769.94 23.049C769.924 23.0579 769.909 23.0667 769.893 23.0755ZM72.1849 47.674C69.4716 48.3168 66.7861 48.7204 63.9429 48.966C63.0557 49.042 62.1847 49.0957 61.3296 49.1279C62.1849 49.101 63.0563 49.0526 63.9442 48.9819C66.7926 48.7529 69.485 48.3656 72.2092 47.7372C72.2041 47.7153 72.199 47.6934 72.1938 47.6716C72.1908 47.6724 72.1879 47.6732 72.1849 47.674ZM829.052 36.4467C817.411 47.7544 832.191 33.2875 835.009 29.9322C835.012 29.9288 835.015 29.9253 835.018 29.9218C835.281 29.6499 834.776 30.2731 835.217 29.8225C834.072 31.0365 832.934 32.2567 831.792 33.4654C830.785 34.6024 829.774 35.7301 828.744 36.8385C828.394 37.1865 828.035 37.5387 827.677 37.8847C828.141 37.4078 828.598 36.9291 829.052 36.4467ZM885.606 17.7758C897.123 27.4635 885.883 16.7896 878.816 13.8873C878.937 13.7713 884.557 16.8454 885.606 17.7758ZM848.537 17.3807C846.592 18.7485 844.768 20.2649 843.026 21.8633C842.794 22.0552 842.563 22.2488 842.333 22.4439C843.648 21.1997 845.015 19.9942 846.442 18.8636C847.126 18.352 847.827 17.8542 848.537 17.3807ZM787.259 39.146C784.575 36.5526 780.869 33.5609 789.819 41.5029C789.825 41.486 789.831 41.4691 789.838 41.4522C789.463 41.1534 788.399 40.259 788.343 40.2048C788.183 40.0558 788.406 40.1908 787.259 39.146ZM905.789 36.5707C906.102 36.8404 906.333 36.9516 909.431 39.9608C910.429 40.8141 911.439 41.6248 912.482 42.3915C912.726 42.6224 912.971 42.8504 913.223 43.078C909.211 40.0594 908.874 39.5904 908.575 39.3838C907.321 38.254 908.269 39.0646 907.471 38.3257C905.398 36.4372 900.937 31.7717 903.044 33.8047C903.801 34.5378 905.484 36.2883 905.789 36.5707ZM898.906 29.2906C899.326 29.7544 897.901 28.3294 898.215 28.682C898.497 28.9928 902.716 33.5281 901.499 32.3712C900.8 31.6302 900.107 30.8914 899.408 30.1472C899.188 29.8797 898.969 29.6126 898.748 29.3452C898.052 28.6441 897.353 27.9431 896.648 27.2465C895.536 26.0027 893.067 23.4237 896.082 26.3978C894.991 25.2887 893.883 24.1907 892.748 23.1195C892.14 22.5819 891.525 22.0507 890.903 21.532C891.248 21.7827 891.591 22.0369 891.933 22.2941C894.367 24.5456 896.653 26.9177 898.906 29.2906ZM938.362 46.4215C938.201 46.5073 938.039 46.5918 937.877 46.6749C943.087 44.8994 950.083 39.6326 946.109 42.5604C940.852 45.9972 934.877 48.5083 928.676 48.4945C927.463 48.4958 926.301 48.4104 925.118 48.2323C924.641 48.1424 924.169 48.038 923.694 47.9172C926.873 48.5806 927.619 48.3653 928.676 48.3498C929.398 48.301 930.251 48.2938 932.172 48.066C932.957 47.9026 930.711 48.6021 935.623 47.3848C935.443 47.4115 935.265 47.4364 935.084 47.4597C936.189 47.1794 937.29 46.8275 938.362 46.4215ZM975.828 16.2716C968.223 22.5853 976.409 15.418 978.103 14.5556C978.1 14.5573 978.098 14.5591 978.095 14.5608C982.405 11.8606 973.394 17.9844 973.084 18.5951C972.441 19.159 970.975 20.5865 967.479 23.6835C970.144 21.1283 972.849 18.5872 975.828 16.2716ZM952.437 37.6893C953.054 37.1729 952.732 37.4829 952.999 37.2598C953.002 37.2579 953.004 37.2559 953.006 37.2539C956.999 34.0402 965.712 25.3121 966.782 24.4611C964.078 27.2527 951.615 38.9566 950.568 39.2622C951.197 38.7479 951.822 38.2211 952.437 37.6893ZM920.18 46.806C917.367 45.6371 923.757 48.1425 925.588 48.1463C925.93 48.1859 923.113 48.0404 920.18 46.806ZM716.052 23.418C711.172 28.567 717.652 21.8683 715.464 24.2402C716.397 23.2642 717.357 22.2948 718.34 21.356C717.565 22.0288 716.802 22.7192 716.052 23.418ZM456.93 37.0121C455.843 38.2068 456.385 37.663 456.292 37.7685C455.587 38.5411 454.864 39.246 454.59 39.5306C449.294 44.7032 452.868 41.3305 452.948 41.296C453.088 41.2169 451.702 42.5908 453.694 40.7684C454.871 39.6045 455.985 38.3931 457.087 37.1401C457.657 36.5351 458.212 35.934 458.777 35.3134C460.902 32.7575 458.063 36.0604 457.686 36.3773C457.541 36.5032 459.574 34.145 456.93 37.0121ZM707.399 32.6063C706.689 33.4915 704.863 35.5666 706.769 33.6306C706.771 33.6284 706.773 33.6261 706.776 33.6239C707.128 33.2669 708.518 31.7545 708.955 31.2969C711.911 27.879 710.68 29.1157 707.399 32.6063ZM478.618 15.48C481.061 14.0444 483.676 12.8789 486.408 12.0545C486.375 12.1091 486.342 12.1638 486.309 12.2184C484.843 12.6657 483.435 13.1998 482.05 13.8285C481.579 14.0681 481.11 14.3197 480.645 14.5819C482.337 13.7599 484.083 13.0737 485.886 12.5314C488.013 11.8126 490.238 11.3003 492.465 11.0002C491.464 11.1046 490.391 11.2641 489.388 11.4587C494.509 10.5104 493.764 10.8134 497.481 10.7316C497.716 10.7343 497.966 10.7387 498.234 10.7458C499.796 10.7345 501.364 10.8134 502.906 10.9957C505.167 11.3609 507.359 11.946 509.486 12.7847C513.031 14.203 513.31 14.4534 510.988 13.2918C512.772 14.0135 514.561 15.0807 516.451 16.3743C516.606 16.4807 516.343 16.2379 516.48 16.3327C525.71 23.6506 524.395 23.989 525.777 25.2159C526.641 26.1916 529.957 30.0901 530.028 30.1292C530.131 30.1457 523.456 22.0049 534.095 34.6104C528.734 28.1228 522.148 20.5386 526.235 25.5175C524.756 23.1996 515.407 14.9546 514.384 14.9459C513.378 14.3602 513.757 14.4896 512.463 13.8228C511.658 13.5436 509.668 12.134 502.92 10.8954C502.074 10.7961 501.184 10.7241 500.313 10.6853C499.525 10.6111 498.717 10.5602 497.886 10.5338C499.583 10.4844 501.254 10.5361 502.928 10.709C501.027 10.4586 499.242 10.3595 497.481 10.3557C493.226 10.3422 489.562 10.969 486.795 11.8767C483.417 12.8951 481.896 13.7249 483.259 13.0404C482.271 13.4511 481.328 13.8941 480.381 14.3886C479.779 14.7386 479.201 15.0976 478.618 15.48ZM692.163 45.5225C689.273 46.8423 688.182 47.1613 688.664 47.0509C691.333 46.239 693.647 44.77 692.163 45.5225ZM460.916 32.5003C463.32 29.7107 465.746 26.8858 468.38 24.2235C468.348 24.1922 468.316 24.161 468.283 24.1298C465.677 26.8279 463.286 29.6818 460.916 32.5003ZM716.715 22.6077C716.983 22.388 717.252 22.1701 717.522 21.9543C720.357 18.9794 723.765 16.5821 725.494 15.4576C725.866 15.2095 725.07 15.6419 724.361 16.1226C723.785 16.2725 717.108 22 716.715 22.6077ZM856.434 12.3767C854.957 12.9362 853.534 13.604 852.165 14.3592C852.224 14.2852 852.283 14.2113 852.342 14.1376C853.025 13.772 853.721 13.4279 854.432 13.1077C855.089 12.8429 855.756 12.5987 856.434 12.3767ZM841.778 22.041C839.781 23.9034 837.893 25.8558 836.052 27.8271C843.191 20.3617 837.231 26.4081 841.703 21.9607C841.728 21.9874 841.753 22.0142 841.778 22.041ZM822.82 41.3455C823.052 41.1183 823.274 40.8962 823.5 40.6669C825.458 38.9406 827.319 37.058 829.14 35.1289C827.927 36.3004 826.708 37.4406 825.459 38.5367C824.766 39.2038 824.066 39.8539 823.351 40.4843C823.176 40.7736 823.004 41.0566 822.82 41.3455ZM400.251 21.0841C399.022 19.9726 394.232 16.6904 394.392 16.8957C396.408 18.2302 398.313 19.6931 400.141 21.2332C400.178 21.2055 400.215 21.1777 400.252 21.15C400.499 21.3817 400.744 21.6149 400.987 21.8494C402.037 22.7119 403.061 23.5962 404.069 24.4965C404.544 24.9853 405.014 25.4774 405.48 25.9717C406.006 26.407 406.53 26.8465 407.049 27.2871C402.406 22.7392 402.421 23.0231 401.408 22.1172C400.882 21.6681 400.562 21.3679 400.381 21.2006C400.338 21.1617 400.294 21.1229 400.251 21.0841ZM462.346 30.3679C457.366 36.2304 454.707 39.6868 450.535 42.9817C453.869 41.8052 467.372 22.8371 474.755 18.2042C475.429 17.6503 476.118 17.1153 476.831 16.5982C473.037 19.2045 470.745 21.3823 469.158 22.911C467.914 24.145 468.079 24.0469 467.983 24.1407C467.979 24.1452 467.975 24.1497 467.97 24.1543C465.148 27.1036 464.334 28.0584 462.346 30.3679ZM720.896 18.5305C719.205 19.8435 716.579 22.4282 716.612 22.5184C718.076 21.0921 719.598 19.7033 721.206 18.3985C720.868 18.6545 721.18 18.305 720.896 18.5305ZM820.327 43.0469C819.1 43.9957 815.986 45.7726 817.364 45.0656C817.637 44.9785 820.611 42.9327 818.913 44.2139C821.819 42.2041 821.029 42.5137 820.327 43.0469ZM573.996 45.839C575.178 45.3458 576.301 44.7705 577.392 44.0966C577.627 43.9144 577.854 43.7315 578.083 43.5408C576.811 44.4316 575.44 45.2039 573.996 45.839ZM737.097 10.4969C738.9 10.3418 742 9.95656 745.367 10.4613C745.51 10.482 745.654 10.5039 745.797 10.5271C747.1 10.6913 748.354 10.9079 749.635 11.1922C749.638 11.1928 749.641 11.1935 749.644 11.1942C749.688 11.1608 749.731 11.1275 749.775 11.0942C748.311 10.7656 746.88 10.5238 745.38 10.3504C742.613 10.0314 739.838 10.0569 737.097 10.4969ZM503.965 10.9335C504.845 11.108 505.658 11.3034 506.523 11.5474C508.048 11.9197 509.548 12.4092 510.984 13.004C510.219 12.6566 509.434 12.3379 508.619 12.0474C507.114 11.563 505.542 11.1892 503.965 10.9335ZM759.399 14.5201C755.292 12.5763 753.645 12.0862 758.952 14.4275C761.133 15.5133 763.575 16.7775 759.399 14.5201ZM328.877 41.61C330.015 40.7236 331.113 39.7725 332.18 38.7801C332.522 38.4178 332.862 38.0499 333.194 37.6811C331.811 39.0728 330.382 40.3976 328.877 41.61ZM834.831 28.7486C834.732 28.8975 834.633 29.0463 834.534 29.1951C833.623 30.1787 832.722 31.161 831.815 32.1426C832.021 31.8766 832.228 31.609 832.433 31.3426C833.227 30.4819 834.027 29.6122 834.831 28.7486ZM336.009 34.8615C336.814 34.0017 337.616 33.1209 338.411 32.2375C338.934 31.6305 339.455 31.0219 339.977 30.4108C339.226 31.2394 338.475 32.0674 337.723 32.884C337.155 33.5482 336.582 34.2114 336.009 34.8615ZM791.109 41.44C789.824 40.4507 784.892 36.0923 789.289 40.0614C792.162 42.4867 791.301 41.5771 791.109 41.44ZM798.423 45.9742C793.147 42.9415 796.72 46.4249 803.759 47.6392C800.256 47.0121 799.077 46.2665 798.645 46.1121C798.221 45.9101 798.583 46.0468 798.423 45.9742ZM842.171 20.9999C842.294 20.8912 842.421 20.8255 843.418 19.9561C846.95 16.7625 852.474 13.3598 855.818 12.2199C858.154 11.313 862.16 10.1782 866.749 10.1982C878.018 9.61867 888.901 18.7422 890.137 20.0507C890.581 20.4687 889.461 19.6228 889.646 19.7878C890.217 20.2434 893.308 23.032 892.695 22.5604C889.728 19.7696 886.541 17.1273 882.944 15.0009C883.849 15.4838 884.731 15.9994 885.597 16.545C876.715 11.1178 879.451 13.2194 876.695 12.0655C875.03 11.45 873.298 10.9745 871.532 10.6593C869.949 10.4261 868.369 10.3204 866.749 10.3355C864.431 10.3585 862.182 10.6286 859.936 11.1668C860.785 10.9426 861.66 10.7536 862.52 10.6063C856.752 11.6225 858.361 11.4665 855.371 12.5662C855.355 12.5425 855.338 12.5189 855.322 12.4953C850.174 14.8003 849.401 15.6229 848.352 16.2392C846.331 17.683 843.8 19.6713 837.165 26.1289C834.611 29.0673 834.457 28.7932 833.04 30.5783C828.553 35.3022 836.763 26.0511 841.201 21.9365C841.203 21.9344 841.205 21.9322 841.208 21.93C841.54 21.6215 840.988 22.085 842.171 20.9999ZM818.53 44.2361C820.043 43.1204 817.771 44.7446 815.452 45.8242C813.141 46.9247 810.806 47.4788 813.119 46.9296C813.794 46.7131 814.464 46.4591 815.119 46.1743C816.3 45.6214 817.441 44.9628 818.537 44.2313C818.535 44.2329 818.533 44.2345 818.53 44.2361ZM696.829 42.1482C691.204 46.1374 689.586 46.1221 690.397 45.9579C691.158 45.6963 693.938 44.336 695.823 42.9404C696.579 42.4001 696.974 42.0677 696.829 42.1482ZM455.122 38.5055C454.993 38.6678 454.864 38.8291 454.734 38.9892C457.988 35.6101 463.995 28.3337 463.875 28.3914C460.908 31.8124 458.12 35.3154 455.122 38.5055ZM483.901 12.5877C482.833 12.9087 478.842 14.9485 479.359 14.7601C481.061 13.8417 482.853 13.0478 484.676 12.417C485.519 12.0887 486.381 11.7916 487.239 11.5315C486.035 11.8443 484.164 12.4765 483.901 12.5877Z" fill="#F4A910"/>
</g>
<path d="M159.556 106.016L164.358 101.214L169.16 106.016" stroke="white" stroke-width="1.37201" stroke-linecap="round" stroke-linejoin="round"/>
</svg>
