<svg width="393" height="700" viewBox="0 0 393 700" fill="none" xmlns="http://www.w3.org/2000/svg">
<g clip-path="url(#clip0_121_139)">
<path d="M518.517 749.284C544.758 751.391 544.63 724 554.702 724L518.517 345.284C492.276 343.177 494.27 320 475.565 320C456.86 320 456.646 345.284 439.38 345.284C422.114 345.284 415.133 320 396.428 320C377.723 320 380.387 345.284 363.121 345.284C345.855 345.284 339.216 322.107 320.511 322.107C301.806 322.107 298.373 345.284 283.984 345.284C269.596 345.284 262.957 322.107 242.813 322.107C222.669 322.107 227.869 345.284 206.286 345.284C184.703 345.284 186.698 322.107 166.554 322.107C146.41 322.107 148.732 345.284 131.466 345.284C114.2 345.284 105.78 320 87.4171 322.107C69.0539 324.214 66.7176 345.284 52.3291 345.284C37.9405 345.284 28.4242 322.107 11.158 322.107C-6.10823 322.107 -8.10276 345.284 -23.9301 345.284C-39.7575 345.284 -55.0292 322.107 -65.1012 322.107L-65.1011 726.107C-55.0291 726.107 -39.7574 749.284 -23.93 749.284C-8.10263 749.284 -6.10817 726.107 11.1581 726.107C28.4243 726.107 37.9406 749.284 52.3291 749.284C66.7176 749.284 69.054 728.214 87.4171 726.107C105.78 724 114.2 749.284 131.466 749.284C148.732 749.284 146.41 726.107 166.554 726.107C186.698 726.107 184.703 749.284 206.286 749.284C227.869 749.284 222.669 726.107 242.813 726.107C262.957 726.107 269.595 749.284 283.984 749.284C298.373 749.284 301.806 726.107 320.511 726.107C339.216 726.107 345.855 749.284 363.121 749.284C380.387 749.284 377.723 724 396.428 724C415.133 724 422.114 749.284 439.38 749.284C456.646 749.284 456.86 724 475.565 724C494.27 724 492.276 747.177 518.517 749.284Z" fill="#A89074"/>
<path d="M421.513 507.319C452.07 594.204 391.216 992.796 170.526 1070.42C-50.1628 1148.03 -347.117 875.289 -377.673 788.404C-408.229 701.519 -254.096 568.162 -33.4068 490.542C187.282 412.923 390.957 420.434 421.513 507.319Z" fill="black"/>
<path d="M93.233 553.932C93.6156 550.585 94.5339 547.289 96.0388 544.07C97.5438 540.852 99.4058 538.148 101.651 535.908C103.206 534.466 105.018 533.925 107.058 534.234C109.099 534.569 110.629 535.651 111.624 537.479C114.787 542.963 115.731 548.757 114.455 554.859C113.869 557.125 113.741 558.876 114.022 560.138C114.226 561.245 114.787 562.275 115.731 563.253C116.649 564.232 117.159 565.056 117.21 565.7C117.44 567.219 116.981 568.275 115.858 568.867C114.736 569.485 113.41 569.33 111.879 568.429C111.088 567.991 110.502 567.785 110.17 567.863C109.838 567.94 109.379 568.326 108.793 569.021C106.88 571.364 104.839 572.678 102.696 572.961C99.1763 573.45 96.498 571.545 94.6614 567.245C92.7994 562.944 92.3402 558.49 93.2585 553.907L93.233 553.932ZM103.334 565.133C105.553 563.099 107.109 559.288 108.027 553.752C108.869 549.169 108.589 545.615 107.16 543.066C106.727 542.371 106.242 542.011 105.706 541.959C105.171 541.908 104.635 542.242 104.125 542.938C101.957 546.156 100.503 549.89 99.763 554.087C98.8192 559.056 99.1508 562.713 100.783 565.082C101.548 566.009 102.416 566.034 103.36 565.133H103.334Z" fill="white"/>
<path d="M131.469 560.91C130.04 562.713 128.382 563.64 126.52 563.743C124.658 563.82 122.924 563.048 121.342 561.4C118.766 558.207 117.618 554.113 117.924 549.117C118.23 544.122 119.659 539.539 122.209 535.419C123.077 534.054 124.097 532.921 125.27 531.994C126.954 530.913 128.535 530.99 130.066 532.2C130.703 532.792 131.418 533.153 132.208 533.333C133.458 533.745 134.479 534.801 135.218 536.526C135.958 538.251 136.366 540.079 136.417 542.011C136.417 550.508 134.759 556.816 131.469 560.91ZM126.367 556.945C127.387 556.919 128.28 555.632 129.071 553.134C129.862 550.637 130.295 547.881 130.423 544.92C130.525 541.959 130.295 539.873 129.683 538.689C128.892 537.376 127.923 537.608 126.75 539.333C124.046 544.302 123.102 549.014 123.969 553.52C124.403 555.864 125.219 557.022 126.393 556.945H126.367Z" fill="white"/>
<path d="M151.238 564.258C148.534 565.906 145.907 566.06 143.279 564.721C140.678 563.382 139.096 561.039 138.56 557.666C137.948 553.623 138.356 548.68 139.785 542.86C141.213 537.041 143.075 532.947 145.422 530.604C148.024 527.874 150.804 527.643 153.814 529.883C154.885 530.758 155.727 531.788 156.288 532.973C156.849 534.157 157.028 535.213 156.773 536.14C156.492 537.17 155.855 537.813 154.86 538.097C153.865 538.38 152.972 538.148 152.207 537.427C151.952 537.144 151.62 536.732 151.263 536.191C150.906 535.651 150.472 535.316 150.039 535.239C148.432 535.239 146.952 538.2 145.575 544.173C144.223 550.147 143.892 554.473 144.606 557.151C144.886 558.387 145.498 559.134 146.391 559.365C147.284 559.597 148.202 559.262 149.095 558.31C149.529 557.795 150.243 556.739 151.238 555.168C152.233 553.598 152.845 552.696 153.074 552.49C153.737 551.975 154.452 551.769 155.217 551.872C155.982 551.975 156.594 552.336 157.028 552.954C158.023 554.216 157.742 556.121 156.212 558.67C154.681 561.219 153.023 563.047 151.263 564.206L151.238 564.258Z" fill="white"/>
<path d="M160.701 554.319C161.262 551.332 161.849 547.212 162.461 541.959L163.303 534.08C163.762 532.252 164.731 531.402 166.185 531.505C168.073 531.505 168.966 533.153 168.889 536.423C168.889 537.736 168.762 539.152 168.608 540.697C168.455 542.242 168.277 543.555 168.149 544.637C167.996 545.718 167.792 547.135 167.512 548.911C167.231 550.688 167.027 552.027 166.874 552.98C166.211 557.717 165.701 560.447 165.369 561.219C164.833 562.687 163.941 563.305 162.665 563.125C160.599 562.97 159.808 561.013 160.267 557.254C160.318 556.971 160.472 555.992 160.676 554.344L160.701 554.319Z" fill="white"/>
<path d="M175.189 553.52C173.658 553.443 172.766 552.593 172.46 550.971C172.357 550.405 172.46 548.808 172.715 546.182C172.995 543.556 173.327 541.135 173.709 538.895C173.811 538.071 173.99 536.835 174.22 535.213C174.449 533.591 174.628 532.38 174.781 531.531C174.908 530.681 175.112 529.625 175.342 528.338C175.571 527.05 175.801 526.046 176.005 525.325C176.209 524.604 176.464 523.858 176.745 523.111C177.025 522.364 177.357 521.798 177.714 521.411C178.071 521.051 178.479 520.819 178.938 520.716C179.959 520.407 180.903 520.665 181.821 521.463C183.147 522.57 184.882 525.763 187.024 531.093L188.274 533.848C188.861 534.93 189.448 535.419 190.085 535.29C190.187 535.29 190.289 535.239 190.391 535.187C190.493 535.136 190.57 535.058 190.672 534.93C190.749 534.801 190.825 534.698 190.851 534.621C190.876 534.543 190.927 534.389 191.004 534.183C191.08 533.977 191.131 533.797 191.182 533.616C191.233 533.436 191.284 533.204 191.335 532.895C191.386 532.586 191.437 532.329 191.463 532.097C191.488 531.866 191.539 531.557 191.59 531.145C191.641 530.733 191.692 530.372 191.743 530.089C192.687 524.064 193.656 520.459 194.6 519.3C195.085 518.785 195.672 518.45 196.335 518.322C196.998 518.193 197.687 518.322 198.35 518.785C199.013 519.223 199.421 519.866 199.523 520.716C199.6 521.128 199.523 521.798 199.345 522.699C198.197 526.613 196.998 532.767 195.748 541.161C195.263 544.508 194.906 546.774 194.702 547.933C194.422 549.298 193.707 550.07 192.585 550.302C191.386 550.534 190.264 550.147 189.244 549.169C188.912 548.86 188.606 548.499 188.325 548.087C188.045 547.675 187.713 547.083 187.33 546.285C186.973 545.487 186.616 544.714 186.285 543.916C185.953 543.144 185.417 541.908 184.652 540.208C183.912 538.509 183.173 536.861 182.433 535.264C182.127 534.775 181.719 534.569 181.234 534.646C180.724 534.724 180.418 535.007 180.316 535.522C179.449 538.818 178.709 543.633 178.122 549.916C177.893 552.387 176.898 553.598 175.189 553.495V553.52Z" fill="white"/>
<path d="M216.639 553.546C216.333 553.546 216.053 553.546 215.823 553.495C215.594 553.469 215.389 553.366 215.185 553.263C214.981 553.134 214.803 553.031 214.675 552.902C214.548 552.799 214.42 552.593 214.293 552.336C214.165 552.053 214.063 551.847 214.012 551.692C213.961 551.538 213.884 551.28 213.782 550.894C213.68 550.508 213.604 550.225 213.578 550.044L213.374 549.014L213.17 547.959C213.043 546.748 212.405 546.182 211.257 546.311L206.232 547.032C205.467 547.186 204.88 547.753 204.472 548.757C202.942 552.619 201.998 554.808 201.615 555.323C200.672 556.327 199.575 556.533 198.274 555.967C196.539 555.271 196.208 553.572 197.304 550.868L201.743 538.638C202.763 535.779 204.268 532.406 206.283 528.467C208.298 524.527 209.88 522.055 211.028 521.025C212.124 520.047 213.247 519.712 214.42 519.995C215.568 520.278 216.384 521.102 216.843 522.416C217.328 523.883 217.915 528.595 218.527 536.5C219.165 544.405 219.42 549.246 219.267 551.023C219.19 551.744 218.91 552.336 218.45 552.799C217.966 553.263 217.354 553.52 216.614 553.546H216.639ZM210.824 540.311C212.073 540.079 212.66 539.358 212.584 538.174C212.482 536.191 212.38 534.904 212.252 534.337C212.124 533.771 211.895 533.462 211.512 533.436C210.671 533.23 209.803 534.08 208.91 536.037C208.018 537.994 207.839 539.307 208.4 539.951C208.706 540.44 209.497 540.543 210.798 540.311H210.824Z" fill="white"/>
<path d="M227.812 547.547C227.505 547.598 227.225 547.65 226.97 547.65C226.715 547.65 226.485 547.624 226.281 547.521C226.077 547.418 225.898 547.341 225.72 547.238C225.541 547.135 225.388 546.954 225.235 546.697C225.082 546.439 224.98 546.233 224.878 546.105C224.802 545.976 224.7 545.693 224.598 545.332C224.496 544.972 224.394 544.688 224.343 544.534C224.292 544.379 224.215 544.096 224.113 543.658C224.011 543.221 223.934 542.912 223.858 542.783C222.787 538.354 221.817 531.634 220.976 522.596C220.72 519.789 221.792 517.601 224.189 515.978C226.587 514.382 229.214 513.712 232.122 513.97C234.75 513.893 236.79 514.639 238.27 516.21C239.749 517.781 240.234 519.763 239.698 522.184C239.596 522.802 239.418 523.343 239.214 523.858C239.009 524.372 238.805 524.759 238.601 525.068C238.397 525.377 238.066 525.84 237.556 526.484C237.071 527.128 236.663 527.643 236.357 528.029C235.413 529.291 235.77 530.166 237.402 530.629C240.157 531.247 243.065 532.071 246.152 533.127C248.957 534.054 250.539 535.187 250.871 536.552C251.304 537.916 251.049 538.921 250.08 539.539C249.11 540.157 247.81 540.182 246.177 539.59C244.494 538.869 241.79 537.968 238.066 536.938C234.342 535.908 231.842 535.316 230.541 535.161C229.903 535.11 229.393 535.264 229.01 535.599C228.628 535.934 228.526 536.397 228.679 536.964C228.679 537.17 228.832 537.736 229.036 538.663C229.24 539.59 229.393 540.208 229.444 540.594C229.495 540.981 229.597 541.573 229.725 542.397C229.852 543.221 229.903 543.839 229.827 544.276C229.75 544.714 229.674 545.178 229.572 545.744C229.47 546.285 229.266 546.723 228.934 547.006C228.628 547.289 228.22 547.495 227.761 547.624L227.812 547.547ZM227.786 526.201C228.551 526.767 229.827 526.175 231.612 524.424C233.321 522.931 233.908 521.72 233.398 520.768C232.913 519.866 231.74 519.635 229.878 520.047C228.041 520.459 227.097 521.128 227.021 522.055C226.842 524.295 227.072 525.66 227.786 526.201Z" fill="white"/>
<path d="M87.9528 616.271C85.249 617.919 82.6217 618.073 79.9944 616.734C77.3926 615.395 75.8111 613.052 75.2755 609.679C74.6633 605.636 75.0714 600.692 76.4999 594.873C77.9283 589.054 79.7903 584.96 82.1371 582.617C84.7388 579.887 87.5192 579.656 90.5291 581.896C91.6004 582.771 92.4422 583.801 93.0033 584.986C93.5645 586.17 93.743 587.226 93.488 588.153C93.2074 589.183 92.5697 589.826 91.5749 590.11C90.5801 590.393 89.6873 590.161 88.9221 589.44C88.667 589.157 88.3354 588.745 87.9783 588.204C87.6212 587.663 87.1876 587.329 86.7539 587.251C85.147 587.251 83.6675 590.213 82.2901 596.186C80.9382 602.16 80.6066 606.486 81.3208 609.164C81.6014 610.4 82.2136 611.147 83.1063 611.378C83.9991 611.61 84.9174 611.275 85.8102 610.323C86.2438 609.808 86.958 608.752 87.9528 607.181C88.9476 605.611 89.5598 604.709 89.7894 604.503C90.4526 603.988 91.1668 603.782 91.932 603.885C92.6972 603.988 93.3094 604.349 93.743 604.967C94.7378 606.228 94.4573 608.134 92.9268 610.683C91.3963 613.232 89.7383 615.06 87.9783 616.219L87.9528 616.271Z" fill="white"/>
<path d="M109.788 613.464C108.359 615.266 106.701 616.193 104.839 616.296C102.977 616.373 101.242 615.601 99.661 613.953C97.0847 610.76 95.9368 606.666 96.2429 601.671C96.549 596.65 97.9775 592.092 100.528 587.972C101.395 586.608 102.416 585.475 103.589 584.548C105.273 583.466 106.854 583.544 108.385 584.754C109.022 585.346 109.737 585.706 110.527 585.887C111.777 586.299 112.797 587.354 113.537 589.08C114.277 590.805 114.685 592.633 114.736 594.564C114.736 603.061 113.078 609.37 109.788 613.464ZM104.686 609.499C105.706 609.473 106.599 608.185 107.39 605.688C108.181 603.19 108.614 600.435 108.742 597.474C108.844 594.513 108.614 592.427 108.002 591.242C107.211 589.929 106.242 590.161 105.069 591.886C102.365 596.856 101.421 601.568 102.288 606.074C102.722 608.417 103.538 609.576 104.711 609.499H104.686Z" fill="white"/>
<path d="M119.659 609.55C118.128 609.473 117.236 608.623 116.929 607.001C116.827 606.435 116.929 604.838 117.185 602.212C117.465 599.585 117.797 597.165 118.179 594.925C118.281 594.101 118.46 592.865 118.69 591.243C118.919 589.62 119.098 588.41 119.251 587.561C119.378 586.711 119.582 585.655 119.812 584.368C120.041 583.08 120.271 582.076 120.475 581.355C120.679 580.634 120.934 579.887 121.215 579.141C121.495 578.394 121.827 577.827 122.184 577.441C122.541 577.081 122.949 576.849 123.408 576.746C124.429 576.437 125.373 576.694 126.291 577.493C127.617 578.6 129.352 581.793 131.494 587.123L132.744 589.878C133.331 590.959 133.918 591.449 134.555 591.32C134.657 591.32 134.759 591.268 134.861 591.217C134.963 591.165 135.04 591.088 135.142 590.959C135.218 590.831 135.295 590.728 135.321 590.65C135.346 590.573 135.397 590.419 135.474 590.213C135.55 590.007 135.601 589.826 135.652 589.646C135.703 589.466 135.754 589.234 135.805 588.925C135.856 588.616 135.907 588.359 135.933 588.127C135.958 587.895 136.009 587.586 136.06 587.174C136.111 586.762 136.162 586.402 136.213 586.119C137.157 580.093 138.126 576.488 139.07 575.33C139.555 574.815 140.141 574.48 140.805 574.351C141.468 574.223 142.157 574.351 142.82 574.815C143.483 575.253 143.891 575.896 143.993 576.746C144.07 577.158 143.993 577.827 143.815 578.729C142.667 582.642 141.468 588.797 140.218 597.191C139.733 600.538 139.376 602.804 139.172 603.963C138.892 605.327 138.177 606.1 137.055 606.332C135.856 606.563 134.734 606.177 133.714 605.199C133.382 604.89 133.076 604.529 132.795 604.117C132.515 603.705 132.183 603.113 131.8 602.315C131.443 601.517 131.086 600.744 130.755 599.946C130.423 599.173 129.887 597.937 129.122 596.238C128.382 594.539 127.643 592.891 126.903 591.294C126.597 590.805 126.189 590.599 125.704 590.676C125.194 590.753 124.888 591.037 124.786 591.552C123.919 594.848 123.179 599.663 122.592 605.945C122.363 608.417 121.368 609.627 119.659 609.524V609.55Z" fill="white"/>
<path d="M284.821 621.652C283.061 627.472 280.459 632.75 276.99 637.436C273.521 642.148 269.312 646.165 264.313 649.487C259.313 652.834 253.829 655.28 247.886 656.877C248.064 659.297 248.753 661.409 249.901 663.288C251.074 665.142 252.554 666.636 254.416 667.743C256.252 668.85 258.293 669.648 260.563 670.112C262.808 670.575 265.078 670.73 267.374 670.55C269.032 670.421 270.613 670.163 272.169 669.803C273.7 669.442 275.358 668.824 277.143 667.949L277.908 669.005C275.409 671.065 272.45 672.918 269.083 674.541C265.69 676.163 261.813 677.141 257.426 677.502C253.855 677.785 250.462 677.656 247.299 677.141C244.111 676.601 241.254 675.596 238.678 674.129C236.127 672.661 233.959 670.627 232.173 668.026C230.388 665.426 229.138 662.284 228.398 658.628C222.71 657.881 217.277 656.233 212.099 653.71C206.92 651.186 202.304 647.942 198.248 643.925C194.192 639.934 190.876 635.222 188.274 629.84C185.673 624.459 184.117 618.485 183.606 611.919C182.382 596.289 187.305 582.849 198.426 571.622C202.967 567.064 208.145 563.537 213.986 561.013C219.827 558.49 226.051 556.971 232.658 556.43C240.438 555.812 247.554 556.636 253.957 558.902C260.359 561.194 265.894 564.49 270.588 568.815C275.256 573.141 278.98 578.265 281.76 584.187C284.54 590.11 286.173 596.418 286.709 603.061C287.219 609.627 286.606 615.833 284.846 621.652H284.821ZM266.149 587.664C264.262 582.05 261.711 577.004 258.446 572.575C255.181 568.146 251.278 564.618 246.738 562.069C242.198 559.494 236.994 558.464 231.127 558.928C225.158 559.417 220.133 561.271 216.001 564.541C211.869 567.811 208.604 571.879 206.155 576.72C203.732 581.587 202.074 586.994 201.207 592.968C200.339 598.942 200.135 604.941 200.62 610.966C201.105 617.275 202.406 623.274 204.472 629.016C206.538 634.758 209.267 639.78 212.66 644.08C216.052 648.38 220.006 651.701 224.521 654.096C229.036 656.491 233.959 657.469 239.29 657.031C245.514 656.542 250.692 654.559 254.798 651.109C258.905 647.659 262.119 643.41 264.44 638.389C266.761 633.368 268.317 627.858 269.083 621.884C269.848 615.91 270.026 610.142 269.593 604.581C269.159 598.942 267.986 593.303 266.124 587.689L266.149 587.664Z" fill="white"/>
<path d="M176.694 588.23C175.98 589.26 174.857 589.878 173.276 590.135C171.694 590.393 170.368 589.929 169.144 588.848C167.919 587.741 167.154 586.221 166.848 584.239C166.465 581.741 167.052 579.063 168.557 576.231C170.062 573.399 172.383 570.721 175.521 568.223L176.77 567.219L177.867 568.609C176.056 570.412 174.781 571.802 173.99 572.806C172.485 574.84 171.822 576.566 172.026 577.982C172.077 578.394 172.23 578.754 172.434 579.115C172.638 579.475 172.893 579.758 173.225 579.99L174.22 580.737C175.265 581.535 176.056 582.205 176.541 582.797C177.025 583.389 177.357 584.187 177.51 585.217C177.663 586.247 177.383 587.226 176.668 588.23H176.694ZM156.033 590.959C154.757 589.955 153.941 588.359 153.609 586.118C153.15 583.106 153.89 580.17 155.829 577.261C157.742 574.351 159.884 572.008 162.257 570.18L163.557 569.176L164.654 570.566C163.022 572.137 161.772 573.501 160.905 574.66C159.323 576.772 158.609 578.523 158.838 579.964C158.89 580.376 159.043 580.737 159.247 581.097C159.451 581.458 159.731 581.741 160.037 581.973L161.058 582.72C162.052 583.466 162.818 584.11 163.328 584.702C163.838 585.295 164.17 586.041 164.297 586.917C164.501 588.256 164.195 589.389 163.404 590.341C162.614 591.294 161.491 591.886 160.012 592.118C158.66 592.324 157.334 591.938 156.058 590.934L156.033 590.959Z" fill="white"/>
<path d="M293.009 562.326C293.723 561.297 294.845 560.679 296.427 560.421C298.008 560.164 299.335 560.627 300.559 561.708C301.783 562.816 302.549 564.335 302.855 566.318C303.237 568.815 302.651 571.493 301.146 574.325C299.641 577.158 297.32 579.836 294.182 582.333L292.932 583.338L291.835 581.947C293.646 580.145 294.922 578.754 295.713 577.75C297.218 575.716 297.881 573.991 297.677 572.575C297.626 572.163 297.473 571.802 297.269 571.442C297.065 571.081 296.809 570.798 296.478 570.566L295.483 569.819C294.437 569.021 293.646 568.352 293.162 567.759C292.677 567.167 292.346 566.369 292.193 565.339C292.04 564.309 292.32 563.331 293.034 562.326H293.009ZM313.67 559.597C314.945 560.601 315.762 562.198 316.093 564.438C316.552 567.451 315.813 570.386 313.874 573.296C311.961 576.205 309.818 578.548 307.446 580.376L306.145 581.381L305.048 579.99C306.681 578.42 307.931 577.055 308.798 575.896C310.38 573.785 311.094 572.034 310.864 570.592C310.813 570.18 310.66 569.819 310.456 569.459C310.252 569.098 309.971 568.815 309.665 568.583L308.645 567.837C307.65 567.09 306.885 566.446 306.375 565.854C305.865 565.262 305.533 564.515 305.406 563.64C305.201 562.301 305.508 561.168 306.298 560.215C307.089 559.262 308.211 558.67 309.691 558.438C311.043 558.232 312.369 558.619 313.645 559.623L313.67 559.597Z" fill="white"/>
<path d="M169.716 526.104C170.039 524.168 169.119 522.398 167.66 522.15C166.201 521.902 164.757 523.27 164.434 525.205C164.111 527.141 165.032 528.911 166.491 529.158C167.949 529.406 169.394 528.039 169.716 526.104Z" fill="white"/>
<path d="M112.618 520.716C111.598 520.742 110.884 520.278 110.45 519.326C109.915 517.987 109.736 515.618 109.966 512.27L111.675 496.049C111.777 492.882 113.282 490.873 116.215 490.023C119.659 488.942 122.924 489.019 126.01 490.255C128.331 491.182 129.862 492.598 130.576 494.555C131.316 496.486 131.086 498.572 129.887 500.812C128.841 502.718 127.056 504.494 124.531 506.168C122.005 507.842 119.735 508.872 117.695 509.232C116.802 509.438 116.241 509.773 116.011 510.185C115.781 510.623 115.603 511.55 115.501 512.966C115.475 514.845 115.475 516.365 115.475 517.549C115.552 518.579 115.322 519.351 114.736 519.892C114.174 520.433 113.46 520.716 112.567 520.716H112.618ZM118.511 502.975C121.215 502.022 123.281 500.503 124.684 498.443C125.015 498.031 125.117 497.516 124.99 496.924C124.862 496.332 124.556 495.946 124.122 495.765C122.618 495.147 121.138 494.967 119.659 495.173C118.179 495.379 117.414 495.971 117.312 496.924C117.082 499.036 116.929 500.606 116.853 501.662C116.853 502.125 116.98 502.512 117.312 502.769C117.644 503.052 118.026 503.13 118.46 502.975H118.511Z" fill="white"/>
<path d="M148.024 516.21C147.462 516.21 147.003 516.133 146.646 515.953C146.289 515.798 146.009 515.515 145.855 515.129C145.677 514.743 145.575 514.382 145.498 514.022C145.447 513.661 145.371 513.172 145.294 512.502C145.218 511.833 145.167 511.344 145.09 510.983C144.963 510.339 144.682 509.953 144.197 509.876C143.713 509.773 142.922 509.85 141.774 510.056C138.407 510.674 136.673 512.528 136.622 515.644C136.596 516.313 136.316 516.931 135.754 517.472C135.193 518.013 134.658 518.322 134.122 518.425C133.382 518.553 132.745 518.399 132.183 517.935C131.648 517.472 131.291 516.88 131.163 516.184C130.908 514.743 131.775 510.623 133.79 503.825C137.234 491.491 140.524 485.054 143.713 484.462C146.595 483.947 148.559 486.573 149.58 492.392C149.809 494.272 150.09 498.006 150.396 503.619C150.702 509.232 150.804 512.528 150.676 513.532C150.523 515.258 149.631 516.159 147.998 516.184L148.024 516.21ZM144.606 500.993C144.555 498.933 144.453 497.619 144.351 497.053C144.249 496.486 143.993 496.152 143.56 496.075C142.948 495.869 142.488 496.126 142.157 496.873C140.83 500.323 140.218 502.357 140.32 502.949C140.448 503.645 141.035 503.902 142.08 503.722C142.769 503.593 143.381 503.284 143.917 502.769C144.453 502.254 144.657 501.688 144.606 501.018V500.993Z" fill="white"/>
<path d="M157.462 512.631C156.033 512.683 155.089 511.833 154.656 510.03C154.197 508.254 154.12 506.374 154.375 504.417C154.375 504.469 154.375 504.005 154.375 503.052C154.375 502.1 154.401 500.864 154.452 499.345C154.477 497.851 154.528 496.255 154.554 494.633C154.605 492.985 154.63 491.44 154.656 489.998C154.656 488.556 154.707 487.474 154.732 486.805C154.809 485.234 155.191 484.05 155.906 483.226C156.594 482.402 157.717 481.861 159.273 481.629C163.583 481.114 167.231 482.35 170.164 485.389C173.072 488.17 173.276 491.208 170.802 494.504L170.19 495.328C169.501 496.074 169.093 496.641 168.965 497.027C168.838 497.413 168.914 497.748 169.246 498.031C169.578 498.315 170.215 498.624 171.134 498.958C171.338 499.01 171.95 499.242 172.945 499.602C173.939 499.963 174.654 500.246 175.087 500.4C178.633 501.662 180.954 502.64 182 503.336C183.046 504.031 183.301 505.035 182.765 506.374C182.025 507.996 180.316 508.357 177.638 507.378L164.145 502.383C162.333 501.688 161.186 501.482 160.727 501.765C160.318 502.048 160.063 503.233 159.987 505.318C159.987 505.833 159.987 506.4 159.987 506.992C159.987 507.584 159.987 508.048 159.987 508.382C159.987 508.717 159.987 509.103 159.961 509.515C159.936 509.927 159.91 510.236 159.91 510.468C159.91 510.7 159.859 510.906 159.808 511.189C159.757 511.447 159.681 511.653 159.604 511.781C159.528 511.91 159.426 512.039 159.298 512.193C159.171 512.348 159.017 512.451 158.839 512.477C158.66 512.502 158.456 512.554 158.252 512.58C158.023 512.631 157.768 512.631 157.462 512.631ZM162.18 493.912C162.971 493.757 163.915 493.242 164.986 492.341C166.058 491.44 166.517 490.641 166.389 489.946C166.287 489.354 165.675 488.71 164.553 488.067C163.43 487.423 162.512 487.165 161.772 487.294C160.982 487.5 160.522 488.582 160.369 490.59C160.191 493.062 160.803 494.169 162.18 493.912Z" fill="white"/>
<path d="M199.549 506.812C198.988 506.812 198.529 506.735 198.172 506.554C197.814 506.4 197.534 506.117 197.381 505.73C197.202 505.344 197.1 504.984 197.024 504.623C196.973 504.263 196.896 503.773 196.82 503.104C196.743 502.434 196.692 501.945 196.616 501.585C196.488 500.941 196.207 500.555 195.723 500.478C195.238 500.375 194.447 500.452 193.3 500.658C189.933 501.276 188.198 503.13 188.147 506.245C188.121 506.915 187.815 507.533 187.28 508.073C186.744 508.614 186.183 508.923 185.647 509.026C184.908 509.155 184.27 509 183.709 508.537C183.173 508.073 182.841 507.481 182.714 506.786C182.459 505.344 183.326 501.224 185.341 494.427C188.785 482.093 192.075 475.656 195.264 475.063C198.146 474.548 200.11 477.175 201.13 482.994C201.36 484.874 201.641 488.607 201.947 494.221C202.253 499.834 202.355 503.13 202.227 504.134C202.074 505.859 201.181 506.76 199.549 506.786V506.812ZM196.131 491.594C196.08 489.534 195.978 488.221 195.876 487.655C195.774 487.088 195.519 486.753 195.085 486.676C194.473 486.47 194.014 486.728 193.682 487.474C192.356 490.925 191.744 492.959 191.846 493.551C191.973 494.246 192.56 494.504 193.606 494.324C194.294 494.195 194.907 493.886 195.442 493.371C195.978 492.856 196.182 492.289 196.131 491.62V491.594Z" fill="white"/>
</g>
<defs>
<clipPath id="clip0_121_139">
<rect width="393" height="700" fill="white"/>
</clipPath>
</defs>
</svg>
