<svg width="392" height="40" viewBox="0 0 392 40" fill="none" xmlns="http://www.w3.org/2000/svg">
<g clip-path="url(#clip0_90_10)">
<path d="M-21.0824 0.0919189C-41.9223 -1.58295 -45.3956 20.1901 -53.5 20.1901V854.502H445.5V18.5153C437.396 18.5153 428.133 0.0919189 415.398 0.0919189C402.662 0.0919189 398.031 18.5153 384.138 18.5153C370.245 18.5153 365.614 0.0919189 354.036 0.0919189C342.458 0.0919189 337.827 16.8404 322.776 18.5153C307.725 20.1901 304.252 0.0919189 290.358 0.0919189C276.465 0.0919189 275.307 18.5153 259.099 18.5153C242.89 18.5153 247.521 0.0919189 230.154 0.0919189C212.788 0.0919189 213.945 18.5153 197.737 18.5153C181.528 18.5153 179.212 0.0919189 167.635 0.0919189C156.057 0.0919189 150.268 18.5153 135.217 18.5153C120.166 18.5153 117.85 0.0919189 103.957 0.0919189C90.0638 0.0919189 88.906 20.1901 73.855 20.1901C58.8039 20.1901 56.4884 0.0919189 42.5951 0.0919189C28.7019 0.0919189 25.2285 20.1901 10.1775 20.1901C-4.87355 20.1901 -0.242455 1.76678 -21.0824 0.0919189Z" fill="#F4A910"/>
</g>
<defs>
<clipPath id="clip0_90_10">
<rect width="392" height="40" fill="white"/>
</clipPath>
</defs>
</svg>
