<svg width="393" height="378" viewBox="0 0 393 378" fill="none" xmlns="http://www.w3.org/2000/svg">
<g clip-path="url(#clip0_4391_11722)">
<rect width="393" height="378" fill="white"/>
<path fill-rule="evenodd" clip-rule="evenodd" d="M504.804 19.1329C534.438 16.711 542 48.1964 542 48.1964V171.5H549.904L542 332.295C541.981 332.391 536.712 358.867 508.882 358.867C481.001 358.867 484.186 332.295 464.43 332.295C444.673 332.295 438.088 358.867 421.624 358.867C405.16 358.867 398.575 334.711 377.172 332.295C355.769 329.879 350.83 358.867 331.073 358.867C311.317 358.867 309.669 332.295 286.62 332.295C263.571 332.295 270.157 358.867 245.461 358.867C220.765 358.867 222.412 332.295 199.362 332.295C176.313 332.295 173.02 358.867 156.557 358.867C140.093 358.867 131.861 332.295 110.458 332.295C89.0551 332.295 85.7623 358.867 66.0059 358.867C46.2494 358.867 44.6027 329.879 23.2002 329.879C1.79723 329.879 -1.49634 358.867 -21.2529 358.867C-41.0093 358.867 -45.9487 329.879 -67.3516 329.879C-88.7544 329.879 -82.1689 356.452 -111.804 358.867C-141.421 361.281 -148.991 329.917 -149 329.879L-141.67 182.999H-149V45.7745C-149 45.7745 -143.763 19.1329 -115.882 19.1329C-88.0013 19.1331 -91.1861 45.7745 -71.4297 45.7745C-51.6733 45.7743 -45.0878 19.133 -28.624 19.1329C-12.1603 19.1329 -5.57466 43.3524 15.8281 45.7745C37.231 48.1964 42.1704 19.1331 61.9268 19.1329C81.6832 19.1329 83.3299 45.7742 106.379 45.7745C129.428 45.7745 122.843 19.1329 147.539 19.1329C172.235 19.133 170.588 45.7745 193.638 45.7745C216.687 45.7744 219.98 19.133 236.443 19.1329C252.907 19.1329 261.139 45.7745 282.542 45.7745C303.945 45.7744 307.238 19.133 326.994 19.1329C346.751 19.1329 348.397 48.196 369.8 48.1964C391.203 48.1964 394.496 19.1329 414.253 19.1329C434.009 19.1332 438.949 48.1964 460.352 48.1964C481.754 48.1962 475.169 21.5548 504.804 19.1329Z" fill="black"/>
<path fill-rule="evenodd" clip-rule="evenodd" d="M504.804 19.1329C534.438 16.711 542 48.1964 542 48.1964V171.5H549.904L542 332.295C541.981 332.391 536.712 358.867 508.882 358.867C481.001 358.867 484.186 332.295 464.43 332.295C444.673 332.295 438.088 358.867 421.624 358.867C405.16 358.867 398.575 334.711 377.172 332.295C355.769 329.879 350.83 358.867 331.073 358.867C311.317 358.867 309.669 332.295 286.62 332.295C263.571 332.295 270.157 358.867 245.461 358.867C220.765 358.867 222.412 332.295 199.362 332.295C176.313 332.295 173.02 358.867 156.557 358.867C140.093 358.867 131.861 332.295 110.458 332.295C89.0551 332.295 85.7623 358.867 66.0059 358.867C46.2494 358.867 44.6027 329.879 23.2002 329.879C1.79723 329.879 -1.49634 358.867 -21.2529 358.867C-41.0093 358.867 -45.9487 329.879 -67.3516 329.879C-88.7544 329.879 -82.1689 356.452 -111.804 358.867C-141.421 361.281 -148.991 329.917 -149 329.879L-141.67 182.999H-149V45.7745C-149 45.7745 -143.763 19.1329 -115.882 19.1329C-88.0013 19.1331 -91.1861 45.7745 -71.4297 45.7745C-51.6733 45.7743 -45.0878 19.133 -28.624 19.1329C-12.1603 19.1329 -5.57466 43.3524 15.8281 45.7745C37.231 48.1964 42.1704 19.1331 61.9268 19.1329C81.6832 19.1329 83.3299 45.7742 106.379 45.7745C129.428 45.7745 122.843 19.1329 147.539 19.1329C172.235 19.133 170.588 45.7745 193.638 45.7745C216.687 45.7744 219.98 19.133 236.443 19.1329C252.907 19.1329 261.139 45.7745 282.542 45.7745C303.945 45.7744 307.238 19.133 326.994 19.1329C346.751 19.1329 348.397 48.196 369.8 48.1964C391.203 48.1964 394.496 19.1329 414.253 19.1329C434.009 19.1332 438.949 48.1964 460.352 48.1964C481.754 48.1962 475.169 21.5548 504.804 19.1329Z" fill="black" fill-opacity="0.2"/>
<path fill-rule="evenodd" clip-rule="evenodd" d="M504.804 19.1329C534.438 16.711 542 48.1964 542 48.1964V171.5H549.904L542 332.295C541.981 332.391 536.712 358.867 508.882 358.867C481.001 358.867 484.186 332.295 464.43 332.295C444.673 332.295 438.088 358.867 421.624 358.867C405.16 358.867 398.575 334.711 377.172 332.295C355.769 329.879 350.83 358.867 331.073 358.867C311.317 358.867 309.669 332.295 286.62 332.295C263.571 332.295 270.157 358.867 245.461 358.867C220.765 358.867 222.412 332.295 199.362 332.295C176.313 332.295 173.02 358.867 156.557 358.867C140.093 358.867 131.861 332.295 110.458 332.295C89.0551 332.295 85.7623 358.867 66.0059 358.867C46.2494 358.867 44.6027 329.879 23.2002 329.879C1.79723 329.879 -1.49634 358.867 -21.2529 358.867C-41.0093 358.867 -45.9487 329.879 -67.3516 329.879C-88.7544 329.879 -82.1689 356.452 -111.804 358.867C-141.421 361.281 -148.991 329.917 -149 329.879L-141.67 182.999H-149V45.7745C-149 45.7745 -143.763 19.1329 -115.882 19.1329C-88.0013 19.1331 -91.1861 45.7745 -71.4297 45.7745C-51.6733 45.7743 -45.0878 19.133 -28.624 19.1329C-12.1603 19.1329 -5.57466 43.3524 15.8281 45.7745C37.231 48.1964 42.1704 19.1331 61.9268 19.1329C81.6832 19.1329 83.3299 45.7742 106.379 45.7745C129.428 45.7745 122.843 19.1329 147.539 19.1329C172.235 19.133 170.588 45.7745 193.638 45.7745C216.687 45.7744 219.98 19.133 236.443 19.1329C252.907 19.1329 261.139 45.7745 282.542 45.7745C303.945 45.7744 307.238 19.133 326.994 19.1329C346.751 19.1329 348.397 48.196 369.8 48.1964C391.203 48.1964 394.496 19.1329 414.253 19.1329C434.009 19.1332 438.949 48.1964 460.352 48.1964C481.754 48.1962 475.169 21.5548 504.804 19.1329Z" fill="black" fill-opacity="0.2"/>
<path fill-rule="evenodd" clip-rule="evenodd" d="M504.804 19.1329C534.438 16.711 542 48.1964 542 48.1964V171.5H549.904L542 332.295C541.981 332.391 536.712 358.867 508.882 358.867C481.001 358.867 484.186 332.295 464.43 332.295C444.673 332.295 438.088 358.867 421.624 358.867C405.16 358.867 398.575 334.711 377.172 332.295C355.769 329.879 350.83 358.867 331.073 358.867C311.317 358.867 309.669 332.295 286.62 332.295C263.571 332.295 270.157 358.867 245.461 358.867C220.765 358.867 222.412 332.295 199.362 332.295C176.313 332.295 173.02 358.867 156.557 358.867C140.093 358.867 131.861 332.295 110.458 332.295C89.0551 332.295 85.7623 358.867 66.0059 358.867C46.2494 358.867 44.6027 329.879 23.2002 329.879C1.79723 329.879 -1.49634 358.867 -21.2529 358.867C-41.0093 358.867 -45.9487 329.879 -67.3516 329.879C-88.7544 329.879 -82.1689 356.452 -111.804 358.867C-141.421 361.281 -148.991 329.917 -149 329.879L-141.67 182.999H-149V45.7745C-149 45.7745 -143.763 19.1329 -115.882 19.1329C-88.0013 19.1331 -91.1861 45.7745 -71.4297 45.7745C-51.6733 45.7743 -45.0878 19.133 -28.624 19.1329C-12.1603 19.1329 -5.57466 43.3524 15.8281 45.7745C37.231 48.1964 42.1704 19.1331 61.9268 19.1329C81.6832 19.1329 83.3299 45.7742 106.379 45.7745C129.428 45.7745 122.843 19.1329 147.539 19.1329C172.235 19.133 170.588 45.7745 193.638 45.7745C216.687 45.7744 219.98 19.133 236.443 19.1329C252.907 19.1329 261.139 45.7745 282.542 45.7745C303.945 45.7744 307.238 19.133 326.994 19.1329C346.751 19.1329 348.397 48.196 369.8 48.1964C391.203 48.1964 394.496 19.1329 414.253 19.1329C434.009 19.1332 438.949 48.1964 460.352 48.1964C481.754 48.1962 475.169 21.5548 504.804 19.1329Z" fill="black" fill-opacity="0.2"/>
<path fill-rule="evenodd" clip-rule="evenodd" d="M504.804 19.1329C534.438 16.711 542 48.1964 542 48.1964V171.5H549.904L542 332.295C541.981 332.391 536.712 358.867 508.882 358.867C481.001 358.867 484.186 332.295 464.43 332.295C444.673 332.295 438.088 358.867 421.624 358.867C405.16 358.867 398.575 334.711 377.172 332.295C355.769 329.879 350.83 358.867 331.073 358.867C311.317 358.867 309.669 332.295 286.62 332.295C263.571 332.295 270.157 358.867 245.461 358.867C220.765 358.867 222.412 332.295 199.362 332.295C176.313 332.295 173.02 358.867 156.557 358.867C140.093 358.867 131.861 332.295 110.458 332.295C89.0551 332.295 85.7623 358.867 66.0059 358.867C46.2494 358.867 44.6027 329.879 23.2002 329.879C1.79723 329.879 -1.49634 358.867 -21.2529 358.867C-41.0093 358.867 -45.9487 329.879 -67.3516 329.879C-88.7544 329.879 -82.1689 356.452 -111.804 358.867C-141.421 361.281 -148.991 329.917 -149 329.879L-141.67 182.999H-149V45.7745C-149 45.7745 -143.763 19.1329 -115.882 19.1329C-88.0013 19.1331 -91.1861 45.7745 -71.4297 45.7745C-51.6733 45.7743 -45.0878 19.133 -28.624 19.1329C-12.1603 19.1329 -5.57466 43.3524 15.8281 45.7745C37.231 48.1964 42.1704 19.1331 61.9268 19.1329C81.6832 19.1329 83.3299 45.7742 106.379 45.7745C129.428 45.7745 122.843 19.1329 147.539 19.1329C172.235 19.133 170.588 45.7745 193.638 45.7745C216.687 45.7744 219.98 19.133 236.443 19.1329C252.907 19.1329 261.139 45.7745 282.542 45.7745C303.945 45.7744 307.238 19.133 326.994 19.1329C346.751 19.1329 348.397 48.196 369.8 48.1964C391.203 48.1964 394.496 19.1329 414.253 19.1329C434.009 19.1332 438.949 48.1964 460.352 48.1964C481.754 48.1962 475.169 21.5548 504.804 19.1329Z" fill="black" fill-opacity="0.2"/>
<path fill-rule="evenodd" clip-rule="evenodd" d="M504.804 19.1329C534.438 16.711 542 48.1964 542 48.1964V171.5H549.904L542 332.295C541.981 332.391 536.712 358.867 508.882 358.867C481.001 358.867 484.186 332.295 464.43 332.295C444.673 332.295 438.088 358.867 421.624 358.867C405.16 358.867 398.575 334.711 377.172 332.295C355.769 329.879 350.83 358.867 331.073 358.867C311.317 358.867 309.669 332.295 286.62 332.295C263.571 332.295 270.157 358.867 245.461 358.867C220.765 358.867 222.412 332.295 199.362 332.295C176.313 332.295 173.02 358.867 156.557 358.867C140.093 358.867 131.861 332.295 110.458 332.295C89.0551 332.295 85.7623 358.867 66.0059 358.867C46.2494 358.867 44.6027 329.879 23.2002 329.879C1.79723 329.879 -1.49634 358.867 -21.2529 358.867C-41.0093 358.867 -45.9487 329.879 -67.3516 329.879C-88.7544 329.879 -82.1689 356.452 -111.804 358.867C-141.421 361.281 -148.991 329.917 -149 329.879L-141.67 182.999H-149V45.7745C-149 45.7745 -143.763 19.1329 -115.882 19.1329C-88.0013 19.1331 -91.1861 45.7745 -71.4297 45.7745C-51.6733 45.7743 -45.0878 19.133 -28.624 19.1329C-12.1603 19.1329 -5.57466 43.3524 15.8281 45.7745C37.231 48.1964 42.1704 19.1331 61.9268 19.1329C81.6832 19.1329 83.3299 45.7742 106.379 45.7745C129.428 45.7745 122.843 19.1329 147.539 19.1329C172.235 19.133 170.588 45.7745 193.638 45.7745C216.687 45.7744 219.98 19.133 236.443 19.1329C252.907 19.1329 261.139 45.7745 282.542 45.7745C303.945 45.7744 307.238 19.133 326.994 19.1329C346.751 19.1329 348.397 48.196 369.8 48.1964C391.203 48.1964 394.496 19.1329 414.253 19.1329C434.009 19.1332 438.949 48.1964 460.352 48.1964C481.754 48.1962 475.169 21.5548 504.804 19.1329Z" fill="black" fill-opacity="0.2"/>
</g>
<defs>
<clipPath id="clip0_4391_11722">
<rect width="393" height="378" fill="white"/>
</clipPath>
</defs>
</svg>
