<svg width="1320" height="390" viewBox="0 0 1320 390" fill="none" xmlns="http://www.w3.org/2000/svg">
<path fill-rule="evenodd" clip-rule="evenodd" d="M1248.94 0.253626C1305.5 -4.36432 1319.97 55.6076 1320 55.7224V338.9C1320 338.9 1310 389.747 1256.74 389.747C1203.48 389.747 1209.56 338.9 1171.82 338.9C1134.08 338.9 1121.5 389.747 1090.05 389.747C1058.6 389.747 1046.02 343.523 1005.13 338.9C964.247 334.278 954.812 389.747 917.071 389.747C879.331 389.747 876.186 338.9 832.155 338.9C788.125 338.9 800.705 389.747 753.529 389.747C706.354 389.747 709.498 338.9 665.468 338.9C621.438 338.9 615.147 389.746 583.697 389.747C552.247 389.747 536.521 338.9 495.636 338.9C454.751 338.9 448.46 389.747 410.72 389.747C372.98 389.747 369.834 334.278 328.949 334.278C288.064 334.278 281.773 389.747 244.032 389.747C206.292 389.747 196.857 334.278 155.972 334.278C115.086 334.278 127.666 385.124 71.0557 389.747C14.5145 394.363 0.0355314 334.426 0 334.278V51.1003C0 51.1003 10.0035 0.253794 63.2637 0.253626C116.524 0.253631 110.44 51.1003 148.181 51.1003C185.921 51.0999 198.501 0.253653 229.951 0.253626C261.402 0.253629 273.982 46.4778 314.867 51.1003C355.753 55.7227 365.188 0.253623 402.929 0.253626C440.669 0.253879 443.814 51.1003 487.845 51.1003C531.875 51.1002 519.295 0.253622 566.471 0.253626C613.646 0.253654 610.502 51.1003 654.532 51.1003C698.562 51.1 704.853 0.253784 736.303 0.253626C767.753 0.253629 783.478 51.0999 824.363 51.1003C865.249 51.1003 871.54 0.253623 909.28 0.253626C947.02 0.254051 950.166 55.7222 991.051 55.7224C1031.94 55.7224 1038.23 0.253623 1075.97 0.253626C1113.71 0.254021 1123.14 55.7221 1164.03 55.7224C1204.91 55.7224 1192.33 4.87611 1248.94 0.253626Z" fill="black"/>
<path fill-rule="evenodd" clip-rule="evenodd" d="M1248.94 0.253626C1305.5 -4.36432 1319.97 55.6076 1320 55.7224V338.9C1320 338.9 1310 389.747 1256.74 389.747C1203.48 389.747 1209.56 338.9 1171.82 338.9C1134.08 338.9 1121.5 389.747 1090.05 389.747C1058.6 389.747 1046.02 343.523 1005.13 338.9C964.247 334.278 954.812 389.747 917.071 389.747C879.331 389.747 876.186 338.9 832.155 338.9C788.125 338.9 800.705 389.747 753.529 389.747C706.354 389.747 709.498 338.9 665.468 338.9C621.438 338.9 615.147 389.746 583.697 389.747C552.247 389.747 536.521 338.9 495.636 338.9C454.751 338.9 448.46 389.747 410.72 389.747C372.98 389.747 369.834 334.278 328.949 334.278C288.064 334.278 281.773 389.747 244.032 389.747C206.292 389.747 196.857 334.278 155.972 334.278C115.086 334.278 127.666 385.124 71.0557 389.747C14.5145 394.363 0.0355314 334.426 0 334.278V51.1003C0 51.1003 10.0035 0.253794 63.2637 0.253626C116.524 0.253631 110.44 51.1003 148.181 51.1003C185.921 51.0999 198.501 0.253653 229.951 0.253626C261.402 0.253629 273.982 46.4778 314.867 51.1003C355.753 55.7227 365.188 0.253623 402.929 0.253626C440.669 0.253879 443.814 51.1003 487.845 51.1003C531.875 51.1002 519.295 0.253622 566.471 0.253626C613.646 0.253654 610.502 51.1003 654.532 51.1003C698.562 51.1 704.853 0.253784 736.303 0.253626C767.753 0.253629 783.478 51.0999 824.363 51.1003C865.249 51.1003 871.54 0.253623 909.28 0.253626C947.02 0.254051 950.166 55.7222 991.051 55.7224C1031.94 55.7224 1038.23 0.253623 1075.97 0.253626C1113.71 0.254021 1123.14 55.7221 1164.03 55.7224C1204.91 55.7224 1192.33 4.87611 1248.94 0.253626Z" fill="black" fill-opacity="0.2"/>
<path fill-rule="evenodd" clip-rule="evenodd" d="M1248.94 0.253626C1305.5 -4.36432 1319.97 55.6076 1320 55.7224V338.9C1320 338.9 1310 389.747 1256.74 389.747C1203.48 389.747 1209.56 338.9 1171.82 338.9C1134.08 338.9 1121.5 389.747 1090.05 389.747C1058.6 389.747 1046.02 343.523 1005.13 338.9C964.247 334.278 954.812 389.747 917.071 389.747C879.331 389.747 876.186 338.9 832.155 338.9C788.125 338.9 800.705 389.747 753.529 389.747C706.354 389.747 709.498 338.9 665.468 338.9C621.438 338.9 615.147 389.746 583.697 389.747C552.247 389.747 536.521 338.9 495.636 338.9C454.751 338.9 448.46 389.747 410.72 389.747C372.98 389.747 369.834 334.278 328.949 334.278C288.064 334.278 281.773 389.747 244.032 389.747C206.292 389.747 196.857 334.278 155.972 334.278C115.086 334.278 127.666 385.124 71.0557 389.747C14.5145 394.363 0.0355314 334.426 0 334.278V51.1003C0 51.1003 10.0035 0.253794 63.2637 0.253626C116.524 0.253631 110.44 51.1003 148.181 51.1003C185.921 51.0999 198.501 0.253653 229.951 0.253626C261.402 0.253629 273.982 46.4778 314.867 51.1003C355.753 55.7227 365.188 0.253623 402.929 0.253626C440.669 0.253879 443.814 51.1003 487.845 51.1003C531.875 51.1002 519.295 0.253622 566.471 0.253626C613.646 0.253654 610.502 51.1003 654.532 51.1003C698.562 51.1 704.853 0.253784 736.303 0.253626C767.753 0.253629 783.478 51.0999 824.363 51.1003C865.249 51.1003 871.54 0.253623 909.28 0.253626C947.02 0.254051 950.166 55.7222 991.051 55.7224C1031.94 55.7224 1038.23 0.253623 1075.97 0.253626C1113.71 0.254021 1123.14 55.7221 1164.03 55.7224C1204.91 55.7224 1192.33 4.87611 1248.94 0.253626Z" fill="black" fill-opacity="0.2"/>
<path fill-rule="evenodd" clip-rule="evenodd" d="M1248.94 0.253626C1305.5 -4.36432 1319.97 55.6076 1320 55.7224V338.9C1320 338.9 1310 389.747 1256.74 389.747C1203.48 389.747 1209.56 338.9 1171.82 338.9C1134.08 338.9 1121.5 389.747 1090.05 389.747C1058.6 389.747 1046.02 343.523 1005.13 338.9C964.247 334.278 954.812 389.747 917.071 389.747C879.331 389.747 876.186 338.9 832.155 338.9C788.125 338.9 800.705 389.747 753.529 389.747C706.354 389.747 709.498 338.9 665.468 338.9C621.438 338.9 615.147 389.746 583.697 389.747C552.247 389.747 536.521 338.9 495.636 338.9C454.751 338.9 448.46 389.747 410.72 389.747C372.98 389.747 369.834 334.278 328.949 334.278C288.064 334.278 281.773 389.747 244.032 389.747C206.292 389.747 196.857 334.278 155.972 334.278C115.086 334.278 127.666 385.124 71.0557 389.747C14.5145 394.363 0.0355314 334.426 0 334.278V51.1003C0 51.1003 10.0035 0.253794 63.2637 0.253626C116.524 0.253631 110.44 51.1003 148.181 51.1003C185.921 51.0999 198.501 0.253653 229.951 0.253626C261.402 0.253629 273.982 46.4778 314.867 51.1003C355.753 55.7227 365.188 0.253623 402.929 0.253626C440.669 0.253879 443.814 51.1003 487.845 51.1003C531.875 51.1002 519.295 0.253622 566.471 0.253626C613.646 0.253654 610.502 51.1003 654.532 51.1003C698.562 51.1 704.853 0.253784 736.303 0.253626C767.753 0.253629 783.478 51.0999 824.363 51.1003C865.249 51.1003 871.54 0.253623 909.28 0.253626C947.02 0.254051 950.166 55.7222 991.051 55.7224C1031.94 55.7224 1038.23 0.253623 1075.97 0.253626C1113.71 0.254021 1123.14 55.7221 1164.03 55.7224C1204.91 55.7224 1192.33 4.87611 1248.94 0.253626Z" fill="black" fill-opacity="0.2"/>
<path fill-rule="evenodd" clip-rule="evenodd" d="M1248.94 0.253626C1305.5 -4.36432 1319.97 55.6076 1320 55.7224V338.9C1320 338.9 1310 389.747 1256.74 389.747C1203.48 389.747 1209.56 338.9 1171.82 338.9C1134.08 338.9 1121.5 389.747 1090.05 389.747C1058.6 389.747 1046.02 343.523 1005.13 338.9C964.247 334.278 954.812 389.747 917.071 389.747C879.331 389.747 876.186 338.9 832.155 338.9C788.125 338.9 800.705 389.747 753.529 389.747C706.354 389.747 709.498 338.9 665.468 338.9C621.438 338.9 615.147 389.746 583.697 389.747C552.247 389.747 536.521 338.9 495.636 338.9C454.751 338.9 448.46 389.747 410.72 389.747C372.98 389.747 369.834 334.278 328.949 334.278C288.064 334.278 281.773 389.747 244.032 389.747C206.292 389.747 196.857 334.278 155.972 334.278C115.086 334.278 127.666 385.124 71.0557 389.747C14.5145 394.363 0.0355314 334.426 0 334.278V51.1003C0 51.1003 10.0035 0.253794 63.2637 0.253626C116.524 0.253631 110.44 51.1003 148.181 51.1003C185.921 51.0999 198.501 0.253653 229.951 0.253626C261.402 0.253629 273.982 46.4778 314.867 51.1003C355.753 55.7227 365.188 0.253623 402.929 0.253626C440.669 0.253879 443.814 51.1003 487.845 51.1003C531.875 51.1002 519.295 0.253622 566.471 0.253626C613.646 0.253654 610.502 51.1003 654.532 51.1003C698.562 51.1 704.853 0.253784 736.303 0.253626C767.753 0.253629 783.478 51.0999 824.363 51.1003C865.249 51.1003 871.54 0.253623 909.28 0.253626C947.02 0.254051 950.166 55.7222 991.051 55.7224C1031.94 55.7224 1038.23 0.253623 1075.97 0.253626C1113.71 0.254021 1123.14 55.7221 1164.03 55.7224C1204.91 55.7224 1192.33 4.87611 1248.94 0.253626Z" fill="black" fill-opacity="0.2"/>
<path fill-rule="evenodd" clip-rule="evenodd" d="M1248.94 0.253626C1305.5 -4.36432 1319.97 55.6076 1320 55.7224V338.9C1320 338.9 1310 389.747 1256.74 389.747C1203.48 389.747 1209.56 338.9 1171.82 338.9C1134.08 338.9 1121.5 389.747 1090.05 389.747C1058.6 389.747 1046.02 343.523 1005.13 338.9C964.247 334.278 954.812 389.747 917.071 389.747C879.331 389.747 876.186 338.9 832.155 338.9C788.125 338.9 800.705 389.747 753.529 389.747C706.354 389.747 709.498 338.9 665.468 338.9C621.438 338.9 615.147 389.746 583.697 389.747C552.247 389.747 536.521 338.9 495.636 338.9C454.751 338.9 448.46 389.747 410.72 389.747C372.98 389.747 369.834 334.278 328.949 334.278C288.064 334.278 281.773 389.747 244.032 389.747C206.292 389.747 196.857 334.278 155.972 334.278C115.086 334.278 127.666 385.124 71.0557 389.747C14.5145 394.363 0.0355314 334.426 0 334.278V51.1003C0 51.1003 10.0035 0.253794 63.2637 0.253626C116.524 0.253631 110.44 51.1003 148.181 51.1003C185.921 51.0999 198.501 0.253653 229.951 0.253626C261.402 0.253629 273.982 46.4778 314.867 51.1003C355.753 55.7227 365.188 0.253623 402.929 0.253626C440.669 0.253879 443.814 51.1003 487.845 51.1003C531.875 51.1002 519.295 0.253622 566.471 0.253626C613.646 0.253654 610.502 51.1003 654.532 51.1003C698.562 51.1 704.853 0.253784 736.303 0.253626C767.753 0.253629 783.478 51.0999 824.363 51.1003C865.249 51.1003 871.54 0.253623 909.28 0.253626C947.02 0.254051 950.166 55.7222 991.051 55.7224C1031.94 55.7224 1038.23 0.253623 1075.97 0.253626C1113.71 0.254021 1123.14 55.7221 1164.03 55.7224C1204.91 55.7224 1192.33 4.87611 1248.94 0.253626Z" fill="black" fill-opacity="0.2"/>
</svg>
