<svg width="1141" height="629" viewBox="0 0 1141 629" fill="none" xmlns="http://www.w3.org/2000/svg">
<path d="M1122.29 -344.913C1170.84 -409.287 1105.43 -466.532 1122.15 -492.94L784.536 -744.274C767.824 -717.865 833.235 -660.62 784.678 -596.246C736.121 -531.872 684.263 -585.824 653.226 -536.78C622.189 -487.737 682.017 -434.024 653.368 -388.753C624.718 -343.482 552.952 -378.331 521.915 -329.287C490.879 -280.243 555.482 -234.076 526.832 -188.805C498.183 -143.534 -43.9703 -304.053 -75.0072 -255.009C-106.044 -205.965 -60.8745 -144.383 -84.7491 -106.657C-108.624 -68.9309 -174.807 -100.247 -208.231 -47.4309C-241.656 5.38559 -177.86 40.4746 -213.672 97.0637C-249.484 153.653 -380.578 72.7103 -414.003 125.527C-447.427 178.343 -404.818 154.798 -433.467 200.069C-462.117 245.341 -438.512 302.183 -463.967 354.76C-489.421 407.337 -443.145 457.756 -467.02 495.482C-490.894 533.208 -85.8823 638.639 -114.532 683.91C-143.181 729.181 -91.3228 783.133 -117.585 824.632C-143.847 866.131 -224.355 857.45 -241.067 883.858L98.7334 1136.58C115.446 1110.18 195.953 1118.86 222.215 1077.36C248.477 1035.86 196.619 981.907 225.269 936.636C253.918 891.365 324.876 915.136 348.751 877.41C372.625 839.684 326.35 789.265 351.804 736.688C377.258 684.111 451.412 715.188 480.061 669.917C508.711 624.645 449.69 582.011 483.114 529.195C516.539 476.378 568.397 530.33 604.209 473.741C640.021 417.152 576.225 382.064 609.649 329.247C643.074 276.431 709.257 307.748 733.131 270.022C757.006 232.295 707.535 174.571 738.572 125.527C769.609 76.4831 835.792 107.799 864.441 62.5282C893.091 17.2569 828.487 -28.9095 859.524 -77.9533C890.561 -126.997 962.327 -92.148 990.976 -137.419C1019.63 -182.69 959.798 -236.403 990.835 -285.447C1021.87 -334.49 1073.73 -280.539 1122.29 -344.913Z" fill="black"/>
<path d="M1122.29 -344.913C1170.84 -409.287 1105.43 -466.532 1122.15 -492.94L784.536 -744.274C767.824 -717.865 833.235 -660.62 784.678 -596.246C736.121 -531.872 684.263 -585.824 653.226 -536.78C622.189 -487.737 682.017 -434.024 653.368 -388.753C624.718 -343.482 552.952 -378.331 521.915 -329.287C490.879 -280.243 555.482 -234.076 526.832 -188.805C498.183 -143.534 -43.9703 -304.053 -75.0072 -255.009C-106.044 -205.965 -60.8745 -144.383 -84.7491 -106.657C-108.624 -68.9309 -174.807 -100.247 -208.231 -47.4309C-241.656 5.38559 -177.86 40.4746 -213.672 97.0637C-249.484 153.653 -380.578 72.7103 -414.003 125.527C-447.427 178.343 -404.818 154.798 -433.467 200.069C-462.117 245.341 -438.512 302.183 -463.967 354.76C-489.421 407.337 -443.145 457.756 -467.02 495.482C-490.894 533.208 -85.8823 638.639 -114.532 683.91C-143.181 729.181 -91.3228 783.133 -117.585 824.632C-143.847 866.131 -224.355 857.45 -241.067 883.858L98.7334 1136.58C115.446 1110.18 195.953 1118.86 222.215 1077.36C248.477 1035.86 196.619 981.907 225.269 936.636C253.918 891.365 324.876 915.136 348.751 877.41C372.625 839.684 326.35 789.265 351.804 736.688C377.258 684.111 451.412 715.188 480.061 669.917C508.711 624.645 449.69 582.011 483.114 529.195C516.539 476.378 568.397 530.33 604.209 473.741C640.021 417.152 576.225 382.064 609.649 329.247C643.074 276.431 709.257 307.748 733.131 270.022C757.006 232.295 707.535 174.571 738.572 125.527C769.609 76.4831 835.792 107.799 864.441 62.5282C893.091 17.2569 828.487 -28.9095 859.524 -77.9533C890.561 -126.997 962.327 -92.148 990.976 -137.419C1019.63 -182.69 959.798 -236.403 990.835 -285.447C1021.87 -334.49 1073.73 -280.539 1122.29 -344.913Z" fill="black" fill-opacity="0.2"/>
<path d="M1122.29 -344.913C1170.84 -409.287 1105.43 -466.532 1122.15 -492.94L784.536 -744.274C767.824 -717.865 833.235 -660.62 784.678 -596.246C736.121 -531.872 684.263 -585.824 653.226 -536.78C622.189 -487.737 682.017 -434.024 653.368 -388.753C624.718 -343.482 552.952 -378.331 521.915 -329.287C490.879 -280.243 555.482 -234.076 526.832 -188.805C498.183 -143.534 -43.9703 -304.053 -75.0072 -255.009C-106.044 -205.965 -60.8745 -144.383 -84.7491 -106.657C-108.624 -68.9309 -174.807 -100.247 -208.231 -47.4309C-241.656 5.38559 -177.86 40.4746 -213.672 97.0637C-249.484 153.653 -380.578 72.7103 -414.003 125.527C-447.427 178.343 -404.818 154.798 -433.467 200.069C-462.117 245.341 -438.512 302.183 -463.967 354.76C-489.421 407.337 -443.145 457.756 -467.02 495.482C-490.894 533.208 -85.8823 638.639 -114.532 683.91C-143.181 729.181 -91.3228 783.133 -117.585 824.632C-143.847 866.131 -224.355 857.45 -241.067 883.858L98.7334 1136.58C115.446 1110.18 195.953 1118.86 222.215 1077.36C248.477 1035.86 196.619 981.907 225.269 936.636C253.918 891.365 324.876 915.136 348.751 877.41C372.625 839.684 326.35 789.265 351.804 736.688C377.258 684.111 451.412 715.188 480.061 669.917C508.711 624.645 449.69 582.011 483.114 529.195C516.539 476.378 568.397 530.33 604.209 473.741C640.021 417.152 576.225 382.064 609.649 329.247C643.074 276.431 709.257 307.748 733.131 270.022C757.006 232.295 707.535 174.571 738.572 125.527C769.609 76.4831 835.792 107.799 864.441 62.5282C893.091 17.2569 828.487 -28.9095 859.524 -77.9533C890.561 -126.997 962.327 -92.148 990.976 -137.419C1019.63 -182.69 959.798 -236.403 990.835 -285.447C1021.87 -334.49 1073.73 -280.539 1122.29 -344.913Z" fill="black" fill-opacity="0.2"/>
<path d="M1122.29 -344.913C1170.84 -409.287 1105.43 -466.532 1122.15 -492.94L784.536 -744.274C767.824 -717.865 833.235 -660.62 784.678 -596.246C736.121 -531.872 684.263 -585.824 653.226 -536.78C622.189 -487.737 682.017 -434.024 653.368 -388.753C624.718 -343.482 552.952 -378.331 521.915 -329.287C490.879 -280.243 555.482 -234.076 526.832 -188.805C498.183 -143.534 -43.9703 -304.053 -75.0072 -255.009C-106.044 -205.965 -60.8745 -144.383 -84.7491 -106.657C-108.624 -68.9309 -174.807 -100.247 -208.231 -47.4309C-241.656 5.38559 -177.86 40.4746 -213.672 97.0637C-249.484 153.653 -380.578 72.7103 -414.003 125.527C-447.427 178.343 -404.818 154.798 -433.467 200.069C-462.117 245.341 -438.512 302.183 -463.967 354.76C-489.421 407.337 -443.145 457.756 -467.02 495.482C-490.894 533.208 -85.8823 638.639 -114.532 683.91C-143.181 729.181 -91.3228 783.133 -117.585 824.632C-143.847 866.131 -224.355 857.45 -241.067 883.858L98.7334 1136.58C115.446 1110.18 195.953 1118.86 222.215 1077.36C248.477 1035.86 196.619 981.907 225.269 936.636C253.918 891.365 324.876 915.136 348.751 877.41C372.625 839.684 326.35 789.265 351.804 736.688C377.258 684.111 451.412 715.188 480.061 669.917C508.711 624.645 449.69 582.011 483.114 529.195C516.539 476.378 568.397 530.33 604.209 473.741C640.021 417.152 576.225 382.064 609.649 329.247C643.074 276.431 709.257 307.748 733.131 270.022C757.006 232.295 707.535 174.571 738.572 125.527C769.609 76.4831 835.792 107.799 864.441 62.5282C893.091 17.2569 828.487 -28.9095 859.524 -77.9533C890.561 -126.997 962.327 -92.148 990.976 -137.419C1019.63 -182.69 959.798 -236.403 990.835 -285.447C1021.87 -334.49 1073.73 -280.539 1122.29 -344.913Z" fill="black" fill-opacity="0.2"/>
<path d="M1122.29 -344.913C1170.84 -409.287 1105.43 -466.532 1122.15 -492.94L784.536 -744.274C767.824 -717.865 833.235 -660.62 784.678 -596.246C736.121 -531.872 684.263 -585.824 653.226 -536.78C622.189 -487.737 682.017 -434.024 653.368 -388.753C624.718 -343.482 552.952 -378.331 521.915 -329.287C490.879 -280.243 555.482 -234.076 526.832 -188.805C498.183 -143.534 -43.9703 -304.053 -75.0072 -255.009C-106.044 -205.965 -60.8745 -144.383 -84.7491 -106.657C-108.624 -68.9309 -174.807 -100.247 -208.231 -47.4309C-241.656 5.38559 -177.86 40.4746 -213.672 97.0637C-249.484 153.653 -380.578 72.7103 -414.003 125.527C-447.427 178.343 -404.818 154.798 -433.467 200.069C-462.117 245.341 -438.512 302.183 -463.967 354.76C-489.421 407.337 -443.145 457.756 -467.02 495.482C-490.894 533.208 -85.8823 638.639 -114.532 683.91C-143.181 729.181 -91.3228 783.133 -117.585 824.632C-143.847 866.131 -224.355 857.45 -241.067 883.858L98.7334 1136.58C115.446 1110.18 195.953 1118.86 222.215 1077.36C248.477 1035.86 196.619 981.907 225.269 936.636C253.918 891.365 324.876 915.136 348.751 877.41C372.625 839.684 326.35 789.265 351.804 736.688C377.258 684.111 451.412 715.188 480.061 669.917C508.711 624.645 449.69 582.011 483.114 529.195C516.539 476.378 568.397 530.33 604.209 473.741C640.021 417.152 576.225 382.064 609.649 329.247C643.074 276.431 709.257 307.748 733.131 270.022C757.006 232.295 707.535 174.571 738.572 125.527C769.609 76.4831 835.792 107.799 864.441 62.5282C893.091 17.2569 828.487 -28.9095 859.524 -77.9533C890.561 -126.997 962.327 -92.148 990.976 -137.419C1019.63 -182.69 959.798 -236.403 990.835 -285.447C1021.87 -334.49 1073.73 -280.539 1122.29 -344.913Z" fill="black" fill-opacity="0.2"/>
<path d="M1122.29 -344.913C1170.84 -409.287 1105.43 -466.532 1122.15 -492.94L784.536 -744.274C767.824 -717.865 833.235 -660.62 784.678 -596.246C736.121 -531.872 684.263 -585.824 653.226 -536.78C622.189 -487.737 682.017 -434.024 653.368 -388.753C624.718 -343.482 552.952 -378.331 521.915 -329.287C490.879 -280.243 555.482 -234.076 526.832 -188.805C498.183 -143.534 -43.9703 -304.053 -75.0072 -255.009C-106.044 -205.965 -60.8745 -144.383 -84.7491 -106.657C-108.624 -68.9309 -174.807 -100.247 -208.231 -47.4309C-241.656 5.38559 -177.86 40.4746 -213.672 97.0637C-249.484 153.653 -380.578 72.7103 -414.003 125.527C-447.427 178.343 -404.818 154.798 -433.467 200.069C-462.117 245.341 -438.512 302.183 -463.967 354.76C-489.421 407.337 -443.145 457.756 -467.02 495.482C-490.894 533.208 -85.8823 638.639 -114.532 683.91C-143.181 729.181 -91.3228 783.133 -117.585 824.632C-143.847 866.131 -224.355 857.45 -241.067 883.858L98.7334 1136.58C115.446 1110.18 195.953 1118.86 222.215 1077.36C248.477 1035.86 196.619 981.907 225.269 936.636C253.918 891.365 324.876 915.136 348.751 877.41C372.625 839.684 326.35 789.265 351.804 736.688C377.258 684.111 451.412 715.188 480.061 669.917C508.711 624.645 449.69 582.011 483.114 529.195C516.539 476.378 568.397 530.33 604.209 473.741C640.021 417.152 576.225 382.064 609.649 329.247C643.074 276.431 709.257 307.748 733.131 270.022C757.006 232.295 707.535 174.571 738.572 125.527C769.609 76.4831 835.792 107.799 864.441 62.5282C893.091 17.2569 828.487 -28.9095 859.524 -77.9533C890.561 -126.997 962.327 -92.148 990.976 -137.419C1019.63 -182.69 959.798 -236.403 990.835 -285.447C1021.87 -334.49 1073.73 -280.539 1122.29 -344.913Z" fill="black" fill-opacity="0.2"/>
</svg>
