<svg width="424" height="301" viewBox="0 0 424 301" fill="none" preserveAspectRatio="none" xmlns="http://www.w3.org/2000/svg">
<mask id="mask0_66_11" style="mask-type:alpha" maskUnits="userSpaceOnUse" x="0" y="0" width="424" height="275">
<mask id="path-1-inside-1_66_11" fill="white">
<path d="M293.582 83.6035C304.181 77.4178 314.261 67.1742 329.007 67.8467C347.26 69.1257 358.091 83.6912 373.829 89.3477C395.468 97.088 410.379 85.7422 424 71.75V251C424 264.255 413.255 275 400 275H24C10.7452 275 0 264.255 0 251V71.2207C0.0267027 71.2325 25.5937 82.4918 38.1934 87.5723C67.8725 99.657 78.5709 76.4915 102.316 71.21C116.301 68.3432 128.985 75.0913 139.595 81.1777C153.877 89.5355 168.832 96.3933 186.17 88.5537C195.92 84.3748 203.927 77.2957 214.548 74.2305C233.782 68.2875 248.595 83.2169 264.587 88.1787C274.932 91.4974 285.299 88.7858 293.582 83.6035ZM424 0.000976562V0V0.000976562Z"/>
</mask>
<path d="M293.582 83.6035C304.181 77.4178 314.261 67.1742 329.007 67.8467C347.26 69.1257 358.091 83.6912 373.829 89.3477C395.468 97.088 410.379 85.7422 424 71.75V251C424 264.255 413.255 275 400 275H24C10.7452 275 0 264.255 0 251V71.2207C0.0267027 71.2325 25.5937 82.4918 38.1934 87.5723C67.8725 99.657 78.5709 76.4915 102.316 71.21C116.301 68.3432 128.985 75.0913 139.595 81.1777C153.877 89.5355 168.832 96.3933 186.17 88.5537C195.92 84.3748 203.927 77.2957 214.548 74.2305C233.782 68.2875 248.595 83.2169 264.587 88.1787C274.932 91.4974 285.299 88.7858 293.582 83.6035ZM424 0.000976562V0V0.000976562Z" fill="#CE171C"/>
<path d="M293.582 83.6035L293.078 82.7398L293.065 82.7476L293.052 82.7558L293.582 83.6035ZM329.007 67.8467L329.077 66.8491L329.065 66.8483L329.052 66.8477L329.007 67.8467ZM373.829 89.3477L373.491 90.2887L373.492 90.2892L373.829 89.3477ZM424 71.75H425V69.2891L423.283 71.0525L424 71.75ZM400 275V276V276V275ZM24 275V276V276V275ZM0 71.2207L0.403044 70.3055L-1 69.6876V71.2207H0ZM38.1934 87.5723L38.5705 86.6461L38.5673 86.6448L38.1934 87.5723ZM102.316 71.21L102.116 70.2303L102.107 70.232L102.099 70.2338L102.316 71.21ZM139.595 81.1777L140.1 80.3146L140.092 80.3103L139.595 81.1777ZM186.17 88.5537L185.776 87.6346L185.767 87.6385L185.758 87.6425L186.17 88.5537ZM214.548 74.2305L214.825 75.1913L214.834 75.1887L214.843 75.1859L214.548 74.2305ZM264.587 88.1787L264.892 87.2265L264.883 87.2236L264.587 88.1787ZM293.582 83.6035L294.086 84.4672C296.773 82.8993 299.422 81.077 302.079 79.2633C304.747 77.4418 307.431 75.6241 310.235 74.0215C315.834 70.8226 321.849 68.5213 328.961 68.8456L329.007 67.8467L329.052 66.8477C321.419 66.4996 315.021 68.9838 309.243 72.285C306.36 73.9325 303.614 75.7935 300.951 77.6114C298.277 79.4371 295.691 81.2149 293.078 82.7398L293.582 83.6035ZM329.007 67.8467L328.937 68.8442C337.801 69.4654 344.895 73.3086 351.817 77.7948C358.686 82.2465 365.479 87.4092 373.491 90.2887L373.829 89.3477L374.167 88.4066C366.441 85.6297 359.949 80.6814 352.905 76.1165C345.914 71.5861 338.466 67.507 329.077 66.8491L329.007 67.8467ZM373.829 89.3477L373.492 90.2892C384.559 94.248 393.963 93.3322 402.328 89.6122C410.646 85.9131 417.888 79.4618 424.717 72.4475L424 71.75L423.283 71.0525C416.491 78.0304 409.468 84.2481 401.515 87.7848C393.609 91.3007 384.738 92.1876 374.166 88.4061L373.829 89.3477ZM424 71.75H423V251H424H425V71.75H424ZM424 251H423C423 263.703 412.703 274 400 274V275V276C413.807 276 425 264.807 425 251H424ZM400 275V274H24V275V276H400V275ZM24 275V274C11.2975 274 1 263.703 1 251H0H-1C-1 264.807 10.1929 276 24 276V275ZM0 251H1V71.2207H0H-1V251H0ZM0 71.2207L-0.403044 72.1359C-0.381996 72.1452 25.2017 83.412 37.8194 88.4997L38.1934 87.5723L38.5673 86.6448C25.9857 81.5716 0.435401 70.3198 0.403044 70.3055L0 71.2207ZM38.1934 87.5723L37.8162 88.4984C45.3653 91.5723 51.7623 92.4249 57.4938 91.8516C63.2177 91.2791 68.2085 89.291 72.9471 86.7877C75.3141 85.5372 77.6281 84.1526 79.9374 82.749C82.2537 81.3411 84.5604 79.9172 86.9465 78.564C91.7115 75.8615 96.7343 73.476 102.534 72.1861L102.316 71.21L102.099 70.2338C96.0258 71.5847 90.8067 74.0754 85.9598 76.8243C83.54 78.1967 81.1983 79.6422 78.8986 81.0399C76.5918 82.442 74.3222 83.7992 72.0129 85.0193C67.3988 87.4569 62.666 89.3243 57.2947 89.8616C51.9309 90.3981 45.8609 89.6146 38.5705 86.6461L38.1934 87.5723ZM102.316 71.21L102.517 72.1896C116.085 69.4083 128.454 75.9394 139.097 82.0451L139.595 81.1777L140.092 80.3103C129.516 74.2431 116.517 67.2781 102.116 70.2303L102.316 71.21ZM139.595 81.1777L139.09 82.0408C153.388 90.408 168.751 97.5274 186.582 89.4649L186.17 88.5537L185.758 87.6425C168.913 95.2591 154.366 88.663 140.1 80.3147L139.595 81.1777ZM186.17 88.5537L186.564 89.4728C191.514 87.351 196.031 84.4881 200.539 81.8364C205.076 79.1679 209.642 76.687 214.825 75.1913L214.548 74.2305L214.271 73.2697C208.832 74.8392 204.085 77.4304 199.525 80.1125C194.937 82.8114 190.575 85.5775 185.776 87.6346L186.17 88.5537ZM214.548 74.2305L214.843 75.1859C224.124 72.3182 232.365 74.4615 240.377 78.0288C244.398 79.8196 248.303 81.9407 252.273 83.9615C256.219 85.9703 260.207 87.8667 264.291 89.1338L264.587 88.1787L264.883 87.2236C260.971 86.0098 257.11 84.1794 253.18 82.1791C249.274 80.1909 245.275 78.0207 241.19 76.2018C232.989 72.5498 224.206 70.1998 214.253 73.275L214.548 74.2305ZM264.587 88.1787L264.281 89.1309C274.984 92.5643 285.658 89.7411 294.112 84.4513L293.582 83.6035L293.052 82.7558C284.941 87.8305 274.88 90.4306 264.892 87.2265L264.587 88.1787ZM424 0.000976562H425V0H424H423V0.000976562H424ZM424 0H423V0.000976562H424H425V0H424Z" fill="black" mask="url(#path-1-inside-1_66_11)"/>
</mask>
<g mask="url(#mask0_66_11)">
<rect y="66" width="424" height="96" fill="white"/>
</g>
<path d="M293.582 109.604C304.181 103.418 314.261 93.1742 329.007 93.8467C347.26 95.1257 358.091 109.691 373.829 115.348C395.468 123.088 410.379 111.742 424 97.75V277C424 290.255 413.255 301 400 301H24C10.7452 301 0 290.255 0 277V97.2207C0.0267027 97.2325 25.5937 108.492 38.1934 113.572C67.8725 125.657 78.5709 102.492 102.316 97.21C116.301 94.3432 128.985 101.091 139.595 107.178C153.877 115.535 168.832 122.393 186.17 114.554C195.92 110.375 203.927 103.296 214.548 100.23C233.782 94.2875 248.595 109.217 264.587 114.179C274.932 117.497 285.299 114.786 293.582 109.604ZM424 26.001V26V26.001Z" fill="#CE171C"/>
</svg>
