<svg width="393" height="340" viewBox="0 0 393 340" fill="none" xmlns="http://www.w3.org/2000/svg">
<g clip-path="url(#clip0_4415_12721)">
<g clip-path="url(#clip1_4415_12721)">
<path d="M-180.232 -61.2047C-214.752 -74.6869 -231.95 -38.6273 -245.713 -42.7389L-314.95 137.892C-301.187 142.004 -283.989 105.944 -249.469 119.426C-214.948 132.908 -232.373 162.562 -206.814 170.198C-181.255 177.834 -164.926 144.683 -141.333 151.732C-117.74 158.78 -124.238 194.868 -98.6782 202.504C-73.1188 210.139 -60.7225 175.814 -37.1293 182.863C-13.536 189.911 -17.1602 449.758 8.39919 457.394C33.9586 465.03 55.5917 437.387 75.2527 443.261C94.9138 449.135 89.285 482.313 116.81 490.536C144.336 498.759 151.931 466.169 181.422 474.979C210.914 483.79 191.397 551.86 218.922 560.083C246.448 568.306 230.732 552.38 254.326 559.428C277.919 566.477 300.136 548.965 326.564 553.692C352.993 558.418 369.549 531.674 389.21 537.548C408.871 543.422 405.17 351.106 428.764 358.154C452.357 365.203 469.782 335.549 491.409 342.01C513.037 348.471 519.204 385.174 532.967 389.285L602.548 207.512C588.785 203.4 582.617 166.698 560.99 160.237C539.363 153.776 521.938 183.429 498.344 176.381C474.751 169.332 476.448 134.979 456.786 129.106C437.125 123.232 420.569 149.976 394.141 145.25C367.712 140.523 372.244 103.848 348.651 96.7999C325.057 89.7513 313.53 121.167 286.005 112.944C258.479 104.72 275.905 75.0669 246.413 66.2562C216.922 57.4456 209.327 90.036 181.801 81.8127C154.276 73.5894 159.905 40.4117 140.244 34.5379C120.583 28.6641 101.191 57.7303 75.6317 50.0943C50.0723 42.4584 55.7011 9.28063 32.1078 2.2321C8.51451 -4.81644 -3.88145 29.5087 -29.4408 21.8727C-55.0002 14.2368 -48.5023 -21.8503 -72.0956 -28.8989C-95.6888 -35.9474 -112.017 -2.79716 -137.577 -10.4331C-163.136 -18.069 -145.711 -47.7225 -180.232 -61.2047Z" fill="black"/>
<path d="M-180.232 -61.2047C-214.752 -74.6869 -231.95 -38.6273 -245.713 -42.7389L-314.95 137.892C-301.187 142.004 -283.989 105.944 -249.469 119.426C-214.948 132.908 -232.373 162.562 -206.814 170.198C-181.255 177.834 -164.926 144.683 -141.333 151.732C-117.74 158.78 -124.238 194.868 -98.6782 202.504C-73.1188 210.139 -60.7225 175.814 -37.1293 182.863C-13.536 189.911 -17.1602 449.758 8.39919 457.394C33.9586 465.03 55.5917 437.387 75.2527 443.261C94.9138 449.135 89.285 482.313 116.81 490.536C144.336 498.759 151.931 466.169 181.422 474.979C210.914 483.79 191.397 551.86 218.922 560.083C246.448 568.306 230.732 552.38 254.326 559.428C277.919 566.477 300.136 548.965 326.564 553.692C352.993 558.418 369.549 531.674 389.21 537.548C408.871 543.422 405.17 351.106 428.764 358.154C452.357 365.203 469.782 335.549 491.409 342.01C513.037 348.471 519.204 385.174 532.967 389.285L602.548 207.512C588.785 203.4 582.617 166.698 560.99 160.237C539.363 153.776 521.938 183.429 498.344 176.381C474.751 169.332 476.448 134.979 456.786 129.106C437.125 123.232 420.569 149.976 394.141 145.25C367.712 140.523 372.244 103.848 348.651 96.7999C325.057 89.7513 313.53 121.167 286.005 112.944C258.479 104.72 275.905 75.0669 246.413 66.2562C216.922 57.4456 209.327 90.036 181.801 81.8127C154.276 73.5894 159.905 40.4117 140.244 34.5379C120.583 28.6641 101.191 57.7303 75.6317 50.0943C50.0723 42.4584 55.7011 9.28063 32.1078 2.2321C8.51451 -4.81644 -3.88145 29.5087 -29.4408 21.8727C-55.0002 14.2368 -48.5023 -21.8503 -72.0956 -28.8989C-95.6888 -35.9474 -112.017 -2.79716 -137.577 -10.4331C-163.136 -18.069 -145.711 -47.7225 -180.232 -61.2047Z" fill="black" fill-opacity="0.2"/>
<path d="M-180.232 -61.2047C-214.752 -74.6869 -231.95 -38.6273 -245.713 -42.7389L-314.95 137.892C-301.187 142.004 -283.989 105.944 -249.469 119.426C-214.948 132.908 -232.373 162.562 -206.814 170.198C-181.255 177.834 -164.926 144.683 -141.333 151.732C-117.74 158.78 -124.238 194.868 -98.6782 202.504C-73.1188 210.139 -60.7225 175.814 -37.1293 182.863C-13.536 189.911 -17.1602 449.758 8.39919 457.394C33.9586 465.03 55.5917 437.387 75.2527 443.261C94.9138 449.135 89.285 482.313 116.81 490.536C144.336 498.759 151.931 466.169 181.422 474.979C210.914 483.79 191.397 551.86 218.922 560.083C246.448 568.306 230.732 552.38 254.326 559.428C277.919 566.477 300.136 548.965 326.564 553.692C352.993 558.418 369.549 531.674 389.21 537.548C408.871 543.422 405.17 351.106 428.764 358.154C452.357 365.203 469.782 335.549 491.409 342.01C513.037 348.471 519.204 385.174 532.967 389.285L602.548 207.512C588.785 203.4 582.617 166.698 560.99 160.237C539.363 153.776 521.938 183.429 498.344 176.381C474.751 169.332 476.448 134.979 456.786 129.106C437.125 123.232 420.569 149.976 394.141 145.25C367.712 140.523 372.244 103.848 348.651 96.7999C325.057 89.7513 313.53 121.167 286.005 112.944C258.479 104.72 275.905 75.0669 246.413 66.2562C216.922 57.4456 209.327 90.036 181.801 81.8127C154.276 73.5894 159.905 40.4117 140.244 34.5379C120.583 28.6641 101.191 57.7303 75.6317 50.0943C50.0723 42.4584 55.7011 9.28063 32.1078 2.2321C8.51451 -4.81644 -3.88145 29.5087 -29.4408 21.8727C-55.0002 14.2368 -48.5023 -21.8503 -72.0956 -28.8989C-95.6888 -35.9474 -112.017 -2.79716 -137.577 -10.4331C-163.136 -18.069 -145.711 -47.7225 -180.232 -61.2047Z" fill="black" fill-opacity="0.2"/>
<path d="M-180.232 -61.2047C-214.752 -74.6869 -231.95 -38.6273 -245.713 -42.7389L-314.95 137.892C-301.187 142.004 -283.989 105.944 -249.469 119.426C-214.948 132.908 -232.373 162.562 -206.814 170.198C-181.255 177.834 -164.926 144.683 -141.333 151.732C-117.74 158.78 -124.238 194.868 -98.6782 202.504C-73.1188 210.139 -60.7225 175.814 -37.1293 182.863C-13.536 189.911 -17.1602 449.758 8.39919 457.394C33.9586 465.03 55.5917 437.387 75.2527 443.261C94.9138 449.135 89.285 482.313 116.81 490.536C144.336 498.759 151.931 466.169 181.422 474.979C210.914 483.79 191.397 551.86 218.922 560.083C246.448 568.306 230.732 552.38 254.326 559.428C277.919 566.477 300.136 548.965 326.564 553.692C352.993 558.418 369.549 531.674 389.21 537.548C408.871 543.422 405.17 351.106 428.764 358.154C452.357 365.203 469.782 335.549 491.409 342.01C513.037 348.471 519.204 385.174 532.967 389.285L602.548 207.512C588.785 203.4 582.617 166.698 560.99 160.237C539.363 153.776 521.938 183.429 498.344 176.381C474.751 169.332 476.448 134.979 456.786 129.106C437.125 123.232 420.569 149.976 394.141 145.25C367.712 140.523 372.244 103.848 348.651 96.7999C325.057 89.7513 313.53 121.167 286.005 112.944C258.479 104.72 275.905 75.0669 246.413 66.2562C216.922 57.4456 209.327 90.036 181.801 81.8127C154.276 73.5894 159.905 40.4117 140.244 34.5379C120.583 28.6641 101.191 57.7303 75.6317 50.0943C50.0723 42.4584 55.7011 9.28063 32.1078 2.2321C8.51451 -4.81644 -3.88145 29.5087 -29.4408 21.8727C-55.0002 14.2368 -48.5023 -21.8503 -72.0956 -28.8989C-95.6888 -35.9474 -112.017 -2.79716 -137.577 -10.4331C-163.136 -18.069 -145.711 -47.7225 -180.232 -61.2047Z" fill="black" fill-opacity="0.2"/>
<path d="M-180.232 -61.2047C-214.752 -74.6869 -231.95 -38.6273 -245.713 -42.7389L-314.95 137.892C-301.187 142.004 -283.989 105.944 -249.469 119.426C-214.948 132.908 -232.373 162.562 -206.814 170.198C-181.255 177.834 -164.926 144.683 -141.333 151.732C-117.74 158.78 -124.238 194.868 -98.6782 202.504C-73.1188 210.139 -60.7225 175.814 -37.1293 182.863C-13.536 189.911 -17.1602 449.758 8.39919 457.394C33.9586 465.03 55.5917 437.387 75.2527 443.261C94.9138 449.135 89.285 482.313 116.81 490.536C144.336 498.759 151.931 466.169 181.422 474.979C210.914 483.79 191.397 551.86 218.922 560.083C246.448 568.306 230.732 552.38 254.326 559.428C277.919 566.477 300.136 548.965 326.564 553.692C352.993 558.418 369.549 531.674 389.21 537.548C408.871 543.422 405.17 351.106 428.764 358.154C452.357 365.203 469.782 335.549 491.409 342.01C513.037 348.471 519.204 385.174 532.967 389.285L602.548 207.512C588.785 203.4 582.617 166.698 560.99 160.237C539.363 153.776 521.938 183.429 498.344 176.381C474.751 169.332 476.448 134.979 456.786 129.106C437.125 123.232 420.569 149.976 394.141 145.25C367.712 140.523 372.244 103.848 348.651 96.7999C325.057 89.7513 313.53 121.167 286.005 112.944C258.479 104.72 275.905 75.0669 246.413 66.2562C216.922 57.4456 209.327 90.036 181.801 81.8127C154.276 73.5894 159.905 40.4117 140.244 34.5379C120.583 28.6641 101.191 57.7303 75.6317 50.0943C50.0723 42.4584 55.7011 9.28063 32.1078 2.2321C8.51451 -4.81644 -3.88145 29.5087 -29.4408 21.8727C-55.0002 14.2368 -48.5023 -21.8503 -72.0956 -28.8989C-95.6888 -35.9474 -112.017 -2.79716 -137.577 -10.4331C-163.136 -18.069 -145.711 -47.7225 -180.232 -61.2047Z" fill="black" fill-opacity="0.2"/>
<path d="M-180.232 -61.2047C-214.752 -74.6869 -231.95 -38.6273 -245.713 -42.7389L-314.95 137.892C-301.187 142.004 -283.989 105.944 -249.469 119.426C-214.948 132.908 -232.373 162.562 -206.814 170.198C-181.255 177.834 -164.926 144.683 -141.333 151.732C-117.74 158.78 -124.238 194.868 -98.6782 202.504C-73.1188 210.139 -60.7225 175.814 -37.1293 182.863C-13.536 189.911 -17.1602 449.758 8.39919 457.394C33.9586 465.03 55.5917 437.387 75.2527 443.261C94.9138 449.135 89.285 482.313 116.81 490.536C144.336 498.759 151.931 466.169 181.422 474.979C210.914 483.79 191.397 551.86 218.922 560.083C246.448 568.306 230.732 552.38 254.326 559.428C277.919 566.477 300.136 548.965 326.564 553.692C352.993 558.418 369.549 531.674 389.21 537.548C408.871 543.422 405.17 351.106 428.764 358.154C452.357 365.203 469.782 335.549 491.409 342.01C513.037 348.471 519.204 385.174 532.967 389.285L602.548 207.512C588.785 203.4 582.617 166.698 560.99 160.237C539.363 153.776 521.938 183.429 498.344 176.381C474.751 169.332 476.448 134.979 456.786 129.106C437.125 123.232 420.569 149.976 394.141 145.25C367.712 140.523 372.244 103.848 348.651 96.7999C325.057 89.7513 313.53 121.167 286.005 112.944C258.479 104.72 275.905 75.0669 246.413 66.2562C216.922 57.4456 209.327 90.036 181.801 81.8127C154.276 73.5894 159.905 40.4117 140.244 34.5379C120.583 28.6641 101.191 57.7303 75.6317 50.0943C50.0723 42.4584 55.7011 9.28063 32.1078 2.2321C8.51451 -4.81644 -3.88145 29.5087 -29.4408 21.8727C-55.0002 14.2368 -48.5023 -21.8503 -72.0956 -28.8989C-95.6888 -35.9474 -112.017 -2.79716 -137.577 -10.4331C-163.136 -18.069 -145.711 -47.7225 -180.232 -61.2047Z" fill="black" fill-opacity="0.2"/>
</g>
</g>
<defs>
<clipPath id="clip0_4415_12721">
<rect width="393" height="340" fill="white"/>
</clipPath>
<clipPath id="clip1_4415_12721">
<rect width="393" height="404" fill="white" transform="translate(0 -64)"/>
</clipPath>
</defs>
</svg>
