<svg width="393" height="213" viewBox="0 0 393 213" fill="none" xmlns="http://www.w3.org/2000/svg">
<g clip-path="url(#clip0_4415_13034)">
<path d="M-101.988 212.884C-130.679 214.997 -138 187.532 -138 187.532L-138 -13L531 -13V189.645C531 189.645 525.93 212.884 498.937 212.884C471.943 212.884 475.027 189.645 455.9 189.645C436.772 189.645 430.396 212.884 414.456 212.884C398.517 212.884 392.141 191.757 371.419 189.645C350.698 187.532 345.916 212.884 326.788 212.884C307.661 212.884 306.067 189.645 283.751 189.645C261.436 189.645 267.812 212.884 243.902 212.884C219.993 212.884 221.587 189.645 199.271 189.645C176.956 189.645 173.768 212.884 157.828 212.884C141.889 212.884 133.919 189.645 113.197 189.645C92.4758 189.645 89.2879 212.884 70.1603 212.884C51.0327 212.884 49.4388 187.532 28.7172 187.532C7.99567 187.532 4.80763 212.884 -14.3199 212.884C-33.4475 212.884 -38.2294 187.532 -58.951 187.532C-79.6725 187.532 -73.2966 210.771 -101.988 212.884Z" fill="white"/>
</g>
<defs>
<clipPath id="clip0_4415_13034">
<rect width="393" height="213" fill="white"/>
</clipPath>
</defs>
</svg>
