<svg width="393" height="394" viewBox="0 0 393 394" fill="none" xmlns="http://www.w3.org/2000/svg">
<path fill-rule="evenodd" clip-rule="evenodd" d="M504.804 0.13289C534.439 -2.28904 542 29.1964 542 29.1964V303L542.002 367.295C542.002 367.295 536.765 393.868 508.884 393.868C481.003 393.868 484.188 367.295 464.432 367.295C444.675 367.295 438.089 393.868 421.625 393.868C405.161 393.868 398.576 369.711 377.173 367.295C355.77 364.88 350.83 393.868 331.073 393.868C311.317 393.868 309.67 367.295 286.621 367.295C263.572 367.295 270.157 393.868 245.461 393.868C220.765 393.868 222.412 367.295 199.362 367.295C176.313 367.295 173.02 393.868 156.557 393.868C140.093 393.868 131.861 367.295 110.458 367.295C89.0552 367.295 85.7631 393.868 66.0068 393.868C46.2502 393.868 44.6032 364.88 23.2002 364.88C1.79762 364.88 -1.49567 393.868 -21.252 393.868C-41.0084 393.868 -45.9479 364.88 -67.3506 364.88C-88.7534 364.88 -82.1684 391.452 -111.803 393.868C-141.438 396.284 -148.999 364.879 -148.999 364.879L-149 319.5V26.7735C-148.977 26.6572 -143.702 0.132887 -115.882 0.13289C-88.0011 0.13303 -91.1862 26.7735 -71.4297 26.7735C-51.6732 26.7735 -45.0876 0.133182 -28.624 0.13289C-12.1603 0.132891 -5.57443 24.3513 15.8281 26.7735C37.231 29.1954 42.1704 0.133215 61.9268 0.13289C81.6833 0.132891 83.3305 26.7735 106.38 26.7735C129.429 26.7733 122.843 0.132908 147.539 0.13289C172.235 0.132892 170.588 26.7734 193.638 26.7735C216.687 26.7735 219.98 0.133248 236.443 0.13289C252.907 0.132891 261.139 26.7733 282.542 26.7735C303.945 26.7735 307.238 0.133228 326.994 0.13289C346.751 0.132891 348.398 29.1964 369.801 29.1964C391.203 29.1961 394.496 0.132888 414.253 0.13289C434.009 0.132969 438.949 29.1964 460.352 29.1964C481.755 29.1964 475.169 2.55486 504.804 0.13289Z" fill="black"/>
<path fill-rule="evenodd" clip-rule="evenodd" d="M504.804 0.13289C534.439 -2.28904 542 29.1964 542 29.1964V303L542.002 367.295C542.002 367.295 536.765 393.868 508.884 393.868C481.003 393.868 484.188 367.295 464.432 367.295C444.675 367.295 438.089 393.868 421.625 393.868C405.161 393.868 398.576 369.711 377.173 367.295C355.77 364.88 350.83 393.868 331.073 393.868C311.317 393.868 309.67 367.295 286.621 367.295C263.572 367.295 270.157 393.868 245.461 393.868C220.765 393.868 222.412 367.295 199.362 367.295C176.313 367.295 173.02 393.868 156.557 393.868C140.093 393.868 131.861 367.295 110.458 367.295C89.0552 367.295 85.7631 393.868 66.0068 393.868C46.2502 393.868 44.6032 364.88 23.2002 364.88C1.79762 364.88 -1.49567 393.868 -21.252 393.868C-41.0084 393.868 -45.9479 364.88 -67.3506 364.88C-88.7534 364.88 -82.1684 391.452 -111.803 393.868C-141.438 396.284 -148.999 364.879 -148.999 364.879L-149 319.5V26.7735C-148.977 26.6572 -143.702 0.132887 -115.882 0.13289C-88.0011 0.13303 -91.1862 26.7735 -71.4297 26.7735C-51.6732 26.7735 -45.0876 0.133182 -28.624 0.13289C-12.1603 0.132891 -5.57443 24.3513 15.8281 26.7735C37.231 29.1954 42.1704 0.133215 61.9268 0.13289C81.6833 0.132891 83.3305 26.7735 106.38 26.7735C129.429 26.7733 122.843 0.132908 147.539 0.13289C172.235 0.132892 170.588 26.7734 193.638 26.7735C216.687 26.7735 219.98 0.133248 236.443 0.13289C252.907 0.132891 261.139 26.7733 282.542 26.7735C303.945 26.7735 307.238 0.133228 326.994 0.13289C346.751 0.132891 348.398 29.1964 369.801 29.1964C391.203 29.1961 394.496 0.132888 414.253 0.13289C434.009 0.132969 438.949 29.1964 460.352 29.1964C481.755 29.1964 475.169 2.55486 504.804 0.13289Z" fill="black" fill-opacity="0.2"/>
<path fill-rule="evenodd" clip-rule="evenodd" d="M504.804 0.13289C534.439 -2.28904 542 29.1964 542 29.1964V303L542.002 367.295C542.002 367.295 536.765 393.868 508.884 393.868C481.003 393.868 484.188 367.295 464.432 367.295C444.675 367.295 438.089 393.868 421.625 393.868C405.161 393.868 398.576 369.711 377.173 367.295C355.77 364.88 350.83 393.868 331.073 393.868C311.317 393.868 309.67 367.295 286.621 367.295C263.572 367.295 270.157 393.868 245.461 393.868C220.765 393.868 222.412 367.295 199.362 367.295C176.313 367.295 173.02 393.868 156.557 393.868C140.093 393.868 131.861 367.295 110.458 367.295C89.0552 367.295 85.7631 393.868 66.0068 393.868C46.2502 393.868 44.6032 364.88 23.2002 364.88C1.79762 364.88 -1.49567 393.868 -21.252 393.868C-41.0084 393.868 -45.9479 364.88 -67.3506 364.88C-88.7534 364.88 -82.1684 391.452 -111.803 393.868C-141.438 396.284 -148.999 364.879 -148.999 364.879L-149 319.5V26.7735C-148.977 26.6572 -143.702 0.132887 -115.882 0.13289C-88.0011 0.13303 -91.1862 26.7735 -71.4297 26.7735C-51.6732 26.7735 -45.0876 0.133182 -28.624 0.13289C-12.1603 0.132891 -5.57443 24.3513 15.8281 26.7735C37.231 29.1954 42.1704 0.133215 61.9268 0.13289C81.6833 0.132891 83.3305 26.7735 106.38 26.7735C129.429 26.7733 122.843 0.132908 147.539 0.13289C172.235 0.132892 170.588 26.7734 193.638 26.7735C216.687 26.7735 219.98 0.133248 236.443 0.13289C252.907 0.132891 261.139 26.7733 282.542 26.7735C303.945 26.7735 307.238 0.133228 326.994 0.13289C346.751 0.132891 348.398 29.1964 369.801 29.1964C391.203 29.1961 394.496 0.132888 414.253 0.13289C434.009 0.132969 438.949 29.1964 460.352 29.1964C481.755 29.1964 475.169 2.55486 504.804 0.13289Z" fill="black" fill-opacity="0.2"/>
<path fill-rule="evenodd" clip-rule="evenodd" d="M504.804 0.13289C534.439 -2.28904 542 29.1964 542 29.1964V303L542.002 367.295C542.002 367.295 536.765 393.868 508.884 393.868C481.003 393.868 484.188 367.295 464.432 367.295C444.675 367.295 438.089 393.868 421.625 393.868C405.161 393.868 398.576 369.711 377.173 367.295C355.77 364.88 350.83 393.868 331.073 393.868C311.317 393.868 309.67 367.295 286.621 367.295C263.572 367.295 270.157 393.868 245.461 393.868C220.765 393.868 222.412 367.295 199.362 367.295C176.313 367.295 173.02 393.868 156.557 393.868C140.093 393.868 131.861 367.295 110.458 367.295C89.0552 367.295 85.7631 393.868 66.0068 393.868C46.2502 393.868 44.6032 364.88 23.2002 364.88C1.79762 364.88 -1.49567 393.868 -21.252 393.868C-41.0084 393.868 -45.9479 364.88 -67.3506 364.88C-88.7534 364.88 -82.1684 391.452 -111.803 393.868C-141.438 396.284 -148.999 364.879 -148.999 364.879L-149 319.5V26.7735C-148.977 26.6572 -143.702 0.132887 -115.882 0.13289C-88.0011 0.13303 -91.1862 26.7735 -71.4297 26.7735C-51.6732 26.7735 -45.0876 0.133182 -28.624 0.13289C-12.1603 0.132891 -5.57443 24.3513 15.8281 26.7735C37.231 29.1954 42.1704 0.133215 61.9268 0.13289C81.6833 0.132891 83.3305 26.7735 106.38 26.7735C129.429 26.7733 122.843 0.132908 147.539 0.13289C172.235 0.132892 170.588 26.7734 193.638 26.7735C216.687 26.7735 219.98 0.133248 236.443 0.13289C252.907 0.132891 261.139 26.7733 282.542 26.7735C303.945 26.7735 307.238 0.133228 326.994 0.13289C346.751 0.132891 348.398 29.1964 369.801 29.1964C391.203 29.1961 394.496 0.132888 414.253 0.13289C434.009 0.132969 438.949 29.1964 460.352 29.1964C481.755 29.1964 475.169 2.55486 504.804 0.13289Z" fill="black" fill-opacity="0.2"/>
<path fill-rule="evenodd" clip-rule="evenodd" d="M504.804 0.13289C534.439 -2.28904 542 29.1964 542 29.1964V303L542.002 367.295C542.002 367.295 536.765 393.868 508.884 393.868C481.003 393.868 484.188 367.295 464.432 367.295C444.675 367.295 438.089 393.868 421.625 393.868C405.161 393.868 398.576 369.711 377.173 367.295C355.77 364.88 350.83 393.868 331.073 393.868C311.317 393.868 309.67 367.295 286.621 367.295C263.572 367.295 270.157 393.868 245.461 393.868C220.765 393.868 222.412 367.295 199.362 367.295C176.313 367.295 173.02 393.868 156.557 393.868C140.093 393.868 131.861 367.295 110.458 367.295C89.0552 367.295 85.7631 393.868 66.0068 393.868C46.2502 393.868 44.6032 364.88 23.2002 364.88C1.79762 364.88 -1.49567 393.868 -21.252 393.868C-41.0084 393.868 -45.9479 364.88 -67.3506 364.88C-88.7534 364.88 -82.1684 391.452 -111.803 393.868C-141.438 396.284 -148.999 364.879 -148.999 364.879L-149 319.5V26.7735C-148.977 26.6572 -143.702 0.132887 -115.882 0.13289C-88.0011 0.13303 -91.1862 26.7735 -71.4297 26.7735C-51.6732 26.7735 -45.0876 0.133182 -28.624 0.13289C-12.1603 0.132891 -5.57443 24.3513 15.8281 26.7735C37.231 29.1954 42.1704 0.133215 61.9268 0.13289C81.6833 0.132891 83.3305 26.7735 106.38 26.7735C129.429 26.7733 122.843 0.132908 147.539 0.13289C172.235 0.132892 170.588 26.7734 193.638 26.7735C216.687 26.7735 219.98 0.133248 236.443 0.13289C252.907 0.132891 261.139 26.7733 282.542 26.7735C303.945 26.7735 307.238 0.133228 326.994 0.13289C346.751 0.132891 348.398 29.1964 369.801 29.1964C391.203 29.1961 394.496 0.132888 414.253 0.13289C434.009 0.132969 438.949 29.1964 460.352 29.1964C481.755 29.1964 475.169 2.55486 504.804 0.13289Z" fill="black" fill-opacity="0.2"/>
<path fill-rule="evenodd" clip-rule="evenodd" d="M504.804 0.13289C534.439 -2.28904 542 29.1964 542 29.1964V303L542.002 367.295C542.002 367.295 536.765 393.868 508.884 393.868C481.003 393.868 484.188 367.295 464.432 367.295C444.675 367.295 438.089 393.868 421.625 393.868C405.161 393.868 398.576 369.711 377.173 367.295C355.77 364.88 350.83 393.868 331.073 393.868C311.317 393.868 309.67 367.295 286.621 367.295C263.572 367.295 270.157 393.868 245.461 393.868C220.765 393.868 222.412 367.295 199.362 367.295C176.313 367.295 173.02 393.868 156.557 393.868C140.093 393.868 131.861 367.295 110.458 367.295C89.0552 367.295 85.7631 393.868 66.0068 393.868C46.2502 393.868 44.6032 364.88 23.2002 364.88C1.79762 364.88 -1.49567 393.868 -21.252 393.868C-41.0084 393.868 -45.9479 364.88 -67.3506 364.88C-88.7534 364.88 -82.1684 391.452 -111.803 393.868C-141.438 396.284 -148.999 364.879 -148.999 364.879L-149 319.5V26.7735C-148.977 26.6572 -143.702 0.132887 -115.882 0.13289C-88.0011 0.13303 -91.1862 26.7735 -71.4297 26.7735C-51.6732 26.7735 -45.0876 0.133182 -28.624 0.13289C-12.1603 0.132891 -5.57443 24.3513 15.8281 26.7735C37.231 29.1954 42.1704 0.133215 61.9268 0.13289C81.6833 0.132891 83.3305 26.7735 106.38 26.7735C129.429 26.7733 122.843 0.132908 147.539 0.13289C172.235 0.132892 170.588 26.7734 193.638 26.7735C216.687 26.7735 219.98 0.133248 236.443 0.13289C252.907 0.132891 261.139 26.7733 282.542 26.7735C303.945 26.7735 307.238 0.133228 326.994 0.13289C346.751 0.132891 348.398 29.1964 369.801 29.1964C391.203 29.1961 394.496 0.132888 414.253 0.13289C434.009 0.132969 438.949 29.1964 460.352 29.1964C481.755 29.1964 475.169 2.55486 504.804 0.13289Z" fill="black" fill-opacity="0.2"/>
</svg>
