<svg width="110" height="74" viewBox="0 0 110 74" fill="none" xmlns="http://www.w3.org/2000/svg">
<rect x="31.5" y="0.5" width="47" height="47" rx="23.5" stroke="#6A892C"/>
<g clip-path="url(#clip0_4817_14848)">
<path d="M65.713 16.077C65.4317 15.7394 65.0796 15.468 64.6815 15.2818C64.2835 15.0957 63.8494 14.9995 63.41 15H47.242L47.2 14.649C47.114 13.9194 46.7634 13.2467 46.2145 12.7585C45.6656 12.2702 44.9566 12.0003 44.222 12H44C43.7348 12 43.4804 12.1054 43.2929 12.2929C43.1054 12.4804 43 12.7348 43 13C43 13.2652 43.1054 13.5196 43.2929 13.7071C43.4804 13.8946 43.7348 14 44 14H44.222C44.4669 14 44.7033 14.09 44.8864 14.2527C45.0694 14.4155 45.1863 14.6397 45.215 14.883L46.591 26.583C46.7339 27.7998 47.3185 28.9218 48.2339 29.736C49.1493 30.5502 50.3319 31 51.557 31H62C62.2652 31 62.5196 30.8946 62.7071 30.7071C62.8946 30.5196 63 30.2652 63 30C63 29.7348 62.8946 29.4804 62.7071 29.2929C62.5196 29.1054 62.2652 29 62 29H51.557C50.9381 28.9983 50.3348 28.8051 49.8299 28.4471C49.3251 28.089 48.9433 27.5835 48.737 27H60.657C61.8293 27.0001 62.9643 26.5882 63.8638 25.8364C64.7633 25.0846 65.37 24.0407 65.578 22.887L66.363 18.533C66.4414 18.101 66.4237 17.6571 66.3114 17.2326C66.1991 16.8082 65.9948 16.4137 65.713 16.077ZM64.4 18.178L63.614 22.532C63.4891 23.225 63.1245 23.852 62.5839 24.3032C62.0433 24.7544 61.3612 25.0011 60.657 25H48.419L47.478 17H63.41C63.5569 16.9991 63.7022 17.0306 63.8355 17.0923C63.9689 17.1539 64.087 17.2441 64.1815 17.3566C64.276 17.4691 64.3446 17.601 64.3824 17.7429C64.4201 17.8849 64.4262 18.0334 64.4 18.178Z" fill="#6A892C"/>
<path d="M50 36.0006C51.1046 36.0006 52 35.1052 52 34.0006C52 32.8961 51.1046 32.0006 50 32.0006C48.8954 32.0006 48 32.8961 48 34.0006C48 35.1052 48.8954 36.0006 50 36.0006Z" fill="#6A892C"/>
<path d="M60 36.0006C61.1046 36.0006 62 35.1052 62 34.0006C62 32.8961 61.1046 32.0006 60 32.0006C58.8954 32.0006 58 32.8961 58 34.0006C58 35.1052 58.8954 36.0006 60 36.0006Z" fill="#6A892C"/>
</g>
<path d="M34.7193 69.096C31.3593 69.096 28.8633 66.68 28.8633 63.4C28.8633 60.12 31.3593 57.704 34.7353 57.704C36.3673 57.704 37.8393 58.248 38.8313 59.336L38.0793 60.088C37.1673 59.16 36.0473 58.76 34.7673 58.76C32.0633 58.76 30.0312 60.744 30.0312 63.4C30.0312 66.056 32.0633 68.04 34.7673 68.04C36.0473 68.04 37.1673 67.64 38.0793 66.696L38.8313 67.448C37.8393 68.536 36.3673 69.096 34.7193 69.096ZM43.9343 60.52C46.1103 60.52 47.3423 61.608 47.3423 63.784V69H46.2543V67.688C45.7423 68.552 44.7503 69.08 43.3583 69.08C41.4543 69.08 40.2863 68.088 40.2863 66.632C40.2863 65.336 41.1183 64.248 43.5343 64.248H46.2063V63.736C46.2063 62.296 45.3903 61.512 43.8223 61.512C42.7343 61.512 41.7103 61.896 41.0223 62.504L40.5103 61.656C41.3583 60.936 42.6063 60.52 43.9343 60.52ZM43.5343 68.184C44.8143 68.184 45.7583 67.576 46.2063 66.472V65.096H43.5663C41.9343 65.096 41.4062 65.736 41.4062 66.6C41.4062 67.576 42.1903 68.184 43.5343 68.184ZM51.5158 62.232C52.0438 61.112 53.1158 60.52 54.6678 60.52V61.624C54.5718 61.624 54.4758 61.608 54.3958 61.608C52.6358 61.608 51.5638 62.728 51.5638 64.712V69H50.4278V60.584H51.5158V62.232ZM57.8126 62.232C58.3406 61.112 59.4126 60.52 60.9646 60.52V61.624C60.8686 61.624 60.7726 61.608 60.6926 61.608C58.9326 61.608 57.8606 62.728 57.8606 64.712V69H56.7246V60.584H57.8126V62.232ZM63.5975 58.744C63.1335 58.744 62.7655 58.376 62.7655 57.928C62.7655 57.496 63.1335 57.128 63.5975 57.128C64.0615 57.128 64.4295 57.48 64.4295 57.912C64.4295 58.376 64.0775 58.744 63.5975 58.744ZM63.0215 69V60.584H64.1575V69H63.0215ZM71.3504 67.672L71.7504 68.488C71.3024 68.888 70.6304 69.08 69.9744 69.08C68.3904 69.08 67.5104 68.184 67.5104 66.632V61.544H66.0064V60.584H67.5104V58.744H68.6464V60.584H71.2064V61.544H68.6464V66.568C68.6464 67.56 69.1584 68.104 70.1024 68.104C70.5664 68.104 71.0304 67.96 71.3504 67.672ZM76.9615 69.08C74.4975 69.08 72.6735 67.288 72.6735 64.792C72.6735 62.296 74.4975 60.52 76.9615 60.52C79.4255 60.52 81.2335 62.296 81.2335 64.792C81.2335 67.288 79.4255 69.08 76.9615 69.08ZM76.9615 68.072C78.7535 68.072 80.0815 66.76 80.0815 64.792C80.0815 62.824 78.7535 61.512 76.9615 61.512C75.1695 61.512 73.8255 62.824 73.8255 64.792C73.8255 66.76 75.1695 68.072 76.9615 68.072Z" fill="black"/>
<defs>
<clipPath id="clip0_4817_14848">
<rect width="24" height="24" fill="white" transform="translate(43 12)"/>
</clipPath>
</defs>
</svg>
