<svg width="110" height="74" viewBox="0 0 110 74" fill="none" xmlns="http://www.w3.org/2000/svg">
<g opacity="0.3">
<rect x="31.5" y="0.5" width="47" height="47" rx="23.5" stroke="black"/>
<rect x="31.5" y="0.5" width="47" height="47" rx="23.5" stroke="black" stroke-opacity="0.2"/>
<rect x="31.5" y="0.5" width="47" height="47" rx="23.5" stroke="black" stroke-opacity="0.2"/>
<rect x="31.5" y="0.5" width="47" height="47" rx="23.5" stroke="black" stroke-opacity="0.2"/>
<rect x="31.5" y="0.5" width="47" height="47" rx="23.5" stroke="black" stroke-opacity="0.2"/>
<rect x="31.5" y="0.5" width="47" height="47" rx="23.5" stroke="black" stroke-opacity="0.2"/>
<path d="M61 18L50 29L45 24M65 22L57.5 29.5L56 28" stroke="black" stroke-width="2" stroke-linecap="round" stroke-linejoin="round"/>
<path d="M61 18L50 29L45 24M65 22L57.5 29.5L56 28" stroke="black" stroke-opacity="0.2" stroke-width="2" stroke-linecap="round" stroke-linejoin="round"/>
<path d="M61 18L50 29L45 24M65 22L57.5 29.5L56 28" stroke="black" stroke-opacity="0.2" stroke-width="2" stroke-linecap="round" stroke-linejoin="round"/>
<path d="M61 18L50 29L45 24M65 22L57.5 29.5L56 28" stroke="black" stroke-opacity="0.2" stroke-width="2" stroke-linecap="round" stroke-linejoin="round"/>
<path d="M61 18L50 29L45 24M65 22L57.5 29.5L56 28" stroke="black" stroke-opacity="0.2" stroke-width="2" stroke-linecap="round" stroke-linejoin="round"/>
<path d="M61 18L50 29L45 24M65 22L57.5 29.5L56 28" stroke="black" stroke-opacity="0.2" stroke-width="2" stroke-linecap="round" stroke-linejoin="round"/>
<path d="M6.73488 69.096C3.37488 69.096 0.878875 66.68 0.878875 63.4C0.878875 60.12 3.37488 57.704 6.75088 57.704C8.38288 57.704 9.85488 58.248 10.8469 59.336L10.0949 60.088C9.18288 59.16 8.06288 58.76 6.78288 58.76C4.07888 58.76 2.04688 60.744 2.04688 63.4C2.04688 66.056 4.07888 68.04 6.78288 68.04C8.06288 68.04 9.18288 67.64 10.0949 66.696L10.8469 67.448C9.85488 68.536 8.38288 69.096 6.73488 69.096ZM16.1959 69.08C13.7319 69.08 11.9079 67.288 11.9079 64.792C11.9079 62.296 13.7319 60.52 16.1959 60.52C18.6599 60.52 20.4679 62.296 20.4679 64.792C20.4679 67.288 18.6599 69.08 16.1959 69.08ZM16.1959 68.072C17.9879 68.072 19.3159 66.76 19.3159 64.792C19.3159 62.824 17.9879 61.512 16.1959 61.512C14.4039 61.512 13.0599 62.824 13.0599 64.792C13.0599 66.76 14.4039 68.072 16.1959 68.072ZM27.0751 60.52C29.1231 60.52 30.5311 61.704 30.5311 64.12V69H29.3951V64.232C29.3951 62.456 28.4671 61.544 26.8671 61.544C25.0591 61.544 23.9231 62.664 23.9231 64.584V69H22.7871V60.584H23.8751V62.136C24.4831 61.112 25.6191 60.52 27.0751 60.52ZM33.8073 59.544C33.8073 58.04 34.7033 57.048 36.3513 57.048C36.9753 57.048 37.6153 57.224 38.0313 57.576L37.6473 58.424C37.3273 58.152 36.8793 58.008 36.3993 58.008C35.4233 58.008 34.9113 58.552 34.9113 59.592V60.584H37.5033V61.544H34.9433V69H33.8073V61.544H32.3033V60.584H33.8073V59.544ZM40.8953 57.128C41.3593 57.128 41.7273 57.48 41.7273 57.912C41.7273 58.376 41.3753 58.744 40.8953 58.744C40.4313 58.744 40.0633 58.376 40.0633 57.928C40.0633 57.496 40.4313 57.128 40.8953 57.128ZM40.3193 69V60.584H41.4553V69H40.3193ZM45.7189 62.232C46.2469 61.112 47.3189 60.52 48.8709 60.52V61.624C48.7749 61.624 48.6789 61.608 48.5989 61.608C46.8389 61.608 45.7669 62.728 45.7669 64.712V69H44.6309V60.584H45.7189V62.232ZM61.4238 60.52C63.4718 60.52 64.8158 61.704 64.8158 64.12V69H63.6798V64.232C63.6798 62.456 62.7838 61.544 61.2638 61.544C59.5358 61.544 58.4478 62.664 58.4478 64.584V69H57.3118V64.232C57.3118 62.456 56.4158 61.544 54.8798 61.544C53.1678 61.544 52.0638 62.664 52.0638 64.584V69H50.9278V60.584H52.0158V62.12C52.6078 61.112 53.6958 60.52 55.1038 60.52C56.4958 60.52 57.5838 61.112 58.0958 62.296C58.7038 61.208 59.9038 60.52 61.4238 60.52ZM70.8405 60.52C73.0165 60.52 74.2485 61.608 74.2485 63.784V69H73.1605V67.688C72.6485 68.552 71.6565 69.08 70.2645 69.08C68.3605 69.08 67.1925 68.088 67.1925 66.632C67.1925 65.336 68.0245 64.248 70.4405 64.248H73.1125V63.736C73.1125 62.296 72.2965 61.512 70.7285 61.512C69.6405 61.512 68.6165 61.896 67.9285 62.504L67.4165 61.656C68.2645 60.936 69.5125 60.52 70.8405 60.52ZM70.4405 68.184C71.7205 68.184 72.6645 67.576 73.1125 66.472V65.096H70.4725C68.8405 65.096 68.3125 65.736 68.3125 66.6C68.3125 67.576 69.0965 68.184 70.4405 68.184ZM80.8533 69.08C78.3413 69.08 76.5173 67.304 76.5173 64.792C76.5173 62.28 78.3413 60.52 80.8533 60.52C82.2773 60.52 83.4773 61.08 84.1493 62.184L83.3013 62.76C82.7253 61.912 81.8293 61.512 80.8533 61.512C79.0133 61.512 77.6693 62.824 77.6693 64.792C77.6693 66.776 79.0133 68.072 80.8533 68.072C81.8293 68.072 82.7253 67.688 83.3013 66.84L84.1493 67.416C83.4773 68.504 82.2773 69.08 80.8533 69.08ZM86.9569 58.744C86.4929 58.744 86.1249 58.376 86.1249 57.928C86.1249 57.496 86.4929 57.128 86.9569 57.128C87.4209 57.128 87.7889 57.48 87.7889 57.912C87.7889 58.376 87.4369 58.744 86.9569 58.744ZM86.3809 69V60.584H87.5169V69H86.3809ZM93.0618 59.288L95.2538 57.304H96.7738L94.1818 59.288H93.0618ZM94.1178 69.08C91.6538 69.08 89.8298 67.288 89.8298 64.792C89.8298 62.296 91.6538 60.52 94.1178 60.52C96.5818 60.52 98.3898 62.296 98.3898 64.792C98.3898 67.288 96.5818 69.08 94.1178 69.08ZM94.1178 68.072C95.9098 68.072 97.2378 66.76 97.2378 64.792C97.2378 62.824 95.9098 61.512 94.1178 61.512C92.3258 61.512 90.9818 62.824 90.9818 64.792C90.9818 66.76 92.3258 68.072 94.1178 68.072ZM104.997 60.52C107.045 60.52 108.453 61.704 108.453 64.12V69H107.317V64.232C107.317 62.456 106.389 61.544 104.789 61.544C102.981 61.544 101.845 62.664 101.845 64.584V69H100.709V60.584H101.797V62.136C102.405 61.112 103.541 60.52 104.997 60.52Z" fill="black"/>
</g>
</svg>
