<svg width="110" height="74" viewBox="0 0 110 74" fill="none" xmlns="http://www.w3.org/2000/svg">
<g opacity="0.3">
<rect x="31.5" y="0.5" width="47" height="47" rx="23.5" stroke="black"/>
<rect x="31.5" y="0.5" width="47" height="47" rx="23.5" stroke="black" stroke-opacity="0.2"/>
<rect x="31.5" y="0.5" width="47" height="47" rx="23.5" stroke="black" stroke-opacity="0.2"/>
<rect x="31.5" y="0.5" width="47" height="47" rx="23.5" stroke="black" stroke-opacity="0.2"/>
<rect x="31.5" y="0.5" width="47" height="47" rx="23.5" stroke="black" stroke-opacity="0.2"/>
<rect x="31.5" y="0.5" width="47" height="47" rx="23.5" stroke="black" stroke-opacity="0.2"/>
<path d="M63 22C63 28 55 34 55 34C55 34 47 28 47 22C47 19.8783 47.8429 17.8434 49.3431 16.3431C50.8434 14.8429 52.8783 14 55 14C57.1217 14 59.1566 14.8429 60.6569 16.3431C62.1571 17.8434 63 19.8783 63 22Z" stroke="black" stroke-width="2" stroke-linecap="round" stroke-linejoin="round"/>
<path d="M63 22C63 28 55 34 55 34C55 34 47 28 47 22C47 19.8783 47.8429 17.8434 49.3431 16.3431C50.8434 14.8429 52.8783 14 55 14C57.1217 14 59.1566 14.8429 60.6569 16.3431C62.1571 17.8434 63 19.8783 63 22Z" stroke="black" stroke-opacity="0.2" stroke-width="2" stroke-linecap="round" stroke-linejoin="round"/>
<path d="M63 22C63 28 55 34 55 34C55 34 47 28 47 22C47 19.8783 47.8429 17.8434 49.3431 16.3431C50.8434 14.8429 52.8783 14 55 14C57.1217 14 59.1566 14.8429 60.6569 16.3431C62.1571 17.8434 63 19.8783 63 22Z" stroke="black" stroke-opacity="0.2" stroke-width="2" stroke-linecap="round" stroke-linejoin="round"/>
<path d="M63 22C63 28 55 34 55 34C55 34 47 28 47 22C47 19.8783 47.8429 17.8434 49.3431 16.3431C50.8434 14.8429 52.8783 14 55 14C57.1217 14 59.1566 14.8429 60.6569 16.3431C62.1571 17.8434 63 19.8783 63 22Z" stroke="black" stroke-opacity="0.2" stroke-width="2" stroke-linecap="round" stroke-linejoin="round"/>
<path d="M63 22C63 28 55 34 55 34C55 34 47 28 47 22C47 19.8783 47.8429 17.8434 49.3431 16.3431C50.8434 14.8429 52.8783 14 55 14C57.1217 14 59.1566 14.8429 60.6569 16.3431C62.1571 17.8434 63 19.8783 63 22Z" stroke="black" stroke-opacity="0.2" stroke-width="2" stroke-linecap="round" stroke-linejoin="round"/>
<path d="M63 22C63 28 55 34 55 34C55 34 47 28 47 22C47 19.8783 47.8429 17.8434 49.3431 16.3431C50.8434 14.8429 52.8783 14 55 14C57.1217 14 59.1566 14.8429 60.6569 16.3431C62.1571 17.8434 63 19.8783 63 22Z" stroke="black" stroke-opacity="0.2" stroke-width="2" stroke-linecap="round" stroke-linejoin="round"/>
<path d="M55 25C56.6569 25 58 23.6569 58 22C58 20.3431 56.6569 19 55 19C53.3431 19 52 20.3431 52 22C52 23.6569 53.3431 25 55 25Z" stroke="black" stroke-width="2" stroke-linecap="round" stroke-linejoin="round"/>
<path d="M55 25C56.6569 25 58 23.6569 58 22C58 20.3431 56.6569 19 55 19C53.3431 19 52 20.3431 52 22C52 23.6569 53.3431 25 55 25Z" stroke="black" stroke-opacity="0.2" stroke-width="2" stroke-linecap="round" stroke-linejoin="round"/>
<path d="M55 25C56.6569 25 58 23.6569 58 22C58 20.3431 56.6569 19 55 19C53.3431 19 52 20.3431 52 22C52 23.6569 53.3431 25 55 25Z" stroke="black" stroke-opacity="0.2" stroke-width="2" stroke-linecap="round" stroke-linejoin="round"/>
<path d="M55 25C56.6569 25 58 23.6569 58 22C58 20.3431 56.6569 19 55 19C53.3431 19 52 20.3431 52 22C52 23.6569 53.3431 25 55 25Z" stroke="black" stroke-opacity="0.2" stroke-width="2" stroke-linecap="round" stroke-linejoin="round"/>
<path d="M55 25C56.6569 25 58 23.6569 58 22C58 20.3431 56.6569 19 55 19C53.3431 19 52 20.3431 52 22C52 23.6569 53.3431 25 55 25Z" stroke="black" stroke-opacity="0.2" stroke-width="2" stroke-linecap="round" stroke-linejoin="round"/>
<path d="M55 25C56.6569 25 58 23.6569 58 22C58 20.3431 56.6569 19 55 19C53.3431 19 52 20.3431 52 22C52 23.6569 53.3431 25 55 25Z" stroke="black" stroke-opacity="0.2" stroke-width="2" stroke-linecap="round" stroke-linejoin="round"/>
<path d="M35.8205 67.976H42.5565V69H34.6365V57.8H42.3165V58.824H35.8205V62.808H41.6125V63.816H35.8205V67.976ZM49.3876 60.52C51.4356 60.52 52.8436 61.704 52.8436 64.12V69H51.7076V64.232C51.7076 62.456 50.7796 61.544 49.1796 61.544C47.3716 61.544 46.2356 62.664 46.2356 64.584V69H45.0996V60.584H46.1876V62.136C46.7956 61.112 47.9316 60.52 49.3876 60.52ZM61.7235 60.584H62.8435L59.0995 69H57.9315L54.2035 60.584H55.3875L58.5395 67.752L61.7235 60.584ZM63.9794 59.288L66.1714 57.304H67.6914L65.0994 59.288H63.9794ZM64.4434 69V60.584H65.5794V69H64.4434ZM72.1803 69.08C69.7163 69.08 67.8923 67.288 67.8923 64.792C67.8923 62.296 69.7163 60.52 72.1803 60.52C74.6443 60.52 76.4523 62.296 76.4523 64.792C76.4523 67.288 74.6443 69.08 72.1803 69.08ZM72.1803 68.072C73.9723 68.072 75.3003 66.76 75.3003 64.792C75.3003 62.824 73.9723 61.512 72.1803 61.512C70.3883 61.512 69.0443 62.824 69.0443 64.792C69.0443 66.76 70.3883 68.072 72.1803 68.072Z" fill="black"/>
</g>
</svg>
