<svg width="72" height="6" viewBox="0 0 72 6" fill="none" xmlns="http://www.w3.org/2000/svg">
<path d="M0.001302 2.66667C0.001302 4.13943 1.19521 5.33334 2.66797 5.33334C4.14073 5.33334 5.33464 4.13943 5.33464 2.66667C5.33464 1.19391 4.14073 5.00679e-06 2.66797 5.00679e-06C1.19521 5.00679e-06 0.001302 1.19391 0.001302 2.66667ZM66.0013 2.66667C66.0013 4.13943 67.1952 5.33334 68.668 5.33334C70.1407 5.33334 71.3346 4.13943 71.3346 2.66667C71.3346 1.19391 70.1407 5.00679e-06 68.668 5.00679e-06C67.1952 5.00679e-06 66.0013 1.19391 66.0013 2.66667ZM2.66797 2.66667V3.16667H68.668V2.66667V2.16667H2.66797V2.66667Z" fill="#66862E"/>
</svg>
