<svg width="110" height="74" viewBox="0 0 110 74" fill="none" xmlns="http://www.w3.org/2000/svg">
<g opacity="0.3">
<rect x="31.5" y="0.5" width="47" height="47" rx="23.5" stroke="black"/>
<rect x="31.5" y="0.5" width="47" height="47" rx="23.5" stroke="black" stroke-opacity="0.2"/>
<rect x="31.5" y="0.5" width="47" height="47" rx="23.5" stroke="black" stroke-opacity="0.2"/>
<rect x="31.5" y="0.5" width="47" height="47" rx="23.5" stroke="black" stroke-opacity="0.2"/>
<rect x="31.5" y="0.5" width="47" height="47" rx="23.5" stroke="black" stroke-opacity="0.2"/>
<rect x="31.5" y="0.5" width="47" height="47" rx="23.5" stroke="black" stroke-opacity="0.2"/>
<path d="M50 22V19C50 17.6739 50.5268 16.4021 51.4645 15.4645C52.4021 14.5268 53.6739 14 55 14C56.3261 14 57.5979 14.5268 58.5355 15.4645C59.4732 16.4021 60 17.6739 60 19V22M56 28C56 28.5523 55.5523 29 55 29C54.4477 29 54 28.5523 54 28C54 27.4477 54.4477 27 55 27C55.5523 27 56 27.4477 56 28ZM48 22H62C63.1046 22 64 22.8954 64 24V32C64 33.1046 63.1046 34 62 34H48C46.8954 34 46 33.1046 46 32V24C46 22.8954 46.8954 22 48 22Z" stroke="black" stroke-width="2" stroke-linecap="round" stroke-linejoin="round"/>
<path d="M50 22V19C50 17.6739 50.5268 16.4021 51.4645 15.4645C52.4021 14.5268 53.6739 14 55 14C56.3261 14 57.5979 14.5268 58.5355 15.4645C59.4732 16.4021 60 17.6739 60 19V22M56 28C56 28.5523 55.5523 29 55 29C54.4477 29 54 28.5523 54 28C54 27.4477 54.4477 27 55 27C55.5523 27 56 27.4477 56 28ZM48 22H62C63.1046 22 64 22.8954 64 24V32C64 33.1046 63.1046 34 62 34H48C46.8954 34 46 33.1046 46 32V24C46 22.8954 46.8954 22 48 22Z" stroke="black" stroke-opacity="0.2" stroke-width="2" stroke-linecap="round" stroke-linejoin="round"/>
<path d="M50 22V19C50 17.6739 50.5268 16.4021 51.4645 15.4645C52.4021 14.5268 53.6739 14 55 14C56.3261 14 57.5979 14.5268 58.5355 15.4645C59.4732 16.4021 60 17.6739 60 19V22M56 28C56 28.5523 55.5523 29 55 29C54.4477 29 54 28.5523 54 28C54 27.4477 54.4477 27 55 27C55.5523 27 56 27.4477 56 28ZM48 22H62C63.1046 22 64 22.8954 64 24V32C64 33.1046 63.1046 34 62 34H48C46.8954 34 46 33.1046 46 32V24C46 22.8954 46.8954 22 48 22Z" stroke="black" stroke-opacity="0.2" stroke-width="2" stroke-linecap="round" stroke-linejoin="round"/>
<path d="M50 22V19C50 17.6739 50.5268 16.4021 51.4645 15.4645C52.4021 14.5268 53.6739 14 55 14C56.3261 14 57.5979 14.5268 58.5355 15.4645C59.4732 16.4021 60 17.6739 60 19V22M56 28C56 28.5523 55.5523 29 55 29C54.4477 29 54 28.5523 54 28C54 27.4477 54.4477 27 55 27C55.5523 27 56 27.4477 56 28ZM48 22H62C63.1046 22 64 22.8954 64 24V32C64 33.1046 63.1046 34 62 34H48C46.8954 34 46 33.1046 46 32V24C46 22.8954 46.8954 22 48 22Z" stroke="black" stroke-opacity="0.2" stroke-width="2" stroke-linecap="round" stroke-linejoin="round"/>
<path d="M50 22V19C50 17.6739 50.5268 16.4021 51.4645 15.4645C52.4021 14.5268 53.6739 14 55 14C56.3261 14 57.5979 14.5268 58.5355 15.4645C59.4732 16.4021 60 17.6739 60 19V22M56 28C56 28.5523 55.5523 29 55 29C54.4477 29 54 28.5523 54 28C54 27.4477 54.4477 27 55 27C55.5523 27 56 27.4477 56 28ZM48 22H62C63.1046 22 64 22.8954 64 24V32C64 33.1046 63.1046 34 62 34H48C46.8954 34 46 33.1046 46 32V24C46 22.8954 46.8954 22 48 22Z" stroke="black" stroke-opacity="0.2" stroke-width="2" stroke-linecap="round" stroke-linejoin="round"/>
<path d="M50 22V19C50 17.6739 50.5268 16.4021 51.4645 15.4645C52.4021 14.5268 53.6739 14 55 14C56.3261 14 57.5979 14.5268 58.5355 15.4645C59.4732 16.4021 60 17.6739 60 19V22M56 28C56 28.5523 55.5523 29 55 29C54.4477 29 54 28.5523 54 28C54 27.4477 54.4477 27 55 27C55.5523 27 56 27.4477 56 28ZM48 22H62C63.1046 22 64 22.8954 64 24V32C64 33.1046 63.1046 34 62 34H48C46.8954 34 46 33.1046 46 32V24C46 22.8954 46.8954 22 48 22Z" stroke="black" stroke-opacity="0.2" stroke-width="2" stroke-linecap="round" stroke-linejoin="round"/>
<path d="M40.1566 57.8C43.0046 57.8 44.7326 59.24 44.7326 61.64C44.7326 64.024 43.0046 65.464 40.1566 65.464H37.1486V69H35.9646V57.8H40.1566ZM40.1246 64.424C42.3646 64.424 43.5486 63.4 43.5486 61.64C43.5486 59.848 42.3646 58.824 40.1246 58.824H37.1486V64.424H40.1246ZM49.9186 60.52C52.0946 60.52 53.3266 61.608 53.3266 63.784V69H52.2386V67.688C51.7266 68.552 50.7346 69.08 49.3426 69.08C47.4386 69.08 46.2706 68.088 46.2706 66.632C46.2706 65.336 47.1026 64.248 49.5186 64.248H52.1906V63.736C52.1906 62.296 51.3746 61.512 49.8066 61.512C48.7186 61.512 47.6946 61.896 47.0066 62.504L46.4946 61.656C47.3426 60.936 48.5906 60.52 49.9186 60.52ZM49.5186 68.184C50.7986 68.184 51.7426 67.576 52.1906 66.472V65.096H49.5506C47.9186 65.096 47.3906 65.736 47.3906 66.6C47.3906 67.576 48.1746 68.184 49.5186 68.184ZM63.1474 60.584H64.2354V67.976C64.2354 70.872 62.8114 72.184 60.0274 72.184C58.4914 72.184 56.9874 71.72 56.1074 70.888L56.6834 70.024C57.4834 70.744 58.6994 71.176 59.9954 71.176C62.1234 71.176 63.0994 70.2 63.0994 68.12V67.048C62.3954 68.12 61.1954 68.68 59.8194 68.68C57.4194 68.68 55.5954 67 55.5954 64.584C55.5954 62.168 57.4194 60.52 59.8194 60.52C61.2274 60.52 62.4434 61.096 63.1474 62.2V60.584ZM59.9314 67.672C61.7874 67.672 63.1314 66.408 63.1314 64.584C63.1314 62.76 61.7874 61.512 59.9314 61.512C58.0754 61.512 56.7474 62.76 56.7474 64.584C56.7474 66.408 58.0754 67.672 59.9314 67.672ZM70.8521 69.08C68.3881 69.08 66.5641 67.288 66.5641 64.792C66.5641 62.296 68.3881 60.52 70.8521 60.52C73.3161 60.52 75.1241 62.296 75.1241 64.792C75.1241 67.288 73.3161 69.08 70.8521 69.08ZM70.8521 68.072C72.6441 68.072 73.9721 66.76 73.9721 64.792C73.9721 62.824 72.6441 61.512 70.8521 61.512C69.0601 61.512 67.7161 62.824 67.7161 64.792C67.7161 66.76 69.0601 68.072 70.8521 68.072Z" fill="black"/>
</g>
</svg>
