<svg width="1440" height="812" viewBox="0 0 1440 812" fill="none" xmlns="http://www.w3.org/2000/svg">
<path d="M93.6148 0.265381C33.4339 -4.57117 23.4037 58.3041 0 58.3041L0 811.5L1441 811.5V53.4675C1417.6 53.4675 1390.85 0.265381 1354.07 0.265381C1317.29 0.265381 1303.92 53.4675 1263.8 53.4675C1223.68 53.4675 1210.31 0.265381 1176.87 0.265381C1143.44 0.265381 1130.06 48.631 1086.6 53.4675C1043.14 58.3041 1033.11 0.265381 992.986 0.265381C952.865 0.265381 949.522 53.4675 902.715 53.4675C855.907 53.4675 869.281 0.265381 819.13 0.265381C768.979 0.265381 772.323 53.4675 725.515 53.4675C678.708 53.4675 672.021 0.265381 638.587 0.265381C605.153 0.265381 588.436 53.4675 544.972 53.4675C501.508 53.4675 494.821 0.265381 454.701 0.265381C414.58 0.265381 411.237 58.3041 367.773 58.3041C324.309 58.3041 317.622 0.265381 277.501 0.265381C237.381 0.265381 227.35 58.3041 183.886 58.3041C140.422 58.3041 153.796 5.10193 93.6148 0.265381Z" fill="#EDEDED"/>
</svg>
