<svg width="399" height="212" viewBox="0 0 399 212" fill="none" xmlns="http://www.w3.org/2000/svg">
<path d="M298.007 104.758H291.115V102.957H306.934V104.758H300.043V122.509H297.978V104.758H298.007Z" fill="white"/>
<path d="M309 103.189C309 102.434 309.64 101.795 310.454 101.795C311.268 101.795 311.908 102.405 311.908 103.16C311.908 103.974 311.297 104.613 310.454 104.613C309.611 104.613 309 103.974 309 103.189ZM309.465 107.809H311.443V122.509H309.465V107.809Z" fill="white"/>
<path d="M331.885 115.159C331.885 119.633 328.744 122.655 324.557 122.655C322.201 122.655 320.195 121.638 318.974 119.749V127.942H316.996V107.838H318.886V110.743C320.079 108.796 322.143 107.721 324.557 107.721C328.744 107.721 331.885 110.743 331.885 115.188V115.159ZM329.907 115.159C329.907 111.76 327.523 109.435 324.44 109.435C321.358 109.435 318.974 111.76 318.974 115.159C318.974 118.558 321.329 120.882 324.44 120.882C327.552 120.882 329.907 118.587 329.907 115.159Z" fill="white"/>
<path d="M333.92 120.824L334.821 119.255C335.985 120.185 337.991 120.911 340.056 120.911C342.847 120.911 344.011 119.953 344.011 118.5C344.011 114.665 334.472 117.687 334.472 111.876C334.472 109.465 336.537 107.692 340.288 107.692C342.178 107.692 344.272 108.215 345.494 109.058L344.621 110.656C343.342 109.755 341.8 109.406 340.288 109.406C337.642 109.406 336.45 110.452 336.45 111.847C336.45 115.827 345.988 112.835 345.988 118.471C345.988 121.028 343.749 122.655 339.91 122.655C337.468 122.655 335.141 121.87 333.92 120.853V120.824Z" fill="white"/>
<path d="M351.339 121.115C351.339 121.58 351.223 121.957 350.961 122.742L349.798 126.606H348.461L349.42 122.567C348.839 122.393 348.402 121.87 348.402 121.144C348.402 120.272 349.042 119.633 349.885 119.633C350.729 119.633 351.368 120.301 351.368 121.144L351.339 121.115Z" fill="white"/>
<path d="M307.313 144.735V153.247H305.336V144.938C305.336 141.83 303.707 140.261 300.916 140.261C297.746 140.261 295.768 142.207 295.768 145.577V153.277H293.791V138.576H295.681V141.278C296.757 139.476 298.735 138.459 301.264 138.459C304.841 138.459 307.313 140.522 307.313 144.735Z" fill="white"/>
<path d="M311.297 145.897C311.297 141.539 314.496 138.43 318.799 138.43C323.103 138.43 326.273 141.539 326.273 145.897C326.273 150.255 323.103 153.393 318.799 153.393C314.496 153.393 311.297 150.255 311.297 145.897ZM324.237 145.897C324.237 142.469 321.911 140.174 318.799 140.174C315.688 140.174 313.332 142.469 313.332 145.897C313.332 149.325 315.688 151.62 318.799 151.62C321.911 151.62 324.237 149.325 324.237 145.897Z" fill="white"/>
<path d="M338.079 152.347C337.294 153.044 336.131 153.393 334.968 153.393C332.205 153.393 330.664 151.824 330.664 149.122V140.232H328.047V138.547H330.664V135.322H332.641V138.547H337.12V140.232H332.641V149.006C332.641 150.749 333.543 151.679 335.171 151.679C335.986 151.679 336.8 151.417 337.352 150.923L338.05 152.347H338.079Z" fill="white"/>
<path d="M341.248 133.927C341.248 133.172 341.888 132.533 342.702 132.533C343.516 132.533 344.156 133.143 344.156 133.898C344.156 134.712 343.545 135.351 342.702 135.351C341.859 135.351 341.248 134.712 341.248 133.927ZM341.684 138.547H343.662V153.247H341.684V138.547Z" fill="white"/>
<path d="M347.732 145.897C347.732 141.51 350.931 138.43 355.293 138.43C357.794 138.43 359.888 139.418 361.051 141.336L359.568 142.353C358.55 140.871 357.009 140.174 355.293 140.174C352.065 140.174 349.739 142.469 349.739 145.897C349.739 149.325 352.094 151.62 355.293 151.62C357.009 151.62 358.55 150.952 359.568 149.471L361.051 150.487C359.888 152.376 357.794 153.393 355.293 153.393C350.902 153.393 347.732 150.284 347.732 145.897Z" fill="white"/>
<path d="M364.512 133.927C364.512 133.172 365.151 132.533 365.966 132.533C366.78 132.533 367.42 133.143 367.42 133.898C367.42 134.712 366.809 135.351 365.966 135.351C365.122 135.351 364.512 134.712 364.512 133.927ZM364.948 138.547H366.925V153.247H364.948V138.547Z" fill="white"/>
<path d="M383.588 144.154V153.247H381.697V150.952C380.796 152.463 379.08 153.393 376.638 153.393C373.322 153.393 371.258 151.65 371.258 149.122C371.258 146.856 372.712 144.967 376.928 144.967H381.61V144.067C381.61 141.539 380.185 140.174 377.452 140.174C375.562 140.174 373.759 140.842 372.566 141.917L371.665 140.435C373.148 139.186 375.329 138.459 377.655 138.459C381.465 138.459 383.617 140.348 383.617 144.154H383.588ZM381.61 148.831V146.42H376.986C374.137 146.42 373.206 147.524 373.206 149.035C373.206 150.749 374.573 151.795 376.928 151.795C379.284 151.795 380.825 150.72 381.61 148.802V148.831Z" fill="white"/>
<path d="M386.961 151.562L387.862 149.994C389.026 150.923 391.032 151.65 393.097 151.65C395.888 151.65 397.051 150.691 397.051 149.238C397.051 145.403 387.513 148.425 387.513 142.614C387.513 140.203 389.578 138.43 393.329 138.43C395.219 138.43 397.313 138.953 398.535 139.796L397.662 141.394C396.383 140.493 394.841 140.145 393.329 140.145C390.683 140.145 389.491 141.19 389.491 142.585C389.491 146.565 399.029 143.573 399.029 149.209C399.029 151.766 396.79 153.393 392.951 153.393C390.509 153.393 388.182 152.608 386.961 151.591V151.562Z" fill="white"/>
<path d="M306.149 169.314L298.792 185.758C297.571 188.634 296.001 189.564 293.907 189.564C292.54 189.564 291.232 189.128 290.33 188.227L291.261 186.746C291.988 187.472 292.889 187.85 293.936 187.85C295.245 187.85 296.146 187.24 296.989 185.38L297.629 183.957L291.057 169.285H293.122L298.647 181.778L304.172 169.285H306.12L306.149 169.314Z" fill="white"/>
<path d="M340.551 175.473V183.986H338.574V175.676C338.574 172.568 337.004 170.999 334.357 170.999C331.333 170.999 329.443 172.945 329.443 176.316V184.015H327.466V175.705C327.466 172.597 325.895 171.028 323.22 171.028C320.225 171.028 318.306 172.974 318.306 176.345V184.044H316.328V169.343H318.218V172.016C319.265 170.243 321.155 169.227 323.627 169.227C326.099 169.227 327.96 170.273 328.861 172.335C329.937 170.447 332.031 169.227 334.677 169.227C338.254 169.227 340.61 171.289 340.61 175.502L340.551 175.473Z" fill="white"/>
<path d="M357.068 174.892V183.986H355.178V181.69C354.276 183.201 352.561 184.131 350.118 184.131C346.803 184.131 344.738 182.388 344.738 179.86C344.738 177.594 346.192 175.706 350.409 175.706H355.091V174.805C355.091 172.277 353.666 170.912 350.932 170.912C349.042 170.912 347.239 171.58 346.047 172.655L345.145 171.173C346.628 169.924 348.809 169.198 351.136 169.198C354.945 169.198 357.097 171.086 357.097 174.892H357.068ZM355.091 179.57V177.158H350.467C347.617 177.158 346.687 178.262 346.687 179.773C346.687 181.487 348.053 182.533 350.409 182.533C352.764 182.533 354.305 181.458 355.091 179.541V179.57ZM351.31 167.048H349.362L353.2 163.59H355.847L351.31 167.048Z" fill="white"/>
<path d="M360.441 182.33L361.343 180.761C362.506 181.69 364.513 182.417 366.577 182.417C369.369 182.417 370.532 181.458 370.532 180.005C370.532 176.17 360.994 179.192 360.994 173.381C360.994 170.97 363.059 169.198 366.81 169.198C368.7 169.198 370.794 169.721 372.015 170.563L371.143 172.161C369.863 171.26 368.322 170.912 366.81 170.912C364.164 170.912 362.971 171.958 362.971 173.352C362.971 177.332 372.509 174.34 372.509 179.976C372.509 182.533 370.27 184.16 366.432 184.16C363.989 184.16 361.663 183.375 360.441 182.359V182.33Z" fill="white"/>
<path d="M374.863 182.591C374.863 181.719 375.532 181.08 376.346 181.08C377.161 181.08 377.858 181.719 377.858 182.591C377.858 183.463 377.161 184.131 376.346 184.131C375.532 184.131 374.863 183.463 374.863 182.591Z" fill="white"/>
<path d="M29.9524 78.7846C30.3596 75.182 31.3773 71.6375 33.0058 68.1802C34.6342 64.7229 36.6698 61.7885 39.1125 59.4062C40.7991 57.8664 42.7765 57.2563 44.9866 57.6049C47.1966 57.9535 48.8541 59.1157 49.9592 61.0913C53.3905 66.989 54.4374 73.2354 53.0416 79.8014C52.4018 82.2419 52.2564 84.1303 52.5763 85.4958C52.8089 86.687 53.4196 87.791 54.4374 88.866C55.4552 89.9409 55.9786 90.8125 56.0368 91.5098C56.2985 93.1368 55.8041 94.2698 54.5537 94.9381C53.3324 95.5772 51.8784 95.432 50.2209 94.4732C49.3485 94.0084 48.7378 93.805 48.3598 93.8631C47.9817 93.9212 47.4874 94.357 46.8476 95.1124C44.7539 97.64 42.5439 99.0636 40.2175 99.3541C36.379 99.8771 33.4711 97.8434 31.4646 93.1949C29.4581 88.5754 28.9347 83.7817 29.9234 78.8136L29.9524 78.7846ZM40.9445 90.8416C43.3581 88.6335 45.0447 84.5661 46.0334 78.5812C46.964 73.6422 46.6441 69.8072 45.1029 67.0762C44.6376 66.3208 44.1142 65.9431 43.5326 65.885C42.951 65.8269 42.3694 66.1755 41.7878 66.9309C39.4324 70.4173 37.833 74.3976 37.0188 78.9298C35.9719 84.2756 36.3499 88.2268 38.1238 90.7835C38.9671 91.7713 39.8976 91.8003 40.9445 90.8125V90.8416Z" fill="white"/>
<path d="M71.5645 86.3093C69.9942 88.2268 68.2204 89.2436 66.1848 89.3308C64.1492 89.418 62.2882 88.5754 60.5434 86.8322C57.7227 83.404 56.5013 78.9879 56.8212 73.5841C57.1411 68.1802 58.7114 63.2702 61.4739 58.8251C62.4336 57.3725 63.5386 56.1232 64.789 55.1354C66.621 53.9733 68.3367 54.0604 69.9942 55.3678C70.6921 55.9779 71.4773 56.3847 72.3206 56.588C73.6873 57.0238 74.7923 58.186 75.6066 60.0163C76.4208 61.8757 76.857 63.8513 76.9152 65.9431C76.9152 75.0948 75.1122 81.8642 71.5354 86.2802L71.5645 86.3093ZM66.0103 82.0094C67.1154 81.9804 68.1041 80.6149 68.9474 77.913C69.7907 75.211 70.285 72.2767 70.4013 69.0518C70.5177 65.856 70.2559 63.6189 69.5871 62.3405C68.7438 60.9169 67.6679 61.1494 66.3884 63.0378C63.4513 68.3836 62.4336 73.4679 63.3641 78.2907C63.8585 80.8183 64.7308 82.0675 65.9813 81.9804L66.0103 82.0094Z" fill="white"/>
<path d="M93.0559 89.8829C90.1188 91.6551 87.24 91.8294 84.4192 90.4058C81.5694 88.9532 79.8538 86.4256 79.3012 82.823C78.6324 78.465 79.0977 73.1483 80.6389 66.8729C82.1801 60.5974 84.2157 56.2104 86.7747 53.6828C89.5954 50.7484 92.6487 50.4869 95.9056 52.8984C97.0688 53.828 97.9703 54.9611 98.61 56.2395C99.2207 57.5178 99.3952 58.6509 99.1335 59.6387C98.8136 60.7427 98.1157 61.4399 97.0397 61.7305C95.9638 62.021 95.0042 61.7886 94.1318 61.0041C93.841 60.7136 93.492 60.2778 93.0849 59.6677C92.6778 59.0576 92.2416 58.738 91.7473 58.6509C90.0025 58.6509 88.374 61.8467 86.891 68.2674C85.4079 74.6881 85.059 79.3657 85.8441 82.2419C86.164 83.5784 86.8038 84.3628 87.7925 84.6243C88.7812 84.8857 89.7408 84.508 90.7295 83.4912C91.1948 82.9392 91.9799 81.8061 93.0559 80.121C94.1318 78.436 94.8006 77.4772 95.0333 77.2448C95.7602 76.6928 96.5163 76.4894 97.3596 76.5766C98.2029 76.6928 98.8427 77.0705 99.337 77.7387C100.413 79.1042 100.122 81.167 98.4646 83.8979C96.8071 86.6289 95.0042 88.6336 93.0849 89.8538L93.0559 89.8829Z" fill="white"/>
<path d="M103.379 79.1913C103.99 75.9955 104.629 71.5504 105.298 65.8851L106.229 57.4016C106.723 55.455 107.77 54.5253 109.369 54.6125C111.405 54.6125 112.394 56.3847 112.306 59.9001C112.306 61.2947 112.19 62.8345 112.016 64.4905C111.841 66.1465 111.667 67.5701 111.521 68.7323C111.376 69.8944 111.143 71.4342 110.823 73.3226C110.503 75.2111 110.271 76.6637 110.125 77.7096C109.398 82.7939 108.875 85.7573 108.497 86.5999C107.915 88.1687 106.956 88.8369 105.56 88.6336C103.321 88.4883 102.448 86.3674 102.943 82.3C103.001 82.0095 103.146 80.9636 103.408 79.1623L103.379 79.1913Z" fill="white"/>
<path d="M119.11 78.3488C117.453 78.2616 116.464 77.3319 116.144 75.5888C116.028 74.9786 116.144 73.2355 116.435 70.4173C116.755 67.5992 117.104 64.9844 117.511 62.573C117.627 61.6724 117.802 60.365 118.063 58.6218C118.325 56.8786 118.529 55.5712 118.674 54.6706C118.82 53.7699 119.023 52.6369 119.285 51.2423C119.546 49.8478 119.779 48.7728 120.012 47.9884C120.244 47.2039 120.506 46.4195 120.826 45.606C121.146 44.7925 121.495 44.1824 121.873 43.7757C122.251 43.3689 122.716 43.1365 123.211 43.0494C124.316 42.7298 125.362 42.9912 126.351 43.8628C127.805 45.054 129.695 48.5113 132.022 54.2348L133.388 57.1982C134.028 58.3603 134.668 58.8833 135.337 58.738C135.453 58.738 135.569 58.6799 135.657 58.6218C135.773 58.5637 135.86 58.4765 135.947 58.3603C136.035 58.215 136.093 58.0988 136.151 58.0117C136.18 57.9245 136.238 57.7502 136.325 57.5468C136.413 57.3144 136.471 57.1401 136.529 56.9367C136.587 56.7624 136.645 56.5009 136.674 56.1523C136.732 55.8327 136.762 55.5422 136.82 55.2807C136.849 55.0483 136.907 54.6996 136.965 54.2348C137.023 53.7699 137.081 53.4213 137.14 53.1017C138.186 46.5938 139.204 42.7298 140.251 41.4805C140.775 40.8994 141.414 40.5508 142.141 40.4055C142.868 40.2603 143.595 40.4055 144.322 40.8994C145.049 41.3643 145.485 42.0616 145.602 42.9622C145.689 43.398 145.602 44.1243 145.398 45.1121C144.148 49.3248 142.868 55.9489 141.502 65.0134C140.978 68.616 140.571 71.0565 140.367 72.3058C140.048 73.7584 139.291 74.601 138.041 74.8334C136.732 75.0949 135.54 74.6591 134.406 73.6131C134.057 73.2645 133.708 72.8868 133.388 72.451C133.068 72.0152 132.72 71.3761 132.312 70.5045C131.905 69.6619 131.527 68.7903 131.178 67.9769C130.8 67.1343 130.219 65.8269 129.404 63.9966C128.59 62.1663 127.776 60.394 126.991 58.6799C126.642 58.1569 126.206 57.9245 125.682 58.0117C125.13 58.0988 124.81 58.3894 124.664 58.9414C123.705 62.5149 122.92 67.6573 122.28 74.4266C122.018 77.0995 120.971 78.3778 119.081 78.2616L119.11 78.3488Z" fill="white"/>
<path d="M164.212 78.3778C163.863 78.3778 163.573 78.3778 163.34 78.3197C163.107 78.2907 162.875 78.2035 162.642 78.0583C162.409 77.9421 162.235 77.7968 162.09 77.6806C161.944 77.5644 161.799 77.361 161.653 77.0705C161.508 76.7799 161.421 76.5475 161.363 76.3732C161.304 76.1989 161.217 75.9083 161.101 75.5016C160.984 75.0949 160.926 74.7753 160.868 74.5719L160.665 73.4679L160.461 72.3348C160.316 71.0274 159.618 70.4173 158.367 70.5626L152.9 71.347C152.057 71.5213 151.417 72.1315 150.981 73.2064C149.324 77.361 148.277 79.7143 147.87 80.2663C146.852 81.3413 145.631 81.5737 144.235 80.9636C142.345 80.2082 141.996 78.3778 143.188 75.4725L148.015 62.3115C149.12 59.2319 150.778 55.6003 152.959 51.3585C155.169 47.1168 156.884 44.4439 158.135 43.3399C159.327 42.294 160.548 41.9163 161.828 42.2359C163.078 42.5555 163.951 43.4271 164.474 44.8507C164.997 46.4486 165.637 51.5038 166.306 60.0163C167.004 68.5289 167.266 73.7584 167.091 75.6469C167.004 76.4313 166.713 77.0705 166.19 77.5644C165.666 78.0583 164.997 78.3488 164.212 78.3778ZM157.902 64.1128C159.24 63.8513 159.879 63.096 159.821 61.8176C159.705 59.6968 159.589 58.3022 159.472 57.6921C159.356 57.082 159.094 56.7624 158.658 56.7043C157.728 56.4719 156.797 57.4016 155.837 59.5224C154.878 61.6433 154.674 63.0379 155.285 63.7351C155.605 64.2581 156.477 64.3743 157.902 64.1128Z" fill="white"/>
<path d="M24.2238 145.897C21.2868 147.669 18.4079 147.844 15.5872 146.42C12.7374 144.967 11.0217 142.44 10.4692 138.837C9.80038 134.479 10.2657 129.163 11.8069 122.887C13.3481 116.612 15.3836 112.225 17.9426 109.697C20.7634 106.763 23.8167 106.501 27.0736 108.913C28.2368 109.842 29.1383 110.975 29.778 112.254C30.3887 113.532 30.5632 114.665 30.3014 115.653C29.9816 116.757 29.2837 117.454 28.2077 117.745C27.1318 118.035 26.1721 117.803 25.2998 117.018C25.009 116.728 24.66 116.292 24.2529 115.682C23.8458 115.072 23.4096 114.752 22.9152 114.665C21.1705 114.665 19.542 117.861 18.059 124.282C16.5759 130.702 16.227 135.38 17.0121 138.256C17.332 139.593 17.9717 140.377 18.9604 140.638C19.9491 140.9 20.9088 140.522 21.8975 139.505C22.3627 138.953 23.1479 137.82 24.2238 136.135C25.2998 134.45 25.9686 133.491 26.2012 133.259C26.9282 132.707 27.6843 132.504 28.5276 132.591C29.3709 132.707 30.0106 133.085 30.505 133.753C31.5809 135.118 31.2901 137.181 29.6326 139.912C27.9751 142.643 26.1721 144.648 24.2529 145.868L24.2238 145.897Z" fill="white"/>
<path d="M47.9532 142.905C46.3829 144.822 44.6091 145.839 42.5735 145.926C40.5379 146.013 38.6768 145.171 36.9321 143.428C34.1113 139.999 32.89 135.583 33.2099 130.179C33.5298 124.776 35.1001 119.866 37.8626 115.42C38.8222 113.968 39.9272 112.719 41.1777 111.731C43.0097 110.569 44.7254 110.656 46.3829 111.963C47.0808 112.573 47.866 112.98 48.7093 113.183C50.076 113.619 51.181 114.781 51.9952 116.612C52.8095 118.471 53.2457 120.447 53.3038 122.538C53.3038 131.69 51.5009 138.46 47.9241 142.876L47.9532 142.905ZM42.4281 138.605C43.5331 138.576 44.5218 137.21 45.3651 134.508C46.2084 131.806 46.7028 128.872 46.8191 125.647C46.9354 122.451 46.6737 120.214 46.0049 118.936C45.1616 117.512 44.0856 117.745 42.8061 119.633C39.8691 124.979 38.8513 130.063 39.7819 134.886C40.2762 137.414 41.1486 138.663 42.399 138.576L42.4281 138.605Z" fill="white"/>
<path d="M58.7119 138.663C57.0543 138.576 56.0656 137.646 55.7457 135.903C55.6294 135.293 55.7457 133.55 56.0365 130.731C56.3564 127.913 56.7054 125.298 57.1125 122.887C57.2288 121.986 57.4033 120.679 57.665 118.936C57.9267 117.193 58.1303 115.885 58.2757 114.985C58.4211 114.084 58.6246 112.951 58.8863 111.556C59.148 110.162 59.3807 109.087 59.6133 108.302C59.846 107.518 60.1077 106.734 60.4275 105.92C60.7474 105.107 61.0964 104.497 61.4744 104.09C61.8524 103.683 62.3177 103.451 62.8121 103.363C63.9171 103.044 64.964 103.305 65.9527 104.177C67.4066 105.368 69.2968 108.825 71.6232 114.549L72.9899 117.512C73.6296 118.674 74.2694 119.197 74.9382 119.052C75.0545 119.052 75.1709 118.994 75.2581 118.936C75.3744 118.878 75.4617 118.791 75.5489 118.674C75.6361 118.529 75.6943 118.413 75.7524 118.326C75.7815 118.239 75.8397 118.064 75.9269 117.861C76.0142 117.628 76.0723 117.454 76.1305 117.251C76.1886 117.076 76.2468 116.815 76.2759 116.466C76.334 116.147 76.3631 115.856 76.4213 115.595C76.4504 115.362 76.5085 115.014 76.5667 114.549C76.6248 114.084 76.683 113.735 76.7411 113.416C77.788 106.908 78.8058 103.044 79.8527 101.795C80.3761 101.214 81.0158 100.865 81.7428 100.72C82.4698 100.574 83.1968 100.72 83.9238 101.214C84.6508 101.678 85.087 102.376 85.2033 103.276C85.2905 103.712 85.2033 104.438 84.9997 105.426C83.7493 109.639 82.4698 116.263 81.1031 125.328C80.5796 128.93 80.1725 131.371 79.969 132.62C79.6491 134.073 78.893 134.915 77.6426 135.147C76.334 135.409 75.1418 134.973 74.0077 133.927C73.6587 133.579 73.3098 133.201 72.9899 132.765C72.67 132.329 72.3211 131.69 71.914 130.819C71.5068 129.976 71.1288 129.104 70.7799 128.291C70.4018 127.448 69.8202 126.141 69.006 124.311C68.1918 122.48 67.3775 120.708 66.5924 118.994C66.2434 118.471 65.8073 118.239 65.2838 118.326C64.7313 118.413 64.4114 118.703 64.266 119.255C63.3064 122.829 62.5213 127.971 61.8815 134.741C61.6198 137.414 60.5729 138.692 58.6828 138.576L58.7119 138.663Z" fill="white"/>
<path d="M238.395 151.708C236.476 157.983 233.655 163.649 229.904 168.704C226.153 173.759 221.529 178.088 216.12 181.69C210.682 185.293 204.721 187.937 198.236 189.651C198.44 192.237 199.167 194.532 200.446 196.537C201.697 198.541 203.354 200.139 205.361 201.33C207.367 202.521 209.577 203.364 212.049 203.887C214.492 204.381 216.964 204.555 219.464 204.352C221.267 204.207 222.983 203.945 224.67 203.567C226.356 203.19 228.159 202.521 230.079 201.563L230.922 202.696C228.188 204.933 224.99 206.908 221.326 208.652C217.632 210.395 213.416 211.47 208.618 211.848C204.721 212.167 201.057 212.022 197.597 211.441C194.136 210.86 191.025 209.785 188.233 208.187C185.441 206.589 183.086 204.41 181.167 201.592C179.248 198.774 177.852 195.403 177.037 191.452C170.844 190.639 164.94 188.896 159.299 186.165C153.658 183.463 148.627 179.947 144.236 175.647C139.816 171.348 136.21 166.292 133.389 160.482C130.568 154.7 128.882 148.25 128.3 141.191C126.963 124.34 132.313 109.871 144.41 97.7853C149.325 92.8753 154.966 89.0694 161.335 86.3675C167.703 83.6655 174.449 82.0095 181.632 81.4284C190.094 80.7602 197.829 81.6318 204.808 84.1013C211.787 86.5708 217.807 90.1153 222.896 94.7638C227.985 99.4123 232.027 104.932 235.051 111.324C238.075 117.716 239.878 124.485 240.431 131.661C240.983 138.75 240.314 145.403 238.424 151.679L238.395 151.708ZM218.098 115.101C216.062 109.058 213.271 103.625 209.723 98.8312C206.175 94.0375 201.93 90.2606 196.986 87.5005C192.042 84.7405 186.372 83.6074 180.004 84.1013C173.519 84.6243 168.023 86.6289 163.545 90.1444C159.066 93.6598 155.49 98.0468 152.843 103.247C150.197 108.477 148.394 114.316 147.464 120.737C146.533 127.187 146.3 133.637 146.824 140.116C147.376 146.885 148.743 153.364 151.011 159.552C153.25 165.74 156.217 171.144 159.91 175.764C163.603 180.383 167.907 183.986 172.821 186.542C177.735 189.099 183.086 190.174 188.873 189.709C195.648 189.157 201.29 187.036 205.739 183.317C210.217 179.599 213.707 175.037 216.237 169.604C218.767 164.201 220.453 158.274 221.296 151.824C222.14 145.403 222.314 139.186 221.849 133.201C221.355 127.129 220.104 121.057 218.069 115.014L218.098 115.101Z" fill="white"/>
<path d="M120.767 115.711C119.982 116.815 118.76 117.483 117.045 117.745C115.329 118.006 113.875 117.541 112.537 116.35C111.2 115.159 110.386 113.503 110.037 111.382C109.629 108.68 110.24 105.804 111.898 102.753C113.555 99.7028 116.056 96.8265 119.487 94.1246L120.854 93.0496L122.046 94.5604C120.098 96.4779 118.673 97.9886 117.83 99.0927C116.172 101.272 115.474 103.131 115.707 104.671C115.765 105.107 115.911 105.513 116.143 105.891C116.376 106.269 116.667 106.588 117.016 106.821L118.121 107.634C119.284 108.477 120.127 109.232 120.651 109.871C121.203 110.51 121.552 111.382 121.697 112.486C121.843 113.59 121.552 114.636 120.767 115.74V115.711ZM98.2885 118.645C96.8926 117.57 96.0202 115.856 95.6422 113.445C95.1479 110.22 95.9621 107.024 98.0558 103.915C100.15 100.778 102.476 98.2501 105.035 96.3036L106.46 95.2286L107.652 96.7394C105.878 98.4244 104.511 99.9061 103.552 101.126C101.807 103.393 101.051 105.31 101.284 106.821C101.342 107.257 101.487 107.663 101.72 108.041C101.952 108.419 102.243 108.738 102.592 108.971L103.697 109.784C104.773 110.569 105.587 111.295 106.169 111.905C106.722 112.544 107.07 113.329 107.216 114.287C107.419 115.711 107.1 116.96 106.256 117.977C105.413 118.994 104.163 119.633 102.563 119.895C101.08 120.127 99.6552 119.691 98.2594 118.616L98.2885 118.645Z" fill="white"/>
<path d="M247.293 87.8201C248.078 86.7161 249.3 86.0479 251.015 85.7864C252.731 85.5249 254.185 85.9898 255.523 87.1809C256.86 88.3721 257.675 90.0281 258.024 92.149C258.431 94.8509 257.82 97.7272 256.162 100.778C254.534 103.828 252.004 106.705 248.573 109.407L247.206 110.481L246.014 108.971C247.962 107.053 249.387 105.542 250.23 104.438C251.888 102.259 252.586 100.4 252.353 98.8603C252.295 98.4245 252.149 98.0177 251.917 97.64C251.684 97.2623 251.393 96.9428 251.044 96.7103L249.939 95.8968C248.776 95.0543 247.933 94.2989 247.409 93.6598C246.857 93.0206 246.508 92.149 246.363 91.045C246.217 89.941 246.508 88.8951 247.293 87.791V87.8201ZM269.772 84.8857C271.167 85.9607 272.04 87.6748 272.418 90.0862C272.912 93.3111 272.098 96.507 270.004 99.6156C267.911 102.753 265.584 105.281 263.025 107.228L261.6 108.302L260.408 106.792C262.182 105.107 263.549 103.625 264.508 102.405C266.253 100.139 267.009 98.2211 266.776 96.7103C266.718 96.2745 266.573 95.8678 266.34 95.4901C266.108 95.1124 265.817 94.7928 265.468 94.5604L264.363 93.7469C263.287 92.9625 262.473 92.2362 261.891 91.6261C261.339 90.9869 260.99 90.2025 260.844 89.2437C260.641 87.8201 260.961 86.5708 261.804 85.554C262.647 84.5371 263.898 83.8979 265.497 83.6365C266.98 83.404 268.405 83.8398 269.801 84.9148L269.772 84.8857Z" fill="white"/>
<path d="M113.157 48.8201C113.506 46.7473 112.506 44.851 110.922 44.5845C109.338 44.318 107.771 45.7823 107.422 47.8551C107.072 49.9278 108.073 51.8242 109.657 52.0907C111.24 52.3572 112.807 50.8929 113.157 48.8201Z" fill="white"/>
<path d="M0.0880147 44.9379C-0.0864624 43.6596 -0.0283034 41.3353 0.233412 37.9942C0.495128 34.6531 0.815003 30.9925 1.2512 27.0413C1.65831 23.09 1.92002 20.6205 1.97818 19.6618C2.18174 17.5119 2.90873 15.9139 4.18823 14.8971C5.43864 13.8802 7.35789 13.212 9.94597 12.8924C13.261 12.4857 16.2562 12.9505 18.9315 14.3451C21.6069 15.7396 23.0899 17.6862 23.4098 20.2719C23.6133 21.8989 23.0608 23.7873 21.7232 25.9082C20.0075 27.7385 20.2692 29.104 22.5083 30.0628C24.8056 30.9053 26.1723 32.91 26.5795 36.1348C26.9866 39.3888 25.1546 42.6137 21.0543 45.7514C16.9541 48.9182 12.7085 50.7195 8.31752 51.2134C5.6422 51.562 3.69387 51.2134 2.44345 50.2256C1.22212 49.2378 0.436969 47.4655 0.146174 44.967L0.0880147 44.9379ZM9.42254 44.2116C11.8652 43.4272 14.2207 42.3231 16.4598 40.8705C18.6989 39.4469 19.7458 38.1105 19.6004 36.8612C19.455 35.7572 18.2045 35.118 15.7909 34.9437C13.4064 34.7694 11.1964 34.9437 9.1899 35.4376C8.02672 35.6409 7.27065 36.4544 6.9217 37.849C6.57275 39.2435 6.48551 40.6962 6.65998 42.1488C6.89262 44.0082 7.82316 44.7055 9.42254 44.2116ZM10.2949 26.5764C12.6213 25.2109 14.3661 23.9907 15.5002 22.8576C16.6633 21.7245 16.6633 20.8239 15.5002 20.1557C13.8717 19.1098 12.0106 18.9645 9.82965 19.7199C9.21898 19.9233 8.72463 20.5334 8.37568 21.6083C8.02672 22.6542 7.93948 23.7873 8.11396 25.0075C8.14304 25.7629 8.37568 26.3149 8.81187 26.6055C9.21898 26.896 9.71333 26.896 10.2658 26.6055L10.2949 26.5764Z" fill="white"/>
<path d="M35.0425 45.577C32.9488 45.7803 31.5529 44.7344 30.9132 42.4683C30.5933 41.3352 31.6983 34.9436 34.2573 23.2933C35.3914 18.18 36.2057 14.3159 36.7 11.7011C37.1944 8.62151 38.5029 7.19791 40.5967 7.48844C42.8939 7.72087 43.6791 9.58026 42.9812 13.0376L39.5207 30.0045C38.7356 33.6652 38.4739 35.757 38.7065 36.3381C38.7937 36.6286 38.9973 36.803 39.3172 36.8901C39.8697 37.1225 41.5563 36.7449 44.3479 35.8152C47.5467 34.7692 49.4078 35.2341 49.9603 37.2388C50.4837 39.011 49.9312 40.2603 48.3027 40.9866C46.3835 41.8872 43.9117 42.846 40.8584 43.9209C37.805 44.9959 35.8567 45.5479 35.0134 45.606L35.0425 45.577Z" fill="white"/>
<path d="M69.0654 39.9407C67.3497 41.8291 65.4596 42.7298 63.3658 42.7007C61.2721 42.6716 59.411 41.6838 57.7535 39.7663C55.1073 36.0766 54.1186 31.4862 54.8165 25.9662C55.5144 20.4461 57.4336 15.5361 60.5451 11.1782C61.6211 9.75456 62.8133 8.56338 64.1801 7.60463C66.1284 6.52967 67.9022 6.73304 69.5016 8.18569C70.1704 8.88297 70.9556 9.34782 71.7989 9.58024C73.1656 10.1032 74.2125 11.3525 74.9395 13.299C75.6665 15.2456 75.9863 17.3083 75.8991 19.4292C75.3175 28.8134 73.0202 35.6408 69.0654 39.9116V39.9407ZM63.6857 35.205C64.8198 35.2341 65.8958 33.8976 66.9426 31.1957C67.9895 28.4938 68.6874 25.5013 69.0073 22.2183C69.3271 18.9353 69.2108 16.6401 68.6292 15.3037C67.8441 13.7929 66.7391 13.9672 65.3142 15.8266C61.9409 21.1143 60.6033 26.2567 61.2139 31.2538C61.5338 33.8686 62.3771 35.205 63.6566 35.205H63.6857Z" fill="white"/>
<path d="M88.3449 41.1609C86.5129 41.219 84.8844 40.7832 83.4595 39.8244C82.0346 38.8948 81.0169 37.5874 80.3771 35.9604C79.2721 33.2585 79.1267 29.3073 79.9991 24.1068C80.8715 18.9063 82.4127 13.9672 84.71 9.28971C87.0072 4.61217 89.4208 1.70687 92.0089 0.544744C94.4225 -0.472112 96.6035 -0.0653693 98.5518 1.76497C99.6568 2.86899 100.442 4.11827 100.994 5.54187C101.518 6.93641 101.547 8.27285 101.053 9.52213C100.529 10.5971 99.8022 11.1782 98.8426 11.2653C97.883 11.3525 96.8943 10.9457 95.8765 9.98698C94.7715 8.76675 93.9282 8.18569 93.3757 8.21475C92.8231 8.2438 92.1543 8.99918 91.3982 10.4518C88.1123 16.7273 86.3093 23.1771 86.0185 29.8012C85.8731 31.5443 86.1349 32.8227 86.8328 33.6943C87.5016 34.5658 88.374 34.624 89.479 33.8976C91.4273 32.3578 93.7246 29.743 96.3999 26.0824C94.8006 25.2108 93.9572 24.1358 93.8409 22.7994C93.7246 21.492 94.3934 20.6204 95.8183 20.1846C98.3482 19.6326 100.209 19.4583 101.343 19.6616C102.536 19.8069 103.466 20.3299 104.135 21.2596C104.804 22.1893 104.92 23.2642 104.542 24.4844C103.524 27.7965 101.285 31.37 97.7667 35.205C94.248 39.04 91.1074 40.9866 88.3449 41.1028V41.1609Z" fill="white"/>
</svg>
