<svg width="425" height="352" viewBox="0 0 425 352" fill="none" xmlns="http://www.w3.org/2000/svg">
<path d="M23.021 351.887L402.731 351.886C411.736 350.886 417.739 344.382 417.739 344.382C417.739 344.382 424.243 337.879 424.243 327.873L424.159 320.887L424.159 26.3867C404.613 26.3867 403.227 2.09863e-05 385.185 2.72273e-05C367.144 3.34684e-05 364.137 24.1878 344.591 24.1878C325.046 24.1878 317.529 4.30507e-05 302.494 4.60857e-05C287.459 4.91207e-05 284.452 24.1878 263.403 24.1878C242.355 24.1878 243.858 5.33513e-05 221.306 6.00696e-05C198.754 6.6788e-05 204.768 24.1878 183.719 24.1878C162.67 24.1878 161.167 5.16111e-05 143.125 6.2184e-05C125.083 7.27568e-05 120.573 26.3867 101.028 24.1878C81.4824 21.9889 75.4684 5.30771e-05 60.4337 6.04439e-05C45.3989 6.78106e-05 39.385 24.1878 21.3432 24.1878C12.1552 24.1878 6.08654 17.5435 0.158683 11.3866L0.158684 319.387L0.00790912 327.874C0.00790912 327.874 -0.492005 337.379 6.51179 344.383C14.5163 352.387 23.021 351.887 23.021 351.887Z" fill="url(#paint0_linear_4642_1150)"/>
<defs>
<linearGradient id="paint0_linear_4642_1150" x1="221.659" y1="4.38666" x2="210.159" y2="347.387" gradientUnits="userSpaceOnUse">
<stop stop-color="#A8875C"/>
<stop offset="1" stop-color="#7D623E"/>
</linearGradient>
</defs>
</svg>
