<svg width="801" height="359" viewBox="0 0 801 359" fill="none" xmlns="http://www.w3.org/2000/svg">
<path d="M746.407 285.588C729.74 285.167 699.929 285.588 705.584 223.213C711.263 160.838 672.696 146.106 657.964 154.042C643.232 161.979 601.268 186.929 576.317 186.929C551.367 186.929 547.969 147.247 546.828 124.554C545.687 101.885 541.148 86.0124 518.703 76.7863C496.257 67.5603 457.244 125.694 434.55 129.092C411.882 132.49 391.47 115.476 383.533 72.3965C375.597 29.3167 343.851 33.8553 329.094 40.6509C314.361 47.4464 276.936 101.885 245.189 100.744C213.443 99.6035 200.968 47.4464 181.697 22.4964C162.451 -2.40412 98.9586 -18.2769 78.5468 39.5596C58.135 97.3962 49.0575 91.7167 22.9909 92.8576C13.5415 93.2792 5.92736 92.1879 -0.000244141 90.6502V322.592C-0.000244141 342.706 16.2945 359 36.4087 359H794.646C795.589 356.991 796.358 354.883 797.003 352.626C815.802 284.72 763.099 286.035 746.457 285.613L746.407 285.588Z" fill="black"/>
<g clip-path="url(#clip0_92_108)">
<path d="M134.952 183.792C135.359 180.189 136.377 176.645 138.005 173.187C139.634 169.73 141.669 166.796 144.112 164.413C145.799 162.874 147.776 162.264 149.986 162.612C152.196 162.961 153.854 164.123 154.959 166.099C158.39 171.996 159.437 178.243 158.041 184.809C157.401 187.249 157.256 189.138 157.576 190.503C157.808 191.694 158.419 192.798 159.437 193.873C160.455 194.948 160.978 195.82 161.036 196.517C161.298 198.144 160.804 199.277 159.553 199.945C158.332 200.584 156.878 200.439 155.22 199.48C154.348 199.016 153.737 198.812 153.359 198.87C152.981 198.928 152.487 199.364 151.847 200.12C149.753 202.647 147.543 204.071 145.217 204.361C141.379 204.884 138.471 202.851 136.464 198.202C134.458 193.583 133.934 188.789 134.923 183.821L134.952 183.792ZM145.944 195.849C148.358 193.641 150.044 189.573 151.033 183.588C151.963 178.649 151.644 174.814 150.102 172.083C149.637 171.328 149.114 170.95 148.532 170.892C147.95 170.834 147.369 171.183 146.787 171.938C144.432 175.425 142.833 179.405 142.018 183.937C140.971 189.283 141.349 193.234 143.123 195.791C143.967 196.779 144.897 196.808 145.944 195.82V195.849Z" fill="white"/>
<path d="M176.565 191.317C174.994 193.234 173.221 194.251 171.185 194.338C169.149 194.425 167.288 193.583 165.544 191.84C162.723 188.411 161.502 183.995 161.821 178.591C162.141 173.187 163.712 168.278 166.474 163.832C167.434 162.38 168.539 161.13 169.789 160.143C171.621 158.981 173.337 159.068 174.994 160.375C175.692 160.985 176.478 161.392 177.321 161.595C178.688 162.031 179.793 163.193 180.607 165.024C181.421 166.883 181.857 168.859 181.915 170.95C181.915 180.102 180.112 186.871 176.536 191.288L176.565 191.317ZM171.011 187.017C172.116 186.988 173.104 185.622 173.948 182.92C174.791 180.218 175.285 177.284 175.402 174.059C175.518 170.863 175.256 168.626 174.587 167.348C173.744 165.924 172.668 166.157 171.389 168.045C168.452 173.391 167.434 178.475 168.364 183.298C168.859 185.826 169.731 187.075 170.982 186.988L171.011 187.017Z" fill="white"/>
<path d="M198.055 194.89C195.118 196.662 192.239 196.837 189.418 195.413C186.568 193.96 184.853 191.433 184.3 187.83C183.631 183.472 184.096 178.156 185.638 171.88C187.179 165.605 189.214 161.218 191.773 158.69C194.594 155.756 197.648 155.494 200.904 157.906C202.068 158.835 202.969 159.968 203.609 161.247C204.219 162.525 204.394 163.658 204.132 164.646C203.812 165.75 203.114 166.447 202.039 166.738C200.963 167.028 200.003 166.796 199.131 166.011C198.84 165.721 198.491 165.285 198.084 164.675C197.677 164.065 197.24 163.745 196.746 163.658C195.001 163.658 193.373 166.854 191.89 173.275C190.407 179.695 190.058 184.373 190.843 187.249C191.163 188.586 191.803 189.37 192.791 189.631C193.78 189.893 194.74 189.515 195.728 188.498C196.194 187.946 196.979 186.813 198.055 185.128C199.131 183.443 199.799 182.484 200.032 182.252C200.759 181.7 201.515 181.497 202.358 181.584C203.202 181.7 203.841 182.078 204.336 182.746C205.412 184.111 205.121 186.174 203.463 188.905C201.806 191.636 200.003 193.641 198.084 194.861L198.055 194.89Z" fill="white"/>
<path d="M208.378 184.199C208.988 181.003 209.628 176.558 210.297 170.892L211.227 162.409C211.722 160.462 212.769 159.533 214.368 159.62C216.404 159.62 217.392 161.392 217.305 164.907C217.305 166.302 217.189 167.842 217.014 169.498C216.84 171.154 216.665 172.577 216.52 173.739C216.375 174.902 216.142 176.441 215.822 178.33C215.502 180.218 215.27 181.671 215.124 182.717C214.397 187.801 213.874 190.765 213.496 191.607C212.914 193.176 211.954 193.844 210.559 193.641C208.32 193.496 207.447 191.375 207.941 187.307C208 187.017 208.145 185.971 208.407 184.17L208.378 184.199Z" fill="white"/>
<path d="M224.11 183.356C222.452 183.269 221.464 182.339 221.144 180.596C221.027 179.986 221.144 178.243 221.434 175.425C221.754 172.606 222.103 169.992 222.51 167.58C222.627 166.68 222.801 165.372 223.063 163.629C223.325 161.886 223.528 160.578 223.674 159.678C223.819 158.777 224.023 157.644 224.284 156.25C224.546 154.855 224.779 153.78 225.011 152.996C225.244 152.211 225.506 151.427 225.825 150.613C226.145 149.8 226.494 149.19 226.872 148.783C227.25 148.376 227.716 148.144 228.21 148.057C229.315 147.737 230.362 147.998 231.351 148.87C232.805 150.061 234.695 153.519 237.021 159.242L238.388 162.205C239.028 163.368 239.667 163.891 240.336 163.745C240.452 163.745 240.569 163.687 240.656 163.629C240.772 163.571 240.86 163.484 240.947 163.368C241.034 163.222 241.092 163.106 241.15 163.019C241.179 162.932 241.238 162.757 241.325 162.554C241.412 162.322 241.47 162.147 241.528 161.944C241.587 161.77 241.645 161.508 241.674 161.16C241.732 160.84 241.761 160.549 241.819 160.288C241.848 160.056 241.906 159.707 241.965 159.242C242.023 158.777 242.081 158.429 242.139 158.109C243.186 151.601 244.204 147.737 245.251 146.488C245.774 145.907 246.414 145.558 247.141 145.413C247.868 145.268 248.595 145.413 249.322 145.907C250.049 146.372 250.485 147.069 250.601 147.969C250.688 148.405 250.601 149.132 250.398 150.119C249.147 154.332 247.868 160.956 246.501 170.021C245.978 173.623 245.57 176.064 245.367 177.313C245.047 178.766 244.291 179.608 243.041 179.841C241.732 180.102 240.54 179.666 239.406 178.62C239.057 178.272 238.708 177.894 238.388 177.458C238.068 177.022 237.719 176.383 237.312 175.512C236.905 174.669 236.527 173.798 236.178 172.984C235.8 172.142 235.218 170.834 234.404 169.004C233.59 167.174 232.775 165.401 231.99 163.687C231.641 163.164 231.205 162.932 230.682 163.019C230.129 163.106 229.809 163.397 229.664 163.949C228.704 167.522 227.919 172.665 227.279 179.434C227.018 182.107 225.971 183.385 224.081 183.269L224.11 183.356Z" fill="white"/>
<path d="M269.212 183.385C268.863 183.385 268.572 183.385 268.34 183.327C268.107 183.298 267.874 183.211 267.642 183.066C267.409 182.949 267.235 182.804 267.089 182.688C266.944 182.572 266.798 182.368 266.653 182.078C266.508 181.787 266.42 181.555 266.362 181.38C266.304 181.206 266.217 180.916 266.101 180.509C265.984 180.102 265.926 179.783 265.868 179.579L265.664 178.475L265.461 177.342C265.315 176.035 264.618 175.425 263.367 175.57L257.9 176.354C257.057 176.529 256.417 177.139 255.981 178.214C254.323 182.368 253.276 184.722 252.869 185.274C251.852 186.348 250.63 186.581 249.234 185.971C247.344 185.215 246.995 183.385 248.188 180.48L253.015 167.319C254.12 164.239 255.777 160.608 257.958 156.366C260.168 152.124 261.884 149.451 263.134 148.347C264.327 147.301 265.548 146.924 266.828 147.243C268.078 147.563 268.95 148.434 269.474 149.858C269.997 151.456 270.637 156.511 271.306 165.024C272.004 173.536 272.265 178.766 272.091 180.654C272.004 181.439 271.713 182.078 271.189 182.572C270.666 183.066 269.997 183.356 269.212 183.385ZM262.902 169.12C264.239 168.859 264.879 168.103 264.821 166.825C264.705 164.704 264.588 163.309 264.472 162.699C264.356 162.089 264.094 161.77 263.658 161.712C262.727 161.479 261.797 162.409 260.837 164.53C259.878 166.651 259.674 168.045 260.285 168.742C260.605 169.265 261.477 169.382 262.902 169.12Z" fill="white"/>
<path d="M129.223 250.904C126.286 252.677 123.407 252.851 120.587 251.427C117.737 249.975 116.021 247.447 115.469 243.844C114.8 239.487 115.265 234.17 116.806 227.894C118.348 221.619 120.383 217.232 122.942 214.704C125.763 211.77 128.816 211.508 132.073 213.92C133.236 214.85 134.138 215.983 134.778 217.261C135.388 218.539 135.563 219.672 135.301 220.66C134.981 221.764 134.283 222.461 133.207 222.752C132.131 223.042 131.172 222.81 130.299 222.026C130.008 221.735 129.66 221.299 129.252 220.689C128.845 220.079 128.409 219.759 127.915 219.672C126.17 219.672 124.542 222.868 123.058 229.289C121.575 235.71 121.226 240.387 122.012 243.263C122.331 244.6 122.971 245.384 123.96 245.646C124.949 245.907 125.908 245.53 126.897 244.513C127.362 243.961 128.147 242.828 129.223 241.143C130.299 239.457 130.968 238.499 131.201 238.266C131.928 237.714 132.684 237.511 133.527 237.598C134.37 237.714 135.01 238.092 135.505 238.76C136.58 240.126 136.29 242.188 134.632 244.919C132.975 247.65 131.172 249.655 129.252 250.875L129.223 250.904Z" fill="white"/>
<path d="M152.952 247.912C151.382 249.829 149.608 250.846 147.573 250.933C145.537 251.021 143.676 250.178 141.931 248.435C139.11 245.007 137.889 240.591 138.209 235.187C138.529 229.783 140.099 224.873 142.862 220.428C143.821 218.975 144.926 217.726 146.177 216.738C148.009 215.576 149.724 215.663 151.382 216.97C152.08 217.581 152.865 217.987 153.708 218.191C155.075 218.626 156.18 219.789 156.994 221.619C157.808 223.478 158.245 225.454 158.303 227.546C158.303 236.697 156.5 243.467 152.923 247.883L152.952 247.912ZM147.427 243.612C148.532 243.583 149.521 242.217 150.364 239.516C151.207 236.814 151.702 233.879 151.818 230.654C151.934 227.459 151.673 225.221 151.004 223.943C150.161 222.52 149.085 222.752 147.805 224.64C144.868 229.986 143.85 235.07 144.781 239.893C145.275 242.421 146.148 243.67 147.398 243.583L147.427 243.612Z" fill="white"/>
<path d="M163.712 243.67C162.054 243.583 161.065 242.653 160.746 240.91C160.629 240.3 160.746 238.557 161.036 235.739C161.356 232.921 161.705 230.306 162.112 227.894C162.229 226.994 162.403 225.686 162.665 223.943C162.926 222.2 163.13 220.893 163.275 219.992C163.421 219.091 163.624 217.958 163.886 216.564C164.148 215.169 164.38 214.094 164.613 213.31C164.846 212.525 165.107 211.741 165.427 210.927C165.747 210.114 166.096 209.504 166.474 209.097C166.852 208.69 167.317 208.458 167.812 208.371C168.917 208.051 169.964 208.313 170.952 209.184C172.406 210.375 174.297 213.833 176.623 219.556L177.99 222.52C178.629 223.682 179.269 224.205 179.938 224.059C180.054 224.059 180.171 224.001 180.258 223.943C180.374 223.885 180.461 223.798 180.549 223.682C180.636 223.536 180.694 223.42 180.752 223.333C180.781 223.246 180.839 223.072 180.927 222.868C181.014 222.636 181.072 222.461 181.13 222.258C181.188 222.084 181.247 221.822 181.276 221.474C181.334 221.154 181.363 220.864 181.421 220.602C181.45 220.37 181.508 220.021 181.566 219.556C181.625 219.091 181.683 218.743 181.741 218.423C182.788 211.915 183.806 208.051 184.852 206.802C185.376 206.221 186.016 205.872 186.743 205.727C187.47 205.582 188.197 205.727 188.924 206.221C189.651 206.686 190.087 207.383 190.203 208.284C190.29 208.719 190.203 209.446 189.999 210.433C188.749 214.646 187.47 221.27 186.103 230.335C185.579 233.937 185.172 236.378 184.969 237.627C184.649 239.08 183.893 239.922 182.642 240.155C181.334 240.416 180.142 239.98 179.007 238.934C178.658 238.586 178.31 238.208 177.99 237.772C177.67 237.337 177.321 236.697 176.914 235.826C176.507 234.983 176.129 234.112 175.78 233.298C175.402 232.456 174.82 231.148 174.006 229.318C173.192 227.488 172.377 225.715 171.592 224.001C171.243 223.478 170.807 223.246 170.284 223.333C169.731 223.42 169.411 223.711 169.266 224.263C168.306 227.836 167.521 232.979 166.881 239.748C166.62 242.421 165.573 243.699 163.683 243.583L163.712 243.67Z" fill="white"/>
<path d="M343.394 256.715C341.475 262.99 338.654 268.656 334.903 273.711C331.152 278.766 326.528 283.095 321.119 286.698C315.681 290.3 309.72 292.944 303.235 294.658C303.439 297.244 304.166 299.539 305.445 301.544C306.696 303.548 308.353 305.146 310.36 306.338C312.366 307.529 314.576 308.371 317.048 308.894C319.491 309.388 321.962 309.562 324.463 309.359C326.266 309.214 327.982 308.952 329.668 308.575C331.355 308.197 333.158 307.529 335.077 306.57L335.921 307.703C333.187 309.94 329.988 311.916 326.324 313.659C322.631 315.402 318.415 316.477 313.617 316.855C309.72 317.174 306.056 317.029 302.595 316.448C299.135 315.867 296.024 314.792 293.232 313.194C290.44 311.596 288.085 309.417 286.166 306.599C284.246 303.781 282.85 300.411 282.036 296.459C275.842 295.646 269.939 293.903 264.298 291.172C258.656 288.47 253.626 284.954 249.235 280.655C244.814 276.355 241.209 271.3 238.388 265.489C235.567 259.707 233.881 253.258 233.299 246.198C231.961 229.347 237.312 214.879 249.409 202.793C254.323 197.883 259.965 194.077 266.333 191.375C272.702 188.673 279.448 187.017 286.631 186.436C295.093 185.767 302.828 186.639 309.807 189.109C316.786 191.578 322.806 195.123 327.895 199.771C332.984 204.419 337.026 209.94 340.05 216.331C343.074 222.723 344.877 229.492 345.43 236.668C345.982 243.757 345.313 250.41 343.423 256.686L343.394 256.715ZM323.097 220.108C321.061 214.065 318.269 208.632 314.722 203.838C311.174 199.045 306.928 195.268 301.985 192.508C297.041 189.748 291.371 188.615 285.002 189.109C278.518 189.631 273.022 191.636 268.543 195.152C264.065 198.667 260.488 203.054 257.842 208.254C255.196 213.484 253.393 219.324 252.462 225.744C251.532 232.194 251.299 238.644 251.823 245.123C252.375 251.892 253.742 258.371 256.01 264.559C258.249 270.748 261.215 276.151 264.908 280.771C268.602 285.39 272.905 288.993 277.82 291.55C282.734 294.106 288.085 295.181 293.872 294.716C300.647 294.164 306.289 292.043 310.738 288.325C315.216 284.606 318.706 280.045 321.235 274.612C323.765 269.208 325.452 263.281 326.295 256.831C327.139 250.41 327.313 244.193 326.848 238.208C326.353 232.136 325.103 226.064 323.067 220.021L323.097 220.108Z" fill="white"/>
<path d="M225.767 220.718C224.982 221.822 223.761 222.49 222.045 222.752C220.33 223.013 218.876 222.549 217.538 221.357C216.2 220.166 215.386 218.51 215.037 216.389C214.63 213.687 215.241 210.811 216.898 207.761C218.556 204.71 221.057 201.834 224.488 199.132L225.855 198.057L227.047 199.568C225.099 201.485 223.674 202.996 222.83 204.1C221.173 206.279 220.475 208.138 220.708 209.678C220.766 210.114 220.911 210.521 221.144 210.898C221.376 211.276 221.667 211.596 222.016 211.828L223.121 212.641C224.284 213.484 225.128 214.239 225.651 214.879C226.204 215.518 226.553 216.389 226.698 217.493C226.843 218.597 226.553 219.643 225.767 220.747V220.718ZM203.289 223.653C201.893 222.578 201.021 220.864 200.643 218.452C200.148 215.227 200.963 212.031 203.056 208.923C205.15 205.785 207.476 203.257 210.035 201.311L211.46 200.236L212.653 201.747C210.879 203.432 209.512 204.913 208.552 206.134C206.808 208.4 206.052 210.317 206.284 211.828C206.342 212.264 206.488 212.671 206.72 213.048C206.953 213.426 207.244 213.746 207.593 213.978L208.698 214.791C209.774 215.576 210.588 216.302 211.169 216.912C211.722 217.551 212.071 218.336 212.216 219.295C212.42 220.718 212.1 221.968 211.257 222.984C210.413 224.001 209.163 224.64 207.564 224.902C206.081 225.134 204.656 224.699 203.26 223.624L203.289 223.653Z" fill="white"/>
<path d="M352.292 192.827C353.077 191.723 354.299 191.055 356.014 190.794C357.73 190.532 359.184 190.997 360.522 192.188C361.859 193.379 362.674 195.035 363.023 197.156C363.43 199.858 362.819 202.734 361.161 205.785C359.533 208.836 357.003 211.712 353.572 214.414L352.205 215.489L351.013 213.978C352.961 212.06 354.386 210.55 355.229 209.446C356.887 207.267 357.585 205.407 357.352 203.867C357.294 203.432 357.148 203.025 356.916 202.647C356.683 202.27 356.392 201.95 356.043 201.718L354.938 200.904C353.775 200.062 352.932 199.306 352.409 198.667C351.856 198.028 351.507 197.156 351.362 196.052C351.216 194.948 351.507 193.902 352.292 192.798V192.827ZM374.771 189.893C376.166 190.968 377.039 192.682 377.417 195.093C377.911 198.318 377.097 201.514 375.003 204.623C372.91 207.761 370.583 210.288 368.024 212.235L366.599 213.31L365.407 211.799C367.181 210.114 368.548 208.632 369.507 207.412C371.252 205.146 372.008 203.228 371.775 201.718C371.717 201.282 371.572 200.875 371.339 200.497C371.107 200.12 370.816 199.8 370.467 199.568L369.362 198.754C368.286 197.97 367.472 197.243 366.89 196.633C366.338 195.994 365.989 195.21 365.843 194.251C365.64 192.827 365.96 191.578 366.803 190.561C367.646 189.544 368.897 188.905 370.496 188.644C371.979 188.411 373.404 188.847 374.8 189.922L374.771 189.893Z" fill="white"/>
<path d="M218.157 153.827C218.506 151.755 217.505 149.858 215.922 149.592C214.338 149.325 212.771 150.79 212.421 152.862C212.072 154.935 213.073 156.831 214.656 157.098C216.24 157.364 217.807 155.9 218.157 153.827Z" fill="white"/>
<path d="M105.087 149.945C104.913 148.667 104.971 146.343 105.232 143.002C105.494 139.66 105.814 136 106.25 132.049C106.657 128.097 106.919 125.628 106.977 124.669C107.181 122.519 107.908 120.921 109.187 119.904C110.438 118.887 112.357 118.219 114.945 117.9C118.26 117.493 121.255 117.958 123.931 119.352C126.606 120.747 128.089 122.693 128.409 125.279C128.612 126.906 128.06 128.795 126.722 130.915C125.007 132.746 125.268 134.111 127.507 135.07C129.805 135.913 131.171 137.917 131.578 141.142C131.986 144.396 130.154 147.621 126.053 150.759C121.953 153.925 117.708 155.727 113.317 156.221C110.641 156.569 108.693 156.221 107.442 155.233C106.221 154.245 105.436 152.473 105.145 149.974L105.087 149.945ZM114.422 149.219C116.864 148.434 119.22 147.33 121.459 145.878C123.698 144.454 124.745 143.118 124.599 141.868C124.454 140.764 123.204 140.125 120.79 139.951C118.405 139.777 116.195 139.951 114.189 140.445C113.026 140.648 112.27 141.462 111.921 142.856C111.572 144.251 111.485 145.703 111.659 147.156C111.892 149.015 112.822 149.713 114.422 149.219ZM115.294 131.584C117.62 130.218 119.365 128.998 120.499 127.865C121.662 126.732 121.662 125.831 120.499 125.163C118.871 124.117 117.01 123.972 114.829 124.727C114.218 124.931 113.724 125.541 113.375 126.616C113.026 127.662 112.939 128.795 113.113 130.015C113.142 130.77 113.375 131.322 113.811 131.613C114.218 131.903 114.712 131.903 115.265 131.613L115.294 131.584Z" fill="white"/>
<path d="M140.041 150.584C137.947 150.788 136.551 149.742 135.911 147.476C135.592 146.342 136.697 139.951 139.256 128.301C140.39 123.187 141.204 119.323 141.698 116.708C142.193 113.629 143.501 112.205 145.595 112.496C147.892 112.728 148.677 114.588 147.979 118.045L144.519 135.012C143.734 138.672 143.472 140.764 143.705 141.345C143.792 141.636 143.996 141.81 144.315 141.897C144.868 142.13 146.555 141.752 149.346 140.822C152.545 139.776 154.406 140.241 154.959 142.246C155.482 144.018 154.929 145.268 153.301 145.994C151.382 146.894 148.91 147.853 145.857 148.928C142.803 150.003 140.855 150.555 140.012 150.613L140.041 150.584Z" fill="white"/>
<path d="M174.064 144.948C172.348 146.836 170.458 147.737 168.364 147.708C166.271 147.679 164.41 146.691 162.752 144.774C160.106 141.084 159.117 136.493 159.815 130.973C160.513 125.453 162.432 120.543 165.544 116.185C166.62 114.762 167.812 113.571 169.179 112.612C171.127 111.537 172.901 111.74 174.5 113.193C175.169 113.89 175.954 114.355 176.797 114.588C178.164 115.11 179.211 116.36 179.938 118.306C180.665 120.253 180.985 122.316 180.898 124.436C180.316 133.821 178.019 140.648 174.064 144.919V144.948ZM168.684 140.212C169.818 140.241 170.894 138.905 171.941 136.203C172.988 133.501 173.686 130.509 174.006 127.226C174.326 123.943 174.209 121.647 173.628 120.311C172.843 118.8 171.738 118.975 170.313 120.834C166.939 126.122 165.602 131.264 166.212 136.261C166.532 138.876 167.376 140.212 168.655 140.212H168.684Z" fill="white"/>
<path d="M193.344 146.168C191.512 146.226 189.883 145.79 188.458 144.832C187.033 143.902 186.016 142.595 185.376 140.968C184.271 138.266 184.125 134.315 184.998 129.114C185.87 123.914 187.411 118.975 189.709 114.297C192.006 109.619 194.42 106.714 197.008 105.552C199.421 104.535 201.602 104.942 203.551 106.772C204.656 107.876 205.441 109.126 205.993 110.549C206.517 111.944 206.546 113.28 206.051 114.529C205.528 115.604 204.801 116.185 203.841 116.273C202.882 116.36 201.893 115.953 200.875 114.994C199.77 113.774 198.927 113.193 198.374 113.222C197.822 113.251 197.153 114.006 196.397 115.459C193.111 121.735 191.308 128.184 191.017 134.808C190.872 136.552 191.134 137.83 191.832 138.702C192.5 139.573 193.373 139.631 194.478 138.905C196.426 137.365 198.723 134.75 201.399 131.09C199.799 130.218 198.956 129.143 198.84 127.807C198.723 126.499 199.392 125.628 200.817 125.192C203.347 124.64 205.208 124.466 206.342 124.669C207.534 124.814 208.465 125.337 209.134 126.267C209.803 127.197 209.919 128.271 209.541 129.492C208.523 132.804 206.284 136.377 202.765 140.212C199.247 144.047 196.106 145.994 193.344 146.11V146.168Z" fill="white"/>
</g>
<defs>
<clipPath id="clip0_92_108">
<rect width="399" height="212" fill="white" transform="translate(105 105)"/>
</clipPath>
</defs>
</svg>
