<svg width="277" height="225" viewBox="0 0 277 225" fill="none" xmlns="http://www.w3.org/2000/svg">
<path d="M235.226 214.845C236.984 215.951 233.074 218.332 232.317 218.788C227.14 221.914 219.76 224.518 213.707 224.919C208.534 225.263 200.523 224.447 195.713 222.568C193.197 221.584 190.044 219.169 188.285 217.132C185.498 213.901 184.351 209.999 183.197 205.999C162.249 203.564 144.468 190.363 137.495 170.462C125.237 135.461 152.767 99.7347 188.913 98.099C224.037 96.5071 249.741 122.79 247.141 157.636C245.491 179.76 226.271 198.714 205.252 204.043C203.965 204.973 205.184 208.046 205.727 209.247C209.461 217.469 220.85 217.904 228.545 216.393C229.74 216.16 234.635 214.474 235.222 214.845H235.226ZM186.656 101.249C152.462 103.134 149.308 151.147 158.297 175.767C165.11 194.427 182.093 209.466 203.194 202.333C229.94 193.291 232.31 151.986 223.552 129.822C217.126 113.559 205.815 100.193 186.656 101.249Z" fill="white"/>
<path d="M54.5888 73.2395C60.8824 72.8888 63.6083 83.0133 63.8527 87.8125C64.053 91.7214 62.617 96.8005 63.1805 100.284C63.6422 103.138 67.5562 104.423 65.1969 107.724C62.6408 111.299 59.0866 107.455 57.6168 107.927C48.56 120.527 39.7476 107.232 40.4604 96.6386C40.7999 91.5831 44.3405 81.9948 47.5518 78.0522C48.9775 76.3018 52.2737 73.3677 54.5888 73.2361V73.2395ZM54.212 80.9392C51.8154 81.3574 48.3665 92.5848 47.9795 95.0029C46.4519 104.507 50.6273 109.596 54.6872 98.6319C56.1707 94.6286 57.1178 89.057 56.2793 84.8817C56.1232 84.1027 55.3729 80.7334 54.212 80.9358V80.9392Z" fill="white"/>
<path d="M134.111 75.8567C133.547 80.3759 132.882 84.9559 131.972 89.4179C131.687 90.8142 131.293 94.3723 130.22 95.094C128.303 96.3857 125.665 95.7146 125.315 93.1952C124.697 88.7333 126.269 81.4012 127.087 76.8077C127.641 73.6982 129.097 64.4775 130.893 62.3763C134.508 58.1505 138.317 66.211 139.491 68.6561C140.438 70.6291 141.487 74.457 142.638 75.9848C143.504 77.1349 144.339 76.258 144.882 75.2631C145.951 72.2041 147.536 61.7423 150.089 60.2044C151.769 59.1926 153.881 59.8638 154.152 61.8435C154.251 62.5686 154.186 63.7692 154.102 64.5247C153.555 69.3711 151.148 76.0017 150.164 81.1854C149.716 83.5428 149.682 88.3117 148.66 90.1464C147.601 92.0485 145.265 92.5544 143.442 91.374C140.319 89.3538 137.841 79.7284 135.421 76.4098L134.111 75.8567Z" fill="white"/>
<path d="M184.959 55.3849C188.856 54.9431 193.404 55.0207 196.066 58.3123C198.164 60.9092 197.424 64.5753 195.954 67.3239C195.601 67.985 194.755 68.4976 194.599 69.0102C194.151 70.4841 194.423 72.2648 195.879 72.9967C199.314 74.7234 209.054 74.5885 209.783 79.4181C210.347 83.1516 207.407 83.2055 204.583 82.5648C199.64 81.4417 192.902 78.3085 188.167 77.6205C187.029 77.4553 186.004 77.3945 185.699 78.7436C185.733 81.2528 187.369 86.2847 186.306 88.4263C185.454 90.143 182.596 90.632 181.286 89.1886C180.128 87.9137 178.696 78.892 178.332 76.6087C177.093 68.7944 173.743 56.6564 184.959 55.3849ZM185.953 61.7693C182.012 62.5753 183.726 68.3796 185.529 68.4302C189.905 67.0305 193.764 60.174 185.953 61.7693Z" fill="white"/>
<path d="M33.5724 61.749C32.3334 60.9969 27.6353 62.6023 26.5252 63.5702C24.6854 65.1689 24.777 70.0692 22.8625 71.0608C20.5813 72.2412 17.9912 70.8584 17.9844 68.2716C17.9742 65.1857 20.8732 55.6682 21.9154 52.2484C23.2732 47.7999 27.3739 35.5236 31.5696 33.5102C38.5931 30.141 39.5945 42.1272 40.0731 46.3497C40.7622 52.4271 40.8505 58.798 41.4479 64.9125C41.3088 66.582 40.769 68.4639 38.868 68.7573C34.1427 69.4824 35.1 64.6427 33.5724 61.7524V61.749ZM32.9037 53.8875C32.8222 52.4879 33.3688 51.1624 33.2635 49.7628C33.0361 46.7814 31.6409 44.7848 30.222 48.6937C29.9979 49.3075 28.8471 53.4861 28.9083 53.7391C29.1357 54.6699 32.1501 54.3091 32.9037 53.8875Z" fill="white"/>
<path d="M71.311 49.8842C70.3944 52.7307 71.5147 55.8605 71.3314 58.4877C70.9885 63.3746 66.0086 63.4691 65.0106 60.3595C64.3385 58.2618 64.8884 56.6429 64.8748 54.7914C64.8205 48.6498 64.5421 41.6787 65.238 35.5877C66.1376 27.7093 75.1197 27.6621 81.0807 29.5541C87.1367 31.4765 87.3403 36.9435 83.7047 41.4561C81.6136 44.053 78.477 44.4307 82.7508 47.1187C85.6125 48.9163 93.2673 51.3918 94.2382 54.589C94.9578 56.9566 93.6475 58.481 91.346 58.8553C89.2753 59.196 86.6105 56.562 84.7774 55.5569C83.2261 54.707 72.034 49.1389 71.311 49.8775V49.8842ZM72.421 35.8171C71.0055 37.2234 71.5486 40.9738 73.8773 41.1154C75.4015 41.2065 78.9217 38.4039 79.0575 36.839C78.511 34.5827 73.6736 34.5692 72.421 35.8171Z" fill="white"/>
<path d="M84.2138 133.191C84.7807 133.299 84.9233 133.066 85.1474 132.604C86.7055 129.4 87.3437 123.043 88.4503 119.36C89.1564 117.006 89.781 114.24 92.7818 114.716C95.2735 115.11 95.1988 117.056 94.9781 119.104C94.3841 124.584 91.7465 132.516 90.4871 138.246C90.0424 140.273 89.7233 145.626 88.2738 146.84C86.8413 148.037 84.3225 147.18 83.1887 145.845C81.1825 143.481 79.2883 137.326 77.5468 134.25C77.0105 133.302 76.155 131.646 75.2215 131.171C74.2371 131.39 72.8962 141.437 72.5635 143.036C72.18 144.88 71.9797 147.845 70.4691 149.046C68.8193 150.357 66.46 149.312 66.2156 147.194C65.6419 142.26 68.619 124.146 70.6829 119.579C74.288 111.596 78.2122 120.173 80.0928 123.963C81.583 126.968 82.8424 130.135 84.2206 133.191H84.2138Z" fill="white"/>
<path d="M168.006 89.057C165.803 88.2577 161.111 88.6793 159.764 90.7231C158.881 92.062 157.13 98.126 156.094 98.5644C153.27 99.7684 151.06 97.7887 151.114 94.9456C151.196 90.5848 157.859 76.3018 160.185 71.9174C161.407 69.614 165.249 62.8485 167.351 61.8401C170.321 60.4101 172.606 62.3156 173.111 65.2599C174.374 72.6021 175.494 85.2392 174.832 92.5443C174.693 94.0721 174.269 96.6488 172.31 96.7162C167.388 96.8916 168.736 92.433 167.999 89.0536L168.006 89.057ZM167.296 75.941C166.407 74.8044 164.971 77.2731 164.598 77.9881C163.331 80.3996 162.727 82.6423 166.519 81.9172C168.522 81.5327 167.71 77.4451 167.296 75.9443V75.941Z" fill="white"/>
<path d="M9.7835 79.9645C12.085 79.5328 13.5176 81.472 14.4443 83.2797C17.1498 88.5713 21.0434 101.438 22.6694 107.485C23.5079 110.605 22.795 113.704 18.8709 112.942C16.4607 112.473 16.7119 107.718 15.4152 107.272C14.2508 106.871 10.8969 108.025 9.73937 108.608C4.57957 111.218 8.12354 117.771 4.437 119.528C0.628245 121.343 -0.0880167 117.734 0.0104269 114.793C0.248049 107.616 2.17279 96.1968 4.19258 89.2729C4.96316 86.6287 6.70459 80.5412 9.7835 79.9645ZM10.846 94.1058L9.86837 94.0653C9.8514 96.1867 8.43584 98.9826 8.53089 101.023C8.55126 101.458 8.70402 101.559 9.01293 101.816C14.9806 100.433 12.265 98.2845 10.846 94.1058Z" fill="white"/>
<path d="M84.0874 72.9393C86.2125 75.2428 87.146 79.3675 87.258 82.4332C87.5092 89.4348 82.7296 108.541 72.4337 103.235C62.423 98.0754 66.4694 74.6594 75.4821 70.0558C78.6968 68.4133 81.9217 70.5954 84.0874 72.9427V72.9393ZM79.3621 77.634C76.3477 75.2125 74.0903 83.3944 73.7712 85.2156C73.3876 87.4078 72.3149 96.0586 75.6043 96.3553C78.0179 95.8124 79.189 91.9271 79.7016 89.7552C80.2413 87.4685 81.1918 79.0977 79.3655 77.6306L79.3621 77.634Z" fill="white"/>
<path d="M129.698 41.7933C130.557 41.9147 130.822 40.9468 131.114 40.3397C133.476 35.4157 134.613 29.0988 137.217 24.1445C139.936 20.9034 143.429 22.9843 142.903 27.0955C142.353 31.3821 137.506 43.3751 135.625 47.8539C134.817 49.7729 132.268 55.8875 130.686 56.7744C125.692 59.5703 124.552 53.3479 123.686 49.9584C122.138 43.9113 121.449 37.6821 120.869 31.5103C120.733 30.0803 120.166 28.1444 120.166 26.7852C120.166 21.9118 126.1 20.5425 127.288 26.1444C128.079 29.8611 127.991 34.2421 128.788 38.1442C129.04 39.3819 129.304 40.5961 129.701 41.7933H129.698Z" fill="white"/>
<path d="M52.878 122.807C55.2746 122.26 55.5903 123.107 57.2876 123.68C60.3427 124.712 61.6802 124.827 62.9192 128.203C65.5432 135.366 63.1297 154.408 54.0152 155.973C44.6664 157.578 43.4647 143.585 44.6426 137.221C45.2367 134.007 49.5784 123.559 52.878 122.807ZM54.5583 130.54C53.1088 131.026 51.0822 138.762 50.9464 140.449C50.8208 142 50.7937 151.312 54.1849 148.047C55.8618 146.435 57.2163 140.735 57.386 138.412C57.515 136.668 57.6474 129.508 54.5617 130.537L54.5583 130.54Z" fill="white"/>
<path d="M108.213 78.1197C107.534 78.6694 106 78.6896 105.168 78.4704C103.206 77.9578 102.432 73.8061 100.335 75.5261C98.1212 77.3406 95.5617 89.8024 95.4123 92.8917C95.3071 95.0973 95.2154 100.949 98.8069 99.9944C102.527 99.0028 104.035 90.2678 108.291 92.9085C112.219 95.3436 107.283 101.64 104.917 103.687C99.9305 108.004 92.3334 108.702 89.7128 101.583C87.2958 95.013 90.0794 80.0218 93.6539 73.9477C96.5122 69.0878 102.083 65.813 107.114 70.1333C109.194 71.9208 110.562 76.2175 108.213 78.123V78.1197Z" fill="white"/>
<path d="M154.475 29.9892C156.851 30.1376 162.697 30.2421 162.225 33.7766C161.692 37.7698 155.107 35.9115 152.442 37.2403C151.902 37.7024 151.002 42.6871 151.322 43.3818C152.001 44.859 155.911 43.5336 157.347 43.4661C159.183 43.3784 161.906 43.0277 162.269 45.3582C162.446 46.4947 162.211 47.6482 161.258 48.3598C159.53 49.6481 148.837 50.9668 146.661 50.4002C144.427 49.8201 143.877 47.3514 143.955 45.3413C144.156 40.2419 147.781 26.3232 149.553 21.2171C150.086 19.6859 150.66 18.2424 152.201 17.4397C154.899 16.0367 166.981 15.5781 167.999 19.1024C168.899 22.2221 165.094 23.126 162.795 23.1732C161.312 23.2035 157.028 22.2356 156.033 22.9337C154.957 23.6892 154.387 28.5356 154.475 29.9892Z" fill="white"/>
<path d="M197.828 29.8948C196.704 31.1865 190.94 32.1072 190.903 34.4714C190.896 34.9537 191.494 39.2369 191.629 39.4494C191.993 40.0193 192.621 39.6618 193.106 39.5404C195.231 39.0076 199.342 35.8845 201.121 36.0599C203.256 36.269 204.183 38.9941 203.157 40.7512C202.037 42.677 192.593 47.2064 190.261 47.4964C187.518 47.837 186.582 46.1878 185.872 43.8203C184.025 37.6754 182.861 25.2203 183.085 18.782C183.136 17.3723 183.839 15.1632 184.857 14.1346C186.337 12.6372 193.625 10.3809 195.818 10.1617C197.597 9.98292 198.785 10.789 198.958 12.6169C199.386 17.1396 192.926 16.8934 190.326 18.8933C189.331 19.6589 189.664 24.4919 190.438 25.4564C191.212 26.421 194.579 24.8966 196.036 24.9539C198.694 25.0585 199.318 28.1815 197.831 29.8948H197.828Z" fill="white"/>
<path d="M34.241 119.448C38.6098 119.097 42.8463 122.689 42.035 127.208C41.6582 129.306 39.2752 130.57 37.3606 129.65C36.2336 129.107 35.3035 124.331 32.6625 127.677C30.2998 130.668 27.574 143.747 28.3513 147.376C28.7417 149.201 30.2863 150.88 32.2891 150.246C35.1168 149.352 37.7272 140.391 41.6243 144.644C44.9204 148.243 38.0226 154.674 34.8792 156.185C27.3533 159.801 22.4719 154.472 21.793 147.147C21.1039 139.67 24.658 120.223 34.2444 119.451L34.241 119.448Z" fill="white"/>
<path d="M180.321 9.46016L179.252 25.4294C178.05 28.6537 179.008 37.3651 175.613 39.0143C174.18 39.7124 172.66 39.2032 171.791 37.9148C170.076 35.3719 172.469 27.3687 172.806 24.0804C172.928 22.8764 172.714 21.5948 172.812 20.3773C173.06 17.3048 173.678 14.1514 173.339 11.079C172.195 9.46353 162.564 14.138 159.716 12.4719C158.154 11.5579 158.212 8.72156 159.577 7.56812C161.675 5.79751 174.109 3.39958 177.49 2.76891C180.104 2.27988 188.197 0.44181 190.115 1.8347C192.328 3.44006 191.354 6.24269 189.035 7.15667C187.786 7.64907 180.583 9.03858 180.321 9.46016Z" fill="white"/>
<path d="M110.514 36.7344C111.76 36.9536 113.132 38.2622 113.088 39.591C112.955 43.4155 106.75 42.4577 104.316 43.8978L103.559 50.2248C104.442 51.0343 111.533 48.2755 113.152 48.5959C115.64 49.0916 115.739 52.4373 113.916 53.9381C112.497 55.105 108.199 56.0965 106.285 56.4743C103.518 57.024 98.5621 58.2921 97.469 54.7576C96.2096 50.6835 97.7711 37.9553 98.5621 33.291C99.1833 29.6317 99.8248 24.6504 104.214 23.7296C106.444 23.2609 111.584 22.8865 113.909 22.8798C116.526 22.873 117.63 24.5694 117.063 27.0517C116.279 30.4681 108.216 28.829 105.67 30.404C105.158 31.2506 104.36 36.7344 105.423 36.7344C106.974 36.9233 109.051 36.4747 110.514 36.7344Z" fill="white"/>
<path d="M51.2384 29.3585C50.4577 28.1006 40.6269 32.1949 38.3729 31.5372C34.7033 30.4681 36.6111 26.0939 39.8971 24.9168C47.7726 22.0939 57.5049 21.3823 65.7266 19.9051C69.145 19.9726 71.3617 23.7971 67.8143 25.6689C65.8149 26.7245 59.0936 27.0179 58.2517 28.6469C57.9937 29.1494 57.8274 30.5187 57.7357 31.1696C57.213 34.9469 57.213 39.1189 56.6732 42.9299C56.3134 45.4661 54.9793 53.8302 53.8082 55.5974C52.4911 57.5872 49.5038 57.4894 48.7502 55.2601C47.8404 52.5688 49.8093 45.7325 50.2133 42.5825C50.4509 40.7107 51.7646 30.2051 51.2384 29.3552V29.3585Z" fill="white"/>
<path d="M116.564 73.2631C118.326 71.3306 121.168 72.8989 121.517 75.3811C122.087 79.3945 119.64 97.3334 118.33 101.495C117.128 105.313 112.606 105.519 112.063 102.311C111.415 98.4598 113.74 88.1801 114.375 83.7384C114.786 80.8784 114.558 75.4587 116.561 73.2631H116.564Z" fill="white"/>
<path d="M115.349 111.657C115.542 111.616 115.733 111.573 115.933 111.6C118.961 113.046 115.556 114.544 114.575 115.643C113.024 117.38 111.079 119.798 111.34 122.243C111.54 124.115 114.806 125.393 115.851 127.221C119.752 134.037 108.811 137.936 105.769 130.83C103.61 125.785 106.228 120.807 109.341 116.847C110.491 115.384 113.557 112.021 115.352 111.66L115.349 111.657Z" fill="white"/>
<path d="M269.121 101.229C273.955 100.342 277.112 104.156 276.997 108.686C276.875 113.471 272.333 120.534 268.31 123.016C266.905 123.886 264.461 124.635 265.282 122.044C265.713 120.689 269.087 118.395 270.058 115.991C271.997 111.195 267.458 110.999 265.964 107.917C264.579 105.057 265.869 101.829 269.118 101.232L269.121 101.229Z" fill="white"/>
<path d="M251.948 125.39C251.842 125.323 251.588 124.466 251.601 124.25C251.666 123.087 254.874 120.685 255.787 119.006C259.232 112.652 253.886 113.387 252.053 109.603C248.787 102.851 259.898 99.4986 262.349 107.131C264.09 112.554 261.49 117.788 257.847 121.731C256.958 122.692 253.271 126.233 251.948 125.39Z" fill="white"/>
<path d="M129.267 110.642C130.098 110.473 130.9 110.81 131.008 111.711C129.413 114.476 125.197 116.598 125.604 120.213C125.889 122.746 129.549 123.822 130.451 126.203C132.879 132.584 122.885 135.919 120.023 129.144C117.983 124.311 120.498 119.265 123.594 115.491C124.45 114.449 128.13 110.871 129.267 110.642Z" fill="white"/>
<path d="M103.947 19.8242C103.791 19.5847 103.831 18.3874 103.906 18.0266C104.13 16.9844 110.156 10.9812 111.381 10.2763C112.684 9.52761 114.277 9.43317 115.258 10.7721C116.551 12.536 115.142 13.6287 113.9 14.8024C112.892 15.7534 108.068 19.6286 107.036 20.1345C105.827 20.7247 105.108 20.2424 103.943 19.8242H103.947Z" fill="white"/>
<path d="M121.778 69.0035C120.923 69.931 117.83 70.2278 117.1 69.3104C115.865 66.646 117.375 62.8418 120.675 63.0475C123.173 63.206 123.024 67.6443 121.775 69.0001L121.778 69.0035Z" fill="white"/>
</svg>
