<svg width="890" height="591" viewBox="0 0 890 591" fill="none" xmlns="http://www.w3.org/2000/svg">
<path d="M-350.426 873.434C-376.241 929.696 -315.638 951.501 -323.76 973.748L353.728 1033.4C379.543 977.14 429.127 1000.24 444.211 958.92C459.295 917.605 403.622 896.743 417.545 858.606C431.469 820.469 492.944 825.44 508.028 784.125C523.112 742.81 465.118 728.305 479.041 690.168C492.965 652.031 549.511 656.057 564.595 614.742C579.679 573.427 531.255 547.153 542.858 515.373C554.461 483.592 611.007 487.619 627.251 443.125C643.495 398.632 588.11 391.427 605.514 343.756C622.919 296.084 672.503 319.18 688.747 274.687C704.991 230.193 651.927 216.632 665.85 178.495C679.774 140.358 742.41 142.151 752.564 99.8916C762.718 57.6325 718.064 35.4811 729.667 3.70024C741.27 -28.0808 800.136 -30.4101 814.06 -68.5471C827.984 -106.684 778.4 -129.78 791.163 -164.739C803.926 -199.698 867.434 -214.739 875.556 -236.986L171.401 -396.953C163.279 -374.706 99.7715 -359.665 87.0081 -324.706C74.2448 -289.747 123.829 -266.651 109.905 -228.514C95.9814 -190.377 37.115 -188.048 25.512 -156.267C13.909 -124.486 58.5634 -102.334 48.4091 -60.0754C38.2547 -17.8164 -24.3811 -19.609 -38.3047 18.5281C-52.2284 56.6652 0.8365 70.2265 -15.4077 114.72C-31.652 159.213 -81.2359 136.117 -98.6405 183.789C-116.045 231.46 -60.6595 238.665 -76.9038 283.158C-93.148 327.651 -149.694 323.624 -161.297 355.405C-172.9 387.186 -124.476 413.46 -139.56 454.775C-154.644 496.09 -211.19 492.063 -225.114 530.2C-239.037 568.337 -181.043 582.842 -196.127 624.157C-211.211 665.473 -272.686 660.502 -286.61 698.639C-300.533 736.776 -244.859 757.637 -259.943 798.952C-275.027 840.268 -324.611 817.172 -350.426 873.434Z" fill="black"/>
<path d="M-350.426 873.434C-376.241 929.696 -315.638 951.501 -323.76 973.748L353.728 1033.4C379.543 977.14 429.127 1000.24 444.211 958.92C459.295 917.605 403.622 896.743 417.545 858.606C431.469 820.469 492.944 825.44 508.028 784.125C523.112 742.81 465.118 728.305 479.041 690.168C492.965 652.031 549.511 656.057 564.595 614.742C579.679 573.427 531.255 547.153 542.858 515.373C554.461 483.592 611.007 487.619 627.251 443.125C643.495 398.632 588.11 391.427 605.514 343.756C622.919 296.084 672.503 319.18 688.747 274.687C704.991 230.193 651.927 216.632 665.85 178.495C679.774 140.358 742.41 142.151 752.564 99.8916C762.718 57.6325 718.064 35.4811 729.667 3.70024C741.27 -28.0808 800.136 -30.4101 814.06 -68.5471C827.984 -106.684 778.4 -129.78 791.163 -164.739C803.926 -199.698 867.434 -214.739 875.556 -236.986L171.401 -396.953C163.279 -374.706 99.7715 -359.665 87.0081 -324.706C74.2448 -289.747 123.829 -266.651 109.905 -228.514C95.9814 -190.377 37.115 -188.048 25.512 -156.267C13.909 -124.486 58.5634 -102.334 48.4091 -60.0754C38.2547 -17.8164 -24.3811 -19.609 -38.3047 18.5281C-52.2284 56.6652 0.8365 70.2265 -15.4077 114.72C-31.652 159.213 -81.2359 136.117 -98.6405 183.789C-116.045 231.46 -60.6595 238.665 -76.9038 283.158C-93.148 327.651 -149.694 323.624 -161.297 355.405C-172.9 387.186 -124.476 413.46 -139.56 454.775C-154.644 496.09 -211.19 492.063 -225.114 530.2C-239.037 568.337 -181.043 582.842 -196.127 624.157C-211.211 665.473 -272.686 660.502 -286.61 698.639C-300.533 736.776 -244.859 757.637 -259.943 798.952C-275.027 840.268 -324.611 817.172 -350.426 873.434Z" fill="black" fill-opacity="0.2"/>
<path d="M-350.426 873.434C-376.241 929.696 -315.638 951.501 -323.76 973.748L353.728 1033.4C379.543 977.14 429.127 1000.24 444.211 958.92C459.295 917.605 403.622 896.743 417.545 858.606C431.469 820.469 492.944 825.44 508.028 784.125C523.112 742.81 465.118 728.305 479.041 690.168C492.965 652.031 549.511 656.057 564.595 614.742C579.679 573.427 531.255 547.153 542.858 515.373C554.461 483.592 611.007 487.619 627.251 443.125C643.495 398.632 588.11 391.427 605.514 343.756C622.919 296.084 672.503 319.18 688.747 274.687C704.991 230.193 651.927 216.632 665.85 178.495C679.774 140.358 742.41 142.151 752.564 99.8916C762.718 57.6325 718.064 35.4811 729.667 3.70024C741.27 -28.0808 800.136 -30.4101 814.06 -68.5471C827.984 -106.684 778.4 -129.78 791.163 -164.739C803.926 -199.698 867.434 -214.739 875.556 -236.986L171.401 -396.953C163.279 -374.706 99.7715 -359.665 87.0081 -324.706C74.2448 -289.747 123.829 -266.651 109.905 -228.514C95.9814 -190.377 37.115 -188.048 25.512 -156.267C13.909 -124.486 58.5634 -102.334 48.4091 -60.0754C38.2547 -17.8164 -24.3811 -19.609 -38.3047 18.5281C-52.2284 56.6652 0.8365 70.2265 -15.4077 114.72C-31.652 159.213 -81.2359 136.117 -98.6405 183.789C-116.045 231.46 -60.6595 238.665 -76.9038 283.158C-93.148 327.651 -149.694 323.624 -161.297 355.405C-172.9 387.186 -124.476 413.46 -139.56 454.775C-154.644 496.09 -211.19 492.063 -225.114 530.2C-239.037 568.337 -181.043 582.842 -196.127 624.157C-211.211 665.473 -272.686 660.502 -286.61 698.639C-300.533 736.776 -244.859 757.637 -259.943 798.952C-275.027 840.268 -324.611 817.172 -350.426 873.434Z" fill="black" fill-opacity="0.2"/>
<path d="M-350.426 873.434C-376.241 929.696 -315.638 951.501 -323.76 973.748L353.728 1033.4C379.543 977.14 429.127 1000.24 444.211 958.92C459.295 917.605 403.622 896.743 417.545 858.606C431.469 820.469 492.944 825.44 508.028 784.125C523.112 742.81 465.118 728.305 479.041 690.168C492.965 652.031 549.511 656.057 564.595 614.742C579.679 573.427 531.255 547.153 542.858 515.373C554.461 483.592 611.007 487.619 627.251 443.125C643.495 398.632 588.11 391.427 605.514 343.756C622.919 296.084 672.503 319.18 688.747 274.687C704.991 230.193 651.927 216.632 665.85 178.495C679.774 140.358 742.41 142.151 752.564 99.8916C762.718 57.6325 718.064 35.4811 729.667 3.70024C741.27 -28.0808 800.136 -30.4101 814.06 -68.5471C827.984 -106.684 778.4 -129.78 791.163 -164.739C803.926 -199.698 867.434 -214.739 875.556 -236.986L171.401 -396.953C163.279 -374.706 99.7715 -359.665 87.0081 -324.706C74.2448 -289.747 123.829 -266.651 109.905 -228.514C95.9814 -190.377 37.115 -188.048 25.512 -156.267C13.909 -124.486 58.5634 -102.334 48.4091 -60.0754C38.2547 -17.8164 -24.3811 -19.609 -38.3047 18.5281C-52.2284 56.6652 0.8365 70.2265 -15.4077 114.72C-31.652 159.213 -81.2359 136.117 -98.6405 183.789C-116.045 231.46 -60.6595 238.665 -76.9038 283.158C-93.148 327.651 -149.694 323.624 -161.297 355.405C-172.9 387.186 -124.476 413.46 -139.56 454.775C-154.644 496.09 -211.19 492.063 -225.114 530.2C-239.037 568.337 -181.043 582.842 -196.127 624.157C-211.211 665.473 -272.686 660.502 -286.61 698.639C-300.533 736.776 -244.859 757.637 -259.943 798.952C-275.027 840.268 -324.611 817.172 -350.426 873.434Z" fill="black" fill-opacity="0.2"/>
<path d="M-350.426 873.434C-376.241 929.696 -315.638 951.501 -323.76 973.748L353.728 1033.4C379.543 977.14 429.127 1000.24 444.211 958.92C459.295 917.605 403.622 896.743 417.545 858.606C431.469 820.469 492.944 825.44 508.028 784.125C523.112 742.81 465.118 728.305 479.041 690.168C492.965 652.031 549.511 656.057 564.595 614.742C579.679 573.427 531.255 547.153 542.858 515.373C554.461 483.592 611.007 487.619 627.251 443.125C643.495 398.632 588.11 391.427 605.514 343.756C622.919 296.084 672.503 319.18 688.747 274.687C704.991 230.193 651.927 216.632 665.85 178.495C679.774 140.358 742.41 142.151 752.564 99.8916C762.718 57.6325 718.064 35.4811 729.667 3.70024C741.27 -28.0808 800.136 -30.4101 814.06 -68.5471C827.984 -106.684 778.4 -129.78 791.163 -164.739C803.926 -199.698 867.434 -214.739 875.556 -236.986L171.401 -396.953C163.279 -374.706 99.7715 -359.665 87.0081 -324.706C74.2448 -289.747 123.829 -266.651 109.905 -228.514C95.9814 -190.377 37.115 -188.048 25.512 -156.267C13.909 -124.486 58.5634 -102.334 48.4091 -60.0754C38.2547 -17.8164 -24.3811 -19.609 -38.3047 18.5281C-52.2284 56.6652 0.8365 70.2265 -15.4077 114.72C-31.652 159.213 -81.2359 136.117 -98.6405 183.789C-116.045 231.46 -60.6595 238.665 -76.9038 283.158C-93.148 327.651 -149.694 323.624 -161.297 355.405C-172.9 387.186 -124.476 413.46 -139.56 454.775C-154.644 496.09 -211.19 492.063 -225.114 530.2C-239.037 568.337 -181.043 582.842 -196.127 624.157C-211.211 665.473 -272.686 660.502 -286.61 698.639C-300.533 736.776 -244.859 757.637 -259.943 798.952C-275.027 840.268 -324.611 817.172 -350.426 873.434Z" fill="black" fill-opacity="0.2"/>
<path d="M-350.426 873.434C-376.241 929.696 -315.638 951.501 -323.76 973.748L353.728 1033.4C379.543 977.14 429.127 1000.24 444.211 958.92C459.295 917.605 403.622 896.743 417.545 858.606C431.469 820.469 492.944 825.44 508.028 784.125C523.112 742.81 465.118 728.305 479.041 690.168C492.965 652.031 549.511 656.057 564.595 614.742C579.679 573.427 531.255 547.153 542.858 515.373C554.461 483.592 611.007 487.619 627.251 443.125C643.495 398.632 588.11 391.427 605.514 343.756C622.919 296.084 672.503 319.18 688.747 274.687C704.991 230.193 651.927 216.632 665.85 178.495C679.774 140.358 742.41 142.151 752.564 99.8916C762.718 57.6325 718.064 35.4811 729.667 3.70024C741.27 -28.0808 800.136 -30.4101 814.06 -68.5471C827.984 -106.684 778.4 -129.78 791.163 -164.739C803.926 -199.698 867.434 -214.739 875.556 -236.986L171.401 -396.953C163.279 -374.706 99.7715 -359.665 87.0081 -324.706C74.2448 -289.747 123.829 -266.651 109.905 -228.514C95.9814 -190.377 37.115 -188.048 25.512 -156.267C13.909 -124.486 58.5634 -102.334 48.4091 -60.0754C38.2547 -17.8164 -24.3811 -19.609 -38.3047 18.5281C-52.2284 56.6652 0.8365 70.2265 -15.4077 114.72C-31.652 159.213 -81.2359 136.117 -98.6405 183.789C-116.045 231.46 -60.6595 238.665 -76.9038 283.158C-93.148 327.651 -149.694 323.624 -161.297 355.405C-172.9 387.186 -124.476 413.46 -139.56 454.775C-154.644 496.09 -211.19 492.063 -225.114 530.2C-239.037 568.337 -181.043 582.842 -196.127 624.157C-211.211 665.473 -272.686 660.502 -286.61 698.639C-300.533 736.776 -244.859 757.637 -259.943 798.952C-275.027 840.268 -324.611 817.172 -350.426 873.434Z" fill="black" fill-opacity="0.2"/>
<path d="M876.001 -237.033C867.879 -214.786 804.381 -199.744 791.619 -164.786C778.857 -129.827 828.434 -106.731 814.512 -68.5941C800.59 -30.457 741.731 -28.1271 730.13 3.65393C718.529 35.4343 763.177 57.5858 753.024 99.8444C742.871 142.103 680.243 140.312 666.321 178.449C652.902 215.209 701.711 229.135 690.706 269.94C581.422 171.507 287.157 150.253 -37.8001 227.969C-53.3804 231.696 -68.7951 235.593 -84.0296 239.651C-94.6012 224.591 -107.87 210.579 -98.0735 183.742C-80.6712 136.07 -31.0931 159.166 -14.8509 114.672C1.39087 70.1796 -51.6673 56.6181 -37.7454 18.4811C-23.8234 -19.6559 38.8046 -17.8634 48.9577 -60.1224C59.1107 -102.381 14.4616 -124.533 26.0632 -156.314C37.6649 -188.095 96.5241 -190.424 110.446 -228.561C124.368 -266.698 74.7907 -289.793 87.5524 -324.752C100.314 -359.711 163.813 -374.753 171.934 -396.999L876.001 -237.033Z" fill="#A89074"/>
</svg>
