<svg width="890" height="591" viewBox="0 0 890 591" fill="none" xmlns="http://www.w3.org/2000/svg">
<path d="M-350.426 873.434C-376.241 929.696 -315.638 951.501 -323.76 973.748L353.728 1033.4C379.543 977.14 429.127 1000.24 444.211 958.92C459.295 917.605 403.622 896.743 417.545 858.606C431.469 820.469 492.944 825.44 508.028 784.125C523.112 742.81 465.118 728.305 479.041 690.168C492.965 652.031 549.511 656.057 564.595 614.742C579.679 573.427 531.255 547.153 542.858 515.373C554.461 483.592 611.007 487.619 627.251 443.125C643.495 398.632 588.11 391.427 605.514 343.756C622.919 296.084 672.503 319.18 688.747 274.687C704.991 230.193 651.927 216.632 665.85 178.495C679.774 140.358 742.41 142.151 752.564 99.8916C762.718 57.6325 718.064 35.4811 729.667 3.70024C741.27 -28.0808 800.136 -30.4101 814.06 -68.5471C827.984 -106.684 778.4 -129.78 791.163 -164.739C803.926 -199.698 867.434 -214.739 875.556 -236.986L171.401 -396.953C163.279 -374.706 99.7715 -359.665 87.0081 -324.706C74.2448 -289.747 123.829 -266.651 109.905 -228.514C95.9814 -190.377 37.115 -188.048 25.512 -156.267C13.909 -124.486 58.5634 -102.334 48.4091 -60.0754C38.2547 -17.8164 -24.3811 -19.609 -38.3047 18.5281C-52.2284 56.6652 0.8365 70.2265 -15.4077 114.72C-31.652 159.213 -81.2359 136.117 -98.6405 183.789C-116.045 231.46 -60.6595 238.665 -76.9038 283.158C-93.148 327.651 -149.694 323.624 -161.297 355.405C-172.9 387.186 -124.476 413.46 -139.56 454.775C-154.644 496.09 -211.19 492.063 -225.114 530.2C-239.037 568.337 -181.043 582.842 -196.127 624.157C-211.211 665.473 -272.686 660.502 -286.61 698.639C-300.533 736.776 -244.859 757.637 -259.943 798.952C-275.027 840.268 -324.611 817.172 -350.426 873.434Z" fill="black"/>
<path d="M-350.426 873.434C-376.241 929.696 -315.638 951.501 -323.76 973.748L353.728 1033.4C379.543 977.14 429.127 1000.24 444.211 958.92C459.295 917.605 403.622 896.743 417.545 858.606C431.469 820.469 492.944 825.44 508.028 784.125C523.112 742.81 465.118 728.305 479.041 690.168C492.965 652.031 549.511 656.057 564.595 614.742C579.679 573.427 531.255 547.153 542.858 515.373C554.461 483.592 611.007 487.619 627.251 443.125C643.495 398.632 588.11 391.427 605.514 343.756C622.919 296.084 672.503 319.18 688.747 274.687C704.991 230.193 651.927 216.632 665.85 178.495C679.774 140.358 742.41 142.151 752.564 99.8916C762.718 57.6325 718.064 35.4811 729.667 3.70024C741.27 -28.0808 800.136 -30.4101 814.06 -68.5471C827.984 -106.684 778.4 -129.78 791.163 -164.739C803.926 -199.698 867.434 -214.739 875.556 -236.986L171.401 -396.953C163.279 -374.706 99.7715 -359.665 87.0081 -324.706C74.2448 -289.747 123.829 -266.651 109.905 -228.514C95.9814 -190.377 37.115 -188.048 25.512 -156.267C13.909 -124.486 58.5634 -102.334 48.4091 -60.0754C38.2547 -17.8164 -24.3811 -19.609 -38.3047 18.5281C-52.2284 56.6652 0.8365 70.2265 -15.4077 114.72C-31.652 159.213 -81.2359 136.117 -98.6405 183.789C-116.045 231.46 -60.6595 238.665 -76.9038 283.158C-93.148 327.651 -149.694 323.624 -161.297 355.405C-172.9 387.186 -124.476 413.46 -139.56 454.775C-154.644 496.09 -211.19 492.063 -225.114 530.2C-239.037 568.337 -181.043 582.842 -196.127 624.157C-211.211 665.473 -272.686 660.502 -286.61 698.639C-300.533 736.776 -244.859 757.637 -259.943 798.952C-275.027 840.268 -324.611 817.172 -350.426 873.434Z" fill="black" fill-opacity="0.2"/>
<path d="M-350.426 873.434C-376.241 929.696 -315.638 951.501 -323.76 973.748L353.728 1033.4C379.543 977.14 429.127 1000.24 444.211 958.92C459.295 917.605 403.622 896.743 417.545 858.606C431.469 820.469 492.944 825.44 508.028 784.125C523.112 742.81 465.118 728.305 479.041 690.168C492.965 652.031 549.511 656.057 564.595 614.742C579.679 573.427 531.255 547.153 542.858 515.373C554.461 483.592 611.007 487.619 627.251 443.125C643.495 398.632 588.11 391.427 605.514 343.756C622.919 296.084 672.503 319.18 688.747 274.687C704.991 230.193 651.927 216.632 665.85 178.495C679.774 140.358 742.41 142.151 752.564 99.8916C762.718 57.6325 718.064 35.4811 729.667 3.70024C741.27 -28.0808 800.136 -30.4101 814.06 -68.5471C827.984 -106.684 778.4 -129.78 791.163 -164.739C803.926 -199.698 867.434 -214.739 875.556 -236.986L171.401 -396.953C163.279 -374.706 99.7715 -359.665 87.0081 -324.706C74.2448 -289.747 123.829 -266.651 109.905 -228.514C95.9814 -190.377 37.115 -188.048 25.512 -156.267C13.909 -124.486 58.5634 -102.334 48.4091 -60.0754C38.2547 -17.8164 -24.3811 -19.609 -38.3047 18.5281C-52.2284 56.6652 0.8365 70.2265 -15.4077 114.72C-31.652 159.213 -81.2359 136.117 -98.6405 183.789C-116.045 231.46 -60.6595 238.665 -76.9038 283.158C-93.148 327.651 -149.694 323.624 -161.297 355.405C-172.9 387.186 -124.476 413.46 -139.56 454.775C-154.644 496.09 -211.19 492.063 -225.114 530.2C-239.037 568.337 -181.043 582.842 -196.127 624.157C-211.211 665.473 -272.686 660.502 -286.61 698.639C-300.533 736.776 -244.859 757.637 -259.943 798.952C-275.027 840.268 -324.611 817.172 -350.426 873.434Z" fill="black" fill-opacity="0.2"/>
<path d="M-350.426 873.434C-376.241 929.696 -315.638 951.501 -323.76 973.748L353.728 1033.4C379.543 977.14 429.127 1000.24 444.211 958.92C459.295 917.605 403.622 896.743 417.545 858.606C431.469 820.469 492.944 825.44 508.028 784.125C523.112 742.81 465.118 728.305 479.041 690.168C492.965 652.031 549.511 656.057 564.595 614.742C579.679 573.427 531.255 547.153 542.858 515.373C554.461 483.592 611.007 487.619 627.251 443.125C643.495 398.632 588.11 391.427 605.514 343.756C622.919 296.084 672.503 319.18 688.747 274.687C704.991 230.193 651.927 216.632 665.85 178.495C679.774 140.358 742.41 142.151 752.564 99.8916C762.718 57.6325 718.064 35.4811 729.667 3.70024C741.27 -28.0808 800.136 -30.4101 814.06 -68.5471C827.984 -106.684 778.4 -129.78 791.163 -164.739C803.926 -199.698 867.434 -214.739 875.556 -236.986L171.401 -396.953C163.279 -374.706 99.7715 -359.665 87.0081 -324.706C74.2448 -289.747 123.829 -266.651 109.905 -228.514C95.9814 -190.377 37.115 -188.048 25.512 -156.267C13.909 -124.486 58.5634 -102.334 48.4091 -60.0754C38.2547 -17.8164 -24.3811 -19.609 -38.3047 18.5281C-52.2284 56.6652 0.8365 70.2265 -15.4077 114.72C-31.652 159.213 -81.2359 136.117 -98.6405 183.789C-116.045 231.46 -60.6595 238.665 -76.9038 283.158C-93.148 327.651 -149.694 323.624 -161.297 355.405C-172.9 387.186 -124.476 413.46 -139.56 454.775C-154.644 496.09 -211.19 492.063 -225.114 530.2C-239.037 568.337 -181.043 582.842 -196.127 624.157C-211.211 665.473 -272.686 660.502 -286.61 698.639C-300.533 736.776 -244.859 757.637 -259.943 798.952C-275.027 840.268 -324.611 817.172 -350.426 873.434Z" fill="black" fill-opacity="0.2"/>
<path d="M-350.426 873.434C-376.241 929.696 -315.638 951.501 -323.76 973.748L353.728 1033.4C379.543 977.14 429.127 1000.24 444.211 958.92C459.295 917.605 403.622 896.743 417.545 858.606C431.469 820.469 492.944 825.44 508.028 784.125C523.112 742.81 465.118 728.305 479.041 690.168C492.965 652.031 549.511 656.057 564.595 614.742C579.679 573.427 531.255 547.153 542.858 515.373C554.461 483.592 611.007 487.619 627.251 443.125C643.495 398.632 588.11 391.427 605.514 343.756C622.919 296.084 672.503 319.18 688.747 274.687C704.991 230.193 651.927 216.632 665.85 178.495C679.774 140.358 742.41 142.151 752.564 99.8916C762.718 57.6325 718.064 35.4811 729.667 3.70024C741.27 -28.0808 800.136 -30.4101 814.06 -68.5471C827.984 -106.684 778.4 -129.78 791.163 -164.739C803.926 -199.698 867.434 -214.739 875.556 -236.986L171.401 -396.953C163.279 -374.706 99.7715 -359.665 87.0081 -324.706C74.2448 -289.747 123.829 -266.651 109.905 -228.514C95.9814 -190.377 37.115 -188.048 25.512 -156.267C13.909 -124.486 58.5634 -102.334 48.4091 -60.0754C38.2547 -17.8164 -24.3811 -19.609 -38.3047 18.5281C-52.2284 56.6652 0.8365 70.2265 -15.4077 114.72C-31.652 159.213 -81.2359 136.117 -98.6405 183.789C-116.045 231.46 -60.6595 238.665 -76.9038 283.158C-93.148 327.651 -149.694 323.624 -161.297 355.405C-172.9 387.186 -124.476 413.46 -139.56 454.775C-154.644 496.09 -211.19 492.063 -225.114 530.2C-239.037 568.337 -181.043 582.842 -196.127 624.157C-211.211 665.473 -272.686 660.502 -286.61 698.639C-300.533 736.776 -244.859 757.637 -259.943 798.952C-275.027 840.268 -324.611 817.172 -350.426 873.434Z" fill="black" fill-opacity="0.2"/>
<path d="M-350.426 873.434C-376.241 929.696 -315.638 951.501 -323.76 973.748L353.728 1033.4C379.543 977.14 429.127 1000.24 444.211 958.92C459.295 917.605 403.622 896.743 417.545 858.606C431.469 820.469 492.944 825.44 508.028 784.125C523.112 742.81 465.118 728.305 479.041 690.168C492.965 652.031 549.511 656.057 564.595 614.742C579.679 573.427 531.255 547.153 542.858 515.373C554.461 483.592 611.007 487.619 627.251 443.125C643.495 398.632 588.11 391.427 605.514 343.756C622.919 296.084 672.503 319.18 688.747 274.687C704.991 230.193 651.927 216.632 665.85 178.495C679.774 140.358 742.41 142.151 752.564 99.8916C762.718 57.6325 718.064 35.4811 729.667 3.70024C741.27 -28.0808 800.136 -30.4101 814.06 -68.5471C827.984 -106.684 778.4 -129.78 791.163 -164.739C803.926 -199.698 867.434 -214.739 875.556 -236.986L171.401 -396.953C163.279 -374.706 99.7715 -359.665 87.0081 -324.706C74.2448 -289.747 123.829 -266.651 109.905 -228.514C95.9814 -190.377 37.115 -188.048 25.512 -156.267C13.909 -124.486 58.5634 -102.334 48.4091 -60.0754C38.2547 -17.8164 -24.3811 -19.609 -38.3047 18.5281C-52.2284 56.6652 0.8365 70.2265 -15.4077 114.72C-31.652 159.213 -81.2359 136.117 -98.6405 183.789C-116.045 231.46 -60.6595 238.665 -76.9038 283.158C-93.148 327.651 -149.694 323.624 -161.297 355.405C-172.9 387.186 -124.476 413.46 -139.56 454.775C-154.644 496.09 -211.19 492.063 -225.114 530.2C-239.037 568.337 -181.043 582.842 -196.127 624.157C-211.211 665.473 -272.686 660.502 -286.61 698.639C-300.533 736.776 -244.859 757.637 -259.943 798.952C-275.027 840.268 -324.611 817.172 -350.426 873.434Z" fill="black" fill-opacity="0.2"/>
<g clip-path="url(#clip0_86_85)">
<path d="M196.314 299.016C196.741 295.283 197.765 291.608 199.443 288.018C201.121 284.428 203.198 281.413 205.702 278.915C207.437 277.307 209.457 276.704 211.732 277.048C214.008 277.422 215.715 278.628 216.825 280.667C220.352 286.783 221.405 293.244 219.982 300.05C219.328 302.577 219.186 304.53 219.499 305.937C219.726 307.172 220.352 308.321 221.405 309.412C222.429 310.503 222.998 311.422 223.055 312.14C223.311 313.834 222.799 315.012 221.547 315.672C220.295 316.361 218.816 316.189 217.109 315.184C216.227 314.696 215.573 314.466 215.203 314.552C214.833 314.638 214.321 315.069 213.667 315.844C211.533 318.458 209.257 319.922 206.868 320.238C202.942 320.784 199.955 318.659 197.907 313.863C195.83 309.067 195.318 304.099 196.342 298.988L196.314 299.016ZM207.579 311.508C210.054 309.24 211.789 304.99 212.813 298.815C213.752 293.704 213.439 289.741 211.846 286.898C211.363 286.123 210.822 285.721 210.225 285.663C209.627 285.606 209.03 285.979 208.461 286.754C206.043 290.344 204.421 294.508 203.596 299.189C202.544 304.731 202.914 308.809 204.734 311.451C205.588 312.485 206.555 312.513 207.608 311.508H207.579Z" fill="white"/>
<path d="M238.957 306.799C237.364 308.809 235.515 309.843 233.438 309.957C231.361 310.044 229.427 309.182 227.663 307.344C224.79 303.783 223.51 299.217 223.851 293.646C224.192 288.075 225.785 282.964 228.63 278.369C229.597 276.847 230.735 275.584 232.044 274.55C233.921 273.344 235.685 273.43 237.392 274.78C238.103 275.44 238.9 275.842 239.782 276.043C241.176 276.503 242.314 277.68 243.138 279.604C243.963 281.528 244.419 283.567 244.476 285.721C244.476 295.197 242.626 302.233 238.957 306.799ZM233.267 302.376C234.405 302.348 235.401 300.912 236.283 298.126C237.165 295.341 237.648 292.268 237.79 288.966C237.904 285.663 237.648 283.337 236.965 282.016C236.083 280.552 235.002 280.81 233.694 282.734C230.678 288.276 229.626 293.532 230.593 298.557C231.077 301.17 231.987 302.462 233.296 302.376H233.267Z" fill="white"/>
<path d="M261.003 310.532C257.988 312.37 255.058 312.542 252.128 311.049C249.226 309.556 247.462 306.942 246.865 303.18C246.182 298.672 246.637 293.158 248.23 286.668C249.823 280.178 251.9 275.612 254.517 272.999C257.419 269.955 260.52 269.697 263.876 272.195C265.071 273.172 266.01 274.32 266.636 275.641C267.262 276.962 267.461 278.14 267.176 279.173C266.863 280.322 266.152 281.04 265.043 281.356C263.933 281.672 262.938 281.413 262.084 280.609C261.8 280.293 261.43 279.834 261.032 279.231C260.633 278.628 260.15 278.254 259.666 278.168C257.874 278.168 256.224 281.471 254.688 288.133C253.18 294.795 252.81 299.62 253.607 302.606C253.92 303.985 254.603 304.817 255.598 305.076C256.594 305.334 257.618 304.961 258.614 303.898C259.097 303.324 259.894 302.147 261.003 300.395C262.113 298.643 262.795 297.638 263.052 297.408C263.791 296.834 264.588 296.604 265.441 296.719C266.295 296.834 266.977 297.236 267.461 297.925C268.57 299.332 268.257 301.457 266.551 304.3C264.844 307.143 262.995 309.182 261.032 310.474L261.003 310.532Z" fill="white"/>
<path d="M271.557 299.447C272.183 296.116 272.837 291.521 273.52 285.663L274.459 276.876C274.971 274.837 276.052 273.889 277.673 274.004C279.778 274.004 280.774 275.842 280.689 279.489C280.689 280.954 280.547 282.533 280.376 284.256C280.205 285.979 280.006 287.444 279.864 288.65C279.693 289.856 279.466 291.435 279.153 293.417C278.84 295.398 278.612 296.891 278.441 297.954C277.702 303.238 277.133 306.282 276.763 307.143C276.166 308.78 275.17 309.469 273.748 309.268C271.443 309.096 270.561 306.914 271.074 302.721C271.13 302.405 271.301 301.314 271.529 299.476L271.557 299.447Z" fill="white"/>
<path d="M287.715 298.557C286.009 298.471 285.013 297.523 284.672 295.714C284.558 295.082 284.672 293.302 284.956 290.373C285.269 287.444 285.639 284.744 286.065 282.246C286.179 281.327 286.378 279.949 286.634 278.139C286.89 276.33 287.09 274.981 287.26 274.033C287.402 273.085 287.63 271.908 287.886 270.472C288.142 269.036 288.398 267.916 288.626 267.112C288.853 266.308 289.138 265.475 289.451 264.643C289.764 263.81 290.133 263.178 290.532 262.747C290.93 262.345 291.385 262.087 291.897 261.972C293.035 261.627 294.088 261.915 295.112 262.805C296.591 264.04 298.525 267.6 300.915 273.545L302.309 276.617C302.963 277.824 303.618 278.369 304.329 278.226C304.443 278.226 304.556 278.168 304.67 278.111C304.784 278.053 304.869 277.967 304.983 277.824C305.068 277.68 305.154 277.565 305.182 277.479C305.211 277.393 305.268 277.221 305.353 276.991C305.438 276.761 305.495 276.56 305.552 276.359C305.609 276.158 305.666 275.9 305.723 275.555C305.78 275.21 305.837 274.923 305.865 274.665C305.893 274.406 305.95 274.062 306.007 273.602C306.064 273.143 306.121 272.741 306.178 272.425C307.23 265.705 308.311 261.685 309.364 260.393C309.905 259.818 310.559 259.445 311.298 259.301C312.038 259.158 312.806 259.301 313.546 259.818C314.285 260.306 314.741 261.024 314.854 261.972C314.94 262.431 314.854 263.178 314.655 264.183C313.375 268.548 312.038 275.411 310.644 284.773C310.104 288.506 309.705 291.033 309.478 292.325C309.165 293.847 308.368 294.709 307.117 294.967C305.78 295.226 304.528 294.795 303.39 293.704C303.02 293.359 302.679 292.957 302.366 292.498C302.053 292.038 301.683 291.378 301.256 290.488C300.858 289.597 300.46 288.736 300.09 287.846C299.72 286.984 299.123 285.606 298.269 283.71C297.444 281.815 296.62 279.977 295.795 278.197C295.453 277.651 294.998 277.422 294.457 277.508C293.889 277.594 293.547 277.91 293.433 278.484C292.466 282.16 291.641 287.53 290.987 294.537C290.731 297.293 289.621 298.643 287.715 298.528V298.557Z" fill="white"/>
<path d="M333.943 298.586C333.602 298.586 333.289 298.586 333.033 298.528C332.777 298.5 332.549 298.385 332.322 298.27C332.094 298.126 331.895 298.011 331.753 297.868C331.61 297.753 331.468 297.523 331.326 297.236C331.184 296.92 331.07 296.69 331.013 296.518C330.956 296.346 330.871 296.059 330.757 295.628C330.643 295.197 330.558 294.881 330.529 294.68L330.302 293.532L330.074 292.354C329.932 291.005 329.221 290.373 327.941 290.516L322.337 291.32C321.483 291.493 320.829 292.124 320.374 293.244C318.667 297.552 317.614 299.993 317.188 300.567C316.135 301.687 314.912 301.917 313.461 301.285C311.526 300.51 311.157 298.614 312.38 295.599L317.33 281.959C318.468 278.771 320.146 275.009 322.393 270.616C324.641 266.222 326.405 263.465 327.685 262.317C328.908 261.225 330.16 260.852 331.468 261.168C332.748 261.484 333.659 262.403 334.171 263.867C334.711 265.504 335.366 270.759 336.048 279.575C336.759 288.391 337.044 293.79 336.873 295.771C336.788 296.576 336.475 297.236 335.963 297.753C335.422 298.27 334.74 298.557 333.915 298.586H333.943ZM327.457 283.825C328.851 283.567 329.505 282.763 329.42 281.442C329.306 279.231 329.192 277.795 329.05 277.163C328.908 276.531 328.652 276.187 328.225 276.158C327.286 275.928 326.319 276.876 325.324 279.058C324.328 281.241 324.129 282.705 324.755 283.423C325.096 283.969 325.978 284.084 327.429 283.825H327.457Z" fill="white"/>
<path d="M346.403 291.895C346.062 291.952 345.749 292.01 345.464 292.01C345.18 292.01 344.924 291.981 344.696 291.866C344.469 291.751 344.269 291.665 344.07 291.55C343.871 291.435 343.7 291.234 343.53 290.947C343.359 290.66 343.245 290.43 343.132 290.287C343.046 290.143 342.932 289.827 342.819 289.425C342.705 289.023 342.591 288.707 342.534 288.535C342.477 288.363 342.392 288.047 342.278 287.559C342.164 287.07 342.079 286.726 341.994 286.582C340.799 281.643 339.718 274.148 338.779 264.068C338.495 260.938 339.689 258.497 342.363 256.688C345.038 254.908 347.968 254.161 351.211 254.448C354.141 254.362 356.417 255.195 358.067 256.947C359.716 258.698 360.257 260.909 359.66 263.609C359.546 264.298 359.347 264.901 359.119 265.475C358.891 266.05 358.664 266.481 358.436 266.825C358.209 267.17 357.839 267.687 357.27 268.405C356.729 269.122 356.274 269.697 355.933 270.128C354.88 271.535 355.279 272.511 357.099 273.028C360.172 273.717 363.415 274.636 366.857 275.813C369.986 276.847 371.75 278.111 372.12 279.633C372.603 281.155 372.319 282.275 371.238 282.964C370.157 283.653 368.706 283.682 366.885 283.021C365.008 282.217 361.992 281.212 357.839 280.064C353.686 278.915 350.898 278.254 349.447 278.082C348.736 278.025 348.167 278.197 347.74 278.57C347.313 278.944 347.2 279.46 347.37 280.092C347.37 280.322 347.541 280.954 347.768 281.988C347.996 283.021 348.167 283.711 348.224 284.141C348.281 284.572 348.394 285.232 348.537 286.151C348.679 287.07 348.736 287.76 348.65 288.248C348.565 288.736 348.48 289.253 348.366 289.885C348.252 290.488 348.025 290.976 347.655 291.292C347.313 291.608 346.858 291.837 346.346 291.981L346.403 291.895ZM346.375 268.089C347.228 268.72 348.65 268.06 350.642 266.107C352.548 264.442 353.202 263.092 352.633 262.029C352.093 261.024 350.784 260.766 348.707 261.225C346.659 261.685 345.606 262.431 345.521 263.465C345.322 265.964 345.578 267.486 346.375 268.089Z" fill="white"/>
<path d="M190.425 368.539C187.41 370.377 184.48 370.55 181.55 369.056C178.648 367.563 176.884 364.95 176.287 361.188C175.604 356.68 176.059 351.166 177.652 344.676C179.245 338.186 181.322 333.62 183.939 331.007C186.841 327.963 189.942 327.704 193.298 330.203C194.493 331.179 195.432 332.328 196.058 333.649C196.684 334.97 196.883 336.147 196.598 337.181C196.285 338.33 195.574 339.047 194.465 339.363C193.355 339.679 192.36 339.421 191.506 338.617C191.222 338.301 190.852 337.841 190.454 337.238C190.055 336.635 189.572 336.262 189.088 336.176C187.296 336.176 185.646 339.478 184.11 346.141C182.602 352.803 182.232 357.627 183.029 360.614C183.342 361.992 184.024 362.825 185.02 363.083C186.016 363.342 187.04 362.968 188.036 361.906C188.519 361.332 189.316 360.154 190.425 358.403C191.535 356.651 192.217 355.646 192.473 355.416C193.213 354.842 194.01 354.612 194.863 354.727C195.716 354.842 196.399 355.244 196.883 355.933C197.992 357.34 197.679 359.465 195.972 362.308C194.266 365.151 192.416 367.19 190.454 368.482L190.425 368.539Z" fill="white"/>
<path d="M214.776 365.409C213.183 367.42 211.334 368.453 209.257 368.568C207.18 368.654 205.246 367.793 203.482 365.955C200.609 362.394 199.329 357.828 199.67 352.257C200.012 346.657 201.605 341.575 204.449 336.98C205.417 335.458 206.554 334.194 207.863 333.161C209.741 331.954 211.504 332.041 213.211 333.39C213.922 334.051 214.719 334.453 215.601 334.654C216.995 335.113 218.133 336.291 218.958 338.215C219.783 340.139 220.238 342.178 220.295 344.331C220.295 353.808 218.446 360.843 214.776 365.409ZM209.086 360.987C210.224 360.958 211.22 359.522 212.102 356.737C212.984 353.951 213.467 350.879 213.609 347.576C213.723 344.274 213.467 341.948 212.784 340.627C211.903 339.162 210.822 339.421 209.513 341.345C206.498 346.887 205.445 352.142 206.412 357.168C206.896 359.781 207.806 361.073 209.115 360.987H209.086Z" fill="white"/>
<path d="M225.786 361.044C224.079 360.958 223.083 360.011 222.742 358.201C222.628 357.57 222.742 355.789 223.026 352.86C223.339 349.931 223.709 347.232 224.136 344.733C224.25 343.814 224.449 342.436 224.705 340.627C224.961 338.818 225.16 337.468 225.331 336.52C225.473 335.573 225.7 334.395 225.956 332.96C226.212 331.524 226.468 330.404 226.696 329.6C226.924 328.796 227.208 327.963 227.521 327.13C227.834 326.297 228.204 325.666 228.602 325.235C229 324.833 229.455 324.574 229.968 324.459C231.105 324.115 232.158 324.402 233.182 325.292C234.661 326.527 236.596 330.088 238.985 336.032L240.379 339.105C241.034 340.311 241.688 340.857 242.399 340.713C242.513 340.713 242.627 340.656 242.74 340.598C242.854 340.541 242.94 340.455 243.053 340.311C243.139 340.167 243.224 340.053 243.253 339.966C243.281 339.88 243.338 339.708 243.423 339.478C243.509 339.248 243.565 339.047 243.622 338.846C243.679 338.645 243.736 338.387 243.793 338.042C243.85 337.698 243.907 337.411 243.935 337.152C243.964 336.894 244.021 336.549 244.078 336.09C244.134 335.63 244.191 335.228 244.248 334.912C245.301 328.193 246.382 324.172 247.434 322.88C247.975 322.306 248.629 321.932 249.369 321.789C250.108 321.645 250.876 321.789 251.616 322.306C252.356 322.794 252.811 323.512 252.925 324.459C253.01 324.919 252.925 325.666 252.726 326.671C251.445 331.036 250.108 337.899 248.714 347.26C248.174 350.994 247.776 353.521 247.548 354.813C247.235 356.335 246.439 357.196 245.187 357.455C243.85 357.713 242.598 357.283 241.46 356.191C241.091 355.847 240.749 355.445 240.436 354.985C240.123 354.526 239.753 353.865 239.327 352.975C238.929 352.085 238.53 351.223 238.16 350.333C237.791 349.472 237.193 348.093 236.34 346.198C235.515 344.303 234.69 342.465 233.865 340.684C233.523 340.139 233.068 339.909 232.528 339.995C231.959 340.081 231.617 340.397 231.504 340.971C230.536 344.647 229.711 350.017 229.057 357.024C228.801 359.781 227.692 361.131 225.786 361.016V361.044Z" fill="white"/>
<path d="M409.983 374.541C408.02 381.031 405.119 386.918 401.25 392.145C397.381 397.4 392.687 401.879 387.111 405.584C381.536 409.317 375.419 412.045 368.791 413.826C368.99 416.525 369.758 418.88 371.039 420.976C372.347 423.044 373.997 424.709 376.074 425.944C378.122 427.179 380.398 428.069 382.93 428.586C385.433 429.103 387.965 429.275 390.525 429.074C392.374 428.931 394.138 428.643 395.873 428.241C397.58 427.839 399.429 427.15 401.42 426.174L402.274 427.351C399.486 429.648 396.186 431.716 392.431 433.525C388.648 435.334 384.324 436.426 379.431 436.828C375.448 437.144 371.664 437 368.137 436.426C364.581 435.823 361.395 434.703 358.522 433.066C355.677 431.429 353.259 429.16 351.267 426.26C349.276 423.36 347.882 419.856 347.057 415.778C340.713 414.946 334.654 413.108 328.879 410.293C323.104 407.479 317.955 403.861 313.432 399.381C308.909 394.93 305.211 389.675 302.309 383.673C299.408 377.671 297.672 371.009 297.103 363.686C295.738 346.255 301.228 331.265 313.631 318.745C318.695 313.662 324.47 309.728 330.984 306.914C337.499 304.099 344.44 302.405 351.808 301.802C360.484 301.113 368.421 302.032 375.562 304.559C382.702 307.115 388.875 310.79 394.109 315.615C399.315 320.439 403.469 326.154 406.57 332.759C409.67 339.363 411.491 346.399 412.088 353.808C412.657 361.131 411.975 368.051 410.012 374.541H409.983ZM389.16 336.635C387.054 330.375 384.21 324.747 380.568 319.807C376.927 314.868 372.575 310.934 367.511 308.091C362.447 305.219 356.644 304.071 350.101 304.587C343.444 305.133 337.84 307.201 333.232 310.848C328.623 314.495 324.982 319.032 322.251 324.431C319.548 329.858 317.699 335.889 316.732 342.551C315.765 349.213 315.537 355.904 316.078 362.624C316.618 369.659 318.069 376.35 320.373 382.754C322.678 389.158 325.722 394.758 329.505 399.553C333.289 404.349 337.698 408.054 342.733 410.724C347.768 413.395 353.259 414.486 359.204 413.998C366.146 413.452 371.92 411.241 376.5 407.393C381.081 403.545 384.665 398.807 387.254 393.207C389.842 387.607 391.578 381.462 392.431 374.8C393.284 368.137 393.484 361.705 393 355.502C392.516 349.213 391.208 342.924 389.131 336.664L389.16 336.635Z" fill="white"/>
<path d="M289.394 337.267C288.598 338.416 287.346 339.105 285.582 339.392C283.818 339.679 282.339 339.162 280.974 337.956C279.608 336.721 278.755 335.027 278.413 332.816C277.987 330.03 278.641 327.044 280.319 323.885C281.998 320.726 284.586 317.74 288.085 314.954L289.479 313.834L290.703 315.385C288.683 317.395 287.26 318.946 286.379 320.066C284.7 322.334 283.961 324.258 284.188 325.838C284.245 326.297 284.416 326.699 284.643 327.101C284.871 327.503 285.155 327.819 285.525 328.078L286.635 328.91C287.801 329.801 288.683 330.547 289.223 331.208C289.764 331.868 290.134 332.758 290.304 333.907C290.475 335.056 290.162 336.147 289.366 337.267H289.394ZM266.352 340.311C264.929 339.191 264.019 337.411 263.649 334.912C263.137 331.552 263.962 328.279 266.124 325.034C268.258 321.789 270.647 319.176 273.293 317.137L274.744 316.017L275.967 317.567C274.146 319.319 272.752 320.841 271.785 322.133C270.021 324.488 269.225 326.441 269.481 328.049C269.538 328.508 269.708 328.91 269.936 329.312C270.164 329.715 270.476 330.03 270.818 330.289L271.956 331.122C273.065 331.954 273.919 332.672 274.488 333.333C275.056 333.993 275.426 334.826 275.569 335.802C275.796 337.296 275.455 338.559 274.573 339.622C273.691 340.684 272.439 341.345 270.789 341.603C269.282 341.833 267.802 341.402 266.38 340.282L266.352 340.311Z" fill="white"/>
<path d="M419.115 308.378C419.912 307.23 421.163 306.54 422.927 306.253C424.691 305.966 426.17 306.483 427.536 307.689C428.901 308.924 429.755 310.618 430.096 312.829C430.523 315.615 429.868 318.601 428.19 321.76C426.512 324.919 423.923 327.905 420.424 330.691L419.03 331.811L417.807 330.26C419.826 328.25 421.249 326.699 422.131 325.579C423.809 323.311 424.549 321.387 424.321 319.807C424.264 319.348 424.094 318.946 423.866 318.544C423.638 318.142 423.354 317.826 422.984 317.567L421.875 316.735C420.708 315.844 419.826 315.098 419.286 314.437C418.745 313.777 418.376 312.887 418.205 311.738C418.034 310.589 418.347 309.498 419.144 308.378H419.115ZM442.158 305.334C443.58 306.454 444.49 308.235 444.86 310.733C445.372 314.093 444.547 317.366 442.385 320.611C440.252 323.856 437.862 326.47 435.217 328.509L433.766 329.628L432.542 328.078C434.363 326.326 435.757 324.804 436.724 323.512C438.488 321.157 439.285 319.204 439.029 317.596C438.972 317.137 438.801 316.735 438.573 316.333C438.346 315.931 438.033 315.615 437.691 315.356L436.554 314.524C435.444 313.691 434.591 312.973 434.022 312.312C433.453 311.652 433.083 310.819 432.941 309.843C432.713 308.349 433.055 307.086 433.936 306.023C434.818 304.961 436.07 304.3 437.72 304.042C439.228 303.812 440.707 304.243 442.129 305.363L442.158 305.334Z" fill="white"/>
<path d="M281.612 267.98C281.972 265.822 280.945 263.848 279.319 263.572C277.692 263.295 276.081 264.82 275.721 266.979C275.361 269.137 276.388 271.111 278.015 271.387C279.641 271.664 281.252 270.139 281.612 267.98Z" fill="white"/>
<path d="M217.934 261.972C216.796 262.001 216 261.484 215.516 260.421C214.919 258.928 214.719 256.286 214.976 252.553L216.882 234.461C216.995 230.929 218.674 228.689 221.945 227.742C225.786 226.536 229.427 226.622 232.869 228C235.458 229.034 237.165 230.613 237.961 232.796C238.786 234.95 238.53 237.276 237.193 239.774C236.027 241.899 234.035 243.88 231.219 245.747C228.403 247.614 225.871 248.762 223.595 249.164C222.599 249.394 221.974 249.767 221.718 250.227C221.462 250.715 221.262 251.749 221.149 253.328C221.12 255.425 221.12 257.119 221.12 258.44C221.206 259.588 220.95 260.45 220.295 261.053C219.669 261.656 218.873 261.972 217.877 261.972H217.934ZM224.505 242.186C227.521 241.124 229.825 239.429 231.39 237.132C231.76 236.673 231.873 236.098 231.731 235.438C231.589 234.777 231.248 234.347 230.764 234.146C229.086 233.456 227.436 233.255 225.786 233.485C224.136 233.715 223.282 234.375 223.168 235.438C222.912 237.793 222.742 239.544 222.656 240.722C222.656 241.239 222.799 241.669 223.168 241.956C223.538 242.272 223.965 242.359 224.449 242.186H224.505Z" fill="white"/>
<path d="M257.42 256.947C256.794 256.947 256.282 256.86 255.883 256.659C255.485 256.487 255.172 256.171 255.002 255.74C254.802 255.31 254.689 254.908 254.603 254.506C254.546 254.104 254.461 253.558 254.376 252.811C254.29 252.065 254.234 251.519 254.148 251.117C254.006 250.399 253.693 249.968 253.153 249.882C252.612 249.767 251.73 249.854 250.45 250.083C246.695 250.773 244.76 252.84 244.704 256.315C244.675 257.061 244.362 257.751 243.736 258.354C243.111 258.957 242.513 259.301 241.916 259.416C241.091 259.56 240.38 259.388 239.754 258.871C239.156 258.354 238.758 257.693 238.616 256.918C238.331 255.31 239.299 250.715 241.546 243.134C245.386 229.379 249.056 222.199 252.612 221.539C255.827 220.965 258.017 223.894 259.155 230.384C259.411 232.48 259.724 236.644 260.065 242.904C260.407 249.164 260.52 252.84 260.378 253.96C260.208 255.884 259.212 256.889 257.391 256.918L257.42 256.947ZM253.608 239.975C253.551 237.678 253.437 236.213 253.323 235.581C253.209 234.95 252.925 234.576 252.441 234.49C251.759 234.26 251.247 234.548 250.877 235.38C249.397 239.228 248.715 241.497 248.829 242.158C248.971 242.933 249.625 243.22 250.791 243.019C251.559 242.875 252.242 242.531 252.84 241.957C253.437 241.382 253.665 240.75 253.608 240.004V239.975Z" fill="white"/>
<path d="M267.945 252.955C266.352 253.012 265.299 252.065 264.816 250.055C264.304 248.073 264.218 245.977 264.503 243.794C264.503 243.852 264.503 243.335 264.503 242.272C264.503 241.21 264.531 239.832 264.588 238.137C264.617 236.472 264.674 234.691 264.702 232.882C264.759 231.044 264.787 229.321 264.816 227.713C264.816 226.105 264.873 224.899 264.901 224.152C264.986 222.401 265.413 221.08 266.21 220.161C266.978 219.242 268.229 218.639 269.965 218.38C274.772 217.806 278.84 219.184 282.112 222.573C285.355 225.674 285.582 229.063 282.823 232.738L282.14 233.657C281.372 234.49 280.917 235.122 280.775 235.553C280.633 235.983 280.718 236.357 281.088 236.673C281.458 236.989 282.169 237.333 283.193 237.706C283.42 237.764 284.103 238.022 285.213 238.424C286.322 238.826 287.119 239.142 287.602 239.315C291.556 240.722 294.145 241.813 295.312 242.588C296.478 243.364 296.762 244.484 296.165 245.977C295.34 247.786 293.434 248.188 290.447 247.097L275.398 241.526C273.378 240.75 272.098 240.521 271.586 240.837C271.131 241.152 270.847 242.473 270.761 244.799C270.761 245.374 270.761 246.006 270.761 246.666C270.761 247.327 270.761 247.843 270.761 248.217C270.761 248.59 270.761 249.021 270.733 249.48C270.704 249.94 270.676 250.284 270.676 250.543C270.676 250.801 270.619 251.031 270.562 251.347C270.505 251.634 270.42 251.864 270.335 252.007C270.249 252.151 270.135 252.295 269.993 252.467C269.851 252.639 269.68 252.754 269.481 252.783C269.282 252.811 269.054 252.869 268.827 252.898C268.571 252.955 268.286 252.955 267.945 252.955ZM273.208 232.078C274.09 231.906 275.142 231.331 276.337 230.326C277.532 229.321 278.044 228.431 277.902 227.656C277.788 226.995 277.105 226.277 275.853 225.559C274.602 224.841 273.578 224.554 272.753 224.698C271.871 224.928 271.359 226.134 271.188 228.374C270.989 231.13 271.672 232.365 273.208 232.078Z" fill="white"/>
<path d="M314.883 246.465C314.258 246.465 313.745 246.379 313.347 246.178C312.949 246.006 312.636 245.69 312.465 245.259C312.266 244.828 312.152 244.426 312.067 244.024C312.01 243.622 311.925 243.076 311.84 242.33C311.754 241.583 311.697 241.038 311.612 240.636C311.47 239.918 311.157 239.487 310.616 239.401C310.076 239.286 309.194 239.372 307.914 239.602C304.159 240.291 302.224 242.359 302.167 245.833C302.139 246.58 301.798 247.269 301.2 247.872C300.603 248.475 299.977 248.82 299.379 248.935C298.555 249.078 297.843 248.906 297.217 248.389C296.62 247.872 296.25 247.212 296.108 246.436C295.824 244.828 296.791 240.234 299.038 232.652C302.879 218.897 306.548 211.718 310.104 211.057C313.319 210.483 315.509 213.412 316.647 219.902C316.903 221.998 317.216 226.162 317.557 232.423C317.899 238.683 318.013 242.359 317.87 243.478C317.7 245.403 316.704 246.408 314.883 246.436V246.465ZM311.071 229.493C311.015 227.196 310.901 225.732 310.787 225.1C310.673 224.468 310.389 224.095 309.905 224.009C309.222 223.779 308.71 224.066 308.34 224.899C306.861 228.747 306.178 231.015 306.292 231.676C306.434 232.451 307.089 232.738 308.255 232.537C309.023 232.394 309.706 232.049 310.303 231.475C310.901 230.901 311.128 230.269 311.071 229.522V229.493Z" fill="white"/>
</g>
<path d="M876.001 -237.033C867.879 -214.786 804.381 -199.744 791.619 -164.786C778.857 -129.827 828.434 -106.731 814.512 -68.5941C800.59 -30.457 741.731 -28.1271 730.13 3.65393C718.529 35.4343 763.177 57.5858 753.024 99.8444C742.871 142.103 680.243 140.312 666.321 178.449C652.902 215.209 701.711 229.135 690.706 269.94C581.422 171.507 287.157 150.253 -37.8001 227.969C-53.3804 231.696 -68.7951 235.593 -84.0296 239.651C-94.6012 224.591 -107.87 210.579 -98.0735 183.742C-80.6712 136.07 -31.0931 159.166 -14.8509 114.672C1.39087 70.1796 -51.6673 56.6181 -37.7454 18.4811C-23.8234 -19.6559 38.8046 -17.8634 48.9577 -60.1224C59.1107 -102.381 14.4616 -124.533 26.0632 -156.314C37.6649 -188.095 96.5241 -190.424 110.446 -228.561C124.368 -266.698 74.7907 -289.793 87.5524 -324.752C100.314 -359.711 163.813 -374.753 171.934 -396.999L876.001 -237.033Z" fill="#A89074"/>
<defs>
<clipPath id="clip0_86_85">
<rect width="277" height="225" fill="white" transform="translate(172.002 210)"/>
</clipPath>
</defs>
</svg>
