<svg width="277" height="225" viewBox="0 0 277 225" fill="none" xmlns="http://www.w3.org/2000/svg">
<g clip-path="url(#clip0_86_58)">
<path d="M24.3119 89.0165C24.7386 85.2833 25.7627 81.6076 27.4411 78.018C29.1195 74.4284 31.1962 71.4132 33.6996 68.9148C35.4349 67.3067 37.4547 66.7036 39.7305 67.0482C42.0063 67.4215 43.7131 68.6276 44.8226 70.6665C48.3501 76.7832 49.4026 83.2444 47.9803 90.0503C47.326 92.5773 47.1837 94.5301 47.4967 95.9372C47.7242 97.172 48.3501 98.3207 49.4026 99.4119C50.4268 100.503 50.9957 101.422 51.0526 102.14C51.3086 103.834 50.7966 105.012 49.5449 105.672C48.2932 106.361 46.8139 106.189 45.1071 105.184C44.2252 104.696 43.5709 104.466 43.2011 104.552C42.8313 104.638 42.3192 105.069 41.6649 105.844C39.5313 108.458 37.2555 109.922 34.8659 110.238C30.9402 110.784 27.9532 108.659 25.905 103.863C23.8283 99.0673 23.3162 94.0993 24.3404 88.9877L24.3119 89.0165ZM35.5771 101.508C38.0521 99.2396 39.7874 94.9895 40.8115 88.8154C41.7502 83.7039 41.4373 79.741 39.8443 76.898C39.3607 76.1227 38.8202 75.7207 38.2228 75.6632C37.6254 75.6058 37.028 75.9791 36.459 76.7545C34.041 80.344 32.4195 84.5079 31.5945 89.1888C30.5419 94.7311 30.9117 98.8088 32.7324 101.451C33.5858 102.485 34.553 102.513 35.6056 101.508H35.5771Z" fill="white"/>
<path d="M66.9547 96.7986C65.3617 98.8088 63.5126 99.8426 61.4359 99.9575C59.3593 100.044 57.4248 99.1821 55.6611 97.3443C52.7879 93.7834 51.5077 89.2175 51.8491 83.6464C52.1905 78.0754 53.7835 72.9638 56.6283 68.3692C57.5955 66.8472 58.7334 65.5836 60.042 64.5498C61.9195 63.3437 63.6833 63.4299 65.3901 64.7796C66.1013 65.4401 66.8979 65.8421 67.7797 66.0431C69.1737 66.5026 70.3116 67.68 71.1365 69.604C71.9615 71.528 72.4167 73.5669 72.4736 75.7206C72.4736 85.1971 70.6245 92.2327 66.9547 96.7986ZM61.2652 92.3763C62.4031 92.3476 63.3988 90.9117 64.2807 88.1262C65.1626 85.3407 65.6462 82.268 65.7884 78.9656C65.9022 75.6632 65.6462 73.3371 64.9634 72.0162C64.0815 70.5516 63.0005 70.8101 61.692 72.7341C58.6765 78.2764 57.624 83.5316 58.5912 88.557C59.0748 91.1702 59.9851 92.4624 61.2937 92.3763H61.2652Z" fill="white"/>
<path d="M89.0013 100.532C85.9859 102.37 83.0558 102.542 80.1257 101.049C77.224 99.5555 75.4603 96.9423 74.8629 93.1804C74.1802 88.6719 74.6353 83.1583 76.2284 76.6684C77.8214 70.1784 79.8981 65.6125 82.5153 62.9993C85.4169 59.9553 88.5177 59.6968 91.8745 62.1952C93.0693 63.1716 94.0081 64.3202 94.6339 65.6412C95.2598 66.9622 95.4589 68.1395 95.1744 69.1733C94.8615 70.322 94.1503 71.0399 93.0409 71.3558C91.9314 71.6717 90.9358 71.4132 90.0823 70.6092C89.7979 70.2933 89.428 69.8338 89.0298 69.2308C88.6315 68.6277 88.1479 68.2544 87.6643 68.1683C85.8721 68.1683 84.2221 71.4707 82.686 78.1329C81.1783 84.7952 80.8084 89.6196 81.605 92.6061C81.9179 93.9845 82.6006 94.8173 83.5963 95.0757C84.592 95.3342 85.6161 94.9609 86.6117 93.8984C87.0953 93.324 87.8919 92.1466 89.0013 90.3949C90.1108 88.6432 90.7935 87.6381 91.0496 87.4084C91.7892 86.8341 92.5857 86.6043 93.4391 86.7192C94.2926 86.8341 94.9753 87.2361 95.4589 87.9253C96.5684 89.3324 96.2555 91.4575 94.5486 94.3004C92.8417 97.1434 90.9927 99.1822 89.0298 100.474L89.0013 100.532Z" fill="white"/>
<path d="M99.5552 89.4472C100.181 86.1161 100.835 81.5215 101.518 75.6633L102.457 66.876C102.969 64.8371 104.05 63.8894 105.671 64.0043C107.777 64.0043 108.772 65.8422 108.687 69.4892C108.687 70.9537 108.545 72.5331 108.374 74.2561C108.203 75.9791 108.004 77.4437 107.862 78.6498C107.691 79.8559 107.464 81.4353 107.151 83.4168C106.838 85.3982 106.61 86.8915 106.439 87.954C105.7 93.2379 105.131 96.2818 104.761 97.1433C104.164 98.7802 103.168 99.4694 101.746 99.2683C99.4414 99.096 98.5595 96.9136 99.0716 92.721C99.1285 92.4051 99.2992 91.3138 99.5267 89.476L99.5552 89.4472Z" fill="white"/>
<path d="M115.713 88.557C114.007 88.4709 113.011 87.5232 112.67 85.7141C112.556 85.0823 112.67 83.3019 112.954 80.3728C113.267 77.4437 113.637 74.7443 114.064 72.2459C114.177 71.327 114.376 69.9486 114.632 68.1395C114.888 66.3303 115.088 64.9806 115.258 64.033C115.401 63.0853 115.628 61.908 115.884 60.4721C116.14 59.0363 116.396 57.9163 116.624 57.1123C116.851 56.3082 117.136 55.4754 117.449 54.6426C117.762 53.8099 118.132 53.1781 118.53 52.7473C118.928 52.3453 119.383 52.0869 119.895 51.972C121.033 51.6274 122.086 51.9146 123.11 52.8048C124.589 54.0396 126.524 57.6005 128.913 63.5448L130.307 66.6175C130.961 67.8236 131.616 68.3692 132.327 68.2256C132.441 68.2256 132.554 68.1682 132.668 68.1108C132.782 68.0533 132.867 67.9672 132.981 67.8236C133.066 67.68 133.152 67.5651 133.18 67.479C133.209 67.3928 133.266 67.2205 133.351 66.9908C133.436 66.7611 133.493 66.5601 133.55 66.359C133.607 66.158 133.664 65.8996 133.721 65.555C133.778 65.2104 133.835 64.9232 133.863 64.6648C133.891 64.4063 133.948 64.0617 134.005 63.6022C134.062 63.1428 134.119 62.7407 134.176 62.4249C135.228 55.7052 136.309 51.6848 137.362 50.3926C137.903 49.8182 138.557 49.4449 139.296 49.3013C140.036 49.1578 140.804 49.3013 141.544 49.8182C142.283 50.3064 142.739 51.0243 142.852 51.972C142.938 52.4315 142.852 53.1781 142.653 54.1832C141.373 58.5481 140.036 65.4114 138.642 74.773C138.102 78.5062 137.703 81.0332 137.476 82.3255C137.163 83.8475 136.366 84.709 135.115 84.9674C133.778 85.2259 132.526 84.7951 131.388 83.7039C131.018 83.3593 130.677 82.9573 130.364 82.4978C130.051 82.0383 129.681 81.3778 129.254 80.4876C128.856 79.5974 128.458 78.7359 128.088 77.8457C127.718 76.9842 127.121 75.6058 126.268 73.7105C125.443 71.8152 124.618 69.9773 123.793 68.1969C123.451 67.6513 122.996 67.4216 122.456 67.5077C121.887 67.5939 121.545 67.9097 121.431 68.4841C120.464 72.1598 119.639 77.5298 118.985 84.5367C118.729 87.2935 117.619 88.6432 115.713 88.5283V88.557Z" fill="white"/>
<path d="M161.941 88.5857C161.6 88.5857 161.287 88.5857 161.031 88.5283C160.775 88.4996 160.547 88.3847 160.32 88.2698C160.092 88.1263 159.893 88.0114 159.751 87.8678C159.608 87.7529 159.466 87.5232 159.324 87.236C159.182 86.9202 159.068 86.6904 159.011 86.5181C158.954 86.3458 158.869 86.0587 158.755 85.6279C158.641 85.1972 158.556 84.8813 158.527 84.6803L158.3 83.5316L158.072 82.3542C157.93 81.0045 157.219 80.3728 155.939 80.5163L150.335 81.3204C149.481 81.4927 148.827 82.1245 148.372 83.2444C146.665 87.5519 145.612 89.9928 145.186 90.5672C144.133 91.6871 142.91 91.9169 141.459 91.2851C139.525 90.5097 139.155 88.6144 140.378 85.5992L145.328 71.9588C146.466 68.7712 148.144 65.0094 150.391 60.6157C152.639 56.2221 154.403 53.4653 155.683 52.3166C156.906 51.2254 158.158 50.8521 159.466 51.1679C160.746 51.4838 161.657 52.4028 162.169 53.8673C162.709 55.5041 163.364 60.7593 164.046 69.5753C164.757 78.3913 165.042 83.79 164.871 85.7715C164.786 86.5756 164.473 87.236 163.961 87.7529C163.42 88.2698 162.738 88.557 161.913 88.5857H161.941ZM155.455 73.8254C156.849 73.5669 157.503 72.7629 157.418 71.4419C157.304 69.2307 157.19 67.7949 157.048 67.1631C156.906 66.5313 156.65 66.1867 156.223 66.158C155.284 65.9283 154.317 66.8759 153.322 69.0584C152.326 71.2409 152.127 72.7054 152.753 73.4233C153.094 73.969 153.976 74.0838 155.427 73.8254H155.455Z" fill="white"/>
<path d="M174.401 81.8948C174.06 81.9522 173.747 82.0096 173.462 82.0096C173.178 82.0096 172.922 81.9809 172.694 81.866C172.467 81.7512 172.267 81.665 172.068 81.5502C171.869 81.4353 171.699 81.2343 171.528 80.9471C171.357 80.6599 171.243 80.4302 171.13 80.2866C171.044 80.143 170.93 79.8272 170.817 79.4251C170.703 79.0231 170.589 78.7072 170.532 78.5349C170.475 78.3626 170.39 78.0467 170.276 77.5585C170.162 77.0704 170.077 76.7258 169.992 76.5822C168.797 71.6429 167.716 64.1479 166.777 54.0683C166.493 50.9382 167.687 48.4973 170.362 46.6882C173.036 44.9077 175.966 44.1611 179.209 44.4483C182.139 44.3621 184.415 45.1949 186.065 46.9466C187.715 48.6983 188.255 50.9095 187.658 53.6089C187.544 54.2981 187.345 54.9011 187.117 55.4754C186.89 56.0498 186.662 56.4805 186.434 56.8251C186.207 57.1697 185.837 57.6866 185.268 58.4045C184.728 59.1225 184.272 59.6968 183.931 60.1275C182.878 61.5347 183.277 62.511 185.097 63.0279C188.17 63.7171 191.413 64.6361 194.855 65.8134C197.984 66.8472 199.748 68.1108 200.118 69.6328C200.601 71.1547 200.317 72.2747 199.236 72.9639C198.155 73.6531 196.704 73.6818 194.883 73.0213C193.006 72.2173 189.99 71.2122 185.837 70.0635C181.684 68.9148 178.896 68.2544 177.445 68.0821C176.734 68.0246 176.165 68.1969 175.738 68.5702C175.311 68.9436 175.198 69.4605 175.368 70.0922C175.368 70.322 175.539 70.9537 175.767 71.9875C175.994 73.0213 176.165 73.7105 176.222 74.1413C176.279 74.572 176.392 75.2325 176.535 76.1514C176.677 77.0704 176.734 77.7596 176.648 78.2477C176.563 78.7359 176.478 79.2528 176.364 79.8846C176.25 80.4876 176.023 80.9758 175.653 81.2917C175.311 81.6076 174.856 81.8373 174.344 81.9809L174.401 81.8948ZM174.373 58.0887C175.226 58.7204 176.648 58.0599 178.64 56.1072C180.546 54.4416 181.2 53.092 180.631 52.0294C180.091 51.0244 178.782 50.7659 176.705 51.2254C174.657 51.6848 173.605 52.4315 173.519 53.4653C173.32 55.9636 173.576 57.4856 174.373 58.0887Z" fill="white"/>
<path d="M18.4232 158.539C15.4078 160.377 12.4777 160.55 9.54757 159.056C6.64592 157.563 4.88217 154.95 4.28477 151.188C3.60203 146.68 4.05719 141.166 5.65025 134.676C7.24332 128.186 9.31999 123.62 11.9372 121.007C14.8388 117.963 17.9396 117.704 21.2964 120.203C22.4912 121.179 23.43 122.328 24.0558 123.649C24.6817 124.97 24.8808 126.147 24.5963 127.181C24.2834 128.33 23.5722 129.047 22.4628 129.363C21.3533 129.679 20.3576 129.421 19.5042 128.617C19.2197 128.301 18.8499 127.841 18.4517 127.238C18.0534 126.635 17.5698 126.262 17.0862 126.176C15.294 126.176 13.644 129.478 12.1078 136.141C10.6001 142.803 10.2303 147.627 11.0268 150.614C11.3398 151.992 12.0225 152.825 13.0182 153.083C14.0138 153.342 15.0379 152.968 16.0336 151.906C16.5172 151.332 17.3137 150.154 18.4232 148.403C19.5327 146.651 20.2154 145.646 20.4714 145.416C21.2111 144.842 22.0076 144.612 22.861 144.727C23.7144 144.842 24.3972 145.244 24.8808 145.933C25.9903 147.34 25.6773 149.465 23.9705 152.308C22.2636 155.151 20.4145 157.19 18.4517 158.482L18.4232 158.539Z" fill="white"/>
<path d="M42.7738 155.409C41.1808 157.42 39.3317 158.453 37.255 158.568C35.1783 158.654 33.2439 157.793 31.4802 155.955C28.607 152.394 27.3268 147.828 27.6682 142.257C28.0096 136.657 29.6026 131.575 32.4474 126.98C33.4146 125.458 34.5525 124.194 35.8611 123.161C37.7386 121.954 39.5024 122.041 41.2092 123.39C41.9204 124.051 42.7169 124.453 43.5988 124.654C44.9927 125.113 46.1307 126.291 46.9556 128.215C47.7806 130.139 48.2358 132.178 48.2927 134.331C48.2927 143.808 46.4436 150.843 42.7738 155.409ZM37.0843 150.987C38.2222 150.958 39.2179 149.522 40.0998 146.737C40.9816 143.951 41.4653 140.879 41.6075 137.576C41.7213 134.274 41.4653 131.948 40.7825 130.627C39.9006 129.162 38.8196 129.421 37.511 131.345C34.4956 136.887 33.443 142.142 34.4103 147.168C34.8939 149.781 35.8042 151.073 37.1128 150.987H37.0843Z" fill="white"/>
<path d="M53.7838 151.044C52.0769 150.958 51.0813 150.011 50.7399 148.201C50.6261 147.57 50.7399 145.789 51.0244 142.86C51.3373 139.931 51.7071 137.232 52.1338 134.733C52.2476 133.814 52.4467 132.436 52.7028 130.627C52.9588 128.818 53.1579 127.468 53.3286 126.52C53.4709 125.573 53.6984 124.395 53.9545 122.96C54.2105 121.524 54.4665 120.404 54.6941 119.6C54.9217 118.796 55.2062 117.963 55.5191 117.13C55.832 116.297 56.2018 115.666 56.6001 115.235C56.9984 114.833 57.4535 114.574 57.9656 114.459C59.1035 114.115 60.156 114.402 61.1801 115.292C62.6594 116.527 64.5938 120.088 66.9834 126.032L68.3774 129.105C69.0317 130.311 69.686 130.857 70.3971 130.713C70.5109 130.713 70.6247 130.656 70.7385 130.598C70.8523 130.541 70.9376 130.455 71.0514 130.311C71.1368 130.167 71.2221 130.053 71.2506 129.966C71.279 129.88 71.3359 129.708 71.4213 129.478C71.5066 129.248 71.5635 129.047 71.6204 128.846C71.6773 128.645 71.7342 128.387 71.7911 128.042C71.848 127.698 71.9049 127.411 71.9333 127.152C71.9618 126.894 72.0187 126.549 72.0756 126.09C72.1324 125.63 72.1893 125.228 72.2462 124.912C73.2988 118.193 74.3798 114.172 75.4324 112.88C75.9729 112.306 76.6272 111.932 77.3668 111.789C78.1064 111.645 78.8745 111.789 79.6142 112.306C80.3538 112.794 80.809 113.512 80.9227 114.459C81.0081 114.919 80.9227 115.666 80.7236 116.671C79.4435 121.036 78.1064 127.899 76.7125 137.26C76.172 140.994 75.7737 143.521 75.5462 144.813C75.2332 146.335 74.4367 147.196 73.185 147.455C71.848 147.713 70.5963 147.283 69.4584 146.191C69.0886 145.847 68.7472 145.445 68.4343 144.985C68.1213 144.526 67.7515 143.865 67.3248 142.975C66.9265 142.085 66.5283 141.223 66.1585 140.333C65.7886 139.472 65.1912 138.093 64.3378 136.198C63.5128 134.303 62.6879 132.465 61.8629 130.684C61.5215 130.139 61.0664 129.909 60.5259 129.995C59.9569 130.081 59.6155 130.397 59.5017 130.971C58.5345 134.647 57.7095 140.017 57.0552 147.024C56.7992 149.781 55.6898 151.131 53.7838 151.016V151.044Z" fill="white"/>
<path d="M237.981 164.541C236.018 171.031 233.117 176.918 229.248 182.145C225.379 187.4 220.685 191.879 215.109 195.584C209.534 199.317 203.417 202.045 196.789 203.826C196.988 206.525 197.756 208.88 199.037 210.976C200.345 213.044 201.995 214.709 204.072 215.944C206.12 217.179 208.396 218.069 210.928 218.586C213.431 219.103 215.963 219.275 218.523 219.074C220.372 218.931 222.136 218.643 223.871 218.241C225.578 217.839 227.427 217.15 229.419 216.174L230.272 217.351C227.484 219.648 224.184 221.716 220.429 223.525C216.646 225.334 212.322 226.426 207.429 226.828C203.446 227.144 199.662 227 196.135 226.426C192.579 225.823 189.393 224.703 186.52 223.066C183.675 221.429 181.257 219.16 179.266 216.26C177.274 213.36 175.88 209.856 175.055 205.778C168.711 204.946 162.652 203.108 156.877 200.293C151.102 197.479 145.953 193.861 141.43 189.381C136.907 184.93 133.209 179.675 130.307 173.673C127.406 167.671 125.67 161.009 125.101 153.686C123.736 136.255 129.226 121.265 141.629 108.745C146.693 103.662 152.468 99.7278 158.982 96.9135C165.497 94.0993 172.438 92.405 179.806 91.802C188.483 91.1128 196.419 92.0317 203.56 94.5588C210.7 97.1146 216.873 100.79 222.108 105.615C227.313 110.439 231.467 116.154 234.568 122.759C237.668 129.363 239.489 136.399 240.086 143.808C240.655 151.131 239.973 158.051 238.01 164.541H237.981ZM217.158 126.635C215.053 120.375 212.208 114.747 208.566 109.807C204.925 104.868 200.573 100.934 195.509 98.0909C190.445 95.2193 184.642 94.0706 178.099 94.5875C171.442 95.1331 165.838 97.2007 161.23 100.848C156.621 104.495 152.98 109.032 150.249 114.431C147.546 119.858 145.697 125.889 144.73 132.551C143.763 139.213 143.535 145.904 144.076 152.624C144.616 159.659 146.067 166.35 148.371 172.754C150.676 179.158 153.72 184.758 157.503 189.553C161.287 194.349 165.696 198.054 170.731 200.724C175.766 203.395 181.257 204.486 187.202 203.998C194.144 203.452 199.918 201.241 204.498 197.393C209.079 193.545 212.663 188.807 215.252 183.207C217.84 177.607 219.576 171.462 220.429 164.8C221.283 158.137 221.482 151.705 220.998 145.502C220.514 139.213 219.206 132.924 217.129 126.664L217.158 126.635Z" fill="white"/>
<path d="M117.392 127.267C116.596 128.416 115.344 129.105 113.58 129.392C111.816 129.679 110.337 129.162 108.972 127.956C107.606 126.721 106.753 125.027 106.411 122.816C105.985 120.03 106.639 117.044 108.317 113.885C109.996 110.726 112.584 107.74 116.084 104.954L117.477 103.834L118.701 105.385C116.681 107.395 115.259 108.946 114.377 110.066C112.698 112.334 111.959 114.258 112.186 115.838C112.243 116.297 112.414 116.699 112.641 117.101C112.869 117.503 113.153 117.819 113.523 118.078L114.633 118.91C115.799 119.801 116.681 120.547 117.221 121.208C117.762 121.868 118.132 122.758 118.302 123.907C118.473 125.056 118.16 126.147 117.364 127.267H117.392ZM94.3496 130.311C92.9272 129.191 92.0169 127.411 91.6471 124.912C91.135 121.552 91.96 118.279 94.122 115.034C96.2556 111.789 98.6452 109.176 101.291 107.137L102.742 106.017L103.965 107.567C102.144 109.319 100.75 110.841 99.7831 112.133C98.0193 114.488 97.2228 116.441 97.4788 118.049C97.5357 118.508 97.7064 118.91 97.934 119.312C98.1616 119.715 98.4745 120.03 98.8159 120.289L99.9538 121.122C101.063 121.954 101.917 122.672 102.486 123.333C103.055 123.993 103.424 124.826 103.567 125.802C103.794 127.296 103.453 128.559 102.571 129.622C101.689 130.684 100.437 131.345 98.7874 131.603C97.2797 131.833 95.8004 131.402 94.378 130.282L94.3496 130.311Z" fill="white"/>
<path d="M247.113 98.3782C247.91 97.2295 249.162 96.5403 250.925 96.2531C252.689 95.966 254.168 96.4829 255.534 97.689C256.899 98.9238 257.753 100.618 258.094 102.829C258.521 105.615 257.866 108.601 256.188 111.76C254.51 114.919 251.921 117.905 248.422 120.691L247.028 121.811L245.805 120.26C247.824 118.25 249.247 116.699 250.129 115.579C251.807 113.311 252.547 111.387 252.319 109.807C252.262 109.348 252.092 108.946 251.864 108.544C251.636 108.142 251.352 107.826 250.982 107.567L249.873 106.735C248.706 105.844 247.824 105.098 247.284 104.437C246.743 103.777 246.374 102.887 246.203 101.738C246.032 100.589 246.345 99.4981 247.142 98.3782H247.113ZM270.156 95.3342C271.578 96.4541 272.488 98.2346 272.858 100.733C273.37 104.093 272.545 107.366 270.383 110.611C268.25 113.856 265.86 116.47 263.215 118.509L261.764 119.628L260.541 118.078C262.361 116.326 263.755 114.804 264.722 113.512C266.486 111.157 267.283 109.204 267.027 107.596C266.97 107.137 266.799 106.735 266.571 106.333C266.344 105.931 266.031 105.615 265.69 105.356L264.552 104.524C263.442 103.691 262.589 102.973 262.02 102.312C261.451 101.652 261.081 100.819 260.939 99.8427C260.711 98.3494 261.053 97.0859 261.934 96.0234C262.816 94.9609 264.068 94.3004 265.718 94.042C267.226 93.8122 268.705 94.243 270.127 95.3629L270.156 95.3342Z" fill="white"/>
<path d="M109.61 57.9803C109.97 55.822 108.943 53.8482 107.317 53.5717C105.69 53.2951 104.079 54.8205 103.719 56.9787C103.359 59.137 104.386 61.1108 106.013 61.3874C107.639 61.6639 109.25 60.1385 109.61 57.9803Z" fill="white"/>
<path d="M45.9321 51.972C44.7942 52.0007 43.9977 51.4838 43.5141 50.4213C42.9167 48.928 42.7175 46.2861 42.9736 42.5529L44.8796 24.4614C44.9933 20.9293 46.6718 18.6894 49.9432 17.7417C53.7836 16.5356 57.4249 16.6218 60.8671 18.0002C63.4558 19.034 65.1627 20.6134 65.9592 22.7959C66.7842 24.9496 66.5281 27.2757 65.1911 29.774C64.0248 31.899 62.0334 33.8805 59.2171 35.7471C56.4008 37.6137 53.869 38.7623 51.5932 39.1644C50.5975 39.3941 49.9717 39.7674 49.7156 40.2269C49.4596 40.715 49.2605 41.7488 49.1467 43.3283C49.1182 45.4246 49.1182 47.1189 49.1182 48.4398C49.2036 49.5885 48.9476 50.45 48.2933 51.053C47.6674 51.6561 46.8709 51.972 45.8752 51.972H45.9321ZM52.5035 32.1862C55.5189 31.1237 57.8232 29.4294 59.3878 27.1321C59.7576 26.6726 59.8714 26.0983 59.7292 25.4378C59.5869 24.7773 59.2456 24.3466 58.762 24.1455C57.0836 23.4563 55.4336 23.2553 53.7836 23.4851C52.1337 23.7148 51.2803 24.3753 51.1665 25.4378C50.9104 27.7926 50.7397 29.5443 50.6544 30.7217C50.6544 31.2386 50.7966 31.6693 51.1665 31.9565C51.5363 32.2724 51.963 32.3585 52.4466 32.1862H52.5035Z" fill="white"/>
<path d="M85.4177 46.9466C84.7919 46.9466 84.2798 46.8604 83.8815 46.6594C83.4833 46.4871 83.1704 46.1712 82.9997 45.7405C82.8005 45.3097 82.6867 44.9077 82.6014 44.5057C82.5445 44.1036 82.4592 43.558 82.3738 42.8114C82.2885 42.0648 82.2316 41.5191 82.1462 41.1171C82.004 40.3992 81.6911 39.9684 81.1506 39.8823C80.6101 39.7674 79.7282 39.8536 78.4481 40.0833C74.693 40.7725 72.7585 42.8401 72.7017 46.3148C72.6732 47.0615 72.3603 47.7507 71.7344 48.3537C71.1086 48.9568 70.5112 49.3014 69.9138 49.4162C69.0888 49.5598 68.3776 49.3875 67.7518 48.8706C67.1544 48.3537 66.7561 47.6932 66.6139 46.9179C66.3294 45.3097 67.2966 40.7151 69.544 33.1339C73.3844 19.3786 77.0541 12.1994 80.6101 11.539C83.8246 10.9646 86.0151 13.8937 87.153 20.3837C87.409 22.48 87.722 26.6439 88.0633 32.9041C88.4047 39.1644 88.5185 42.8401 88.3763 43.9601C88.2056 45.8841 87.2099 46.8892 85.3893 46.9179L85.4177 46.9466ZM81.6057 29.9751C81.5488 27.6777 81.4351 26.2132 81.3213 25.5814C81.2075 24.9496 80.923 24.5763 80.4394 24.4902C79.7566 24.2604 79.2446 24.5476 78.8748 25.3804C77.3955 29.2284 76.7128 31.497 76.8265 32.1575C76.9688 32.9329 77.6231 33.22 78.7894 33.019C79.5575 32.8754 80.2403 32.5308 80.8377 31.9565C81.435 31.3822 81.6626 30.7504 81.6057 30.0038V29.9751Z" fill="white"/>
<path d="M95.943 42.955C94.35 43.0124 93.2974 42.0648 92.8138 40.0546C92.3017 38.0732 92.2164 35.9769 92.5009 33.7944C92.5009 33.8518 92.5009 33.3349 92.5009 32.2724C92.5009 31.2099 92.5293 29.8315 92.5862 28.1372C92.6147 26.4717 92.6715 24.6912 92.7 22.8821C92.7569 21.0442 92.7853 19.3212 92.8138 17.7131C92.8138 16.105 92.8707 14.8989 92.8991 14.1522C92.9845 12.4005 93.4112 11.0795 94.2077 10.1606C94.9758 9.24167 96.2275 8.63862 97.9628 8.38017C102.77 7.80584 106.838 9.18424 110.11 12.5728C113.353 15.6742 113.58 19.0628 110.821 22.7385L110.138 23.6574C109.37 24.4902 108.915 25.122 108.773 25.5527C108.631 25.9835 108.716 26.3568 109.086 26.6727C109.456 26.9886 110.167 27.3332 111.191 27.7065C111.418 27.7639 112.101 28.0224 113.211 28.4244C114.32 28.8264 115.117 29.1423 115.6 29.3146C119.554 30.7217 122.143 31.813 123.31 32.5883C124.476 33.3637 124.76 34.4836 124.163 35.9769C123.338 37.786 121.432 38.1881 118.445 37.0968L103.396 31.5258C101.376 30.7504 100.096 30.5207 99.5843 30.8366C99.1291 31.1525 98.8447 32.4734 98.7593 34.7995C98.7593 35.3738 98.7593 36.0056 98.7593 36.6661C98.7593 37.3266 98.7593 37.8435 98.7593 38.2168C98.7593 38.5901 98.7593 39.0208 98.7309 39.4803C98.7024 39.9398 98.674 40.2844 98.674 40.5428C98.674 40.8013 98.6171 41.031 98.5602 41.3469C98.5033 41.634 98.418 41.8638 98.3326 42.0074C98.2473 42.1509 98.1335 42.2945 97.9912 42.4668C97.849 42.6391 97.6783 42.754 97.4792 42.7827C97.2801 42.8114 97.0525 42.8689 96.8249 42.8976C96.5689 42.955 96.2844 42.955 95.943 42.955ZM101.206 22.078C102.088 21.9057 103.14 21.3314 104.335 20.3263C105.53 19.3212 106.042 18.431 105.9 17.6556C105.786 16.9952 105.103 16.2772 103.851 15.5593C102.6 14.8414 101.576 14.5543 100.751 14.6978C99.8688 14.9276 99.3567 16.1337 99.186 18.3736C98.9869 21.1304 99.6696 22.3652 101.206 22.078Z" fill="white"/>
<path d="M142.881 36.465C142.256 36.465 141.744 36.3789 141.345 36.1779C140.947 36.0056 140.634 35.6897 140.463 35.2589C140.264 34.8282 140.15 34.4261 140.065 34.0241C140.008 33.6221 139.923 33.0765 139.838 32.3298C139.752 31.5832 139.695 31.0376 139.61 30.6355C139.468 29.9176 139.155 29.4869 138.614 29.4007C138.074 29.2859 137.192 29.372 135.912 29.6017C132.157 30.2909 130.222 32.3585 130.165 35.8333C130.137 36.5799 129.796 37.2691 129.198 37.8721C128.601 38.4752 127.975 38.8198 127.378 38.9347C126.553 39.0782 125.841 38.9059 125.216 38.389C124.618 37.8721 124.248 37.2117 124.106 36.4363C123.822 34.8282 124.789 30.2335 127.036 22.6523C130.877 8.89704 134.546 1.71788 138.102 1.0574C141.317 0.483067 143.507 3.41216 144.645 9.90213C144.901 11.9984 145.214 16.1624 145.556 22.4226C145.897 28.6828 146.011 32.3585 145.868 33.4785C145.698 35.4025 144.702 36.4076 142.881 36.4363V36.465ZM139.069 19.4935C139.013 17.1962 138.899 15.7316 138.785 15.0998C138.671 14.4681 138.387 14.0948 137.903 14.0086C137.22 13.7789 136.708 14.066 136.339 14.8988C134.859 18.7469 134.176 21.0155 134.29 21.6759C134.433 22.4513 135.087 22.7385 136.253 22.5374C137.021 22.3939 137.704 22.0493 138.301 21.4749C138.899 20.9006 139.126 20.2688 139.069 19.5222V19.4935Z" fill="white"/>
</g>
<defs>
<clipPath id="clip0_86_58">
<rect width="277" height="225" fill="white"/>
</clipPath>
</defs>
</svg>
