<svg width="424" height="58" viewBox="0 0 424 58" fill="none" xmlns="http://www.w3.org/2000/svg">
<path d="M360.851 3.26263e-05C394.681 3.55838e-05 392.426 35.998 424 35.998L424 58L0 58L5.07052e-06 1.07971e-06C24.8085 3.24854e-06 33.83 35.9979 60.8938 35.9979C87.9576 35.9979 96.9787 9.55786e-06 119.532 1.15295e-05C142.085 1.35012e-05 151.106 32.7254 180.426 35.998C209.745 39.2705 216.511 2.00077e-05 243.575 2.23737e-05C270.638 2.47397e-05 272.894 35.998 304.468 35.998C336.043 35.998 327.021 2.96688e-05 360.851 3.26263e-05Z" fill="#921014"/>
<path d="M360.851 20C394.681 20 392.426 55.998 424 55.998L424 58L0 58L3.32206e-06 20C24.8085 20 33.83 55.9979 60.8938 55.9979C87.9576 55.9979 96.9787 20 119.532 20C142.085 20 151.106 52.7254 180.426 55.998C209.745 59.2705 216.511 20 243.575 20C270.638 20 272.894 55.998 304.468 55.998C336.043 55.998 327.021 20 360.851 20Z" fill="#CE171C"/>
</svg>
