<svg width="48" height="48" viewBox="0 0 48 48" fill="none" xmlns="http://www.w3.org/2000/svg">
<rect x="0.5" y="0.5" width="47" height="47" rx="23.5" stroke="black"/>
<g clip-path="url(#clip0_4429_6734)">
<path d="M34.713 16.077C34.4317 15.7394 34.0796 15.468 33.6815 15.2818C33.2835 15.0957 32.8494 14.9995 32.41 15H16.242L16.2 14.649C16.114 13.9194 15.7634 13.2467 15.2145 12.7585C14.6656 12.2702 13.9566 12.0003 13.222 12H13C12.7348 12 12.4804 12.1054 12.2929 12.2929C12.1054 12.4804 12 12.7348 12 13C12 13.2652 12.1054 13.5196 12.2929 13.7071C12.4804 13.8946 12.7348 14 13 14H13.222C13.4669 14 13.7033 14.09 13.8864 14.2527C14.0694 14.4155 14.1863 14.6397 14.215 14.883L15.591 26.583C15.7339 27.7998 16.3185 28.9218 17.2339 29.736C18.1493 30.5502 19.3319 31 20.557 31H31C31.2652 31 31.5196 30.8946 31.7071 30.7071C31.8946 30.5196 32 30.2652 32 30C32 29.7348 31.8946 29.4804 31.7071 29.2929C31.5196 29.1054 31.2652 29 31 29H20.557C19.9381 28.9983 19.3348 28.8051 18.8299 28.4471C18.3251 28.089 17.9433 27.5835 17.737 27H29.657C30.8293 27.0001 31.9643 26.5882 32.8638 25.8364C33.7633 25.0846 34.37 24.0407 34.578 22.887L35.363 18.533C35.4414 18.101 35.4237 17.6571 35.3114 17.2326C35.1991 16.8082 34.9948 16.4137 34.713 16.077ZM33.4 18.178L32.614 22.532C32.4891 23.225 32.1245 23.852 31.5839 24.3032C31.0433 24.7544 30.3612 25.0011 29.657 25H17.419L16.478 17H32.41C32.5569 16.9991 32.7022 17.0306 32.8355 17.0923C32.9689 17.1539 33.087 17.2441 33.1815 17.3566C33.276 17.4691 33.3446 17.601 33.3824 17.7429C33.4201 17.8849 33.4262 18.0334 33.4 18.178Z" fill="black"/>
<path d="M19.0001 36.0005C20.1047 36.0005 21.0001 35.1051 21.0001 34.0005C21.0001 32.8959 20.1047 32.0005 19.0001 32.0005C17.8956 32.0005 17.0001 32.8959 17.0001 34.0005C17.0001 35.1051 17.8956 36.0005 19.0001 36.0005Z" fill="black"/>
<path d="M29 36.0005C30.1046 36.0005 31 35.1051 31 34.0005C31 32.8959 30.1046 32.0005 29 32.0005C27.8954 32.0005 27 32.8959 27 34.0005C27 35.1051 27.8954 36.0005 29 36.0005Z" fill="black"/>
</g>
<defs>
<clipPath id="clip0_4429_6734">
<rect width="24" height="24" fill="white" transform="translate(12 12)"/>
</clipPath>
</defs>
</svg>
