<svg width="34" height="34" viewBox="0 0 34 34" fill="none" xmlns="http://www.w3.org/2000/svg">
<path d="M16.9993 4.3574C21.1601 4.3574 21.6536 4.37299 23.2963 4.4483C24.9949 4.52622 26.7441 4.91321 27.9817 6.15078C29.231 7.40005 29.6063 9.1324 29.6842 10.8362C29.7595 12.4789 29.7751 12.9724 29.7751 17.1331C29.7751 21.2939 29.7595 21.7874 29.6842 23.4301C29.6076 25.1196 29.2115 26.8857 27.9817 28.1155C26.7324 29.3648 25.0014 29.7401 23.2963 29.818C21.6536 29.8933 21.1601 29.9089 16.9993 29.9089C12.8386 29.9089 12.3451 29.8933 10.7024 29.818C9.02588 29.7414 7.23639 29.3362 6.01699 28.1155C4.77422 26.8727 4.39243 25.1235 4.31452 23.4301C4.2392 21.7874 4.22361 21.2939 4.22361 17.1331C4.22361 12.9724 4.2392 12.4789 4.31452 10.8362C4.39113 9.15317 4.79111 7.37667 6.01699 6.15078C7.26366 4.90412 9.0025 4.52622 10.7024 4.4483C12.3451 4.37299 12.8386 4.3574 16.9993 4.3574ZM16.9993 1.5498C12.7672 1.5498 12.236 1.56799 10.5738 1.6433C8.1649 1.75369 5.77286 2.42377 4.03142 4.16521C2.28349 5.91314 1.6199 8.29999 1.50952 10.7076C1.4342 12.3698 1.41602 12.901 1.41602 17.1331C1.41602 21.3653 1.4342 21.8964 1.50952 23.5587C1.6199 25.965 2.29258 28.3635 4.03142 30.1011C5.77805 31.8477 8.16879 32.5126 10.5738 32.623C12.236 32.6983 12.7672 32.7165 16.9993 32.7165C21.2315 32.7165 21.7627 32.6983 23.4249 32.623C25.8325 32.5126 28.2271 31.8412 29.9673 30.1011C31.7165 28.3518 32.3788 25.9663 32.4892 23.5587C32.5645 21.8964 32.5827 21.3653 32.5827 17.1331C32.5827 12.901 32.5645 12.3698 32.4892 10.7076C32.3788 8.29869 31.7074 5.90535 29.9673 4.16521C28.2232 2.42117 25.826 1.75239 23.4249 1.6433C21.7627 1.56799 21.2315 1.5498 16.9993 1.5498Z" fill="black"/>
<path d="M17.0001 9.13086C12.5809 9.13086 8.99805 12.7137 8.99805 17.1329C8.99805 21.5521 12.5809 25.1349 17.0001 25.1349C21.4193 25.1349 25.0021 21.5521 25.0021 17.1329C25.0021 12.7137 21.4193 9.13086 17.0001 9.13086ZM17.0001 22.3273C14.1315 22.3273 11.8056 20.0015 11.8056 17.1329C11.8056 14.2643 14.1315 11.9385 17.0001 11.9385C19.8687 11.9385 22.1945 14.2643 22.1945 17.1329C22.1945 20.0015 19.8687 22.3273 17.0001 22.3273Z" fill="black"/>
<path d="M25.3173 10.6843C26.35 10.6843 27.1873 9.84711 27.1873 8.81434C27.1873 7.78156 26.35 6.94434 25.3173 6.94434C24.2845 6.94434 23.4473 7.78156 23.4473 8.81434C23.4473 9.84711 24.2845 10.6843 25.3173 10.6843Z" fill="black"/>
</svg>
