<svg width="162" height="64" viewBox="0 0 162 64" fill="none" xmlns="http://www.w3.org/2000/svg">
<g clip-path="url(#clip0_4429_6695)">
<path d="M153.38 63.64H8.26C3.71 63.64 0 59.93 0 55.38V8.26C0 3.71 3.71 0 8.26 0H153.38C157.93 0 161.64 3.71 161.64 8.26V55.38C161.64 59.93 157.93 63.64 153.38 63.64ZM8.26 0.55C4.01 0.55 0.55 4.01 0.55 8.26V55.38C0.55 59.63 4.01 63.09 8.26 63.09H153.38C157.63 63.09 161.09 59.63 161.09 55.38V8.26C161.09 4.01 157.63 0.55 153.38 0.55H8.26Z" fill="#1D1D1B"/>
<path d="M61.8801 47.7199V49.0599H56.3V41.8599H61.7401V43.1999H57.9501V44.7599H61.2901V46.0599H57.9501V47.7299H61.87L61.8801 47.7199Z" fill="#1D1D1B"/>
<path d="M70.1 41.8599V49.0599H68.73L65.14 44.6899V49.0599H63.49V41.8599H64.87L68.45 46.2299V41.8599H70.1Z" fill="#1D1D1B"/>
<path d="M74.8401 45.46C74.8401 43.29 76.5101 41.73 78.7501 41.73C79.9901 41.73 81.0301 42.18 81.7101 43.01L80.6401 44C80.1601 43.44 79.5501 43.16 78.8301 43.16C77.4801 43.16 76.5201 44.11 76.5201 45.47C76.5201 46.83 77.4801 47.78 78.8301 47.78C79.5501 47.78 80.1601 47.49 80.6401 46.93L81.7101 47.92C81.0301 48.75 79.9901 49.21 78.7401 49.21C76.5101 49.21 74.8401 47.66 74.8401 45.49V45.46Z" fill="#1D1D1B"/>
<path d="M87.72 47.5199H84.38L83.74 49.0599H82.03L85.24 41.8599H86.89L90.11 49.0599H88.36L87.72 47.5199ZM87.2 46.2499L86.06 43.4899L84.92 46.2499H87.2Z" fill="#1D1D1B"/>
<path d="M90.5801 48.35L91.1501 47.09C91.7601 47.53 92.6601 47.84 93.5301 47.84C94.5201 47.84 94.9201 47.51 94.9201 47.07C94.9201 45.72 90.7301 46.65 90.7301 43.97C90.7301 42.75 91.7201 41.73 93.7701 41.73C94.6801 41.73 95.6001 41.95 96.2701 42.37L95.7601 43.64C95.0901 43.26 94.4001 43.07 93.7601 43.07C92.7701 43.07 92.3901 43.44 92.3901 43.89C92.3901 45.22 96.5801 44.3 96.5801 46.95C96.5801 48.15 95.5801 49.18 93.5201 49.18C92.3801 49.18 91.2301 48.84 90.5901 48.35H90.5801Z" fill="#1D1D1B"/>
<path d="M102.74 47.5199H99.4L98.76 49.0599H97.05L100.26 41.8599H101.91L105.13 49.0599H103.38L102.74 47.5199ZM102.21 46.2499L101.07 43.4899L99.93 46.2499H102.21Z" fill="#1D1D1B"/>
<path d="M42.61 30.2203C42.22 31.2203 41.68 32.1103 41 32.8803C40.32 33.6603 39.51 34.3003 38.58 34.8203C37.65 35.3403 36.64 35.6903 35.56 35.8903C35.56 36.3203 35.65 36.7003 35.83 37.0403C36.01 37.3803 36.26 37.6703 36.57 37.8903C36.88 38.1103 37.23 38.2803 37.63 38.3903C38.02 38.5003 38.42 38.5603 38.83 38.5603C39.12 38.5603 39.41 38.5403 39.69 38.5003C39.97 38.4603 40.27 38.3703 40.6 38.2403L40.72 38.4403C40.25 38.7703 39.7 39.0503 39.08 39.2903C38.46 39.5303 37.75 39.6503 36.97 39.6503C36.33 39.6503 35.73 39.5803 35.18 39.4403C34.62 39.3003 34.13 39.0803 33.69 38.7903C33.25 38.5003 32.9 38.1103 32.62 37.6203C32.34 37.1403 32.16 36.5703 32.08 35.9103C31.08 35.7003 30.14 35.3303 29.26 34.8203C28.38 34.3003 27.6 33.6703 26.94 32.9103C26.28 32.1503 25.75 31.2803 25.37 30.3003C24.98 29.3203 24.79 28.2503 24.79 27.0803C24.79 24.3103 25.85 22.0203 27.98 20.2003C28.85 19.4603 29.82 18.9203 30.89 18.5503C31.96 18.1903 33.09 18.0103 34.27 18.0103C35.66 18.0103 36.91 18.2603 38.01 18.7503C39.11 19.2403 40.05 19.9003 40.82 20.7303C41.59 21.5603 42.18 22.5103 42.59 23.5903C43 24.6703 43.2 25.8003 43.2 26.9803C43.2 28.1603 43 29.2203 42.61 30.2203ZM39.77 23.9803C39.52 22.9603 39.13 22.0403 38.62 21.2203C38.1 20.3903 37.46 19.7203 36.69 19.2103C35.92 18.6903 35.01 18.4403 33.96 18.4403C32.91 18.4403 31.97 18.7003 31.2 19.2103C30.42 19.7303 29.78 20.3903 29.28 21.2103C28.78 22.0303 28.41 22.9603 28.18 24.0003C27.94 25.0403 27.82 26.0903 27.82 27.1503C27.82 28.2103 27.96 29.3403 28.25 30.3803C28.54 31.4203 28.95 32.3403 29.49 33.1403C30.03 33.9403 30.69 34.5803 31.45 35.0703C32.22 35.5503 33.08 35.7903 34.03 35.7903C35.14 35.7903 36.09 35.5203 36.87 34.9703C37.65 34.4203 38.28 33.7203 38.76 32.8703C39.24 32.0203 39.59 31.0703 39.82 30.0303C40.04 28.9903 40.15 27.9803 40.15 27.0003C40.15 26.0203 40.02 25.0003 39.77 23.9803Z" fill="#1D1D1B"/>
<path d="M46.02 23.3201L45.77 23.1701L48.32 18.8501C48.68 18.8501 48.93 18.9201 49.08 19.0501C49.23 19.1801 49.35 19.3101 49.45 19.4401V19.5601L46.01 23.3201H46.02Z" fill="#1D1D1B"/>
<path d="M68.68 30.6103C68.19 31.7203 67.52 32.6903 66.68 33.5103C65.84 34.3303 64.85 34.9603 63.73 35.4003C62.61 35.8403 61.42 36.0603 60.16 36.0603C58.9 36.0603 57.74 35.8403 56.62 35.4103C55.51 34.9803 54.53 34.3603 53.7 33.5703C52.87 32.7803 52.21 31.8303 51.72 30.7203C51.24 29.6103 51 28.4003 51 27.0703C51 25.6603 51.25 24.4003 51.76 23.2803C52.27 22.1603 52.95 21.2103 53.81 20.4303C54.67 19.6503 55.68 19.0603 56.83 18.6403C57.98 18.2203 59.2 18.0103 60.48 18.0103C61.87 18.0103 63.12 18.2603 64.22 18.7503C65.32 19.2403 66.26 19.9003 67.03 20.7303C67.8 21.5603 68.39 22.5103 68.8 23.5903C69.21 24.6703 69.41 25.8003 69.41 26.9803C69.41 28.2903 69.16 29.5003 68.67 30.6103H68.68ZM65.99 23.9803C65.74 22.9603 65.35 22.0403 64.84 21.2203C64.32 20.3903 63.68 19.7203 62.91 19.2103C62.14 18.6903 61.23 18.4403 60.18 18.4403C59.13 18.4403 58.19 18.7003 57.42 19.2103C56.64 19.7303 56 20.3903 55.5 21.2103C55 22.0303 54.63 22.9603 54.4 24.0003C54.16 25.0403 54.04 26.0903 54.04 27.1503C54.04 28.2103 54.17 29.3403 54.43 30.3703C54.69 31.4003 55.08 32.3103 55.6 33.1003C56.12 33.8903 56.76 34.5203 57.54 34.9903C58.32 35.4603 59.22 35.7003 60.25 35.7003C61.28 35.7003 62.18 35.4403 62.94 34.9103C63.7 34.3903 64.34 33.7103 64.84 32.8803C65.35 32.0503 65.73 31.1203 65.98 30.0903C66.23 29.0603 66.36 28.0303 66.36 27.0003C66.36 25.9703 66.23 25.0003 65.98 23.9803H65.99Z" fill="#1D1D1B"/>
<path d="M88.1801 23.9501C87.9701 23.1601 87.6501 22.4301 87.2201 21.7401C86.7901 21.0501 86.2901 20.4501 85.7101 19.9501C85.1301 19.4401 84.4701 19.0401 83.7501 18.7501C83.0201 18.4601 82.2501 18.3101 81.4301 18.3101C80.3001 18.3101 79.2901 18.5601 78.4101 19.0701C77.5301 19.5801 76.7801 20.2501 76.1901 21.0801C75.5901 21.9101 75.1301 22.8601 74.8101 23.9201C74.4901 24.9801 74.3301 26.0601 74.3301 27.1701C74.3301 28.3501 74.5001 29.4501 74.8301 30.4901C75.1601 31.5301 75.6401 32.4201 76.2701 33.1801C76.8901 33.9401 77.6501 34.5401 78.5301 34.9801C79.4101 35.4201 80.4001 35.6401 81.4801 35.6401C82.3301 35.6401 83.1301 35.4901 83.8701 35.1701C84.6101 34.8601 85.2801 34.4501 85.8601 33.9401C86.4401 33.4301 86.9301 32.8501 87.3301 32.1801C87.7301 31.5201 88.0101 30.8301 88.1501 30.1301H88.4401L88.3701 35.5301H88.0801C87.8801 35.2501 87.6801 35.0001 87.4701 34.7701C87.2601 34.5401 87.1101 34.4301 87.0301 34.4301C87.0001 34.4301 86.8501 34.5201 86.5901 34.6901C86.3301 34.8601 85.9501 35.0501 85.4601 35.2501C84.9701 35.4501 84.3701 35.6401 83.6701 35.7901C82.9701 35.9401 82.1601 36.0201 81.2401 36.0201C79.7201 36.0201 78.3401 35.8001 77.1101 35.3701C75.8801 34.9401 74.8401 34.3201 73.9801 33.5301C73.1201 32.7401 72.4601 31.7901 72.0001 30.6801C71.5401 29.5701 71.3101 28.3601 71.3101 27.0301C71.3101 26.7401 71.3301 26.4001 71.3701 26.0201C71.4101 25.6401 71.4801 25.2401 71.5901 24.8201C71.7001 24.3901 71.8401 23.9501 72.0301 23.4801C72.2201 23.0101 72.4601 22.5401 72.7501 22.0701C73.0901 21.5101 73.5201 20.9801 74.0301 20.4701C74.5401 19.9601 75.1401 19.5201 75.8201 19.1301C76.5101 18.7501 77.2801 18.4401 78.1501 18.2101C79.0201 17.9801 79.9901 17.8701 81.0701 17.8701C82.0501 17.8701 82.9101 17.9601 83.6501 18.1401C84.3901 18.3201 85.0001 18.5201 85.4901 18.7301C85.9801 18.9401 86.3601 19.1401 86.6201 19.3201C86.8801 19.5001 87.0301 19.5901 87.0601 19.5901C87.0901 19.5901 87.1501 19.5501 87.2401 19.4801C87.3301 19.4101 87.4301 19.3201 87.5301 19.2101C87.6301 19.1001 87.7501 18.9801 87.8601 18.8401C87.9701 18.7001 88.0801 18.5601 88.1801 18.4101H88.4501V23.9101L88.1601 23.9301L88.1801 23.9501Z" fill="#1D1D1B"/>
<path d="M91.3 35.9402V35.6902C91.71 35.6302 92.09 35.5202 92.44 35.3702C92.79 35.2202 93.09 35.0102 93.34 34.7302C93.42 34.6302 93.48 34.4902 93.52 34.3102C93.56 34.1302 93.59 33.9202 93.62 33.6702C93.65 33.4202 93.66 33.1702 93.67 32.9002C93.67 32.6302 93.68 32.3602 93.68 32.1002C93.68 31.8702 93.68 31.5602 93.69 31.1702C93.69 30.7802 93.71 30.3502 93.71 29.8802C93.71 29.4102 93.72 28.9302 93.72 28.4402V21.3402C93.72 21.0502 93.71 20.7702 93.68 20.5202C93.66 20.2702 93.62 20.0402 93.57 19.8302C93.52 19.6302 93.45 19.4702 93.35 19.3502C93.12 19.0702 92.84 18.8702 92.5 18.7502C92.16 18.6302 91.78 18.5402 91.36 18.4902V18.2402H98.7V18.4902C98.36 18.5402 97.99 18.6302 97.6 18.7602C97.21 18.8902 96.9 19.1502 96.69 19.5502C96.54 19.8302 96.47 20.1802 96.46 20.6102C96.46 21.0402 96.44 21.4402 96.42 21.8102C96.42 22.2202 96.42 22.6202 96.41 23.0302C96.41 23.4302 96.4 23.8402 96.4 24.2502V32.4802C96.4 32.9602 96.4 33.4102 96.42 33.8502C96.44 34.2902 96.51 34.6002 96.64 34.7802C96.84 35.0602 97.15 35.2702 97.57 35.4202C98 35.5702 98.38 35.6602 98.72 35.6902V35.9402H91.28H91.3Z" fill="#1D1D1B"/>
<path d="M119.77 18.97C119.4 19.2 119.12 19.55 118.92 20.03C118.81 20.28 118.73 20.73 118.7 21.39C118.67 22.05 118.63 22.76 118.6 23.51C118.57 24.21 118.54 25.04 118.51 26C118.49 26.96 118.47 27.98 118.47 29.08V30.65C118.47 31.22 118.47 31.81 118.48 32.41C118.48 33.01 118.49 33.6 118.49 34.19V35.79C118.49 35.86 118.47 35.91 118.43 35.95C118.39 35.99 118.33 36.01 118.25 36.01C118.12 36.01 117.97 35.93 117.81 35.76C116.42 34.16 115.15 32.68 114 31.34C112.85 30 111.76 28.72 110.72 27.5C109.68 26.28 108.66 25.09 107.66 23.93C106.66 22.77 105.61 21.56 104.49 20.32V30.68C104.49 31.51 104.51 32.27 104.55 32.94C104.59 33.61 104.69 34.11 104.86 34.44C105.04 34.82 105.32 35.1 105.71 35.29C106.09 35.48 106.62 35.61 107.29 35.7V35.95H101.25V35.7C101.64 35.65 102.04 35.55 102.43 35.39C102.82 35.23 103.13 34.98 103.36 34.62C103.59 34.28 103.74 33.77 103.8 33.1C103.86 32.43 103.91 31.63 103.95 30.69C103.98 29.99 104.01 29.15 104.02 28.2C104.04 27.24 104.04 26.22 104.04 25.12V22.12C104.04 21.79 104.04 21.39 104.02 20.92C103.97 20.44 103.86 20.06 103.68 19.75C103.5 19.45 103.29 19.21 103.04 19.04C102.79 18.87 102.53 18.75 102.24 18.67C101.95 18.6 101.68 18.54 101.42 18.51V18.26H106.4L118.04 31.86V23.51C118.04 22.86 118.04 22.23 118.02 21.63C118 21.03 117.93 20.56 117.8 20.22C117.64 19.76 117.35 19.39 116.93 19.1C116.51 18.81 115.91 18.61 115.13 18.5V18.25H121.22V18.5C120.61 18.58 120.13 18.74 119.76 18.97H119.77Z" fill="#1D1D1B"/>
<path d="M132.35 35.9399V35.6899C132.35 35.6899 132.52 35.6699 132.71 35.6399C132.9 35.6099 133.09 35.5499 133.3 35.4699C133.5 35.3899 133.68 35.2699 133.84 35.1299C134 34.9899 134.07 34.7899 134.07 34.5699C134.07 34.4199 134.02 34.1799 133.94 33.8499C133.85 33.5099 133.72 33.1099 133.56 32.6199C133.4 32.1399 133.21 31.5999 132.99 31.0099C132.77 30.4199 132.55 29.8099 132.3 29.1699H125.77C125.52 29.7899 125.29 30.3899 125.06 30.9499C124.83 31.5199 124.6 32.0799 124.37 32.6599C124.03 33.5399 123.85 34.1699 123.85 34.5299C123.85 34.7399 123.92 34.9199 124.05 35.0599C124.18 35.1999 124.35 35.3099 124.55 35.3999C124.75 35.4899 124.98 35.5599 125.21 35.5999C125.45 35.6399 125.67 35.6799 125.88 35.7099V35.9599H120.65V35.6899C121.08 35.6399 121.44 35.5299 121.74 35.3499C122.04 35.1699 122.22 35.0499 122.27 34.9799C122.38 34.8699 122.57 34.5999 122.83 34.1699C123.09 33.7399 123.41 33.1099 123.79 32.2799C124.13 31.5099 124.52 30.6299 124.94 29.6499C125.37 28.6699 125.8 27.6599 126.25 26.6199C126.7 25.5799 127.15 24.5299 127.59 23.4799C128.03 22.4199 128.45 21.4399 128.84 20.5199L128.59 19.9799C128.88 19.8499 129.15 19.6899 129.39 19.5099C129.63 19.3299 129.84 19.1399 130.02 18.9399C130.2 18.7399 130.35 18.5599 130.47 18.3799C130.59 18.1999 130.69 18.0499 130.75 17.9399H130.95C131.46 19.2999 131.94 20.5899 132.4 21.8099C132.86 23.0299 133.3 24.1999 133.71 25.3299C134.13 26.4599 134.53 27.5499 134.93 28.6099C135.33 29.6699 135.72 30.7099 136.11 31.7399C136.29 32.2499 136.46 32.6699 136.61 32.9999C136.76 33.3399 136.94 33.7199 137.14 34.1399C137.17 34.2099 137.25 34.3199 137.36 34.4799C137.47 34.6399 137.63 34.8099 137.81 34.9799C138 35.1499 138.23 35.2999 138.51 35.4299C138.79 35.5599 139.12 35.6299 139.49 35.6499V35.9399H132.32H132.35ZM129.14 21.0599C129.04 21.2699 128.9 21.6099 128.71 22.0699C128.52 22.5299 128.29 23.0899 128.01 23.7399C127.73 24.3899 127.42 25.1399 127.09 25.9599C126.75 26.7899 126.39 27.6799 126 28.6499H132.11C131.83 27.9099 131.55 27.1799 131.26 26.4399C130.97 25.6999 130.7 24.9999 130.43 24.3199C130.16 23.6399 129.91 23.0199 129.69 22.4499C129.47 21.8799 129.28 21.4199 129.14 21.0599Z" fill="#1D1D1B"/>
</g>
<defs>
<clipPath id="clip0_4429_6695">
<rect width="161.64" height="63.64" fill="white"/>
</clipPath>
</defs>
</svg>
