<svg width="34" height="34" viewBox="0 0 34 34" fill="none" xmlns="http://www.w3.org/2000/svg">
<path d="M31.1673 13.8739C28.2714 13.8739 25.5868 12.9814 23.3962 11.4651V22.4065C23.3962 27.8714 18.7837 32.3158 13.1151 32.3158C10.9246 32.3158 8.89245 31.6503 7.22316 30.5203C4.57233 28.7261 2.83398 25.7588 2.83398 22.4065C2.83398 16.9417 7.44654 12.496 13.1165 12.496C13.5876 12.496 14.0479 12.5338 14.5014 12.5925V13.8674V18.0887C14.0628 17.9569 13.5998 17.8799 13.1165 17.8799C10.5279 17.8799 8.42132 19.9103 8.42132 22.4065C8.42132 24.1446 9.44483 25.6544 10.9395 26.4125C11.5907 26.7426 12.3312 26.9319 13.1178 26.9319C15.6468 26.9319 17.7101 24.9928 17.8048 22.5762L17.8089 1H23.3949C23.3949 1.46715 23.4423 1.92255 23.5262 2.36621C23.9202 4.41748 25.1833 6.17776 26.9338 7.27777C28.1523 8.04374 29.6063 8.49131 31.166 8.49131L31.1673 13.8739Z" fill="black"/>
</svg>
