<svg width="34" height="34" viewBox="0 0 34 34" fill="none" xmlns="http://www.w3.org/2000/svg">
<path fill-rule="evenodd" clip-rule="evenodd" d="M28.0367 5.97629C25.1009 3.03784 21.1978 1.4183 17.0398 1.41699C8.47149 1.41699 1.49792 8.38926 1.49399 16.9615C1.49269 19.7012 2.209 22.3756 3.56973 24.7337L1.36328 32.7883L9.60347 30.6263C11.874 31.8654 14.4307 32.5177 17.0319 32.519H17.0385C25.6054 32.519 32.5803 25.5454 32.5842 16.9732C32.5869 12.8205 30.9712 8.91342 28.0367 5.97629ZM17.0398 29.893H17.0345C14.7157 29.893 12.4426 29.2695 10.4583 28.0917L9.98646 27.812L5.09646 29.0943L6.40229 24.3259L6.09512 23.837C4.80105 21.7796 4.11873 19.4019 4.12003 16.9615C4.12265 9.83757 9.9198 4.04172 17.0463 4.04172C20.4972 4.04172 23.7415 5.38807 26.1806 7.82981C28.6197 10.2728 29.9621 13.5185 29.9608 16.9706C29.9569 24.0971 24.1611 29.893 17.0398 29.893ZM24.1271 20.2162C23.7389 20.0215 21.8291 19.0816 21.4723 18.9522C21.1167 18.8228 20.8579 18.7575 20.5978 19.1457C20.3377 19.5339 19.5952 20.4097 19.3678 20.6698C19.1417 20.9286 18.9142 20.9613 18.526 20.7665C18.1378 20.5718 16.8855 20.1626 15.4019 18.8385C14.2477 17.8085 13.4674 16.5366 13.2412 16.1471C13.0151 15.7576 13.2177 15.5484 13.4112 15.355C13.5863 15.1811 13.7994 14.9014 13.9941 14.674C14.1902 14.4491 14.2543 14.2871 14.385 14.0269C14.5144 13.7681 14.4503 13.5407 14.3523 13.3459C14.2543 13.1525 13.4778 11.2401 13.155 10.4624C12.8399 9.70424 12.5197 9.8075 12.2805 9.79574C12.0544 9.78398 11.7955 9.78267 11.5354 9.78267C11.2766 9.78267 10.8557 9.8794 10.5002 10.2689C10.1446 10.6585 9.14075 11.5983 9.14075 13.5093C9.14075 15.4217 10.5328 17.2686 10.7263 17.5275C10.9198 17.7863 13.4648 21.7103 17.3613 23.3926C18.2881 23.7926 19.0122 24.0318 19.5756 24.2108C20.5063 24.5063 21.3533 24.4644 22.0226 24.3651C22.769 24.254 24.3205 23.4253 24.6447 22.5181C24.9689 21.611 24.9689 20.8319 24.8708 20.6711C24.7741 20.5077 24.5153 20.411 24.1271 20.2162Z" fill="black"/>
</svg>
