<svg width="34" height="34" viewBox="0 0 34 34" fill="none" xmlns="http://www.w3.org/2000/svg">
<path d="M31.9308 9.09533C31.5724 7.74607 30.5166 6.68251 29.1751 6.32149C26.7454 5.66699 16.9993 5.66699 16.9993 5.66699C16.9993 5.66699 7.25327 5.66699 4.82227 6.32149C3.48211 6.68251 2.42634 7.74477 2.06792 9.09533C1.41602 11.5419 1.41602 16.6455 1.41602 16.6455C1.41602 16.6455 1.41602 21.749 2.06792 24.1956C2.42634 25.5448 3.48211 26.6084 4.82357 26.9694C7.25327 27.6239 16.9993 27.6239 16.9993 27.6239C16.9993 27.6239 26.7454 27.6239 29.1764 26.9694C30.5166 26.6084 31.5724 25.5461 31.9321 24.1956C32.5827 21.749 32.5827 16.6455 32.5827 16.6455C32.5827 16.6455 32.5827 11.5419 31.9308 9.09533ZM13.8126 21.2802V12.0107L21.9574 16.6455L13.8126 21.2802Z" fill="black"/>
</svg>
