<svg width="329" height="551" viewBox="0 0 329 551" fill="none" xmlns="http://www.w3.org/2000/svg">
<path d="M0 16C0 7.16345 7.16344 0 16 0H313C321.837 0 329 7.16344 329 16V514H0V16Z" fill="#6A892C"/>
<path d="M60.06 533.553C33.9562 533.553 36.8847 551 -6.86288e-06 551L0 514L329 514L329 551C308.92 551 303.026 535.007 276.922 535.007C250.819 535.007 246.803 551 222.707 551C198.611 551 196.603 533.553 170.499 533.553C144.395 533.553 140.379 551 116.284 551C92.1878 551 86.1638 533.553 60.06 533.553Z" fill="#6A892C"/>
</svg>
