<svg width="329" height="558" viewBox="0 0 329 558" fill="none" xmlns="http://www.w3.org/2000/svg">
<path d="M0 16C0 7.16344 7.16344 0 16 0H313C321.837 0 329 7.16344 329 16V521H0V16Z" fill="#CE171C"/>
<path d="M60.06 540.553C33.9562 540.553 36.8847 558 -6.86288e-06 558L0 521L329 521L329 558C308.92 558 303.026 542.007 276.922 542.007C250.819 542.007 246.803 558 222.707 558C198.611 558 196.603 540.553 170.499 540.553C144.395 540.553 140.379 558 116.284 558C92.1878 558 86.1638 540.553 60.06 540.553Z" fill="#CE171C"/>
</svg>
