<svg width="162" height="64" viewBox="0 0 162 64" fill="none" xmlns="http://www.w3.org/2000/svg">
<g clip-path="url(#clip0_4429_7828)">
<path d="M153.38 63.64H8.26C3.71 63.64 0 59.93 0 55.38V8.26C0 3.71 3.71 0 8.26 0H153.38C157.93 0 161.64 3.71 161.64 8.26V55.38C161.64 59.93 157.93 63.64 153.38 63.64ZM8.26 0.55C4.01 0.55 0.55 4.01 0.55 8.26V55.38C0.55 59.63 4.01 63.09 8.26 63.09H153.38C157.63 63.09 161.09 59.63 161.09 55.38V8.26C161.09 4.01 157.63 0.55 153.38 0.55H8.26Z" fill="white"/>
<path d="M61.8801 47.72V49.06H56.3V41.86H61.7401V43.2H57.9501V44.76H61.2901V46.06H57.9501V47.73H61.87L61.8801 47.72Z" fill="white"/>
<path d="M70.1 41.86V49.06H68.73L65.14 44.69V49.06H63.49V41.86H64.87L68.45 46.23V41.86H70.1Z" fill="white"/>
<path d="M74.8401 45.46C74.8401 43.29 76.5101 41.73 78.7501 41.73C79.9901 41.73 81.0301 42.18 81.7101 43.01L80.6401 44C80.1601 43.44 79.5501 43.16 78.8301 43.16C77.4801 43.16 76.5201 44.11 76.5201 45.47C76.5201 46.83 77.4801 47.78 78.8301 47.78C79.5501 47.78 80.1601 47.49 80.6401 46.93L81.7101 47.92C81.0301 48.75 79.9901 49.21 78.7401 49.21C76.5101 49.21 74.8401 47.66 74.8401 45.49V45.46Z" fill="white"/>
<path d="M87.72 47.52H84.38L83.74 49.06H82.03L85.24 41.86H86.89L90.11 49.06H88.36L87.72 47.52ZM87.2 46.25L86.06 43.49L84.92 46.25H87.2Z" fill="white"/>
<path d="M90.5801 48.35L91.1501 47.09C91.7601 47.53 92.6601 47.84 93.5301 47.84C94.5201 47.84 94.9201 47.51 94.9201 47.07C94.9201 45.72 90.7301 46.65 90.7301 43.97C90.7301 42.75 91.7201 41.73 93.7701 41.73C94.6801 41.73 95.6001 41.95 96.2701 42.37L95.7601 43.64C95.0901 43.26 94.4001 43.07 93.7601 43.07C92.7701 43.07 92.3901 43.44 92.3901 43.89C92.3901 45.22 96.5801 44.3 96.5801 46.95C96.5801 48.15 95.5801 49.18 93.5201 49.18C92.3801 49.18 91.2301 48.84 90.5901 48.35H90.5801Z" fill="white"/>
<path d="M102.74 47.52H99.4L98.76 49.06H97.05L100.26 41.86H101.91L105.13 49.06H103.38L102.74 47.52ZM102.21 46.25L101.07 43.49L99.93 46.25H102.21Z" fill="white"/>
<path d="M42.61 30.22C42.22 31.22 41.68 32.11 41 32.88C40.32 33.66 39.51 34.3 38.58 34.82C37.65 35.34 36.64 35.69 35.56 35.89C35.56 36.32 35.65 36.7 35.83 37.04C36.01 37.38 36.26 37.67 36.57 37.89C36.88 38.11 37.23 38.28 37.63 38.39C38.02 38.5 38.42 38.56 38.83 38.56C39.12 38.56 39.41 38.54 39.69 38.5C39.97 38.46 40.27 38.37 40.6 38.24L40.72 38.44C40.25 38.77 39.7 39.05 39.08 39.29C38.46 39.53 37.75 39.65 36.97 39.65C36.33 39.65 35.73 39.58 35.18 39.44C34.62 39.3 34.13 39.08 33.69 38.79C33.25 38.5 32.9 38.11 32.62 37.62C32.34 37.14 32.16 36.57 32.08 35.91C31.08 35.7 30.14 35.33 29.26 34.82C28.38 34.3 27.6 33.67 26.94 32.91C26.28 32.15 25.75 31.28 25.37 30.3C24.98 29.32 24.79 28.25 24.79 27.08C24.79 24.31 25.85 22.02 27.98 20.2C28.85 19.46 29.82 18.92 30.89 18.55C31.96 18.19 33.09 18.01 34.27 18.01C35.66 18.01 36.91 18.26 38.01 18.75C39.11 19.24 40.05 19.9 40.82 20.73C41.59 21.56 42.18 22.51 42.59 23.59C43 24.67 43.2 25.8 43.2 26.98C43.2 28.16 43 29.22 42.61 30.22ZM39.77 23.98C39.52 22.96 39.13 22.04 38.62 21.22C38.1 20.39 37.46 19.72 36.69 19.21C35.92 18.69 35.01 18.44 33.96 18.44C32.91 18.44 31.97 18.7 31.2 19.21C30.42 19.73 29.78 20.39 29.28 21.21C28.78 22.03 28.41 22.96 28.18 24C27.94 25.04 27.82 26.09 27.82 27.15C27.82 28.21 27.96 29.34 28.25 30.38C28.54 31.42 28.95 32.34 29.49 33.14C30.03 33.94 30.69 34.58 31.45 35.07C32.22 35.55 33.08 35.79 34.03 35.79C35.14 35.79 36.09 35.52 36.87 34.97C37.65 34.42 38.28 33.72 38.76 32.87C39.24 32.02 39.59 31.07 39.82 30.03C40.04 28.99 40.15 27.98 40.15 27C40.15 26.02 40.02 25 39.77 23.98Z" fill="white"/>
<path d="M46.02 23.32L45.77 23.17L48.32 18.85C48.68 18.85 48.93 18.92 49.08 19.05C49.23 19.18 49.35 19.31 49.45 19.44V19.56L46.01 23.32H46.02Z" fill="white"/>
<path d="M68.68 30.61C68.19 31.72 67.52 32.69 66.68 33.51C65.84 34.33 64.85 34.96 63.73 35.4C62.61 35.84 61.42 36.06 60.16 36.06C58.9 36.06 57.74 35.84 56.62 35.41C55.51 34.98 54.53 34.36 53.7 33.57C52.87 32.78 52.21 31.83 51.72 30.72C51.24 29.61 51 28.4 51 27.07C51 25.66 51.25 24.4 51.76 23.28C52.27 22.16 52.95 21.21 53.81 20.43C54.67 19.65 55.68 19.06 56.83 18.64C57.98 18.22 59.2 18.01 60.48 18.01C61.87 18.01 63.12 18.26 64.22 18.75C65.32 19.24 66.26 19.9 67.03 20.73C67.8 21.56 68.39 22.51 68.8 23.59C69.21 24.67 69.41 25.8 69.41 26.98C69.41 28.29 69.16 29.5 68.67 30.61H68.68ZM65.99 23.98C65.74 22.96 65.35 22.04 64.84 21.22C64.32 20.39 63.68 19.72 62.91 19.21C62.14 18.69 61.23 18.44 60.18 18.44C59.13 18.44 58.19 18.7 57.42 19.21C56.64 19.73 56 20.39 55.5 21.21C55 22.03 54.63 22.96 54.4 24C54.16 25.04 54.04 26.09 54.04 27.15C54.04 28.21 54.17 29.34 54.43 30.37C54.69 31.4 55.08 32.31 55.6 33.1C56.12 33.89 56.76 34.52 57.54 34.99C58.32 35.46 59.22 35.7 60.25 35.7C61.28 35.7 62.18 35.44 62.94 34.91C63.7 34.39 64.34 33.71 64.84 32.88C65.35 32.05 65.73 31.12 65.98 30.09C66.23 29.06 66.36 28.03 66.36 27C66.36 25.97 66.23 25 65.98 23.98H65.99Z" fill="white"/>
<path d="M88.1801 23.95C87.9701 23.16 87.6501 22.43 87.2201 21.74C86.7901 21.05 86.2901 20.45 85.7101 19.95C85.1301 19.44 84.4701 19.04 83.7501 18.75C83.0201 18.46 82.2501 18.31 81.4301 18.31C80.3001 18.31 79.2901 18.56 78.4101 19.07C77.5301 19.58 76.7801 20.25 76.1901 21.08C75.5901 21.91 75.1301 22.86 74.8101 23.92C74.4901 24.98 74.3301 26.06 74.3301 27.17C74.3301 28.35 74.5001 29.45 74.8301 30.49C75.1601 31.53 75.6401 32.42 76.2701 33.18C76.8901 33.94 77.6501 34.54 78.5301 34.98C79.4101 35.42 80.4001 35.64 81.4801 35.64C82.3301 35.64 83.1301 35.49 83.8701 35.17C84.6101 34.86 85.2801 34.45 85.8601 33.94C86.4401 33.43 86.9301 32.85 87.3301 32.18C87.7301 31.52 88.0101 30.83 88.1501 30.13H88.4401L88.3701 35.53H88.0801C87.8801 35.25 87.6801 35 87.4701 34.77C87.2601 34.54 87.1101 34.43 87.0301 34.43C87.0001 34.43 86.8501 34.52 86.5901 34.69C86.3301 34.86 85.9501 35.05 85.4601 35.25C84.9701 35.45 84.3701 35.64 83.6701 35.79C82.9701 35.94 82.1601 36.02 81.2401 36.02C79.7201 36.02 78.3401 35.8 77.1101 35.37C75.8801 34.94 74.8401 34.32 73.9801 33.53C73.1201 32.74 72.4601 31.79 72.0001 30.68C71.5401 29.57 71.3101 28.36 71.3101 27.03C71.3101 26.74 71.3301 26.4 71.3701 26.02C71.4101 25.64 71.4801 25.24 71.5901 24.82C71.7001 24.39 71.8401 23.95 72.0301 23.48C72.2201 23.01 72.4601 22.54 72.7501 22.07C73.0901 21.51 73.5201 20.98 74.0301 20.47C74.5401 19.96 75.1401 19.52 75.8201 19.13C76.5101 18.75 77.2801 18.44 78.1501 18.21C79.0201 17.98 79.9901 17.87 81.0701 17.87C82.0501 17.87 82.9101 17.96 83.6501 18.14C84.3901 18.32 85.0001 18.52 85.4901 18.73C85.9801 18.94 86.3601 19.14 86.6201 19.32C86.8801 19.5 87.0301 19.59 87.0601 19.59C87.0901 19.59 87.1501 19.55 87.2401 19.48C87.3301 19.41 87.4301 19.32 87.5301 19.21C87.6301 19.1 87.7501 18.98 87.8601 18.84C87.9701 18.7 88.0801 18.56 88.1801 18.41H88.4501V23.91L88.1601 23.93L88.1801 23.95Z" fill="white"/>
<path d="M91.3 35.94V35.69C91.71 35.63 92.09 35.52 92.44 35.37C92.79 35.22 93.09 35.01 93.34 34.73C93.42 34.63 93.48 34.49 93.52 34.31C93.56 34.13 93.59 33.92 93.62 33.67C93.65 33.42 93.66 33.17 93.67 32.9C93.67 32.63 93.68 32.36 93.68 32.1C93.68 31.87 93.68 31.56 93.69 31.17C93.69 30.78 93.71 30.35 93.71 29.88C93.71 29.41 93.72 28.93 93.72 28.44V21.34C93.72 21.05 93.71 20.77 93.68 20.52C93.66 20.27 93.62 20.04 93.57 19.83C93.52 19.63 93.45 19.47 93.35 19.35C93.12 19.07 92.84 18.87 92.5 18.75C92.16 18.63 91.78 18.54 91.36 18.49V18.24H98.7V18.49C98.36 18.54 97.99 18.63 97.6 18.76C97.21 18.89 96.9 19.15 96.69 19.55C96.54 19.83 96.47 20.18 96.46 20.61C96.46 21.04 96.44 21.44 96.42 21.81C96.42 22.22 96.42 22.62 96.41 23.03C96.41 23.43 96.4 23.84 96.4 24.25V32.48C96.4 32.96 96.4 33.41 96.42 33.85C96.44 34.29 96.51 34.6 96.64 34.78C96.84 35.06 97.15 35.27 97.57 35.42C98 35.57 98.38 35.66 98.72 35.69V35.94H91.28H91.3Z" fill="white"/>
<path d="M119.77 18.97C119.4 19.2 119.12 19.55 118.92 20.03C118.81 20.28 118.73 20.73 118.7 21.39C118.67 22.05 118.63 22.76 118.6 23.51C118.57 24.21 118.54 25.04 118.51 26C118.49 26.96 118.47 27.98 118.47 29.08V30.65C118.47 31.22 118.47 31.81 118.48 32.41C118.48 33.01 118.49 33.6 118.49 34.19V35.79C118.49 35.86 118.47 35.91 118.43 35.95C118.39 35.99 118.33 36.01 118.25 36.01C118.12 36.01 117.97 35.93 117.81 35.76C116.42 34.16 115.15 32.68 114 31.34C112.85 30 111.76 28.72 110.72 27.5C109.68 26.28 108.66 25.09 107.66 23.93C106.66 22.77 105.61 21.56 104.49 20.32V30.68C104.49 31.51 104.51 32.27 104.55 32.94C104.59 33.61 104.69 34.11 104.86 34.44C105.04 34.82 105.32 35.1 105.71 35.29C106.09 35.48 106.62 35.61 107.29 35.7V35.95H101.25V35.7C101.64 35.65 102.04 35.55 102.43 35.39C102.82 35.23 103.13 34.98 103.36 34.62C103.59 34.28 103.74 33.77 103.8 33.1C103.86 32.43 103.91 31.63 103.95 30.69C103.98 29.99 104.01 29.15 104.02 28.2C104.04 27.24 104.04 26.22 104.04 25.12V22.12C104.04 21.79 104.04 21.39 104.02 20.92C103.97 20.44 103.86 20.06 103.68 19.75C103.5 19.45 103.29 19.21 103.04 19.04C102.79 18.87 102.53 18.75 102.24 18.67C101.95 18.6 101.68 18.54 101.42 18.51V18.26H106.4L118.04 31.86V23.51C118.04 22.86 118.04 22.23 118.02 21.63C118 21.03 117.93 20.56 117.8 20.22C117.64 19.76 117.35 19.39 116.93 19.1C116.51 18.81 115.91 18.61 115.13 18.5V18.25H121.22V18.5C120.61 18.58 120.13 18.74 119.76 18.97H119.77Z" fill="white"/>
<path d="M132.35 35.94V35.69C132.35 35.69 132.52 35.67 132.71 35.64C132.9 35.61 133.09 35.55 133.3 35.47C133.5 35.39 133.68 35.27 133.84 35.13C134 34.99 134.07 34.79 134.07 34.57C134.07 34.42 134.02 34.18 133.94 33.85C133.85 33.51 133.72 33.11 133.56 32.62C133.4 32.14 133.21 31.6 132.99 31.01C132.77 30.42 132.55 29.81 132.3 29.17H125.77C125.52 29.79 125.29 30.39 125.06 30.95C124.83 31.52 124.6 32.08 124.37 32.66C124.03 33.54 123.85 34.17 123.85 34.53C123.85 34.74 123.92 34.92 124.05 35.06C124.18 35.2 124.35 35.31 124.55 35.4C124.75 35.49 124.98 35.56 125.21 35.6C125.45 35.64 125.67 35.68 125.88 35.71V35.96H120.65V35.69C121.08 35.64 121.44 35.53 121.74 35.35C122.04 35.17 122.22 35.05 122.27 34.98C122.38 34.87 122.57 34.6 122.83 34.17C123.09 33.74 123.41 33.11 123.79 32.28C124.13 31.51 124.52 30.63 124.94 29.65C125.37 28.67 125.8 27.66 126.25 26.62C126.7 25.58 127.15 24.53 127.59 23.48C128.03 22.42 128.45 21.44 128.84 20.52L128.59 19.98C128.88 19.85 129.15 19.69 129.39 19.51C129.63 19.33 129.84 19.14 130.02 18.94C130.2 18.74 130.35 18.56 130.47 18.38C130.59 18.2 130.69 18.05 130.75 17.94H130.95C131.46 19.3 131.94 20.59 132.4 21.81C132.86 23.03 133.3 24.2 133.71 25.33C134.13 26.46 134.53 27.55 134.93 28.61C135.33 29.67 135.72 30.71 136.11 31.74C136.29 32.25 136.46 32.67 136.61 33C136.76 33.34 136.94 33.72 137.14 34.14C137.17 34.21 137.25 34.32 137.36 34.48C137.47 34.64 137.63 34.81 137.81 34.98C138 35.15 138.23 35.3 138.51 35.43C138.79 35.56 139.12 35.63 139.49 35.65V35.94H132.32H132.35ZM129.14 21.06C129.04 21.27 128.9 21.61 128.71 22.07C128.52 22.53 128.29 23.09 128.01 23.74C127.73 24.39 127.42 25.14 127.09 25.96C126.75 26.79 126.39 27.68 126 28.65H132.11C131.83 27.91 131.55 27.18 131.26 26.44C130.97 25.7 130.7 25 130.43 24.32C130.16 23.64 129.91 23.02 129.69 22.45C129.47 21.88 129.28 21.42 129.14 21.06Z" fill="white"/>
</g>
<defs>
<clipPath id="clip0_4429_7828">
<rect width="161.64" height="63.64" fill="white"/>
</clipPath>
</defs>
</svg>
