<svg width="938" height="421" viewBox="0 0 938 421" fill="none" xmlns="http://www.w3.org/2000/svg">
<path d="M873.536 334.933C853.997 334.438 819.05 334.933 825.679 261.78C832.337 188.627 787.125 171.349 769.855 180.657C752.585 189.965 703.39 219.226 674.141 219.226C644.891 219.226 640.908 172.687 639.571 146.073C638.233 119.488 632.913 100.872 606.6 90.0522C580.287 79.232 534.553 147.411 507.949 151.396C481.375 155.381 457.446 135.427 448.142 84.9039C438.838 34.3804 401.622 39.7033 384.323 47.673C367.053 55.6427 323.179 119.488 285.963 118.15C248.747 116.812 234.122 55.6427 211.531 26.3816C188.969 -2.82141 114.538 -21.4369 90.6092 46.3932C66.6807 114.223 56.0393 107.562 25.4816 108.9C14.4041 109.395 5.47818 108.115 -1.4707 106.312V378.33C-1.4707 401.919 17.6314 421.029 41.2111 421.029H930.086C931.191 418.673 932.092 416.201 932.848 413.554C954.887 333.915 893.103 335.456 873.594 334.962L873.536 334.933Z" fill="black"/>
</svg>
