<svg width="1440" height="495" viewBox="0 0 1440 495" fill="none" xmlns="http://www.w3.org/2000/svg">
<mask id="mask0_3579_12552" style="mask-type:alpha" maskUnits="userSpaceOnUse" x="0" y="0" width="1440" height="495">
<rect width="1440" height="495" fill="#D9D9D9"/>
</mask>
<g mask="url(#mask0_3579_12552)">
<path d="M1441.01 0.310059C1510.32 -5.34606 1528 68.1841 1528 68.1841V432.472C1527.98 432.571 1515.7 494.69 1450.55 494.69C1385.35 494.69 1392.79 432.472 1346.59 432.472C1300.39 432.473 1284.99 494.69 1246.48 494.69C1207.98 494.69 1192.58 438.128 1142.53 432.472C1092.47 426.816 1080.92 494.69 1034.72 494.69C988.514 494.69 984.664 432.472 930.76 432.472C876.856 432.472 892.256 494.69 834.502 494.69C776.748 494.69 780.598 432.472 726.694 432.472C672.79 432.472 665.09 494.69 626.587 494.69C588.084 494.69 568.833 432.473 518.779 432.472C468.726 432.472 461.025 494.69 414.821 494.69C368.618 494.69 364.767 426.816 314.713 426.816C264.659 426.816 256.958 494.69 210.755 494.69C164.552 494.69 153.001 426.816 102.947 426.816C52.8935 426.816 68.2944 489.034 -1.01074 494.69C-70.2727 500.343 -87.9779 426.908 -88 426.816V62.5278C-88 62.5278 -75.7529 0.310307 -10.5498 0.310059C54.6538 0.310064 47.2056 62.5278 93.4092 62.5278C139.612 62.5275 155.014 0.310055 193.517 0.310059C232.019 0.310388 247.421 56.8717 297.475 62.5278C347.528 68.1836 359.079 0.310087 405.282 0.310059C451.486 0.310063 455.336 62.5278 509.24 62.5278C563.144 62.5278 547.744 0.310054 605.498 0.310059C663.252 0.31039 659.402 62.5278 713.306 62.5278C767.21 62.5278 774.91 0.310354 813.413 0.310059C851.916 0.310062 871.167 62.5275 921.221 62.5278C971.274 62.5278 978.975 0.310331 1025.18 0.310059C1071.38 0.310063 1075.23 68.1841 1125.29 68.1841C1175.34 68.1837 1183.04 0.310055 1229.25 0.310059C1275.45 0.310239 1287 68.1837 1337.05 68.1841C1387.11 68.1841 1371.71 5.96633 1441.01 0.310059Z" fill="black"/>
<path d="M1441.01 0.310059C1510.32 -5.34606 1528 68.1841 1528 68.1841V432.472C1527.98 432.571 1515.7 494.69 1450.55 494.69C1385.35 494.69 1392.79 432.472 1346.59 432.472C1300.39 432.473 1284.99 494.69 1246.48 494.69C1207.98 494.69 1192.58 438.128 1142.53 432.472C1092.47 426.816 1080.92 494.69 1034.72 494.69C988.514 494.69 984.664 432.472 930.76 432.472C876.856 432.472 892.256 494.69 834.502 494.69C776.748 494.69 780.598 432.472 726.694 432.472C672.79 432.472 665.09 494.69 626.587 494.69C588.084 494.69 568.833 432.473 518.779 432.472C468.726 432.472 461.025 494.69 414.821 494.69C368.618 494.69 364.767 426.816 314.713 426.816C264.659 426.816 256.958 494.69 210.755 494.69C164.552 494.69 153.001 426.816 102.947 426.816C52.8935 426.816 68.2944 489.034 -1.01074 494.69C-70.2727 500.343 -87.9779 426.908 -88 426.816V62.5278C-88 62.5278 -75.7529 0.310307 -10.5498 0.310059C54.6538 0.310064 47.2056 62.5278 93.4092 62.5278C139.612 62.5275 155.014 0.310055 193.517 0.310059C232.019 0.310388 247.421 56.8717 297.475 62.5278C347.528 68.1836 359.079 0.310087 405.282 0.310059C451.486 0.310063 455.336 62.5278 509.24 62.5278C563.144 62.5278 547.744 0.310054 605.498 0.310059C663.252 0.31039 659.402 62.5278 713.306 62.5278C767.21 62.5278 774.91 0.310354 813.413 0.310059C851.916 0.310062 871.167 62.5275 921.221 62.5278C971.274 62.5278 978.975 0.310331 1025.18 0.310059C1071.38 0.310063 1075.23 68.1841 1125.29 68.1841C1175.34 68.1837 1183.04 0.310055 1229.25 0.310059C1275.45 0.310239 1287 68.1837 1337.05 68.1841C1387.11 68.1841 1371.71 5.96633 1441.01 0.310059Z" fill="black" fill-opacity="0.2"/>
<path d="M1441.01 0.310059C1510.32 -5.34606 1528 68.1841 1528 68.1841V432.472C1527.98 432.571 1515.7 494.69 1450.55 494.69C1385.35 494.69 1392.79 432.472 1346.59 432.472C1300.39 432.473 1284.99 494.69 1246.48 494.69C1207.98 494.69 1192.58 438.128 1142.53 432.472C1092.47 426.816 1080.92 494.69 1034.72 494.69C988.514 494.69 984.664 432.472 930.76 432.472C876.856 432.472 892.256 494.69 834.502 494.69C776.748 494.69 780.598 432.472 726.694 432.472C672.79 432.472 665.09 494.69 626.587 494.69C588.084 494.69 568.833 432.473 518.779 432.472C468.726 432.472 461.025 494.69 414.821 494.69C368.618 494.69 364.767 426.816 314.713 426.816C264.659 426.816 256.958 494.69 210.755 494.69C164.552 494.69 153.001 426.816 102.947 426.816C52.8935 426.816 68.2944 489.034 -1.01074 494.69C-70.2727 500.343 -87.9779 426.908 -88 426.816V62.5278C-88 62.5278 -75.7529 0.310307 -10.5498 0.310059C54.6538 0.310064 47.2056 62.5278 93.4092 62.5278C139.612 62.5275 155.014 0.310055 193.517 0.310059C232.019 0.310388 247.421 56.8717 297.475 62.5278C347.528 68.1836 359.079 0.310087 405.282 0.310059C451.486 0.310063 455.336 62.5278 509.24 62.5278C563.144 62.5278 547.744 0.310054 605.498 0.310059C663.252 0.31039 659.402 62.5278 713.306 62.5278C767.21 62.5278 774.91 0.310354 813.413 0.310059C851.916 0.310062 871.167 62.5275 921.221 62.5278C971.274 62.5278 978.975 0.310331 1025.18 0.310059C1071.38 0.310063 1075.23 68.1841 1125.29 68.1841C1175.34 68.1837 1183.04 0.310055 1229.25 0.310059C1275.45 0.310239 1287 68.1837 1337.05 68.1841C1387.11 68.1841 1371.71 5.96633 1441.01 0.310059Z" fill="black" fill-opacity="0.2"/>
<path d="M1441.01 0.310059C1510.32 -5.34606 1528 68.1841 1528 68.1841V432.472C1527.98 432.571 1515.7 494.69 1450.55 494.69C1385.35 494.69 1392.79 432.472 1346.59 432.472C1300.39 432.473 1284.99 494.69 1246.48 494.69C1207.98 494.69 1192.58 438.128 1142.53 432.472C1092.47 426.816 1080.92 494.69 1034.72 494.69C988.514 494.69 984.664 432.472 930.76 432.472C876.856 432.472 892.256 494.69 834.502 494.69C776.748 494.69 780.598 432.472 726.694 432.472C672.79 432.472 665.09 494.69 626.587 494.69C588.084 494.69 568.833 432.473 518.779 432.472C468.726 432.472 461.025 494.69 414.821 494.69C368.618 494.69 364.767 426.816 314.713 426.816C264.659 426.816 256.958 494.69 210.755 494.69C164.552 494.69 153.001 426.816 102.947 426.816C52.8935 426.816 68.2944 489.034 -1.01074 494.69C-70.2727 500.343 -87.9779 426.908 -88 426.816V62.5278C-88 62.5278 -75.7529 0.310307 -10.5498 0.310059C54.6538 0.310064 47.2056 62.5278 93.4092 62.5278C139.612 62.5275 155.014 0.310055 193.517 0.310059C232.019 0.310388 247.421 56.8717 297.475 62.5278C347.528 68.1836 359.079 0.310087 405.282 0.310059C451.486 0.310063 455.336 62.5278 509.24 62.5278C563.144 62.5278 547.744 0.310054 605.498 0.310059C663.252 0.31039 659.402 62.5278 713.306 62.5278C767.21 62.5278 774.91 0.310354 813.413 0.310059C851.916 0.310062 871.167 62.5275 921.221 62.5278C971.274 62.5278 978.975 0.310331 1025.18 0.310059C1071.38 0.310063 1075.23 68.1841 1125.29 68.1841C1175.34 68.1837 1183.04 0.310055 1229.25 0.310059C1275.45 0.310239 1287 68.1837 1337.05 68.1841C1387.11 68.1841 1371.71 5.96633 1441.01 0.310059Z" fill="black" fill-opacity="0.2"/>
<path d="M1441.01 0.310059C1510.32 -5.34606 1528 68.1841 1528 68.1841V432.472C1527.98 432.571 1515.7 494.69 1450.55 494.69C1385.35 494.69 1392.79 432.472 1346.59 432.472C1300.39 432.473 1284.99 494.69 1246.48 494.69C1207.98 494.69 1192.58 438.128 1142.53 432.472C1092.47 426.816 1080.92 494.69 1034.72 494.69C988.514 494.69 984.664 432.472 930.76 432.472C876.856 432.472 892.256 494.69 834.502 494.69C776.748 494.69 780.598 432.472 726.694 432.472C672.79 432.472 665.09 494.69 626.587 494.69C588.084 494.69 568.833 432.473 518.779 432.472C468.726 432.472 461.025 494.69 414.821 494.69C368.618 494.69 364.767 426.816 314.713 426.816C264.659 426.816 256.958 494.69 210.755 494.69C164.552 494.69 153.001 426.816 102.947 426.816C52.8935 426.816 68.2944 489.034 -1.01074 494.69C-70.2727 500.343 -87.9779 426.908 -88 426.816V62.5278C-88 62.5278 -75.7529 0.310307 -10.5498 0.310059C54.6538 0.310064 47.2056 62.5278 93.4092 62.5278C139.612 62.5275 155.014 0.310055 193.517 0.310059C232.019 0.310388 247.421 56.8717 297.475 62.5278C347.528 68.1836 359.079 0.310087 405.282 0.310059C451.486 0.310063 455.336 62.5278 509.24 62.5278C563.144 62.5278 547.744 0.310054 605.498 0.310059C663.252 0.31039 659.402 62.5278 713.306 62.5278C767.21 62.5278 774.91 0.310354 813.413 0.310059C851.916 0.310062 871.167 62.5275 921.221 62.5278C971.274 62.5278 978.975 0.310331 1025.18 0.310059C1071.38 0.310063 1075.23 68.1841 1125.29 68.1841C1175.34 68.1837 1183.04 0.310055 1229.25 0.310059C1275.45 0.310239 1287 68.1837 1337.05 68.1841C1387.11 68.1841 1371.71 5.96633 1441.01 0.310059Z" fill="black" fill-opacity="0.2"/>
<path d="M1441.01 0.310059C1510.32 -5.34606 1528 68.1841 1528 68.1841V432.472C1527.98 432.571 1515.7 494.69 1450.55 494.69C1385.35 494.69 1392.79 432.472 1346.59 432.472C1300.39 432.473 1284.99 494.69 1246.48 494.69C1207.98 494.69 1192.58 438.128 1142.53 432.472C1092.47 426.816 1080.92 494.69 1034.72 494.69C988.514 494.69 984.664 432.472 930.76 432.472C876.856 432.472 892.256 494.69 834.502 494.69C776.748 494.69 780.598 432.472 726.694 432.472C672.79 432.472 665.09 494.69 626.587 494.69C588.084 494.69 568.833 432.473 518.779 432.472C468.726 432.472 461.025 494.69 414.821 494.69C368.618 494.69 364.767 426.816 314.713 426.816C264.659 426.816 256.958 494.69 210.755 494.69C164.552 494.69 153.001 426.816 102.947 426.816C52.8935 426.816 68.2944 489.034 -1.01074 494.69C-70.2727 500.343 -87.9779 426.908 -88 426.816V62.5278C-88 62.5278 -75.7529 0.310307 -10.5498 0.310059C54.6538 0.310064 47.2056 62.5278 93.4092 62.5278C139.612 62.5275 155.014 0.310055 193.517 0.310059C232.019 0.310388 247.421 56.8717 297.475 62.5278C347.528 68.1836 359.079 0.310087 405.282 0.310059C451.486 0.310063 455.336 62.5278 509.24 62.5278C563.144 62.5278 547.744 0.310054 605.498 0.310059C663.252 0.31039 659.402 62.5278 713.306 62.5278C767.21 62.5278 774.91 0.310354 813.413 0.310059C851.916 0.310062 871.167 62.5275 921.221 62.5278C971.274 62.5278 978.975 0.310331 1025.18 0.310059C1071.38 0.310063 1075.23 68.1841 1125.29 68.1841C1175.34 68.1837 1183.04 0.310055 1229.25 0.310059C1275.45 0.310239 1287 68.1837 1337.05 68.1841C1387.11 68.1841 1371.71 5.96633 1441.01 0.310059Z" fill="black" fill-opacity="0.2"/>
</g>
</svg>
