<svg width="1440" height="79" viewBox="0 0 1440 79" fill="none" xmlns="http://www.w3.org/2000/svg">
<path opacity="0.9" d="M-93.8992 32.7747C-73.1076 60.2517 -48.9709 73.8139 -19.7572 71.1821C-12.672 70.6416 -5.48962 69.4559 1.64668 67.0141C17.3819 62.0456 29.9127 49.4455 39.8128 33.7807C48.8745 18.5333 65.1051 -0.375505 87.065 1.28344C140.731 1.76704 152.756 71.8609 197.571 71.3285C214.202 71.6958 227.478 60.5013 237.592 48.6867C254.42 29.1953 272.666 0.47713 304.13 1.24145C354.98 1.00449 361.194 66.6362 402.124 71.1637C404.047 71.372 405.504 71.4335 406.742 71.4557C407.589 71.4688 408.283 71.4598 408.892 71.4332C423.774 72.428 443.109 56.1836 452.384 44.7301C464.282 31.32 485.003 5.89691 513.302 7.19787C530.517 6.99802 545.242 15.0578 554.295 21.8702C564.356 29.3134 573.069 38.4159 576.351 41.8057C579.502 44.9446 581.312 46.535 582.147 47.3426C582.156 47.352 582.165 47.3613 582.174 47.3707C584.815 49.9976 591.558 56.4236 593.141 57.6703C593.375 57.8509 592.004 56.6238 595.773 59.7545C596.118 60.0134 595.74 59.8966 599.028 62.3411C599.752 63.2613 611.541 70.0651 615.36 70.4289C617.62 71.0117 620.477 71.5141 623.807 71.5152C639.291 73.0597 655.715 54.1077 663.886 44.1553C665.489 42.2696 666.386 41.1465 668.103 39.1614C668.992 38.1327 670.381 36.6278 670.661 36.3166C671.84 34.9111 677.292 28.9158 675.573 31.2964C681.515 25.2699 679.747 27.0037 679.793 26.7822C686.579 20.4606 690.646 18.2742 692.574 16.7815C702.593 10.4303 714.577 7.17459 726.42 7.26497C765.302 4.80494 780.194 46.7595 805.669 63.1067C805.697 63.0857 805.725 63.0646 805.753 63.0435C816.363 69.4758 820.995 69.6661 827.899 71.0236C830.874 71.3786 833.818 71.5254 836.926 71.4983C838.397 71.4849 839.816 71.4303 841.184 71.3373C885.606 74.7688 884.691 3.53785 935.592 7.24557C987.418 4.15358 998.103 72.3637 1042.15 71.4626C1077.33 71.3876 1091.28 30.5946 1122.52 13.0384C1127.16 10.7409 1128.29 9.88608 1136.69 7.89181C1141.3 6.93129 1147.02 6.54143 1152.99 7.22038C1159.01 7.87151 1165.34 9.39512 1171.13 11.6866C1181.38 15.3962 1194.32 24.8648 1202.74 32.9786C1204.67 34.7824 1206.07 36.0828 1206.28 36.287C1207.53 37.5032 1207.55 37.6179 1208.75 38.8022C1210.19 40.2221 1211.94 41.9014 1213.58 43.5535C1219.63 49.7531 1226.42 56.0885 1227.25 56.7434C1231.13 60.1392 1232.02 60.7907 1232.35 61.0717C1236.88 64.4627 1235.25 63.1091 1236.39 63.9224C1242.44 67.7671 1247.02 70.6435 1256.64 71.4433C1256.38 71.4822 1256.11 71.5182 1255.85 71.5515C1257.5 71.7085 1258.57 71.7081 1259.22 71.7029C1261.37 71.6461 1258.71 71.5909 1259.88 71.5515C1260.19 71.5479 1264.3 71.4764 1268.32 70.2687C1272.36 69.1504 1276.17 67.0057 1276.71 66.6983C1280.45 64.5084 1280.54 64.3595 1280.87 64.1752C1281.72 63.8264 1290.31 56.6578 1294.35 52.3593C1299.23 47.4416 1293.67 53.4076 1294.89 52.1902C1295.1 52.0169 1300.1 46.7042 1300.8 45.9987C1301.58 45.2421 1297.26 49.868 1297.34 49.7992C1297.41 49.7948 1304.63 42.1349 1303.31 43.6626C1302.28 44.9539 1292.49 55.2616 1290.25 57.1922C1289.9 57.5306 1290.63 56.9655 1290.32 57.2643C1289.67 57.8193 1283.53 63.9281 1276.19 67.8499C1268.92 72.0273 1260.59 72.3828 1259.91 72.3132C1261.54 72.2387 1263.13 72.05 1264.72 71.7432C1262.89 72.044 1261.09 72.1896 1259.22 72.187C1258.9 72.1864 1258.59 72.182 1258.29 72.1737C1258.59 72.1781 1258.9 72.1787 1259.22 72.1754C1261.99 72.1456 1264.69 71.7792 1267.34 71.0811C1265.57 71.402 1262.48 71.9448 1259.22 71.9527C1254.18 72.0715 1249.13 70.7633 1248.78 70.7498C1248.48 70.8574 1256.7 72.9216 1249 71.2231C1250.14 71.5711 1251.31 71.8661 1252.49 72.1042C1254.7 72.4803 1256.94 72.6536 1259.22 72.624C1259.45 72.621 1259.67 72.6157 1259.9 72.6082C1259.67 72.6099 1259.44 72.6094 1259.22 72.6065C1257.76 72.5879 1256.38 72.4915 1254.96 72.3108C1255.57 72.3576 1256.17 72.3876 1256.77 72.4035C1257.57 72.4495 1258.39 72.4698 1259.22 72.4632C1263.01 72.4361 1266.75 71.7574 1270.31 70.4925C1272.53 69.7046 1272.09 69.9248 1273.59 69.2907C1282.78 64.7954 1283.84 62.8737 1284.61 62.4611C1285.28 61.842 1285.38 61.9553 1290.45 57.331C1291.9 56.0167 1293.33 54.6647 1294.75 53.2796C1294.17 53.6651 1298.51 49.3834 1303.51 43.7985C1302.94 44.4907 1302.37 45.1841 1301.8 45.8726C1308.82 37.6685 1325.09 22.4367 1320.59 26.4169C1322.48 24.7403 1324.42 23.1227 1326.43 21.5843C1328.1 20.2331 1329.81 18.9413 1331.59 17.7173C1334.07 16.0877 1336.68 14.602 1339.39 13.3259C1339.41 13.3419 1339.43 13.3579 1339.46 13.374C1337.3 14.3932 1335.21 15.5439 1333.19 16.7961C1334.74 15.9196 1336.33 15.1016 1337.95 14.3582C1339.51 13.5517 1341.11 12.8098 1342.73 12.1498C1335.93 15.0128 1344.78 10.9253 1347.1 10.3356C1353.1 8.53788 1357.23 8.48123 1359.26 8.36394C1359.52 8.35237 1360.54 8.28719 1361.83 8.26949C1365.36 8.15137 1370.66 8.84616 1367.32 8.6123C1373.26 9.1966 1379.1 10.8846 1384.48 13.4254C1386.57 14.4433 1388.6 15.5827 1390.56 16.8153C1386.26 14.2536 1398.43 22.1304 1389.39 16.4557C1382.44 12.5284 1380.46 11.9716 1376.87 10.7578C1373.56 9.78453 1371.74 9.44875 1368.06 8.96874C1365.92 8.71489 1363.93 8.60345 1361.83 8.60283C1338.76 8.64175 1323.16 23.2965 1308.94 38.4918C1305.8 41.8497 1303.02 44.9656 1300.94 47.2033C1298.57 49.7395 1301.46 46.5095 1298.47 49.7362C1295.3 53.1138 1294.63 53.8444 1293.78 54.7102C1293.25 55.2382 1291.48 56.89 1289.87 58.3597C1283.47 64.8872 1271.84 70.9528 1270.52 70.9601C1269.95 71.1598 1264.97 72.9309 1259.22 72.8575C1251.88 73.0342 1244.31 69.8006 1243.75 69.4916C1243.18 69.1814 1244.42 69.707 1239.42 67.3301C1237.91 66.4873 1236.44 65.5625 1235 64.5833C1235.26 64.7028 1235.52 64.8202 1235.78 64.9353C1227.3 59.0275 1230.21 61.091 1222.72 54.3716C1206.38 38.5117 1181.34 10.1507 1152.84 8.54311C1151.96 8.44413 1151.11 8.36748 1150.27 8.31136C1144.17 8.06094 1141.77 8.12379 1134.69 9.74522C1127.73 10.6808 1113.06 20.5324 1116.42 18.6425C1104.55 27.5316 1103.7 30.064 1098.41 35.1125C1097.83 35.7841 1097.25 36.4549 1096.68 37.1277C1091.22 42.8662 1089.76 44.8398 1083.84 51.0431C1081.25 53.6689 1084.19 50.6088 1078.97 55.8964C1077.93 56.8574 1076.88 57.8027 1075.8 58.7219C1076.03 58.479 1076.25 58.2348 1076.47 57.9892C1070.28 63.3764 1069.65 63.391 1070.53 63.0111C1067.34 65.322 1063.95 67.3633 1060.39 68.9504C1059.97 69.1911 1059.54 69.4256 1059.11 69.6538C1065.82 77.1956 1122.41 -1.40085 1143.49 8.45256C1146.15 8.29838 1149.31 8.3338 1152.81 8.74014C1169.32 9.762 1188.99 22.3043 1196.21 29.1135C1199.89 32.303 1201.43 33.8164 1206.48 38.7374C1211.5 43.6805 1217.73 49.9244 1220.42 52.4776C1224.75 56.7854 1238.1 69.0661 1248.95 71.5869C1254.22 73.0869 1258.12 72.9887 1258.2 73.0442C1258.32 72.8747 1254.38 73.7782 1245.2 70.442C1246.22 70.8964 1247.27 71.3103 1248.33 71.6798C1254.38 73.3286 1257.22 73.1212 1259.22 73.186C1262.14 73.0133 1263.32 73.541 1270.65 71.2849C1276.01 69.9627 1286.45 61.9816 1285.9 62.5033C1278.18 69.0552 1268 73.578 1259.22 73.3267C1259.15 73.3268 1259.08 73.3266 1259.01 73.3262C1258.12 73.6074 1247.72 72.4516 1242.93 69.7737C1238.66 67.5173 1241.45 69.3569 1232.59 63.5638C1226.43 58.628 1223.08 55.4773 1221.51 54.0811C1218.86 51.5938 1218.67 51.234 1216.09 48.6591C1213.29 45.8424 1211.32 43.9579 1210.93 43.5723C1207.45 39.3703 1185.84 20.6486 1184.21 20.5884C1185.19 21.1955 1186.15 21.8191 1187.11 22.463C1180.95 18.2778 1182.11 19.3499 1180.43 18.3373C1179.17 17.6092 1177.88 16.9173 1176.58 16.2611C1177.11 16.4995 1177.63 16.7434 1178.15 16.9926C1170.2 13.214 1176.45 15.6334 1164.65 11.5391C1160.41 10.2746 1156.06 9.46938 1152.77 9.08134C1150.08 8.75641 1148.29 8.72104 1147.95 8.71076C1147.71 8.70899 1150.23 8.82726 1146.96 8.76899C1141.52 8.47506 1132.37 10.757 1131.42 11.1741C1128.92 12.0587 1129.18 12.1058 1128.85 12.2263C1128.15 12.4711 1121.64 15.2308 1115.8 19.699C1109.9 24.0576 1104.52 29.5876 1102.89 31.2436C1093.85 40.446 1084.96 51.7737 1074.36 60.6118C1073.26 61.5122 1073.93 60.9026 1072.82 61.7872C1071.2 63.4338 1061.29 69.581 1059.55 69.9585C1055.67 72.0913 1044.38 73.8061 1042.55 73.4994C1042.3 73.5138 1045.78 73.5064 1042.15 73.5964C1041.99 73.5974 1041.82 73.5977 1041.64 73.5968C1036.73 73.4594 1039.39 73.4295 1039.12 73.4342C1029.23 72.6789 1023.34 69.9202 1017.61 66.3872C1015.75 65.2299 1012.53 62.7479 1010.19 60.691C1009.92 60.4571 1010.41 60.9753 1010.14 60.7463C1006.57 57.6665 1003.65 54.3365 1002.26 52.8301C998.901 49.1123 1000.67 51.1858 1000.49 50.9975C998.257 48.5215 995.355 45.0687 992.025 41.1986C977.696 24.1778 961.797 9.50181 936.762 9.31382C936.381 9.30745 935.989 9.30308 935.592 9.3013C932.694 9.2778 930.007 9.463 929.517 9.51253C928.034 9.68812 928.505 9.59393 924.321 10.3241C915.626 11.9463 907.912 16.0464 901.695 22.2479C900.439 23.496 899.879 24.0066 898.979 25.0096C895.698 28.2283 887.563 41.1871 887.268 41.2669C882.654 48.8094 879.238 53.5867 874.42 58.6926C866.909 67.522 851.375 74.0689 836.926 73.5106C830.467 73.5267 824.413 72.677 819.464 71.2939C816.14 70.353 814.62 69.6708 812.831 68.9355C809.138 68.4213 793.217 56.3447 792.876 55.1189C791.477 53.6037 792.335 54.5218 785.188 46.6776C781.146 41.9321 781.723 42.4024 780.897 41.4104C774.617 33.5265 767.562 26.5232 768.984 27.7309C760.651 19.2223 753.577 15.5564 749.205 13.4339C749.23 13.5747 744.061 11.2026 737.365 10.0297C743.979 11.6302 744.102 9.67489 758.47 18.4856C758.687 18.637 758.231 18.4086 758.448 18.5598C760.435 19.902 764.372 23.0053 767.258 25.867C770.141 28.7295 768.501 27.1772 769.638 28.3358C770.663 29.4101 770.687 29.3241 772.133 30.9063C776.796 36.0738 780.606 40.8514 783.133 43.8376C784.714 45.7299 786.458 47.8597 787.726 49.2819C792.406 54.9662 804.074 65.5062 812.881 68.6544C814.702 69.3758 813.817 69.2136 817.87 70.5469C818.318 70.6714 820.068 71.2056 823.662 71.915C827.331 72.6153 830.146 72.8973 832.533 73.0345C834.345 73.1134 833.754 73.07 836.926 73.0874C837.199 73.0864 837.498 73.0844 837.825 73.0803C839.502 73.0444 850.241 73.0749 859.602 68.8348C869.11 64.8391 875.732 56.7238 876.389 56.0025C878.346 53.7219 879.267 52.615 880.357 51.1253C880.547 50.8611 880.804 50.3681 881.449 49.4442C886.1 43.1383 891.511 32.2548 900.584 22.6893C909.551 12.7699 924.184 8.5272 935.592 8.88072C939.894 8.88484 943.715 9.27185 947.091 9.87807C990.851 16.737 998.951 73.1259 1042.15 73.0863C1046.54 73.0864 1050.89 72.4517 1055.11 71.1426C1055.85 70.8958 1056.59 70.6301 1057.32 70.3462C1053.14 71.8889 1048.77 72.7734 1044.34 72.9809C1044.31 72.9418 1044.28 72.9027 1044.25 72.8636C1043.44 72.8998 1042.74 72.9115 1042.15 72.9142C1038.36 72.8712 1039.03 72.8874 1039.16 72.9686C1036.96 72.8103 1034.76 72.4974 1032.58 72.007C1030.53 72.3133 1016.68 66.5388 1011.16 60.8749C1007.32 57.6274 1003.16 53.2323 1001.38 51.2438C997.606 47.0173 997.796 47.0305 997.5 46.7024C996.991 46.146 991.811 40.1151 987.958 35.8064C982.135 29.5692 981.86 28.4706 972.579 21.1453C962.808 13.397 949.166 8.50516 935.592 8.7383C932.567 8.74323 929.726 8.92364 926.83 9.33141C929.989 8.59912 915.113 11.0923 909.609 15.2938C895.868 23.4392 888.848 39.506 879.019 52.4833C869.542 66.1328 853.203 73.4765 836.926 72.9224C826.66 72.9483 816.842 70.784 808.58 66.3116C804.165 63.9377 801.178 61.5518 798.999 59.7908C797.825 58.823 797.26 58.4648 795.696 57.0269C795.432 56.7614 795.252 56.5816 792.463 53.7706C785.475 46.9033 770.137 26.9808 764.835 23.0192C754.582 13.5166 740.393 8.23243 726.42 8.50637C704.865 7.82125 685.417 20.8166 672.171 36.4745C671.568 37.0975 670.97 37.7208 670.374 38.3495C666.006 43.133 650.296 64.082 639.014 69.0438C634.558 71.378 629.324 72.825 623.807 72.8068C605.511 72.9999 590.595 57.2491 580.3 47.3514C577.323 44.4128 574.913 41.9277 572.065 39.1454C570.834 37.9422 569.258 36.5061 567.954 35.2748C555.301 22.6241 533.822 7.62478 513.302 8.56078C511.158 8.56174 509.236 8.66072 507.235 8.86327C460.769 13.3592 451.333 72.8077 406.742 72.8192C402.803 72.8188 398.969 72.3201 395.21 71.2316C358.239 59.3235 350.295 2.03187 304.13 2.7333C252.503 2.35483 244.726 72.2052 197.571 72.8728C149.705 71.7305 139.048 2.72122 87.065 2.78628C55.595 0.463957 44.6656 34.7244 27.3093 52.4836C25.8907 53.9295 25.8911 53.8179 24.7607 54.8896C18.5526 62.0082 -0.729324 70.9574 -11.2992 71.8573C-13.8789 72.2775 -16.5312 72.6021 -19.6203 72.847C-26.7065 73.4676 -33.8805 72.8988 -35.9176 72.7164C-30.4959 73.3301 -25.203 73.3746 -19.6127 72.9398C5.88835 72.1666 29.0068 56.3555 41.8377 33.7953C43.0865 31.9306 43.3018 31.7304 43.4558 31.5025C46.3595 27.2699 44.373 29.8684 48.731 23.7756C49.4779 22.7738 53.3168 17.5703 57.708 13.6825C62.0364 9.70857 66.8113 7.44059 65.4933 7.99056C67.6419 6.68138 76.6307 2.76636 87.065 3.03937C99.823 2.6338 112.663 9.20051 116.008 11.5232C117.959 12.7536 116.616 11.8238 117.004 12.0674C118.674 13.1437 119.363 13.74 120.784 14.7908C124.715 17.4639 133.366 25.7492 134.842 27.4541C138.525 31.1653 148.538 43.054 153.134 48.0369C157.376 52.5991 156.633 51.6985 160.445 55.4652C163.537 58.3103 159.979 55.4448 167.13 61.5149C170.425 64.9646 184.943 72.2571 189.024 72.2597C191.565 72.7595 194.334 73.1054 197.571 73.1231C199.197 73.1291 200.81 73.0565 202.594 72.8539C210.601 72.8711 225.641 64.2116 231.013 58.1701C231.359 57.8406 232.152 56.9796 232.978 56.149C234.688 54.4128 234.249 54.9848 235.517 53.6564C237.122 52.688 257.134 27.2679 261.38 23.5189C264.04 20.7695 265.963 18.9381 267.562 17.5396C268.821 16.4536 269.01 16.3888 270.336 15.3231C270.743 14.9982 274.224 12.1277 278.155 9.8897C281.577 7.05957 297.329 2.75824 299.332 3.23247C300.535 3.15181 299.176 3.12924 302.795 2.99149C303.258 2.98081 303.703 2.97754 304.13 2.97992C306.793 3.00253 308.48 3.19383 310.154 3.37538C314.433 3.83617 319.299 4.97493 323.548 6.78855C335.529 12.5999 334.24 13.3776 335.022 13.6132C336.763 14.9593 337.466 15.4833 338.02 15.9483C340.402 17.8604 345.598 23.1876 347.323 25.253C349.521 27.7801 350.364 28.9259 352.575 31.6999C354.225 33.762 357.507 37.9661 361.134 42.7278C369.194 53.3933 379.798 66.0748 392.125 70.4568C395.736 71.7652 396.31 71.8352 397.455 72.1304C401.683 73.0664 404.676 73.0879 406.742 73.0829C407.622 73.0737 408.304 73.046 408.831 73.0245C422.065 74.0081 441.421 60.2732 448.985 51.047C452.483 47.7024 465.994 30.9499 475.629 23.226C476.714 22.3362 475.728 23.2048 476.937 22.2192C479.867 19.9041 479.559 20.0604 481.112 18.9651C481.868 18.4492 483.639 17.3128 485.968 16.0043C497.388 9.61936 507.056 8.92893 513.302 8.87483C513.746 8.87466 514.175 8.87938 514.588 8.88812C563.48 9.00606 580.621 69.3308 623.807 73.1951C639.425 73.4923 651.163 61.4675 660.654 50.44C664.719 45.7917 669.481 39.7067 676.022 32.8872C676.247 32.6994 676.472 32.5121 676.697 32.3263C676.904 32.0664 677.111 31.8069 677.319 31.548C684.937 24.0503 688.017 21.1575 697.662 15.7999C698.513 15.3428 701.164 14.2234 702.782 13.3796C713.141 9.86798 707.423 11.5427 715.33 9.78842C719.029 9.15594 722.684 8.88054 726.42 8.88788C730.798 8.90327 734.91 9.28755 739.141 10.1706C742.582 10.885 731.451 8.7597 726.42 9.12346C725.233 9.13298 724.412 9.1666 724.19 9.17295C722.306 9.23062 720.34 9.28259 718.512 9.49391C713.121 10.0703 708.095 11.6799 706.935 11.9881C700.338 14.4001 708.567 11.4387 707.774 11.8507C703.286 13.2008 698.99 15.0963 694.953 17.4375C692.366 18.0197 673.229 35.1095 674.976 34.3184C673.564 35.772 672.172 37.2586 670.806 38.7508C665.116 45.5678 661.903 49.7098 653.773 58.1378C654.383 57.561 654.992 56.9723 655.599 56.3731C655.515 56.6583 648.124 63.825 650.698 61.1794C642.835 68.1516 643.007 67.8584 634.547 71.6533C629.468 73.0513 632.249 72.8252 623.807 73.3302C623.433 73.3298 623.039 73.3238 622.624 73.3099C616.752 73.2148 609.623 71.0309 603.901 67.6386C602.589 66.876 602.066 66.4594 600.917 65.7116C599.788 64.9642 599.203 64.6538 597.852 63.6756C595.095 61.6905 591.705 58.7473 590.12 57.3356C588.669 56.0538 586.586 54.2594 583.236 51.0325C571.603 39.6445 575.186 42.9991 573.37 41.176C571.415 39.2163 569.929 37.8821 565.892 34.0929C565.485 33.7143 566.593 34.6347 565.263 33.411C564.18 32.4352 563.618 31.9638 559.94 28.8285C559.198 28.2284 553.18 22.9661 546.019 18.6941C538.929 14.2828 530.561 11.6144 528.337 11.1233C524.897 10.1992 519.127 9.16039 513.302 9.18102C507.654 9.1255 502.046 10.0829 498.6 11.0552C495.88 11.7927 493.068 12.8746 490.353 14.1257C481.097 17.9555 469.214 28.7088 461.111 38.011C453.784 46.4282 440.46 60.5799 435.331 63.7898C422.592 72.5201 418.074 71.6331 417.159 72.2119C414.096 72.8571 412.672 73.1748 408.776 73.3855C408.109 73.413 407.432 73.4275 406.742 73.428C362.422 75.4453 353.889 1.66123 304.13 3.32381C290.352 3.11212 277.822 9.15397 268.92 16.8631C245.081 36.6617 231.459 73.3993 197.571 73.4422C149.125 72.1203 138.55 3.16116 87.065 3.35566C41.8289 1.98275 40.4702 62.2459 0.485458 69.6842C0.206024 69.8071 -0.075882 69.9288 -0.360245 70.0493C12.6427 66.5232 25.8168 56.9023 33.7359 46.2298C44.1322 32.4164 58.2033 7.48887 73.0704 5.55613C67.7539 6.86271 60.432 11.9259 60.7245 12.0088C68.1477 6.11939 77.6671 3.62942 87.065 3.71398C87.306 3.71418 87.5461 3.71592 87.7854 3.71917C87.5467 3.67212 87.3065 3.62658 87.065 3.58258C87.0125 3.57318 86.9601 3.56385 86.9078 3.55458C86.9601 3.55437 87.0125 3.55422 87.065 3.55415C97.1228 3.45592 107.247 6.55234 115.708 11.9138C117.184 12.8475 116.169 12.1378 117.44 12.9715C118.851 13.9228 117.867 13.3185 118.131 13.4973C121.658 15.9531 122.64 16.799 123.062 17.1147C124.094 17.9722 123.287 17.3036 126.204 19.8531C131.545 24.6409 135.037 28.3869 133.751 27.2937C135.351 28.9595 136.912 30.6501 138.458 32.3636C138.9 32.7677 139.34 33.1733 139.78 33.5802C148.973 44.3611 153.453 49.0725 158.727 54.7783C160.589 56.5605 162.487 58.2749 164.451 59.9027C165.501 60.8839 166.588 61.8494 167.685 62.7695C167.935 62.9006 168.19 63.0337 168.444 63.1636C176.63 69.5457 187.165 73.7847 197.571 73.6117C200.951 73.607 204.157 73.2452 207.264 72.5388C216.003 70.1739 217.978 68.8743 224.601 64.3132C238.327 52.6304 225.104 64.7254 235.918 54.2687C235.342 54.7952 234.75 55.3274 234.16 55.8462C235.889 54.0419 237.556 52.1807 239.179 50.2953C240.364 49.0179 241.528 47.727 242.686 46.4218C247.433 40.3123 250.731 36.5202 251.416 35.7149C251.988 35.0813 253.599 32.6055 259.891 25.879C257.117 28.5227 264.724 20.7547 265.448 20.2542C265.962 19.5962 274.027 12.6569 277.907 10.653C280.783 8.84118 287.467 5.85061 292.451 4.83396C296.875 3.90008 296.381 4.05669 296.713 3.97438C302.251 3.35552 298.738 3.74129 302.735 3.53826C303.21 3.52681 303.676 3.52081 304.13 3.51957C307.515 3.51048 309.918 3.76765 310.704 3.86617C311.134 3.9255 309.692 3.79993 311.653 4.06936C316.954 4.61831 326.163 7.90261 331.167 11.423C332.978 12.589 335.137 14.2517 336.964 15.7874C339.768 18.1586 341.022 19.3265 342.524 20.8286C343.047 21.349 346.273 24.8125 349.973 29.3327C350.679 30.1841 352.93 32.5774 355.286 36.2268C355.527 36.462 355.769 36.6975 356.01 36.9331C367.846 52.4461 371.163 56.7792 377.81 62.2536C383.167 66.7518 384.29 67.0712 383.833 66.9224C383.419 66.7189 381.736 65.6012 382.362 66.0475C383.14 66.6784 387.076 68.9778 387.549 69.1596C388.335 69.5647 388.178 69.5377 389.055 69.9539C397.258 73.5133 399.946 73.1033 400.843 73.3552C401.783 73.4338 401.288 73.4007 404.037 73.5739C404.939 73.619 405.845 73.6381 406.742 73.633C412.55 73.6324 417.245 72.4952 418.138 72.3115C419.03 71.9477 416.37 73.5445 406.742 73.7293C406.045 73.7274 405.322 73.7097 404.577 73.672C404.576 73.6964 404.575 73.7209 404.574 73.7454C405.195 73.7721 405.927 73.7913 406.742 73.7896C413.426 74.1733 424.11 70.6745 419.959 72.0571C418.575 72.5532 412.568 74.051 406.742 73.9698C397.441 73.8762 389.378 71.0779 401.177 73.7388C403.272 74.0068 404.784 74.0738 406.742 74.0816C409.009 74.0623 411.6 74.0281 415.736 73.3641C420.741 72.2496 421.49 71.9691 427.813 69.1232C426.754 69.5667 425.685 69.971 424.608 70.3343C433.405 66.7662 442.358 58.9303 447.365 53.6367C449.121 51.8892 454.853 44.9906 453.725 46.7864C456.462 43.6397 469.722 28.9671 472.669 26.6825C473.439 26.2333 473.604 24.5983 484.412 17.5372C485.189 17.0911 485.974 16.6633 486.771 16.2518C481.707 19.2595 483.673 18.1373 486.297 16.6576C488.949 15.1876 492.436 13.7562 489.916 15.0089C488.062 15.5751 480.137 20.499 479.011 21.5043C476.954 23.0274 482.86 18.1984 475.296 24.3028C473.091 26.4295 475.226 24.5466 477.815 22.5511C480.396 20.5369 483.529 18.5638 482.497 19.4213C493.209 12.5718 495.02 13.2261 497.628 12.1913C503.45 10.4904 508.415 10.0015 513.302 9.98237C518.314 9.99748 523.205 10.5267 528.871 12.0785C530.93 12.5325 520.293 9.58915 513.302 9.8769C510.811 9.87037 508.965 10.0239 508.278 10.0883C517.842 9.38599 501.164 9.76845 494.717 12.9455C494.142 13.0841 493.57 13.2319 493.002 13.3887C499.504 10.8034 506.403 9.61656 513.302 9.60883C515.436 9.60507 517.439 9.69806 519.566 9.90609C520.151 9.9918 520.73 10.0859 521.305 10.1881C519.302 9.95496 517.276 9.82543 515.268 9.798C522.687 10.433 518.333 9.44364 528.05 11.657C528.368 11.6628 528.686 11.6711 529.005 11.6819C538.256 14.2255 546.717 19.0757 554.273 24.8636C558.517 27.5309 571.801 40.1888 569.202 38.0387C574.488 43.1966 568.035 36.7575 573.009 41.5642C575.175 43.6686 579.334 47.8041 580.342 48.8605C579.758 48.5554 573.511 42.3643 571.515 40.5946C572.355 42.0754 602.531 69.6545 600.35 66.5749C603.124 68.3238 601.807 67.6052 607.05 70.2573C611.671 72.4636 617.533 74.2588 623.807 74.2387C638.167 74.7468 650.252 63.5296 656.098 56.8849C645.134 67.7731 641.041 70.9914 629.515 73.6594C628.38 73.85 626.422 74.1323 623.807 74.1338C607.735 76.3554 583.461 52.1865 590.352 58.3486C589.054 57.2449 587.768 56.1104 586.503 54.9673C585.267 53.7388 584.073 52.5199 582.863 51.269C586.362 54.6435 589.935 57.9594 593.702 61.021C594.548 61.7849 595.447 62.567 596.329 63.3063C596.781 63.5968 597.222 63.8739 597.685 64.1604C599.351 65.3626 601.041 66.4866 602.791 67.5276C602.278 67.2769 601.765 67.0171 601.253 66.7487C603.891 68.4428 606.674 69.9561 609.573 71.1501C608.819 70.7707 608.074 70.3692 607.338 69.9469C613.819 72.8988 616.435 73.0204 617.982 73.3841C619.582 73.6337 620.26 73.8677 623.807 73.9803C624.067 73.9844 624.341 73.9858 624.629 73.9834C627.689 73.8584 626.615 73.8418 626.424 73.8394C626.197 73.71 626.948 74.1416 633.16 72.5332C640.25 70.1751 641.151 68.9856 642.788 68.1534C644.29 67.1231 646.619 66.1569 653.596 59.2624C653.773 59.0384 653.944 58.8186 654.117 58.5951C657.157 55.5383 660.017 52.3149 662.85 49.0555C662.447 49.4637 662.045 49.8698 661.643 50.2736C667.408 43.4776 675.436 34.1173 677.723 32.1883C671.41 38.7015 671.807 38.9386 673.387 37.1927C674.987 35.3039 698.789 7.88843 726.42 9.96024C739.623 9.71828 750.31 14.5956 754.229 17.0381C769.584 26.4371 776.614 38.6849 787.569 50.5231C783.822 46.5055 776.396 36.5129 768.029 27.8976C759.769 19.0613 749.079 13.901 745.575 12.8526C744.857 12.6335 745.227 12.3098 740.548 11.394C736.191 10.3273 731.457 9.7835 726.42 9.78808C714.68 9.66692 701.735 13.2198 690.916 20.9708C691.346 20.58 691.783 20.1935 692.225 19.8115C701.972 13.2836 712.711 10.8799 711.265 11.4726C713.49 10.9257 715.833 10.4986 718.078 10.217C718.071 10.1682 718.065 10.1193 718.059 10.0704C720.849 9.72045 723.562 9.55886 726.42 9.55716C727.152 9.55716 727.874 9.56836 728.587 9.59047C728.585 9.63972 728.584 9.68897 728.582 9.73822C731.424 9.82503 734.354 10.1023 737.183 10.5973C737.493 10.6013 737.801 10.6077 738.108 10.6164C742.39 11.302 751.552 14.4226 757.194 18.4371C762.853 22.3181 765.805 25.2409 760.752 21.1775C763.953 23.6791 766.908 26.4843 769.691 29.4236C769.708 29.3892 769.725 29.3548 769.742 29.3203C770.947 30.5846 772.117 31.8694 773.272 33.176C772.87 32.7679 772.464 32.3589 772.056 31.9543C777.414 37.8722 781.928 43.921 785.444 47.7721C783.216 45.1538 781.051 42.4816 778.868 39.8126C782.975 45.004 791.089 54.0186 791.954 54.6824C794.29 57.011 795.508 58.2656 798.249 60.5473C800.766 62.5726 800.47 62.21 800.945 62.5801C808.002 67.6511 810.662 68.4412 811.995 69.169C813.42 69.7937 813.689 70.0025 817.645 71.0952C818.436 71.3914 819.244 71.6728 820.071 71.9387C821.203 72.1914 822.347 72.4097 823.458 72.5884C827.951 73.4777 832.305 73.8473 836.926 73.856C837.577 73.8565 838.22 73.8491 838.853 73.8341C838.219 73.8272 837.577 73.8126 836.926 73.7902C835.804 73.7514 834.706 73.6893 833.633 73.605C834.803 73.6503 835.902 73.6688 836.926 73.6708C842.484 73.6573 845.08 73.2992 845.704 73.2479C847.703 72.9995 848.75 72.7138 849.362 72.6001C864.597 69.0586 866.355 65.3329 867.457 65.144C868.328 64.4573 867.991 65.4067 873.81 60.1476C877.604 56.0371 873.63 60.0714 872.958 60.5016C878.201 55.2866 879.516 53.3147 883.978 46.8474C885.12 45.1474 886.371 43.3258 887.075 42.2377C887.686 41.2959 889.523 38.2973 891.019 36.0461C893.516 32.3029 896.97 27.3243 901.35 22.8932C904.479 18.7571 918.516 9.8318 929.875 9.71985C934.526 9.38809 933.467 9.58565 934.696 9.53801C934.822 9.5365 935.136 9.52855 935.592 9.52261C937.031 9.49832 939.615 9.5316 941.935 9.75855C967.818 11.2372 985.227 33.5624 1000.76 51.5869C1011.23 63.7027 1025.63 74.2605 1042.15 73.7195C1043.18 73.7194 1044.19 73.6861 1045.18 73.6212C1048.77 73.3163 1046.89 73.5221 1048.46 73.3359C1048.99 73.1991 1049.69 73.3072 1055.09 71.8201C1057.03 71.2172 1054.82 71.9959 1056.72 71.3681C1057.61 70.9982 1058.08 71.0275 1063.16 68.4853C1072.23 63.5119 1076.17 59.3365 1076.93 58.8329C1078.23 57.6576 1077.81 57.9635 1079.5 56.3802C1087.72 48.5383 1093.77 41.1457 1100.8 33.7475C1102.46 32.0431 1108.87 25.0705 1116.23 19.6838C1123.51 14.1137 1132 11.2755 1132.85 11.0991C1136.82 10.0409 1133.13 11.0336 1138.25 9.94947C1139.71 9.65583 1141.11 9.44004 1142.6 9.28222C1140.26 9.45315 1137.95 9.79461 1135.68 10.3089C1141.4 8.92699 1148.02 8.79565 1152.74 9.3751C1153.2 9.42634 1153.63 9.4801 1154.05 9.53517C1154.93 9.56086 1162.85 11.0722 1166.71 12.4908C1165.05 11.9689 1163.37 11.5052 1161.66 11.1068C1162.25 11.2727 1162.86 11.4542 1163.44 11.6388C1171.36 13.7702 1179.24 17.6574 1186.13 22.4125C1188.62 24.1446 1187.75 23.5854 1190.21 25.4161C1203.99 36.6552 1200.56 33.8173 1212.45 46.0413C1208.55 41.7983 1193.17 27.4361 1190.47 25.8658C1188.85 24.4842 1182.12 19.6301 1184.47 21.594C1169.69 13.0765 1182.96 19.5921 1168.31 13.2648C1168.6 13.412 1168.88 13.5609 1169.17 13.7113C1163.92 11.787 1159.89 10.9334 1156.56 10.2789C1156.27 10.2837 1154.87 10.062 1152.69 9.82968C1146.38 8.783 1133.66 10.1907 1126.73 13.8925C1112.89 20.243 1101.64 33.4932 1091.73 44.355C1088.3 48.13 1086.25 50.1617 1085.81 50.6255C1085.17 51.3021 1083.39 53.2391 1082.07 54.5444C1077.59 60.0104 1059.96 72.0038 1054.42 72.5536C1093.3 60.4618 1106.94 4.39509 1152.67 9.97505C1153.96 10.1221 1155.23 10.3023 1156.48 10.5141C1153.87 10.1201 1163.17 11.0562 1172.49 15.1975C1181.87 19.1321 1190.61 26.0799 1191.43 26.7263C1192.97 27.9509 1191.63 26.9741 1192.09 27.3408C1195.49 30.0808 1198.3 32.5112 1199.33 33.442C1200.11 34.1543 1201.66 35.621 1204.36 38.2272C1204.85 38.7039 1205.03 38.8059 1205.56 39.3231C1209.06 42.7453 1212.44 46.1934 1215.92 49.6587C1216.13 49.8646 1216.97 50.7976 1217.85 51.6634C1218.73 52.5305 1219.66 53.3363 1219.89 53.5543C1222.69 56.2919 1227.67 60.8292 1230.64 63.0714C1231.67 63.8617 1230.99 63.2803 1232.14 64.1469C1235.77 66.7102 1234.46 66.0611 1239.21 68.8099C1240.86 69.6659 1240.74 69.6115 1243.97 71.0295C1246.28 71.9691 1246 71.9566 1246.37 72.1034C1246.83 72.4867 1255.27 74.3812 1258.11 74.2591C1254.99 74.2135 1256.74 74.3734 1259.22 74.3544C1261.63 74.3475 1264.54 73.8431 1264.23 73.8319C1267.6 73.3778 1270.92 72.4103 1274.05 71.0503C1275.1 70.5571 1276.15 70.0148 1277.15 69.4434C1289.18 62.5821 1294.67 55.8019 1303.99 45.9631C1304.43 45.4748 1312.26 37.0857 1311.94 37.5224C1307.27 42.5568 1302.7 47.6546 1299.59 50.7649C1294.7 56.0667 1294.76 56.3518 1285.83 63.8768C1282.75 66.2893 1282.51 66.4125 1282.15 66.6868C1276.46 70.7174 1267.96 74.6138 1259.22 74.47C1248.96 74.6022 1240.04 69.8379 1235.56 66.7599C1233.08 65.3209 1241.91 70.6236 1238.45 68.6314C1234.87 69.6128 1197.78 31.9715 1209.82 43.7792C1208.58 42.5507 1207.33 41.3165 1206.09 40.1002C1204.74 38.9728 1198.44 33.0176 1199.26 33.5667C1198.63 33.0396 1197.99 32.5197 1197.35 32.0037C1196.11 30.9535 1194.65 29.7052 1192.54 28.0178C1188.43 24.5075 1171.18 11.6974 1152.65 10.1962C1136.95 8.01866 1124.24 15.4998 1123.12 16.1574C1123.08 16.2317 1123.04 16.3059 1122.99 16.3803C1131.93 11.2167 1142.34 9.08173 1152.63 10.3333C1169.43 12.0419 1184.98 20.8585 1198.35 33.2385C1197.74 32.6349 1197.12 32.0353 1196.5 31.44C1205.38 39.2344 1213.26 48.0534 1221.85 56.1891C1212.64 47.7168 1199.18 32.9676 1188.52 25.3187C1186.65 23.9412 1188.06 24.8979 1187.63 24.5784C1186.5 23.7671 1185.27 22.8968 1180.99 20.3028C1176.83 17.449 1165.09 12.7952 1163.92 12.7264C1161.84 12.0821 1156.42 10.9566 1152.6 10.5851C1152.44 10.5667 1152.28 10.5493 1152.12 10.5328C1147.15 10.1176 1150.49 10.3259 1149.49 10.2475C1145.39 10.0103 1141.68 10.3424 1138.53 10.897C1133.73 11.4318 1124.45 15.3005 1121.79 17.3883C1124.72 15.6275 1127.8 14.1272 1131.02 12.9778C1113.62 19.8111 1104.03 31.928 1091.74 45.416C1089.08 48.6602 1099.31 37.3791 1090.71 46.9602C1092.29 45.2367 1093.86 43.4985 1095.42 41.7685C1095.76 41.3324 1096.09 40.8966 1096.43 40.4612C1099.16 37.5093 1101.91 34.5804 1104.75 31.7535C1103.92 32.5358 1103.09 33.3295 1102.27 34.132C1111.82 23.5099 1123.94 15.533 1128.7 14.1751C1128.95 14.0138 1129.19 13.8544 1129.44 13.6971C1136.48 10.6728 1146.43 9.81508 1152.59 10.6979C1157.07 11.2263 1159.53 11.899 1158 11.69C1158.61 11.7947 1159.23 11.9073 1159.83 12.0275C1167.5 14.0327 1164.21 13.133 1167.08 14.0039C1168.04 13.9109 1181.86 20.7658 1175.71 17.8026C1188.8 25.1656 1184.72 23.0193 1188.2 25.2633C1196.05 30.9389 1208.48 43.2264 1203.1 38.2368C1204.13 39.2388 1205.16 40.2594 1206.19 41.2772C1209.69 44.4911 1212.83 47.9787 1216.45 51.6533C1217.7 52.8847 1218.95 54.1105 1220.22 55.3205C1221.1 56.0805 1222 56.8509 1222.91 57.5992C1235.24 68.5941 1231.84 64.4589 1237.82 69.1303C1236.78 68.574 1235.73 67.9713 1234.73 67.3587C1232.37 65.8291 1230.11 64.1464 1227.94 62.3987C1236.53 69.5593 1247.2 75.4096 1258.84 75.3907C1258.97 75.3934 1259.09 75.3954 1259.22 75.3969C1273.71 75.0044 1281.41 69.4788 1293.01 59.1226C1294.08 58.0847 1295.13 57.0332 1296.17 55.9697C1295.19 57.125 1291.13 61.2206 1298.72 53.6272C1299.44 53.0401 1294.39 58.2706 1291.86 60.4231C1291.26 60.9565 1296.2 56.2807 1290.57 61.4605C1286.53 64.7418 1294.28 59.2317 1281.61 68.505C1282.11 68.2068 1282.61 67.8987 1283.11 67.5844C1281.69 68.5674 1280.27 69.4701 1278.76 70.3237C1277.4 71.0259 1276.01 71.6673 1274.59 72.2343C1271 73.6887 1268.98 75.26 1259.9 75.7301C1261.34 75.6632 1260.81 75.6557 1259.22 75.6331C1258.06 75.6081 1256.43 75.5379 1254.57 75.3212C1254.56 75.3619 1254.56 75.4027 1254.55 75.4434C1243.95 73.4695 1247.52 74.1534 1239.37 70.595C1238.59 70.147 1237.83 69.687 1237.08 69.2071C1232.49 67.2394 1219.28 55.5034 1221.86 57.4678C1218.06 54.2844 1210.9 46.8846 1208.31 44.084C1208.08 43.9057 1207.84 43.7274 1207.6 43.5492C1206.15 42.1154 1204.71 40.7055 1203.25 39.3008C1202.45 38.4997 1201.65 37.7019 1200.85 36.9091C1199.79 35.9458 1198.72 34.9938 1197.64 34.0533C1197.02 33.4462 1196.4 32.8434 1195.78 32.2453C1194.01 30.7704 1192.22 29.3417 1190.38 27.9691C1189.3 27.081 1188.2 26.2087 1187.09 25.3651C1187.03 25.1665 1175.32 17.7835 1171.64 16.5318C1170.58 16.1001 1169.5 15.6939 1168.42 15.3197C1167.91 15.0867 1167.4 14.8591 1166.88 14.6371C1166.05 14.3867 1165.24 14.1569 1164.42 13.9422C1162.55 13.3419 1160.65 12.8243 1158.73 12.3909C1155.71 11.8463 1153.85 11.648 1152.5 11.4866C1150.31 11.2482 1149.81 11.1756 1148.69 11.1211C1145.26 10.5771 1133.98 12.5711 1132.25 13.5383C1130.45 14.1492 1129.56 14.4379 1128.14 15.0481C1116.62 20.608 1114.24 24.0782 1113.23 24.6737C1112.32 25.4959 1113.38 24.6421 1111.44 26.362C1109.37 28.2284 1107.89 29.5586 1106.13 31.3156C1103.02 34.1761 1088.68 50.3836 1087.71 51.2317C1086.44 52.5411 1089.19 49.2353 1085.14 53.553C1085.21 53.9015 1075.8 62.4713 1080.31 58.5957C1076.45 62.154 1072.32 65.4918 1067.79 68.2681C1068.41 68.0733 1062.84 71.7263 1055.92 73.8351C1052.51 74.9276 1047.35 75.953 1042.15 75.9326C1032.52 76.1857 1023.65 72.3118 1024.24 72.3985C1021.97 71.5179 1019.76 70.4473 1017.64 69.2339C1003.31 60.3656 994.236 46.6451 983.366 35.1125C971.446 21.586 954.527 11.1584 935.592 11.707C920.47 11.2164 906.152 18.3237 897.527 30.6229C888.542 42.4295 882.1 56.8807 869.811 66.0574C867.921 67.4447 868.125 67.1978 866.721 68.114C861.601 71.8307 848.633 76.2364 836.926 75.8589C831.989 75.8662 827.573 75.4076 823.916 74.7257C820.092 74 818.166 73.3035 817.018 72.9575C812.911 71.5944 813.919 71.971 812.06 71.2416C808.89 70.58 795.156 61.4069 791.546 57.0581C789.569 55.1178 787.283 52.7764 785.173 50.3398C784.992 50.1303 785.383 50.4683 785.229 50.2912C781.394 45.853 783.659 48.5576 782.373 47.0495C773.306 36.3562 764.342 23.8379 750.965 17.0178C747.701 15.2645 742.396 13.3941 739.266 12.7622C738.08 12.5251 740.242 12.9502 736.078 12.2048C734.68 11.9892 734.225 11.8558 732.593 11.6855C730.036 11.4384 728.206 11.4196 726.42 11.4407C723.334 11.5067 721.035 11.6558 717.236 12.0629C705.359 12.822 687.734 23.8462 680.597 31.8684C678.803 33.6507 677.922 34.5141 676.274 36.2832C675.106 37.5381 673.136 39.8272 671.376 41.8631C669.614 43.8858 666.832 47.1008 663.448 51.0543C659.918 55.2361 655.214 60.251 654.292 61.0997C653.208 62.1654 652.668 62.5743 651.538 63.6074C648.396 66.896 637.948 74.0067 631.776 74.8803C628.547 75.6205 625.923 75.7624 623.807 75.7595C621.792 75.7481 620.359 75.5969 619.273 75.4676C617.235 75.2352 614.904 74.7606 614.003 74.5099C612.604 74.1227 612.297 73.9606 610.567 73.3486C607.76 72.3148 604.911 71.0773 601.114 68.7493C571.036 48.4451 550.982 10.9805 513.302 11.5178C467.941 9.61048 457.08 69.2113 412.404 75.4024C410.331 75.6291 408.579 75.7099 406.742 75.7161C400.979 75.5876 395.4 75.3063 386.528 70.8672C381.963 68.3036 383.909 69.344 380.546 67.0783C379.089 66.0134 379.41 66.3508 377.628 64.921C369.763 58.5424 362.842 49.1544 360.21 45.8078C359.174 44.4635 357.942 42.9597 355.841 40.1939C344.189 24.24 327.283 4.6705 304.13 5.65152C298.127 5.64091 292.209 6.68194 286.785 8.75252C272.769 13.2758 257.99 30.6269 247.544 43.8215C235.546 58.7856 219.492 76.3991 197.571 75.8126C166.999 75.702 150.531 47.4399 134.133 30.6654C121.791 17.0326 105.709 5.27083 87.065 5.72373C63.4222 3.94419 50.3746 25.948 38.1715 44.0166C25.6587 63.0823 3.25551 74.6848 -19.3768 75.8082C-20.3293 75.8855 -21.2717 75.9483 -22.204 75.997C-21.2814 75.9529 -20.3387 75.8942 -19.3758 75.8197C-4.44331 74.8023 13.7091 69.8944 26.903 57.1889C40.3317 44.8776 47.4204 27.3747 58.8701 16.4826C66.2547 9.21369 76.5043 5.74002 87.065 5.88896C135.417 4.53187 145.85 73.2838 197.571 75.9728C248.041 73.8473 255.591 5.70828 302.637 5.85552C303.128 5.84193 303.626 5.83498 304.13 5.835C342.888 2.73156 355.156 57.3214 391.021 73.1545C392.665 73.8002 396.228 74.9108 400.006 75.4481C400.448 75.5169 403.409 75.9755 406.742 75.9854C409.686 76.0229 412.704 75.7257 414.288 75.4765C411.095 75.9756 424.249 73.6068 427.806 71.2879C432.563 69.2046 441.527 62.9957 449.648 54.3575C457.031 46.5653 454.987 48.7243 455.413 48.3061C457.962 45.5092 458.744 44.452 460.656 42.2939C465.704 36.6624 487.861 9.77438 513.302 11.7328C523.74 11.6824 532.329 14.7509 536.882 16.7933C540.762 18.5654 540.798 18.7799 541.654 19.2136C543.899 20.4197 547.062 22.2319 550.412 24.6238C556.478 28.8981 562.792 34.7841 565.779 37.6219C573.026 44.2739 585.821 58.2614 596.563 65.9521C599.59 68.1031 599.385 67.9868 600.81 68.9002C604.867 71.5569 614.485 76.2738 623.807 76.0106C628.452 76.0216 632.734 75.0323 635.685 73.9681C650.325 68.6007 659.764 55.583 669.347 44.5735C669.98 43.8813 670.616 43.1887 671.249 42.5051C672.187 41.3698 673.136 40.2347 674.088 39.1184C687.27 23.5469 705.672 11.0636 726.42 11.7032C730.766 11.7056 734.834 12.0836 738.998 12.9847C741.903 13.072 754.501 18.6867 756.172 20.417C757.749 21.4878 759.331 22.5388 761.505 24.3879C764.492 27.0571 761.655 24.5624 766.396 29.0946C767.639 30.3507 766.504 29.0541 768.966 31.6333C769.939 32.2653 784.607 50.1536 785.593 51.0371C786.975 52.6093 788.158 54.0702 788.531 54.4667C790.472 56.5188 790.473 56.35 791.836 57.6736C795.808 61.638 801.803 66.0071 802.608 66.4441C809.99 71.8041 825.174 76.4141 836.926 75.9767C839.76 75.9747 842.059 75.8516 844.353 75.6342C845.961 75.472 845.767 75.56 846.047 75.5307C847.779 75.3233 849.011 75.0294 850.678 74.6857C860.082 73.3458 873.187 65.1803 878.867 57.6157C879.573 56.7957 880.972 54.9989 882.114 53.4627C888.399 44.6802 886.318 47.5232 886.707 47.0388C887.513 45.8387 888.827 43.6615 890.886 40.4589C895.798 31.978 907.726 17.2607 917.98 14.6406C925.235 12.2602 925.22 12.89 925.712 12.6888C926.763 12.525 929.694 11.9 934.765 11.8205C935.047 11.8166 935.323 11.8147 935.592 11.8144C944.511 12.0493 943.499 12.3701 947.376 12.961C947.709 13.0569 947.137 12.7368 951.457 13.8414C960.127 15.2673 976.087 26.7161 982.104 33.9497C984.567 36.5618 985.175 37.1504 987.62 39.9205C991.451 44.3318 1000.13 54.5282 1000.94 55.2351C1001.15 55.452 1001.65 55.8974 1002.87 57.1539C1004.21 58.5315 1005.55 59.8953 1006.6 60.8739C1012.29 66.977 1025.41 73.2987 1021.72 71.6833C1024.17 72.78 1026.71 73.666 1029.33 74.3231C1033.53 75.4846 1037.82 76.0113 1042.15 76.0097C1055.32 76.1986 1067.59 69.9517 1077.14 61.572C1080.05 59.0718 1082.38 56.8907 1084.64 54.6131C1086.98 52.3836 1096.36 41.8925 1097.92 40.1747C1100.49 36.7976 1117.46 20.4806 1120.36 19.5729C1125.06 16.4281 1130.14 14.4659 1132.29 13.7582C1134.02 13.1968 1132.37 13.5761 1135.73 12.6507C1140.73 11.1803 1149.04 11.1525 1152.48 11.7054C1153.05 11.7728 1153.48 11.8301 1153.74 11.8646C1154.52 12.0364 1153.09 11.4926 1160.37 13.0287C1164.27 13.9651 1166.26 14.7601 1167.64 15.2424C1168.04 15.4674 1167.55 14.8271 1174.76 18.1817C1179.67 20.6392 1181.56 22.0693 1182.06 22.3524C1182.79 22.8187 1184.61 23.8635 1187.43 25.9218C1194.14 30.5923 1204.9 41.1322 1210.4 46.7649C1211.47 47.8418 1211.15 47.4229 1215.46 51.7185C1218.56 54.7821 1217.98 54.29 1219.15 55.4293C1221.02 57.2039 1223.87 59.8615 1228.36 63.4923C1230.98 65.502 1243.62 76.2644 1259.22 75.9794C1275.11 76.1396 1286.65 65.0739 1287.63 64.5622C1289.12 63.3792 1290.74 61.9464 1291.46 61.3417C1290.89 61.906 1290.32 62.4618 1289.74 63.0083C1283.26 68.195 1285.86 66.1296 1284.12 67.4808C1281.73 69.6782 1270.6 75.1093 1267.49 75.3321C1266.43 75.5168 1268.91 75.3206 1263.19 76.173C1261.7 76.3409 1260.39 76.3912 1259.22 76.3881C1255.66 76.3542 1253.68 75.9845 1251.84 75.8063C1243.23 73.9369 1235.86 69.846 1245.04 74.0288C1246.51 74.5411 1251.78 76.5683 1259.22 76.5779C1280.37 78.0018 1301.09 52.2155 1306.06 47.2489C1311.97 40.8053 1322.89 28.7043 1331.52 22.797C1336.26 18.6616 1350.23 13.3653 1349.76 14.0264C1354.93 12.8141 1349.44 13.9958 1350.52 13.7324C1351.68 13.4065 1356.72 12.3226 1361.83 12.3922C1366.53 12.3653 1371.06 13.2645 1372.53 13.624C1388.11 16.7051 1403.32 31.284 1413.94 42.8114C1413.42 42.2967 1412.89 41.7828 1412.36 41.2704C1409.96 38.6152 1398.24 27.27 1396.59 26.4397C1415.02 41.1136 1427.94 63.6795 1451.93 73.7632C1451.68 73.6051 1459.81 76.9528 1468.39 76.7791C1476.09 76.8576 1483.26 74.442 1483.91 74.2543C1483.4 74.4742 1482.89 74.687 1482.38 74.8923C1475.53 76.7706 1471.43 76.8368 1468.39 76.8935C1463.8 76.7832 1461.39 76.844 1454.48 74.6935C1449.87 73.0771 1451.24 73.5984 1449.03 72.6669C1438.38 67.3094 1438.85 66.4654 1439.25 66.932C1439.83 67.1754 1440.68 68.1084 1433.7 62.5365C1437.72 66.1091 1426.5 56.6927 1422.17 51.9624C1421.07 50.9288 1408.02 37.0458 1406.38 35.5812C1397.81 26.3502 1380.1 13.7301 1367.82 13.1705C1365.61 12.8925 1363.71 12.8021 1361.83 12.8061C1355.78 12.8953 1351.2 13.6967 1345.05 15.9814C1339.05 18.4889 1340.78 17.8056 1338.04 19.2151C1332.43 22.4659 1330.88 24.053 1327.43 26.4573C1323.99 29.3151 1320.74 32.4364 1317.57 35.6831C1317.54 35.6543 1317.52 35.6255 1317.49 35.5966C1315.48 37.6219 1313.52 39.6999 1311.56 41.8028C1311.02 42.4495 1310.47 43.098 1309.93 43.7472C1303.7 50.4418 1306.2 47.5746 1304.96 48.7531C1303.61 50.1992 1302.24 51.6639 1300.87 53.0999C1299.86 54.2911 1298.86 55.453 1297.83 56.6301C1291.53 62.9549 1284.63 69.1948 1276.11 73.2146C1275.55 73.4356 1274.98 73.6449 1274.4 73.842C1274.4 73.8873 1274.4 73.9326 1274.39 73.9779C1269.65 75.9852 1264.42 77.1082 1259.22 77.0959C1248.27 77.2315 1237.91 72.3404 1229.69 66.0234C1228.06 64.7655 1231.99 68.1211 1237.22 71.1106C1242.39 74.2242 1249.14 76.0904 1250.09 76.2256C1252.41 76.7541 1255.59 77.2423 1259.22 77.2369C1272.88 77.9807 1287.18 66.5058 1287.02 66.6957C1292.44 62.857 1305.5 48.8284 1309.48 44.5947C1303.44 51.1298 1297.44 57.8808 1290.47 63.9055C1290.72 63.7496 1290.98 63.5921 1291.23 63.4331C1282.2 70.492 1280.92 72.0724 1269.3 76.1709C1269.27 76.1106 1269.24 76.0504 1269.21 75.99C1266.43 76.8283 1262.83 77.4062 1259.22 77.3793C1252.08 77.451 1245.64 74.9844 1245.33 75.0743C1241.04 73.5605 1237.05 71.4095 1233.37 68.9416C1226.06 63.1 1235.65 73.6172 1209.76 48.2829C1208.02 46.5265 1208.44 46.8375 1205.81 44.227C1205.02 43.5315 1200.79 39.0405 1192.05 31.6137C1190.67 30.4749 1190.6 30.3383 1189.16 29.1896C1185.85 26.446 1178.63 22.072 1181.97 23.9585C1167.49 15.5325 1173.31 19.4182 1168.62 17.2857C1165.4 16.1347 1166.06 16.2483 1163.23 15.4105C1160.06 14.6758 1161.82 14.7274 1152.29 13.3326C1150.98 13.1818 1149.5 13.056 1147.82 13.0086C1149.28 13.0363 1150.76 13.1307 1152.29 13.2978C1152.43 13.3125 1152.56 13.3277 1152.7 13.3432C1152.57 13.3218 1152.43 13.3009 1152.3 13.2803C1151.6 13.173 1150.9 13.081 1150.22 13.0036C1141.97 12.7681 1142.74 13.0256 1138.96 13.692C1133.12 14.7301 1128.13 16.4509 1121.17 20.9831C1108.21 30.8529 1114.73 25.505 1101.2 38.948C1099.11 41.2575 1097.04 43.6103 1094.94 45.9667C1091.38 49.7434 1094.19 46.5962 1088.86 52.273C1093.22 47.9694 1081.8 59.8911 1079.58 61.7635C1079.33 61.9305 1079.08 62.0963 1078.83 62.2608C1077.5 63.4225 1076.11 64.5691 1074.69 65.6589C1074.71 65.6884 1074.72 65.7178 1074.74 65.7472C1072.82 67.189 1070.84 68.548 1068.77 69.8022C1067.24 70.7847 1065.66 71.7091 1064.03 72.5532C1061.29 73.8323 1058.45 74.8841 1055.49 75.6611C1053.69 76.1764 1051.77 76.6003 1049.93 76.8917C1050.53 76.8441 1051.11 76.7892 1051.73 76.7156C1049.34 77.179 1046.85 77.4614 1044.44 77.5526C1046.62 77.4645 1046.11 77.6787 1042.15 77.7645C1040.98 77.7722 1039.54 77.742 1037.86 77.6058C1031.61 76.6548 1038.48 78.4661 1025.41 74.826C1024.67 74.2924 1022.34 74.8515 1011.91 67.605C1000.3 58.0812 1006.13 62.5353 1004.09 60.8115C1003.71 60.4606 1000.45 57.3102 997.676 54.2134C996.085 52.4583 994.644 50.7207 994.437 50.4845C993.489 49.3964 993.162 49.1228 991.858 47.6083C988.557 43.7645 984.225 38.6464 980.883 35.1646C979.371 33.5723 977.882 32.1611 977.183 31.4893C976.1 30.4422 974.742 29.1081 973.598 28.1201C969.445 24.3226 962.268 20.129 960.054 18.8772C955.351 16.4723 944.669 13.8949 945.367 14.3499C942.834 13.9231 939.489 13.5685 935.592 13.5734C926.977 13.4201 916.9 15.8436 910.395 20.5753C903.845 25.1376 900.315 30.2752 900.45 29.7624C895.669 36.3035 896.098 35.7824 894.132 38.6379C891.99 41.9111 893.143 40.2405 891.44 42.8696C887.458 49.0275 883.558 55.1449 878.329 60.8371C879.121 59.9179 879.881 58.9834 880.617 58.0336C875.244 64.0256 877.347 62.2405 870.912 67.5747C864.643 72.1256 862.32 72.6317 861.817 72.9382C861.259 73.1563 862.223 72.6795 861.14 73.0984C861.454 73.0142 857.439 74.8638 852.858 75.9429C848.36 77.0753 843.454 77.4583 842.487 77.5108C841.449 77.5169 845.699 77.3574 836.926 77.5992C836.405 77.6005 835.844 77.5976 835.241 77.5878C835.797 77.6369 836.358 77.6805 836.926 77.7185C836.97 77.7214 837.014 77.7243 837.059 77.7272C837.015 77.7268 836.971 77.7264 836.926 77.7259C831.861 78.0383 818.617 75.8671 816.529 74.8398C815.465 74.5316 810.216 72.4388 805.564 70.0976C805.034 69.7586 804.523 69.4183 804.002 69.0616C799.023 66.1682 794.524 62.5665 790.454 58.6636C789.859 57.9819 789.277 57.2943 788.706 56.602C787.464 55.3275 786.258 54.0283 785.079 52.715C785.813 53.6303 786.559 54.5401 787.322 55.4425C779.834 47.362 771.838 37.228 770.473 35.5739C768.957 33.911 767.421 32.2936 765.841 30.7378C764.888 29.6583 763.908 28.5969 762.907 27.571C755.245 20.9235 754.889 21.1007 748.867 18.0004C749.131 18.0621 749.395 18.126 749.657 18.192C745.198 15.8808 736.251 13.417 728.895 13.3309C728.17 13.3044 727.325 13.283 726.42 13.2784C723.011 13.2316 719.18 13.5982 718.532 13.7003C717.713 13.6597 709.771 15.6687 708.936 15.8127C697.616 19.7361 693.45 23.4197 689.509 26.3051C687.01 28.3119 685.94 29.3234 683.284 31.8353C679.498 35.4501 675.913 39.4182 673.888 41.7318C672.728 43.061 672.562 43.3527 671.77 44.274C668.018 48.6717 670.18 46.0518 666.211 50.7197C665.83 51.152 663.019 54.6405 659.518 58.4292C657.623 60.591 652.102 65.7599 651.528 66.1491C649.147 67.9625 651.565 67.0937 642.624 72.505C642.905 72.3838 643.184 72.2596 643.463 72.1324C631.928 78.411 629.025 76.9516 626.557 77.4825C626.36 77.4962 625.178 77.6012 623.807 77.6132C622.861 77.6245 621.853 77.5915 621.072 77.5327C617.851 77.2679 616.587 76.8545 615.894 76.7277C613.378 76.3944 605.352 73.6047 600.898 70.6031C601.429 71.7299 586.497 60.6401 584.05 57.4497C581.66 55.2905 579.346 53.1047 577.043 50.9016C576.048 49.8617 575.064 48.8274 574.072 47.785C573.423 47.1988 572.782 46.6196 572.136 46.0366C568.931 42.7335 565.729 39.4674 562.444 36.3258C562.169 36.1963 561.895 36.0676 561.621 35.9397C560.689 35.0767 559.75 34.2242 558.804 33.385C558.108 32.6824 557.403 31.9846 556.694 31.2966C555.476 30.2937 554.241 29.3121 552.992 28.3607C552.653 28.1635 552.313 27.9685 551.973 27.7756C545.054 23.1241 549.263 24.1411 534.869 17.69C532.632 16.7193 530.329 15.8809 528 15.2022C525.3 14.6284 520.283 13.5475 516.12 13.4123C514.771 13.3562 514.065 13.3737 513.302 13.3919C512.413 13.4213 511.437 13.4368 509.345 13.5786C505.361 13.9203 505.539 13.9411 505.228 13.9607C502.016 14.4528 499.688 15.1431 497.447 15.8509C497.128 15.9677 496.195 16.1066 493.424 17.2542C490.642 18.4734 489.034 19.3239 485.188 21.7367C483.236 23.0084 482.645 23.347 480.974 24.5942C473.025 30.6114 466.499 38.6624 460.983 44.134C459.875 45.458 451.555 55.2112 447.431 59.0527C441.042 65.0027 443.393 62.6096 440.727 64.8566C440.286 65.1151 438.431 67.101 431.945 70.9226C430.769 71.5823 431.063 71.4671 430.894 71.5621C425.624 74.6063 415.681 77.8437 406.742 77.6184C402.745 77.6174 399.116 77.1162 396.164 76.4235C395.363 76.1776 390.608 75.5269 383.949 71.5308C373.299 66.3426 360.634 49.4512 352.2 38.4634C351.016 36.9228 349.612 35.0472 349.078 34.3801C344.321 28.8571 346.529 30.2355 334.871 19.0406C335.79 19.98 332.999 17.3969 328.601 14.5738C321.829 10.6702 326.777 13.1195 321.073 10.5405C321.058 10.5785 321.042 10.6164 321.027 10.6544C313.591 7.75691 309.019 7.58302 304.13 7.52472C300.151 7.59971 295.97 7.8481 289.789 9.75308C284.769 11.1718 278.042 15.1545 277.041 15.9358C276.601 16.1512 272.033 19.7508 271.638 20.1665C269.245 22.2042 267.915 23.4102 265.962 25.3502C259.534 31.7695 252.746 40.6565 253.81 38.9171C252.221 40.9279 250.635 42.9606 249.035 44.9915C242.697 52.4361 237.819 58.1235 236.128 59.4286C234.91 60.7226 233.621 62.0237 232.317 63.2593C223.189 71.7119 210.604 77.9394 197.571 77.6833C162.792 77.2503 146.737 43.8487 126.09 25.1201C125.106 23.685 111.152 13.2243 110.11 13.3221C106.503 11.5288 110.533 12.909 102.855 9.96106C101.975 9.73795 101.087 9.53897 100.19 9.3649C90.1699 7.13914 94.9979 8.2333 90.9639 7.64577C89.2803 7.54721 89.8372 7.6128 87.5009 7.57174C87.3576 7.57081 87.2123 7.57045 87.065 7.57071C80.6603 7.50637 71.1197 8.895 63.666 14.6741C56.1326 20.2847 50.6881 29.015 46.6714 34.9223C45.0392 37.3688 45.243 36.9657 44.7319 37.7283C43.3238 39.8172 40.6031 44.0315 37.4284 48.1298C26.6783 63.8767 3.63922 76.7647 -19.2234 77.6739C-35.1078 79.1239 -51.0834 75.8828 -62.9378 69.5179C-64.8858 68.4901 -65.1055 68.2772 -66.398 67.5268C-68.1947 66.5084 -72.0864 63.9923 -73.8073 62.6682C-75.4514 61.4347 -76.4319 60.6002 -78.1123 59.1893C-85.8243 52.8351 -94.5329 42.7034 -100.665 34.3337C-101.204 33.6278 -107.502 24.8636 -107.657 24.6729C-108.477 23.5245 -102.401 30.798 -112.036 18.5715C-103.375 29.5324 -105.216 25.1553 -117.428 12.1811C-110.932 18.2199 -105.694 25.8356 -100.032 33.1106C-100.003 33.1047 -99.9732 33.0989 -99.9438 33.093C-105.054 26.4817 -109.36 19.0969 -118.473 10.7917C-118.17 11.0125 -117.867 11.2416 -117.563 11.4787C-109.41 18.766 -101.871 30.2933 -96.3203 36.8236C-104.119 27.0136 -110.559 15.7946 -120.389 8.36617C-119.885 8.6865 -119.382 9.03105 -118.878 9.39853C-114.011 12.7852 -105.974 23.2838 -102.947 27.2379C-91.2253 42.3515 -112.991 13.8751 -109.399 18.5689C-96.9334 34.2065 -85.6535 51.6514 -68.5518 62.8686C-68.3382 63.2879 -84.2045 51.8213 -95.5444 36.1698C-106.676 20.5251 -119.794 6.43964 -120.123 7.36936C-114.846 10.9328 -110.748 15.9378 -106.788 20.8731C-108.496 18.6087 -110.209 16.4153 -112.104 14.2395C-111.568 14.7976 -111.013 15.3954 -110.494 15.9669C-103.509 24.1007 -97.4764 32.9629 -90.5666 41.08C-110.112 15.6498 -120.411 2.54168 -130 3.16132C-129.041 3.14878 -128.097 3.22153 -127.167 3.3742C-116.979 2.59917 -98.6917 32.0941 -86.9138 44.7442C-89.3542 42.1346 -98.9282 29.9701 -100.824 27.2688C-101.371 26.5209 -99.3766 29.0511 -100.64 27.3293C-102.35 25.0394 -106.652 19.0761 -110.891 14.2414C-115.019 9.38013 -119.514 6.26255 -117.989 7.30212C-114.282 7.53158 -91.7779 39.2004 -86.4465 44.3271C-98.5044 31.6274 -105.82 14.0998 -122.474 4.06197C-111.434 9.62061 -106 18.7908 -93.5271 34.648C-89.7443 39.7517 -115.354 4.55796 -118.727 5.30094C-111.909 9.93548 -107.266 16.128 -102.578 22.0034C-106.503 16.9746 -110.464 11.8448 -115.651 7.44827C-115.653 7.41998 -115.655 7.39169 -115.657 7.36339C-102.659 19.0838 -95.7092 32.4666 -83.0352 45.8155C-83.4288 45.3725 -90.6617 37.11 -93.8992 32.7747ZM1374.75 14.8474C1375.07 14.9709 1368.83 13.3531 1365.15 13.2343C1365.69 13.2877 1366.23 13.3512 1366.78 13.4249C1365.31 13.2681 1363.67 13.1628 1361.83 13.1595C1353.93 12.8843 1344.81 16.2425 1344.5 16.6198C1339.41 18.8226 1341.61 17.7587 1339.98 18.5124C1339.32 18.7635 1332.97 22.4225 1328.32 26.1755C1327.21 27.0647 1326.13 27.9784 1325.06 28.9182C1324.89 29.1431 1324.72 29.3686 1324.55 29.5949C1323.03 30.8617 1321.52 32.1794 1320.04 33.5246C1331.55 22.0361 1345.82 12.782 1361.83 13.0548C1366.22 13.0499 1370.54 13.6432 1374.72 14.8392C1374.73 14.8419 1374.74 14.8447 1374.75 14.8474ZM1197.82 36.4449C1192.31 31.0942 1182.92 24.373 1184.71 25.882C1188.61 28.5893 1192.33 31.6071 1195.93 34.8056C1196.56 35.3449 1197.19 35.8938 1197.82 36.4449ZM563.199 36.8235C558.576 32.4134 554.161 28.4668 546.053 23.1216C546.046 23.156 546.04 23.1903 546.033 23.2247C549.478 25.1827 557.817 31.7118 563.199 36.8235ZM1535.1 36.3267C1536.13 35.3488 1537.17 34.3619 1538.2 33.387C1534.15 37.5269 1533.34 38.1774 1528.61 42.7653C1528.32 43.0421 1528.45 42.9752 1528.35 43.0716C1527.18 44.1984 1526.07 45.1877 1525.01 46.1947C1522.96 48.128 1521.33 49.7512 1517.57 53.0799C1514.65 55.6423 1514.56 55.5837 1513.52 56.4717C1512.67 57.2405 1503.79 64.7604 1497.1 68.3655C1490.68 71.691 1501.34 66.6204 1511.86 57.7792C1522.48 49.0621 1533.52 37.7296 1535.1 36.3267ZM1567.11 13.0644C1565.91 13.3442 1564.73 13.7317 1563.55 14.2075C1567.09 12.7568 1559.76 15.2739 1555 18.9356C1554.94 18.625 1565.76 11.7059 1571 12.4072C1569.7 12.4715 1568.4 12.7015 1567.11 13.0644ZM1420.54 49.6326C1424.33 53.5225 1423.62 52.9544 1423.42 52.8282C1422.21 51.6039 1421 50.3545 1419.8 49.1158C1420.05 49.2884 1420.3 49.4607 1420.54 49.6326ZM1453.7 74.0983C1451.87 73.9324 1440.87 68.4039 1436.56 64.6248C1436.38 64.4655 1437.61 65.4136 1434.48 62.8961C1433.42 62.2239 1424.71 54.3167 1426.76 55.9184C1434.45 63.3073 1443.1 70.4474 1453.68 74.0928C1453.69 74.0947 1453.69 74.0965 1453.7 74.0983ZM1465.84 76.5589C1463.56 76.4629 1461.21 76.1798 1458.93 75.7173C1457.76 75.4175 1456.62 75.0773 1455.48 74.6865C1458 75.4351 1460.6 75.9651 1463.23 76.2561C1464.11 76.3847 1464.97 76.4834 1465.84 76.5589ZM108.002 10.9747C108.43 11.226 108.854 11.4829 109.274 11.7452C111.054 12.4324 118.973 17.4277 116.524 15.763C113.805 13.9353 110.963 12.3152 108.002 10.9747ZM69.9848 9.50795C68.2481 10.2334 66.5374 11.1215 64.9328 12.1272C63.1276 13.3871 61.452 14.8047 59.8797 16.3504C66.8658 9.54364 77.1341 7.5483 75.408 7.70961C77.5037 7.17161 79.6561 6.80607 81.879 6.58861C79.9977 6.94919 80.3453 6.6925 86.0424 6.5497C86.2548 6.52314 86.5991 6.50074 87.065 6.4878C89.3894 6.41546 94.4561 6.63168 99.9848 8.10911C95.7956 6.97808 91.4784 6.42688 87.065 6.42069C86.4251 6.41969 85.7969 6.42905 85.18 6.44845C85.1792 6.42397 85.1784 6.39949 85.1776 6.37501C85.8959 6.35188 86.5257 6.34473 87.065 6.34399C90.648 6.40595 89.7539 6.34513 87.065 6.28582C83.9546 6.21755 78.8863 6.659 75.4243 7.65427C74.8921 7.75666 74.3212 7.88175 73.7679 8.01618C72.4597 8.44904 71.2361 8.93085 69.9848 9.50795ZM755.839 20.7056C754.703 19.9142 753.552 19.1752 752.362 18.4796C747.47 16.2631 757.45 20.8047 762.909 26.5374C761.201 24.555 769.754 32.9413 770.117 33.5803C769.235 32.5028 768.342 31.4414 767.427 30.3968C763.849 26.7692 760.026 23.4327 755.839 20.7056ZM718.391 12.4555C720.798 12.3153 716.058 12.5752 710.016 14.2827C703.941 15.8883 696.934 19.605 693.661 21.8511C692.03 22.8938 689.215 24.8916 688.139 25.7952C687.498 26.3529 686.864 26.9225 686.239 27.5012C685.224 27.853 674.229 39.1061 670.351 44.0769C669.935 44.4996 669.52 44.9226 669.105 45.3456C667.637 47.0928 666.169 48.8555 664.68 50.6209C664.837 50.3741 664.995 50.1271 665.152 49.8797C664.054 51.2424 662.964 52.5852 661.841 53.9401C657.295 59.1125 660.003 55.8068 656.488 59.6464C652.503 63.8317 659.224 57.1307 659.109 57.2873C662.302 53.8406 668.997 45.7159 672.051 42.2187C673.843 40.2447 671.808 42.4369 679.528 33.9966C681.306 32.2353 683.128 30.5312 685.008 28.9077C688.363 25.8218 691.931 22.9982 695.757 20.594C696.507 20.2045 697.269 19.8276 698.025 19.4745C698.35 19.037 707.841 14.8346 707.389 15.1595C710.987 14.0085 718.221 12.2301 726.42 12.3017C727.347 12.3026 728.265 12.322 729.169 12.36C730.056 12.3661 730.874 12.3851 731.784 12.4298C723.095 12.0589 728.826 12.2519 726.42 12.1208C726.387 12.12 726.352 12.1192 726.316 12.1185C724.725 12.0441 720.106 12.2453 718.391 12.4555ZM153.78 53.4734C143.216 42.1734 149.744 49.1186 138.786 36.6793C139.496 37.5927 140.203 38.5087 140.908 39.4273C146.281 45.5163 155.409 55.5812 153.791 53.485C153.787 53.4811 153.783 53.4773 153.78 53.4734ZM32.9488 51.8628C38.6092 44.9046 35.8441 48.3892 42.2794 39.1678C42.2824 39.1634 42.2854 39.159 42.2884 39.1546C39.0269 43.9398 35.5706 48.6903 31.5949 53.0537C32.0515 52.6603 32.5027 52.2632 32.9488 51.8628ZM443.653 60.9816C449.941 55.1394 448.645 56.2223 454.002 50.6685C461.557 42.0783 455.097 49.2916 455.003 49.202C453.275 51.1676 451.522 53.1208 449.718 55.0373C445.138 59.5085 449.372 55.1545 449.354 55.1415C449.35 55.1454 449.346 55.1492 449.343 55.153C449.313 55.1244 449.465 54.9795 447.716 56.7032C446.406 58.1524 445.046 59.5925 443.653 60.9816ZM468.325 34.5169C466.428 36.6587 465.574 37.5945 470.853 32.2918C470.856 32.2881 470.86 32.2845 470.864 32.2808C471.136 31.6924 476.411 26.8674 478.971 24.9047C479.619 24.3606 480.276 23.8266 480.941 23.3049C476.439 26.6051 472.293 30.4537 468.325 34.5169ZM574.41 46.2173C574.29 46.3897 569.752 41.9155 575.983 48.3671C577.219 49.5874 578.471 50.8201 579.722 52.0365C580.568 52.7993 581.437 53.5784 582.297 54.3395C590.153 62.2309 596.273 66.4712 596.088 66.2365C595.975 66.0077 589.347 61.4575 576.104 48.2448C576.101 48.2412 576.097 48.2376 576.093 48.234C575.533 47.5631 574.967 46.8858 574.41 46.2173ZM545.153 21.3899C544.862 21.3396 544.572 21.291 544.282 21.2443C540.322 18.6459 534.806 15.7715 525.854 13.4758C525.038 13.325 524.214 13.1914 523.383 13.0757C522.295 12.8567 518.264 12.1315 513.302 12.1372C502.427 11.5628 489.287 17.7525 493.983 15.8801C496.947 14.6155 503.631 12.9782 504.281 12.968C506.249 12.6486 508.904 12.4041 512.332 12.34C512.612 12.3349 512.937 12.3291 513.302 12.3251C515.535 12.2895 519.112 12.3879 522.534 12.9633C531.661 13.927 546.65 21.682 555.993 29.506C556.649 30.0841 557.3 30.6696 557.947 31.2615C564.762 37.1996 562.572 35.1216 568.608 41.0537C570.869 42.9395 564.857 36.8565 558.659 31.5628C552.496 26.2056 545.907 22.0602 549.43 24.1648C549.425 24.1619 549.421 24.1589 549.417 24.1559C548.019 23.1914 546.599 22.2674 545.153 21.3899ZM339.35 21.5901C339.137 20.9902 331.086 14.5566 333.079 15.9347C330.351 13.9634 327.477 12.2476 324.45 10.8644C324.464 10.8941 324.478 10.9238 324.492 10.9535C327.466 12.3854 330.28 14.1397 332.944 16.1394C332.934 16.1733 332.924 16.2071 332.915 16.2409C337.395 18.5776 351.063 34.783 350.409 34.5099C351.149 35.3716 351.886 36.2408 352.621 37.1148C358.771 45.26 363.909 52.5385 371.851 60.799C372.51 61.3991 373.172 61.9829 373.85 62.5611C374.253 62.9825 374.661 63.3989 375.073 63.81C378.203 66.6019 381.627 69.1437 385.374 71.1883C391.66 74.1728 388.623 72.8618 383.955 70.1525C379.261 67.4311 373.794 62.3432 372.689 61.2127C372.389 60.9136 372.352 61.0399 370.499 59.1391C366.742 56.0464 351.544 35.0088 346.363 29.1775C346.362 29.0893 346.361 29.0012 346.36 28.913C344.121 26.3596 341.795 23.889 339.35 21.5901ZM614.711 75.3264C615.292 75.5271 615.885 75.7158 616.477 75.8892C619.177 76.4001 621.652 76.5753 623.807 76.5684C629.959 76.4834 633.026 75.2984 631.018 75.6883C631.012 75.6894 631.007 75.6905 631.001 75.6916C628.644 76.1712 626.257 76.4077 623.807 76.4116C620.719 76.4167 617.683 76.0462 614.711 75.3264ZM1225.91 62.1829C1225.79 61.935 1222.07 58.7383 1217.55 54.4256C1217.74 54.6605 1217.94 54.8949 1218.13 55.1287C1220.6 57.2552 1223.18 60.456 1231.4 66.5882C1231.44 66.5418 1231.47 66.4954 1231.5 66.449C1229.58 65.1005 1227.73 63.6737 1225.91 62.1829ZM606.189 72.2301C603.264 70.9404 595.747 66.1757 600.664 69.3679C604.461 71.7417 607.745 72.9679 606.189 72.2301ZM3.85529 71.7818C6.12354 70.9886 8.19456 70.1552 10.3813 69.1398C11.4788 68.5682 12.5183 67.9881 13.5679 67.3657C13.563 67.3683 13.5582 67.371 13.5533 67.3736C10.4718 69.0802 7.23833 70.5443 3.85529 71.7818ZM417.833 75.3288C425.7 73.5751 432.985 69.6265 439.178 64.7333C439.221 64.6596 439.263 64.5859 439.305 64.5121C433.093 69.4691 429.954 70.6327 428.314 71.4879C428.321 71.4843 428.329 71.4807 428.336 71.477C422.927 74.093 417.265 75.6157 411.607 76.1019C413.724 75.9737 415.75 75.7262 417.833 75.3288ZM390.66 73.4059C391.857 73.8008 393.417 75.8667 405.794 76.425C405.298 76.3879 404.807 76.3433 404.322 76.2914C397.925 75.9579 394.316 74.6568 395.433 74.9036C393.839 74.5059 392.206 73.9934 390.66 73.4059ZM490.853 17.1344C489.464 17.409 480.33 23.4071 480.929 23.2365C481.025 23.1693 483.932 21.032 486.719 19.4243C489.492 17.7882 492.091 16.6428 490.853 17.1344ZM1302.32 50.9486C1300.53 52.8384 1298.71 54.7219 1296.85 56.577C1299.3 54.0807 1301.65 51.5353 1303.99 48.9722C1303.44 49.6267 1302.88 50.2918 1302.32 50.9486ZM1321.7 30.2337C1323.09 29.0623 1318.73 33.0335 1326.98 25.9787C1320.89 30.9879 1315.37 36.7679 1309.93 42.6612C1312.46 39.8737 1315.01 37.1174 1317.62 34.4499C1317.12 34.8712 1316.62 35.2937 1316.12 35.7204C1317.94 33.847 1319.79 32.0125 1321.7 30.2337ZM1328.23 24.8015C1326.54 26.0939 1329.96 23.0786 1334.42 20.2163C1338.84 17.2755 1344.46 15.0036 1345.45 14.7088C1345.88 14.5427 1347.97 13.9771 1348.75 13.7946C1345.57 14.699 1342.46 15.9452 1339.49 17.4631C1340.5 16.9882 1341.53 16.5442 1342.56 16.1336C1339 17.6977 1335.61 19.6623 1332.39 21.9063C1333.75 20.92 1335.14 19.9872 1336.57 19.1097C1333.67 20.7901 1330.89 22.7157 1328.23 24.8015ZM1254.48 76.018C1256.07 76.2036 1257.6 76.2936 1259.22 76.2965C1260.7 76.2978 1262.13 76.216 1263.58 76.0486C1262.96 76.0637 1262.37 76.0603 1261.76 76.0443C1260.92 76.1012 1260.07 76.1303 1259.22 76.1303C1258.24 76.1303 1257.27 76.0958 1256.32 76.0284C1255.71 76.0393 1255.1 76.0363 1254.48 76.018ZM1305.14 47.5992C1302.51 50.8986 1294.13 58.8463 1303.52 49.1987C1304.45 48.2252 1305.39 47.2875 1305.14 47.5992ZM1353.42 12.6049C1361.99 11.3795 1360.04 11.7904 1351.99 12.9953C1351.59 13.0726 1352.77 12.7294 1353.42 12.6049ZM1410.51 38.4474C1411.01 38.9708 1411.79 39.9561 1416.67 44.8916C1417.45 45.7334 1418.23 46.5733 1419.01 47.4168C1417.15 45.4081 1401.14 29.2209 1403.38 31.4485C1405.91 33.8192 1407.99 35.8582 1410.51 38.4474ZM1394.61 23.2818C1391.89 21.2429 1389.07 19.3773 1386.11 17.7555C1387.06 18.3294 1388 18.9325 1388.92 19.5545C1387.5 18.6925 1386.05 17.8824 1384.58 17.1393C1382.1 15.7798 1379.52 14.6036 1376.86 13.6571C1383.82 15.8957 1390.23 19.7294 1396.04 24.2705C1395.57 23.9355 1395.09 23.6084 1394.61 23.2818ZM1315.18 35.7776C1319.84 31.1533 1325.45 25.2331 1334.38 19.5095C1334.38 19.5069 1334.39 19.5042 1334.39 19.5016C1334.84 19.2238 1335.66 18.773 1337.14 17.9429C1337.64 17.6702 1341.97 15.1453 1347.29 13.4936C1352.59 11.747 1358.77 11.2234 1361.83 11.2946C1363.31 11.3072 1364.03 11.3684 1363.6 11.3688C1362.99 11.3527 1362.4 11.3475 1361.83 11.3513C1352.11 11.6047 1348.51 13.2235 1346.23 14.094C1345.71 14.2177 1345.18 14.354 1344.67 14.4964C1334.87 18.4522 1332.66 20.872 1327.93 24.444C1327.93 24.4004 1327.92 24.3568 1327.92 24.3133C1324.77 26.7875 1321.8 29.4706 1318.91 32.275C1319.34 31.8968 1319.76 31.5237 1320.19 31.1491C1319.16 32.1291 1318.14 33.1231 1317.14 34.1336C1314.61 36.5112 1311.56 39.7055 1315.18 35.7776ZM1406.21 33.4725C1409.01 35.0544 1429.06 58.99 1441.5 66.7101C1435.01 62.7122 1426.66 54.5478 1421.07 48.6596C1410.23 37.3068 1417.65 45.2242 1415.78 43.3297C1414.86 42.3876 1408.86 35.8476 1406.21 33.4725ZM1298.7 53.4873C1304.14 47.8226 1306.97 44.4801 1311.66 39.631C1311.29 40.0565 1310.92 40.4839 1310.55 40.9116C1308.99 42.5908 1296.06 56.4247 1298.7 53.4873ZM1460.9 74.9492C1453.29 73.3825 1451.61 72.139 1450.63 71.8632C1449.68 71.4517 1449.53 71.5234 1446.03 69.5367C1450.65 72.088 1455.68 73.9884 1460.91 74.8768C1460.91 74.9009 1460.9 74.9251 1460.9 74.9492ZM592.083 61.6308C587.136 57.5378 582.077 52.4947 579.29 49.9073C582.359 52.9493 585.482 55.9828 588.729 58.882C589.828 59.8124 590.946 60.7318 592.083 61.6308ZM747.099 13.7038C745.78 13.0576 740.206 11.5302 739.623 11.4792C738.537 11.2418 738.837 11.274 738.825 11.2599C731.533 10.0153 738.258 11.1695 732.86 10.5036C732.405 10.4633 729.85 10.1832 726.42 10.1753C722.073 10.1217 716.902 10.7088 713.976 11.3256C706.102 12.7859 698.837 16.43 696.293 17.9418C691.843 20.3466 684.368 26.0917 678.619 32.0781C676.23 34.5215 675.373 35.3513 673.069 37.9108C662.589 48.5568 647 75.125 623.807 74.5112C615.192 74.5485 607.971 71.3043 603.146 68.4722C598.943 66.0186 595.372 63.0974 593.376 61.4831C591.795 60.237 590.24 58.9406 588.712 57.6162C584.311 53.2258 582.668 51.946 577.881 47.2644C574.843 44.2747 573.504 42.8229 573.092 42.418C570.398 39.7643 569.027 38.4907 566.865 36.4503C564.447 34.1524 560.89 30.938 559.971 30.1774C559.345 29.7913 561.346 31.011 550.993 23.2742C540.326 15.6298 527.772 10.4383 514.319 10.3022C518.741 10.7575 522.612 10.9137 527.903 12.2271C529.321 12.5995 528.411 12.4096 529.635 12.7535C533.12 13.6554 539.485 16.3291 542.073 17.8222C544.881 19.3916 543.88 18.9298 547.365 21.0423C547.54 21.1518 547.021 20.7533 547.832 21.2658C555.87 26.6083 558.266 28.7434 567.208 37.0688C570.245 39.754 580.084 50.211 590.253 59.1998C600.276 68.5379 612.546 73.1989 613.402 73.1681C617.787 74.3207 606.615 72.4088 596.488 64.4567C586.296 56.8472 576.411 46.1352 574.186 44.0921C572.679 42.5928 574.305 44.1192 572.934 42.7475C572.347 42.1812 567.069 37.0171 561.623 32.1998C555.268 26.1125 540.586 16.0016 532.427 13.7739C526.286 11.6463 519.792 10.5631 513.302 10.5731C465.175 8.62202 454.736 74.4678 406.742 74.8022C382.693 75.498 367.435 53.9983 354.437 36.7474C353.494 35.5329 352.236 33.9426 349.079 30.0654C338.25 16.198 322.553 4.15219 304.13 4.74262C254.843 3.50082 247.151 73.1868 197.571 74.8229C161.127 74.2254 146.209 35.8279 120.717 16.8363C111.137 9.32534 99.2813 4.61044 87.065 4.76191C78.6879 4.72976 70.3059 6.63224 63.3729 11.3893C61.2917 12.8603 59.3545 14.5497 57.5676 16.3718C61.9129 11.231 73.0453 6.5259 74.2161 6.60368C74.5649 6.5189 76.9985 5.70509 80.8931 5.25608C83.7145 4.942 85.597 4.93669 87.065 4.94209C88.5131 4.95734 89.255 5.01257 89.4897 5.02083C90.9092 5.09528 89.9864 4.98746 91.3292 5.08377C101.503 5.979 109.031 9.1164 116.828 14.2591C125.528 20.3261 129.132 24.442 134.575 29.9494C135.145 30.6179 135.71 31.29 136.272 31.9662C140.52 35.7678 162.106 63.6061 175.681 69.4257C179.663 71.4602 178.973 71.0937 180.353 71.7003C181.315 71.8038 180.689 72.7566 192.265 74.6748C194.587 74.9381 196.205 74.9854 197.571 75.004C199.665 75.0154 200.886 74.9613 202.689 74.7702C204.302 74.5684 204.038 74.5623 206.291 74.1487C219.529 71.4187 228.451 63.9347 237.25 54.5906C239.725 51.9024 239.763 51.8933 240.307 51.284C242.299 49.0255 245.564 44.9574 250.359 39.0579C257.824 29.0627 275.544 10.9977 285.754 8.36138C287.151 7.81327 288.314 7.49078 289.36 7.16486C290.949 6.6776 291.557 6.47059 291.835 6.39627C297.241 5.21048 293.994 5.9411 297.634 5.36347C299.307 5.16101 300.906 4.92064 304.13 4.87886C304.823 4.87363 305.576 4.88244 306.395 4.915C312.496 5.31427 311.277 5.45998 313.795 5.84977C314.057 5.91146 314.183 5.8127 316.604 6.41652C326.084 8.42032 337.534 16.9734 343.512 23.8161C345.283 25.7293 346.54 27.2169 348.866 30.0364C353.261 35.7864 379.392 69.196 384.481 68.8786C384.81 69.0487 381.452 67.2767 386.715 70.2454C388.281 71.0204 389.916 71.7121 391.559 72.2859C394.275 73.3811 397.146 74.188 400.013 74.6811C399.994 74.5749 403.082 75.0281 406.742 74.991C411.563 75.047 417.014 73.9644 416.956 74.0878C418.799 73.7046 420.638 73.2019 422.419 72.5958C426.039 71.0727 428.605 70.2658 434.853 65.9954C435.851 65.3685 436.834 64.7119 437.796 64.0346C438.012 63.828 438.225 63.6201 438.438 63.411C441.759 61.0994 446.387 56.3596 446.925 55.7861C449.099 53.6055 450.699 51.9454 451.676 50.8922C455.352 46.9662 462.883 38.1305 467.251 33.6821C467.456 33.4729 467.307 33.7276 468.552 32.4648C470.815 30.2147 470.943 29.8843 474.171 27.1112C474.788 26.5128 475.411 25.924 476.044 25.3427C476.75 24.7646 477.464 24.1985 478.186 23.6456C482.377 20.2946 486.92 17.378 491.815 15.218C487.481 17.4436 492.453 14.8327 497.477 13.2131C499.176 12.6704 497.637 13.0458 498.205 12.866C498.641 12.6751 506.204 10.6398 513.302 10.8021C518.81 10.782 523.711 11.754 524.398 11.9145C525.523 12.108 526.612 12.3275 527.736 12.5897C528.284 12.7808 528.826 12.9795 529.363 13.1854C529.969 13.3421 530.566 13.5063 531.17 13.6829C537.329 15.1753 551.342 23.6256 553.508 25.7005C554.737 26.6942 553.582 25.8673 559.399 30.7226C559.636 30.8502 559.874 30.9789 560.11 31.1075C561.428 32.2393 562.73 33.3949 564.018 34.5664C566.426 36.7728 569.768 40.1629 569.83 40.3209C570.591 41.0054 571.35 41.692 572.106 42.3793C573.982 44.3852 584.339 54.7696 588.914 58.5885C590.178 59.7627 591.481 60.9315 592.797 62.0565C594.639 63.496 596.517 64.87 598.478 66.1697C602.987 69.1656 598.176 66.0644 599.135 66.7084C600.964 68.4416 612.382 73.5908 611.684 73.1664C613.307 73.7144 614.969 74.1632 616.658 74.4962C617.53 74.6182 618.408 74.7099 619.292 74.7701C620.422 74.9722 621.826 75.1407 623.807 75.1618C626.948 75.1581 631.475 74.9152 637.472 72.4498C638.267 72.0711 639.046 71.6647 639.809 71.2333C642.708 69.8245 645.438 68.0516 647.978 66.0963C648.453 65.6353 648.93 65.1589 649.386 64.6869C650.428 63.7896 651.476 62.8292 652.465 61.8775C654.644 60.0459 657.976 56.2649 659.725 54.3639C662.238 51.6035 660.52 53.9242 655.721 59.0063C656.387 58.8718 669.751 43.0343 672.88 39.5C672.657 39.7207 672.435 39.9422 672.211 40.1653C669.022 43.8213 665.922 47.577 662.745 51.2869C659.904 54.2293 668.504 44.1612 672.475 39.5954C672.849 39.1944 674.789 36.7093 679.058 32.3672C680.647 30.6083 687.599 24.6161 689.069 23.6689C700.757 15.8852 691.737 20.7901 704.203 15.0318C701.516 16.047 708.753 12.7201 716.964 11.5809C717.787 11.4287 722.564 10.8111 726.42 10.8242C728.862 10.8007 730.745 10.9238 731.046 10.9424C736.078 11.425 730.64 10.8045 737.794 11.8801C738.658 12.011 739.506 12.1605 740.339 12.328C742.022 12.7351 743.589 13.1968 745.197 13.7599C754.618 17.7047 756.36 19.5237 759.367 21.535C760.531 22.4339 759.026 21.2853 761.98 23.6939C763.073 24.626 764.343 25.5948 767.095 28.3328C775.541 37.0779 777.568 40.8089 785.167 49.1369C786.272 50.4687 787.397 51.7878 788.55 53.0851C789.384 53.9087 790.229 54.721 791.088 55.5182C797.433 61.8513 795.268 59.4371 797.71 61.5602C803.954 67.7398 820.703 73.7958 822.328 73.6827C827.294 74.5836 832.775 75.0606 836.926 75.1106C838.967 75.1432 840.533 75.0972 841.462 75.0391C843.141 74.909 844.981 74.6997 846.63 74.437C848.663 74.1887 850.675 73.8406 852.67 73.3735C851.734 73.5595 861.804 70.4522 862.637 69.6777C864.06 69.7293 877.089 59.6525 880.255 54.3611C884.014 49.6311 889.575 40.7934 890.096 40.0511C890.706 39.2004 895.94 30.4306 901.385 24.7446C903.043 22.9899 907.797 18.1102 914.669 14.9998C921.391 11.7914 929.902 10.8193 935.592 10.8757C940.348 10.8802 943.185 11.3101 942.461 11.173C940.502 10.9423 938.146 10.7752 935.592 10.7609C934.567 10.7545 933.573 10.772 932.642 10.8087C927.918 10.626 908.636 13.1997 897.731 28.725C887.032 43.3951 877.206 60.1194 870.296 64.387C861.112 71.9184 848.898 74.9529 836.926 74.8555C816.72 75.648 797.668 64.4383 785.545 49.2719C784.34 47.886 784.212 47.6273 783.195 46.4268C781.646 44.6061 777.747 39.9732 776.234 38.1745C770.709 31.3518 763.148 23.8134 759.298 21.1434C750.901 14.9221 743.917 12.5267 736.113 11.2125C734.912 11.019 731.11 10.4931 726.42 10.5238C721.894 10.5192 716.804 11.0716 712.683 11.9924C711.171 12.3083 709.634 12.696 708.169 13.1288C711.685 11.8671 720.479 10.2521 726.42 10.3954C727.535 10.3922 728.524 10.4166 729.35 10.4511C737.357 10.8439 741.41 12.2289 744.194 13.0772C746.701 13.4778 758.086 19.188 762.265 23.2949C763.629 24.4576 763.852 24.7614 764.977 25.8001C771.116 31.4385 777.927 40.1007 782.657 45.5924C780.636 43.4191 792.837 57.3288 793.813 57.7486C795.036 58.8801 796.394 60.0677 799.072 62.1744C804.349 66.0102 803.511 65.8779 810.889 69.3911C812.729 70.2712 814.577 71.0337 816.513 71.7106C816.581 71.7155 827.156 74.9607 836.926 74.6925C842.131 74.7077 846.647 74.1011 849.192 73.5372C849.25 73.5104 843.757 74.6064 836.926 74.5439C827.068 74.8505 815.383 71.2983 813.951 70.5224C797.696 65.3606 782.602 45.0242 772.368 33.147C769.464 29.2976 758.213 19.2626 757.004 18.9689C755.471 17.9614 756.82 18.9259 756.155 18.4947C749.249 14.2491 747.134 13.9645 746.944 13.7423C746.702 13.6124 748.089 14.1158 747.099 13.7038ZM1327.67 24.1164C1323.85 27.1278 1320.26 30.4562 1316.8 33.919C1317.02 33.6378 1317.24 33.3573 1317.47 33.0776C1319.07 31.5092 1320.7 29.9688 1322.37 28.4833C1323.63 27.3081 1324.91 26.1687 1326.23 25.0574C1326.71 24.7384 1327.19 24.4246 1327.67 24.1164ZM1337.51 17.316C1341.22 15.3219 1341.5 15.4237 1342.37 15.02C1345.03 13.8995 1347.39 13.0671 1350.12 12.3893C1346.99 13.2494 1340.59 15.6899 1337.51 17.316ZM1270.32 73.3868C1271.24 73.1541 1277.66 71.1547 1283.53 66.5723C1288.06 63.4065 1292.18 59.7059 1296.1 55.8606C1289.65 62.6086 1279.07 70.4235 1274.6 71.9899C1272.98 72.6927 1272.63 72.7447 1271.31 73.2178C1266.98 74.7456 1262.47 75.3425 1259.22 75.3195C1256.67 75.3176 1255.01 75.0709 1254.64 74.9354C1256.22 75.1301 1257.72 75.2139 1259.22 75.2129C1264.97 75.228 1269.39 73.6615 1270.32 73.3868ZM1307.61 43.4105C1308.51 42.5037 1309.4 41.6051 1310.3 40.7056C1307.18 44.0661 1304.09 47.4787 1300.94 50.8431C1301.75 49.9045 1302.57 48.9495 1303.38 48.0087C1304.79 46.4788 1306.2 44.9425 1307.61 43.4105ZM1010.57 63.0211C1012.77 64.8561 1015.08 66.5634 1017.52 68.0747C1017.4 67.9799 1014.65 66.1796 1013.71 65.4198C1013.72 65.423 1013.72 65.4261 1013.73 65.4293C1012.67 64.5975 1013.14 64.9314 1011.25 63.3889C1011.02 63.2678 1010.8 63.1452 1010.57 63.0211ZM55.1105 18.727C51.4982 21.7845 27.0114 58.4419 28.1517 54.611C29.7939 53.5301 39.159 41.6359 41.4383 37.8387C44.6904 32.7841 54.0148 19.7603 55.1105 18.727ZM-0.00535583 71.277C-0.347702 71.4233 6.14304 69.6897 12.4757 66.2981C18.8949 63.0154 24.6379 57.9645 25.6074 57.0191C25.1731 57.3926 24.485 57.9522 23.8913 58.4462C21.3927 61.3669 5.98895 70.203 -0.00535583 71.277ZM886.559 44.6359C887.82 42.8159 889.064 40.9837 890.319 39.1661C889.933 39.6106 889.55 40.0526 889.165 40.4973C888.298 41.8768 887.433 43.2589 886.559 44.6359ZM706.494 13.7149C671.474 23.9219 662.422 71.6858 623.807 74.7663C622.018 74.7651 620.298 74.6393 618.538 74.3829C620.301 74.621 622.02 74.7282 623.807 74.7109C625.367 74.6937 626.819 74.586 628.343 74.373C661.701 67.5145 672.615 26.3711 702.239 15.2377C703.653 14.6679 705.05 14.1687 706.494 13.7149ZM1259.9 74.7473C1259.67 74.7516 1259.44 74.7537 1259.22 74.7538C1249.96 74.7018 1242.19 71.8587 1233.94 66.1336C1242.17 71.3873 1246.87 73.6826 1256.41 74.5319C1256.41 74.5323 1256.42 74.5326 1256.42 74.533C1257.34 74.6307 1258.27 74.6969 1259.22 74.7298C1259.45 74.7378 1259.67 74.7436 1259.9 74.7473ZM1085.7 51.663C1087.66 49.548 1089.56 47.3992 1091.45 45.2401C1089.13 47.79 1086.78 50.3314 1084.36 52.7969C1084.81 52.4194 1085.26 52.0437 1085.7 51.663ZM445.841 56.07C442.385 59.5614 435.818 65.6178 428.107 69.4323C420.451 73.4127 411.958 74.3993 407.988 74.4936C407.522 74.5123 411.238 74.476 406.742 74.6636C406.131 74.6762 405.375 74.6794 404.459 74.6497C405.242 74.6843 406.005 74.6979 406.742 74.6943C411.44 74.6678 414.533 74.0166 414.877 73.8904C416.61 73.6311 418.295 73.2814 419.984 72.8284C422.755 72.0035 425.431 70.9177 428.001 69.6049C427.747 69.8016 428.026 69.8289 431.81 67.5266C433.55 66.4995 435.231 65.3807 436.861 64.189C437.52 63.6445 438.169 63.0873 438.81 62.5184C440.203 61.4688 441.565 60.3685 442.893 59.2354C447.815 54.5272 444.708 57.2855 445.841 56.07ZM469.366 30.7541C467.993 31.6495 437.329 65.6753 451.578 50.4989C455.25 46.5176 458.787 42.4245 462.412 38.4177C459.147 41.4991 469.323 30.8419 470.292 30.1124C474.4 26.0459 480.086 21.3451 483.65 19.1406C486.686 17.2085 488.622 16.2799 490.905 15.2134C497.808 11.6515 509.515 10.1798 513.302 10.332C513.768 10.3207 514.113 10.3131 514.319 10.3022C513.982 10.2964 513.642 10.2934 513.302 10.2933C506.917 10.2812 500.395 11.327 494.201 13.6847C487.413 16.4147 481.327 19.3675 471.33 29.0088C468.851 31.3834 469.668 30.4706 469.366 30.7541ZM1097.28 38.8543C1097.06 39.1149 1109.15 26.5373 1109.37 26.594C1109.35 26.5278 1105.25 30.4507 1104.68 31.0449C1104.68 31.0487 1104.67 31.0524 1104.67 31.0561C1104.43 31.2934 1105.6 30.0368 1103.72 31.9255C1101.52 34.1943 1099.39 36.5166 1097.28 38.8543ZM116.889 13.7558C116.065 13.0447 102.227 3.86523 87.065 4.40457C73.6813 3.87406 62.9127 11.0972 62.526 11.6045C62.1825 11.8615 62.6883 11.5408 62.5614 11.6543C68.6281 7.0419 78.0102 4.30397 87.065 4.48476C92.977 4.48258 98.6006 5.54617 103.078 7.03155C106.196 8.10153 105.282 7.7704 105.459 7.82028C105.467 7.8231 105.474 7.82594 105.482 7.82877C107.317 8.34224 114.811 12.3558 116.889 13.7558ZM390.978 71.6261C393.099 72.4934 395.303 73.186 397.567 73.6891C398.16 73.7737 398.731 73.8409 399.307 73.897C399.302 73.8962 399.297 73.8953 399.291 73.8944C396.454 73.4344 393.651 72.6701 390.978 71.6261ZM335.567 15.6316C335.983 16.0031 336.394 16.3799 336.801 16.762C341.198 20.4922 345.111 24.7626 348.788 29.2062C348.403 28.7679 348.017 28.3322 347.63 27.8994C353.183 34.6273 355.338 37.535 358.164 41.231C358.161 41.2268 358.158 41.2226 358.154 41.2184C358.457 41.6188 358.771 42.1339 359.903 43.6192C362.414 47.0812 370.216 56.52 371.404 57.4636C373.299 59.9507 357.671 40.9038 355.079 37.1055C353.822 35.4547 352.33 33.4536 351.545 32.4649C350.682 31.3814 349.467 29.9457 347.286 27.3801C346.718 26.5757 339.4 18.4322 335.567 15.6316ZM249.339 39.5872C250.513 38.2474 252.825 35.3346 253.712 34.2961C253.923 34.0477 252.338 36.0284 254.323 33.6805C254.853 32.9918 255.388 32.3026 255.926 31.6177C253.69 34.2409 251.511 36.9118 249.339 39.5872ZM1118.72 18.9517C1118.21 19.1097 1110.88 24.9184 1110.61 25.3218C1108.58 27.2474 1111.11 24.8983 1113.99 22.5749C1116.87 20.2193 1120.2 18.0351 1118.72 18.9517ZM1316.78 32.5644C1315.28 34.1483 1323.02 25.2806 1333.89 18.4075C1344.68 11.0526 1359.2 9.82124 1361.83 10.0973C1361.86 10.0973 1361.88 10.0972 1361.91 10.0972C1361.9 10.1013 1361.87 10.1051 1361.83 10.1086C1360.69 9.91737 1349.8 11.2562 1355.87 10.5943C1349.6 10.4403 1334.14 17.6286 1331.19 20.3572C1329.22 21.7187 1328.69 22.0358 1328.4 22.2481C1327.13 22.9398 1317.79 31.4318 1316.78 32.5644ZM1400.03 26.1361C1396.34 22.9661 1392.44 20.0268 1388.26 17.5486C1393.22 20.4425 1397.78 23.9831 1402.07 27.7906C1401.4 27.2321 1400.71 26.6784 1400.03 26.1361ZM1404.62 30.1831C1404.68 29.8861 1416.22 41.7199 1419.17 44.899C1415.66 41.4908 1410.22 35.3806 1404.62 30.1831ZM1177.69 17.8019C1170.91 14.3153 1167.73 13.4334 1176.19 17.1538C1176.45 17.2719 1177.97 17.9514 1177.69 17.8019ZM443.84 57.3761C443.146 58.5681 430.313 68.2195 429.241 68.253C426.781 69.878 435.895 64.5779 438.533 62.1745C442.899 58.518 436.882 64.3567 446.92 54.6801C446.541 55.1097 446.16 55.5363 445.776 55.9598C451.532 50.1559 449.446 51.8582 450.447 50.7888C450.752 50.4669 454.208 46.7009 454.806 45.9983C462.359 37.3027 445 56.8416 443.84 57.3761ZM1015.11 65.4715C1003.43 55.9351 1008.21 60.2457 997.689 48.8476C997.05 48.7164 1012.94 65.0143 1015.11 65.4715ZM566.569 35.6994C555.154 25.0729 544.64 16.781 530.536 12.4944C530.977 12.606 542.334 16.4195 551.37 23.154C560.514 29.6382 567.987 37.1751 566.569 35.6994ZM-34.3398 73.9561C-29.4572 74.405 -24.604 74.411 -19.524 74.0182C1.63997 72.9591 23.4467 62.7807 36.1788 43.9096C48.3759 26.2504 62.1307 2.0953 87.065 4.07845C103.38 3.75452 118.191 12.4363 129.191 23.2933C134.258 28.2427 134.579 28.8793 136.34 30.7317C137.477 31.964 137.33 31.7061 138.82 33.3623C155.018 51.4264 171.701 74.5382 197.571 74.1453C246.664 72.5185 254.108 2.98888 304.13 4.00117C313.57 3.94127 322.899 6.61418 330.758 11.7599C335.587 13.6197 351.52 31.3138 354.387 35.4743C356.884 38.3816 346.297 25.0608 344.166 23.1405C342.7 21.5813 342.682 21.4739 341.679 20.4665C340.601 19.4071 341.464 20.3101 340.195 19.0956C334.841 13.9429 327.997 9.30058 321.629 6.97311C316.039 4.84645 310.078 3.87321 304.13 3.88403C253.438 3.32661 246.1 72.8295 197.571 74.0066C182.625 74.2936 169.224 65.7679 158.904 55.3119C153.361 49.7057 154.608 50.7622 154.315 50.4918C154.311 50.488 154.308 50.4843 154.304 50.4805C136.864 31.8892 118.24 3.36563 87.065 3.90934C69.0816 2.7948 54.0634 15.8348 45.5613 29.9603C32.1236 53.9216 8.75209 73.2473 -19.5324 73.916C-23.6302 74.2471 -27.6181 74.3174 -31.5929 74.1044C-32.4735 74.0727 -33.4353 74.0207 -34.3398 73.9561ZM466.749 33.0349C463.875 35.744 463.404 36.5267 453.934 47.0282C453.194 47.9055 452.446 48.7848 451.695 49.6565C456.751 44.1431 461.581 38.4237 466.765 33.0177C466.76 33.0234 466.754 33.0292 466.749 33.0349ZM389.414 70.4898C388.396 69.9463 380.672 66.1703 373.718 58.9911C366.658 51.9759 359.948 42.6199 355.613 36.9765C353.943 34.9639 366.399 51.5292 369.803 55.0075C371.339 56.803 380.216 66.8113 389.524 70.5722C389.488 70.5448 389.451 70.5173 389.414 70.4898ZM1277.76 68.8294C1275.78 69.9507 1273.71 70.9383 1271.58 71.733C1276.95 69.7906 1281.84 66.6684 1286.31 63.091C1279.25 68.8337 1270.83 73.3671 1261.69 73.9163C1263.35 73.7405 1265.05 73.4357 1266.67 73.0192C1270.54 72.2198 1274.27 70.7448 1277.76 68.8294ZM1249.3 72.6755C1265.02 75.2185 1248.4 73.404 1244.84 71.2757C1242.64 70.359 1247.7 72.3548 1249.3 72.6755ZM1215.66 49.013C1220.9 54.4141 1232.43 64.1353 1228.2 60.8297C1222.09 55.5465 1218.39 51.8662 1210.12 43.4954C1211.36 44.6791 1212.61 45.8749 1213.84 47.0568C1213.85 47.0624 1213.85 47.0681 1213.86 47.0737C1214.46 47.7234 1215.06 48.3702 1215.66 49.013ZM1256.46 73.7469C1261.67 73.9328 1256.7 74.1847 1251.73 73.1876C1246.76 72.2106 1242.05 69.9662 1246.47 71.6724C1246.83 72.0828 1256.02 73.995 1256.46 73.7469ZM27.2628 53.7284C26.4701 54.7148 31.9841 48.8685 33.5695 46.6883C40.9364 37.6966 47.8746 24.1472 56.7359 15.5005C56.0567 16.1339 55.3987 16.7817 54.7551 17.4454C44.4508 28.8945 38.0448 43.0715 27.2628 53.7284ZM92.1359 3.92177C100.588 4.67258 108.718 7.65533 115.834 12.1656C116.51 12.5643 119.586 14.59 117.326 13.0421C109.839 8.04318 101.171 4.69168 92.1359 3.92177ZM512.547 9.53614C510.18 9.58074 511.125 9.49686 513.302 9.45298C517.108 9.26213 524.381 10.3279 523.841 10.4355C520.364 9.82026 516.873 9.52279 513.302 9.5299C513.049 9.53044 512.797 9.53253 512.547 9.53614ZM565.595 34.2025C562.626 31.4798 559.58 28.8326 556.408 26.3365C556.42 26.3139 556.431 26.2913 556.442 26.2687C559.605 28.7885 562.639 31.4581 565.595 34.2025ZM-0.339951 70.1712C3.7141 69.1992 13.097 65.1962 18.1303 61.4528C14.6553 64.0225 5.42004 68.6836 -0.339951 70.1712ZM436.254 63.4311C436.489 63.2981 431.544 67.0757 426.866 69.2228C422.218 71.4225 418.213 72.3654 422.326 71.0191C427.322 69.2668 431.987 66.6083 436.254 63.4311ZM388.259 69.3786C393.082 71.7714 397.204 72.5501 396.094 72.4083C393.351 71.6982 390.66 70.6792 388.116 69.4036C388.164 69.3953 388.212 69.387 388.259 69.3786ZM1195.09 29.1299C1188.02 23.1836 1180.23 17.9268 1171.64 14.3691C1171.97 14.4792 1172.29 14.5915 1172.62 14.706C1180.85 18.254 1188.34 23.3589 1195.16 29.0942C1195.14 29.1061 1195.11 29.118 1195.09 29.1299ZM-5.36761 71.2846C-10.0444 72.3836 -14.671 73.0725 -19.5673 73.491C-21.0888 73.6199 -22.5826 73.711 -24.0493 73.7657C-22.5823 73.7187 -21.0879 73.6353 -19.5654 73.5141C-14.6607 73.1199 -10.0235 72.4545 -5.32994 71.3762C-5.33739 71.3443 -5.34483 71.3124 -5.35227 71.2805C-5.35738 71.2819 -5.3625 71.2832 -5.36761 71.2846ZM1297.1 52.0282C1277.04 71.4352 1302.55 46.6338 1307.38 40.8728C1307.38 40.8669 1307.39 40.861 1307.39 40.855C1307.84 40.3875 1306.96 41.4465 1307.72 40.6713C1305.75 42.7543 1303.79 44.8487 1301.83 46.9239C1300.09 48.8675 1298.34 50.7959 1296.56 52.6912C1295.96 53.2898 1295.34 53.8953 1294.73 54.4907C1295.53 53.6739 1296.32 52.8543 1297.1 52.0282ZM1394.15 20.1085C1413.95 36.6588 1394.63 18.3857 1382.51 13.4716C1382.71 13.2783 1392.34 18.5192 1394.15 20.1085ZM1330.64 19.4076C1327.3 21.7375 1324.16 24.3249 1321.17 27.0548C1320.77 27.3853 1320.37 27.7188 1319.98 28.0549C1322.25 25.9302 1324.6 23.8738 1327.05 21.9474C1328.23 21.0706 1329.43 20.2187 1330.64 19.4076ZM1224.91 56.7327C1220.28 52.2897 1213.92 47.1323 1229.35 60.7547C1229.36 60.729 1229.36 60.7033 1229.37 60.6776C1228.73 60.1652 1226.89 58.6278 1226.8 58.5353C1226.52 58.2806 1226.89 58.5235 1224.91 56.7327ZM1428.8 52.3552C1429.34 52.8189 1429.71 53.0418 1435.09 58.1717C1436.81 59.6384 1438.55 61.0325 1440.36 62.3514C1440.78 62.7397 1441.22 63.1237 1441.66 63.5059C1434.72 58.3295 1434.15 57.5108 1433.64 57.1559C1431.47 55.2165 1433.1 56.6149 1431.73 55.3471C1428.15 52.1069 1420.46 44.1054 1424.07 47.6106C1425.37 48.8744 1428.28 51.8696 1428.8 52.3552ZM1416.92 39.8955C1417.65 40.687 1415.2 38.2379 1415.75 38.8392C1416.23 39.368 1423.51 47.1294 1421.43 45.132C1420.23 43.8629 1419.03 42.5977 1417.83 41.3237C1417.44 40.8697 1417.06 40.4163 1416.68 39.9626C1415.48 38.7581 1414.28 37.5541 1413.07 36.3579C1411.15 34.2388 1406.89 29.8415 1412.06 34.9375C1410.19 33.039 1408.28 31.1603 1406.33 29.3285C1405.29 28.4046 1404.24 27.4919 1403.18 26.6005C1403.76 27.0368 1404.34 27.4789 1404.92 27.9261C1409.11 31.773 1413.04 35.8316 1416.92 39.8955ZM1485.16 69.287C1484.88 69.4291 1484.6 69.5687 1484.31 69.706C1493.33 66.6656 1505.4 57.6334 1498.52 62.6261C1489.45 68.5199 1479.12 72.8297 1468.39 72.8037C1466.29 72.8053 1464.28 72.6587 1462.24 72.3528C1461.41 72.2027 1460.59 72.028 1459.77 71.8248C1465.27 72.9528 1466.56 72.6052 1468.39 72.593C1469.64 72.519 1471.12 72.5136 1474.45 72.1126C1475.8 71.8283 1471.92 73.0055 1480.42 70.9295C1480.11 70.981 1479.8 71.0294 1479.49 71.0752C1481.4 70.5919 1483.3 69.9859 1485.16 69.287ZM1549.74 17.6286C1536.68 28.4135 1550.76 16.1881 1553.64 14.7143C1553.64 14.7173 1553.64 14.7203 1553.63 14.7233C1560.99 10.0889 1545.56 20.535 1545.02 21.5851C1543.91 22.5479 1541.37 24.9622 1535.39 30.2977C1539.97 25.9242 1544.63 21.5777 1549.74 17.6286ZM1509.47 54.302C1510.53 53.4172 1509.97 53.9423 1510.43 53.5598C1510.44 53.5564 1510.44 53.5531 1510.45 53.5497C1517.34 48.0379 1532.36 33.0891 1534.18 31.6152C1529.52 36.3886 1508.03 56.4468 1506.23 56.9879C1507.32 56.1099 1508.4 55.2101 1509.47 54.302ZM1453.68 69.9289C1448.8 67.9365 1459.87 72.2464 1463.05 72.244C1463.64 72.3099 1458.77 72.0319 1453.68 69.9289ZM1102.83 29.8127C1094.42 38.6087 1105.56 27.1482 1101.79 31.1919C1103.39 29.5242 1105.05 27.869 1106.74 26.2667C1105.41 27.4242 1104.11 28.6099 1102.83 29.8127ZM656.968 53.0997C655.093 55.1534 656.021 54.2123 655.859 54.3934C654.643 55.72 653.4 56.9388 652.926 57.4276C643.753 66.3172 649.93 60.505 650.066 60.4446C650.301 60.3004 647.896 62.6551 651.331 59.5118C653.366 57.5133 655.293 55.4343 657.198 53.285C658.177 52.2436 659.131 51.2072 660.1 50.1389C663.775 45.7636 658.882 51.4296 658.243 51.9856C657.999 52.206 661.512 48.1627 656.968 53.0997ZM1087.95 45.5668C1086.71 47.0729 1083.55 50.6171 1086.82 47.2841C1086.82 47.2802 1086.83 47.2764 1086.83 47.2725C1087.44 46.6577 1089.83 44.0635 1090.58 43.2761C1095.69 37.436 1093.59 39.5686 1087.95 45.5668ZM694.27 16.3417C698.446 13.9047 702.911 11.9308 707.573 10.5352C707.513 10.6182 707.453 10.7012 707.394 10.7842C704.893 11.5419 702.488 12.4473 700.12 13.5149C699.312 13.9167 698.51 14.3376 697.712 14.7785C700.6 13.376 703.579 12.2042 706.66 11.2756C710.294 10.0642 714.101 9.20243 717.903 8.70135C716.191 8.88268 714.364 9.15583 712.65 9.48975C721.371 7.89843 720.127 8.38789 726.42 8.2418C726.837 8.24593 727.283 8.25328 727.762 8.2657C730.429 8.25783 733.109 8.40364 735.737 8.72381C739.6 9.33722 743.341 10.3222 746.976 11.7391C753.027 14.1541 753.499 14.5853 749.531 12.6218C752.57 13.8588 755.633 15.6542 758.865 17.8599C759.13 18.0412 758.673 17.6379 758.907 17.7992C774.697 30.2643 772.496 30.8458 774.865 32.9382C776.352 34.6055 782.046 41.2971 782.163 41.3698C782.336 41.4074 770.783 27.4682 789.142 49.0904C779.847 37.9607 768.572 24.9953 775.624 33.4787C773.063 29.5052 757.058 15.4533 755.32 15.4478C753.602 14.4541 754.241 14.6864 752.032 13.5544C750.66 13.0807 747.277 10.6585 735.758 8.57749C734.315 8.40286 732.802 8.27462 731.31 8.20189C729.965 8.07945 728.585 7.99649 727.167 7.95501C730.063 7.88912 732.917 7.99502 735.764 8.30519C732.507 7.87142 729.441 7.70025 726.42 7.69442C719.181 7.67294 712.953 8.73772 708.238 10.2477C702.475 11.9696 699.877 13.3767 702.212 12.2311C700.523 12.926 698.915 13.6739 697.296 14.5118C696.263 15.098 695.269 15.7006 694.27 16.3417ZM1061.6 67.7504C1056.6 70.0428 1054.69 70.5595 1055.53 70.3664C1060.15 68.954 1064.17 66.4453 1061.6 67.7504ZM663.828 45.3472C667.964 40.56 672.132 35.7213 676.656 31.1682C676.609 31.1225 676.562 31.0768 676.515 31.0311C672.032 35.6366 667.914 40.5177 663.828 45.3472ZM1103.99 28.4456C1104.44 28.0646 1104.9 27.6867 1105.36 27.3124C1110.25 22.2547 1116.07 18.1442 1119.03 16.2421C1119.67 15.8224 1118.32 16.5683 1117.1 17.3874C1116.12 17.6381 1104.67 27.4049 1103.99 28.4456ZM1344.26 11.0589C1341.73 12.0011 1339.3 13.1279 1336.96 14.4049C1337.06 14.2872 1337.17 14.1697 1337.27 14.0525C1338.44 13.4341 1339.63 12.8523 1340.84 12.3113C1341.96 11.8581 1343.1 11.4398 1344.26 11.0589ZM1319.15 27.4877C1315.72 30.6681 1312.47 34.0064 1309.3 37.3808C1321.59 24.6192 1311.34 34.9593 1319.04 27.3703C1319.08 27.4095 1319.11 27.4486 1319.15 27.4877ZM1286.49 60.5791C1286.9 60.1929 1287.28 59.8153 1287.68 59.4255C1291.06 56.4574 1294.28 53.2247 1297.42 49.9151C1295.34 51.9385 1293.25 53.91 1291.11 55.8082C1289.91 56.9547 1288.7 58.0726 1287.46 59.1571C1287.14 59.6351 1286.83 60.1021 1286.49 60.5791ZM558.857 25.9742C556.747 24.0763 548.552 18.4684 548.83 18.8135C552.287 21.0808 555.558 23.5699 558.699 26.1936C558.755 26.1547 558.811 26.1159 558.867 26.0771C559.294 26.4684 559.719 26.8623 560.14 27.2586C561.939 28.7346 563.695 30.2486 565.423 31.7904C566.247 32.6187 567.063 33.4529 567.871 34.2911C568.767 35.0436 569.659 35.8034 570.544 36.5652C562.546 28.8016 562.591 29.2765 560.852 27.7288C559.948 26.9619 559.394 26.4546 559.082 26.1717C559.007 26.1058 558.932 26.04 558.857 25.9742ZM666.35 41.7403C657.772 51.7845 653.158 57.7074 645.945 63.4119C651.707 61.2994 675.031 28.8148 687.641 20.9488C688.801 20.0139 689.988 19.1113 691.213 18.2401C684.712 22.6585 680.786 26.3829 678.063 28.9915C675.927 31.0979 676.204 30.925 676.039 31.0851C676.032 31.0928 676.024 31.1005 676.017 31.1082C671.167 36.1465 669.773 37.7862 666.35 41.7403ZM1111.2 21.5218C1108.31 23.766 1103.79 28.1756 1103.84 28.3166C1106.35 25.878 1108.96 23.504 1111.71 21.279C1111.14 21.7186 1111.68 21.1361 1111.2 21.5218ZM1282.21 63.5517C1280.09 65.1911 1274.68 68.2541 1277.06 67.0181C1277.54 66.8644 1282.7 63.3487 1279.74 65.5301C1284.77 62.0686 1283.43 62.6303 1282.21 63.5517ZM858.243 68.3457C860.295 67.4947 862.247 66.5018 864.142 65.3379C864.556 65.0304 864.955 64.7214 865.358 64.3988C863.141 65.931 860.753 67.2575 858.243 68.3457ZM1138.87 7.92584C1141.93 7.6338 1147.19 7.01931 1152.92 7.84725C1153.17 7.88312 1153.43 7.92107 1153.69 7.96118C1155.91 8.24075 1158.05 8.60956 1160.24 9.09268C1160.25 9.09385 1160.25 9.09503 1160.26 9.09621C1160.33 9.04937 1160.4 9.00263 1160.47 8.95599C1157.96 8.39477 1155.51 7.98213 1152.93 7.68654C1148.23 7.14776 1143.52 7.18887 1138.87 7.92584ZM737.536 8.67336C739.037 8.96555 740.422 9.29232 741.899 9.70292C744.498 10.3404 747.053 11.1765 749.498 12.1906C748.192 11.6045 746.854 11.068 745.463 10.5788C742.901 9.75226 740.223 9.11277 737.536 8.67336ZM1176.91 14.7831C1169.89 11.4834 1167.09 10.6196 1176.16 14.6008C1179.89 16.4478 1184.05 18.618 1176.91 14.7831ZM436.607 61.0362C438.574 59.5064 440.471 57.8666 442.312 56.1569C442.909 55.5387 443.501 54.9118 444.081 54.2826C441.688 56.6723 439.213 58.9503 436.607 61.0362ZM1307.25 39.0039C1307.08 39.2539 1306.9 39.5039 1306.73 39.7539C1305.16 41.4389 1303.61 43.1229 1302.05 44.806C1302.4 44.3549 1302.77 43.901 1303.13 43.4494C1304.49 41.9736 1305.87 40.4831 1307.25 39.0039ZM448.927 49.4258C450.316 47.9483 451.698 46.4364 453.069 44.9201C453.974 43.8813 454.873 42.8406 455.777 41.7955C454.484 43.2179 453.192 44.6395 451.898 46.0429C450.915 47.1783 449.921 48.3133 448.927 49.4258ZM1231.43 60.817C1229.19 59.1213 1220.7 51.6199 1228.3 58.4289C1233.27 62.5913 1231.76 61.0533 1231.43 60.817ZM1244.11 68.6295C1234.94 63.4191 1241.17 69.342 1253.39 71.487C1247.3 70.403 1245.25 69.1203 1244.5 68.8582C1243.76 68.5139 1244.39 68.7542 1244.11 68.6295ZM1319.91 25.8009C1320.12 25.6158 1320.33 25.4946 1322.04 24.0129C1328.1 18.5675 1337.54 12.7978 1343.24 10.8724C1347.22 9.34027 1354.03 7.42996 1361.83 7.4649C1380.99 6.47264 1399.61 21.9509 1401.76 24.1843C1402.52 24.8918 1400.62 23.4335 1400.93 23.7141C1401.91 24.4876 1407.22 29.2559 1406.17 28.4397C1401.08 23.6731 1395.61 19.1714 1389.46 15.559C1391 16.3885 1392.51 17.2739 1393.98 18.2107C1378.8 8.9856 1383.49 12.5618 1378.79 10.5818C1375.95 9.54733 1373 8.751 1369.99 8.22583C1367.29 7.82645 1364.59 7.64327 1361.83 7.66513C1357.89 7.69886 1354.06 8.14869 1350.24 9.05092C1351.69 8.67849 1353.18 8.36625 1354.65 8.12426C1344.83 9.85009 1347.57 9.57867 1342.46 11.4236C1342.44 11.3897 1342.41 11.3558 1342.39 11.322C1333.6 15.2074 1332.27 16.6264 1330.48 17.6722C1327.02 20.1264 1322.64 23.4382 1311.29 34.5358C1306.86 39.535 1306.66 39.122 1304.19 42.1513C1296.49 50.2771 1310.63 34.4062 1318.24 27.3935C1318.25 27.3898 1318.25 27.3861 1318.25 27.3824C1318.82 26.856 1317.88 27.6518 1319.91 25.8009ZM1279.1 65.6103C1281.74 63.7021 1277.81 66.5115 1273.77 68.3792C1269.74 70.2827 1265.67 71.2313 1269.69 70.2522C1270.86 69.8754 1272.03 69.4345 1273.17 68.9405C1275.22 67.9907 1277.21 66.8588 1279.11 65.6022C1279.11 65.6049 1279.11 65.6076 1279.1 65.6103ZM1069.75 62.0268C1059.99 68.9011 1057.17 68.875 1058.58 68.5844C1059.9 68.1271 1064.72 65.7766 1067.99 63.3794C1069.31 62.4512 1069.99 61.8831 1069.75 62.0268ZM653.911 55.7223C653.684 55.9985 653.457 56.2729 653.229 56.5453C658.862 50.7276 669.193 38.2572 669.009 38.3781C663.901 44.2297 659.093 50.2365 653.911 55.7223ZM703.323 11.5054C701.506 12.0469 694.692 15.5008 695.569 15.1736C698.474 13.6121 701.53 12.2636 704.636 11.1925C706.077 10.6417 707.544 10.1459 709.012 9.71111C706.957 10.2405 703.773 11.3166 703.323 11.5054Z" fill="#6A892C"/>
<path d="M517.611 2.20825C514.85 2.20825 512.611 4.44683 512.611 7.20825C512.611 9.96968 514.85 12.2083 517.611 12.2083V7.20825V2.20825ZM704.07 17.0102C704.734 14.3296 703.098 11.6189 700.418 10.9556L656.735 0.147462C654.054 -0.51578 651.344 1.11961 650.68 3.8002C650.017 6.48079 651.653 9.1915 654.333 9.85474L693.162 19.462L683.555 58.2911C682.892 60.9717 684.527 63.6824 687.208 64.3457C689.888 65.0089 692.599 63.3735 693.262 60.6929L704.07 17.0102ZM517.611 7.20825V12.2083C540.995 12.2083 557.42 26.7416 573.792 42.8989C581.778 50.7795 589.881 59.1613 598.456 65.4602C607.133 71.8343 616.793 76.4718 628.117 76.4718V71.4718V66.4718C619.708 66.4718 612.102 63.0763 604.376 57.401C596.547 51.6505 589.11 43.9664 580.816 35.7812C564.629 19.8066 545.534 2.20825 517.611 2.20825V7.20825ZM628.117 71.4718V76.4718C645.716 76.4718 657.55 65.2868 667.935 53.5152C678.712 41.2989 688.148 28.3267 701.8 20.0905L699.217 15.8093L696.634 11.528C681.26 20.8034 670.35 35.6625 660.436 46.8995C650.13 58.5812 640.927 66.4718 628.117 66.4718V71.4718Z" fill="url(#paint0_linear_3579_12448)"/>
<defs>
<linearGradient id="paint0_linear_3579_12448" x1="517.47" y1="7.20825" x2="704.41" y2="15.7392" gradientUnits="userSpaceOnUse">
<stop stop-color="#66862E"/>
<stop offset="1" stop-color="#66862E"/>
</linearGradient>
</defs>
</svg>
