<svg width="264" height="180" viewBox="0 0 264 180" fill="none" xmlns="http://www.w3.org/2000/svg">
<path d="M50.1241 37.8944C50.4799 34.7177 51.3695 31.6173 52.793 28.5677C54.2164 25.5181 55.9956 22.9514 58.1561 20.8421C59.6558 19.4951 61.3842 18.9615 63.3414 19.2664C65.2986 19.5714 66.7474 20.5879 67.7133 22.3414C70.738 27.5258 71.6531 33.0151 70.433 38.7839C69.8738 40.9186 69.7467 42.5959 70.0263 43.7903C70.2297 44.8323 70.7635 45.8234 71.6531 46.7383C72.5427 47.6785 73.0003 48.4409 73.0765 49.0509C73.3053 50.474 72.8732 51.4906 71.7802 52.0496C70.7126 52.6342 69.4417 52.4817 67.9675 51.643C67.205 51.211 66.6712 51.0331 66.3407 51.1094C66.0103 51.1856 65.5782 51.5414 65.019 52.2021C63.1889 54.4131 61.2317 55.6583 59.1983 55.9379C55.8431 56.4207 53.2759 54.6164 51.4966 50.5248C49.7174 46.4587 49.2853 42.2401 50.1495 37.8944H50.1241ZM59.8083 48.5172C61.918 46.5858 63.4177 43.0025 64.2819 37.7419C65.0953 33.3962 64.8157 30.0417 63.4685 27.6274C63.0618 26.9667 62.6043 26.6109 62.0705 26.5855C61.5367 26.5601 61.0538 26.8396 60.5454 27.5004C58.4612 30.55 57.0886 34.0824 56.3769 38.0469C55.4618 42.7484 55.7923 46.23 57.3428 48.4664C58.0799 49.3558 58.8933 49.3558 59.8083 48.4918V48.5172Z" fill="white"/>
<path d="M86.6752 44.502C85.3026 46.2047 83.7267 47.0942 81.9475 47.1704C80.1682 47.2467 78.516 46.5097 76.9909 44.9595C74.5254 41.9353 73.4324 38.0724 73.7374 33.3202C74.0425 28.5679 75.415 24.2476 77.8297 20.3593C78.6685 19.0633 79.6344 17.9959 80.7528 17.1064C82.3541 16.0899 83.8792 16.1407 85.328 17.3097C85.9381 17.8688 86.6244 18.2246 87.3869 18.3771C88.5816 18.7583 89.5474 19.7748 90.2591 21.4013C90.9708 23.0278 91.3521 24.7559 91.4029 26.611C91.4029 34.6671 89.827 40.6138 86.6752 44.502ZM81.8204 40.7409C82.7862 40.7154 83.6505 39.521 84.413 37.1322C85.1755 34.7433 85.5822 32.1766 85.7093 29.3557C85.811 26.5348 85.5822 24.578 84.9976 23.4598C84.2351 22.2145 83.32 22.4178 82.2016 24.0697C79.609 28.7712 78.7194 33.2439 79.5327 37.4879C79.9649 39.7243 80.7274 40.7917 81.8458 40.7409H81.8204Z" fill="white"/>
<path d="M105.586 47.6785C103.019 49.2541 100.477 49.4066 97.9864 48.1359C95.4955 46.8653 93.9958 44.6543 93.4874 41.4522C92.9028 37.6148 93.3095 32.9388 94.6567 27.4241C96.0038 21.9094 97.8085 18.0465 100.045 15.8102C102.536 13.2434 105.205 13.0147 108.077 15.124C109.12 15.9626 109.882 16.9283 110.441 18.0465C111 19.1647 111.153 20.1813 110.899 21.0453C110.619 22.011 110.009 22.6463 109.069 22.9005C108.128 23.1546 107.264 22.9513 106.527 22.2652C106.273 22.011 105.968 21.6044 105.612 21.0961C105.256 20.5879 104.875 20.2829 104.443 20.2067C102.892 20.2067 101.469 23.0021 100.172 28.6693C98.8761 34.3365 98.571 38.428 99.2573 40.944C99.5369 42.113 100.096 42.8245 100.96 43.0279C101.825 43.2566 102.689 42.9262 103.528 42.0367C103.96 41.5539 104.621 40.5628 105.586 39.0634C106.552 37.564 107.111 36.7253 107.34 36.5474C107.976 36.0646 108.637 35.8867 109.374 35.9629C110.111 36.0646 110.695 36.395 111.102 36.9795C112.043 38.1739 111.788 39.9783 110.34 42.3925C108.865 44.8068 107.289 46.5349 105.612 47.6277L105.586 47.6785Z" fill="white"/>
<path d="M114.635 38.2504C115.169 35.4295 115.728 31.5413 116.312 26.5603L117.126 19.1142C117.558 17.3861 118.498 16.5728 119.896 16.6745C121.701 16.6745 122.54 18.2501 122.489 21.3251C122.489 22.5704 122.387 23.9173 122.235 25.3659C122.082 26.8398 121.93 28.0851 121.803 29.1016C121.676 30.1181 121.447 31.4651 121.193 33.1423C120.939 34.8196 120.71 36.0903 120.583 36.9798C119.947 41.4525 119.464 44.0701 119.159 44.7816C118.651 46.154 117.787 46.7639 116.592 46.586C114.609 46.4589 113.847 44.6038 114.304 41.0205C114.355 40.7663 114.482 39.826 114.711 38.2504H114.635Z" fill="white"/>
<path d="M128.462 37.5142C127.013 37.438 126.149 36.6247 125.844 35.0999C125.742 34.5662 125.844 33.0414 126.098 30.5509C126.378 28.0604 126.683 25.7732 127.039 23.6385C127.14 22.8507 127.318 21.6817 127.522 20.1569C127.75 18.6321 127.928 17.4631 128.056 16.6753C128.183 15.8874 128.361 14.8709 128.589 13.6511C128.818 12.4312 129.021 11.4655 129.225 10.8048C129.428 10.1186 129.657 9.43245 129.936 8.69546C130.216 7.98389 130.521 7.45021 130.851 7.09442C131.182 6.73863 131.589 6.53533 132.046 6.43367C133.012 6.15413 133.927 6.38285 134.791 7.14525C136.062 8.18719 137.714 11.2368 139.773 16.2686L140.968 18.8862C141.527 19.9027 142.086 20.3602 142.696 20.2585C142.798 20.2585 142.9 20.2077 142.976 20.1569C143.078 20.1061 143.154 20.0298 143.23 19.9282C143.306 19.8011 143.357 19.6994 143.408 19.6232C143.433 19.547 143.484 19.3945 143.56 19.2166C143.637 19.0133 143.688 18.8354 143.738 18.6829C143.789 18.5304 143.84 18.3017 143.865 17.9967C143.916 17.7172 143.967 17.4631 143.993 17.2343C144.018 17.031 144.069 16.7261 144.12 16.3195C144.171 15.9129 144.221 15.6079 144.272 15.3283C145.187 9.61034 146.102 6.20495 147.017 5.11218C147.475 4.60391 148.034 4.29895 148.695 4.17188C149.356 4.04482 149.991 4.17188 150.627 4.60391C151.262 5.01052 151.643 5.62044 151.745 6.43367C151.821 6.84029 151.745 7.45021 151.567 8.31426C150.474 11.9992 149.33 17.8443 148.136 25.7986C147.653 28.9753 147.322 31.11 147.119 32.2282C146.839 33.4989 146.179 34.2613 145.086 34.4646C143.942 34.6933 142.874 34.3121 141.883 33.3718C141.578 33.0669 141.273 32.7365 140.993 32.3553C140.714 31.9741 140.409 31.415 140.053 30.6526C139.697 29.8902 139.367 29.1532 139.061 28.4162C138.731 27.6792 138.223 26.5102 137.511 24.9092C136.799 23.3081 136.088 21.7579 135.401 20.2331C135.096 19.7757 134.715 19.5724 134.257 19.6486C133.775 19.7249 133.495 19.979 133.368 20.4618C132.529 23.5877 131.843 28.1367 131.284 34.0834C131.055 36.4214 130.114 37.565 128.462 37.4634V37.5142Z" fill="white"/>
<path d="M168.115 37.5394C167.81 37.5394 167.556 37.5394 167.352 37.4885C167.149 37.4631 166.92 37.3869 166.742 37.2598C166.539 37.1328 166.386 37.0311 166.259 36.9295C166.132 36.8278 166.005 36.6499 165.878 36.3958C165.751 36.1416 165.675 35.9383 165.624 35.7859C165.573 35.6334 165.497 35.3792 165.395 35.0235C165.293 34.6677 165.242 34.3881 165.192 34.2102L165.014 33.2445L164.81 32.2534C164.683 31.1098 164.073 30.5761 162.98 30.6778L158.176 31.3639C157.439 31.5164 156.88 32.0501 156.499 32.9904C155.05 36.6499 154.135 38.7338 153.754 39.1912C152.864 40.1315 151.796 40.3348 150.576 39.8012C148.924 39.1404 148.619 37.5394 149.661 34.9726L153.906 23.4096C154.872 20.7157 156.321 17.5137 158.253 13.7779C160.184 10.0421 161.684 7.70411 162.802 6.71299C163.87 5.79811 164.937 5.46773 166.03 5.74728C167.123 6.02683 167.911 6.78923 168.344 8.03448C168.826 9.43222 169.36 13.8796 169.97 21.3765C170.58 28.8734 170.809 33.4478 170.682 35.1251C170.606 35.8113 170.352 36.3704 169.894 36.8024C169.436 37.2598 168.852 37.4885 168.14 37.514L168.115 37.5394ZM162.548 25.0106C163.743 24.7819 164.302 24.1211 164.251 23.0029C164.15 21.1224 164.048 19.9279 163.946 19.3688C163.845 18.8097 163.616 18.5302 163.234 18.5048C162.421 18.3015 161.608 19.1147 160.744 20.9699C159.905 22.825 159.727 24.0703 160.261 24.6802C160.54 25.1377 161.328 25.2393 162.548 25.0106Z" fill="white"/>
<path d="M178.79 31.872C178.485 31.9228 178.231 31.9736 177.977 31.9736C177.748 31.9736 177.519 31.9482 177.316 31.8466C177.112 31.7703 176.935 31.6687 176.757 31.567C176.579 31.4654 176.426 31.2875 176.274 31.0587C176.121 30.83 176.019 30.6267 175.943 30.4996C175.867 30.3726 175.765 30.1184 175.664 29.7627C175.562 29.4069 175.486 29.1527 175.435 29.0003C175.384 28.8478 175.308 28.5682 175.206 28.1616C175.104 27.755 175.028 27.45 174.977 27.323C173.961 23.1298 173.046 16.751 172.232 8.21214C172.003 5.56915 173.02 3.48526 175.308 1.96046C177.595 0.435657 180.112 -0.199676 182.908 0.0544572C185.399 -0.0217829 187.356 0.689791 188.779 2.18918C190.203 3.68857 190.66 5.56915 190.152 7.83094C190.05 8.41545 189.898 8.94913 189.694 9.40657C189.491 9.88942 189.288 10.2706 189.11 10.5502C188.932 10.8297 188.576 11.2872 188.118 11.8971C187.635 12.507 187.254 12.9899 186.975 13.371C186.085 14.5655 186.415 15.3787 187.966 15.8107C190.609 16.3952 193.38 17.1831 196.328 18.1742C199.023 19.0636 200.522 20.131 200.827 21.4017C201.26 22.6977 201.005 23.638 200.065 24.2225C199.124 24.8071 197.879 24.8325 196.328 24.2734C194.727 23.5872 192.134 22.7486 188.576 21.7575C185.017 20.7663 182.628 20.2072 181.383 20.0802C180.773 20.0293 180.29 20.1818 179.934 20.5122C179.578 20.8426 179.451 21.2746 179.603 21.8083C179.603 22.0116 179.756 22.5453 179.959 23.4093C180.163 24.2734 180.315 24.8833 180.366 25.2391C180.417 25.5949 180.518 26.154 180.646 26.9418C180.773 27.7296 180.798 28.3141 180.747 28.7207C180.696 29.1273 180.595 29.5848 180.493 30.093C180.391 30.6267 180.188 31.0079 179.883 31.2875C179.578 31.567 179.222 31.7449 178.765 31.872H178.79ZM178.765 11.6429C179.502 12.1766 180.722 11.6175 182.425 9.96566C184.052 8.56793 184.611 7.39891 184.128 6.50945C183.645 5.67081 182.526 5.44209 180.773 5.82329C179.019 6.20449 178.104 6.83982 178.053 7.72929C177.875 9.8386 178.104 11.1347 178.79 11.6429H178.765Z" fill="white"/>
<path d="M45.0913 96.9295C42.5241 98.5051 39.9823 98.6576 37.4913 97.3869C35.0003 96.1162 33.5007 93.9053 32.9923 90.7032C32.4077 86.8658 32.8144 82.1897 34.1615 76.675C35.5087 71.1603 37.3134 67.2975 39.5502 65.0611C42.0411 62.4944 44.71 62.2657 47.5822 64.375C48.6244 65.2136 49.3869 66.1793 49.9461 67.2975C50.5053 68.4157 50.6578 69.4322 50.4036 70.2963C50.124 71.262 49.514 71.8973 48.5736 72.1515C47.6331 72.4056 46.7689 72.2023 46.0318 71.5161C45.7776 71.262 45.4726 70.8554 45.1167 70.3471C44.7609 69.8388 44.3796 69.5339 43.9475 69.4576C42.397 69.4576 40.9736 72.2531 39.6773 77.9203C38.3809 83.5875 38.0759 87.679 38.7622 90.1949C39.0418 91.3639 39.601 92.0755 40.4652 92.2788C41.3294 92.5075 42.1936 92.1772 43.0324 91.2877C43.4645 90.8049 44.1254 89.8137 45.0913 88.3143C46.0572 86.815 46.6164 85.9763 46.8451 85.7984C47.4806 85.3156 48.1414 85.1377 48.8786 85.2139C49.6157 85.3156 50.2003 85.6459 50.607 86.2304C51.5475 87.4249 51.2933 89.2292 49.8444 91.6435C48.3702 94.0578 46.7943 95.7859 45.1167 96.8786L45.0913 96.9295Z" fill="white"/>
<path d="M65.9594 94.2867C64.5868 95.9894 63.0109 96.8789 61.2316 96.9551C59.4524 97.0313 57.8002 96.2943 56.2751 94.7441C53.8096 91.7199 52.7166 87.8571 53.0216 83.1048C53.3266 78.3525 54.6992 74.0323 57.1139 70.144C57.9527 68.8479 58.9186 67.7806 60.037 66.8911C61.6383 65.8746 63.1634 65.9254 64.6122 67.0944C65.2223 67.6535 65.9085 68.0093 66.6711 68.1618C67.8657 68.543 68.8316 69.5595 69.5433 71.186C70.255 72.8124 70.6363 74.5405 70.6871 76.3957C70.6871 84.4517 69.1112 90.3985 65.9594 94.2867ZM61.0791 90.5255C62.045 90.5001 62.9092 89.3057 63.6718 86.9168C64.4343 84.528 64.841 81.9612 64.9681 79.1403C65.0697 76.3195 64.841 74.3626 64.2564 73.2444C63.4938 71.9992 62.5788 72.2025 61.4604 73.8544C58.8678 78.5558 57.9781 83.0286 58.7915 87.2726C59.2236 89.509 59.9862 90.5763 61.1045 90.5255H61.0791Z" fill="white"/>
<path d="M75.3894 90.5772C73.9406 90.5009 73.0764 89.6877 72.7714 88.1629C72.6697 87.6292 72.7714 86.1044 73.0256 83.6139C73.3052 81.1234 73.6102 78.8362 73.966 76.7015C74.0677 75.9137 74.2456 74.7447 74.449 73.2199C74.6777 71.6951 74.8557 70.5261 74.9827 69.7382C75.1098 68.9504 75.2878 67.9339 75.5165 66.714C75.7453 65.4942 75.9486 64.5285 76.152 63.8678C76.3553 63.1816 76.5841 62.4954 76.8637 61.7584C77.1433 61.0469 77.4483 60.5132 77.7787 60.1574C78.1092 59.8016 78.5159 59.5983 78.9734 59.4967C79.9393 59.2171 80.8543 59.4458 81.7185 60.2082C82.9894 61.2502 84.6416 64.2998 86.7004 69.3316L87.8951 71.9492C88.4543 72.9657 89.0135 73.4232 89.6235 73.3215C89.7252 73.3215 89.8269 73.2707 89.9031 73.2199C90.0048 73.169 90.081 73.0928 90.1573 72.9911C90.2335 72.8641 90.2844 72.7624 90.3352 72.6862C90.3606 72.6099 90.4115 72.4575 90.4877 72.2796C90.564 72.0763 90.6148 71.8984 90.6656 71.7459C90.7165 71.5934 90.7673 71.3647 90.7927 71.0597C90.8436 70.7802 90.8944 70.5261 90.9198 70.2973C90.9452 70.094 90.9961 69.7891 91.0469 69.3824C91.0978 68.9758 91.1486 68.6709 91.1994 68.3913C92.1145 62.6733 93.0295 59.2679 93.9446 58.1752C94.4021 57.6669 94.9613 57.3619 95.6222 57.2349C96.283 57.1078 96.9185 57.2349 97.5539 57.6669C98.1894 58.0735 98.5706 58.6834 98.6723 59.4967C98.7486 59.9033 98.6723 60.5132 98.4944 61.3772C97.4014 65.0622 96.2576 70.9073 95.063 78.8616C94.58 82.0383 94.2496 84.173 94.0462 85.2912C93.7666 86.5619 93.1058 87.3243 92.0128 87.5276C90.869 87.7563 89.8014 87.3751 88.8101 86.4348C88.5051 86.1298 88.2001 85.7995 87.9205 85.4183C87.6409 85.0371 87.3359 84.478 86.98 83.7156C86.6242 82.9532 86.2938 82.2162 85.9887 81.4792C85.6583 80.7422 85.1499 79.5732 84.4382 77.9722C83.7265 76.3711 83.0148 74.8209 82.3285 73.2961C82.0235 72.8387 81.6423 72.6354 81.1847 72.7116C80.7018 72.7878 80.4222 73.042 80.2951 73.5248C79.4563 76.6507 78.77 81.1997 78.2108 87.1464C77.9821 89.4844 77.0416 90.628 75.3894 90.5264V90.5772Z" fill="white"/>
<path d="M233.286 102.013C231.609 107.528 229.118 112.509 225.813 116.957C222.509 121.404 218.467 125.216 213.689 128.367C208.91 131.518 203.674 133.856 197.981 135.381C198.158 137.668 198.794 139.676 199.912 141.455C201.031 143.208 202.454 144.632 204.208 145.674C205.962 146.716 207.919 147.478 210.08 147.91C212.24 148.342 214.401 148.494 216.587 148.317C218.162 148.19 219.688 147.961 221.162 147.63C222.636 147.3 224.212 146.716 225.915 145.877L226.652 146.868C224.263 148.825 221.441 150.578 218.213 152.103C214.985 153.628 211.274 154.568 207.055 154.899C203.649 155.178 200.395 155.051 197.371 154.543C194.32 154.035 191.575 153.094 189.135 151.697C186.695 150.299 184.611 148.367 182.908 145.902C181.205 143.437 180.01 140.464 179.298 137.008C173.859 136.296 168.674 134.746 163.717 132.357C158.761 129.968 154.338 126.893 150.474 123.107C146.611 119.32 143.434 114.873 140.943 109.79C138.452 104.682 136.977 99.0401 136.469 92.8138C135.3 77.9978 140.002 65.2912 150.627 54.643C154.948 50.3227 159.904 46.9936 165.496 44.6047C171.088 42.2159 177.036 40.7673 183.34 40.2845C190.787 39.6999 197.574 40.4623 203.7 42.6225C209.825 44.7826 215.112 47.9085 219.586 52C224.059 56.0915 227.618 60.9455 230.261 66.5619C232.905 72.1782 234.481 78.1249 234.989 84.4528C235.497 90.6791 234.887 96.5496 233.21 102.064L233.286 102.013ZM215.443 69.8402C213.638 64.5034 211.198 59.7511 208.097 55.5325C204.971 51.3393 201.259 48.0101 196.913 45.5704C192.567 43.1307 187.585 42.1396 181.993 42.5971C176.401 43.0545 171.47 44.8334 167.53 47.9085C163.59 51.0089 160.464 54.8463 158.125 59.4461C155.812 64.0459 154.236 69.1794 153.397 74.8466C152.559 80.5138 152.381 86.1809 152.838 91.8989C153.321 97.8711 154.541 103.564 156.524 109.002C158.506 114.441 161.099 119.193 164.353 123.259C167.581 127.325 171.368 130.476 175.689 132.738C180.01 135 184.712 135.915 189.796 135.508C195.744 135.025 200.7 133.17 204.64 129.892C208.58 126.614 211.655 122.598 213.867 117.846C216.078 113.094 217.578 107.884 218.315 102.217C219.052 96.5496 219.205 91.1111 218.798 85.8506C218.366 80.5138 217.273 75.177 215.468 69.8402H215.443Z" fill="white"/>
<path d="M129.936 70.3733C129.25 71.339 128.183 71.9489 126.683 72.1776C125.183 72.4063 123.887 71.9997 122.718 70.9578C121.548 69.9158 120.811 68.4673 120.532 66.5867C120.176 64.2232 120.71 61.6819 122.158 58.9881C123.607 56.2943 125.819 53.7783 128.818 51.4149L130.013 50.4746L131.055 51.7961C129.326 53.4988 128.081 54.8203 127.344 55.7606C125.895 57.692 125.285 59.3184 125.463 60.6654C125.514 61.0466 125.641 61.4023 125.844 61.7327C126.047 62.0631 126.302 62.3426 126.607 62.5714L127.573 63.2829C128.589 64.0199 129.326 64.6807 129.809 65.2398C130.292 65.7989 130.597 66.5613 130.75 67.527C130.902 68.4927 130.623 69.4075 129.936 70.3987V70.3733ZM110.187 72.9654C108.967 72.0251 108.179 70.5003 107.874 68.391C107.441 65.5447 108.153 62.7493 109.983 60.0046C111.813 57.26 113.872 55.0236 116.134 53.2955L117.38 52.3552L118.422 53.6767C116.846 55.1761 115.651 56.4467 114.838 57.5395C113.313 59.5472 112.652 61.199 112.856 62.5459C112.906 62.9271 113.033 63.2829 113.237 63.6133C113.44 63.9437 113.694 64.2232 113.999 64.452L114.965 65.1635C115.906 65.8497 116.643 66.485 117.126 67.0441C117.609 67.6032 117.914 68.2894 118.066 69.1534C118.244 70.4241 117.965 71.4914 117.227 72.4063C116.465 73.3212 115.397 73.8803 113.974 74.0836C112.678 74.2869 111.432 73.9057 110.187 72.9654Z" fill="white"/>
<path d="M241.115 45.8494C241.801 44.8837 242.869 44.2738 244.368 44.0451C245.868 43.8164 247.164 44.223 248.334 45.2649C249.503 46.3069 250.24 47.7554 250.52 49.636C250.875 51.9995 250.342 54.5408 248.893 57.2346C247.444 59.9284 245.233 62.4443 242.233 64.8078L241.039 65.7481L239.997 64.4266C241.725 62.7239 242.97 61.4024 243.708 60.4621C245.156 58.5307 245.766 56.9042 245.589 55.5573C245.538 55.1761 245.411 54.8203 245.207 54.49C245.004 54.1596 244.75 53.8801 244.445 53.6513L243.479 52.9398C242.462 52.2028 241.725 51.542 241.242 50.9829C240.759 50.4238 240.454 49.6614 240.302 48.6957C240.149 47.73 240.429 46.8151 241.115 45.824V45.8494ZM260.865 43.2827C262.085 44.223 262.873 45.7478 263.178 47.8571C263.61 50.7034 262.898 53.4988 261.068 56.2435C259.238 58.9881 257.179 61.2245 254.917 62.9526L253.671 63.8929L252.629 62.5714C254.205 61.072 255.4 59.8014 256.213 58.7086C257.738 56.7009 258.399 55.0491 258.196 53.7022C258.145 53.321 258.018 52.9652 257.815 52.6348C257.611 52.3044 257.357 52.0249 257.052 51.7962L256.086 51.0846C255.146 50.3984 254.409 49.7631 253.926 49.204C253.443 48.6449 253.138 47.9587 252.985 47.0947C252.807 45.824 253.087 44.7567 253.824 43.8418C254.587 42.9269 255.654 42.3678 257.077 42.1645C258.374 41.9612 259.619 42.3424 260.865 43.2827Z" fill="white"/>
<path d="M123.232 11.5537C123.54 9.72678 122.667 8.05679 121.283 7.82369C119.898 7.59059 118.527 8.88265 118.219 10.7096C117.911 12.5365 118.784 14.2065 120.168 14.4396C121.552 14.6727 122.924 13.3807 123.232 11.5537Z" fill="white"/>
<path d="M1.47424 123.64V128.799L8.69295 127.376V128.672L1.47424 130.095V135.482L9.86218 133.831V135.152L0 137.109V122.598L9.608 120.717V122.039L1.47424 123.64Z" fill="white"/>
<path d="M11.5396 133.627L11.9971 132.381C12.9375 132.915 14.4118 133.093 15.8606 132.814C17.8686 132.407 18.8345 131.492 18.6058 130.323C18.1482 127.96 12.5054 130.755 11.8191 127.223C11.4379 125.215 12.963 123.588 15.7081 123.055C17.0553 122.801 18.5295 122.902 19.4445 123.334L19.0633 124.58C18.1228 124.122 16.9027 124.071 15.8098 124.3C13.878 124.681 12.9375 125.672 13.1663 126.816C13.6492 129.256 19.2666 126.409 19.9529 129.916C20.3596 132 18.7328 133.551 15.9623 134.11C14.2339 134.44 12.5054 134.237 11.5396 133.652V133.627Z" fill="white"/>
<path d="M26.9173 127.299C26.2056 123.716 28.2136 120.59 31.7975 119.878C33.7039 119.497 35.2798 119.904 36.3473 121.149L35.2798 122.089C34.4664 121.174 33.348 120.844 31.9246 121.149C29.2811 121.657 27.7815 124.122 28.3407 126.969C28.7474 129.027 30.247 129.967 32.4584 129.535C33.8055 129.281 34.8985 128.519 35.4577 127.375L36.6269 127.96C35.9406 129.408 34.4156 130.476 32.6363 130.806C29.637 131.391 27.451 130.018 26.9173 127.324V127.299Z" fill="white"/>
<path d="M37.9491 125.113C37.2374 121.556 39.2454 118.404 42.7785 117.693C45.6762 117.108 47.8876 118.455 48.4213 121.174C49.133 124.758 47.125 127.909 43.5919 128.621C40.6688 129.205 38.4829 127.807 37.9491 125.113ZM47.0233 121.53C46.6167 119.472 45.117 118.506 42.931 118.938C40.313 119.446 38.7879 121.911 39.3471 124.758C39.7538 126.816 41.2535 127.756 43.4394 127.324C46.0575 126.816 47.5825 124.376 47.0233 121.53Z" fill="white"/>
<path d="M68.6289 116.092C68.7051 116.473 68.7306 116.905 68.7306 117.363V123.564L67.2817 123.843V117.617C67.2817 117.236 67.2817 116.931 67.2055 116.626C66.9259 115.152 65.8837 114.466 64.1553 114.796C62.071 115.203 60.8001 116.651 60.7747 119.116V125.139L59.3513 125.419V119.192C59.3513 118.837 59.3513 118.506 59.2751 118.227C58.97 116.727 57.9787 116.041 56.2249 116.397C54.0898 116.829 52.8697 118.354 52.8443 120.87V126.715L51.4209 126.994V116.092L52.7681 115.812V117.566C53.5052 116.143 54.7761 115.33 56.3774 115.025C58.1567 114.669 59.5038 115.203 60.2155 116.448C61.0035 114.847 62.4015 113.83 64.2316 113.474C66.5954 113.017 68.1968 114.008 68.6035 116.117L68.6289 116.092Z" fill="white"/>
<path d="M83.1427 114.312C83.8544 117.921 81.8718 121.047 78.4404 121.733C76.4324 122.14 74.8819 121.581 73.9923 120.234V126.536L72.5688 126.816V111.898L73.9414 111.619V113.347C74.704 112.025 75.9749 111.11 77.6779 110.78C80.3722 110.246 82.5835 111.542 83.1427 114.312ZM81.7193 114.694C81.3126 112.635 79.813 111.669 77.627 112.101C75.009 112.61 73.5093 115.049 74.0685 117.921C74.4752 119.98 75.9749 120.92 78.1608 120.488C80.7789 119.98 82.2785 117.54 81.7193 114.694Z" fill="white"/>
<path d="M95.6991 107.324V118.227L94.3265 118.506V116.778C93.564 118.074 92.2931 119.014 90.5901 119.345C87.8957 119.878 85.6844 118.582 85.1506 115.812C84.4389 112.229 86.4469 109.103 89.8529 108.417C91.8355 108.036 93.4114 108.569 94.3011 109.916V107.629L95.7245 107.35L95.6991 107.324ZM94.2248 112.204C93.8181 110.145 92.3185 109.179 90.1325 109.611C87.5145 110.12 85.9894 112.585 86.5486 115.431C86.9553 117.49 88.4549 118.43 90.6409 117.998C93.2589 117.49 94.784 115.05 94.2248 112.204Z" fill="white"/>
<path d="M104.926 105.418V106.841C104.926 106.841 104.697 106.867 104.545 106.892C102.308 107.324 101.063 108.9 101.063 111.619V117.159L99.6392 117.439V106.536L101.012 106.257V108.239C101.698 106.689 102.943 105.799 104.952 105.393L104.926 105.418Z" fill="white"/>
<path d="M109.577 112.178C109.577 112.433 109.577 112.661 109.628 112.865C109.806 113.754 110.391 114.161 111.433 113.957C112.017 113.856 112.526 113.551 112.932 113.093L113.492 114.11C112.932 114.745 112.094 115.076 111.28 115.253C109.704 115.558 108.561 114.872 108.255 113.373C108.205 113.119 108.179 112.839 108.179 112.534V106.105L106.324 106.46V105.215L108.179 104.834V102.445L109.603 102.166V104.554L112.78 103.919V105.164L109.577 105.8V112.153V112.178Z" fill="white"/>
<path d="M115.754 100.005C115.627 99.4204 116.008 98.8359 116.643 98.7089C117.203 98.6072 117.711 98.9376 117.813 99.4204C117.94 100.056 117.559 100.64 116.923 100.767C116.364 100.869 115.881 100.513 115.779 100.03L115.754 100.005ZM116.033 103.309L117.457 103.029V113.931L116.033 114.211V103.309Z" fill="white"/>
<path d="M126.709 101.124V102.547C126.709 102.547 126.48 102.572 126.328 102.598C124.091 103.03 122.845 104.605 122.845 107.324V112.865L121.422 113.144V102.242L122.769 101.962V103.944C123.455 102.394 124.701 101.505 126.709 101.098V101.124Z" fill="white"/>
<path d="M5.99856 143.868L7.42197 143.589V158.964L5.97314 159.243V143.868H5.99856Z" fill="white"/>
<path d="M10.3705 153.856C9.6588 150.298 11.6668 147.147 15.1999 146.435C18.0976 145.851 20.3089 147.198 20.8427 149.917C21.5544 153.5 19.5464 156.652 16.0133 157.363C13.0902 157.948 10.9043 156.55 10.3705 153.856ZM19.4447 150.298C19.038 148.24 17.5384 147.274 15.3524 147.706C12.7344 148.214 11.2093 150.679 11.7685 153.526C12.1752 155.584 13.6748 156.525 15.8608 156.093C18.4788 155.584 20.0039 153.145 19.4447 150.298Z" fill="white"/>
<path d="M22.4956 154.77L22.9531 153.525C23.8936 154.059 25.3678 154.262 26.8167 153.957C28.8247 153.551 29.7906 152.636 29.5618 151.467C29.1043 149.103 23.4615 151.899 22.7752 148.366C22.3939 146.384 23.919 144.732 26.6896 144.199C28.0113 143.944 29.511 144.021 30.426 144.478L30.0447 145.723C29.1043 145.266 27.8842 145.215 26.7912 145.444C24.8595 145.825 23.919 146.816 24.1478 147.96C24.6307 150.399 30.2481 147.553 30.9344 151.06C31.3411 153.144 29.7397 154.694 26.9438 155.253C25.2407 155.584 23.4869 155.38 22.521 154.796L22.4956 154.77Z" fill="white"/>
<path d="M49.362 144.301C50.0737 147.909 48.0911 151.035 44.6596 151.721C42.677 152.103 41.1011 151.569 40.2115 150.222V156.525L38.7881 156.804V141.886L40.1607 141.607V143.335C40.9232 142.014 42.1941 141.099 43.8971 140.768C46.5914 140.235 48.8028 141.531 49.362 144.301ZM47.9386 144.656C47.5319 142.598 46.0322 141.632 43.8463 142.064C41.2282 142.573 39.7286 145.012 40.2877 147.884C40.6944 149.942 42.1941 150.883 44.38 150.451C46.9981 149.942 48.4978 147.503 47.9386 144.656Z" fill="white"/>
<path d="M52.3614 134.72L53.7848 134.44V149.816L52.3359 150.095V134.72H52.3614Z" fill="white"/>
<path d="M67.3072 136.245V147.147L65.9346 147.427V145.699C65.1721 146.995 63.9012 147.935 62.1982 148.266C59.5039 148.799 57.2925 147.503 56.7588 144.733C56.047 141.15 58.0297 138.024 61.4611 137.338C63.4437 136.931 65.0196 137.49 65.9092 138.812V136.525L67.3326 136.245H67.3072ZM65.833 141.15C65.4263 139.091 63.9266 138.126 61.7407 138.558C59.1226 139.066 57.5975 141.531 58.1567 144.377C58.5634 146.436 60.0631 147.376 62.249 146.944C64.8671 146.436 66.3922 143.996 65.833 141.15Z" fill="white"/>
<path d="M72.8736 142.75C72.8736 143.004 72.8736 143.233 72.9245 143.436C73.1024 144.326 73.687 144.732 74.7291 144.529C75.3137 144.427 75.8221 144.122 76.2288 143.665L76.788 144.682C76.2288 145.317 75.39 145.673 74.5766 145.825C73.0007 146.13 71.8569 145.419 71.5519 143.945C71.501 143.69 71.4756 143.411 71.4756 143.106V136.676L69.6201 137.032V135.787L71.4756 135.406V133.017L72.899 132.737V135.126L76.0763 134.491V135.736L72.8736 136.371V142.725V142.75Z" fill="white"/>
<path d="M77.9823 140.514C77.2706 136.956 79.2786 133.805 82.8117 133.094C85.7094 132.509 87.9208 133.856 88.4545 136.575C89.1662 140.159 87.1582 143.31 83.6251 144.021C80.7021 144.606 78.5161 143.208 77.9823 140.514ZM87.0565 136.931C86.6499 134.873 85.1502 133.907 82.9642 134.339C80.3462 134.847 78.8211 137.312 79.3803 140.159C79.787 142.217 81.2867 143.157 83.4726 142.725C86.0907 142.217 87.6157 139.777 87.0565 136.931Z" fill="white"/>
<path d="M90.1069 141.429L90.5645 140.184C91.5049 140.718 92.9792 140.895 94.428 140.616C96.436 140.209 97.4019 139.294 97.1731 138.125C96.7156 135.762 91.0728 138.557 90.3865 135.025C90.0053 133.017 91.5303 131.391 94.2755 130.857C95.6226 130.603 97.0969 130.679 98.0119 131.137L97.6307 132.382C96.6902 131.925 95.4701 131.874 94.3772 132.077C92.4454 132.458 91.5049 133.449 91.7337 134.593C92.2166 137.033 97.834 134.212 98.5203 137.693C98.927 139.777 97.3256 141.328 94.5297 141.887C92.8267 142.217 91.0728 142.014 90.1069 141.429Z" fill="white"/>
<path d="M116.033 122.14V137.515L114.635 137.795V136.067C113.872 137.363 112.601 138.303 110.898 138.633C108.204 139.167 105.993 137.871 105.459 135.076C104.747 131.492 106.73 128.366 110.161 127.68C112.144 127.299 113.694 127.833 114.609 129.154V122.394L116.033 122.115V122.14ZM114.559 131.518C114.152 129.459 112.652 128.493 110.466 128.926C107.848 129.434 106.323 131.899 106.882 134.745C107.289 136.804 108.789 137.744 110.975 137.312C113.593 136.804 115.118 134.364 114.559 131.518Z" fill="white"/>
<path d="M120.328 131.645C120.328 131.797 120.354 131.924 120.379 132.077C120.786 134.161 122.209 135.101 124.624 134.643C126.022 134.364 127.166 133.627 127.801 132.661L128.64 133.551C127.852 134.72 126.403 135.609 124.751 135.94C121.726 136.549 119.515 135.203 118.981 132.433C118.27 128.875 120.201 125.749 123.557 125.088C126.327 124.529 128.462 125.825 128.996 128.621C129.072 129.053 129.098 129.51 129.098 129.917L120.278 131.645H120.328ZM120.252 130.552L127.725 129.078C127.725 128.925 127.7 128.824 127.674 128.697C127.268 126.689 125.717 125.876 123.785 126.257C121.676 126.689 120.379 128.366 120.252 130.552Z" fill="white"/>
<path d="M18.2501 176.856C18.2501 177.11 18.2501 177.338 18.3009 177.542C18.4788 178.431 19.0635 178.838 20.1056 178.635C20.6902 178.533 21.1986 178.228 21.6053 177.77L22.1645 178.787C21.6053 179.422 20.7665 179.778 19.9531 179.931C18.3772 180.236 17.2334 179.524 16.9283 178.05C16.8775 177.796 16.8267 177.516 16.8521 177.211V170.782L14.9966 171.138V169.892L16.8521 169.537V167.148L18.2755 166.868V169.257L21.4527 168.622V169.867L18.2501 170.502V176.856Z" fill="white"/>
<path d="M34.187 166.105V177.008L32.8145 177.287V175.534C32.0519 176.957 30.7302 177.796 29.1289 178.101C26.7904 178.558 25.1382 177.567 24.7316 175.407C24.6553 175.026 24.6299 174.644 24.6299 174.212V167.986L26.0533 167.707V173.933C26.0533 174.289 26.0533 174.594 26.1295 174.898C26.4346 176.423 27.4767 177.109 29.2814 176.754C31.4927 176.322 32.7891 174.771 32.8145 172.255V166.385L34.2379 166.105H34.187Z" fill="white"/>
<path d="M43.0839 160.997C42.9568 160.387 43.3381 159.828 43.9735 159.701C44.5327 159.599 45.0411 159.93 45.1174 160.413C45.2444 161.048 44.8632 161.632 44.2277 161.76C43.6685 161.861 43.1856 161.505 43.0839 161.023V160.997ZM43.3635 164.301L44.7869 164.021V174.924L43.3635 175.203V164.301Z" fill="white"/>
<path d="M58.2578 164.809C58.334 165.19 58.3595 165.597 58.3849 166.029V172.23L56.9615 172.509V166.283C56.9615 165.927 56.9615 165.597 56.8852 165.317C56.5802 163.818 55.5126 163.132 53.708 163.513C51.4712 163.945 50.1749 165.47 50.1749 168.037V173.882L48.7515 174.161V163.259L50.0986 162.979V164.708C50.8612 163.31 52.2083 162.471 53.8605 162.141C56.2244 161.683 57.8511 162.675 58.2832 164.809H58.2578Z" fill="white"/>
<path d="M63.8756 159.041V160.235L67.0782 159.6V160.845L63.901 161.48V171.137L62.4776 171.417V161.76L60.6221 162.141V160.896L62.503 160.515V159.142C62.503 157.084 63.4943 155.737 65.4769 155.356C66.3157 155.203 67.1545 155.279 67.7137 155.61L67.307 156.779C66.8495 156.525 66.3157 156.448 65.7057 156.55C64.4602 156.804 63.901 157.567 63.8756 159.041Z" fill="white"/>
<path d="M78.4144 157.363V168.266L77.0418 168.545V166.817C76.2793 168.113 75.0084 169.053 73.3054 169.384C70.6111 169.918 68.3997 168.621 67.8659 165.826C67.1542 162.243 69.1623 159.117 72.5683 158.431C74.5509 158.049 76.1268 158.583 76.991 159.905V157.617L78.4144 157.338V157.363ZM76.9147 162.268C76.5081 160.21 75.0084 159.244 72.8224 159.676C70.2044 160.184 68.6793 162.649 69.2385 165.496C69.6452 167.554 71.1449 168.494 73.3308 168.062C75.9489 167.554 77.4739 165.114 76.9147 162.268Z" fill="white"/>
<path d="M91.8608 158.176C91.9371 158.558 91.9625 158.964 91.9879 159.396V165.597L90.5391 165.877V159.65C90.5391 159.295 90.5391 158.964 90.4629 158.685C90.1578 157.185 89.0903 156.499 87.2856 156.88C85.0488 157.312 83.7525 158.837 83.7525 161.404V167.249L82.3291 167.529V156.626L83.6763 156.347V158.1C84.4388 156.702 85.786 155.864 87.4381 155.533C89.802 155.076 91.4287 156.067 91.8608 158.202V158.176Z" fill="white"/>
<path d="M94.9109 160.489C94.1992 156.906 96.2072 153.78 99.7912 153.068C101.698 152.687 103.273 153.094 104.341 154.339L103.273 155.279C102.46 154.364 101.342 154.034 99.9183 154.339C97.2748 154.873 95.7497 157.312 96.3343 160.159C96.741 162.217 98.2407 163.157 100.452 162.725C101.799 162.471 102.892 161.709 103.477 160.565L104.646 161.15C103.96 162.598 102.435 163.666 100.655 164.021C97.656 164.606 95.4701 163.234 94.9363 160.54L94.9109 160.489Z" fill="white"/>
<path d="M106.832 148.392C106.705 147.782 107.086 147.223 107.722 147.096C108.281 146.994 108.789 147.325 108.865 147.808C108.993 148.443 108.611 149.027 107.976 149.155C107.417 149.256 106.934 148.9 106.832 148.418V148.392ZM107.112 151.696L108.535 151.416V162.319L107.112 162.598V151.696Z" fill="white"/>
<path d="M122.083 148.748V159.65L120.71 159.929V158.201C119.948 159.497 118.677 160.438 116.974 160.768C114.28 161.302 112.068 160.006 111.534 157.21C110.823 153.627 112.831 150.501 116.237 149.815C118.245 149.408 119.795 149.967 120.685 151.289V149.002L122.108 148.722L122.083 148.748ZM120.583 153.627C120.177 151.568 118.677 150.603 116.491 151.035C113.873 151.543 112.348 154.008 112.907 156.854C113.314 158.913 114.813 159.853 116.999 159.421C119.617 158.913 121.142 156.473 120.583 153.627Z" fill="white"/>
<path d="M125.082 158.075C124.955 157.414 125.387 156.829 125.972 156.728C126.556 156.626 127.064 156.956 127.192 157.566C127.319 158.227 126.887 158.812 126.327 158.913C125.743 159.015 125.209 158.659 125.082 158.075Z" fill="white"/>
</svg>
