<svg width="1439" height="408" viewBox="0 0 1439 408" fill="none" xmlns="http://www.w3.org/2000/svg">
<path d="M93.4849 407.726C33.3875 412.719 23.3712 347.808 0 347.808V0H1439V352.801C1415.63 352.801 1388.92 407.726 1352.19 407.726C1315.47 407.726 1302.11 352.801 1262.05 352.801C1221.98 352.801 1208.63 407.726 1175.24 407.726C1141.85 407.726 1128.5 357.794 1085.09 352.801C1041.69 347.808 1031.67 407.726 991.608 407.726C951.543 407.726 948.204 352.801 901.462 352.801C854.719 352.801 868.074 407.726 817.993 407.726C767.912 407.726 771.251 352.801 724.508 352.801C677.766 352.801 671.088 407.726 637.701 407.726C604.313 407.726 587.619 352.801 544.216 352.801C500.812 352.801 494.135 407.726 454.07 407.726C414.005 407.726 410.666 347.808 367.262 347.808C323.858 347.808 317.181 407.726 277.116 407.726C237.051 407.726 227.035 347.808 183.631 347.808C140.227 347.808 153.582 402.733 93.4849 407.726Z" fill="black"/>
<path d="M93.4849 407.726C33.3875 412.719 23.3712 347.808 0 347.808V0H1439V352.801C1415.63 352.801 1388.92 407.726 1352.19 407.726C1315.47 407.726 1302.11 352.801 1262.05 352.801C1221.98 352.801 1208.63 407.726 1175.24 407.726C1141.85 407.726 1128.5 357.794 1085.09 352.801C1041.69 347.808 1031.67 407.726 991.608 407.726C951.543 407.726 948.204 352.801 901.462 352.801C854.719 352.801 868.074 407.726 817.993 407.726C767.912 407.726 771.251 352.801 724.508 352.801C677.766 352.801 671.088 407.726 637.701 407.726C604.313 407.726 587.619 352.801 544.216 352.801C500.812 352.801 494.135 407.726 454.07 407.726C414.005 407.726 410.666 347.808 367.262 347.808C323.858 347.808 317.181 407.726 277.116 407.726C237.051 407.726 227.035 347.808 183.631 347.808C140.227 347.808 153.582 402.733 93.4849 407.726Z" fill="black" fill-opacity="0.2"/>
<path d="M93.4849 407.726C33.3875 412.719 23.3712 347.808 0 347.808V0H1439V352.801C1415.63 352.801 1388.92 407.726 1352.19 407.726C1315.47 407.726 1302.11 352.801 1262.05 352.801C1221.98 352.801 1208.63 407.726 1175.24 407.726C1141.85 407.726 1128.5 357.794 1085.09 352.801C1041.69 347.808 1031.67 407.726 991.608 407.726C951.543 407.726 948.204 352.801 901.462 352.801C854.719 352.801 868.074 407.726 817.993 407.726C767.912 407.726 771.251 352.801 724.508 352.801C677.766 352.801 671.088 407.726 637.701 407.726C604.313 407.726 587.619 352.801 544.216 352.801C500.812 352.801 494.135 407.726 454.07 407.726C414.005 407.726 410.666 347.808 367.262 347.808C323.858 347.808 317.181 407.726 277.116 407.726C237.051 407.726 227.035 347.808 183.631 347.808C140.227 347.808 153.582 402.733 93.4849 407.726Z" fill="black" fill-opacity="0.2"/>
<path d="M93.4849 407.726C33.3875 412.719 23.3712 347.808 0 347.808V0H1439V352.801C1415.63 352.801 1388.92 407.726 1352.19 407.726C1315.47 407.726 1302.11 352.801 1262.05 352.801C1221.98 352.801 1208.63 407.726 1175.24 407.726C1141.85 407.726 1128.5 357.794 1085.09 352.801C1041.69 347.808 1031.67 407.726 991.608 407.726C951.543 407.726 948.204 352.801 901.462 352.801C854.719 352.801 868.074 407.726 817.993 407.726C767.912 407.726 771.251 352.801 724.508 352.801C677.766 352.801 671.088 407.726 637.701 407.726C604.313 407.726 587.619 352.801 544.216 352.801C500.812 352.801 494.135 407.726 454.07 407.726C414.005 407.726 410.666 347.808 367.262 347.808C323.858 347.808 317.181 407.726 277.116 407.726C237.051 407.726 227.035 347.808 183.631 347.808C140.227 347.808 153.582 402.733 93.4849 407.726Z" fill="black" fill-opacity="0.2"/>
<path d="M93.4849 407.726C33.3875 412.719 23.3712 347.808 0 347.808V0H1439V352.801C1415.63 352.801 1388.92 407.726 1352.19 407.726C1315.47 407.726 1302.11 352.801 1262.05 352.801C1221.98 352.801 1208.63 407.726 1175.24 407.726C1141.85 407.726 1128.5 357.794 1085.09 352.801C1041.69 347.808 1031.67 407.726 991.608 407.726C951.543 407.726 948.204 352.801 901.462 352.801C854.719 352.801 868.074 407.726 817.993 407.726C767.912 407.726 771.251 352.801 724.508 352.801C677.766 352.801 671.088 407.726 637.701 407.726C604.313 407.726 587.619 352.801 544.216 352.801C500.812 352.801 494.135 407.726 454.07 407.726C414.005 407.726 410.666 347.808 367.262 347.808C323.858 347.808 317.181 407.726 277.116 407.726C237.051 407.726 227.035 347.808 183.631 347.808C140.227 347.808 153.582 402.733 93.4849 407.726Z" fill="black" fill-opacity="0.2"/>
<path d="M93.4849 407.726C33.3875 412.719 23.3712 347.808 0 347.808V0H1439V352.801C1415.63 352.801 1388.92 407.726 1352.19 407.726C1315.47 407.726 1302.11 352.801 1262.05 352.801C1221.98 352.801 1208.63 407.726 1175.24 407.726C1141.85 407.726 1128.5 357.794 1085.09 352.801C1041.69 347.808 1031.67 407.726 991.608 407.726C951.543 407.726 948.204 352.801 901.462 352.801C854.719 352.801 868.074 407.726 817.993 407.726C767.912 407.726 771.251 352.801 724.508 352.801C677.766 352.801 671.088 407.726 637.701 407.726C604.313 407.726 587.619 352.801 544.216 352.801C500.812 352.801 494.135 407.726 454.07 407.726C414.005 407.726 410.666 347.808 367.262 347.808C323.858 347.808 317.181 407.726 277.116 407.726C237.051 407.726 227.035 347.808 183.631 347.808C140.227 347.808 153.582 402.733 93.4849 407.726Z" fill="black" fill-opacity="0.2"/>
</svg>
