<svg width="1440" height="1018" viewBox="0 0 1440 1018" fill="none" xmlns="http://www.w3.org/2000/svg">
<path d="M1347.39 1017.73C1407.57 1022.57 1417.6 959.696 1441 959.696L1441 -434L0 -434L-0.000122264 964.533C23.4036 964.533 50.1506 1017.73 86.9279 1017.73C123.705 1017.73 137.079 964.533 177.199 964.533C217.32 964.533 230.694 1017.73 264.127 1017.73C297.561 1017.73 310.935 969.369 354.399 964.533C397.863 959.696 407.893 1017.73 448.014 1017.73C488.134 1017.73 491.478 964.533 538.285 964.533C585.093 964.533 571.719 1017.73 621.87 1017.73C672.021 1017.73 668.677 964.533 715.485 964.533C762.292 964.533 768.979 1017.73 802.413 1017.73C835.847 1017.73 852.564 964.533 896.028 964.533C939.492 964.533 946.179 1017.73 986.299 1017.73C1026.42 1017.73 1029.76 959.696 1073.23 959.696C1116.69 959.696 1123.38 1017.73 1163.5 1017.73C1203.62 1017.73 1213.65 959.696 1257.11 959.696C1300.58 959.696 1287.2 1012.9 1347.39 1017.73Z" fill="#EDEDED"/>
</svg>
