<svg width="1441" height="113" viewBox="0 0 1441 113" fill="none" xmlns="http://www.w3.org/2000/svg">
<path d="M1347.39 112.235C1407.57 117.071 1417.6 54.1962 1441 54.1962L1441 5.86438e-05L715.485 0L0.000244141 5.95206e-05L0.00023898 59.0327C23.4039 59.0327 50.151 112.235 86.9282 112.235C123.705 112.235 137.079 59.0327 177.2 59.0327C217.32 59.0327 230.694 112.235 264.128 112.235C297.562 112.235 310.935 63.8692 354.399 59.0327C397.863 54.1961 407.893 112.235 448.014 112.235C488.135 112.235 491.478 59.0327 538.285 59.0327C585.093 59.0327 571.719 112.235 621.87 112.235C672.021 112.235 668.678 59.0327 715.485 59.0327C762.293 59.0327 768.979 112.235 802.413 112.235C835.847 112.235 852.564 59.0327 896.028 59.0327C939.492 59.0327 946.179 112.235 986.3 112.235C1026.42 112.235 1029.76 54.1962 1073.23 54.1962C1116.69 54.1962 1123.38 112.235 1163.5 112.235C1203.62 112.235 1213.65 54.1962 1257.11 54.1962C1300.58 54.1962 1287.2 107.398 1347.39 112.235Z" fill="#EDEDED"/>
</svg>
