<svg width="1440" height="657" viewBox="0 0 1440 657" fill="none" xmlns="http://www.w3.org/2000/svg">
<path d="M92.7809 0.265381C32.5999 -4.57117 22.5697 58.3041 -0.833984 58.3041V657H1440.17V53.4675C1416.76 53.4675 1390.02 0.265381 1353.24 0.265381C1316.46 0.265381 1303.09 53.4675 1262.97 53.4675C1222.85 53.4675 1209.47 0.265381 1176.04 0.265381C1142.6 0.265381 1129.23 48.631 1085.77 53.4675C1042.3 58.3041 1032.27 0.265381 992.152 0.265381C952.031 0.265381 948.688 53.4675 901.881 53.4675C855.073 53.4675 868.447 0.265381 818.296 0.265381C768.145 0.265381 771.489 53.4675 724.681 53.4675C677.874 53.4675 671.187 0.265381 637.753 0.265381C604.319 0.265381 587.602 53.4675 544.138 53.4675C500.674 53.4675 493.987 0.265381 453.867 0.265381C413.746 0.265381 410.403 58.3041 366.939 58.3041C323.475 58.3041 316.788 0.265381 276.667 0.265381C236.547 0.265381 226.516 58.3041 183.052 58.3041C139.588 58.3041 152.962 5.10193 92.7809 0.265381Z" fill="#F4A910"/>
</svg>
