<svg width="40" height="40" viewBox="0 0 40 40" fill="none" xmlns="http://www.w3.org/2000/svg">
<path d="M20.0007 1.66667V11.6667C19.9982 13.587 19.3338 15.4478 18.1195 16.9354C16.9051 18.423 15.215 19.4465 13.334 19.8333V38.3333C13.334 38.7754 13.1584 39.1993 12.8458 39.5118C12.5333 39.8244 12.1093 40 11.6673 40C11.2253 40 10.8014 39.8244 10.4888 39.5118C10.1762 39.1993 10.0007 38.7754 10.0007 38.3333V19.8333C8.11967 19.4465 6.42956 18.423 5.21518 16.9354C4.0008 15.4478 3.33641 13.587 3.33398 11.6667V1.66667C3.33398 1.22464 3.50958 0.800716 3.82214 0.488155C4.1347 0.175595 4.55862 0 5.00065 0C5.44268 0 5.8666 0.175595 6.17916 0.488155C6.49172 0.800716 6.66732 1.22464 6.66732 1.66667V11.6667C6.67159 12.6971 6.99412 13.701 7.5908 14.5412C8.18747 15.3813 9.02914 16.0165 10.0007 16.36V1.66667C10.0007 1.22464 10.1762 0.800716 10.4888 0.488155C10.8014 0.175595 11.2253 0 11.6673 0C12.1093 0 12.5333 0.175595 12.8458 0.488155C13.1584 0.800716 13.334 1.22464 13.334 1.66667V16.36C14.3055 16.0165 15.1472 15.3813 15.7438 14.5412C16.3405 13.701 16.663 12.6971 16.6673 11.6667V1.66667C16.6673 1.22464 16.8429 0.800716 17.1555 0.488155C17.468 0.175595 17.892 0 18.334 0C18.776 0 19.1999 0.175595 19.5125 0.488155C19.8251 0.800716 20.0007 1.22464 20.0007 1.66667V1.66667ZM36.6673 16.6667C36.5928 19.8341 35.8048 22.9439 34.3619 25.7646C32.9191 28.5853 30.8587 31.0442 28.334 32.9583V38.3333C28.334 38.7754 28.1584 39.1993 27.8458 39.5118C27.5333 39.8244 27.1093 40 26.6673 40C26.2253 40 25.8014 39.8244 25.4888 39.5118C25.1762 39.1993 25.0007 38.7754 25.0007 38.3333V3.33333C24.9857 2.70711 25.1568 2.09051 25.4924 1.56155C25.8279 1.03259 26.3128 0.615018 26.8857 0.361667C27.5437 0.093942 28.2655 0.0237169 28.9629 0.159574C29.6602 0.29543 30.3029 0.631484 30.8123 1.12667C34.6779 5.36826 36.773 10.9288 36.6673 16.6667V16.6667ZM33.334 16.6667C33.3813 11.7869 31.5972 7.0668 28.334 3.43833V28.45C31.4575 25.3137 33.2488 21.0922 33.334 16.6667Z" fill="black"/>
</svg>
