<svg width="40" height="40" viewBox="0 0 40 40" fill="none" xmlns="http://www.w3.org/2000/svg">
<g clip-path="url(#clip0_6226_26778)">
<path d="M23.3604 15.0585V10.6558C23.3604 9.3458 24.4223 8.28386 25.7323 8.28386H29.6678V8.26324C30.9778 8.26324 32.0398 7.20131 32.0398 5.89131C32.0398 4.58131 30.9778 3.51937 29.6678 3.51937H28.0319C26.746 3.51937 25.7036 2.47697 25.7036 1.1911" stroke="black" stroke-width="2.34319" stroke-miterlimit="10" stroke-linecap="round" stroke-linejoin="round"/>
<path d="M18.6738 15.0585V8.40876C18.6738 7.06158 19.7659 5.96942 21.1132 5.96942" stroke="black" stroke-width="2.34319" stroke-miterlimit="10" stroke-linecap="round" stroke-linejoin="round"/>
<path d="M28.0469 15.0585V12.9991" stroke="black" stroke-width="2.34319" stroke-miterlimit="10" stroke-linecap="round" stroke-linejoin="round"/>
<path d="M8.76465 13.338L15.0949 19.6682" stroke="black" stroke-width="2.34319" stroke-miterlimit="10" stroke-linecap="round" stroke-linejoin="round"/>
<path d="M10.4525 11.6501L7.07666 15.0259L1.87102 9.82029C0.938825 8.88809 0.938825 7.37665 1.87102 6.44445C2.80322 5.51225 4.31466 5.51225 5.24686 6.44445L10.4525 11.6501Z" stroke="black" stroke-width="2.34319" stroke-miterlimit="10" stroke-linecap="round" stroke-linejoin="round"/>
<path d="M5.77746 24.3788H1.18262" stroke="black" stroke-width="2.34319" stroke-miterlimit="10" stroke-linecap="round" stroke-linejoin="round"/>
<path d="M38.8282 24.3788H34.2334" stroke="black" stroke-width="2.34319" stroke-miterlimit="10" stroke-linecap="round" stroke-linejoin="round"/>
<path d="M4.21484 19.7253H35.7954" stroke="black" stroke-width="2.34319" stroke-miterlimit="10" stroke-linecap="round" stroke-linejoin="round"/>
<path d="M34.2335 19.7253V31.7993C34.2335 35.6705 31.0953 38.8088 27.224 38.8088H12.7868C8.91558 38.8088 5.77734 35.6705 5.77734 31.7993V19.7253" stroke="black" stroke-width="2.34319" stroke-miterlimit="10" stroke-linecap="round" stroke-linejoin="round"/>
</g>
<defs>
<clipPath id="clip0_6226_26778">
<rect width="40" height="40" fill="white"/>
</clipPath>
</defs>
</svg>
