<svg width="40" height="47" viewBox="0 0 40 47" fill="none" xmlns="http://www.w3.org/2000/svg">
<path d="M35.7324 0.503906C35.9512 0.506398 36.1196 0.509714 36.2354 0.514648C36.2589 0.515655 36.2793 0.517554 36.2969 0.518555C36.3051 0.525256 36.3153 0.532381 36.3262 0.541992C36.377 0.587048 36.4403 0.650758 36.5156 0.734375C36.6665 0.901828 36.8437 1.1242 37.0381 1.37988C37.4051 1.86263 37.8751 2.52461 38.2354 2.98828C38.7417 3.63995 39.0455 3.97866 39.2598 4.29004C39.4431 4.55657 39.4992 4.72029 39.5 4.95117V46.084C39.4993 46.1968 39.4899 46.2675 39.4785 46.3115C39.4732 46.3322 39.4679 46.3444 39.4648 46.3506C39.4621 46.356 39.4596 46.3577 39.459 46.3584C39.4585 46.359 39.4564 46.3618 39.4502 46.3662C39.4433 46.371 39.4302 46.3792 39.4082 46.3887C39.3616 46.4086 39.2851 46.4314 39.1621 46.4502C38.9104 46.4886 38.5469 46.5002 38.0088 46.5C37.7439 46.4999 37.4451 46.497 37.1045 46.4941C36.7647 46.4913 36.3854 46.4883 35.9639 46.4883C19.9884 46.4883 11.9987 46.4913 7.98047 46.4824C5.9701 46.478 4.95893 46.4707 4.43945 46.459C4.19424 46.4535 4.07234 46.4451 4.01074 46.4395C3.80415 46.3237 3.54432 46.0927 3.25391 45.7568C2.95365 45.4095 2.65192 44.9892 2.375 44.5674C1.82133 43.7239 1.39065 42.9093 1.30078 42.7393H1.2998C0.763831 41.7245 0.593463 41.2581 0.532227 40.7891C0.500542 40.5463 0.49677 40.288 0.50293 39.9297C0.508973 39.5782 0.524414 39.1291 0.524414 38.5508C0.524413 35.837 0.515464 35.8518 0.583984 34.376C0.602443 33.9792 0.582008 33.7491 0.574219 32.5908C0.566261 31.4066 0.56988 29.2214 0.634766 24.8457C0.649493 23.8486 0.632161 21.7259 0.626953 19.7666C0.624342 18.7838 0.625042 17.84 0.633789 17.0928C0.642786 16.3245 0.660232 15.8125 0.68457 15.6543C0.691802 15.6073 0.693111 15.5427 0.693359 15.5312C0.694121 15.4961 0.694724 15.4485 0.695312 15.3906C0.696498 15.274 0.697461 15.1088 0.698242 14.9033C0.699806 14.4918 0.700509 13.9134 0.701172 13.2246C0.702499 11.8462 0.703061 10.0234 0.706055 8.19727C0.709049 6.37087 0.713923 4.54249 0.725586 3.15527C0.731418 2.46165 0.738805 1.88021 0.748047 1.46484C0.752682 1.2566 0.758276 1.09298 0.763672 0.979492C0.764866 0.954397 0.76548 0.932633 0.766602 0.914062C0.78971 0.892972 0.837796 0.862308 0.945312 0.834961C1.13666 0.786342 1.41158 0.771621 1.78418 0.777344C2.48129 0.788081 3.48437 0.875053 4.39648 0.732422C4.62475 0.696719 4.70167 0.707589 5.63281 0.719727C6.53421 0.731476 8.18881 0.740924 11.4912 0.6875L11.4902 0.686523C16.6595 0.686461 22.8342 0.616138 27.75 0.561523C30.2097 0.534196 32.3535 0.510848 33.9004 0.50293C34.6742 0.498969 35.2961 0.498939 35.7324 0.503906ZM6.47461 5.85156C6.36165 5.84321 6.19245 5.83012 6.03711 5.85742C5.84552 5.89112 5.63547 5.99282 5.50391 6.22461C5.39725 6.41254 5.37796 6.62933 5.37793 6.81348V44.3555C5.38508 44.6326 5.54117 44.8311 5.72363 44.9395C5.87716 45.0305 6.04395 45.0577 6.1543 45.0684C6.2742 45.0799 6.39132 45.0774 6.47559 45.0732C6.51812 45.0712 6.55772 45.0682 6.58496 45.0664C6.61298 45.0646 6.6227 45.0645 6.62402 45.0645C22.989 45.0578 30.6736 45.0567 34.2725 45.0547C36.0709 45.0537 36.8515 45.0522 37.1846 45.0498C37.2674 45.0492 37.3249 45.0487 37.3643 45.0479C37.3899 45.0473 37.4388 45.0464 37.4795 45.041C37.4829 45.0406 37.5365 45.0344 37.5977 45.0107C37.6119 45.0053 37.7334 44.9624 37.8242 44.8359C37.8442 44.8081 37.8607 44.775 37.876 44.7393C37.8906 44.7112 37.9024 44.6863 37.9102 44.666C37.9367 44.5968 37.953 44.5262 37.9629 44.4717C37.9834 44.3585 37.9948 44.2262 38.002 44.1113C38.0165 43.8772 38.0166 43.6435 38.0166 43.6045C38.0143 24.0795 38.0209 14.8071 38.0166 10.4062C38.0144 8.20881 38.0098 7.21866 37.999 6.77344C37.9963 6.66209 37.9933 6.57871 37.9893 6.5166C37.9861 6.46747 37.9801 6.39149 37.9609 6.32129C37.9536 6.2944 37.9282 6.21268 37.8613 6.12891C37.8059 6.04547 37.7376 5.99531 37.6914 5.96875C37.5952 5.91349 37.4987 5.9016 37.4834 5.89941C37.3786 5.88458 37.1626 5.88003 36.7295 5.87695C35.8178 5.87048 33.7697 5.87305 29.1924 5.87305H6.88477C6.73594 5.87302 6.6082 5.86144 6.47461 5.85156ZM37.2803 45.0244L37.248 45.0137C37.2452 45.0127 37.2414 45.0098 37.2363 45.0078C37.2552 45.0147 37.2717 45.022 37.2803 45.0244ZM1.85059 2.41504C1.74238 2.39613 1.62326 2.4085 1.5127 2.46387C1.4088 2.516 1.34241 2.5912 1.30273 2.64941C1.23076 2.75518 1.20669 2.8654 1.19727 2.91797C1.17598 3.03708 1.17845 3.16368 1.18164 3.2373C1.18524 3.32026 1.19304 3.38585 1.19434 3.39746C1.21116 3.55007 1.21404 4.04433 1.20508 4.61523C1.19636 5.17087 1.17785 5.74615 1.16016 6.03027L1.15918 6.0459V6.06055C1.15918 15.984 1.08477 24.5976 1.03711 30.7949C1.01329 33.8926 0.996239 36.3892 0.998047 38.1426C0.998951 39.0187 1.00445 39.7134 1.0166 40.2061C1.02266 40.4517 1.03095 40.6527 1.04102 40.8027C1.04601 40.8772 1.05111 40.9453 1.05859 41.0029C1.06369 41.0422 1.07609 41.1339 1.11133 41.2188C1.38864 41.8855 1.81363 42.7134 2.16797 43.3672C2.34609 43.6958 2.50855 43.9855 2.62988 44.1943C2.69029 44.2983 2.74254 44.3849 2.78125 44.4473C2.79996 44.4774 2.81831 44.507 2.83496 44.5312C2.84248 44.5422 2.85571 44.561 2.87109 44.5801C2.87794 44.5885 2.89398 44.6075 2.91602 44.6289C2.92691 44.6395 2.94896 44.6604 2.97949 44.6816C2.99464 44.6922 3.04158 44.7242 3.1123 44.7471L3.19043 44.7656C3.22962 44.7717 3.36963 44.7951 3.52051 44.7422C3.7209 44.6718 3.82747 44.5164 3.87598 44.3867C3.91565 44.2804 3.92606 44.1697 3.93066 44.0908C3.93579 44.0028 3.9354 43.8976 3.93359 43.7793C3.92617 43.2949 3.88379 42.4353 3.88379 40.7744C3.88379 23.0325 3.88455 14.1605 3.88184 9.71484C3.88048 7.49279 3.87765 6.37476 3.87402 5.80762C3.87222 5.52616 3.87002 5.37461 3.86719 5.29004C3.86491 5.22218 3.86276 5.13697 3.8291 5.04297C3.7794 4.90427 3.68735 4.75642 3.60352 4.63086C3.5125 4.49456 3.39621 4.33359 3.27051 4.15918C3.01508 3.80478 2.69929 3.36702 2.37891 2.85059C2.32661 2.76629 2.26976 2.68473 2.20605 2.61719C2.15621 2.56436 2.03592 2.44759 1.85059 2.41504ZM37.917 6.58105C37.9125 6.59407 37.908 6.60452 37.9072 6.60645C37.9107 6.59789 37.9182 6.57497 37.9258 6.54883C37.9223 6.56186 37.9198 6.57294 37.917 6.58105ZM36.958 6.30469C36.9588 6.30087 36.9601 6.29736 36.9609 6.29395C36.9681 6.26442 36.978 6.23561 36.9824 6.22461C36.982 6.22573 36.969 6.25901 36.958 6.30469ZM37.4023 5.93945C37.4046 5.9392 37.4072 5.93876 37.4102 5.93848C37.4135 5.93815 37.4174 5.93782 37.4219 5.9375C37.4142 5.93814 37.4075 5.93885 37.4023 5.93945ZM32.6611 0.902344C30.9301 0.924838 27.8713 0.980045 22.4219 0.979492C22.0769 0.979427 21.9002 0.993782 21.7285 1.00879C21.5722 1.02246 21.4242 1.0363 21.1143 1.04004H21.1133C15.899 1.10317 13.2941 1.07797 11.8828 1.05469C10.5008 1.03188 10.2111 1.00708 9.70801 1.08691C9.62618 1.09991 9.56719 1.1122 9.52051 1.12207C9.47502 1.13169 9.4483 1.13735 9.41309 1.14258C9.34046 1.15336 9.21389 1.16482 8.88965 1.17285C8.24257 1.18888 6.88954 1.19013 3.79004 1.1709L3.31934 1.16797L3.28809 1.6377C3.28546 1.67679 3.28159 1.73072 3.28223 1.78125C3.28296 1.83881 3.28962 1.91627 3.31836 2.00195C3.34671 2.08625 3.387 2.15008 3.41797 2.19336L3.50195 2.2998C3.79108 2.65449 4.08987 3.08783 4.35449 3.46875C4.48375 3.65481 4.60744 3.83181 4.71289 3.97168C4.76565 4.04166 4.81848 4.10949 4.86914 4.16699C4.91294 4.2167 4.98101 4.28936 5.06348 4.34473C5.09439 4.36544 5.15176 4.40011 5.23633 4.42285C5.29289 4.43804 5.34796 4.44478 5.38867 4.44824C5.47527 4.4556 5.61605 4.45988 5.85352 4.46387C6.33675 4.47198 7.28016 4.47744 9.14453 4.48047C12.8765 4.48652 20.3146 4.48438 35.1826 4.48438C35.7533 4.48438 36.1442 4.48931 36.4102 4.49121C36.5413 4.49215 36.6469 4.49274 36.7275 4.49121C36.7948 4.48994 36.8875 4.48705 36.9668 4.4707C36.9863 4.46671 37.1241 4.44262 37.2402 4.33008C37.3169 4.2558 37.3857 4.14009 37.3945 3.99316C37.4024 3.86048 37.3574 3.75986 37.3271 3.70703C37.2744 3.61506 37.203 3.55887 37.1895 3.54785C37.1642 3.52731 37.1377 3.50857 37.124 3.49902C37.0525 3.44902 37.0304 3.43294 37.0166 3.41602C36.6155 2.92231 36.2154 2.39959 35.9023 1.98633C35.7432 1.77626 35.6152 1.60481 35.5107 1.4668C35.4221 1.34963 35.3319 1.2314 35.2861 1.18262C35.1605 1.04872 35.0045 0.98981 34.875 0.958984C34.7474 0.928668 34.5945 0.914006 34.4209 0.905273C34.07 0.887651 33.5201 0.891183 32.6611 0.902344Z" fill="black" stroke="black"/>
</svg>
