<svg width="40" height="40" viewBox="0 0 40 40" fill="none" xmlns="http://www.w3.org/2000/svg">
<g clip-path="url(#clip0_3552_7717)">
<path d="M40 20C40 25.3043 37.8929 30.3914 34.1421 34.1421C30.3914 37.8929 25.3043 40 20 40C14.6957 40 9.60859 37.8929 5.85786 34.1421C2.10714 30.3914 0 25.3043 0 20C0 19.558 0.175595 19.134 0.488155 18.8215C0.800716 18.5089 1.22464 18.3333 1.66667 18.3333C2.10869 18.3333 2.53262 18.5089 2.84518 18.8215C3.15774 19.134 3.33333 19.558 3.33333 20C3.33333 23.2964 4.31082 26.5187 6.14217 29.2595C7.97353 32.0003 10.5765 34.1365 13.6219 35.398C16.6674 36.6595 20.0185 36.9895 23.2515 36.3464C26.4845 35.7033 29.4542 34.116 31.7851 31.7851C34.116 29.4542 35.7033 26.4845 36.3464 23.2515C36.9895 20.0185 36.6595 16.6674 35.398 13.6219C34.1365 10.5765 32.0003 7.97353 29.2595 6.14217C26.5187 4.31082 23.2964 3.33333 20 3.33333C19.558 3.33333 19.134 3.15774 18.8215 2.84518C18.5089 2.53262 18.3333 2.10869 18.3333 1.66667C18.3333 1.22464 18.5089 0.800716 18.8215 0.488155C19.134 0.175595 19.558 0 20 0C25.3026 0.00573514 30.3863 2.11471 34.1358 5.8642C37.8853 9.61368 39.9943 14.6974 40 20ZM17.1283 18.3333H13.3333C12.8913 18.3333 12.4674 18.5089 12.1548 18.8215C11.8423 19.134 11.6667 19.558 11.6667 20C11.6667 20.442 11.8423 20.8659 12.1548 21.1785C12.4674 21.4911 12.8913 21.6667 13.3333 21.6667H17.1283C17.3829 22.1087 17.7357 22.4862 18.1596 22.77C18.5835 23.0538 19.067 23.2361 19.5727 23.303C20.0783 23.3699 20.5926 23.3195 21.0757 23.1556C21.5588 22.9918 21.9976 22.719 22.3583 22.3583C22.719 21.9976 22.9918 21.5588 23.1556 21.0757C23.3195 20.5926 23.3699 20.0783 23.303 19.5727C23.2361 19.067 23.0538 18.5835 22.77 18.1596C22.4862 17.7357 22.1087 17.3829 21.6667 17.1283V11.6667C21.6667 11.2246 21.4911 10.8007 21.1785 10.4882C20.8659 10.1756 20.442 10 20 10C19.558 10 19.134 10.1756 18.8215 10.4882C18.5089 10.8007 18.3333 11.2246 18.3333 11.6667V17.1283C17.834 17.4188 17.4188 17.834 17.1283 18.3333ZM3.045 14.64C3.37464 14.64 3.69687 14.5423 3.97095 14.3591C4.24503 14.176 4.45865 13.9157 4.5848 13.6111C4.71095 13.3066 4.74395 12.9715 4.67964 12.6482C4.61533 12.3249 4.4566 12.0279 4.22351 11.7948C3.99042 11.5617 3.69345 11.403 3.37015 11.3387C3.04685 11.2744 2.71174 11.3074 2.40719 11.4335C2.10265 11.5597 1.84235 11.7733 1.65922 12.0474C1.47608 12.3215 1.37833 12.6437 1.37833 12.9733C1.37833 13.4154 1.55393 13.8393 1.86649 14.1518C2.17905 14.4644 2.60297 14.64 3.045 14.64ZM7.035 8.67833C7.36464 8.67833 7.68687 8.58059 7.96095 8.39745C8.23503 8.21431 8.44865 7.95402 8.5748 7.64947C8.70094 7.34493 8.73395 7.00982 8.66964 6.68652C8.60533 6.36321 8.4466 6.06624 8.21351 5.83316C7.98042 5.60007 7.68345 5.44133 7.36015 5.37702C7.03685 5.31272 6.70174 5.34572 6.39719 5.47187C6.09265 5.59801 5.83235 5.81163 5.64922 6.08572C5.46608 6.3598 5.36833 6.68203 5.36833 7.01167C5.36833 7.45369 5.54393 7.87762 5.85649 8.19018C6.16905 8.50274 6.59297 8.67833 7.035 8.67833ZM12.965 4.735C13.2946 4.735 13.6169 4.63725 13.8909 4.45412C14.165 4.27098 14.3787 4.01068 14.5048 3.70614C14.6309 3.4016 14.664 3.06648 14.5996 2.74318C14.5353 2.41988 14.3766 2.12291 14.1435 1.88982C13.9104 1.65673 13.6135 1.498 13.2901 1.43369C12.9668 1.36938 12.6317 1.40239 12.3272 1.52853C12.0227 1.65468 11.7624 1.8683 11.5792 2.14238C11.3961 2.41646 11.2983 2.7387 11.2983 3.06833C11.2983 3.51036 11.4739 3.93428 11.7865 4.24684C12.099 4.5594 12.523 4.735 12.965 4.735Z" fill="black"/>
</g>
<defs>
<clipPath id="clip0_3552_7717">
<rect width="40" height="40" fill="white"/>
</clipPath>
</defs>
</svg>
