<svg width="32" height="32" viewBox="0 0 32 32" fill="none" xmlns="http://www.w3.org/2000/svg">
<rect width="32" height="32" rx="16" fill="#F6BA40"/>
<mask id="mask0_3552_7645" style="mask-type:alpha" maskUnits="userSpaceOnUse" x="4" y="4" width="24" height="24">
<rect x="4" y="4" width="24" height="24" fill="#D9D9D9"/>
</mask>
<g mask="url(#mask0_3552_7645)">
<path d="M16 15.6923C15.0347 15.6923 14.21 15.3503 13.526 14.6663C12.842 13.9824 12.5 13.1578 12.5 12.1923C12.5 11.2269 12.842 10.4023 13.526 9.71826C14.21 9.03426 15.0347 8.69226 16 8.69226C16.9653 8.69226 17.79 9.03426 18.474 9.71826C19.158 10.4023 19.5 11.2269 19.5 12.1923C19.5 13.1578 19.158 13.9824 18.474 14.6663C17.79 15.3503 16.9653 15.6923 16 15.6923ZM8.5 21.7885V21.0845C8.5 20.5948 8.633 20.1413 8.899 19.724C9.165 19.3067 9.5205 18.9858 9.9655 18.7615C10.9538 18.277 11.9509 17.9136 12.9567 17.6713C13.9626 17.4289 14.977 17.3078 16 17.3078C17.023 17.3078 18.0374 17.4289 19.0433 17.6713C20.0491 17.9136 21.0462 18.277 22.0345 18.7615C22.4795 18.9858 22.835 19.3067 23.101 19.724C23.367 20.1413 23.5 20.5948 23.5 21.0845V21.7885C23.5 22.2102 23.3523 22.5688 23.0568 22.8645C22.7613 23.16 22.4026 23.3078 21.9808 23.3078H10.0193C9.59742 23.3078 9.23875 23.16 8.94325 22.8645C8.64775 22.5688 8.5 22.2102 8.5 21.7885Z" fill="#1C1B1F"/>
</g>
</svg>
