<svg width="1440" height="83" viewBox="0 0 1440 83" fill="none" xmlns="http://www.w3.org/2000/svg">
<path d="M1346.45 0.268516C1406.59 -4.62577 1416.61 59 1440 59L1440 83L0 82.9999L2.52602e-06 54.1056C23.3875 54.1056 50.116 0.268403 86.8677 0.268406C123.619 0.268409 136.984 54.1056 177.077 54.1056C217.169 54.1056 230.534 0.268418 263.944 0.268421C297.355 0.268424 310.719 49.2113 354.153 54.1056C397.587 58.9999 407.61 0.268434 447.703 0.268437C487.796 0.268441 491.137 54.1056 537.912 54.1056C584.687 54.1056 571.323 0.268448 621.439 0.268453C671.555 0.268457 668.213 54.1056 714.988 54.1056C761.763 54.1057 768.445 0.268465 801.856 0.268468C835.267 0.268471 851.972 54.1057 895.406 54.1057C938.84 54.1057 945.522 0.268481 985.615 0.268484C1025.71 0.268488 1029.05 59 1072.48 59C1115.92 59 1122.6 0.268496 1162.69 0.2685C1202.78 0.268503 1212.81 59 1256.24 59C1299.68 59 1286.31 5.1628 1346.45 0.268516Z" fill="#F4A910"/>
</svg>
