<svg width="1440" height="657" viewBox="0 0 1440 657" fill="none" xmlns="http://www.w3.org/2000/svg">
<path d="M92.6149 0.265381C32.4339 -4.57117 22.4037 58.3041 -1 58.3041V657H1440V53.4675C1416.6 53.4675 1389.85 0.265381 1353.07 0.265381C1316.29 0.265381 1302.92 53.4675 1262.8 53.4675C1222.68 53.4675 1209.31 0.265381 1175.87 0.265381C1142.44 0.265381 1129.06 48.631 1085.6 53.4675C1042.14 58.3041 1032.11 0.265381 991.986 0.265381C951.865 0.265381 948.522 53.4675 901.715 53.4675C854.907 53.4675 868.281 0.265381 818.13 0.265381C767.979 0.265381 771.323 53.4675 724.515 53.4675C677.708 53.4675 671.021 0.265381 637.587 0.265381C604.153 0.265381 587.436 53.4675 543.972 53.4675C500.508 53.4675 493.821 0.265381 453.701 0.265381C413.58 0.265381 410.237 58.3041 366.773 58.3041C323.309 58.3041 316.622 0.265381 276.501 0.265381C236.381 0.265381 226.35 58.3041 182.886 58.3041C139.422 58.3041 152.796 5.10193 92.6149 0.265381Z" fill="#EDEDED"/>
</svg>
